<?xml version="1.0" encoding="iso-8859-1"?>
<!-- Generator: Adobe Illustrator 11 Build 196, SVG Export Plug-In . SVG Version: 6.0.0 Build 78)  -->
<!DOCTYPE svg PUBLIC "-//W3C//DTD SVG 1.0//EN"    "http://www.w3.org/TR/2001/REC-SVG-20010904/DTD/svg10.dtd" [
	<!ENTITY ns_flows "http://ns.adobe.com/Flows/1.0/">
	<!ENTITY ns_svg "http://www.w3.org/2000/svg">
	<!ENTITY ns_xlink "http://www.w3.org/1999/xlink">
	<!ENTITY st0 "fill:none;stroke:#000000;stroke-linecap:round;stroke-linejoin:round;">
]>
<svg  xmlns="&ns_svg;" xmlns:xlink="&ns_xlink;" xmlns:a="http://ns.adobe.com/AdobeSVGViewerExtensions/3.0/"
	 width="127.03" height="123.71" viewBox="0 0 127.03 123.71" style="overflow:visible;enable-background:new 0 0 127.03 123.71"
	 xml:space="preserve">
	<g id="Pfaddaten">
		<path style="&st0;" d="M63.06,61.52c-7.16,5.73-12.93,18.87-11.31,31.26c0.88,6.75,3.96,13.28,10.21,18.26"/>
		<path style="&st0;" d="M53.93,121.82c-16.87,1.38-31.53-9.13-37.9-24.07"/>
		<path style="&st0;" d="M16.03,97.76c5.12,0,9.8,0.29,14.03,0.96c12.68,2,21.24,7.34,24.97,18.13"/>
		<path style="&st0;" d="M52.82,118.23c-9.13-2.77-29.6-14.66-36.79-20.47"/>
		<path style="&st0;" d="M30.69,98.86C3.86,67.33,19.07,23.9,40.1,10.62c1.38-2.21,1.66-3.6,2.77-5.26s2.77-4.15,4.7-4.7
			c1.94-0.55,3.87,0.28,3.6,2.49c2.49-0.83,9.68-3.6,10.23-2.21c0.55,1.38-4.15,4.43-5.81,5.53c1.11,1.94,0.28,3.87-1.66,4.7
			c-1.94,0.83-9.68,2.49-12.45,3.04C18.8,33.31,12.71,71.76,32.9,96.1"/>
		<path style="&st0;" d="M63.06,62.9c-1.94,9.96,1.66,39.83,0.83,46.47"/>
		<path style="&st0;" d="M34.84,99.42c-4.15-6.36-3.87-14.11,0.28-15.77c0-3.04,1.08-5.92,3.32-6.36c1.35-0.27,2.7,0.84,3.76,2.38
			c1.11,1.61,1.91,3.68,2.05,5.09c2.77-0.28,6.36,4.15,7.75,8.57"/>
		<path style="&st0;" d="M21.01,106.89c-4.45-1.88-9.96-7.75-9.96-10.51c-2.49-1.38-3.32-7.75-1.94-8.85
			c1.38-1.11,4.15,0.28,5.81,1.94c2.21-1.38,7.75,0,10.23,2.77"/>
		<path style="&st0;" d="M8.56,91.95c-3.32-2.21-5.26-9.96-4.15-11.06c-1.11-1.66-1.94-3.6-0.28-4.7s4.43,0.28,6.09,1.94
			c3.32-0.83,7.75,4.15,11.62,8.02"/>
		<path style="&st0;" d="M3.03,77.84c-2.77-3.6-3.32-12.17-1.38-12.72c0-2.21-0.28-5.81,1.66-6.36c1.94-0.55,4.7,1.11,5.53,3.87
			c2.49-0.28,6.09,3.32,8.3,7.74"/>
		<path style="&st0;" d="M1.92,59.31c-1.66-3.87-0.83-11.06,1.38-11.89c0.55-3.04,0.83-6.09,2.77-6.36c1.94-0.28,3.6,2.77,4.43,6.36
			c2.49-0.28,4.7,3.04,5.53,8.02"/>
		<path style="&st0;" d="M4.97,41.05c-1.11-4.7,3.87-12.72,5.26-12.72c1.38-1.94,1.38-4.43,3.6-4.15c2.21,0.28,1.94,3.32,1.11,6.64
			c2.49,1.11,2.77,6.64,2.77,13.83"/>
		<path style="&st0;" d="M13.82,24.18c2.21-5.26,4.43-8.3,6.92-8.58c1.11-2.21,2.49-3.32,3.87-2.77c1.38,0.55,1.38,2.77,0.83,4.98
			c1.94,0.83,1.66,3.6,1.38,5.26"/>
		<path style="&st0;" d="M24.61,12.84c1.11-3.6,5.53-6.36,9.13-6.36c2.49-2.21,3.32-3.04,4.43-2.49s1.38,2.21,0.28,3.87
			c0.83,1.38,0.83,1.94-0.28,3.6"/>
		<path style="&st0;" d="M26.27,85.03c-1.38-7.19,2.21-14.38,4.7-14.94c0.55-3.32,1.94-7.47,4.15-7.47s3.32,3.04,3.6,5.26
			c2.77,0.28,3.48,7.08,3.48,11.78"/>
		<path style="&st0;" d="M21.84,69.82c0.28-9.13,3.6-14.38,7.75-14.66c0.83-3.32,3.06-5.9,4.7-5.53c2.49,0.55,1.94,4.15,1.66,6.92
			c2.49,0.55,1.38,4.43,1.11,6.36"/>
		<path style="&st0;" d="M21.84,47.97c1.11-3.32,5.81-7.75,8.3-7.75c1.66-1.94,4.15-4.43,6.09-3.6c1.94,0.83,1.38,4.15,0.55,5.53
			c1.66,1.11,0.83,7.47-0.83,9.4"/>
		<path style="&st0;" d="M27.1,33.31c2.49-2.77,5.53-4.43,6.92-3.87c2.21-1.94,4.98-3.6,6.36-2.77c1.38,0.83,1.38,2.49,0.28,4.15
			c1.11,1.66-0.28,4.15-3.32,7.19"/>
		<path style="&st0;" d="M37.88,17.54c3.04-1.11,4.7-1.66,6.09-0.83c1.94-0.83,4.7-2.21,5.81-1.11s-1.38,3.6-2.77,4.43
			c1.38,2.21-2.49,5.81-5.53,8.02"/>
		<path style="&st0;" d="M63.06,61.52c7.61,6.09,14.08,20.28,11.63,33.14c-1.11,5.85-3.7,11.46-9.23,15.87"/>
		<path style="&st0;" d="M73.1,122.38c16.87,1.38,31.53-9.13,37.9-24.07"/>
		<path style="&st0;" d="M111,98.31c-20.47,0-34.02,4.7-39,19.09"/>
		<path style="&st0;" d="M74.21,118.78c9.13-2.77,29.6-14.66,36.79-20.47"/>
		<path style="&st0;" d="M96.89,99.42c26.83-34.02,9.68-75.24-9.96-88.24c-1.38-2.21-1.66-3.6-2.77-5.26s-2.77-4.15-4.7-4.7
			c-1.94-0.55-3.87,0.28-3.6,2.49c-2.49-0.83-9.68-3.6-10.23-2.21c-0.55,1.38,4.15,4.43,5.81,5.53c-1.11,1.94-0.28,3.87,1.66,4.7
			c1.94,0.83,9.68,2.49,12.45,3.04c22.68,19.09,28.77,57.54,8.58,81.88"/>
		<path style="&st0;" d="M63.88,109.1c0.75,0.12,1.24,0.71,1.57,1.43c0.4,0.88,0.58,1.96,0.73,2.72c0.38,1.92,0,4.67,0.28,4.7
			c2.21,0.28,3.58-0.55,5.53-0.55c1.02,0,1.66,0.28,2.21,1.38c0.55,1.11-1.11,3.6-1.11,3.6c-1.38,0.83-6.73,0.83-10.05,0.83
			c-3.32,0-7.75-0.55-9.13-1.38c0,0-1.66-2.49-1.11-3.6s1.38-1.66,2.21-1.38c1.86,0.62,4.43,1.38,6.64,1.11
			c0.27-0.03-0.66-3.34-0.28-5.26C61.67,111.31,62.23,109.38,63.88,109.1"/>
		<path style="&st0;" d="M92.19,99.97c4.15-6.36,3.87-14.11-0.28-15.77c0-3.04-1.11-5.81-3.32-6.36c-2.21-0.55-5.53,4.7-5.81,7.47
			c-2.77-0.28-5.9,2.49-8.1,9.35"/>
		<path style="&st0;" d="M106.02,107.44c4.45-1.87,9.4-8.02,9.96-10.51c2.49-1.38,3.32-7.75,1.94-8.85
			c-1.38-1.11-4.15,0.28-5.81,1.94c-2.21-1.38-7.75,0-10.23,2.77"/>
		<path style="&st0;" d="M118.47,92.5c3.32-2.21,5.26-9.96,4.15-11.07c1.11-1.66,1.94-3.6,0.28-4.7c-1.66-1.11-4.43,0.28-6.08,1.94
			c-3.32-0.83-7.75,4.15-11.62,8.02"/>
		<path style="&st0;" d="M124,78.39c2.77-3.6,3.32-12.17,1.38-12.72c0-2.21,0.28-5.81-1.66-6.36s-4.7,1.11-5.53,3.87
			c-2.49-0.28-6.09,3.32-8.3,7.75"/>
		<path style="&st0;" d="M125.1,59.86c1.66-3.87,0.83-11.06-1.38-11.89c-0.55-3.04-0.83-6.09-2.77-6.36
			c-1.94-0.28-3.6,2.77-4.43,6.36c-2.49-0.28-4.7,3.04-5.53,8.02"/>
		<path style="&st0;" d="M122.06,41.6c1.11-4.7-3.87-12.72-5.25-12.72c-1.38-1.94-1.38-4.43-3.6-4.15
			c-2.21,0.28-1.94,3.32-1.11,6.64c-2.49,1.11-2.77,6.64-2.77,13.83"/>
		<path style="&st0;" d="M113.21,24.73c-2.21-5.26-4.43-8.3-6.92-8.58c-1.11-2.21-2.49-3.32-3.87-2.77
			c-1.38,0.55-1.38,2.77-0.83,4.98c-1.94,0.83-1.66,3.6-1.38,5.26"/>
		<path style="&st0;" d="M102.42,13.39c-1.11-3.6-5.53-6.36-9.13-6.36c-2.49-2.21-3.32-3.04-4.43-2.49s-1.38,2.21-0.28,3.87
			c-0.83,1.38-0.83,1.94,0.28,3.6"/>
		<path style="&st0;" d="M100.76,85.59c1.38-7.19-2.21-14.38-4.7-14.94c-0.55-3.32-1.94-7.47-4.15-7.47s-3.32,3.04-3.6,5.26
			C85.55,68.71,85,75.63,85,80.33"/>
		<path style="&st0;" d="M105.19,70.37c-0.28-9.13-3.6-14.38-7.75-14.66c-0.83-3.32-3.06-5.9-4.7-5.53
			c-2.49,0.55-1.94,4.15-1.66,6.92c-2.49,0.55-1.38,4.43-1.11,6.36"/>
		<path style="&st0;" d="M105.19,48.52c-1.11-3.32-5.81-7.75-8.3-7.75c-1.66-1.94-4.15-4.43-6.08-3.6
			c-1.94,0.83-1.38,4.15-0.55,5.53c-1.66,1.11-0.83,7.47,0.83,9.4"/>
		<path style="&st0;" d="M99.93,33.86c-2.49-2.77-5.53-4.43-6.92-3.87c-2.21-1.94-4.98-3.6-6.36-2.77
			c-1.38,0.83-1.38,2.49-0.28,4.15c-1.11,1.66,0.28,4.15,3.32,7.19"/>
		<path style="&st0;" d="M89.06,18.09c-1.94-1.11-4.61-1.66-6-0.83c-1.94-0.83-4.7-2.21-5.81-1.11c-1.11,1.11,1.38,3.6,2.77,4.43
			c-1.38,2.21,2.49,5.81,5.53,8.02"/>
	</g>
</svg>
