<?xml version="1.0" encoding="iso-8859-1"?>
<!-- Generator: Adobe Illustrator 11 Build 196, SVG Export Plug-In . SVG Version: 6.0.0 Build 78)  -->
<!DOCTYPE svg PUBLIC "-//W3C//DTD SVG 1.0//EN"    "http://www.w3.org/TR/2001/REC-SVG-20010904/DTD/svg10.dtd" [
	<!ENTITY ns_flows "http://ns.adobe.com/Flows/1.0/">
	<!ENTITY ns_svg "http://www.w3.org/2000/svg">
	<!ENTITY ns_xlink "http://www.w3.org/1999/xlink">
	<!ENTITY st0 "fill:none;stroke:#000000;stroke-linecap:round;stroke-linejoin:round;">
	<!ENTITY st1 "stroke:#000000;stroke-linecap:round;stroke-linejoin:round;">
]>
<svg  xmlns="&ns_svg;" xmlns:xlink="&ns_xlink;" xmlns:a="http://ns.adobe.com/AdobeSVGViewerExtensions/3.0/"
	 width="123.93" height="120.06" viewBox="0 0 123.93 120.06" style="overflow:visible;enable-background:new 0 0 123.93 120.06"
	 xml:space="preserve">
	<g id="Bild">
		<circle style="&st0;" cx="59.18" cy="27.11" r="2.5"/> 
		<circle style="&st0;" cx="72.27" cy="40.21" r="2.5"/> 
		<circle style="&st0;" cx="83.3" cy="52.1" r="2.5"/> 
		<circle style="&st0;" cx="56.17" cy="102.98" r="2.5"/> 
		<circle style="&st0;" cx="21.09" cy="56.06" r="2.5"/> 
		<circle style="&st0;" cx="33.5" cy="53.99" r="2.5"/> 
		<path style="&st0;" d="M52.63,27.45c-0.17,4.48,5.51,7.24,10.17,5.51"/>
		<path style="&st0;" d="M51.08,33.31c-0.17,4.48,7.24,6.89,11.2,4.48"/>
		<path style="&st0;" d="M65.38,40.21c-0.17,4.48,6.72,7.41,11.37,5.69"/>
		<path style="&st0;" d="M62.79,45.55c-0.17,4.48,8.27,7.41,12.24,5"/>
		<path style="&st0;" d="M75.89,53.99c1.38,4.31,6.2,5.69,10.86,3.96"/>
		<path style="&st0;" d="M75.37,58.99c1.21,4.31,6.38,5.34,10.34,3.79"/>
		<path style="&st0;" d="M75.2,89.66c1.3-15.27,15.68-28.26,21.71-35.15c1.72-5.51-0.69-12.06-6.89-13.27
			c-0.17-10-8.79-19.13-18.44-20.16C73.13,12.29,57.62-1.5,42.46,0.74c4.14,7.58,3.27,38.08,2.24,47.73
			c-1.86,17.37,0,34.98,6.2,43.6"/>
		<path style="&st0;" d="M88.64,34.17c-1.72-9.48-6.03-14.98-6.03-19.3c0-6.55,5-7.75,6.89-7.75c2.24,0,4.83,0.69,4.83,4.65
			c2.07-0.17,5.59-1.72,8.27,1.21c1.9,2.07,1.69,6.19,0,7.58c-3.44,2.83-8.44,6.83-8.44,11.5c0,4.96,5.17,8.33,8.5,10"/>
		<path style="&st0;" d="M45.04,44.69c0.69,3.62,6.55,8.96,10.86,8.44c2.58,8.79,8.04,11.83,15.68,10.51
			c2.24,5.51,7.07,7.31,12.58,5.42"/>
		<path style="&st0;" d="M47.97,61.75c-0.52,10.68,4.45,25.34,6.86,29.48"/>
		<path style="&st0;" d="M44.53,51.58c0.86,3.1,5.69,5.51,8.96,5.51c0.53,8.72,7.35,13.09,16.37,12.06
			c1.72,4.14,7.17,5.97,11.47,3.9"/>
		<path style="&st0;" d="M96.92,54.51c3.79-3.96,5.86-5.51,5.86-10.51s-0.34-7.41-0.34-10.34s2.07-6.72,6.03-6.72
			s5.03,5.01,3.79,8.96c1.25-0.51,1.59-1.61,4.08-1.84c1.83-0.17,4.41,2.3,4.36,5.46c-0.03,2.21-1.36,4.54-3.31,4.83
			c-3.07,0.45-6.89,4.31-6.89,7.24c0,2.93,1.55,3.96,3.1,3.96s4.74-6.15,7.07-6.15c2.59,0,2.83,4.5,2.75,8.56
			c-0.04,2.25-1.09,5.86-1.09,8.27s0.83,3.59,0.83,6s-7.2,13.66-7.5,16.92c-0.33,3.58-4.14,11.1-9.31,11.37
			c-3.86,0.21-4.36-1.29-4.53-4.29c-0.34-6.06,10.03-18.05,14.33-21.5"/>
		<path style="&st0;" d="M45.5,31.23c0-13-9.67-21.17-18.5-21.17c-7.5,0-13.17,6.08-13.17,13.67s3.33,13.25,10.58,13.25
			s7.42-4.75,7.42-7.42s-1.67-4.25-3.17-4.33C25.83,25.06,25,25.89,25,28.06c0,2,1.5,1.5,1.5,2.67c0,0.83-0.83,1.5-1.83,1.5
			c-2.17,0-5.17-2.67-5.17-8c0-5.5,3.83-8.83,8.33-8.83s11,4.5,11,14.33s0,6.83,0,9.83"/>
		<path style="&st0;" d="M100,58.56c-8,5.17-19.17,19.5-20.33,31.17"/>
		<path style="&st0;" d="M105.83,60.39C95.67,67.73,88.5,75.73,85,90.89"/>
		<path style="&st0;" d="M109.5,63.39c-5.33,3.5-16.5,15.17-18.17,29.33"/>
		<path style="&st0;" d="M114,67.72c-5.33,3.33-16.33,14.67-17,24.67"/>
		<path style="&st0;" d="M60,92.06c-4.67-9-6.51-24.76-6.51-34.96"/>
		<path style="&st0;" d="M64.5,95.06c-2.67-9.5-3.67-17-3.67-23"/>
		<path style="&st0;" d="M68.83,91.56c-1.67-6.33-0.17-18.17,0.83-22"/>
		<path style="&st0;" d="M72.33,89.56c0-5.67,0.5-9,1.67-14"/>
		<path style="&st0;" d="M17.67,61.89c3,1,7,0.33,8.67-2"/>
		<path style="&st0;" d="M19.33,67.23c3,1,7,0.33,8.67-2"/>
		<path style="&st0;" d="M30.17,59.06c2.17,0.83,7.17,0.5,9-0.83"/>
		<path style="&st0;" d="M31.33,64.06c3.17,1.33,6.33,0.33,8-1.33"/>
		<path style="&st0;" d="M22.33,78.39c-3.83-4.83-5.33-7.5-9.5-11.5C10.62,64.76,8,64.23,5,64.23c-3.33,0-4.5,1.72-4.5,4.17
			c0,1.5,1.67,3.83,3.67,3.83s4.5-1,4.5-3.17c1.67,1.5,3.33,2.93,3.67,3.33c3.17,3.83,10.17,14,13.67,17.83s6.67,8.5,9,10
			s3.5,2.83,5.83,2.83s3.17-1.17,6.17-1.33c-6.33-0.67-13.67-6.33-19.17-14.33c-1.95-2.84-21.06-33.81-24.5-39.83
			c0.46-3.89,7.49-4.55,11.5-2c1.5-5.51,12.89-6.43,16.17-2.17c2.17-3.33,5.83-3.83,7.83-3.83c1.83,0,5.33,0.17,6.33,2.67"/>
		<path style="&st0;" d="M19.83,73.89c4.17,1.5,11.33,0.83,13.67-2c4.33,0.33,9.5-0.33,10.67-3.83"/>
		<path style="&st0;" d="M23,78.73c4.17,1,11.17-1.17,12.5-3.33c2.83,0.83,8-0.17,8.5-2.17"/>
		<path style="&st0;" d="M41.83,79.73c0.67,3.17,5,11.83,8.17,14.33"/>
		<path style="&st0;" d="M47.33,98.06c-4.33-1-14.5-11-15.5-16"/>
		<path style="&st0;" d="M48.17,95.56C44.83,93.06,36,83.06,35.5,75.39"/>
		<path style="&st0;" d="M51.17,105.06c-3.17,0.17-3.67-1.5-3.67-5s3.17-8.83,8-8.83s8.17,3.33,8.17,6.67s-0.83,9-6.5,9
			c-2.17,0-6.33,3.83-6.33,6.5s3.17,0.33,3.17,2.33s-2.17,3.83-5,3.83s-5.17-3-5.17-6.17s1.83-4.17,6.17-8"/>
		<path style="&st0;" d="M26,90.23c-4,0-11.5,4-11.5,6.33s2.67,4,5.67,1.83c3.37-2.44,5.33-3.67,9-4"/>
		<path style="&st0;" d="M20.17,98.39c-3.17,2.17-1.5,6,2.17,4.67"/>
		<path style="&st0;" d="M33.83,99.23c-0.5-0.17-2.67,0.17-3.67,0.33c-2.8,0.46-9.67,3.67-9.33,6c0.19,1.32,1.67,2.67,3.83,2
			c2.07-0.64,3.5-3.17,6.5-3.17s2.33,1.17,3.83,1.17s3.18-1.74,5-1.33c1.5,0.33,2.33,3,3.33,3s3,0,4.67-3.67"/>
		<path style="&st0;" d="M63.5,96.39c3.67-3,9.17-6.67,12.83-6.83s4.58,2,4.5,3.17c-0.14,1.96-1.89,4.34-3.92,6.56
			c-2.96,3.24-6.47,6.14-6.41,6.94c0.17,2,8,6.33,8,8.17s-1.17,1.67-2.67,1.67s-13-7.17-13-9.5c0-3.17,8-9,10.33-10.67"/>
		<path style="&st0;" d="M76.91,99.29c2.41-2.41,6.43-8.23,9.09-8.23s3.67,1.17,3.67,2.83c0,2.83-10.5,10.33-10.5,11.67
			s5.67,6.17,5.67,7.83s-1,2-2.33,2s-2.83-0.33-4.33-2"/>
		<path style="&st0;" d="M89.33,94.73c2.33-2.67,2.83-2.5,4.83-2.5s3.67,1.17,3.67,3.17s-9.5,9.5-9.5,10.67s2.67,4,2.67,5
			s-1.67,2.67-2.83,2.67s-2.67-0.67-3.83-1.83"/>
		<path style="&st0;" d="M91,103.39c4.83,0.83,10-0.5,12.67-3"/>
		<path style="&st0;" d="M97,92.06c0,1.5,1.33,4,2.83,3.83s2-1.67,2.67-3"/>
		<line style="&st0;" x1="62" y1="104.39" x2="63.17" y2="105.06"/>
		<circle style="&st1;" cx="56.17" cy="102.98" r="1"/> 
	</g>
</svg>
