<?xml version="1.0" encoding="iso-8859-1"?>
<!-- Generator: Adobe Illustrator 11 Build 196, SVG Export Plug-In . SVG Version: 6.0.0 Build 78)  -->
<!DOCTYPE svg PUBLIC "-//W3C//DTD SVG 1.0//EN"    "http://www.w3.org/TR/2001/REC-SVG-20010904/DTD/svg10.dtd" [
	<!ENTITY ns_flows "http://ns.adobe.com/Flows/1.0/">
	<!ENTITY ns_svg "http://www.w3.org/2000/svg">
	<!ENTITY ns_xlink "http://www.w3.org/1999/xlink">
	<!ENTITY st0 "fill:none;stroke:#000000;stroke-linecap:round;stroke-linejoin:round;">
	<!ENTITY st1 "fill:none;stroke:#000000;stroke-linejoin:round;">
]>
<svg  xmlns="&ns_svg;" xmlns:xlink="&ns_xlink;" xmlns:a="http://ns.adobe.com/AdobeSVGViewerExtensions/3.0/"
	 width="177.41" height="190.87" viewBox="0 0 177.41 190.87" style="overflow:visible;enable-background:new 0 0 177.41 190.87"
	 xml:space="preserve">
	<g id="Bild">
		<path style="&st0;" d="M52.27,40.75C32.6,21.08,16.54,5.02,16.54,5.02"/>
		<path style="&st0;" d="M161.27,4.62c0,0-22.84,22.84-52.31,52.31"/>
		<path style="&st1;" d="M115.76,41.81c-7.92-3.55-20.19-3.57-27.06,3.31c-5.14,5.14-8.77,8.77-11.73,11.73"/>
		<path style="&st1;" d="M83.41,41.81c-8.04-3.26-20.45-3.04-26.78,3.3c-10.64,10.64-7.16,21.28-3.62,27.24"/>
		<path style="&st1;" d="M93.53,144.79c8.53,4.32,20.63,3.17,27.25-3.46c6.63-6.63,7.78-18.75,3.44-27.28"/>
		<path style="&st1;" d="M68.39,97.5c-6.63,6.63-10.25,10.25-11.76,11.76c-10.52,10.52-10.99,18.57-4.09,27.49"/>
		<path style="&st0;" d="M57.37,37.36L20.78,0.78 M156.91,0.5l-52.14,52.14 M113.29,61.08l3.71-3.71l48.51-48.51 M12.29,9.26
			l36.13,36.13 M50.23,42.96L14.42,7.14 M163.4,6.74l-52.31,52.31 M106.84,54.81l52.19-52.19 M18.66,2.9l35.97,35.97 M84.46,40.87
			C83.69,41.64,72.8,52.53,72.8,52.53 M120.3,37.37c-4.46-2.48-10.19-3.92-16.07-3.92c-7.97,0-14.99,2.63-19.77,7.42 M88.44,37.58
			c-10.2-5.56-27.31-5.45-36.06,3.29C39.26,54,42.92,68.11,48.53,76.65 M120.56,68.48c-3.51-3.52-16.32-16.32-22.19-22.18
			 M57.36,67.96c-2.28-4.52-3.6-11.5,3.51-18.6c3.8-3.8,11.6-4.3,17.44-2.91 M81.21,61.09l11.73-11.73c2.52-2.52,6.53-3.9,11.29-3.9
			c2.34,0,4.71,0.36,6.8,0.98 M113.19,43.97c-2.65-0.97-5.77-1.52-8.95-1.52c-5.56,0-10.32,1.7-13.41,4.78L79.05,59.01 M81.22,44.22
			c-6.93-2.36-17.28-2.18-22.47,3.01c-8.9,8.9-6.61,17.62-3.65,22.89 M95.41,47.57c5.83,5.83,19.57,19.56,23.12,23.11 M50.72,74.5
			c-4.83-7.69-7.7-20.02,3.79-31.51c7.42-7.42,22.17-7.74,31.37-3.37 M74.85,54.72l11.73-11.73c4.22-4.22,10.48-6.54,17.65-6.54
			c4.89,0,9.63,1.07,13.46,2.93 M88.91,149.05c10.84,6.59,27.21,5.43,36.11-3.47c4.94-4.94,7.77-12.33,7.77-20.28
			c0-5.79-1.5-11.29-4.23-15.76 M119.66,118.63c0.73,2.03,1.13,4.31,1.13,6.67c0,4.72-1.59,9.13-4.26,11.79
			c-4.25,4.25-12.36,5.29-18.49,3.1 M95.76,142.55c7.34,3.28,17.4,2.17,22.9-3.33c3.22-3.21,5.14-8.42,5.14-13.92
			c0-3.21-0.65-6.31-1.83-8.98 M126.4,111.78c2.19,3.87,3.39,8.57,3.39,13.52c0,7.16-2.51,13.78-6.89,18.16
			c-7.78,7.79-21.94,8.96-31.64,3.52 M64.15,93.26l-12.03,12.03c-1.35,1.35-2.57,2.69-3.64,4.01c-4.39,5.4-6.54,10.64-6.54,16.06
			c0,5.28,2.09,10.42,6.5,15.87 M56.9,132.58c-2-2.71-2.96-5.06-2.96-7.22c0-3.31,2.27-7.19,6.93-11.86l11.81-11.81 M59.19,110.94
			l-0.44,0.44c-5.26,5.26-7.81,9.83-7.81,13.98c0,2.89,1.22,5.91,3.77,9.29 M50.44,138.92c-3.73-4.73-5.5-9.13-5.5-13.56
			c0-5.9,3.04-11.69,9.57-18.22l11.72-11.72 M64.1,125.38l-11.71,11.71c-9.78,9.78-9.78,11.53-9.78,28.3
			c0,3.88,0.53,9.57,5.09,14.13c5.54,5.54,15.41,7.91,32.99,7.91h1.95 M88.57,68.56L66.51,46.51 M120.4,100.4L97.18,77.18
			 M56.8,117.92l23.33,23.33 M113.29,93.16l11.73-11.73c6.75-6.75,10.13-13.8,10.04-20.96c-0.08-6.78-3.19-11.96-6.02-15.4
			 M81.2,125.25l23.51-23.51 M60.87,145.58l11.76-11.76 M87.2,175.54l-6.03-0.11h-0.48c-16.62,0-22.5-2.39-24.5-4.39
			c-1.1-1.1-1.57-2.79-1.57-5.65c0-13.55,0-13.55,6.26-19.81 M119.95,149.16c2.85,3.4,2.85,5.81,2.85,16.23
			c0,3.96-0.71,6.66-2.11,8.02c-2.64,2.57-9.58,2.36-16.92,2.15 M88.75,117.79l11.75,11.75l10.88,10.88 M56.97,86.02l23.25,23.25
			 M113.15,125.38l11.87-11.87 M56.89,149.74c10.81,9.1,21.22,10.68,36.06-4.16l11.85-11.85 M96.32,61.08L72.77,84.64 M81.21,93.17
			l23.51-23.51 M96.26,125.3l-11.79,11.79c-5.31,5.31-8.92,7.58-12.05,7.58c-2.26,0-4.5-1.23-7.25-3.55 M116.54,105.02l-11.77,11.77
			 M88.74,53.63c4.21,4.21,16.81,16.81,23.46,23.47 M88.66,100.73L65.15,77.22 M119.86,131.93l-2.86-2.86l-8.02-8.02l-11.71-11.71
			 M103.42,187.56c9.95,0.29,19.35,0.57,25.63-5.53c3.87-3.76,5.75-9.2,5.75-16.63c0-14.45,0-17.75-6.25-24.64 M96.05,93.43
			l-23.33,23.34 M120.47,53.62c1.37,1.89,2.55,4.27,2.59,6.99c0.05,3.81-2.15,7.95-6.52,12.33L104.8,84.68 M88.75,132.9l-7.82-7.82
			l-8.48-8.49l-7.42-7.42 M88.65,85.62l23.61,23.6 M57.21,54.17l22.79,22.79 M82.2,74.93L58.83,51.55 M114.32,107.04L90.86,83.59
			 M62.9,111.29l23.73,23.73 M106.93,86.8l11.73-11.73c4.97-4.97,7.46-9.84,7.4-14.49c-0.04-3.63-1.61-6.66-3.32-8.95 M74.84,118.88
			l23.51-23.51 M87.13,184.42c-4.7,0-15.25-0.15-18.84-0.5c-9.17-0.89-14.94-2.97-18.48-6.51c-3.77-3.77-4.21-8.66-4.21-12.01
			c0-16.3,0-17.28,8.9-26.18l11.85-11.85 M126.8,143.29c4.99,5.64,4.99,8.66,4.99,22.11c0,6.58-1.58,11.32-4.84,14.48
			c-5.37,5.22-13.92,4.96-23.22,4.69 M95.07,111.38c7.43,7.43,23.38,23.38,23.38,23.38 M63.03,79.34
			c5.45,5.45,14.39,14.39,23.51,23.51 M114.42,75.06c-3.58-3.59-17.79-17.79-23.56-23.55 M106.86,118.93l11.79-11.79 M63.02,143.26
			c3.09,2.66,6.06,4.41,9.39,4.41c4,0,8.24-2.53,14.17-8.46l11.79-11.79 M70.51,99.62l-11.76,11.76 M102.56,67.58L79.09,91.05
			 M74.89,86.76L98.4,63.25 M102.68,131.61l-11.85,11.85c-13.36,13.36-22.13,12.36-32,4.01 M122.9,111.38l-11.83,11.83
			 M82.34,107.14L58.78,83.58 M114.2,139l-23.38-23.38 M104.07,178.56c8.34,0.24,15.15,0.46,18.7-2.99
			c2.03-1.98,3.02-5.31,3.02-10.18c0-11.03,0-13.85-3.32-17.88 M59.19,143.02l-0.44,0.44c-7.14,7.14-7.14,7.7-7.14,21.94
			c0,3.73,0.73,6.05,2.45,7.77c2.35,2.35,6.98,3.9,14.02,4.68c3.57,0.39,16.72,0.59,21.55,0.59 M70.51,131.7l-11.76,11.76
			 M102.55,99.66l-23.47,23.47 M126.97,47.29c2.46,3.08,5.02,7.55,5.09,13.21c0.08,6.32-3,12.65-9.16,18.8L111.21,91 M82.39,139.26
			l-23.73-23.73 M95.11,79.35l23.45,23.45 M63.37,47.61l23.07,23.07"/>
		<path style="&st0;" d="M44.82,175.43H0.5 M0.5,187.43h77.51 M55.63,184.43H0.5 M176.91,184.43h-50.57 M0.5,178.43h46.01"/>
		<path style="&st0;" d="M116.01,187.43h60.9 M176.91,175.43h-43.67 M131.91,178.43h45"/>
		<path style="&st1;" d="M84.32,72.81c-7.77-7.77-15.5-15.5-23.44-23.44"/>
		<path style="&st1;" d="M116.54,105.02c-5.52-5.51-13.77-13.77-23.6-23.59"/>
		<path style="&st1;" d="M60.78,113.41c10.3,10.3,15.57,15.57,23.73,23.73"/>
		<path style="&st1;" d="M109.09,88.88c5.88-5.88,9.46-9.46,11.69-11.69c12.45-12.45,8.29-22.29,4.05-27.76"/>
		<path style="&st1;" d="M76.92,121.05c8.11-8.11,15.89-15.89,23.56-23.56"/>
		<path style="&st1;" d="M89.69,181.43c-4.33,0-17.1-0.15-20.37-0.45c-17.29-1.55-20.71-7.12-20.71-15.59
			c0-16.04,0-16.04,8.02-24.06c3.77-3.77,6.93-6.93,11.76-11.76"/>
		<path style="&st1;" d="M124.78,145.48c4.02,4.55,4.02,7.18,4.02,19.91"/>
		<path style="&st1;" d="M92.99,113.55c4.62,4.62,19.42,19.41,23.64,23.64"/>
		<path style="&st1;" d="M60.87,81.43c8.12,8.12,15.32,15.32,23.46,23.46"/>
		<path style="&st1;" d="M116.49,72.9c-8.65-8.66-15.67-15.72-23.53-23.56"/>
		<path style="&st1;" d="M108.98,121.06c3.92-3.92,6.09-6.09,11.79-11.79"/>
		<path style="&st1;" d="M60.89,145.31c8.73,7.4,15.84,8.01,27.82-3.97c5.63-5.63,8.53-8.53,11.79-11.79"/>
		<path style="&st1;" d="M100.52,65.37c-9.01,9.01-16.62,16.62-23.6,23.6"/>
		<line style="&st0;" x1="0.5" y1="181.43" x2="49.82" y2="181.43"/>
		<line style="&st0;" x1="129.74" y1="181.43" x2="176.91" y2="181.43"/>
		<path style="&st0;" d="M81.07,174.92c5.75-2.75,5.5,0.75,8.75,3.5s5.17,6.33,8.42,6.33"/>
		<path style="&st0;" d="M82.82,173.92c5.75-2.75,5.5,0.75,8.75,3.5s3.88,4.58,7,5"/>
		<path style="&st0;" d="M84.32,172.92c5.75-2.75,5.74,0.49,8.75,3.5c3,3,4.14,3.98,5.42,4.08"/>
		<path style="&st0;" d="M85.82,171.67c5.75-2.75,5.5,0.75,8.75,3.5c2.44,2.06,2.42,2.83,4,3.33"/>
		<path style="&st0;" d="M79.07,187.92c2.5,1.25,9.75-3.5,11.75-8.5"/>
		<path style="&st0;" d="M80.82,188.85c2.5,1.25,9.67-2.69,11.67-7.69"/>
		<path style="&st0;" d="M83.32,189.35c2.23,1.11,9.58-1.85,10.92-6.44"/>
		<path style="&st0;" d="M85.82,190.1c2.3,1.15,8.5-1.52,10.33-5.94"/>
		<path style="&st0;" d="M95.66,175.58c0.41-0.69,1.04-1.29,1.42-1.17c1.91,0.64,1.88,3.75,1.62,6.75s-0.71,6.58-2.21,6.83
			c0.55-0.09-1.76,0.83-1.54-1.71"/>
		<path style="&st0;" d="M98.2,174.92c0.62-0.5,0.44-0.75,0.81-0.62c1.91,0.64,1.88,3.75,1.62,6.75s-0.36,6.92-1.88,7
			c-0.77,0.04-1.06-0.38-1.06-0.38"/>
		<path style="&st0;" d="M99.82,174.92c0.62-0.5,0.18-0.46,0.56-0.38c2.69,0.62,2.19,4.12,1.94,7.12s-0.68,6.84-2.19,6.62
			c-2.06-0.29-1.4,0.12-2.4-0.88"/>
		<path style="&st0;" d="M101.41,174.83c0,0,0.48-0.42,0.85-0.29c1.91,0.64,1.88,3.75,1.62,6.75s-0.1,6.2-1.88,7
			c-1.02,0.46-1.19-0.12-1.19-0.12"/>
		<path style="&st1;" d="M128.8,165.39c0,12.25-5.88,15.45-14.45,16.13c-5.14,0.41-3.9-0.09-10.28-0.09"/>
		<path style="&st1;" d="M48.82,109.02c-4.49-5.5-6.61-10.67-6.61-16c0-5.42,2.14-10.66,6.54-16.06c1.08-1.33,2.29-2.66,3.64-4.01
			L64.2,61.13"/>
		<path style="&st1;" d="M57.21,100.29c-2.03-2.73-3-5.1-3-7.27c0-3.31,2.13-7.06,6.8-11.72l11.55-11.55"/>
		<path style="&st1;" d="M55.04,102.38c-2.6-3.41-3.83-6.46-3.83-9.36c0-4.15,2.61-8.78,7.87-14.03l0,0l11.44-11.44"/>
		<path style="&st1;" d="M50.79,106.69c-3.79-4.77-5.58-9.2-5.59-13.67c0-5.9,2.91-11.56,9.43-18.09L66.28,63.3"/>
		<path style="&st1;" d="M52.96,104.6c-7.06-9-6.79-16.96,3.8-27.55c5.93-5.93,8.21-8.21,11.59-11.59"/>
		<path style="&st1;" d="M125.02,113.5c6.75-6.75,10.13-13.8,10.04-20.96c-0.08-6.78-3.19-11.96-6.02-15.4"/>
		<path style="&st1;" d="M120.58,85.85c1.32,1.86,2.45,4.19,2.48,6.84c0.05,3.81-2.15,7.95-6.52,12.33"/>
		<path style="&st1;" d="M118.66,107.14c4.97-4.97,7.46-9.84,7.4-14.49c-0.04-3.63-1.61-6.66-3.32-8.95"/>
		<path style="&st1;" d="M126.97,79.37c2.46,3.08,5.02,7.55,5.09,13.21c0.08,6.32-3,12.65-9.16,18.8"/>
		<path style="&st1;" d="M120.78,109.26c12.45-12.45,8.29-22.29,4.05-27.76"/>
	</g>
</svg>
