<?xml version="1.0" encoding="iso-8859-1"?>
<!-- Generator: Adobe Illustrator 11 Build 196, SVG Export Plug-In . SVG Version: 6.0.0 Build 78)  -->
<!DOCTYPE svg PUBLIC "-//W3C//DTD SVG 1.0//EN"    "http://www.w3.org/TR/2001/REC-SVG-20010904/DTD/svg10.dtd" [
	<!ENTITY ns_flows "http://ns.adobe.com/Flows/1.0/">
	<!ENTITY ns_svg "http://www.w3.org/2000/svg">
	<!ENTITY ns_xlink "http://www.w3.org/1999/xlink">
	<!ENTITY st0 "fill:#0A0809;">
]>
<svg  xmlns="&ns_svg;" xmlns:xlink="&ns_xlink;" xmlns:a="http://ns.adobe.com/AdobeSVGViewerExtensions/3.0/"
	 width="183.35" height="183.35" viewBox="0 0 183.35 183.35" style="overflow:visible;enable-background:new 0 0 183.35 183.35"
	 xml:space="preserve">
	<g id="Pfade">
		<g>
			<path style="&st0;" d="M91.85,42.27c0,0-5.61,2.52-5.61,22.03c0,19.52,5.61,22.8,5.61,22.8s5.6-3.28,5.6-22.8
				C97.46,44.79,91.85,42.27,91.85,42.27z M84.98,74.76c-0.63,3.27-7.43,6.3-7.43,6.3c8.94,6.8,12.34,6.3,12.34,6.3
				C86.12,84.45,84.98,74.76,84.98,74.76z M109.66,78.73c3.75-0.57,6.24-3.63,6.24-3.63c-2.04-0.57-6.47-4.31-6.47-4.31
				L109.66,78.73z M98.72,74.76c0,0-1.13,9.69-4.91,12.59c0,0,3.4,0.5,12.34-6.3C106.14,81.05,99.35,78.03,98.72,74.76z M96.7,44.16
				c0,0,3.02,18.76,20.27,29.46c0,0,1.51-14.1-13.6-30.09C103.37,43.53,99.72,45.42,96.7,44.16z M100.24,68.75
				c0,0-1.82,7.15,7.04,9.87v-10.9c0,0-5.56-6.01-7.04-8.51V68.75z M83.46,68.75v-9.53c-1.48,2.5-7.04,8.51-7.04,8.51v10.9
				C85.28,75.9,83.46,68.75,83.46,68.75z M48.51,52.74c0,0,12.6,4.99,30.98-10.55c0,0-2.84-1.82-2.16-5.33
				C77.33,36.85,61.9,35.72,48.51,52.74z M80.33,43.53c-15.11,15.99-13.6,30.09-13.6,30.09C83.98,62.92,87,44.16,87,44.16
				C83.98,45.42,80.33,43.53,80.33,43.53z M72.57,49.79c-3.86,3.06-12.94,5.41-12.94,5.41c-3.86,2.38-5.67,11.27-5.67,11.27
				c5.9-0.23,12.94-4.65,12.94-4.65C67.23,58.76,72.57,49.79,72.57,49.79z M56,56.15c0,0-6.02-0.34-8.06-1.02
				c0,0-0.23,7.26,4.09,9.19C52.02,64.32,53.84,57.85,56,56.15z M74.04,78.73l0.23-7.94c0,0-4.43,3.75-6.47,4.31
				C67.8,75.1,70.3,78.17,74.04,78.73z M55.77,68.75c0,0,2.27,2.84,8.06,4.43c0,0,0.11-4.99,0.91-7.26
				C64.74,65.91,57.02,68.86,55.77,68.75z M127.7,56.15c2.16,1.7,3.97,8.17,3.97,8.17c4.31-1.93,4.09-9.19,4.09-9.19
				C133.72,55.81,127.7,56.15,127.7,56.15z M93.77,35.27c0,0-1.92,6.48,4.99,6.36c6.58-0.11,3.41-7.83,3.41-7.83
				c14.87,1.25,23.49-5.11,23.49-5.11c-6.81-4.99-13.73-4.77-13.73-4.77C95.59,23.92,93.77,35.27,93.77,35.27z M104.21,42.19
				c18.39,15.55,30.98,10.55,30.98,10.55c-13.39-17.02-28.83-15.89-28.83-15.89C107.05,40.37,104.21,42.19,104.21,42.19z
				 M56.56,30.39c0,0-1.13,0.45-3.63,3.86c0,0,4.65-2.04,6.47-2.16L56.56,30.39z M46.69,51.15l7.04-7.04
				c-2.38,0.23-5.79-1.02-5.79-1.02C45.67,45.48,46.69,51.15,46.69,51.15z M50.55,42.08c2.99,1.15,6.01-0.11,6.01-0.11
				c2.16-1.48,11.24-6.24,11.24-6.24c-5.9-1.82-6.81-1.7-6.81-1.7c-9.42,0.34-12.08,6.13-12.08,6.13S48.16,41.16,50.55,42.08z
				 M81.53,33.79c0,0-3.18,7.72,3.4,7.83c6.91,0.12,4.99-6.36,4.99-6.36s-1.81-11.35-18.16-11.35c0,0-6.92-0.23-13.73,4.77
				C58.04,28.68,66.67,35.04,81.53,33.79z M129.97,44.12l7.04,7.04c0,0,1.02-5.67-1.25-8.06C135.76,43.1,132.36,44.34,129.97,44.12z
				 M124.07,55.2c0,0-9.08-2.35-12.94-5.41c0,0,5.33,8.96,5.67,12.03c0,0,7.04,4.43,12.94,4.65
				C129.75,66.48,127.93,57.58,124.07,55.2z M115.9,35.72c0,0,9.08,4.77,11.24,6.24c0,0,3.02,1.27,6.02,0.11
				c2.39-0.92,1.63-1.93,1.63-1.93s-2.66-5.79-12.07-6.13C122.71,34.02,121.8,33.9,115.9,35.72z M130.77,34.24
				c-2.5-3.4-3.63-3.86-3.63-3.86l-2.84,1.7C126.11,32.2,130.77,34.24,130.77,34.24z M118.96,65.91c0.79,2.27,0.91,7.26,0.91,7.26
				c5.79-1.59,8.06-4.43,8.06-4.43C126.68,68.86,118.96,65.91,118.96,65.91z M85.31,25.61c4.25,1.82,6.54,5.59,6.54,5.59
				s2.28-3.77,6.54-5.59c4.25-1.82,4.62-6.32,4.62-6.32c-2.43-1.34-11.15-1.46-11.15-1.46s-8.72,0.12-11.15,1.46
				C80.7,19.29,81.06,23.79,85.31,25.61z"/>
			<path style="&st0;" d="M49.14,115.87c0,0,4.98,3.6,21.88-6.16c16.9-9.76,16.94-16.25,16.94-16.25s-5.64-3.21-22.54,6.54
				C48.52,109.76,49.14,115.87,49.14,115.87z M80.7,105.57c3.15-1.09,9.17,3.29,9.17,3.29c1.42-11.14-0.72-13.83-0.72-13.83
				C88.53,99.74,80.7,105.57,80.7,105.57z M71.81,82.22c-2.36-2.96-6.26-3.59-6.26-3.59c0.53,2.05-0.5,7.76-0.5,7.76L71.81,82.22z
				 M73.84,93.68c0,0,8.96-3.87,13.36-2.04c0,0-1.26-3.19-11.62-7.54C75.58,84.1,76.36,91.5,73.84,93.68z M48.35,110.73
				c0,0,14.74-12,15.38-32.29c0,0-12.97,5.74-19.26,26.82C44.47,105.26,47.93,107.48,48.35,110.73z M67.87,95.37
				c0,0,7.1-2,5.03-11.03l-9.43,5.45c0,0-2.43,7.82-3.85,10.35L67.87,95.37z M76.26,109.9L68,114.66c2.9,0.03,10.89,1.84,10.89,1.84
				l9.44-5.45C81.54,104.75,76.26,109.9,76.26,109.9z M79.88,148.17c0,0-1.97-13.41-24.63-21.55c0,0-0.15,3.37-3.54,4.53
				C51.71,131.15,58.44,145.08,79.88,148.17z M55.99,125.22c21.4,5.09,32.86-3.27,32.86-3.27c-17.89-9.59-35.65-2.83-35.65-2.83
				C55.8,121.11,55.99,125.22,55.99,125.22z M65.29,128.81c4.58,1.81,11.15,8.5,11.15,8.5c3.99,2.15,12.6-0.72,12.6-0.72
				c-3.15-5-10.5-8.88-10.5-8.88C75.72,128.95,65.29,128.81,65.29,128.81z M79.08,139.98c0,0,2.71,5.38,3.15,7.49
				c0,0,6.4-3.43,5.92-8.13C88.14,139.34,81.63,141,79.08,139.98z M89.62,113.06l-6.99,3.78c0,0,5.46,1.96,6.97,3.45
				C89.59,120.28,91,116.59,89.62,113.06z M90.1,133.88c0,0,1.32-3.38-0.2-9.19c0,0-4.38,2.4-6.74,2.84
				C83.16,127.53,89.58,132.74,90.1,133.88z M43.23,77.88c0.4-2.72,5.09-7.52,5.09-7.52c-3.83-2.77-10,1.06-10,1.06
				C39.93,72.84,43.23,77.88,43.23,77.88z M42.11,117.71c0,0,6.57-1.58,3.01-7.5c-3.39-5.64-8.49,0.96-8.49,0.96
				c-6.35-13.5-16.17-17.79-16.17-17.79c-0.92,8.39,2.74,14.28,2.74,14.28C31.37,121.81,42.11,117.71,42.11,117.71z M42.89,105.21
				c4.27-23.7-6.35-32.11-6.35-32.11c-8.05,20.11,0.65,32.91,0.65,32.91C39.89,103.66,42.89,105.21,42.89,105.21z M56.49,152.37
				c0,0,0.96,0.76,5.16,1.22c0,0-4.1-3.01-5.1-4.52L56.49,152.37z M79.41,150.54l-9.61-2.58c1.39,1.95,2.01,5.52,2.01,5.52
				C75.01,154.26,79.41,150.54,79.41,150.54z M69.62,151.73c-0.5-3.16-3.11-5.15-3.11-5.15c-2.36-1.13-11.02-6.61-11.02-6.61
				c1.38,6.02,1.93,6.75,1.93,6.75c5,7.99,11.35,7.39,11.35,7.39S70.02,154.26,69.62,151.73z M46.95,129.05c0,0,8.27-1.11,5.08-6.86
				c-3.35-6.05-8-1.15-8-1.15s-8.92,7.25-0.75,21.4c0,0,3.27,6.11,10.99,9.51C54.28,151.94,55.47,141.3,46.95,129.05z M31.68,81.93
				l2.57-9.61c0,0-5.42,1.95-6.35,5.11C27.9,77.43,30.68,79.75,31.68,81.93z M44.23,81.5c0,0,2.51,9.04,1.78,13.91
				c0,0,5.1-9.1,7.58-10.93c0,0,0.31-8.31-2.44-13.53C51.15,70.95,44.36,76.97,44.23,81.5z M31.44,98.32c0,0-0.41-10.25-0.21-12.85
				c0,0-0.42-3.25-2.91-5.27c-1.99-1.61-2.48-0.45-2.48-0.45s-3.69,5.2,0.73,13.52C26.56,93.27,26.92,94.12,31.44,98.32z
				 M22.73,86.18c-1.7,3.87-1.53,5.08-1.53,5.08l2.89,1.6C23.28,91.23,22.73,86.18,22.73,86.18z M56.05,80.57
				c1.57-1.82,5.84-4.42,5.84-4.42c-4.27-4.22-7.86-4.77-7.86-4.77C54.75,72.41,56.05,80.57,56.05,80.57z M37.98,129.86
				c-0.55-4.59,1.57-8.46,1.57-8.46s-4.4-0.09-8.11-2.87c-3.7-2.77-7.78-0.84-7.78-0.84c0.06,2.77,4.31,10.39,4.31,10.39
				s4.47,7.49,6.84,8.93C34.81,137.02,38.52,134.46,37.98,129.86z"/>
			<path style="&st0;" d="M117.94,100c-16.9-9.76-22.54-6.54-22.54-6.54s0.04,6.5,16.94,16.25c16.9,9.76,21.89,6.16,21.89,6.16
				S134.84,109.76,117.94,100z M94.2,95.02c0,0-2.14,2.69-0.72,13.83c0,0,6.02-4.38,9.17-3.29C102.65,105.57,94.82,99.74,94.2,95.02
				z M118.31,86.39c0,0-1.03-5.71-0.5-7.76c0,0-3.9,0.63-6.27,3.59L118.31,86.39z M107.78,84.1c-10.36,4.34-11.62,7.54-11.62,7.54
				c4.4-1.82,13.36,2.04,13.36,2.04C107,91.5,107.78,84.1,107.78,84.1z M138.89,105.26c-6.29-21.08-19.26-26.82-19.26-26.82
				c0.64,20.29,15.38,32.29,15.38,32.29C135.43,107.48,138.89,105.26,138.89,105.26z M123.74,100.13
				c-1.42-2.53-3.85-10.35-3.85-10.35l-9.44-5.45c-2.07,9.03,5.03,11.03,5.03,11.03L123.74,100.13z M95.03,111.05l9.44,5.45
				c0,0,7.99-1.81,10.89-1.84l-8.26-4.77C107.1,109.9,101.81,104.75,95.03,111.05z M131.65,131.15c-3.39-1.17-3.54-4.53-3.54-4.53
				c-22.66,8.15-24.63,21.55-24.63,21.55C124.92,145.08,131.65,131.15,131.65,131.15z M130.16,119.12c0,0-17.76-6.76-35.65,2.83
				c0,0,11.46,8.36,32.86,3.27C127.37,125.22,127.56,121.11,130.16,119.12z M104.81,127.71c0,0-7.35,3.88-10.5,8.88
				c0,0,8.61,2.87,12.6,0.72c0,0,6.57-6.69,11.15-8.5C118.06,128.81,107.63,128.95,104.81,127.71z M95.21,139.34
				c-0.49,4.7,5.92,8.13,5.92,8.13c0.43-2.11,3.14-7.49,3.14-7.49C101.72,141,95.21,139.34,95.21,139.34z M93.76,120.28
				c1.51-1.48,6.97-3.45,6.97-3.45l-6.99-3.78C92.36,116.59,93.76,120.28,93.76,120.28z M100.19,127.53
				c-2.36-0.45-6.75-2.84-6.75-2.84c-1.52,5.81-0.2,9.19-0.2,9.19C93.78,132.74,100.19,127.53,100.19,127.53z M145.04,71.41
				c0,0-6.17-3.83-10-1.06c0,0,4.7,4.81,5.09,7.52C140.13,77.88,143.43,72.84,145.04,71.41z M160.15,107.66
				c0,0,3.66-5.88,2.74-14.28c0,0-9.82,4.29-16.17,17.79c0,0-5.09-6.61-8.48-0.96c-3.56,5.92,3.01,7.5,3.01,7.5
				S151.98,121.81,160.15,107.66z M146.17,106.01c0,0,8.7-12.8,0.65-32.91c0,0-10.62,8.41-6.35,32.11
				C140.47,105.21,143.46,103.66,146.17,106.01z M126.81,149.06c-1.01,1.52-5.1,4.52-5.1,4.52c4.2-0.46,5.16-1.22,5.16-1.22
				L126.81,149.06z M111.55,153.49c0,0,0.62-3.57,2.01-5.52l-9.61,2.58C103.95,150.54,108.35,154.26,111.55,153.49z M114.59,154.11
				c0,0,6.35,0.6,11.35-7.39c0,0,0.55-0.73,1.93-6.75c0,0-8.67,5.48-11.02,6.61c0,0-2.61,1.99-3.11,5.15
				C113.34,154.26,114.59,154.11,114.59,154.11z M129.08,151.94c7.73-3.4,10.99-9.51,10.99-9.51c8.17-14.15-0.75-21.4-0.75-21.4
				s-4.65-4.9-8,1.15c-3.19,5.76,5.08,6.86,5.08,6.86C127.89,141.3,129.08,151.94,129.08,151.94z M155.46,77.43
				c-0.93-3.16-6.35-5.11-6.35-5.11l2.58,9.61C152.68,79.75,155.46,77.43,155.46,77.43z M132.21,70.95
				c-2.75,5.22-2.44,13.53-2.44,13.53c2.48,1.83,7.58,10.93,7.58,10.93c-0.72-4.87,1.79-13.91,1.79-13.91
				C139,76.97,132.21,70.95,132.21,70.95z M156.8,93.27c4.42-8.33,0.73-13.52,0.73-13.52s-0.49-1.16-2.48,0.45
				c-2.49,2.01-2.91,5.27-2.91,5.27c0.2,2.6-0.21,12.85-0.21,12.85C156.44,94.12,156.8,93.27,156.8,93.27z M159.26,92.86l2.89-1.6
				c0,0,0.17-1.21-1.53-5.08C160.63,86.18,160.07,91.23,159.26,92.86z M129.33,71.39c0,0-3.59,0.55-7.86,4.77
				c0,0,4.27,2.59,5.84,4.42C127.31,80.57,128.61,72.41,129.33,71.39z M148.55,137.02c2.37-1.44,6.84-8.93,6.84-8.93
				s4.26-7.62,4.31-10.39c0,0-4.07-1.93-7.78,0.84c-3.7,2.77-8.11,2.87-8.11,2.87s2.12,3.86,1.57,8.46
				C144.83,134.46,148.55,137.02,148.55,137.02z"/>
			<path style="&st0;" d="M0,91.68c0,50.55,41.13,91.68,91.68,91.68c50.55,0,91.68-41.13,91.68-91.68S142.23,0,91.68,0
				C41.13,0,0,41.13,0,91.68z M15.86,91.68c0-41.8,34.01-75.81,75.81-75.81c41.8,0,75.81,34.01,75.81,75.81
				c0,41.8-34.01,75.81-75.81,75.81C49.87,167.49,15.86,133.48,15.86,91.68z"/>
		</g>
	</g>
</svg>
