<?xml version="1.0" encoding="iso-8859-1"?>
<!-- Generator: Adobe Illustrator 11 Build 196, SVG Export Plug-In . SVG Version: 6.0.0 Build 78)  -->
<!DOCTYPE svg PUBLIC "-//W3C//DTD SVG 1.0//EN"    "http://www.w3.org/TR/2001/REC-SVG-20010904/DTD/svg10.dtd" [
	<!ENTITY ns_flows "http://ns.adobe.com/Flows/1.0/">
	<!ENTITY ns_svg "http://www.w3.org/2000/svg">
	<!ENTITY ns_xlink "http://www.w3.org/1999/xlink">
	<!ENTITY st0 "fill:none;stroke:#000000;stroke-width:1.1784;stroke-linecap:round;stroke-linejoin:round;stroke-miterlimit:2;">
]>
<svg  xmlns="&ns_svg;" xmlns:xlink="&ns_xlink;" xmlns:a="http://ns.adobe.com/AdobeSVGViewerExtensions/3.0/"
	 width="173.23" height="172.64" viewBox="0 0 173.23 172.64" style="overflow:visible;enable-background:new 0 0 173.23 172.64"
	 xml:space="preserve">
	<g id="Bild">
		<path style="&st0;" d="M86.62,0.59c0,2.36,8.81,4.59,11.78,5.01c9.6,1.34,23.49,4.36,31.52,8.84
			c18.3,10.21,17.32,19.68,18.2,27.93"/>
		<path style="&st0;" d="M86.62,3.83c0,2.36,8.88,3.49,11.86,3.9c9.6,1.34,23.52,4.31,31.52,8.84
			c14.95,8.47,15.03,18.69,15.91,26.94"/>
		<path style="&st0;" d="M86.62,7.07c0.29,2.06,8.87,3.65,11.86,3.9c12.11,1.02,25.75,5.28,31.52,8.84
			c12.3,7.59,11.75,18.04,11.75,26.33"/>
		<path style="&st0;" d="M86.62,10.31c0,1.18,9.39,2.61,12.37,2.95c10.61,1.18,25.92,5.46,31.82,9.72
			c5.3,3.83,8.13,10.62,8.54,15.61c0.29,3.54-2.95,7.07-5.6,7.37s-5.52-0.28-5.52-2.65c0-0.66,0.52-1.84,1.47-1.84
			c1.79,0,2.28,0.15,3.46,1.84c0.44-0.37,0.52-0.95,0.52-1.92c0-1.03-1.84-2.58-3.9-2.58c-2.8,0-5.3,2.5-5.3,3.83
			c0,1.78,0.37,2.21,1.25,3.17c-1.4-0.22-2.73,0-3.46,0c-2.5,0-3.39,2.19-3.46,4.64c-2.8,0.31-7,6.85-7.07,10.83"/>
		<path style="&st0;" d="M117.48,57.08c0.15-2.58,1.69-4.42,2.87-5.3c1.18-0.88,4.57-3.31,6.48-3.39c1.92-0.07,1.84-0.37,1.84-0.37
			c-1.25-1.18-0.88-0.96-2.95-2.21"/>
		<path style="&st0;" d="M121.82,54.06c1.69-1.33,3.98-2.21,5.45-2.8"/>
		<path style="&st0;" d="M172.64,86.32c-2.95-1.47-6.78-11.49-6.78-17.97c0-12.67-11.51-20.51-17.74-25.98"/>
		<path style="&st0;" d="M169.7,86.32c-2.8-1.62-6.33-10.61-6.33-17.53c0-10.75-10.38-20.98-17.46-25.28"/>
		<path style="&st0;" d="M164.83,86.32c-2.73-2.73-4.91-10.36-4.86-15.47c0.07-8.05-5.16-19.3-18.23-24.71"/>
		<path style="&st0;" d="M161.74,86.32c-1.1-1.1-4.12-9.57-4.12-15.17c0-11.07-7.2-16.68-11.05-19.89c-0.94-0.78-7.2-2.26-9.13-1.62
			c-0.88,0.29-2.8,2.36-1.92,4.27c0.28,0.6,2.39,2.11,2.95,1.33c1.03-1.46,2.18-1.45,1.47-3.39c0.88,0.29,2.07,0.82,2.21,1.77
			c0.15,1.03,0.59,2.29-0.59,3.98c-1.61,2.29-3.83,1.71-5.16,1.62c-2.21-0.15-3.65-2.76-3.51-2.12c-0.91,2.85-4,4.52-4.74,4.47
			c-2.21-0.15-3.39-1.03-4.71-2.65c-1.86,2.11-6.33,3.54-11.81,2.3"/>
		<path style="&st0;" d="M117.48,57.08c2.14,0.52,4.5,0.51,5.89,0.05c1.4-0.46,6.23-0.98,7.58-2.34c0.59-0.59,1.29,0.19,1.29,0.19
			c0.25,1.7,0.62,1.14,0.62,2.17"/>
		<path style="&st0;" d="M131.54,54.65c0.88-2.21,0.59-3.09-0.29-4.57"/>
		<path style="&st0;" d="M128.74,49.35c3.39,0.15,2.06,0.44,3.98,0"/>
		<path style="&st0;" d="M86.62,172.05c0-2.36,8.81-4.59,11.78-5.01c9.6-1.34,23.49-4.36,31.52-8.84
			c18.3-10.21,17.32-19.68,18.2-27.93"/>
		<path style="&st0;" d="M86.62,168.81c0-2.36,8.88-3.49,11.86-3.9c9.6-1.34,23.52-4.31,31.52-8.84
			c14.95-8.47,15.03-18.69,15.91-26.94"/>
		<path style="&st0;" d="M86.62,165.57c0.29-2.06,8.86-3.65,11.86-3.9c12.11-1.01,25.75-5.28,31.52-8.84
			c12.3-7.59,11.75-18.04,11.75-26.33"/>
		<path style="&st0;" d="M121.82,118.58c1.69,1.33,3.98,2.21,5.45,2.8"/>
		<path style="&st0;" d="M172.64,86.32c-2.95,1.47-6.78,11.49-6.78,17.97c0,12.67-11.51,20.51-17.74,25.99"/>
		<path style="&st0;" d="M169.7,86.32c-2.8,1.62-6.33,10.61-6.33,17.53c0,10.75-10.38,20.98-17.46,25.28"/>
		<path style="&st0;" d="M164.83,86.32c-2.73,2.73-4.91,10.36-4.86,15.47c0.07,8.05-5.16,19.3-18.23,24.71"/>
		<path style="&st0;" d="M161.74,86.32c-1.1,1.1-4.12,9.58-4.12,15.17c0,11.07-7.2,16.68-11.05,19.89c-0.94,0.78-7.2,2.26-9.13,1.62
			c-0.88-0.29-2.8-2.36-1.92-4.27c0.28-0.6,2.39-2.11,2.95-1.33c1.03,1.46,2.18,1.45,1.47,3.39c0.88-0.29,2.07-0.82,2.21-1.77
			c0.15-1.03,0.59-2.29-0.59-3.98c-1.61-2.29-3.83-1.71-5.16-1.62c-2.21,0.15-3.65,2.76-3.51,2.12c-0.91-2.85-4-4.52-4.74-4.47
			c-2.21,0.15-3.39,1.03-4.71,2.65c-1.86-2.11-6.29-3.56-11.76-2.33c0.07,3.98,4.32,10.49,7.12,10.8c0.07,2.46,0.96,4.64,3.46,4.64
			c0.74,0,2.06,0.22,3.46,0c-0.88,0.96-1.25,1.38-1.25,3.17c0,1.33,2.5,3.83,5.3,3.83c2.06,0,3.9-1.55,3.9-2.58
			c0-0.96-0.07-1.55-0.52-1.92c-1.18,1.69-1.67,1.84-3.46,1.84c-0.96,0-1.47-1.18-1.47-1.84c0-2.38,2.87-2.95,5.52-2.65
			s5.89,3.83,5.6,7.37c-0.42,4.99-3.24,11.78-8.54,15.61c-5.9,4.26-21.21,8.54-31.82,9.72c-2.99,0.33-12.37,1.77-12.37,2.95"/>
		<path style="&st0;" d="M132.87,115.49c0,1.03-0.38,0.47-0.62,2.17c0,0-0.7,0.78-1.29,0.19c-1.36-1.36-6.18-1.88-7.58-2.34
			c-1.4-0.46-3.76-0.47-5.89,0.05c0.15,2.58,1.69,4.42,2.87,5.3c1.18,0.88,4.57,3.31,6.48,3.39c1.92,0.07,1.84,0.37,1.84,0.37
			c-1.25,1.18-0.88,0.96-2.95,2.21"/>
		<path style="&st0;" d="M131.54,117.99c0.88,2.21,0.59,3.09-0.29,4.57"/>
		<path style="&st0;" d="M128.74,123.29c3.39-0.15,2.06-0.44,3.98,0"/>
		<path style="&st0;" d="M84.26,114.31c-5.07-12.68-6.6-20.11-7.07-31.97c0-6.78,0-10.75,0-19.59c0-2.95,4.03-4.79,6.26-5.11
			c0.9-0.13,5.44-0.13,6.34,0c2.23,0.32,6.26,2.17,6.26,5.11c0,8.84,0,12.82,0,19.59c-0.46,11.85-2,19.29-7.07,31.97
			C88.09,114.97,85.22,114.97,84.26,114.31z"/>
		<path style="&st0;" d="M86.62,0.59c0,2.36-8.81,4.59-11.78,5.01c-9.6,1.34-23.49,4.36-31.52,8.84
			c-18.3,10.21-17.32,19.68-18.2,27.93"/>
		<path style="&st0;" d="M86.62,3.83c0,2.36-8.88,3.49-11.86,3.9c-9.6,1.34-23.52,4.31-31.52,8.84
			c-14.95,8.47-15.03,18.69-15.91,26.94"/>
		<path style="&st0;" d="M86.62,7.07c-0.29,2.06-8.86,3.65-11.86,3.9c-12.11,1.02-25.75,5.28-31.52,8.84
			c-12.3,7.59-11.75,18.04-11.75,26.33"/>
		<path style="&st0;" d="M86.62,10.31c0,1.18-9.39,2.61-12.37,2.95c-10.61,1.18-25.92,5.46-31.82,9.72
			c-5.3,3.83-8.13,10.62-8.54,15.61c-0.29,3.54,2.95,7.07,5.6,7.37c2.65,0.29,5.52-0.28,5.52-2.65c0-0.66-0.52-1.84-1.47-1.84
			c-1.79,0-2.28,0.15-3.46,1.84c-0.44-0.37-0.52-0.95-0.52-1.92c0-1.03,1.84-2.58,3.9-2.58c2.8,0,5.3,2.5,5.3,3.83
			c0,1.78-0.37,2.21-1.25,3.17c1.4-0.22,2.73,0,3.46,0c2.5,0,3.39,2.19,3.46,4.64c2.8,0.31,7,6.85,7.07,10.83"/>
		<path style="&st0;" d="M55.75,57.08c-0.15-2.58-1.69-4.42-2.87-5.3c-1.18-0.88-4.57-3.31-6.48-3.39
			c-1.92-0.07-1.84-0.37-1.84-0.37c1.25-1.18,0.88-0.96,2.95-2.21"/>
		<path style="&st0;" d="M51.41,54.06c-1.69-1.33-3.98-2.21-5.45-2.8"/>
		<path style="&st0;" d="M0.59,86.32c2.95-1.47,6.78-11.49,6.78-17.97c0-12.67,11.51-20.51,17.74-25.98"/>
		<path style="&st0;" d="M3.54,86.32c2.8-1.62,6.33-10.61,6.33-17.53c0-10.75,10.39-20.98,17.46-25.28"/>
		<path style="&st0;" d="M8.4,86.32c2.73-2.73,4.91-10.36,4.86-15.47c-0.07-8.05,5.16-19.3,18.23-24.71"/>
		<path style="&st0;" d="M11.49,86.32c1.1-1.1,4.12-9.57,4.12-15.17c0-11.07,7.2-16.68,11.05-19.89c0.94-0.78,7.2-2.26,9.13-1.62
			c0.88,0.29,2.8,2.36,1.92,4.27c-0.28,0.6-2.39,2.11-2.95,1.33c-1.03-1.46-2.19-1.45-1.47-3.39c-0.88,0.29-2.07,0.82-2.21,1.77
			c-0.15,1.03-0.59,2.29,0.59,3.98c1.61,2.29,3.83,1.71,5.16,1.62c2.21-0.15,3.65-2.76,3.51-2.12c0.91,2.85,4,4.52,4.74,4.47
			c2.21-0.15,3.39-1.03,4.71-2.65c1.86,2.11,6.33,3.54,11.81,2.3"/>
		<path style="&st0;" d="M55.75,57.08c-2.14,0.52-4.49,0.51-5.89,0.05c-1.4-0.46-6.23-0.98-7.58-2.34
			c-0.59-0.59-1.29,0.19-1.29,0.19c-0.25,1.7-0.62,1.14-0.62,2.17"/>
		<path style="&st0;" d="M41.69,54.65c-0.88-2.21-0.59-3.09,0.29-4.57"/>
		<path style="&st0;" d="M44.49,49.35c-3.39,0.15-2.06,0.44-3.98,0"/>
		<path style="&st0;" d="M86.62,172.05c0-2.36-8.81-4.59-11.78-5.01c-9.6-1.34-23.49-4.36-31.52-8.84
			c-18.3-10.21-17.32-19.68-18.2-27.93"/>
		<path style="&st0;" d="M86.62,168.81c0-2.36-8.88-3.49-11.86-3.9c-9.6-1.34-23.52-4.31-31.52-8.84
			c-14.95-8.47-15.03-18.69-15.91-26.94"/>
		<path style="&st0;" d="M86.62,165.57c-0.29-2.06-8.86-3.65-11.86-3.9c-12.11-1.01-25.75-5.28-31.52-8.84
			c-12.3-7.59-11.75-18.04-11.75-26.33"/>
		<path style="&st0;" d="M51.41,118.58c-1.69,1.33-3.98,2.21-5.45,2.8"/>
		<path style="&st0;" d="M0.59,86.32c2.95,1.47,6.78,11.49,6.78,17.97c0,12.67,11.51,20.51,17.74,25.99"/>
		<path style="&st0;" d="M3.54,86.32c2.8,1.62,6.33,10.61,6.33,17.53c0,10.75,10.39,20.98,17.46,25.28"/>
		<path style="&st0;" d="M8.4,86.32c2.73,2.73,4.91,10.36,4.86,15.47c-0.07,8.05,5.16,19.3,18.23,24.71"/>
		<path style="&st0;" d="M11.49,86.32c1.1,1.1,4.12,9.58,4.12,15.17c0,11.07,7.2,16.68,11.05,19.89c0.94,0.78,7.2,2.26,9.13,1.62
			c0.88-0.29,2.8-2.36,1.92-4.27c-0.28-0.6-2.39-2.11-2.95-1.33c-1.03,1.46-2.19,1.45-1.47,3.39c-0.88-0.29-2.07-0.82-2.21-1.77
			c-0.15-1.03-0.59-2.29,0.59-3.98c1.61-2.29,3.83-1.71,5.16-1.62c2.21,0.15,3.65,2.76,3.51,2.12c0.91-2.85,4-4.52,4.74-4.47
			c2.21,0.15,3.39,1.03,4.71,2.65c1.86-2.11,6.29-3.56,11.76-2.33c-0.07,3.98-4.32,10.49-7.12,10.8c-0.07,2.46-0.96,4.64-3.46,4.64
			c-0.74,0-2.06,0.22-3.46,0c0.88,0.96,1.25,1.38,1.25,3.17c0,1.33-2.5,3.83-5.3,3.83c-2.06,0-3.9-1.55-3.9-2.58
			c0-0.96,0.07-1.55,0.52-1.92c1.18,1.69,1.67,1.84,3.46,1.84c0.96,0,1.47-1.18,1.47-1.84c0-2.38-2.87-2.95-5.52-2.65
			c-2.65,0.29-5.89,3.83-5.6,7.37c0.42,4.99,3.24,11.78,8.54,15.61c5.9,4.26,21.21,8.54,31.82,9.72c2.99,0.33,12.37,1.77,12.37,2.95
			"/>
		<path style="&st0;" d="M40.36,115.49c0,1.03,0.38,0.47,0.62,2.17c0,0,0.7,0.78,1.29,0.19c1.35-1.36,6.18-1.88,7.58-2.34
			c1.4-0.46,3.76-0.47,5.89,0.05c-0.15,2.58-1.69,4.42-2.87,5.3c-1.18,0.88-4.57,3.31-6.48,3.39c-1.92,0.07-1.84,0.37-1.84,0.37
			c1.25,1.18,0.88,0.96,2.95,2.21"/>
		<path style="&st0;" d="M41.69,117.99c-0.88,2.21-0.59,3.09,0.29,4.57"/>
		<path style="&st0;" d="M44.49,123.29c-3.39-0.15-2.06-0.44-3.98,0"/>
	</g>
</svg>
