<?xml version="1.0" encoding="iso-8859-1"?>
<!-- Generator: Adobe Illustrator 11 Build 196, SVG Export Plug-In . SVG Version: 6.0.0 Build 78)  -->
<!DOCTYPE svg PUBLIC "-//W3C//DTD SVG 1.0//EN"    "http://www.w3.org/TR/2001/REC-SVG-20010904/DTD/svg10.dtd" [
	<!ENTITY ns_flows "http://ns.adobe.com/Flows/1.0/">
	<!ENTITY ns_svg "http://www.w3.org/2000/svg">
	<!ENTITY ns_xlink "http://www.w3.org/1999/xlink">
	<!ENTITY st0 "fill:#E6CBE4;">
	<!ENTITY st1 "fill:url(#Polka_dots);stroke:#000000;stroke-linecap:round;stroke-linejoin:round;">
	<!ENTITY st2 "fill-rule:evenodd;clip-rule:evenodd;fill:#E6CBE4;">
	<!ENTITY st3 "fill:#8C1888;">
	<!ENTITY st4 "fill:none;">
]>
<svg  xmlns="&ns_svg;" xmlns:xlink="&ns_xlink;" xmlns:a="http://ns.adobe.com/AdobeSVGViewerExtensions/3.0/"
	 width="129" height="177.26" viewBox="0 0 129 177.26" style="overflow:visible;enable-background:new 0 0 129 177.26"
	 xml:space="preserve">
	
		<pattern  x="-234.5" y="509.76" width="28.8" height="28.8" patternUnits="userSpaceOnUse" id="Polka_dots" viewBox="1 -29.8 28.8 28.8">
		<g>
			<polygon style="&st4;" points="1-1 1-29.8 29.8-29.8 29.8-1 "/>
			<polygon style="&st3;" points="1-1 1-29.8 29.8-29.8 29.8-1 "/>
			<path style="&st0;" d="M11.08-8.2c0-1.59-1.29-2.88-2.88-2.88c-1.59,0-2.88,1.29-2.88,2.88c0,1.59,1.29,2.88,2.88,2.88
				C9.79-5.32,11.08-6.61,11.08-8.2z M11.08-22.6c0-1.59-1.29-2.88-2.88-2.88c-1.59,0-2.88,1.29-2.88,2.88
				c0,1.59,1.29,2.88,2.88,2.88C9.79-19.72,11.08-21.01,11.08-22.6z M18.28-15.4c0-1.59-1.29-2.88-2.88-2.88
				c-1.59,0-2.88,1.29-2.88,2.88s1.29,2.88,2.88,2.88C16.99-12.52,18.28-13.81,18.28-15.4z M25.48-8.2c0-1.59-1.29-2.88-2.88-2.88
				c-1.59,0-2.88,1.29-2.88,2.88c0,1.59,1.29,2.88,2.88,2.88C24.19-5.32,25.48-6.61,25.48-8.2z M25.48-22.6
				c0-1.59-1.29-2.88-2.88-2.88c-1.59,0-2.88,1.29-2.88,2.88c0,1.59,1.29,2.88,2.88,2.88C24.19-19.72,25.48-21.01,25.48-22.6z"/>
			<path style="&st0;" d="M26.92-1h2.88v-2.88C28.21-3.88,26.92-2.59,26.92-1z"/>
			<path style="&st0;" d="M15.4-3.88c-1.59,0-2.88,1.29-2.88,2.88h5.76C18.28-2.59,16.99-3.88,15.4-3.88z"/>
			<path style="&st0;" d="M1-3.88V-1h2.88C3.88-2.59,2.59-3.88,1-3.88z"/>
			<path style="&st2;" d="M26.92-15.4c0,1.59,1.29,2.88,2.88,2.88v-5.76C28.21-18.28,26.92-16.99,26.92-15.4z"/>
			<path style="&st0;" d="M15.4-18.28c-1.59,0-2.88,1.29-2.88,2.88s1.29,2.88,2.88,2.88c1.59,0,2.88-1.29,2.88-2.88
				S16.99-18.28,15.4-18.28z"/>
			<path style="&st2;" d="M3.88-15.4c0-1.59-1.29-2.88-2.88-2.88v5.76C2.59-12.52,3.88-13.81,3.88-15.4z"/>
			<path style="&st0;" d="M29.8-26.92v-2.88h-2.88C26.92-28.21,28.21-26.92,29.8-26.92z"/>
			<path style="&st0;" d="M15.4-26.92c1.59,0,2.88-1.29,2.88-2.88h-5.76C12.52-28.21,13.81-26.92,15.4-26.92z"/>
			<path style="&st0;" d="M3.88-29.8H1v2.88C2.59-26.92,3.88-28.21,3.88-29.8z"/>
			<path style="&st2;" d="M8.2-11.08c-1.59,0-2.88,1.29-2.88,2.88c0,1.59,1.29,2.88,2.88,2.88c1.59,0,2.88-1.29,2.88-2.88
				C11.08-9.79,9.79-11.08,8.2-11.08z"/>
			<path style="&st2;" d="M22.6-11.08c-1.59,0-2.88,1.29-2.88,2.88c0,1.59,1.29,2.88,2.88,2.88c1.59,0,2.88-1.29,2.88-2.88
				C25.48-9.79,24.19-11.08,22.6-11.08z"/>
			<path style="&st2;" d="M8.2-25.48c-1.59,0-2.88,1.29-2.88,2.88c0,1.59,1.29,2.88,2.88,2.88c1.59,0,2.88-1.29,2.88-2.88
				C11.08-24.19,9.79-25.48,8.2-25.48z"/>
			<path style="&st2;" d="M22.6-25.48c-1.59,0-2.88,1.29-2.88,2.88c0,1.59,1.29,2.88,2.88,2.88c1.59,0,2.88-1.29,2.88-2.88
				C25.48-24.19,24.19-25.48,22.6-25.48z"/>
		</g>
	</pattern>
	<g id="Bild">
		<line style="&st1;" x1="32.5" y1="88.63" x2="32.5" y2="88.63"/>
		<line style="&st1;" x1="78.5" y1="63.84" x2="78.5" y2="63.84"/>
		<line style="&st1;" x1="34.5" y1="91.38" x2="34.5" y2="85.88"/>
		<line style="&st1;" x1="76.5" y1="66.6" x2="76.5" y2="61.09"/>
		<line style="&st1;" x1="36.5" y1="94.14" x2="36.5" y2="83.12"/>
		<line style="&st1;" x1="74.5" y1="69.35" x2="74.5" y2="58.34"/>
		<line style="&st1;" x1="38.5" y1="96.89" x2="38.5" y2="80.37"/>
		<line style="&st1;" x1="72.5" y1="72.11" x2="72.5" y2="55.58"/>
		<line style="&st1;" x1="40.5" y1="99.65" x2="40.5" y2="77.61"/>
		<line style="&st1;" x1="38.5" y1="118.93" x2="38.5" y2="96.89"/>
		<line style="&st1;" x1="70.5" y1="74.86" x2="70.5" y2="52.83"/>
		<line style="&st1;" x1="42.5" y1="102.4" x2="42.5" y2="74.86"/>
		<line style="&st1;" x1="44.5" y1="105.16" x2="44.5" y2="72.11"/>
		<line style="&st1;" x1="34.5" y1="124.43" x2="34.5" y2="91.38"/>
		<line style="&st1;" x1="30.5" y1="124.43" x2="30.5" y2="91.38"/>
		<line style="&st1;" x1="66.5" y1="80.37" x2="66.5" y2="47.32"/>
		<line style="&st1;" x1="46.5" y1="107.91" x2="46.5" y2="69.35"/>
		<line style="&st1;" x1="50.5" y1="102.4" x2="50.5" y2="63.84"/>
		<line style="&st1;" x1="52.5" y1="99.65" x2="52.5" y2="61.09"/>
		<line style="&st1;" x1="54.5" y1="96.89" x2="54.5" y2="58.34"/>
		<line style="&st1;" x1="56.5" y1="94.14" x2="56.5" y2="55.58"/>
		<line style="&st1;" x1="58.5" y1="91.38" x2="58.5" y2="52.83"/>
		<line style="&st1;" x1="60.5" y1="88.63" x2="60.5" y2="50.07"/>
		<line style="&st1;" x1="62.5" y1="85.88" x2="62.5" y2="47.32"/>
		<line style="&st1;" x1="48.5" y1="105.16" x2="48.5" y2="66.6"/>
		<line style="&st1;" x1="50.5" y1="113.42" x2="50.5" y2="113.42"/>
		<line style="&st1;" x1="96.5" y1="88.63" x2="96.5" y2="88.63"/>
		<line style="&st1;" x1="94.5" y1="91.38" x2="94.5" y2="85.88"/>
		<line style="&st1;" x1="54.5" y1="118.93" x2="54.5" y2="107.91"/>
		<line style="&st1;" x1="92.5" y1="94.14" x2="92.5" y2="83.12"/>
		<line style="&st1;" x1="90.5" y1="96.89" x2="90.5" y2="80.37"/>
		<line style="&st1;" x1="58.5" y1="124.43" x2="58.5" y2="102.4"/>
		<line style="&st1;" x1="88.5" y1="99.65" x2="88.5" y2="77.61"/>
		<line style="&st1;" x1="86.5" y1="102.4" x2="86.5" y2="74.86"/>
		<line style="&st1;" x1="62.5" y1="129.94" x2="62.5" y2="96.89"/>
		<line style="&st1;" x1="84.5" y1="105.16" x2="84.5" y2="72.11"/>
		<line style="&st1;" x1="68.5" y1="127.19" x2="68.5" y2="88.63"/>
		<line style="&st1;" x1="70.5" y1="124.43" x2="70.5" y2="85.88"/>
		<line style="&st1;" x1="72.5" y1="121.68" x2="72.5" y2="83.12"/>
		<line style="&st1;" x1="74.5" y1="118.93" x2="74.5" y2="80.37"/>
		<line style="&st1;" x1="76.5" y1="116.17" x2="76.5" y2="77.61"/>
		<line style="&st1;" x1="78.5" y1="112.04" x2="78.5" y2="74.86"/>
		<line style="&st1;" x1="80.5" y1="114.63" x2="80.5" y2="72.11"/>
		<line style="&st1;" x1="66.5" y1="129.94" x2="66.5" y2="91.38"/>
		<line style="&st1;" x1="32.5" y1="88.63" x2="32.5" y2="88.63"/>
		<line style="&st1;" x1="36.5" y1="132.7" x2="36.5" y2="132.7"/>
		<line style="&st1;" x1="28.5" y1="132.7" x2="28.5" y2="132.7"/>
		<line style="&st1;" x1="30.5" y1="91.38" x2="30.5" y2="85.88"/>
		<line style="&st1;" x1="28.5" y1="94.14" x2="28.5" y2="83.12"/>
		<line style="&st1;" x1="26.5" y1="96.89" x2="26.5" y2="80.37"/>
		<line style="&st1;" x1="24.5" y1="99.65" x2="24.5" y2="77.61"/>
		<line style="&st1;" x1="22.5" y1="102.4" x2="22.5" y2="74.86"/>
		<line style="&st1;" x1="20.5" y1="105.16" x2="20.5" y2="72.11"/>
		<line style="&st1;" x1="18.5" y1="107.91" x2="18.5" y2="69.35"/>
		<line style="&st1;" x1="14.5" y1="102.4" x2="14.5" y2="63.84"/>
		<line style="&st1;" x1="12.5" y1="99.65" x2="12.5" y2="61.09"/>
		<line style="&st1;" x1="10.5" y1="96.89" x2="10.5" y2="58.34"/>
		<line style="&st1;" x1="8.5" y1="94.14" x2="8.5" y2="55.58"/>
		<line style="&st1;" x1="6.5" y1="91.38" x2="6.5" y2="52.83"/>
		<line style="&st1;" x1="4.5" y1="88.63" x2="4.5" y2="50.07"/>
		<line style="&st1;" x1="2.5" y1="85.88" x2="2.5" y2="47.32"/>
		<line style="&st1;" x1="14.5" y1="113.42" x2="14.5" y2="113.42"/>
		<line style="&st1;" x1="12.5" y1="116.17" x2="12.5" y2="110.66"/>
		<line style="&st1;" x1="10.5" y1="118.93" x2="10.5" y2="107.91"/>
		<line style="&st1;" x1="8.5" y1="121.68" x2="8.5" y2="105.16"/>
		<line style="&st1;" x1="6.5" y1="124.43" x2="6.5" y2="102.4"/>
		<line style="&st1;" x1="4.5" y1="127.19" x2="4.5" y2="99.65"/>
		<line style="&st1;" x1="2.5" y1="129.94" x2="2.5" y2="96.89"/>
		<line style="&st1;" x1="47.5" y1="61.09" x2="47.5" y2="69.35"/>
		<line style="&st1;" x1="45.5" y1="58.34" x2="45.5" y2="66.6"/>
		<line style="&st1;" x1="43.5" y1="55.58" x2="43.5" y2="63.84"/>
		<line style="&st1;" x1="41.5" y1="52.83" x2="41.5" y2="61.09"/>
		<line style="&st1;" x1="39.5" y1="50.07" x2="39.5" y2="58.34"/>
		<line style="&st1;" x1="37.5" y1="47.32" x2="37.5" y2="55.58"/>
		<line style="&st1;" x1="27.5" y1="33.55" x2="27.5" y2="41.81"/>
		<line style="&st1;" x1="25.5" y1="30.79" x2="25.5" y2="39.06"/>
		<line style="&st1;" x1="23.5" y1="28.04" x2="23.5" y2="36.3"/>
		<line style="&st1;" x1="21.5" y1="25.29" x2="21.5" y2="33.55"/>
		<line style="&st1;" x1="19.5" y1="22.53" x2="19.5" y2="30.79"/>
		<line style="&st1;" x1="17.5" y1="19.78" x2="17.5" y2="28.04"/>
		<line style="&st1;" x1="46.5" y1="59.71" x2="46.5" y2="67.98"/>
		<line style="&st1;" x1="44.5" y1="56.96" x2="44.5" y2="65.22"/>
		<line style="&st1;" x1="42.5" y1="54.2" x2="42.5" y2="62.47"/>
		<line style="&st1;" x1="40.5" y1="51.45" x2="40.5" y2="59.71"/>
		<line style="&st1;" x1="38.5" y1="48.7" x2="38.5" y2="56.96"/>
		<line style="&st1;" x1="36.5" y1="45.94" x2="36.5" y2="54.2"/>
		<line style="&st1;" x1="28.5" y1="34.93" x2="28.5" y2="43.19"/>
		<line style="&st1;" x1="26.5" y1="32.17" x2="26.5" y2="40.43"/>
		<line style="&st1;" x1="24.5" y1="29.42" x2="24.5" y2="37.68"/>
		<line style="&st1;" x1="22.5" y1="26.66" x2="22.5" y2="34.93"/>
		<line style="&st1;" x1="20.5" y1="24.2" x2="20.5" y2="32.17"/>
		<line style="&st1;" x1="18.5" y1="21.16" x2="18.5" y2="29.42"/>
		<line style="&st1;" x1="48.5" y1="62.47" x2="48.5" y2="66.6"/>
		<line style="&st1;" x1="79.5" y1="105.16" x2="79.5" y2="113.42"/>
		<line style="&st1;" x1="77.5" y1="102.4" x2="77.5" y2="110.66"/>
		<line style="&st1;" x1="75.5" y1="99.65" x2="75.5" y2="107.91"/>
		<line style="&st1;" x1="73.5" y1="96.89" x2="73.5" y2="105.16"/>
		<line style="&st1;" x1="71.5" y1="94.14" x2="71.5" y2="102.4"/>
		<line style="&st1;" x1="69.5" y1="91.38" x2="69.5" y2="99.65"/>
		<line style="&st1;" x1="67.5" y1="90.01" x2="67.5" y2="96.89"/>
		<line style="&st1;" x1="65.5" y1="92.76" x2="65.5" y2="94.14"/>
		<line style="&st1;" x1="127.5" y1="91.38" x2="127.5" y2="94.14"/>
		<line style="&st1;" x1="63.5" y1="84.5" x2="63.5" y2="84.5"/>
		<line style="&st1;" x1="61.5" y1="80.37" x2="61.5" y2="87.25"/>
		<line style="&st1;" x1="59.5" y1="77.61" x2="59.5" y2="85.88"/>
		<line style="&st1;" x1="57.5" y1="74.86" x2="57.5" y2="83.12"/>
		<line style="&st1;" x1="55.5" y1="72.11" x2="55.5" y2="80.37"/>
		<line style="&st1;" x1="51.5" y1="66.6" x2="51.5" y2="74.86"/>
		<line style="&st1;" x1="53.5" y1="69.35" x2="53.5" y2="77.61"/>
		<line style="&st1;" x1="49.5" y1="72.11" x2="49.5" y2="63.84"/>
		<line style="&st1;" x1="48.5" y1="66.51" x2="48.5" y2="70.64"/>
		<line style="&st1;" x1="3.5" y1="80.37" x2="3.5" y2="87.25"/>
		<line style="&st1;" x1="1.5" y1="83.12" x2="1.5" y2="84.5"/>
		<line style="&st1;" x1="5.5" y1="77.61" x2="5.5" y2="85.88"/>
		<line style="&st1;" x1="7.5" y1="74.86" x2="7.5" y2="83.12"/>
		<line style="&st1;" x1="9.5" y1="72.11" x2="9.5" y2="80.37"/>
		<line style="&st1;" x1="11.5" y1="69.35" x2="11.5" y2="77.61"/>
		<line style="&st1;" x1="13.5" y1="66.6" x2="13.5" y2="74.86"/>
		<line style="&st1;" x1="15.5" y1="63.84" x2="15.5" y2="72.11"/>
		<line style="&st1;" x1="17.5" y1="61.09" x2="17.5" y2="69.35"/>
		<line style="&st1;" x1="18.5" y1="59.71" x2="18.5" y2="67.98"/>
		<line style="&st1;" x1="50.5" y1="151.98" x2="50.5" y2="151.98"/>
		<line style="&st1;" x1="94.5" y1="176.76" x2="94.5" y2="174.01"/>
		<line style="&st1;" x1="92.5" y1="176.76" x2="92.5" y2="171.25"/>
		<line style="&st1;" x1="54.5" y1="157.48" x2="54.5" y2="146.47"/>
		<line style="&st1;" x1="90.5" y1="176.76" x2="90.5" y2="168.5"/>
		<line style="&st1;" x1="88.5" y1="176.76" x2="88.5" y2="165.75"/>
		<line style="&st1;" x1="58.5" y1="162.99" x2="58.5" y2="140.96"/>
		<line style="&st1;" x1="86.5" y1="176.76" x2="86.5" y2="162.99"/>
		<line style="&st1;" x1="84.5" y1="176.76" x2="84.5" y2="160.24"/>
		<line style="&st1;" x1="62.5" y1="168.5" x2="62.5" y2="135.45"/>
		<line style="&st1;" x1="82.5" y1="176.76" x2="82.5" y2="158.86"/>
		<line style="&st1;" x1="78.5" y1="176.76" x2="78.5" y2="151.98"/>
		<line style="&st1;" x1="76.5" y1="176.76" x2="76.5" y2="149.22"/>
		<line style="&st1;" x1="74.5" y1="176.76" x2="74.5" y2="146.47"/>
		<line style="&st1;" x1="72.5" y1="176.76" x2="72.5" y2="143.71"/>
		<line style="&st1;" x1="70.5" y1="176.76" x2="70.5" y2="140.96"/>
		<line style="&st1;" x1="68.5" y1="176.76" x2="68.5" y2="138.21"/>
		<line style="&st1;" x1="66.5" y1="174.01" x2="66.5" y2="135.45"/>
		<line style="&st1;" x1="64.5" y1="171.25" x2="64.5" y2="94.14"/>
		<line style="&st1;" x1="32.5" y1="176.76" x2="32.5" y2="176.76"/>
		<line style="&st1;" x1="36.5" y1="176.76" x2="36.5" y2="171.25"/>
		<line style="&st1;" x1="40.5" y1="176.76" x2="40.5" y2="165.75"/>
		<line style="&st1;" x1="44.5" y1="176.76" x2="44.5" y2="160.24"/>
		<line style="&st1;" x1="60.5" y1="176.76" x2="60.5" y2="176.76"/>
		<line style="&st1;" x1="58.5" y1="176.76" x2="58.5" y2="174.01"/>
		<line style="&st1;" x1="56.5" y1="176.76" x2="56.5" y2="171.25"/>
		<line style="&st1;" x1="54.5" y1="176.76" x2="54.5" y2="168.5"/>
		<line style="&st1;" x1="52.5" y1="176.76" x2="52.5" y2="165.75"/>
		<line style="&st1;" x1="50.5" y1="176.76" x2="50.5" y2="162.99"/>
		<line style="&st1;" x1="48.5" y1="176.76" x2="48.5" y2="160.24"/>
		<line style="&st1;" x1="46.5" y1="176.76" x2="46.5" y2="157.48"/>
		<line style="&st1;" x1="67.5" y1="168.5" x2="67.5" y2="175.38"/>
		<line style="&st1;" x1="65.5" y1="171.25" x2="65.5" y2="172.63"/>
		<line style="&st1;" x1="69.5" y1="165.75" x2="69.5" y2="174.01"/>
		<line style="&st1;" x1="71.5" y1="162.99" x2="71.5" y2="171.25"/>
		<line style="&st1;" x1="73.5" y1="160.24" x2="73.5" y2="168.5"/>
		<line style="&st1;" x1="75.5" y1="157.48" x2="75.5" y2="165.75"/>
		<line style="&st1;" x1="77.5" y1="154.73" x2="77.52" y2="162.99"/>
		<line style="&st1;" x1="79.5" y1="151.98" x2="79.5" y2="160.24"/>
		<line style="&st1;" x1="80.5" y1="150.6" x2="80.5" y2="176.76"/>
		<line style="&st1;" x1="96.5" y1="0.5" x2="96.5" y2="0.5"/>
		<line style="&st1;" x1="94.5" y1="3.25" x2="94.5" y2="0.5"/>
		<line style="&st1;" x1="92.5" y1="6.01" x2="92.5" y2="0.5"/>
		<line style="&st1;" x1="90.5" y1="8.76" x2="90.5" y2="0.5"/>
		<line style="&st1;" x1="88.5" y1="11.52" x2="88.5" y2="0.5"/>
		<line style="&st1;" x1="86.5" y1="14.27" x2="86.5" y2="0.5"/>
		<line style="&st1;" x1="84.5" y1="17.02" x2="84.5" y2="0.5"/>
		<line style="&st1;" x1="82.5" y1="19.78" x2="82.5" y2="0.5"/>
		<line style="&st1;" x1="78.5" y1="14.27" x2="78.5" y2="0.5"/>
		<line style="&st1;" x1="76.5" y1="11.52" x2="76.5" y2="0.5"/>
		<line style="&st1;" x1="74.5" y1="8.76" x2="74.5" y2="0.5"/>
		<line style="&st1;" x1="72.5" y1="6.01" x2="72.5" y2="0.5"/>
		<line style="&st1;" x1="70.5" y1="3.25" x2="70.5" y2="0.5"/>
		<line style="&st1;" x1="68.5" y1="0.5" x2="68.5" y2="0.5"/>
		<line style="&st1;" x1="80.5" y1="17.02" x2="80.5" y2="0.5"/>
		<line style="&st1;" x1="78.5" y1="25.29" x2="78.5" y2="25.29"/>
		<line style="&st1;" x1="34.5" y1="3.25" x2="34.5" y2="0.5"/>
		<line style="&st1;" x1="74.5" y1="30.79" x2="74.5" y2="19.78"/>
		<line style="&st1;" x1="36.5" y1="6.01" x2="36.5" y2="0.5"/>
		<line style="&st1;" x1="38.5" y1="8.76" x2="38.5" y2="0.5"/>
		<line style="&st1;" x1="70.5" y1="36.3" x2="70.5" y2="14.27"/>
		<line style="&st1;" x1="40.5" y1="11.52" x2="40.5" y2="0.5"/>
		<line style="&st1;" x1="42.5" y1="14.27" x2="42.5" y2="0.5"/>
		<line style="&st1;" x1="66.5" y1="41.81" x2="66.5" y2="8.76"/>
		<line style="&st1;" x1="44.5" y1="17.02" x2="44.5" y2="0.5"/>
		<line style="&st1;" x1="64.5" y1="6.01" x2="64.5" y2="83.12"/>
		<line style="&st1;" x1="60.5" y1="39.06" x2="60.5" y2="0.5"/>
		<line style="&st1;" x1="58.5" y1="36.3" x2="58.5" y2="0.5"/>
		<line style="&st1;" x1="56.5" y1="33.55" x2="56.5" y2="0.5"/>
		<line style="&st1;" x1="54.5" y1="30.79" x2="54.5" y2="0.5"/>
		<line style="&st1;" x1="52.5" y1="28.04" x2="52.5" y2="0.5"/>
		<line style="&st1;" x1="50.5" y1="25.29" x2="50.5" y2="0.5"/>
		<line style="&st1;" x1="46.5" y1="19.78" x2="46.5" y2="0.5"/>
		<line style="&st1;" x1="62.5" y1="41.81" x2="62.5" y2="3.25"/>
		<line style="&st1;" x1="51.5" y1="14.27" x2="51.5" y2="22.53"/>
		<line style="&st1;" x1="53.5" y1="11.52" x2="53.5" y2="19.78"/>
		<line style="&st1;" x1="55.5" y1="8.76" x2="55.5" y2="17.02"/>
		<line style="&st1;" x1="57.5" y1="6.01" x2="57.5" y2="14.27"/>
		<line style="&st1;" x1="59.5" y1="3.25" x2="59.5" y2="11.52"/>
		<line style="&st1;" x1="61.5" y1="1.88" x2="61.5" y2="8.76"/>
		<line style="&st1;" x1="63.5" y1="4.63" x2="63.5" y2="7.39"/>
		<line style="&st1;" x1="50.5" y1="16.51" x2="50.5" y2="23.91"/>
		<line style="&st1;" x1="114.5" y1="63.84" x2="114.5" y2="63.84"/>
		<line style="&st1;" x1="116.5" y1="66.6" x2="116.5" y2="61.09"/>
		<line style="&st1;" x1="118.5" y1="69.35" x2="118.5" y2="58.34"/>
		<line style="&st1;" x1="120.5" y1="72.11" x2="120.5" y2="55.58"/>
		<line style="&st1;" x1="122.5" y1="74.86" x2="122.5" y2="52.83"/>
		<line style="&st1;" x1="124.5" y1="77.61" x2="124.5" y2="50.07"/>
		<line style="&st1;" x1="126.5" y1="80.37" x2="126.5" y2="47.32"/>
		<line style="&st1;" x1="128.5" y1="83.12" x2="128.5" y2="44.57"/>
		<line style="&st1;" x1="96.5" y1="88.63" x2="96.5" y2="88.63"/>
		<line style="&st1;" x1="98.5" y1="3.25" x2="98.5" y2="0.5"/>
		<line style="&st1;" x1="100.5" y1="6.01" x2="100.5" y2="0.5"/>
		<line style="&st1;" x1="102.5" y1="8.76" x2="102.5" y2="0.5"/>
		<line style="&st1;" x1="104.5" y1="11.52" x2="104.5" y2="0.5"/>
		<line style="&st1;" x1="106.5" y1="14.27" x2="106.5" y2="0.5"/>
		<line style="&st1;" x1="108.5" y1="17.02" x2="108.5" y2="0.5"/>
		<line style="&st1;" x1="110.5" y1="19.78" x2="110.5" y2="0.5"/>
		<line style="&st1;" x1="114.5" y1="14.27" x2="114.5" y2="0.5"/>
		<line style="&st1;" x1="116.5" y1="11.52" x2="116.5" y2="0.5"/>
		<line style="&st1;" x1="118.5" y1="8.76" x2="118.5" y2="0.5"/>
		<line style="&st1;" x1="120.5" y1="6.01" x2="120.5" y2="0.5"/>
		<line style="&st1;" x1="122.5" y1="3.25" x2="122.5" y2="0.5"/>
		<line style="&st1;" x1="124.5" y1="0.5" x2="124.5" y2="0.5"/>
		<line style="&st1;" x1="112.5" y1="17.02" x2="112.5" y2="0.5"/>
		<line style="&st1;" x1="114.5" y1="25.29" x2="114.5" y2="25.29"/>
		<line style="&st1;" x1="116.5" y1="28.04" x2="116.5" y2="22.53"/>
		<line style="&st1;" x1="118.5" y1="30.79" x2="118.5" y2="19.78"/>
		<line style="&st1;" x1="120.5" y1="33.55" x2="120.5" y2="17.02"/>
		<line style="&st1;" x1="122.5" y1="36.3" x2="122.5" y2="14.27"/>
		<line style="&st1;" x1="124.5" y1="39.06" x2="124.5" y2="11.52"/>
		<line style="&st1;" x1="126.5" y1="41.81" x2="126.5" y2="8.76"/>
		<line style="&st1;" x1="128.5" y1="44.57" x2="128.5" y2="6.01"/>
		<line style="&st1;" x1="96.5" y1="0.5" x2="96.5" y2="0.5"/>
		<line style="&st1;" x1="98.5" y1="176.76" x2="98.5" y2="174.01"/>
		<line style="&st1;" x1="100.5" y1="176.76" x2="100.5" y2="171.25"/>
		<line style="&st1;" x1="102.5" y1="176.76" x2="102.5" y2="168.5"/>
		<line style="&st1;" x1="104.5" y1="176.76" x2="104.5" y2="165.75"/>
		<line style="&st1;" x1="106.5" y1="176.76" x2="106.5" y2="162.99"/>
		<line style="&st1;" x1="108.5" y1="176.76" x2="108.5" y2="160.24"/>
		<line style="&st1;" x1="110.5" y1="176.76" x2="110.5" y2="157.48"/>
		<line style="&st1;" x1="114.5" y1="176.76" x2="114.5" y2="151.98"/>
		<line style="&st1;" x1="116.5" y1="176.76" x2="116.5" y2="149.22"/>
		<line style="&st1;" x1="118.5" y1="176.76" x2="118.5" y2="146.47"/>
		<line style="&st1;" x1="120.5" y1="176.76" x2="120.5" y2="143.71"/>
		<line style="&st1;" x1="122.5" y1="176.76" x2="122.5" y2="140.96"/>
		<line style="&st1;" x1="124.5" y1="176.76" x2="124.5" y2="138.21"/>
		<line style="&st1;" x1="126.5" y1="174.01" x2="126.5" y2="135.45"/>
		<line style="&st1;" x1="96.5" y1="176.76" x2="96.5" y2="176.76"/>
		<line style="&st1;" x1="125.5" y1="168.5" x2="125.5" y2="175.38"/>
		<line style="&st1;" x1="127.5" y1="171.25" x2="127.5" y2="172.63"/>
		<line style="&st1;" x1="121.5" y1="162.99" x2="121.5" y2="171.25"/>
		<line style="&st1;" x1="123.5" y1="165.75" x2="123.5" y2="174.01"/>
		<line style="&st1;" x1="119.5" y1="160.24" x2="119.5" y2="168.5"/>
		<line style="&st1;" x1="117.5" y1="157.48" x2="117.5" y2="165.75"/>
		<line style="&st1;" x1="115.5" y1="154.73" x2="115.5" y2="162.99"/>
		<line style="&st1;" x1="14.5" y1="151.98" x2="14.5" y2="151.98"/>
		<line style="&st1;" x1="10.5" y1="157.48" x2="10.5" y2="146.47"/>
		<line style="&st1;" x1="6.5" y1="162.99" x2="6.5" y2="140.96"/>
		<line style="&st1;" x1="2.5" y1="168.5" x2="2.5" y2="135.45"/>
		<line style="&st1;" x1="0.5" y1="171.25" x2="0.5" y2="94.14"/>
		<line style="&st1;" x1="32.5" y1="176.76" x2="32.5" y2="176.76"/>
		<line style="&st1;" x1="30.5" y1="3.25" x2="30.5" y2="0.5"/>
		<line style="&st1;" x1="28.5" y1="6.01" x2="28.5" y2="0.5"/>
		<line style="&st1;" x1="26.5" y1="8.76" x2="26.5" y2="0.5"/>
		<line style="&st1;" x1="24.5" y1="11.52" x2="24.5" y2="0.5"/>
		<line style="&st1;" x1="22.5" y1="14.27" x2="22.5" y2="0.5"/>
		<line style="&st1;" x1="20.5" y1="17.02" x2="20.5" y2="0.5"/>
		<line style="&st1;" x1="0.5" y1="6.01" x2="0.5" y2="83.12"/>
		<line style="&st1;" x1="4.5" y1="39.06" x2="4.5" y2="0.5"/>
		<line style="&st1;" x1="6.5" y1="36.3" x2="6.5" y2="0.5"/>
		<line style="&st1;" x1="8.5" y1="33.55" x2="8.5" y2="0.5"/>
		<line style="&st1;" x1="10.5" y1="30.79" x2="10.5" y2="0.5"/>
		<line style="&st1;" x1="12.5" y1="28.04" x2="12.5" y2="0.5"/>
		<line style="&st1;" x1="14.5" y1="25.29" x2="14.5" y2="0.5"/>
		<line style="&st1;" x1="16.5" y1="0.5" x2="16.5" y2="26.66"/>
		<line style="&st1;" x1="18.5" y1="19.78" x2="18.5" y2="0.5"/>
		<line style="&st1;" x1="2.5" y1="41.81" x2="2.5" y2="3.25"/>
		<line style="&st1;" x1="15.5" y1="17.02" x2="15.5" y2="25.29"/>
		<line style="&st1;" x1="13.5" y1="14.27" x2="13.5" y2="22.53"/>
		<line style="&st1;" x1="11.5" y1="11.52" x2="11.5" y2="19.86"/>
		<line style="&st1;" x1="9.5" y1="8.76" x2="9.5" y2="17.02"/>
		<line style="&st1;" x1="7.5" y1="6.01" x2="7.5" y2="14.27"/>
		<line style="&st1;" x1="5.5" y1="3.25" x2="5.5" y2="11.52"/>
		<line style="&st1;" x1="3.5" y1="1.88" x2="3.5" y2="8.76"/>
		<line style="&st1;" x1="1.5" y1="4.63" x2="1.5" y2="6.01"/>
		<line style="&st1;" x1="32.5" y1="0.5" x2="32.5" y2="0.5"/>
		<line style="&st1;" x1="98.5" y1="91.38" x2="98.5" y2="85.88"/>
		<line style="&st1;" x1="100.5" y1="94.14" x2="100.5" y2="83.12"/>
		<line style="&st1;" x1="102.5" y1="96.89" x2="102.5" y2="80.37"/>
		<line style="&st1;" x1="104.5" y1="99.65" x2="104.5" y2="77.61"/>
		<line style="&st1;" x1="106.5" y1="102.4" x2="106.5" y2="74.86"/>
		<line style="&st1;" x1="108.5" y1="105.16" x2="108.5" y2="72.11"/>
		<line style="&st1;" x1="128.5" y1="92.76" x2="128.5" y2="171.25"/>
		<line style="&st1;" x1="124.5" y1="127.19" x2="124.5" y2="87.25"/>
		<line style="&st1;" x1="122.5" y1="124.43" x2="122.5" y2="84.5"/>
		<line style="&st1;" x1="120.5" y1="121.68" x2="120.5" y2="81.75"/>
		<line style="&st1;" x1="118.5" y1="118.93" x2="118.5" y2="80.37"/>
		<line style="&st1;" x1="116.5" y1="116.17" x2="116.5" y2="77.61"/>
		<line style="&st1;" x1="114.5" y1="113.42" x2="114.5" y2="74.86"/>
		<line style="&st1;" x1="110.5" y1="107.91" x2="110.5" y2="69.35"/>
		<line style="&st1;" x1="126.5" y1="129.94" x2="126.5" y2="90.01"/>
		<line style="&st1;" x1="115.5" y1="102.4" x2="115.5" y2="110.66"/>
		<line style="&st1;" x1="117.5" y1="99.65" x2="117.5" y2="107.91"/>
		<line style="&st1;" x1="119.5" y1="96.89" x2="119.5" y2="105.16"/>
		<line style="&st1;" x1="121.5" y1="94.14" x2="121.5" y2="102.4"/>
		<line style="&st1;" x1="123.5" y1="91.38" x2="123.5" y2="99.65"/>
		<line style="&st1;" x1="125.5" y1="88.63" x2="125.5" y2="96.89"/>
		<line style="&st1;" x1="19.5" y1="58.34" x2="19.5" y2="66.6"/>
		<line style="&st1;" x1="21.5" y1="55.58" x2="21.5" y2="63.84"/>
		<line style="&st1;" x1="23.5" y1="52.83" x2="23.5" y2="61.09"/>
		<line style="&st1;" x1="25.5" y1="50.07" x2="25.5" y2="58.34"/>
		<line style="&st1;" x1="27.5" y1="47.32" x2="27.5" y2="55.58"/>
		<line style="&st1;" x1="29.5" y1="52.83" x2="29.5" y2="36.3"/>
		<line style="&st1;" x1="31.5" y1="50.07" x2="31.5" y2="39.06"/>
		<line style="&st1;" x1="33.5" y1="50.07" x2="33.5" y2="39.06"/>
		<line style="&st1;" x1="35.5" y1="36.3" x2="35.5" y2="52.83"/>
		<line style="&st1;" x1="37.5" y1="33.55" x2="37.5" y2="41.81"/>
		<line style="&st1;" x1="39.5" y1="30.79" x2="39.5" y2="39.06"/>
		<line style="&st1;" x1="41.5" y1="28.04" x2="41.5" y2="36.3"/>
		<line style="&st1;" x1="43.5" y1="25.29" x2="43.5" y2="33.55"/>
		<line style="&st1;" x1="45.5" y1="22.53" x2="45.5" y2="30.79"/>
		<line style="&st1;" x1="47.5" y1="19.78" x2="47.5" y2="28.04"/>
		<line style="&st1;" x1="49.5" y1="17.02" x2="49.5" y2="25.29"/>
		<line style="&st1;" x1="20.5" y1="56.96" x2="20.5" y2="65.22"/>
		<line style="&st1;" x1="22.5" y1="54.2" x2="22.5" y2="62.47"/>
		<line style="&st1;" x1="24.5" y1="51.45" x2="24.5" y2="59.71"/>
		<line style="&st1;" x1="26.5" y1="48.7" x2="26.5" y2="56.96"/>
		<line style="&st1;" x1="28.5" y1="45.94" x2="28.5" y2="54.2"/>
		<line style="&st1;" x1="30.5" y1="51.45" x2="30.5" y2="37.68"/>
		<line style="&st1;" x1="32.5" y1="48.7" x2="32.5" y2="39.8"/>
		<line style="&st1;" x1="34.5" y1="37.68" x2="34.5" y2="51.45"/>
		<line style="&st1;" x1="36.5" y1="34.93" x2="36.5" y2="43.19"/>
		<line style="&st1;" x1="38.5" y1="32.17" x2="38.5" y2="40.43"/>
		<line style="&st1;" x1="40.5" y1="29.42" x2="40.5" y2="37.68"/>
		<line style="&st1;" x1="42.5" y1="26.66" x2="42.5" y2="34.93"/>
		<line style="&st1;" x1="44.5" y1="23.91" x2="44.5" y2="32.17"/>
		<line style="&st1;" x1="46.5" y1="21.16" x2="46.5" y2="29.42"/>
		<line style="&st1;" x1="48.5" y1="26.66" x2="48.5" y2="0.63"/>
		<path style="&st1;" d="M18.5,59.71"/>
		<line style="&st1;" x1="16.5" y1="62.47" x2="16.5" y2="105.16"/>
		<line style="&st1;" x1="109.5" y1="146.47" x2="109.5" y2="154.73"/>
		<line style="&st1;" x1="107.5" y1="143.71" x2="107.5" y2="151.98"/>
		<line style="&st1;" x1="105.5" y1="140.96" x2="105.5" y2="149.22"/>
		<line style="&st1;" x1="103.5" y1="138.21" x2="103.5" y2="146.47"/>
		<line style="&st1;" x1="101.5" y1="135.45" x2="101.5" y2="143.71"/>
		<line style="&st1;" x1="91.5" y1="121.68" x2="91.51" y2="129.96"/>
		<line style="&st1;" x1="89.5" y1="118.93" x2="89.5" y2="127.19"/>
		<line style="&st1;" x1="87.5" y1="116.17" x2="87.5" y2="124.43"/>
		<line style="&st1;" x1="85.5" y1="113.42" x2="85.5" y2="121.68"/>
		<line style="&st1;" x1="83.5" y1="110.66" x2="83.5" y2="118.93"/>
		<line style="&st1;" x1="81.5" y1="107.91" x2="81.5" y2="116.17"/>
		<line style="&st1;" x1="113.5" y1="160.24" x2="113.5" y2="151.98"/>
		<line style="&st1;" x1="111.5" y1="157.48" x2="111.5" y2="149.22"/>
		<line style="&st1;" x1="110.5" y1="147.84" x2="110.5" y2="157.48"/>
		<line style="&st1;" x1="108.5" y1="145.09" x2="108.5" y2="153.35"/>
		<line style="&st1;" x1="106.5" y1="142.33" x2="106.5" y2="150.6"/>
		<line style="&st1;" x1="104.5" y1="139.58" x2="104.5" y2="147.84"/>
		<line style="&st1;" x1="102.5" y1="136.83" x2="102.5" y2="145.09"/>
		<line style="&st1;" x1="100.5" y1="134.07" x2="100.5" y2="142.33"/>
		<line style="&st1;" x1="96.5" y1="128.56" x2="96.5" y2="136.83"/>
		<line style="&st1;" x1="92.5" y1="123.06" x2="92.5" y2="131.32"/>
		<line style="&st1;" x1="90.5" y1="120.3" x2="90.5" y2="128.56"/>
		<line style="&st1;" x1="88.5" y1="117.55" x2="88.5" y2="125.81"/>
		<line style="&st1;" x1="86.5" y1="114.79" x2="86.5" y2="123.06"/>
		<line style="&st1;" x1="84.5" y1="112.04" x2="84.5" y2="120.3"/>
		<line style="&st1;" x1="82.5" y1="117.55" x2="82.5" y2="69.35"/>
		<line style="&st1;" x1="112.5" y1="150.6" x2="112.5" y2="176.76"/>
		<line style="&st1;" x1="83.5" y1="146.47" x2="83.5" y2="154.73"/>
		<line style="&st1;" x1="85.5" y1="143.71" x2="85.5" y2="151.98"/>
		<line style="&st1;" x1="87.5" y1="140.96" x2="87.5" y2="149.22"/>
		<line style="&st1;" x1="89.5" y1="138.21" x2="89.5" y2="146.47"/>
		<line style="&st1;" x1="91.5" y1="135.45" x2="91.5" y2="143.71"/>
		<line style="&st1;" x1="93.5" y1="140.96" x2="93.5" y2="124.43"/>
		<line style="&st1;" x1="95.5" y1="138.21" x2="95.5" y2="127.19"/>
		<line style="&st1;" x1="97.5" y1="138.21" x2="97.5" y2="127.19"/>
		<line style="&st1;" x1="99.5" y1="124.43" x2="99.5" y2="140.96"/>
		<line style="&st1;" x1="101.5" y1="121.68" x2="101.5" y2="129.94"/>
		<line style="&st1;" x1="103.5" y1="118.93" x2="103.5" y2="127.19"/>
		<line style="&st1;" x1="105.5" y1="116.17" x2="105.5" y2="124.43"/>
		<line style="&st1;" x1="107.5" y1="113.42" x2="107.5" y2="121.68"/>
		<line style="&st1;" x1="109.5" y1="110.66" x2="109.5" y2="118.93"/>
		<line style="&st1;" x1="111.5" y1="107.91" x2="111.5" y2="116.17"/>
		<line style="&st1;" x1="113.5" y1="113.42" x2="113.5" y2="105.16"/>
		<line style="&st1;" x1="81.5" y1="149.22" x2="81.5" y2="157.48"/>
		<line style="&st1;" x1="84.5" y1="145.09" x2="84.5" y2="153.35"/>
		<line style="&st1;" x1="86.5" y1="142.33" x2="86.5" y2="150.6"/>
		<line style="&st1;" x1="88.5" y1="139.58" x2="88.5" y2="147.84"/>
		<line style="&st1;" x1="90.5" y1="136.83" x2="90.5" y2="145.09"/>
		<line style="&st1;" x1="92.5" y1="134.07" x2="92.5" y2="142.33"/>
		<line style="&st1;" x1="94.5" y1="139.58" x2="94.52" y2="125.84"/>
		<line style="&st1;" x1="98.5" y1="125.81" x2="98.5" y2="139.58"/>
		<line style="&st1;" x1="100.5" y1="123.06" x2="100.5" y2="131.32"/>
		<line style="&st1;" x1="102.5" y1="120.3" x2="102.5" y2="128.56"/>
		<line style="&st1;" x1="104.5" y1="117.55" x2="104.5" y2="125.81"/>
		<line style="&st1;" x1="106.5" y1="114.79" x2="106.5" y2="123.06"/>
		<line style="&st1;" x1="108.5" y1="112.04" x2="108.5" y2="120.3"/>
		<line style="&st1;" x1="110.5" y1="109.29" x2="110.5" y2="117.55"/>
		<line style="&st1;" x1="112.5" y1="114.79" x2="112.5" y2="72.11"/>
		<line style="&st1;" x1="82.5" y1="147.84" x2="82.5" y2="156.11"/>
		<line style="&st1;" x1="42.5" y1="113.42" x2="42.5" y2="102.4"/>
		<line style="&st1;" x1="22.5" y1="113.42" x2="22.5" y2="102.4"/>
		<line style="&st1;" x1="26.5" y1="118.93" x2="26.5" y2="96.89"/>
		<line style="&st1;" x1="20.5" y1="143.71" x2="20.5" y2="121.68"/>
		<line style="&st1;" x1="16.5" y1="149.22" x2="16.5" y2="116.17"/>
		<line style="&st1;" x1="12.5" y1="116.17" x2="12.5" y2="154.73"/>
		<line style="&st1;" x1="24.5" y1="138.21" x2="24.5" y2="127.19"/>
		<line style="&st1;" x1="4.5" y1="127.19" x2="4.5" y2="165.75"/>
		<line style="&st1;" x1="8.5" y1="121.68" x2="8.5" y2="160.24"/>
		<line style="&st1;" x1="56.5" y1="105.16" x2="56.5" y2="160.24"/>
		<line style="&st1;" x1="52.5" y1="154.73" x2="52.5" y2="110.66"/>
		<line style="&st1;" x1="48.5" y1="149.22" x2="48.5" y2="116.17"/>
		<line style="&st1;" x1="60.5" y1="165.75" x2="60.5" y2="99.65"/>
		<line style="&st1;" x1="40.5" y1="138.21" x2="40.5" y2="127.19"/>
		<line style="&st1;" x1="44.5" y1="143.71" x2="44.5" y2="121.68"/>
		<line style="&st1;" x1="38.5" y1="145.09" x2="38.5" y2="176.76"/>
		<line style="&st1;" x1="34.5" y1="140.96" x2="34.5" y2="176.76"/>
		<line style="&st1;" x1="42.5" y1="151.98" x2="42.5" y2="176.76"/>
		<line style="&st1;" x1="102.5" y1="30.79" x2="102.5" y2="8.76"/>
		<line style="&st1;" x1="98.5" y1="36.3" x2="98.5" y2="3.25"/>
		<line style="&st1;" x1="94.5" y1="36.3" x2="94.5" y2="3.25"/>
		<line style="&st1;" x1="100.5" y1="44.57" x2="100.5" y2="44.57"/>
		<line style="&st1;" x1="92.5" y1="44.57" x2="92.5" y2="44.57"/>
		<line style="&st1;" x1="106.5" y1="25.29" x2="106.5" y2="14.27"/>
		<line style="&st1;" x1="86.5" y1="25.29" x2="86.5" y2="14.27"/>
		<line style="&st1;" x1="90.5" y1="30.79" x2="90.5" y2="8.76"/>
		<line style="&st1;" x1="84.5" y1="54.89" x2="84.5" y2="33.55"/>
		<line style="&st1;" x1="80.5" y1="61.09" x2="80.5" y2="28.04"/>
		<line style="&st1;" x1="76.5" y1="61.09" x2="76.5" y2="22.53"/>
		<line style="&st1;" x1="88.5" y1="50.07" x2="88.5" y2="39.06"/>
		<line style="&st1;" x1="68.5" y1="11.52" x2="68.5" y2="77.61"/>
		<line style="&st1;" x1="72.5" y1="55.58" x2="72.5" y2="17.02"/>
		<line style="&st1;" x1="120.5" y1="55.58" x2="120.5" y2="33.55"/>
		<line style="&st1;" x1="116.5" y1="61.09" x2="116.5" y2="28.04"/>
		<line style="&st1;" x1="112.5" y1="61.09" x2="112.5" y2="28.04"/>
		<line style="&st1;" x1="124.5" y1="50.07" x2="124.5" y2="39.06"/>
		<line style="&st1;" x1="104.5" y1="50.07" x2="104.5" y2="39.06"/>
		<line style="&st1;" x1="108.5" y1="55.58" x2="108.5" y2="33.55"/>
		<line style="&st1;" x1="102.5" y1="80.37" x2="102.5" y2="58.34"/>
		<line style="&st1;" x1="98.5" y1="85.88" x2="98.5" y2="52.83"/>
		<line style="&st1;" x1="94.5" y1="85.88" x2="94.5" y2="52.83"/>
		<line style="&st1;" x1="106.5" y1="74.86" x2="106.5" y2="63.84"/>
		<line style="&st1;" x1="86.5" y1="74.86" x2="86.5" y2="63.84"/>
		<line style="&st1;" x1="90.5" y1="80.37" x2="90.5" y2="58.34"/>
		<line style="&st1;" x1="32.5" y1="176.76" x2="32.5" y2="176.76"/>
		<line style="&st1;" x1="28.5" y1="176.76" x2="28.5" y2="171.25"/>
		<line style="&st1;" x1="24.5" y1="176.76" x2="24.5" y2="165.75"/>
		<line style="&st1;" x1="20.5" y1="176.76" x2="20.5" y2="160.24"/>
		<line style="&st1;" x1="4.5" y1="176.76" x2="4.5" y2="176.76"/>
		<line style="&st1;" x1="6.5" y1="176.76" x2="6.5" y2="174.01"/>
		<line style="&st1;" x1="8.5" y1="176.76" x2="8.5" y2="171.25"/>
		<line style="&st1;" x1="10.5" y1="176.76" x2="10.5" y2="168.5"/>
		<line style="&st1;" x1="12.5" y1="176.76" x2="12.5" y2="165.75"/>
		<line style="&st1;" x1="14.5" y1="176.76" x2="14.5" y2="162.99"/>
		<line style="&st1;" x1="16.5" y1="176.76" x2="16.5" y2="160.24"/>
		<line style="&st1;" x1="18.5" y1="176.76" x2="18.5" y2="157.48"/>
		<line style="&st1;" x1="26.5" y1="145.09" x2="26.5" y2="176.76"/>
		<line style="&st1;" x1="30.5" y1="140.96" x2="30.5" y2="176.76"/>
		<line style="&st1;" x1="22.5" y1="151.98" x2="22.5" y2="176.76"/>
	</g>
</svg>
