<?xml version="1.0" encoding="iso-8859-1"?>
<!-- Generator: Adobe Illustrator 11 Build 196, SVG Export Plug-In . SVG Version: 6.0.0 Build 78)  -->
<!DOCTYPE svg PUBLIC "-//W3C//DTD SVG 1.0//EN"    "http://www.w3.org/TR/2001/REC-SVG-20010904/DTD/svg10.dtd" [
	<!ENTITY ns_flows "http://ns.adobe.com/Flows/1.0/">
	<!ENTITY ns_svg "http://www.w3.org/2000/svg">
	<!ENTITY ns_xlink "http://www.w3.org/1999/xlink">
	<!ENTITY st0 "fill:none;stroke:#000000;stroke-linecap:round;stroke-linejoin:round;">
]>
<svg  xmlns="&ns_svg;" xmlns:xlink="&ns_xlink;" xmlns:a="http://ns.adobe.com/AdobeSVGViewerExtensions/3.0/"
	 width="156.6" height="255.34" viewBox="0 0 156.6 255.34" style="overflow:visible;enable-background:new 0 0 156.6 255.34"
	 xml:space="preserve">
	<g id="Layer_1">
		<g>
			<line style="&st0;" x1="39.4" y1="0.5" x2="39.4" y2="254.84"/>
			<line style="&st0;" x1="156.1" y1="0.5" x2="156.1" y2="254.84"/>
			<line style="&st0;" x1="117.2" y1="0.5" x2="117.2" y2="254.84"/>
			<line style="&st0;" x1="78.3" y1="0.5" x2="78.3" y2="254.84"/>
			<line style="&st0;" x1="0.5" y1="0.5" x2="0.5" y2="254.84"/>
		</g>
		<g>
			<line style="&st0;" x1="0.5" y1="0.5" x2="156.1" y2="73.17"/>
			<line style="&st0;" x1="78.3" y1="0.5" x2="156.1" y2="36.83"/>
			<line style="&st0;" x1="0.5" y1="109.5" x2="156.1" y2="182.17"/>
			<line style="&st0;" x1="0.5" y1="73.17" x2="156.1" y2="145.84"/>
			<line style="&st0;" x1="0.5" y1="36.83" x2="156.1" y2="109.5"/>
			<line style="&st0;" x1="0.5" y1="145.84" x2="156.1" y2="218.5"/>
			<line style="&st0;" x1="0.5" y1="182.17" x2="156.1" y2="254.84"/>
			<line style="&st0;" x1="0.5" y1="218.5" x2="78.3" y2="254.84"/>
		</g>
		<g>
			<line style="&st0;" x1="0.5" y1="36.83" x2="78.3" y2="0.5"/>
			<line style="&st0;" x1="0.5" y1="145.84" x2="156.1" y2="73.17"/>
			<line style="&st0;" x1="0.5" y1="109.5" x2="156.1" y2="36.83"/>
			<line style="&st0;" x1="0.5" y1="73.17" x2="156.1" y2="0.5"/>
			<line style="&st0;" x1="0.5" y1="182.17" x2="156.1" y2="109.5"/>
			<line style="&st0;" x1="78.3" y1="254.84" x2="156.1" y2="218.5"/>
			<line style="&st0;" x1="0.5" y1="218.5" x2="156.1" y2="145.84"/>
			<line style="&st0;" x1="0.5" y1="254.84" x2="156.1" y2="182.17"/>
		</g>
		<g>
			<line style="&st0;" x1="130.17" y1="36.83" x2="156.1" y2="36.83"/>
			<line style="&st0;" x1="130.17" y1="145.84" x2="156.1" y2="145.84"/>
			<line style="&st0;" x1="156.1" y1="109.5" x2="130.17" y2="109.5"/>
			<line style="&st0;" x1="130.17" y1="73.17" x2="156.1" y2="73.17"/>
			<line style="&st0;" x1="130.17" y1="182.17" x2="156.1" y2="182.17"/>
			<line style="&st0;" x1="156.1" y1="218.5" x2="130.17" y2="218.5"/>
			<line style="&st0;" x1="0.5" y1="36.83" x2="26.43" y2="36.83"/>
			<line style="&st0;" x1="0.5" y1="145.84" x2="26.43" y2="145.84"/>
			<line style="&st0;" x1="26.43" y1="109.5" x2="0.5" y2="109.5"/>
			<line style="&st0;" x1="0.5" y1="73.17" x2="26.43" y2="73.17"/>
			<line style="&st0;" x1="0.5" y1="182.17" x2="26.43" y2="182.17"/>
			<line style="&st0;" x1="26.44" y1="218.5" x2="0.5" y2="218.5"/>
			<line style="&st0;" x1="26.43" y1="0.5" x2="0.5" y2="0.5"/>
			<line style="&st0;" x1="156.1" y1="0.5" x2="130.17" y2="0.5"/>
			<line style="&st0;" x1="104.24" y1="0.5" x2="52.37" y2="0.5"/>
			<line style="&st0;" x1="13.47" y1="18.67" x2="65.34" y2="18.67"/>
			<line style="&st0;" x1="91.27" y1="18.67" x2="143.13" y2="18.67"/>
			<line style="&st0;" x1="52.37" y1="73.17" x2="104.24" y2="73.17"/>
			<line style="&st0;" x1="13.47" y1="127.67" x2="65.34" y2="127.67"/>
			<line style="&st0;" x1="13.47" y1="91.33" x2="65.34" y2="91.33"/>
			<line style="&st0;" x1="13.47" y1="55" x2="65.34" y2="55"/>
			<line style="&st0;" x1="91.27" y1="164" x2="143.14" y2="164"/>
			<line style="&st0;" x1="91.27" y1="55" x2="143.14" y2="55"/>
			<line style="&st0;" x1="91.27" y1="91.33" x2="143.14" y2="91.34"/>
			<line style="&st0;" x1="52.37" y1="36.83" x2="104.24" y2="36.83"/>
			<line style="&st0;" x1="13.47" y1="164" x2="65.33" y2="164"/>
			<line style="&st0;" x1="91.27" y1="200.34" x2="143.14" y2="200.34"/>
			<line style="&st0;" x1="13.47" y1="200.34" x2="65.34" y2="200.34"/>
			<line style="&st0;" x1="91.27" y1="127.67" x2="143.14" y2="127.67"/>
			<line style="&st0;" x1="52.37" y1="182.17" x2="104.24" y2="182.17"/>
			<line style="&st0;" x1="91.27" y1="236.67" x2="143.13" y2="236.67"/>
			<line style="&st0;" x1="13.47" y1="236.67" x2="65.33" y2="236.67"/>
			<line style="&st0;" x1="130.17" y1="254.84" x2="156.1" y2="254.84"/>
			<line style="&st0;" x1="0.5" y1="254.84" x2="26.43" y2="254.84"/>
			<line style="&st0;" x1="52.37" y1="254.84" x2="104.23" y2="254.84"/>
			<line style="&st0;" x1="52.37" y1="218.5" x2="104.23" y2="218.5"/>
			<line style="&st0;" x1="52.37" y1="109.5" x2="104.23" y2="109.5"/>
			<line style="&st0;" x1="52.37" y1="145.84" x2="104.23" y2="145.84"/>
		</g>
		<g>
			<polyline style="&st0;" points="156.1,254.84 143.13,236.67 156.1,218.5 143.14,200.34 156.1,182.17 143.14,164 156.1,145.84 
				143.14,127.67 156.1,109.5 143.14,91.34 156.1,73.17 143.14,55 156.1,36.83 143.13,18.67 156.1,0.5 "/>
			<polyline style="&st0;" points="0.5,0.5 13.47,18.67 0.5,36.83 13.47,55 0.5,73.17 13.47,91.33 0.5,109.5 13.47,127.67 
				0.5,145.84 13.47,164 0.5,182.17 13.47,200.34 0.5,218.5 13.47,236.67 0.5,254.84 "/>
		</g>
		<g>
			<polyline style="&st0;" points="104.23,254.84 130.17,218.5 104.24,182.17 130.17,145.84 104.24,109.5 130.17,73.17 
				104.24,36.83 130.17,0.5 "/>
			<polyline style="&st0;" points="26.43,254.84 52.37,218.5 26.43,182.17 52.37,145.84 26.43,109.5 52.37,73.17 26.43,36.83 
				52.37,0.5 "/>
			<polyline style="&st0;" points="78.3,254.84 65.34,236.67 91.27,200.34 65.34,164 91.27,127.67 65.34,91.33 91.27,55 
				65.34,18.67 78.31,0.5 "/>
		</g>
		<g>
			<polyline style="&st0;" points="130.17,254.84 104.24,218.5 130.17,182.17 104.24,145.84 130.17,109.5 104.24,73.17 
				130.17,36.83 104.24,0.5 "/>
			<polyline style="&st0;" points="52.37,254.84 26.44,218.5 52.37,182.17 26.43,145.84 52.37,109.5 26.43,73.17 52.37,36.83 
				26.43,0.5 "/>
			<polyline style="&st0;" points="78.3,254.84 91.27,236.67 65.34,200.34 91.27,164.01 65.33,127.67 91.27,91.33 65.34,55 
				91.27,18.67 78.3,0.5 "/>
		</g>
	</g>
</svg>
