<?xml version="1.0" encoding="iso-8859-1"?>
<!-- Generator: Adobe Illustrator 11 Build 196, SVG Export Plug-In . SVG Version: 6.0.0 Build 78)  -->
<!DOCTYPE svg PUBLIC "-//W3C//DTD SVG 1.0//EN"    "http://www.w3.org/TR/2001/REC-SVG-20010904/DTD/svg10.dtd" [
	<!ENTITY ns_flows "http://ns.adobe.com/Flows/1.0/">
	<!ENTITY ns_svg "http://www.w3.org/2000/svg">
	<!ENTITY ns_xlink "http://www.w3.org/1999/xlink">
	<!ENTITY st0 "fill:#111111;">
	<!ENTITY st1 "fill:#FFFFFF;">
	<!ENTITY st2 "fill:none;stroke:#FFFFFF;stroke-linecap:round;stroke-linejoin:round;">
]>
<svg  xmlns="&ns_svg;" xmlns:xlink="&ns_xlink;" xmlns:a="http://ns.adobe.com/AdobeSVGViewerExtensions/3.0/"
	 width="190.96" height="183.81" viewBox="0 0 190.96 183.81" style="overflow:visible;enable-background:new 0 0 190.96 183.81"
	 xml:space="preserve">
	<g id="Pfade">
		<g>
			<g>
				<path d="M131.3,177.96c0,0-21.97,5.29-53.21-13.24c-3.71,1.32-6.35,3.18-4.24,5.29c2.12,2.12,30.97,13.5,35.74,13.77
					C114.36,184.04,128.39,182.72,131.3,177.96z"/>
				<path d="M74.39,157.04c0,0,3.71,2.12,0.79,6.62C68.3,174.25,6.62,164.98,0,106.74c0,0,6.62,3.44,10.06,6.62
					c10.85,38.12,33.88,42.36,57.45,41.56"/>
				<path d="M0.63,104.2c0,0,5.72-8.31,9.95-5.93c5.03,5.82,33.62,35.47,75.18,34.41c-4.77,2.38-6.35,2.12-7.41,3.97
					C77.3,138.51,41.14,137.29,0.63,104.2z"/>
				<path d="M32.35,87.15C33.94,70.48,41.56,44,50.03,39.24c1.06,1.32,0.79,3.71,0.79,3.71c-8.74,11.38-14.56,33.62-13.77,38.12
					C34.68,83.18,32.35,87.15,32.35,87.15z"/>
				<path d="M70.95,153.87c-2.65-14.83-5.29-30.18,7.68-48.18c2.91-5.56,4.5-5.56,1.85-5.03s-27.8,15.35-18.53,50.83
					C63.8,153.07,69.89,154.39,70.95,153.87z"/>
				<path d="M93.98,5.35c-9.27-13.5-40.5,2.12-44.47,7.68c-3.97,5.56-6.88,18,1.85,25.15c8.74,7.15,23.56,8.21,29.91,1.85
					C90.54,31.83,98.21,12.24,93.98,5.35z"/>
				<g>
					<circle style="&st1;" cx="84.71" cy="4.03" r="2.38"/> 
					<circle style="&st1;" cx="78.09" cy="3.5" r="2.38"/> 
					<circle style="&st1;" cx="77.3" cy="9.59" r="2.38"/> 
					<circle style="&st1;" cx="82.59" cy="8.27" r="2.38"/> 
					<circle style="&st1;" cx="89.48" cy="9.06" r="2.38"/> 
					<circle style="&st1;" cx="91.33" cy="14.35" r="2.38"/> 
					<circle style="&st1;" cx="84.98" cy="13.83" r="2.38"/> 
					<circle style="&st1;" cx="89.74" cy="19.65" r="2.38"/> 
					<circle style="&st1;" cx="83.39" cy="19.38" r="2.38"/> 
					<circle style="&st1;" cx="86.83" cy="24.68" r="2.38"/> 
					<circle style="&st1;" cx="86.3" cy="31.3" r="2.38"/> 
					<circle style="&st1;" cx="81.01" cy="27.06" r="2.38"/> 
					<circle style="&st1;" cx="78.09" cy="22.3" r="2.38"/> 
					<circle style="&st1;" cx="77.56" cy="17" r="2.38"/> 
					<circle style="&st1;" cx="72.8" cy="13.56" r="2.38"/> 
					<circle style="&st1;" cx="69.36" cy="9.33" r="2.38"/> 
					<circle style="&st1;" cx="73.59" cy="6.41" r="2.38"/> 
					<circle style="&st1;" cx="68.83" cy="3.24" r="2.38"/> 
					<circle style="&st1;" cx="61.95" cy="5.88" r="2.38"/> 
					<circle style="&st1;" cx="64.86" cy="12.24" r="2.38"/> 
					<circle style="&st1;" cx="68.56" cy="17" r="2.38"/> 
					<circle style="&st1;" cx="72.27" cy="21.5" r="2.38"/> 
					<circle style="&st1;" cx="75.71" cy="26.8" r="2.38"/> 
					<circle style="&st1;" cx="78.36" cy="32.09" r="2.38"/> 
					<circle style="&st1;" cx="79.42" cy="37.39" r="2.38"/> 
					<circle style="&st1;" cx="69.09" cy="42.68" r="2.38"/> 
					<circle style="&st1;" cx="63" cy="41.36" r="2.38"/> 
					<circle style="&st1;" cx="74.65" cy="39.77" r="2.38"/> 
					<circle style="&st1;" cx="69.89" cy="29.18" r="2.38"/> 
					<circle style="&st1;" cx="66.71" cy="25.74" r="2.38"/> 
					<circle style="&st1;" cx="74.12" cy="34.21" r="2.38"/> 
					<circle style="&st1;" cx="64.86" cy="21.5" r="2.38"/> 
					<circle style="&st1;" cx="60.62" cy="18.59" r="2.38"/> 
					<circle style="&st1;" cx="59.83" cy="10.91" r="2.38"/> 
					<circle style="&st1;" cx="54.8" cy="9.33" r="2.38"/> 
					<circle style="&st1;" cx="55.33" cy="16.21" r="2.38"/> 
					<circle style="&st1;" cx="49.24" cy="20.71" r="2.38"/> 
					<circle style="&st1;" cx="62.21" cy="27.59" r="2.38"/> 
					<circle style="&st1;" cx="53.74" cy="21.77" r="2.38"/> 
					<circle style="&st1;" cx="57.71" cy="24.41" r="2.38"/> 
					<circle style="&st1;" cx="48.71" cy="26.53" r="2.38"/> 
					<circle style="&st1;" cx="59.3" cy="32.89" r="2.38"/> 
					<circle style="&st1;" cx="65.39" cy="32.36" r="2.38"/> 
					<circle style="&st1;" cx="54.53" cy="28.92" r="2.38"/> 
					<circle style="&st1;" cx="50.56" cy="32.09" r="2.38"/> 
					<circle style="&st1;" cx="54.27" cy="36.06" r="2.38"/> 
					<circle style="&st1;" cx="57.97" cy="39.5" r="2.38"/> 
					<circle style="&st1;" cx="63" cy="36.33" r="2.38"/> 
					<circle style="&st1;" cx="68.83" cy="36.33" r="2.38"/> 
				</g>
				<path style="&st0;" d="M34.5,60.15c-1.41-7.41-11.3-30-13.06-29.3c-1.76,0.71-4.59,4.24-4.59,6.35c0,2.12,14.4,28.94,13.7,37.41
					c2.82-6.35,3.25-14.12,3.25-14.12L34.5,60.15z"/>
				<path style="&st0;" d="M19.68,47.09c0,0-3.53-7.06-4.24-6.71C6.27,48.5-0.09,73.21,1.32,79.92
					C5.56,66.51,17.91,47.8,19.68,47.09z"/>
				<path style="&st0;" d="M68.74,58.74c0,0,9.53,1.06,13.77,0.35c7.06,9.88,22.24,21.88,26.12,24
					C86.39,77.8,71.56,64.04,68.74,58.74z"/>
				<g>
					<path style="&st1;" d="M4.91,109.22c6.78,35.78,30.62,52.58,70.85,49.94c0.29-0.02,0.54,0.2,0.56,0.49
						c0.02,0.29-0.2,0.54-0.49,0.56c-40.86,2.69-65.07-14.4-71.96-50.8c-0.05-0.29,0.13-0.56,0.42-0.62
						C4.58,108.75,4.86,108.94,4.91,109.22z"/>
				</g>
				<g>
					<path style="&st1;" d="M81.88,100.09c0.17,0.24,0.11,0.57-0.13,0.74C61.39,115.11,63.57,142,67.82,152.79
						c0.11,0.27-0.03,0.58-0.3,0.69c-0.27,0.11-0.58-0.03-0.69-0.3c-4.35-11.04-6.57-38.57,14.31-53.22
						C81.38,99.79,81.71,99.85,81.88,100.09z"/>
				</g>
				<g>
					<path style="&st1;" d="M5.57,99.3c10.82,10.29,39.7,34.36,74.13,35.5c0.29,0.01,0.52,0.25,0.51,0.55
						c-0.01,0.29-0.25,0.52-0.55,0.51c-34.79-1.16-63.92-25.42-74.82-35.79c-0.21-0.2-0.22-0.54-0.02-0.75
						C5.02,99.11,5.36,99.1,5.57,99.3z"/>
				</g>
				<path d="M60.09,152.01c-12.71-15.62-41.83-48.44,8.74-84.71c3.44-1.32-1.06-8.21-4.77-7.15s-27.8,18.27-33.88,35.74
					c-1.59,4.24,0.53,13.77,1.85,14.83c1.32,1.06,2.91,0.79,2.91,0.79s0.53,20.12,18.27,40.5C55.86,153.6,60.09,152.01,60.09,152.01
					z"/>
				<g>
					<path style="&st1;" d="M68.2,62.36c0.06,0.29-0.11,0.57-0.4,0.63c-11.94,2.73-29.64,27.04-36.33,45.34
						c-0.1,0.28-0.4,0.42-0.68,0.32c-0.27-0.1-0.42-0.4-0.32-0.68C37.4,89.04,55.1,64.81,67.56,61.97
						C67.85,61.9,68.13,62.08,68.2,62.36z"/>
				</g>
				<path style="&st2;" d="M34.89,112.35c5.35-2.96,6.1-7.73,6.81-10.02"/>
				<path style="&st2;" d="M46.25,131.47c-1.99-4.24-3.62-6.99-4.15-10.69"/>
				<path style="&st2;" d="M35.08,116.27c0.79,3.44,3.31,12.71,4.24,14.43"/>
				<g>
					<path style="&st1;" d="M19.8,32.38c1.59,3.18,9.02,19.64,13.53,33.43c0.09,0.28-0.06,0.58-0.34,0.67
						c-0.28,0.09-0.58-0.06-0.67-0.34C27.83,52.4,20.44,36.03,18.85,32.86c-0.13-0.26-0.02-0.58,0.24-0.71
						C19.35,32.02,19.67,32.12,19.8,32.38z"/>
				</g>
				<g>
					<path style="&st1;" d="M17.79,42.26c0.23,0.18,0.28,0.51,0.11,0.74C12.15,50.66,2.09,73.06,1.59,79.31
						c-0.02,0.29-0.28,0.51-0.57,0.49c-0.29-0.02-0.51-0.28-0.49-0.57c0.55-6.84,11.15-29.71,16.52-36.86
						C17.22,42.13,17.56,42.08,17.79,42.26z"/>
				</g>
				<g>
					<path style="&st1;" d="M76.93,59.04c6.9,9.03,23.95,21.55,31.45,23.1c0.29,0.06,0.47,0.34,0.41,0.63s-0.34,0.47-0.63,0.41
						c-7.68-1.59-25.07-14.32-32.08-23.49c-0.18-0.23-0.13-0.56,0.1-0.74S76.75,58.8,76.93,59.04z"/>
				</g>
			</g>
			<g>
				<path d="M59.65,177.96c0,0,21.97,5.29,53.21-13.24c3.71,1.32,6.35,3.18,4.24,5.29c-2.12,2.12-30.97,13.5-35.74,13.77
					C76.59,184.04,62.56,182.72,59.65,177.96z"/>
				<path d="M116.57,157.04c0,0-3.71,2.12-0.79,6.62c6.88,10.59,68.56,1.32,75.18-56.92c0,0-6.62,3.44-10.06,6.62
					c-10.85,38.12-33.88,42.36-57.45,41.56"/>
				<path d="M190.32,104.2c0,0-5.72-8.31-9.95-5.93c-5.03,5.82-33.62,35.47-75.18,34.41c4.77,2.38,6.35,2.12,7.41,3.97
					C113.66,138.51,149.82,137.29,190.32,104.2z"/>
				<path d="M158.61,87.15c-1.59-16.68-9.21-43.15-17.68-47.92c-1.06,1.32-0.79,3.71-0.79,3.71c8.74,11.38,14.56,33.62,13.77,38.12
					C156.28,83.18,158.61,87.15,158.61,87.15z"/>
				<path d="M120.01,153.87c2.65-14.83,5.29-30.18-7.68-48.18c-2.91-5.56-4.5-5.56-1.85-5.03s27.8,15.35,18.53,50.83
					C127.16,153.07,121.07,154.39,120.01,153.87z"/>
				<path d="M96.98,5.35c9.27-13.5,40.5,2.12,44.47,7.68c3.97,5.56,6.88,18-1.85,25.15c-8.74,7.15-23.56,8.21-29.91,1.85
					C100.42,31.83,92.74,12.24,96.98,5.35z"/>
				<g>
					<circle style="&st1;" cx="106.24" cy="4.03" r="2.38"/> 
					<circle style="&st1;" cx="112.86" cy="3.5" r="2.38"/> 
					<circle style="&st1;" cx="113.66" cy="9.59" r="2.38"/> 
					<circle style="&st1;" cx="108.36" cy="8.27" r="2.38"/> 
					<circle style="&st1;" cx="101.48" cy="9.06" r="2.38"/> 
					<circle style="&st1;" cx="99.62" cy="14.35" r="2.38"/> 
					<circle style="&st1;" cx="105.98" cy="13.83" r="2.38"/> 
					<circle style="&st1;" cx="101.21" cy="19.65" r="2.38"/> 
					<circle style="&st1;" cx="107.57" cy="19.38" r="2.38"/> 
					<circle style="&st1;" cx="104.12" cy="24.68" r="2.38"/> 
					<circle style="&st1;" cx="104.65" cy="31.3" r="2.38"/> 
					<circle style="&st1;" cx="109.95" cy="27.06" r="2.38"/> 
					<circle style="&st1;" cx="112.86" cy="22.3" r="2.38"/> 
					<circle style="&st1;" cx="113.39" cy="17" r="2.38"/> 
					<circle style="&st1;" cx="118.16" cy="13.56" r="2.38"/> 
					<circle style="&st1;" cx="121.6" cy="9.33" r="2.38"/> 
					<circle style="&st1;" cx="117.36" cy="6.41" r="2.38"/> 
					<circle style="&st1;" cx="122.13" cy="3.24" r="2.38"/> 
					<circle style="&st1;" cx="129.01" cy="5.88" r="2.38"/> 
					<circle style="&st1;" cx="126.1" cy="12.24" r="2.38"/> 
					<circle style="&st1;" cx="122.39" cy="17" r="2.38"/> 
					<circle style="&st1;" cx="118.68" cy="21.5" r="2.38"/> 
					<circle style="&st1;" cx="115.24" cy="26.8" r="2.38"/> 
					<circle style="&st1;" cx="112.6" cy="32.09" r="2.38"/> 
					<circle style="&st1;" cx="111.54" cy="37.39" r="2.38"/> 
					<circle style="&st1;" cx="121.86" cy="42.68" r="2.38"/> 
					<circle style="&st1;" cx="127.95" cy="41.36" r="2.38"/> 
					<circle style="&st1;" cx="116.3" cy="39.77" r="2.38"/> 
					<circle style="&st1;" cx="121.07" cy="29.18" r="2.38"/> 
					<circle style="&st1;" cx="124.24" cy="25.74" r="2.38"/> 
					<circle style="&st1;" cx="116.83" cy="34.21" r="2.38"/> 
					<circle style="&st1;" cx="126.1" cy="21.5" r="2.38"/> 
					<circle style="&st1;" cx="130.33" cy="18.59" r="2.38"/> 
					<circle style="&st1;" cx="131.13" cy="10.91" r="2.38"/> 
					<circle style="&st1;" cx="136.16" cy="9.33" r="2.38"/> 
					<circle style="&st1;" cx="135.63" cy="16.21" r="2.38"/> 
					<circle style="&st1;" cx="141.72" cy="20.71" r="2.38"/> 
					<circle style="&st1;" cx="128.74" cy="27.59" r="2.38"/> 
					<circle style="&st1;" cx="137.22" cy="21.77" r="2.38"/> 
					<circle style="&st1;" cx="133.24" cy="24.41" r="2.38"/> 
					<circle style="&st1;" cx="142.25" cy="26.53" r="2.38"/> 
					<circle style="&st1;" cx="131.66" cy="32.89" r="2.38"/> 
					<circle style="&st1;" cx="125.57" cy="32.36" r="2.38"/> 
					<circle style="&st1;" cx="136.42" cy="28.92" r="2.38"/> 
					<circle style="&st1;" cx="140.39" cy="32.09" r="2.38"/> 
					<circle style="&st1;" cx="136.69" cy="36.06" r="2.38"/> 
					<circle style="&st1;" cx="132.98" cy="39.5" r="2.38"/> 
					<circle style="&st1;" cx="127.95" cy="36.33" r="2.38"/> 
					<circle style="&st1;" cx="122.13" cy="36.33" r="2.38"/> 
				</g>
				<path style="&st0;" d="M156.45,60.15c1.41-7.41,11.29-30,13.06-29.3c1.76,0.71,4.59,4.24,4.59,6.35
					c0,2.12-14.4,28.94-13.7,37.41c-2.82-6.35-3.24-14.12-3.24-14.12L156.45,60.15z"/>
				<path style="&st0;" d="M171.28,47.09c0,0,3.53-7.06,4.24-6.71c9.18,8.12,15.53,32.83,14.12,39.53
					C185.4,66.51,173.04,47.8,171.28,47.09z"/>
				<path style="&st0;" d="M122.21,58.74c0,0-9.53,1.06-13.77,0.35c-7.06,9.88-22.24,21.88-26.12,24
					C104.57,77.8,119.39,64.04,122.21,58.74z"/>
				<g>
					<path style="&st1;" d="M186.04,109.22c-6.78,35.78-30.62,52.58-70.85,49.94c-0.29-0.02-0.54,0.2-0.56,0.49
						c-0.02,0.29,0.2,0.54,0.49,0.56c40.86,2.69,65.07-14.4,71.96-50.8c0.05-0.29-0.13-0.56-0.42-0.62
						C186.37,108.75,186.1,108.94,186.04,109.22z"/>
				</g>
				<g>
					<path style="&st1;" d="M109.07,100.09c-0.17,0.24-0.11,0.57,0.13,0.74c20.36,14.29,18.18,41.18,13.93,51.97
						c-0.11,0.27,0.03,0.58,0.3,0.69s0.58-0.03,0.69-0.3c4.35-11.04,6.57-38.57-14.31-53.22
						C109.57,99.79,109.24,99.85,109.07,100.09z"/>
				</g>
				<g>
					<path style="&st1;" d="M185.38,99.3c-10.82,10.29-39.71,34.36-74.13,35.5c-0.29,0.01-0.52,0.25-0.51,0.55
						c0.01,0.29,0.25,0.52,0.55,0.51c34.79-1.16,63.91-25.42,74.82-35.79c0.21-0.2,0.22-0.54,0.02-0.75
						C185.93,99.11,185.59,99.1,185.38,99.3z"/>
				</g>
				<path d="M130.86,152.01c12.71-15.62,41.83-48.44-8.74-84.71c-3.44-1.32,1.06-8.21,4.77-7.15c3.71,1.06,27.8,18.27,33.88,35.74
					c1.59,4.24-0.53,13.77-1.85,14.83c-1.32,1.06-2.91,0.79-2.91,0.79s-0.53,20.12-18.27,40.5
					C135.1,153.6,130.86,152.01,130.86,152.01z"/>
				<g>
					<path style="&st1;" d="M122.76,62.36c-0.06,0.29,0.11,0.57,0.4,0.63c11.94,2.73,29.64,27.04,36.33,45.34
						c0.1,0.28,0.4,0.42,0.68,0.32c0.28-0.1,0.42-0.4,0.32-0.68c-6.92-18.94-24.63-43.16-37.09-46.01
						C123.11,61.9,122.82,62.08,122.76,62.36z"/>
				</g>
				<path style="&st2;" d="M156.06,112.35c-5.35-2.96-6.11-7.73-6.81-10.02"/>
				<path style="&st2;" d="M144.71,131.47c1.99-4.24,3.63-6.99,4.16-10.69"/>
				<path style="&st2;" d="M155.88,116.27c-0.79,3.44-3.31,12.71-4.24,14.43"/>
				<g>
					<path style="&st1;" d="M171.16,32.38c-1.59,3.18-9.02,19.64-13.53,33.43c-0.09,0.28,0.06,0.58,0.34,0.67
						c0.28,0.09,0.58-0.06,0.67-0.34c4.49-13.74,11.89-30.11,13.47-33.28c0.13-0.26,0.02-0.58-0.24-0.71S171.29,32.12,171.16,32.38z
						"/>
				</g>
				<g>
					<path style="&st1;" d="M173.17,42.26c-0.23,0.18-0.28,0.51-0.11,0.74c5.75,7.67,15.81,30.06,16.31,36.31
						c0.02,0.29,0.28,0.51,0.57,0.49c0.29-0.02,0.51-0.28,0.49-0.57c-0.55-6.84-11.15-29.71-16.52-36.86
						C173.73,42.13,173.4,42.08,173.17,42.26z"/>
				</g>
				<g>
					<path style="&st1;" d="M114.03,59.04c-6.9,9.03-23.95,21.55-31.45,23.1c-0.29,0.06-0.47,0.34-0.41,0.63
						c0.06,0.29,0.34,0.47,0.63,0.41c7.68-1.59,25.07-14.32,32.08-23.49c0.18-0.23,0.13-0.56-0.1-0.74S114.21,58.8,114.03,59.04z"/>
				</g>
			</g>
			<g>
				<path style="&st1;" d="M92.71,73.98l-3.28,2.72l0.69,0.8l3.25-2.69c1.39-1.12,2.16-1.73,3.31-3.1l-0.81-0.68
					C94.79,72.31,94.09,72.87,92.71,73.98z"/>
			</g>
			<g>
				<path style="&st1;" d="M93.45,79.54l0.35,1c3.83-1.33,7.18-3.24,8.55-4.15l-0.59-0.88C100.43,76.4,97.18,78.24,93.45,79.54z"/>
			</g>
			<g>
				<path style="&st1;" d="M93.62,180.05l0.35,1c4.05-1.43,11.14-4,13.11-5.12l-0.53-0.92C104.59,176.13,96.86,178.91,93.62,180.05z
					"/>
			</g>
			<g>
				<path style="&st1;" d="M82.09,175.58l0.12,1.05c4.93-0.55,12.39-2.45,15.84-4.58l-0.55-0.9
					C94.17,173.2,86.91,175.04,82.09,175.58z"/>
			</g>
		</g>
	</g>
</svg>
