<?xml version="1.0" encoding="iso-8859-1"?>
<!-- Generator: Adobe Illustrator 11 Build 196, SVG Export Plug-In . SVG Version: 6.0.0 Build 78)  -->
<!DOCTYPE svg PUBLIC "-//W3C//DTD SVG 1.0//EN"    "http://www.w3.org/TR/2001/REC-SVG-20010904/DTD/svg10.dtd" [
	<!ENTITY ns_flows "http://ns.adobe.com/Flows/1.0/">
	<!ENTITY ns_svg "http://www.w3.org/2000/svg">
	<!ENTITY ns_xlink "http://www.w3.org/1999/xlink">
	<!ENTITY st0 "fill:none;stroke:#000000;stroke-linecap:round;stroke-linejoin:round;">
]>
<svg  xmlns="&ns_svg;" xmlns:xlink="&ns_xlink;" xmlns:a="http://ns.adobe.com/AdobeSVGViewerExtensions/3.0/"
	 width="189.96" height="179.11" viewBox="0 0 189.96 179.11" style="overflow:visible;enable-background:new 0 0 189.96 179.11"
	 xml:space="preserve">
	<g id="Pfade">
		<path style="&st0;" d="M12.88,155.39c-4.13,5.16-7.57,9.83-9.9,13.62c-1.77,2.88-1,6.72,1.74,8.59c2.74,1.87,6.39,1.05,8.17-1.83
			c2.02-3.28,5.02-7.36,8.65-11.92"/>
		<path style="&st0;" d="M121.04,112.59c4.15,3.92,8.78,8.43,13.72,13.42c10.9,11.01,30.89,32.05,42.28,49.34
			c1.86,2.82,5.54,3.52,8.22,1.56c2.68-1.96,3.34-5.83,1.49-8.65c-11.98-18.17-32.59-39.89-43.81-51.22
			c-5.76-5.82-11.79-11.73-16.99-16.57"/>
		<path style="&st0;" d="M115.8,91.54c-1.93-1.63-4.01-3.38-5.39-4.39l-1.15-0.87c-4.97-3.77-17.77-13.5-36.45-17.73
			c-3.76-0.85-7.76-1.48-11.98-1.79"/>
		<path style="&st0;" d="M64.06,79.57c2.26,0.3,4.44,0.7,6.54,1.17c15.99,3.65,26.93,11.96,31.75,15.62l1.31,0.98
			c1.74,1.28,4.41,3.47,7.79,6.45"/>
		<path style="&st0;" d="M48.52,66.96C18.57,71.05,0.5,103.69,0.5,121.99c0,20.45,16.56,50.04,46.52,50.04
			c15.18,0,30.14-8.76,42.66-19.77"/>
		<path style="&st0;" d="M81.52,143.27c-10.47,9.14-22.65,16.34-34.5,16.34c-23.11,0-34.71-24.11-34.71-37.61
			c0-11.94,13.62-40.39,38.94-42.86"/>
		<path style="&st0;" d="M81.24,84.67c-0.95,0.74-1.8,1.42-2.57,2.03l-3,2.32c-3.59,2.52-18.57,17.19-34.3,33.97
			c-6.93,7.39-14,15.2-20.31,22.55"/>
		<path style="&st0;" d="M29.69,154.04c6.29-7.32,13.43-15.19,20.39-22.61c15.02-16.02,29.2-30,32.14-32.07l3.58-2.75
			c2.02-1.6,4.55-3.62,7.62-5.76"/>
		<path style="&st0;" d="M119.62,78.7c-0.39,1.68-0.8,3.35-1.24,5.01c-3.4,12.92-8.02,24.57-12.38,31.32
			c-3.5,5.42-8.87,12.52-15.4,19.47"/>
		<path style="&st0;" d="M69.06,94.69c-1.07-2.75-2.05-5.41-2.93-7.98c-4.93-14.27-7.15-25.95-7.15-36.79c0-17.93,10.86-37,30.98-37
			c19.12,0,33.54,15.26,33.54,35.5c0,5.21-0.46,10.78-1.27,16.44"/>
		<path style="&st0;" d="M132.18,76.43c-0.65,3.21-1.38,6.43-2.19,9.6c-3.6,14.1-8.69,27.4-14.23,35.97
			c-4.06,6.28-9.95,14.04-17.08,21.55"/>
		<path style="&st0;" d="M59.78,103.53c-1.5-3.7-2.86-7.24-4.08-10.67c-5.9-16.57-8.54-30.14-8.54-42.95
			c0-12.75,4.04-24.82,11.36-33.99C66.49,5.98,77.65,0.5,89.96,0.5c25.85,0,45.35,20.6,45.35,47.92c0,4.67-0.35,9.75-1.01,15.02"/>
		<path style="&st0;" d="M167.81,143.62c6.2-8.08,9.84-18,9.84-27.42c0-21.11-18.12-40.33-38.01-40.33
			c-13.67,0-24.87,3.39-33.73,7.63"/>
		<path style="&st0;" d="M74.17,107c0.77,1.75,1.57,3.54,2.4,5.36c10.95,24.05,33.39,48.32,58.81,48.32c8.92,0,17-3.19,23.66-8.27"
			/>
		<path style="&st0;" d="M175.67,152.96c8.79-10.62,13.79-23.87,13.79-36.76c0-13.41-5.55-26.9-15.24-37.02
			c-9.57-10-22.18-15.74-34.58-15.74c-19.48,0-34.72,6.14-45.61,12.49"/>
		<path style="&st0;" d="M65.16,116.06c0.25,0.55,0.5,1.11,0.75,1.67c12.55,27.56,38.9,55.38,69.46,55.38
			c11.26,0,22.15-3.99,31.42-11.39"/>
	</g>
</svg>
