<?xml version="1.0" encoding="iso-8859-1"?>
<!-- Generator: Adobe Illustrator 11 Build 196, SVG Export Plug-In . SVG Version: 6.0.0 Build 78)  -->
<!DOCTYPE svg PUBLIC "-//W3C//DTD SVG 1.0//EN"    "http://www.w3.org/TR/2001/REC-SVG-20010904/DTD/svg10.dtd" [
	<!ENTITY ns_flows "http://ns.adobe.com/Flows/1.0/">
	<!ENTITY ns_svg "http://www.w3.org/2000/svg">
	<!ENTITY ns_xlink "http://www.w3.org/1999/xlink">
	<!ENTITY st0 "fill:none;stroke:#000000;stroke-width:2;stroke-linecap:round;stroke-linejoin:round;">
	<!ENTITY st1 "stroke:#000000;stroke-width:2;stroke-linecap:round;stroke-linejoin:round;">
]>
<svg  xmlns="&ns_svg;" xmlns:xlink="&ns_xlink;" xmlns:a="http://ns.adobe.com/AdobeSVGViewerExtensions/3.0/"
	 width="295.99" height="278.64" viewBox="0 0 295.99 278.64" style="overflow:visible;enable-background:new 0 0 295.99 278.64"
	 xml:space="preserve">
	<g id="Pfade">
		<path style="&st1;" d="M209.55,233.77c-0.5-18.88,1.78-37.93,16-54c5-5,8-11,10-18c3-9,1-19,4-29c1-5,8-4,12-4c11,0,22-1,32-4
			c8-2,13-12,11-21c-5-18-24-11-37-15c-5,5-7.75,12.12-9,19c13.75,0.87,17-2,25-3c1,0,1,2,1,3c-2,3-10.25,2.37-12.25,3.37
			c-0.25,3.5,0,9.75-0.75,15.13c-4,0.12-10,0.37-15,0.5c-1.5-7.88-1.25-11-1.5-18.63c-0.19-5.76,2.75-13.75,8.25-20.25
			c-11.25-9.25-18.75-30.12-18.75-46.12c-1.01,2.26-3.81,3.82-6.4,2.9c-0.03,1.83-2.18,4.04-5.65,3.88
			c-1.01,2.32-2.39,3.56-4.03,3.51c7.07,13.66,11.16,29.08,12.08,44.71c-41,3-82-1-122-6c2.61,1.04,6.7,2.59,8.92,4.37
			c-3.11,0.58-5.65,0-9.42,0.63c2.94,0.92,7,1.5,10,3.5c-2.96,0.79-6.01,0.63-10.5,1.5c3,0,6.49,0.9,10,2c-3.62,2-7,2-11,3
			c4,0,7.82,1.1,11,2c-3,2-6,2.5-9,3.5c4.38,0.69,7.04,0.47,10.5,2c-3,2-7.5,3-10.5,3c4.93,0.89,9.2,0.84,11.5,2
			c-3.41,2.71-8,3-11,4c3,0,6.87,0.54,10.5,1.5c-3,2-6,3-10,4c5.37,0.35,8.03-0.64,12,0c-3,2-7,4-10,6c4,0,6.58-1.33,11-1
			c-3,2-7.5,5-10.5,7c2,0,6.64-1.46,10.5-2c-1.54,2.31-7,6-9,8c2-1,5.14-2.48,8-3c-0.87,1.84-2.97,4.83-5,8
			c2.8-2.61,4.79-3.71,7.5-5c-0.49,2.72-3.02,6.74-4.37,9.14c8-7,14.89-16.6,20.37-26.14c0.75,2.12,1,5.82,1,4.5
			c6.5-10,21.38-24.5,28.5-12.5c4.82,8.11,8,17,7,27c-1,8-1.88,16.09-6.94,22.69c-1.48,1.92-2.99,4.02-3.67,5.54
			s-5.04,11.59-8.39,13.77c6-4,7.69-12.19,12.69-17.19c-0.38,3.69-1.69,6.19-2.69,9.19c2-2,3.61-4.83,5.61-6.83
			c0.49,3.61-0.73,5.8-1.61,8.83c2-2,4.19-5.31,6.19-7.31c-0.29,3.75-0.58,6.73-1.19,10.31c1.19-2.91,3.09-7.38,5.04-8.99
			c0.1,3.28-1.18,7.97-1.54,11.49c2-3,4-5.5,6-8.5c-0.17,3.34-0.95,7.09-1.44,10.75c1.07-2.44,3.91-6.9,4.87-8.53
			c0.39,2.49-1.07,7.72-1.07,10.72c1.41-3.17,3.16-6.53,5.13-8.44c-0.22,4.1-0.7,7.22-1,10.5c1-3,2.54-5.86,4-9
			c0.49,3.92,0.79,6.7,1,11c1-4,2.32-6.02,4-9.5c0.27,5.29,0,7.5,0,11.5c1.44-2.94,3.19-7.18,4.5-9c0.45,3.87-0.33,7.04-0.5,11
			c1.92-2.99,3.07-6.2,4-7.5c0.86,2.61,0,5.5,0,7.5C208.55,212.77,209.05,219.15,209.55,233.77z"/>
		<path style="&st0;" d="M213.94,268.89c-2.88-9.25-3.64-23.35-4.38-35.12"/>
		<path style="&st0;" d="M147.05,178.27c-4.38,1.5-5.12,5.81-4.5,8.5c1.24,5.33,10,6,15,3"/>
		<path style="&st0;" d="M145.47,230.56c-6.87,12.08-18.64,23.38-30.5,30.5c-14.07,8.04-29.36,16.3-45.97,16.57
			c-14.93,0.24-34.39-6.64-30.85-24.63c1.38-7.04-0.62-14.07-6.27-18.5c-3.98-3.12-10.05-10.51-3.41-14.94
			c-12.13-3.2-5.71-12.04-7.5-21c-3.4-6.81-10.64-6.21-16.38-10.25c-7.14-5.03-1.87-12.36,0.65-18.5
			c4.23-10.28,8.01-20.99,11.66-31.47c3.03-8.69-2.65-16.73-3.79-25.2c-1.14-8.4,1-18.05,3.18-26.12
			c4.62-17.1,13.51-32.98,24.94-46.45C63.34,14.5,92.23,1.35,126.28,1.01c34.52-0.35,66.81,12.23,86.38,41.62
			c2.05,3.07,3.97,6.23,5.81,9.44"/>
		<path style="&st0;" d="M53.97,220.06c-8,2-17.5-2.5-25.5-0.5"/>
		<path style="&st1;" d="M27.65,109.67c1.38,0.19,2.92,0.19,4.32-0.29c8-2.74,12.58-6.76,19.58-10.61c5.88-3.23,14.83-4.9,18-2
			c0.92,0.84,0.17,2.63-1.93,3.13c-1.6,0.38-8.58-0.37-12.49,1.79c-5.25,2.89-13.86,7.67-20.58,10.58c-1.8,0.78-5.34,1.05-7.71-1.51
			C26.57,110.48,26.98,109.58,27.65,109.67z"/>
		<path style="&st0;" d="M51.55,127.77c8.29-2.07,14.5-1.38,23-1.5c-9.5,14.62-26,14.5-41,14.5
			C40.55,136.77,43.55,129.77,51.55,127.77z"/>
		<path style="&st0;" d="M37.55,176.77c3,4,1,9-3,11c-5.73,2.86-10,0-15-1"/>
		<path style="&st0;" d="M163.8,125.65c-0.62-2.38-3-3.62-5.25-2c-4.69,3.39-10,8.13-12,14.13c-2,4,5,7,3,12c-2,4-4.5,6-6.5,10"/>
		<path style="&st0;" d="M162.55,139.27c4,4,6.12,7.25,6,11.25c-0.16,5.1-3.5,10.38-7,13.25"/>
		<circle style="&st1;" cx="50.55" cy="134.9" r="5.5"/> 
	</g>
</svg>
