<?xml version="1.0" encoding="iso-8859-1"?>
<!-- Generator: Adobe Illustrator 11 Build 196, SVG Export Plug-In . SVG Version: 6.0.0 Build 78)  -->
<!DOCTYPE svg PUBLIC "-//W3C//DTD SVG 1.0//EN"    "http://www.w3.org/TR/2001/REC-SVG-20010904/DTD/svg10.dtd" [
	<!ENTITY ns_flows "http://ns.adobe.com/Flows/1.0/">
	<!ENTITY ns_svg "http://www.w3.org/2000/svg">
	<!ENTITY ns_xlink "http://www.w3.org/1999/xlink">
	<!ENTITY st0 "fill:none;stroke:#000000;stroke-linecap:round;stroke-linejoin:round;">
	<!ENTITY st1 "fill:#FFFFFF;stroke:#000000;">
]>
<svg  xmlns="&ns_svg;" xmlns:xlink="&ns_xlink;" xmlns:a="http://ns.adobe.com/AdobeSVGViewerExtensions/3.0/"
	 width="79.8" height="291.5" viewBox="0 0 79.8 291.5" style="overflow:visible;enable-background:new 0 0 79.8 291.5"
	 xml:space="preserve">
	<g id="Pfade">
		<polyline style="&st0;" points="39.55,0.5 63.8,0.5 79.3,7.5 65.05,15.25 39.3,15.25 "/>
		<polyline style="&st0;" points="40.05,2.5 63.05,2.5 75.05,7 65.3,13 40.05,13 "/>
		<line style="&st0;" x1="62.3" y1="3" x2="62.05" y2="12.75"/>
		<line style="&st0;" x1="79.3" y1="10.25" x2="79.3" y2="7.5"/>
		<line style="&st0;" x1="64.55" y1="17.75" x2="76.3" y2="12"/>
		<line style="&st0;" x1="39.55" y1="17.75" x2="61.05" y2="17.75"/>
		<polyline style="&st0;" points="40.05,81.5 54.8,81.5 61.05,18 "/>
		<line style="&st0;" x1="34.3" y1="95.75" x2="50.55" y2="95.75"/>
		<polyline style="&st0;" points="40.05,85.5 54.3,85.5 50.55,95.75 "/>
		<path style="&st0;" d="M56.3,81.5"/>
		<line style="&st0;" x1="57.8" y1="81.5" x2="64.05" y2="18"/>
		<line style="&st0;" x1="58.3" y1="81.5" x2="64.55" y2="18"/>
		<line style="&st0;" x1="66.8" y1="76.75" x2="76.3" y2="12"/>
		<polyline style="&st0;" points="79.3,10.25 69.05,77 59.3,95.25 51.3,100.5 "/>
		<line style="&st0;" x1="66.8" y1="76.75" x2="58.3" y2="81.5"/>
		<line style="&st0;" x1="34.8" y1="98.25" x2="49.55" y2="98.25"/>
		<polyline style="&st0;" points="58.3,93 64.8,81 58.3,84.25 54.05,95.75 58.3,93 "/>
		<line style="&st1;" x1="43.05" y1="100.5" x2="51.3" y2="100.5"/>
		<path style="&st0;" d="M39.9,291c16.85,0,30.5-4.7,30.5-10.5"/>
		<path style="&st0;" d="M39.9,285c16.85,0,30.5-4.7,30.5-10.5c0-1.14-0.52-2.23-1.49-3.26"/>
		<line style="&st0;" x1="70.4" y1="280.5" x2="70.4" y2="274.5"/>
		<path style="&st0;" d="M39.9,282.55c15.32,0,27.74-4.28,27.74-9.55"/>
		<path style="&st0;" d="M39.9,277.05c15.32,0,27.74-4.28,27.74-9.55c0-1.73-1.33-3.35-3.67-4.75"/>
		<path style="&st0;" d="M39.9,274.98c13.29,0,24.06-3.71,24.06-8.28"/>
		<line style="&st0;" x1="67.64" y1="273" x2="67.64" y2="267.5"/>
		<path style="&st0;" d="M63.96,266.7L63.8,259c0-4.75-10-11.25-19.75-11.25v-134l6-12.75"/>
		<path style="&st0;" d="M61.86,270.2l-0.06-7.7c0-4.75-10.5-14.75-19-14.75"/>
		<path style="&st0;" d="M57.86,271.95l-0.06-7.7c0-4.75-8-16.5-15.25-16.5"/>
		<path style="&st0;" d="M53.86,273.2l-0.06-7.7c0-4.75-6-17.75-11.75-17.75"/>
		<path style="&st0;" d="M49.61,273.95l-0.06-7.7c0-4.75-1.5-18.5-8.5-18.5"/>
		<path style="&st0;" d="M45.86,273.95l-0.06-7.7c0-4.75-0.25-18.5-5.75-18.5"/>
		<path style="&st0;" d="M41.86,274.45l-0.06-7.7c0-4.75-0.8-19-2.25-19"/>
		<polyline style="&st0;" points="40.25,0.5 16,0.5 0.5,7.5 14.75,15.25 40.5,15.25 "/>
		<polyline style="&st0;" points="39.75,2.5 16.75,2.5 4.75,7 14.5,13 39.75,13 "/>
		<line style="&st0;" x1="17.5" y1="3" x2="17.75" y2="12.75"/>
		<line style="&st0;" x1="0.5" y1="10.25" x2="0.5" y2="7.5"/>
		<line style="&st0;" x1="15.25" y1="17.75" x2="3.5" y2="12"/>
		<line style="&st0;" x1="40.25" y1="17.75" x2="18.75" y2="17.75"/>
		<polyline style="&st0;" points="39.75,81.5 25,81.5 18.75,18 "/>
		<line style="&st0;" x1="45.5" y1="95.75" x2="29.25" y2="95.75"/>
		<polyline style="&st0;" points="39.75,85.5 25.5,85.5 29.25,95.75 "/>
		<path style="&st0;" d="M23.5,81.5"/>
		<line style="&st0;" x1="22" y1="81.5" x2="15.75" y2="18"/>
		<line style="&st0;" x1="21.5" y1="81.5" x2="15.25" y2="18"/>
		<line style="&st0;" x1="13" y1="76.75" x2="3.5" y2="12"/>
		<polyline style="&st0;" points="0.5,10.25 10.75,77 20.5,95.25 28.5,100.5 "/>
		<line style="&st0;" x1="13" y1="76.75" x2="21.5" y2="81.5"/>
		<line style="&st0;" x1="45" y1="98.25" x2="30.25" y2="98.25"/>
		<polyline style="&st0;" points="21.5,93 15,81 21.5,84.25 25.75,95.75 21.5,93 "/>
		<line style="&st1;" x1="43.05" y1="100.5" x2="28.5" y2="100.5"/>
		<path style="&st0;" d="M39.9,291c-16.85,0-30.5-4.7-30.5-10.5"/>
		<path style="&st0;" d="M39.9,285c-16.85,0-30.5-4.7-30.5-10.5c0-1.14,0.52-2.23,1.49-3.26"/>
		<line style="&st0;" x1="9.4" y1="280.5" x2="9.4" y2="274.5"/>
		<path style="&st0;" d="M39.9,282.55c-15.32,0-27.74-4.28-27.74-9.55"/>
		<path style="&st0;" d="M39.9,277.05c-15.32,0-27.74-4.28-27.74-9.55c0-1.73,1.33-3.35,3.67-4.75"/>
		<path style="&st0;" d="M39.9,274.98c-13.29,0-24.06-3.71-24.06-8.28"/>
		<line style="&st0;" x1="12.16" y1="273" x2="12.16" y2="267.5"/>
		<path style="&st0;" d="M15.84,266.7L16,259c0-4.75,10-11.25,19.75-11.25v-134l-6-12.75"/>
		<path style="&st0;" d="M17.94,270.2l0.06-7.7c0-4.75,10.5-14.75,19-14.75"/>
		<path style="&st0;" d="M21.94,271.95l0.06-7.7c0-4.75,8-16.5,15.25-16.5"/>
		<path style="&st0;" d="M25.94,273.2l0.06-7.7c0-4.75,6-17.75,11.75-17.75"/>
		<path style="&st0;" d="M30.19,273.95l0.06-7.7c0-4.75,1.5-18.5,8.5-18.5"/>
		<path style="&st0;" d="M33.94,273.95l0.06-7.7c0-4.75,0.25-18.5,5.75-18.5"/>
		<path style="&st0;" d="M37.3,274.25l0.06-7.7c0-4.75,0.55-18.5,2-18.5"/>
		<polyline style="&st0;" points="46.53,100.58 41.55,114.25 41.55,247.75 "/>
		<polyline style="&st0;" points="33.8,101 38.25,114.25 38.25,247.75 "/>
	</g>
</svg>
