<?xml version="1.0" encoding="iso-8859-1"?>
<!-- Generator: Adobe Illustrator 11 Build 196, SVG Export Plug-In . SVG Version: 6.0.0 Build 78)  -->
<!DOCTYPE svg PUBLIC "-//W3C//DTD SVG 1.0//EN"    "http://www.w3.org/TR/2001/REC-SVG-20010904/DTD/svg10.dtd" [
	<!ENTITY ns_flows "http://ns.adobe.com/Flows/1.0/">
	<!ENTITY ns_svg "http://www.w3.org/2000/svg">
	<!ENTITY ns_xlink "http://www.w3.org/1999/xlink">
	<!ENTITY st0 "fill:none;stroke:#000000;stroke-linecap:round;stroke-linejoin:round;stroke-miterlimit:2;">
]>
<svg  xmlns="&ns_svg;" xmlns:xlink="&ns_xlink;" xmlns:a="http://ns.adobe.com/AdobeSVGViewerExtensions/3.0/"
	 width="122.56" height="166" viewBox="0 0 122.56 166" style="overflow:visible;enable-background:new 0 0 122.56 166"
	 xml:space="preserve">
	<g id="Bild">
		<path style="&st0;" d="M51.25,20.25c-1.5,12-0.45,45.17,0.25,47.88"/>
		<path style="&st0;" d="M50.88,117.12c0,2-0.12,8.88-0.12,10.88c0,9.75,1.25,36.25,1.25,37.25"/>
		<path style="&st0;" d="M25,165.25c0-15.81-0.12-29.88-0.5-40.62c-0.18-5.1-0.62-14.5-0.62-16.5c1.5,9.25,18.62,9,27,9
			c4.75,0,8.07-0.5,12.12-0.62c3.94-0.12,7.25-0.12,11.12-0.25c5.72-0.18,15.94-4.5,15.88-8.06"/>
		<path style="&st0;" d="M90,74.25c6.75-0.75,13.5-5.62,16.75-9.12c2.39-2.58,4.5-4.88,7.25-11.62"/>
		<path style="&st0;" d="M86.5,71.5c1.25-7.25,1.75-13.5-0.5-22"/>
		<path style="&st0;" d="M32.63,14.87c3.62,4.88,10.62,5.13,18.62,5.38c9,0.28,23.5-1.25,28.75-6.75"/>
		<path style="&st0;" d="M40.38,73.19c-0.62,4.25-1.19,7.82-1.5,9.69c-1.56,9.44,0.78,28.53-3.38,27.12
			C29.91,108.11,35.57,82.88,40.38,73.19z"/>
		<path style="&st0;" d="M38.88,82.88c1.38,0.12,2.83,0.23,4.31,0.33c6.38,0.44,13.18,0.71,16.82,0.54"/>
		<path style="&st0;" d="M96.5,99.38C97.25,106,97.63,117,99,122.5c3.02,12.09,5.5,27.88,16.12,37.25"/>
		<path style="&st0;" d="M89.5,165.5c-0.25-1.12,0.7-10.08,1-11.38"/>
		<path style="&st0;" d="M84,150.5c2.3,1.3,4.29,2.17,6.5,3.62c5.9,3.89,16.55,10.94,23.73,8.96c0.91-0.25,1.27-2.15,0.9-3.33
			c1.69-0.38,4.05-0.24,4.88-2.25c2-3.4,2.19-8.5,2-12c-1.71-32.02-0.75-67.25-8-92c-2.78-9.49-7.75-18.75-12.5-24.25
			C97.09,24.14,87.3,18.5,80,13.5c-1.06-3.5-3.44-6-6-8c-1.16-0.91-2.44-1.38-4-2c-8.7,4-19.58,5.17-28.75,4.25
			C38.75,7.5,38,6.5,36,5.5c-0.81,4.19-2.44,7.5-3.37,9.37c-4.84,5.21-11.88,8.63-16.88,15.38C9.94,38.1,7,47.94,4.75,57.75
			C-0.25,79.58-1.26,131.5,4,153.5c1.05,1.52,4.25,1.76,6.38,3c2.15,1.25,0.94,3.06,4.69,4.06"/>
		<path style="&st0;" d="M24.38,104.38c-0.25,1.38-0.44,3.3-0.5,3.75c-1.06,8.5-1.19,16.94-1.38,25.62
			c-0.19,8.94,1.38,14.06,0.5,17.75c-0.6,2.53-5.38,9.12-7.75,9c-1.46-0.08-1.98-1.67-2-3c-0.14-9.59,5.44-41.5,6.75-47
			c0.75-3.13,2-6.12,2.83-7.5"/>
		<path style="&st0;" d="M4.75,57.75C9.95,65.45,19.9,64.8,24,67.5c2.69,1.77,7.12,1.81,11,1c5.06,1,11.16-0.23,16.5-0.38
			c4-0.11,8.53,1.03,13,0.72"/>
		<path style="&st0;" d="M60,72.5c-1.4,5.76,1.38,11.38,5.75,20c2.86,5.64,1.88,17.62-0.5,17.88c-1.74,0.18-3.48-3-3.25-5.88
			c0.5-6.38,0.12-13.38-2-20.75C58.85,79.74,57.63,77.88,60,72.5c1.5-1.75,2.81-3.19,4.5-3.66c0.81-0.22,1.39-0.11,2.5-0.34
			c1.5-0.31,2.56-0.94,4-1c3.62-0.16,5.94,2.75,8.5,4.5c3.97,2.71,9,9.38,13,23.38c-0.48,0.71-1.36,1.61-2.53,2.61
			c-5.61,4.77-17.9,11.87-24.72,12.39"/>
		<path style="&st0;" d="M23,51.5c0.3,2.7,0.7,5.3,1,8c0.19,1.74,0.84,4.64,0,8c-0.56,2.25,0,4.44-0.62,7.88"/>
		<path style="&st0;" d="M35.5,110c-2.12,0-5.82-1.32-11.75-6.12c-10.5-8.5-3.75-20-0.38-28.5c1.27-3.19,7-5.5,11.62-6.88
			c2.62,1.38,4.81,1.44,6.69,2.44c-0.38,0.44-1,1.19-1.31,2.25"/>
		<path style="&st0;" d="M24.5,124.62C28,127.88,41.13,128,50.75,128c10.25,0,19.5-0.88,28.75-2c3.69-0.45,7.25-2.19,9.12-3.69"/>
		<path style="&st0;" d="M91,90.38c0.12-4.12,0.29-6.38,0-10.5c-0.12-1.75-0.25-4.25-1-5.62c-0.78-1.43-2-2.38-3.5-2.75
			c-2.17-0.54-4.75-0.25-7,0.5"/>
		<path style="&st0;" d="M90,108.19c0,2-1.94,20.38-2.44,22.31c-0.67,2.6-0.64,5.15-1.19,7.81c-0.88,4.25-3.56,11.25-2.38,12.19
			c4.04,3.19,4.99-7,6-11.75c0.81-3.81,0.62-7.25,0.38-10.62c-0.25-3.42-0.38-4.33-0.38-8.62C90,115.44,89.97,111.79,90,108.19
			c0.03-3.33,0.06-6.56-0.03-10.2"/>
		<path style="&st0;" d="M41.25,7.75C44,5.5,44,4,46.25,0.5"/>
		<path style="&st0;" d="M91,79.88c1,4.75,6.25,10.75,6.5,14.88"/>
		<path style="&st0;" d="M27,74.38c2.38-2.62,4.5-4.25,6.25-5.5"/>
		<path style="&st0;" d="M35,68.5c-1.92,2.34-3,4.5-3.75,6.25"/>
		<path style="&st0;" d="M37.69,69.38c-1.25,2.81-1.56,4.56-2.44,7"/>
		<path style="&st0;" d="M42.57,69.06c-1.12,3.5-1.01,10.39,0.62,14.14"/>
		<path style="&st0;" d="M64.5,68.84c0.06,2.44-0.62,4.09-0.37,6.66"/>
		<path style="&st0;" d="M72.63,72.38c-1.44-1.75-3.5-2.19-5.62-3.88"/>
	</g>
</svg>
