<?xml version="1.0" encoding="iso-8859-1"?>
<!-- Generator: Adobe Illustrator 11 Build 196, SVG Export Plug-In . SVG Version: 6.0.0 Build 78)  -->
<!DOCTYPE svg PUBLIC "-//W3C//DTD SVG 1.0//EN"    "http://www.w3.org/TR/2001/REC-SVG-20010904/DTD/svg10.dtd" [
	<!ENTITY ns_flows "http://ns.adobe.com/Flows/1.0/">
	<!ENTITY ns_svg "http://www.w3.org/2000/svg">
	<!ENTITY ns_xlink "http://www.w3.org/1999/xlink">
	<!ENTITY st0 "fill:#7A7A7A;">
	<!ENTITY st1 "fill:#4D4D4D;">
	<!ENTITY st2 "fill:#808080;">
	<!ENTITY st3 "fill:#898989;">
	<!ENTITY st4 "fill:#565656;">
	<!ENTITY st5 "fill:#999999;">
	<!ENTITY st6 "fill:#404040;">
	<!ENTITY st7 "fill:#424242;">
]>
<svg  xmlns="&ns_svg;" xmlns:xlink="&ns_xlink;" xmlns:a="http://ns.adobe.com/AdobeSVGViewerExtensions/3.0/"
	 width="123.34" height="232.05" viewBox="0 0 123.34 232.05" style="overflow:visible;enable-background:new 0 0 123.34 232.05"
	 xml:space="preserve">
	<g id="Layer_1">
		<g>
			<path style="&st3;" d="M46.8,140.47c0-1.88,0-56.25,4.12-68.63s4.88-17.62,4.88-20.62S52.05,41.1,50.18,39.6s-2.25-3,0-2.62
				s4.88,4.88,5.62,6.38s4.5,8.62,4.5,5.62c0-5.67-6.62-16.96-3.75-13.12c-1.12-1.5-1.12-3.38,0-3s4.12,7.5,4.88,9.75s1.88,3,1.88,3
				s-1.12-7.5-1.5-10.12s-1.5-4.5-0.38-4.5s2.62,3.38,2.62,5.62s0.75,7.12,0.75,7.12s1.5-9,1.5-10.88s1.5-4.88,2.25-3.75
				s0.38,4.88,0,6.75s-0.75,6.38-0.75,6.38s3.75-9,5.62-9.75s2.62,0.75,1.12,1.88s-4.12,6.38-4.12,7.88s-0.38,3.75-0.38,3.75
				s6.38-9,7.5-7.5s1.5,2.25,0,3.38s-3.75,3.38-4.12,4.5s-1.5,0.75-1.88,4.12s0.38,6,1.12,8.62s4.5,18.75,5.25,31.88
				s1.88,50.25,1.88,50.25l-19.88,5.62L46.8,140.47z"/>
			<path style="&st0;" d="M54.68,57.6c1.12-6.38,2.25-6,1.88-9s1.5-4.5,2.62-2.62s1.12,4.5,1.5,1.5s0.38-4.12,1.5-3
				s-0.38,3,1.12,1.12s1.12-3,3.38-3.38s3.38-1.5,3.38,1.12s2.25-0.38,2.25,1.88s-0.38,2.62-0.75,5.25s0.38,4.12-0.38,6
				s-6,4.5-9,3.38S54.68,57.6,54.68,57.6z"/>
			<g>
				<path style="&st2;" d="M110.79,18.88c7.62,9.14,11.54,21.32,11.54,37.84c0,27.71-33.72,68.06-42.84,81.11
					c9.11-13.04,43.85-52.16,43.85-79.87c0-16.52-4.94-31.17-12.55-40.31V18.88z"/>
				<path style="&st2;" d="M104.95,23c6.86,9.14,10.52,21.73,10.52,38.25c0,27.71-30.49,67.65-38.69,80.69
					c8.2-13.04,39.46-52.16,39.46-79.87c0-16.52-4.44-31.17-11.3-40.31V23z"/>
				<path style="&st2;" d="M98.32,25.89c6.17,9.14,8.93,23.38,8.93,39.9c0,27.71-26.9,66-34.28,79.05
					c7.38-13.04,35.52-52.16,35.52-79.87c0-16.52-4-31.17-10.17-40.31V25.89z"/>
				<path style="&st2;" d="M92.47,28.37c6.51,9.14,6.43,25.86,7.05,42.38c1.04,27.71-24.08,64.35-30.97,77.39
					c6.89-13.04,33.22-50.51,32.18-78.22c-0.62-16.52-1.79-33.64-8.31-42.79L92.47,28.37z"/>
				<path style="&st2;" d="M86.09,32.08c5.86,9.14,4.44,26.27,5,42.79c0.94,27.71-20.32,63.94-26.53,76.98
					c6.2-13.04,28.55-50.1,27.61-77.81c-0.56-16.52-0.26-34.06-6.13-43.2L86.09,32.08z"/>
				<path style="&st2;" d="M79.5,34.56c5.28,9.14,4.97,25.44,5.48,41.96c0.84,27.71-17.58,64.76-23.16,77.81
					c5.58-13.04,24.98-50.92,24.14-78.63c-0.5-16.52-1.22-33.23-6.49-42.38L79.5,34.56z"/>
				<path style="&st2;" d="M13.26,18.88C5.65,28.02,1.72,40.2,1.72,56.72c0,27.71,33.73,68.06,42.84,81.11
					C35.45,124.78,0.71,85.66,0.71,57.96c0-16.52,4.94-31.17,12.55-40.31V18.88z"/>
				<path style="&st2;" d="M19.09,23C12.24,32.15,8.57,44.74,8.57,61.25c0,27.71,30.49,67.65,38.69,80.69
					c-8.2-13.04-39.46-52.16-39.46-79.87c0-16.52,4.44-31.17,11.3-40.31V23z"/>
				<path style="&st2;" d="M25.72,25.89c-6.17,9.14-8.93,23.38-8.93,39.9c0,27.71,26.9,66,34.28,79.05
					c-7.38-13.04-35.52-52.16-35.52-79.87c0-16.52,4-31.17,10.17-40.31V25.89z"/>
				<path style="&st2;" d="M31.58,28.37c-6.51,9.14-6.43,25.86-7.05,42.38c-1.04,27.71,24.08,64.35,30.97,77.39
					c-6.89-13.04-33.22-50.51-32.18-78.22c0.62-16.52,1.79-33.64,8.31-42.79L31.58,28.37z"/>
				<path style="&st2;" d="M37.96,32.08c-5.86,9.14-4.44,26.27-5,42.79c-0.94,27.71,20.32,63.94,26.52,76.98
					c-6.2-13.04-28.55-50.1-27.61-77.81c0.56-16.52,0.27-34.06,6.13-43.2L37.96,32.08z"/>
				<path style="&st2;" d="M44.55,34.56C39.27,43.7,39.58,60,39.07,76.52c-0.84,27.71,17.58,64.76,23.16,77.81
					c-5.58-13.04-24.99-50.92-24.14-78.63c0.5-16.52,1.21-33.23,6.49-42.38L44.55,34.56z"/>
				<path style="&st2;" d="M104.25,12.69c6.86,9.14,10.52,21.73,10.52,38.25c0,27.71-30.49,67.65-38.69,80.69
					c8.2-13.04,39.46-52.16,39.46-79.87c0-16.52-4.44-31.17-11.3-40.31V12.69z"/>
				<path style="&st2;" d="M97.61,10.63c6.17,9.14,8.93,23.38,8.93,39.9c0,27.71-26.9,66-34.28,79.05
					c7.38-13.04,35.52-52.16,35.52-79.87c0-16.52-4-31.17-10.17-40.31V10.63z"/>
				<path style="&st2;" d="M91.76,8.15c6.51,9.14,6.43,25.86,7.05,42.38c1.04,27.71-24.08,64.35-30.97,77.4
					c6.89-13.04,33.22-50.51,32.18-78.22c-0.62-16.52-1.79-33.65-8.31-42.79L91.76,8.15z"/>
				<path style="&st2;" d="M85.38,6.92c5.86,9.14,4.44,26.27,5,42.79c0.94,27.71-20.32,63.94-26.53,76.98
					c6.2-13.04,28.55-50.1,27.61-77.81c-0.56-16.52-0.26-34.06-6.13-43.2L85.38,6.92z"/>
				<path style="&st2;" d="M78.79,4.44c5.28,9.14,4.97,25.44,5.48,41.96c0.84,27.71-17.58,64.76-23.16,77.81
					c5.58-13.04,24.98-50.93,24.14-78.63c-0.5-16.52-1.22-33.23-6.49-42.38L78.79,4.44z"/>
				<path style="&st2;" d="M110.08,15.17c7.62,9.14,11.54,21.32,11.54,37.84c0,27.71-33.72,68.06-42.84,81.11
					c9.11-13.04,43.85-52.16,43.85-79.87c0-16.52-4.93-31.17-12.55-40.31V15.17z"/>
				<path style="&st2;" d="M12.55,15.17C4.94,24.31,1.01,36.49,1.01,53c0,27.71,33.72,68.06,42.84,81.11
					C34.74,121.07,0,81.95,0,54.24c0-16.52,4.94-31.17,12.55-40.31V15.17z"/>
				<path style="&st2;" d="M18.38,12.69C11.53,21.83,7.86,34.42,7.86,50.94c0,27.71,30.49,67.65,38.69,80.69
					c-8.2-13.04-39.46-52.16-39.46-79.87c0-16.52,4.44-31.17,11.3-40.31V12.69z"/>
				<path style="&st2;" d="M25.01,10.63c-6.17,9.14-8.93,23.38-8.93,39.9c0,27.71,26.9,66,34.28,79.05
					c-7.38-13.04-35.52-52.16-35.52-79.87c0-16.52,4-31.17,10.17-40.31V10.63z"/>
				<path style="&st2;" d="M30.87,8.15c-6.51,9.14-6.43,25.86-7.05,42.38c-1.04,27.71,24.08,64.35,30.97,77.4
					c-6.89-13.04-33.22-50.51-32.18-78.22c0.62-16.52,1.79-33.65,8.31-42.79L30.87,8.15z"/>
				<path style="&st2;" d="M37.25,6.92c-5.86,9.14-4.44,26.27-5,42.79c-0.94,27.71,20.32,63.94,26.52,76.98
					c-6.2-13.04-28.55-50.1-27.61-77.81c0.56-16.52,0.26-34.06,6.12-43.2L37.25,6.92z"/>
				<path style="&st2;" d="M43.84,4.44c-5.28,9.14-4.97,25.44-5.48,41.96c-0.84,27.71,17.58,64.76,23.16,77.81
					c-5.58-13.04-24.98-50.93-24.14-78.63c0.5-16.52,1.22-33.23,6.49-42.38L43.84,4.44z"/>
			</g>
			<g>
				<path style="&st5;" d="M62.08,48.43c0.29,29.09-0.93,51.56,0.56,66.68c-3.17-14.29-1.23-38.4-1.52-67.48
					C60.94,30.28,60.13,11.72,61.62,0C61.62,0,61.9,31.09,62.08,48.43z"/>
				<path style="&st5;" d="M72.04,2.64C77.31,11.78,76,28.09,76.5,44.6c0.84,27.71-10.16,58.99-15.74,72.03
					c5.58-13.04,17.56-45.15,16.72-72.86C76.98,27.26,77.27,10.55,72,1.4L72.04,2.64z"/>
				<path style="&st5;" d="M64.27,2.34c5.28,9.14,3.96,25.45,4.46,41.96c0.84,27.71-4.42,59.4-10,72.44
					c5.58-13.04,11.82-45.56,10.98-73.27c-0.5-16.52-0.2-33.23-5.48-42.38L64.27,2.34z"/>
				<path style="&st5;" d="M51.94,2.64c-5.28,9.14-3.96,25.45-4.46,41.96c-0.84,27.71,10.16,58.99,15.74,72.03
					c-5.58-13.04-17.56-45.15-16.72-72.86C47,27.26,46.7,10.55,51.98,1.4L51.94,2.64z"/>
				<path style="&st5;" d="M58.35,2.34c-5.28,9.14-3.96,25.45-4.46,41.96c-0.84,27.71,4.42,59.4,10,72.44
					c-5.58-13.04-11.82-45.56-10.98-73.27c0.5-16.52,0.2-33.23,5.48-42.38L58.35,2.34z"/>
				<path style="&st5;" d="M51.3,37.86C46.02,47,47.34,63.3,46.83,79.82c-0.84,27.71,10.16,58.99,15.74,72.03
					c-5.58-13.04-17.56-45.15-16.71-72.86c0.5-16.52,0.2-33.23,5.48-42.38L51.3,37.86z"/>
				<path style="&st5;" d="M59.06,39.5c-5.28,9.14-3.96,25.45-4.46,41.96c-0.84,27.71,4.42,59.4,10,72.44
					c-5.58-13.04-11.82-45.56-10.98-73.27c0.5-16.52,0.2-33.23,5.48-42.38L59.06,39.5z"/>
				<path style="&st5;" d="M72.75,37.86c5.28,9.14,3.96,25.44,4.46,41.96c0.84,27.71-10.16,58.99-15.74,72.03
					c5.58-13.04,17.56-45.15,16.72-72.86c-0.5-16.52-0.2-33.23-5.48-42.38L72.75,37.86z"/>
				<path style="&st5;" d="M64.99,39.5c5.28,9.14,3.96,25.45,4.46,41.96c0.84,27.71-4.42,59.4-10,72.44
					c5.58-13.04,11.82-45.56,10.98-73.27c-0.5-16.52-0.2-33.23-5.48-42.38L64.99,39.5z"/>
				<path style="&st5;" d="M63.04,90.13c0.29,29.09-0.93,51.56,0.56,66.68c-3.17-14.29-1.23-38.4-1.52-67.49
					C61.9,71.98,61.1,53.42,62.58,41.7C62.58,41.7,62.86,72.79,63.04,90.13z"/>
			</g>
			<path style="&st4;" d="M83.31,145.68c0.92,6.25,1.26,12.5,3.1,15.34c1.84,2.84,3.68,6.82,1.38,9.66
				c-2.3,2.84-3.94,7.96-3.94,11.36s0,41.48,0,41.48s-7.96,8.52-20.46,8.52s-20.46-8.52-20.46-8.52s0-38.07,0-41.48
				s-1.64-8.52-3.94-11.36c-2.3-2.84-0.46-6.82,1.38-9.66c1.84-2.84,2.18-9.09,3.1-15.34c0,0-3.25-5.39-4-7.64s1.12-1.5,5.25,0
				s9.38,3,17.25,3s11.25-0.75,15-2.25s9.38-5.25,9.75-2.62s-1.88,3.38-2.62,5.25S83.31,145.68,83.31,145.68z"/>
			<path style="&st1;" d="M63.02,232.05c12.5,0,20.46-8.52,20.46-8.52s0-38.07,0-41.48s1.64-8.52,3.94-11.36
				c2.3-2.84,0.46-6.82-1.38-9.66c-1.84-2.84-2.18-9.09-3.1-15.34c0,0,0.06-2.39,0.81-4.27s3-2.62,2.62-5.25s-6,1.12-9.75,2.62
				s-7.12,2.25-15,2.25c0,0-0.94,12.94,0.94,17.06s5.25,6.75,4.88,10.12s-3.38,7.5-4.12,12.75s-0.75,28.5-0.75,35.62
				S63.02,232.05,63.02,232.05z"/>
			<path style="&st6;" d="M88.31,166.86c0,7.1-11.15,12.86-24.91,12.86s-24.91-5.76-24.91-12.86c0,0,0.19-1.55,0.57-0.67
				c2.43,5.79,12.41,10.12,24.34,10.12c12.05,0,22.1-4.42,24.41-10.28C88.14,165.19,88.31,166.86,88.31,166.86z"/>
			<path style="&st7;" d="M49.59,149.68c-1.99-0.28-5-1.57-5.4-3.98c-0.57-3.41-5.71-4.24-4.7-7.66c1.01-3.42,10.1,2.55,14.65,2.55
				s17.83-0.65,21.59-1.71c3.76-1.05,10.19-5.15,10.63-2.72c0.45,2.43-2.68,2.72-3.25,5.56s0.57,8.24-1.14,8.81
				c-1.71,0.57-5.4,0.57-7.67-0.29c-2.27-0.85-6.53,0.85-9.38,0.57c-2.84-0.28-5.11-0.28-7.96-0.28
				C54.14,150.53,49.59,149.68,49.59,149.68z"/>
		</g>
	</g>
</svg>
