<?xml version="1.0" encoding="iso-8859-1"?>
<!-- Generator: Adobe Illustrator 11 Build 196, SVG Export Plug-In . SVG Version: 6.0.0 Build 78)  -->
<!DOCTYPE svg PUBLIC "-//W3C//DTD SVG 1.0//EN"    "http://www.w3.org/TR/2001/REC-SVG-20010904/DTD/svg10.dtd" [
	<!ENTITY ns_flows "http://ns.adobe.com/Flows/1.0/">
	<!ENTITY ns_svg "http://www.w3.org/2000/svg">
	<!ENTITY ns_xlink "http://www.w3.org/1999/xlink">
	<!ENTITY st0 "fill:url(#Schist);stroke:#000000;stroke-width:0.9321;">
	<!ENTITY st1 "fill:none;stroke:#000000;stroke-linecap:round;stroke-linejoin:round;">
	<!ENTITY st2 "fill:none;stroke:#000000;stroke-width:0.3;">
	<!ENTITY st3 "fill:#FFFFFF;">
	<!ENTITY st4 "fill:none;">
	<!ENTITY st5 "fill:none;stroke:#000000;stroke-width:0.3;stroke-linejoin:bevel;">
	<!ENTITY st6 "fill:none;stroke:#000000;stroke-width:0.3;stroke-linejoin:round;">
	<!ENTITY st7 "fill:url(#XMLID_1_);stroke:#000000;stroke-width:0.9321;">
	<!ENTITY st8 "fill:none;stroke:#000000;stroke-width:0.9321;">
]>
<svg  xmlns="&ns_svg;" xmlns:xlink="&ns_xlink;" xmlns:a="http://ns.adobe.com/AdobeSVGViewerExtensions/3.0/"
	 width="388.57" height="189.1" viewBox="0 0 388.57 189.1" style="overflow:visible;enable-background:new 0 0 388.57 189.1"
	 xml:space="preserve">
	<pattern  x="96.51" y="195.85" width="72" height="72" patternUnits="userSpaceOnUse" id="Gypsum" viewBox="28.86 -76.62 72 72">
		<g>
			<polygon style="&st4;" points="28.86-4.62 28.86-76.62 100.85-76.62 100.85-4.62 "/>
			<line style="&st3;" x1="5.11" y1="-10.62" x2="11.11" y2="-4.62"/>
			<line style="&st3;" x1="5.11" y1="-4.62" x2="11.11" y2="-10.62"/>
			<line style="&st6;" x1="21.37" y1="-66.11" x2="39.37" y2="-84.11"/>
			<line style="&st6;" x1="21.37" y1="-60.11" x2="45.37" y2="-84.11"/>
			<line style="&st6;" x1="21.37" y1="-54.11" x2="51.37" y2="-84.11"/>
			<line style="&st6;" x1="21.37" y1="-48.11" x2="57.37" y2="-84.11"/>
			<line style="&st6;" x1="21.37" y1="-42.11" x2="63.37" y2="-84.11"/>
			<line style="&st6;" x1="21.37" y1="-36.11" x2="69.37" y2="-84.11"/>
			<line style="&st6;" x1="21.37" y1="-30.11" x2="75.37" y2="-84.11"/>
			<line style="&st6;" x1="21.37" y1="-24.11" x2="81.37" y2="-84.11"/>
			<line style="&st6;" x1="21.37" y1="-18.11" x2="87.37" y2="-84.11"/>
			<line style="&st6;" x1="21.37" y1="-12.11" x2="93.37" y2="-84.11"/>
			<line style="&st6;" x1="21.37" y1="-6.11" x2="99.37" y2="-84.11"/>
			<line style="&st6;" x1="21.37" y1="-0.11" x2="105.37" y2="-84.11"/>
			<line style="&st6;" x1="27.37" y1="-0.11" x2="105.37" y2="-78.11"/>
			<line style="&st6;" x1="33.37" y1="-0.11" x2="105.37" y2="-72.11"/>
			<line style="&st6;" x1="39.37" y1="-0.11" x2="105.37" y2="-66.11"/>
			<line style="&st6;" x1="45.37" y1="-0.11" x2="105.37" y2="-60.11"/>
			<line style="&st6;" x1="51.37" y1="-0.11" x2="105.37" y2="-54.11"/>
			<line style="&st6;" x1="57.37" y1="-0.11" x2="105.37" y2="-48.11"/>
			<line style="&st6;" x1="63.37" y1="-0.11" x2="105.37" y2="-42.11"/>
			<line style="&st6;" x1="69.37" y1="-0.11" x2="105.37" y2="-36.11"/>
			<line style="&st6;" x1="75.37" y1="-0.11" x2="105.37" y2="-30.11"/>
			<line style="&st6;" x1="81.37" y1="-0.11" x2="105.37" y2="-24.11"/>
			<line style="&st6;" x1="87.37" y1="-0.11" x2="105.37" y2="-18.11"/>
			<line style="&st6;" x1="93.37" y1="-0.11" x2="105.37" y2="-12.11"/>
			<line style="&st5;" x1="0.11" y1="-63.12" x2="10.11" y2="-73.12"/>
		</g>
	</pattern>
	<pattern  x="96.51" y="195.85" width="72" height="72" patternUnits="userSpaceOnUse" id="Schist" viewBox="25.6 -81.82 72 72">
		<g>
			<polygon style="&st4;" points="25.6-9.82 25.6-81.82 97.6-81.82 97.6-9.82 "/>
			<line style="&st3;" x1="5.23" y1="-15.82" x2="11.23" y2="-9.82"/>
			<line style="&st3;" x1="5.23" y1="-9.82" x2="11.23" y2="-15.82"/>
			<path style="&st2;" d="M26.36-54.38c1.54-0.66,13.67-12.7,13.99-13.93"/>
			<path style="&st2;" d="M32.1-55.07c-1.5,0.75-12.75,14.25-13,15.5"/>
			<path style="&st2;" d="M26.35-34.07c1.5-2.5,18.75-21.75,20.75-23.5s3.25-8.75,4.25-10"/>
			<path style="&st2;" d="M43.6-57.82c-2.25,1-15.75,18-16,19.5s-9,7.75-10,7.75"/>
			<path style="&st2;" d="M33.6-33.07c0.55-0.48,1.76-1.79,3.25-3.47c3.92-4.42,9.77-11.37,10.5-12.28"/>
			<path style="&st2;" d="M39.6-33.19C37.96-30.79,26.7-21.9,24.6-20.27"/>
			<path style="&st2;" d="M82.35-18.07c-2.25,1-17.5,16.5-17.75,18"/>
			<path style="&st2;" d="M46.35-3.94c0.85-0.75,3.56-3.91,6.47-7.4c3.92-4.71,8.21-10,8.78-10.72"/>
			<path style="&st2;" d="M57.23-22.32c-1.33,0.59-6.87,6.57-11.22,11.67c-3,3.51-5.43,6.59-5.53,7.21"/>
			<path style="&st2;" d="M68.85-22.32c-1.22,0.54-6.43,6.1-10.97,11.31c-3.82,4.38-7.17,8.5-7.28,9.19"/>
			<path style="&st2;" d="M28.1-8.69c0.4-0.66,1.1-1.5,1.97-2.42c2.42-2.55,6.06-5.67,7.53-6.96c2-1.75,9.25-11.25,10.25-12.5"/>
			<path style="&st2;" d="M31.85-7.44c0.6-1.01,1.95-2.45,3.46-3.92c2.23-2.17,4.85-4.41,6.04-5.46c2-1.75,9.25-11.25,10.25-12.5"/>
			<path style="&st2;" d="M102.6-69.07c-0.82,0.36-3.36,2.65-6.27,5.48c-5.09,4.95-11.32,11.57-11.48,12.52
				c-0.25,1.5-6.5,7.5-7.5,7.5"/>
			<path style="&st2;" d="M95.67-51.83c-1-0.06-10.73,15.03-11.06,16.52c-0.34,1.48-6,5.75-6.25,5.75c-1,1.25-8.25,10.75-10.25,12.5
				c-0.83,0.72-3.22,3.14-5.86,5.91c-3.76,3.95-8.01,8.62-8.89,10.09"/>
			<path style="&st2;" d="M90.85-36.69c1.5-2.5,2.5-2,4.5-3.75c0.44-0.38,1.77-1.79,3.6-3.76"/>
			<path style="&st2;" d="M104.1-55.07c-1.5,0.75-12.75,14.25-13,15.5"/>
			<path style="&st2;" d="M99.6-38.32c-0.25,1.5-9,7.75-10,7.75"/>
			<path style="&st2;" d="M102.6-34.57c-0.64,0.32-4.43,3.84-8.61,7.89c-5.65,5.47-12,11.9-12.14,12.61
				c-0.73,0.64-3.16,2.94-6.02,5.73"/>
			<path style="&st2;" d="M99.99-22.95c-1.56,1.25-2.82,2.24-3.39,2.68c-2.1,1.63-11.49,14.51-12.56,15.7"/>
			<path style="&st2;" d="M102.85-77.82c-0.85,0.38-3.6,3.15-6.72,6.55c-5.18,5.65-11.38,13.01-11.53,13.95
				c-0.25,1.5-9,7.75-10,7.75"/>
			<path style="&st2;" d="M94.17-83c-3.29,3.35-5.97,6.32-6.07,6.93c-0.25,1.5-0.75,3.25-1.75,3.25"/>
			<path style="&st2;" d="M82.35-90.07c-2.25,1-17.5,16.5-17.75,18s-9,11.5-13,14"/>
			<path style="&st2;" d="M37.85-42.07c2.25-3.75,10.5-13.5,12.75-14.25"/>
			<path style="&st2;" d="M79.6-18.82c0,0,8-7,8.5-9.5"/>
			<path style="&st2;" d="M89.85-35.57c-1.25,1-7.5,7.5-7.25,8.75c-1.56,0.7-9.65,9.61-14.52,15.48c-2.13,2.57-3.65,4.56-3.73,5.02"
				/>
			<path style="&st2;" d="M64.85-22.32c1.5-1.5,17.19-12.76,19.19-19.01c1.07-1.19,10.46-14.07,12.56-15.7
				c0.59-0.46,1.92-1.5,3.55-2.81"/>
			<path style="&st2;" d="M83.85-72.32c-1,1.25-10.5,14.75-15.75,18.5s-10.5,13.5-14,14c-3.45,0.49-18.62,16.5-19.88,17.75
				c-2.25,1-13.62,12.25-13.88,13.75"/>
			<path style="&st2;" d="M42.1-33.32c1.25-1.75,11.5-11.5,14.5-13.5s20.44-25.26,27.44-29.76c1.07-1.19,10.46-14.07,12.56-15.7"/>
			<path style="&st2;" d="M42.35-37.57c2-2.25,6.25-8.75,9.5-11s7.25-5.5,8.5-6.75"/>
			<path style="&st2;" d="M51.1-52.07c2.5-2.25,11.5-8,14.25-12s15.25-15.75,17.5-16.5c0.32-0.53,1.36-1.77,2.82-3.41"/>
			<path style="&st2;" d="M53.1-33.32c2-2.5,21-20.88,25.75-25.38c1.5-2.5,7.5-7.62,9.5-9.38c1.21-1.06,4.33-4.94,6.84-8.13
				c1.64-2.09,3.02-3.88,3.41-4.37"/>
			<path style="&st2;" d="M59.6-25.07c2-2,10.5-6.5,12.75-9.75s4.25-6.75,5-7"/>
			<path style="&st2;" d="M65.35-33.32c2.25-2.75,10.25-13.75,14.5-15.75"/>
			<path style="&st2;" d="M63.1-37.57c1.25-1.5,7-9,9.25-10"/>
			<path style="&st2;" d="M62.6-33.44c-1.2,1.75-7.47,6.92-11.61,10.24c-1.56,1.25-2.82,2.24-3.39,2.68
				c-1.17,0.9-4.56,5.26-7.55,9.17c-2.4,3.14-4.53,6-5.01,6.53"/>
			<path style="&st2;" d="M30.6-34.57c-0.64,0.32-4.43,3.84-8.61,7.89"/>
			<path style="&st2;" d="M81.85-86.07c-0.73,0.64-3.16,2.94-6.02,5.73c-4.98,4.86-11.28,11.18-12.23,12.77"/>
			<path style="&st2;" d="M30.85-77.82c-0.85,0.38-3.6,3.15-6.72,6.55"/>
			<path style="&st2;" d="M82.85-8.57c0.32-0.53,1.36-1.77,2.82-3.41c2.67-3,6.74-7.35,10.37-11.15c3.74-3.91,7.01-7.24,7.81-7.94"
				/>
			<path style="&st2;" d="M38.35-76.07c-1,1.25-5.75,5.25-7.75,7c-0.82,0.36-3.36,2.65-6.27,5.48"/>
			<path style="&st2;" d="M23.19-76.19c1.64-2.09,3.02-3.88,3.41-4.37"/>
			<path style="&st2;" d="M24.04-23.12c3.74-3.91,7.01-7.24,7.81-7.94"/>
			<path style="&st2;" d="M28.1-80.69c0.4-0.66,1.1-1.5,1.97-2.42"/>
			<path style="&st2;" d="M31.85-79.44c0.6-1.01,1.95-2.45,3.46-3.92"/>
			<path style="&st2;" d="M40.05-83.35c-2.4,3.14-4.53,6-5.01,6.53"/>
			<path style="&st2;" d="M57.88-83.01c-3.82,4.38-7.17,8.51-7.28,9.19c-0.25,1.5-10.25,11.25-11.25,11.25"/>
			<path style="&st2;" d="M46.01-82.65c-3,3.51-5.43,6.6-5.53,7.21c-0.25,1.5-0.75,3.25-1.75,3.25"/>
			<path style="&st2;" d="M52.82-83.34c-2.91,3.49-5.62,6.66-6.47,7.4c-2,1.75-3,1.25-4.5,3.75"/>
			<path style="&st2;" d="M53.35-73.07c0.88-1.47,5.13-6.14,8.89-10.09"/>
			<path style="&st2;" d="M68.08-83.34c-2.13,2.57-3.65,4.56-3.73,5.02c-0.25,1.5-9.75,12.5-10.75,12.5"/>
			<path style="&st2;" d="M23.35-40.44c0.44-0.38,1.77-1.79,3.6-3.76c6.47-7,19.12-21.13,19.9-22.11"/>
			<path style="&st2;" d="M39.6-69.94c-1.18,1.73-7.31,6.79-11.46,10.12c-1.63,1.31-2.95,2.35-3.55,2.81"/>
			<path style="&st2;" d="M106.23-22.07c-1.33,0.59-7.32,6.23-12.05,11.07c-3.29,3.35-5.97,6.32-6.07,6.93"/>
			<path style="&st2;" d="M7.48-69.69c-0.85,0.38-3.91,9.57-7.38,12.38"/>
		</g>
	</pattern>
	<g id="Layer_1">
		
			<image style="display:none;" width="315" height="282" id="XMLID_2_" xlink:href="E11F3030.jpg"  transform="matrix(1 0 0 1 345.0146 -22.6504)"/>
		<g>
			<ellipse style="&st1;" cx="90.02" cy="54.96" rx="43.16" ry="14.74"/> 
			<path style="&st1;" d="M46.86,127.95c0,8.14,19.32,14.74,43.16,14.74s43.16-6.6,43.16-14.74"/>
			<ellipse style="&st1;" cx="90.02" cy="54.96" rx="32.17" ry="10.99"/> 
			<path style="&st1;" d="M120.93,57.9c-3.88-4.58-16.25-7.93-30.9-7.93c-14.68,0-27.06,3.36-30.92,7.95"/>
			<ellipse style="&st1;" cx="90.02" cy="59.02" rx="8.07" ry="2.75"/> 
			<path style="&st1;" d="M46.86,112.17c-20.74,4.73-34.05,12.79-34.05,21.95c0,14.56,34.57,26.37,77.21,26.37
				s77.21-11.81,77.21-26.37c0-9.05-13.36-17.04-33.71-21.79"/>
			<path style="&st1;" d="M46.82,108.3C18.91,113.48,0.5,123.57,0.5,135.18c0,16.88,40.08,30.57,89.52,30.57
				c49.44,0,89.52-13.69,89.52-30.57c0-11.49-18.55-21.5-45.98-26.72"/>
			<line style="&st1;" x1="133.18" y1="81.87" x2="133.18" y2="54.96"/>
			<path style="&st1;" d="M46.86,107.47v35.39c0,8.14,19.32,14.74,43.16,14.74s43.16-6.6,43.16-14.74l0-35.92"/>
			<line style="&st1;" x1="46.86" y1="54.96" x2="46.86" y2="80.64"/>
			<path style="&st1;" d="M21.52,166.61l2.92,7.39c11.11,8.6,36.29,14.6,65.58,14.6c29.29,0,54.47-6,65.58-14.6l2.92-7.39"/>
			<path style="&st1;" d="M0.5,135.18c0.63,10.94,8.75,22.24,20.91,31.31c15.53,7.17,40.48,11.83,68.61,11.83
				c28.13,0,53.08-4.65,68.61-11.83c12.15-9.07,20.27-20.37,20.91-31.31"/>
			<path style="&st1;" d="M46.52,81.17c4.24,4.59,11.3,11.3,15.18,12.36c-4.24,2.12-13.06,9.53-14.47,13.42
				c-3.88-3.18-3.53-2.83-5.65-4.94c0.35-4.94,0-13.06,0-16.24C44.4,83.29,42.99,83.64,46.52,81.17z"/>
			<path style="&st1;" d="M41.58,85.76c3.35,3.8,8.76,8.12,11.83,9c-2.38,1.9-7.5,7.47-8.3,10.94"/>
			<line style="&st1;" x1="53.4" y1="94.76" x2="61.7" y2="93.52"/>
			<path style="&st1;" d="M133.18,106.94c-1.94-3.18-8.11-9.89-13.49-13.24c5.65-3.35,10.5-8.3,13.5-11.83"/>
			<path style="&st1;" d="M136.83,98.93c-1.05,2.34-2.01,4.68-3.54,8.19"/>
			<path style="&st1;" d="M142.86,83.51c-1.52,0.47-2.47,1.14-2.47,1.89c0,1.41,3.34,2.54,7.45,2.54s7.45-1.14,7.45-2.54
				c0-0.7-0.83-1.34-2.18-1.8"/>
			<path style="&st1;" d="M153.14,78.35v6.53c0,0.97-2.3,1.75-5.13,1.75c-2.83,0-5.13-0.78-5.13-1.75v-6.53"/>
			<path style="&st1;" d="M155.69,3.04v72.73c0,1.48-3.51,2.68-7.85,2.68c-4.34,0-7.85-1.2-7.85-2.68V3.04"/>
			<path style="&st1;" d="M139.99,3.04c0,1.4,3.51,2.54,7.81,2.54s7.89-1.14,7.89-2.54S152.1,0.5,147.8,0.5S139.99,1.64,139.99,3.04
				z"/>
			<ellipse style="&st1;" cx="147.8" cy="3.04" rx="5.49" ry="1.79"/> 
			<line style="&st1;" x1="135.98" y1="87.52" x2="133.19" y2="81.87"/>
			<path style="&st1;" d="M155.29,85.41c-0.04,7.59-0.75,13.56-7.45,13.56c-5.29,0-8.58-0.02-13.19-0.02
				c-1.81-1.04-1.9-10.74,0-11.2l3.99-0.08c1.31,0.02,1.73-0.63,1.74-2.26"/>
		</g>
		<g>
			<path style="&st8;" d="M363.39,89.25c0,3.1-2.67,8.28-7.59,8.28c-6.55,0-33.8,0-33.8,0v-8.28h25.18v-7.76h16.21V89.25z"/>
			<polyline style="&st8;" points="350.97,81.32 350.97,7.42 359.25,7.42 359.25,81.15 "/>
			<polygon style="&st8;" points="360.28,6.56 360.28,75.97 363.04,75.97 363.04,4.83 347,4.83 347,75.97 349.76,75.97 349.76,6.56 
				"/>
			<pattern  id="XMLID_3_" xlink:href="#Gypsum" patternTransform="matrix(0 -1 1 0 259.7769 -16516.3594)">
			</pattern>
			<polygon style="fill:url(#XMLID_3_);stroke:#000000;stroke-width:0.9321;" points="286.81,171.17 286.81,134.09 289.57,132.2 
				289.57,89.08 293.37,85.63 297.16,89.08 297.16,132.2 299.92,134.09 299.92,171.17 "/>
			<line style="&st8;" x1="278.54" y1="174.62" x2="308.2" y2="174.62"/>
			<line style="&st8;" x1="260.77" y1="55.28" x2="326.31" y2="55.28"/>
			<g>
				<g>
					<path style="&st0;" d="M320.32,98.4l-0.05-10.01h22.42v-1.73l-4.83-2.76V55.28h-11.55c0,3.1-1.55,8.28-5.35,8.28h-21.04v67.61
						l37.94,1.72v-29.32l4.83-3.1v-2.07L320.32,98.4z"/>
					<path style="&st0;" d="M264.05,97.1l-0.09-7.33h-19.92v-3.1l4.83-2.76V55.28h11.55c0,3.1,1.55,8.28,5.35,8.28h21.04v67.61
						l-37.94,1.72v-29.32l-4.83-3.1v-3.45L264.05,97.1z"/>
				</g>
				<g>
					<g>
						<path style="&st0;" d="M242.32,180.83l0.69-2.76l35.53-3.45l7.59-9.31v-30.7h-36.22c0,0,0,7.93,0,10.35
							c0,2.42,0,2.76-2.07,2.76c-2.07,0-20.7,0-25.18,0s-7.24-3.79-7.24-8.97c-5.17,0-11.38,0-11.38,0
							c0,18.62,11.38,30.01,27.59,31.04c-2.41,4.48-3.1,11.04-3.1,11.04H242.32z"/>
					</g>
					<path style="&st0;" d="M344.42,180.83l-0.69-2.76l-35.53-3.45l-7.59-9.31v-30.7h36.22c0,0,0,7.93,0,10.35
						c0,2.42,0,2.76,2.07,2.76c2.07,0,20.7,0,25.18,0c4.49,0,7.25-3.79,7.25-8.97c5.17,0,11.38,0,11.38,0
						c0,18.62-11.38,30.01-27.59,31.04c2.41,4.48,3.1,11.04,3.1,11.04H344.42z"/>
				</g>
			</g>
			<line style="&st8;" x1="336.83" y1="138.75" x2="371.32" y2="138.75"/>
			<line style="&st8;" x1="215.41" y1="138.75" x2="249.91" y2="138.75"/>
			<line style="&st8;" x1="198.17" y1="180.83" x2="388.57" y2="180.83"/>
		</g>
	</g>
</svg>
