<?xml version="1.0" encoding="iso-8859-1"?>
<!-- Generator: Adobe Illustrator 11 Build 196, SVG Export Plug-In . SVG Version: 6.0.0 Build 78)  -->
<!DOCTYPE svg PUBLIC "-//W3C//DTD SVG 1.0//EN"    "http://www.w3.org/TR/2001/REC-SVG-20010904/DTD/svg10.dtd" [
	<!ENTITY ns_flows "http://ns.adobe.com/Flows/1.0/">
	<!ENTITY ns_svg "http://www.w3.org/2000/svg">
	<!ENTITY ns_xlink "http://www.w3.org/1999/xlink">
	<!ENTITY st0 "fill:none;stroke:#000000;stroke-linecap:round;stroke-linejoin:round;">
]>
<svg  xmlns="&ns_svg;" xmlns:xlink="&ns_xlink;" xmlns:a="http://ns.adobe.com/AdobeSVGViewerExtensions/3.0/"
	 width="112.5" height="181.18" viewBox="0 0 112.5 181.18" style="overflow:visible;enable-background:new 0 0 112.5 181.18"
	 xml:space="preserve">
	<g id="Pfade">
		<path style="&st0;" d="M57.47,2.48C75.43,3.08,89.5,8.65,89.5,15.43c0,7.18-15.78,13-35.25,13c-19.47,0-35.25-5.82-35.25-13
			C19,8.67,32.97,3.12,50.83,2.49"/>
		<path style="&st0;" d="M58.2,4.01c16.36,0.68,29.05,5.53,29.05,11.42c0,6.35-14.77,11-33,11s-33-4.65-33-11
			c0-5.88,12.68-10.73,29.03-11.42"/>
		<path style="&st0;" d="M58.82,6.53c14.59,0.7,26.13,4.73,28.13,9.82"/>
		<path style="&st0;" d="M21.65,16.13c2.24-4.98,13.65-8.9,28.01-9.59"/>
		<line style="&st0;" x1="19" y1="15.43" x2="19" y2="20.93"/>
		<path style="&st0;" d="M82.25,61.43l-7.75,112c0,4-9.07,7.25-20.25,7.25S34,177.43,34,173.43l-7.25-112"/>
		<ellipse style="&st0;" cx="54.25" cy="7.75" rx="4.5" ry="7.25"/> 
		<path style="&st0;" d="M0.5,17.43c0.5,3.5,3,3.75,4.25,6s2.34,7.99,4.75,11.5c2.75,4,5.5,6.75,9.5,7.75"/>
		<path style="&st0;" d="M21,24.18c-2.25-1.25-12.25-4.5-14.5-4.75s-6,0-6-2s4-3.25,6-3.25c2.25,0,10.75,0,12.5-0.75"/>
		<path style="&st0;" d="M20,21.43c-2.75-1.3-10.53-3.27-12.57-3.38S2,18.05,2,17.18s3.4-1.42,5.43-1.42s9.73,0,11.32-0.33"/>
		<path style="&st0;" d="M87.75,10.93c4.62-1.75,8.5-2.5,12.5-2.5c3.88,0,11.75,5,11.75,12.75"/>
		<path style="&st0;" d="M89,17.68c2.38-3.88,6.75-6.75,11-6.75c7.25,0,12,3,12,10.25c0,10.75-2.76,18.75-7,23.5
			c-6.25,7-15.12,14.62-23,23.75"/>
		<path style="&st0;" d="M108.75,20.93c0,11-3.44,16.02-6.12,19.38c-2.5,3.12-7.38,7.12-13.12,10.62"/>
		<path style="&st0;" d="M19,42.67v10.5c0,7.18,15.78,13,35.25,13c19.47,0,35.25-5.82,35.25-13v-26.5c0-5.75,6.25-13,10.75-13
			c5.62,0,8.5,2.62,8.5,7.25c0,7.75-1.5,16.5-5.5,21.75c-1.98,2.59-7.75,7.62-14,12.38"/>
	</g>
</svg>
