<?xml version="1.0" encoding="iso-8859-1"?>
<!-- Generator: Adobe Illustrator 11 Build 196, SVG Export Plug-In . SVG Version: 6.0.0 Build 78)  -->
<!DOCTYPE svg PUBLIC "-//W3C//DTD SVG 1.0//EN"    "http://www.w3.org/TR/2001/REC-SVG-20010904/DTD/svg10.dtd" [
	<!ENTITY ns_flows "http://ns.adobe.com/Flows/1.0/">
	<!ENTITY ns_svg "http://www.w3.org/2000/svg">
	<!ENTITY ns_xlink "http://www.w3.org/1999/xlink">
	<!ENTITY st0 "fill:none;stroke:#000000;stroke-linecap:round;stroke-linejoin:round;stroke-dasharray:6 2;">
	<!ENTITY st1 "fill:none;stroke:#000000;stroke-linecap:round;stroke-linejoin:round;">
	<!ENTITY st2 "stroke:#000000;stroke-linecap:round;stroke-linejoin:round;">
]>
<svg  xmlns="&ns_svg;" xmlns:xlink="&ns_xlink;" xmlns:a="http://ns.adobe.com/AdobeSVGViewerExtensions/3.0/"
	 width="311.32" height="113.28" viewBox="0 0 311.32 113.28" style="overflow:visible;enable-background:new 0 0 311.32 113.28"
	 xml:space="preserve">
	<g id="Pfade">
		<path style="&st1;" d="M128.87,106.55c34.48,2.08,66.1-5.65,84.75-11.22c31.99-9.55,64.81-28.25,83.08-51.51"/>
		<path style="&st1;" d="M128.87,106.55c-4.57,2.49-8.72,4.15-14.12,6.23c-27.42-8.31-66.44-29.25-77.27-36.14
			c-4.57-2.91-1.05-3.54-3.32-5.4c-9.14-7.48-27-30.74-33.65-41.54c1.15-1.44,1.66-2.08,2.91-3.74C12.55,38,31.24,56.28,41.63,63.76
			c-2.91,2.91-5.42,5.47-7.48,7.48"/>
		<path style="&st1;" d="M61.5,75.48c7.38,3.95,15.19,7.95,23.87,12.1c12.34,5.91,26.42,12.13,43.5,18.96"/>
		<path style="&st1;" d="M60.32,64.59c-4.99,0.83-14.54,0.42-18.69-0.83c-1.09-1.45-1.47-1.98-2.82-3.8
			c5.97-1.12,7.98-1.3,11.96-2.01C53.67,60.44,58.66,63.34,60.32,64.59z"/>
		<path style="&st1;" d="M56.3,61.1c9.2-1.08,58.44-9.2,82.25-12.45c34.58-4.72,70.89-11.36,92.53-18.94
			c13.57-4.75,40.31-18.13,52.22-28.41c-1.01-0.21-2.26-0.55-3.25-0.81c-11.91,10.28-38.65,23.12-52.22,27.87
			c-21.64,7.58-57.95,14.22-92.53,18.94c-23.81,3.25-73.05,11.36-82.25,12.45"/>
		<path style="&st2;" d="M0.5,29.69c2.36,3.41,4.93,7.2,7.37,10.44c1.35-1.35,2.71-2.71,4.06-3.92c-4.06-4.19-5.28-6.36-8.52-10.26
			C2.73,27.01,1.64,28.5,0.5,29.69z"/>
		<path style="&st1;" d="M3.41,25.96c8.46,10.83,25.78,27.28,35.4,34"/>
		<path style="&st1;" d="M60.32,64.59c0,1.57-0.4,0.14-0.4,2.09"/>
		<path style="&st1;" d="M58.03,65.06c30.53,3.91,61.05,5.87,104.1,4.7c44.92-1.22,67.3-6.38,85.99-14.68
			c22.07-9.81,49.85-28.52,60.24-47.21c0.94,0.27,1.58,0.47,2.46,0.6c-0.17,0.37-0.26,0.48-0.57,1.02
			c-10.64,18.55-38.17,37.4-60.24,47.21c-18.69,8.31-41.07,13.46-85.99,14.69c-43.05,1.17-73.57-0.78-104.1-4.7"/>
		<g>
			<polygon style="&st1;" points="53.7,70.14 60.69,71.47 61.06,69.34 54.14,68.02 "/>
		</g>
		<g>
			<polygon style="&st1;" points="71.43,73.16 79.42,74.21 79.68,72.06 71.73,71.02 "/>
		</g>
		<g>
			<polygon style="&st1;" points="89.58,75.31 97.59,76.02 97.77,73.86 89.79,73.15 "/>
		</g>
		<g>
			<polygon style="&st1;" points="104.5,76.53 113.32,77.05 113.43,74.88 104.64,74.37 "/>
		</g>
		<g>
			<polygon style="&st1;" points="125.52,77.53 135.15,77.71 135.17,75.55 125.58,75.36 "/>
		</g>
		<g>
			<polygon style="&st1;" points="149.75,75.5 149.79,77.66 159.69,77.39 159.61,75.23 "/>
		</g>
		<g>
			<polygon style="&st1;" points="175.68,74.4 175.82,76.56 185.73,75.84 185.55,73.68 "/>
		</g>
		<g>
			<polygon style="&st1;" points="201.08,72.11 201.35,74.25 209.33,73.16 209,71.02 "/>
		</g>
		<g>
			<polygon style="&st1;" points="221.59,68.76 222.04,70.88 228.83,69.29 228.3,67.2 "/>
		</g>
		<g>
			<polygon style="&st1;" points="238.42,64.2 239.12,66.24 244.31,64.33 243.51,62.32 "/>
		</g>
		<g>
			<polygon style="&st1;" points="250.2,59.4 251.11,61.36 255.4,59.28 254.43,57.34 "/>
		</g>
		<g>
			<polygon style="&st1;" points="260.82,53.98 261.87,55.88 264.36,54.49 263.29,52.6 "/>
		</g>
		<g>
			<polygon style="&st1;" points="267.67,50.04 268.79,51.89 270.7,50.73 269.57,48.89 "/>
		</g>
		<g>
			<polygon style="&st1;" points="274.37,45.82 275.56,47.63 277.36,46.44 276.15,44.64 "/>
		</g>
		<g>
			<polygon style="&st1;" points="280.45,41.66 281.71,43.42 283.45,42.16 282.17,40.42 "/>
		</g>
		<g>
			<polygon style="&st1;" points="285.83,37.65 287.16,39.36 288.92,37.97 287.57,36.28 "/>
		</g>
		<g>
			<polygon style="&st1;" points="291.47,33.05 292.88,34.69 295.42,32.46 293.96,30.85 "/>
		</g>
		<g>
			<polygon style="&st1;" points="297.48,27.53 299,29.07 300.38,27.69 298.83,26.18 "/>
		</g>
		<g>
			<polygon style="&st1;" points="303.55,20.96 305.21,22.35 307.55,19.37 305.82,18.08 "/>
		</g>
		<path style="&st1;" d="M41.63,63.76c2.49,2.49,8.19,7.64,10.8,9.97c25.76,5.4,70.58,8.45,110.5,6.23
			c44.87-2.49,67.3-6.65,85.99-14.96c22.07-9.81,49.85-28.25,60.24-46.94c0.54-3.79,1.19-5.93,1.66-9.6"/>
		<path style="&st1;" d="M308.19,20.52c-0.27,4.33-0.81,9.47-1.35,14.07"/>
		<path style="&st1;" d="M85.37,87.59c24.35,1.39,48.3,3.28,86.72,1.11c38.5-2.17,64.39-7.58,80.63-15.69
			c22.51-11.26,41.67-25.97,54.11-38.42"/>
		<path style="&st0;" d="M96.66,88.88c10.97,5.12,23.35,10.5,37.89,16.31"/>
		<path style="&st0;" d="M70.96,76.44c5.71,3.08,12.14,6.32,19.7,9.83"/>
		<path style="&st1;" d="M125.56,57.32c-6.22,1.35-45.45,7.58-52.76,8.93"/>
		<path style="&st1;" d="M125.56,50.55c0,1.62,0,5.68,0,6.76"/>
		<path style="&st1;" d="M83.89,64.62c1.08,1.62,1.62,2.43,2.71,3.25"/>
		<path style="&st1;" d="M90.95,63.7c1.61,2.41,2.41,3.61,4.02,4.82"/>
		<path style="&st1;" d="M97,62.51c2.41,3.22,3.61,4.83,6.02,6.44"/>
		<path style="&st1;" d="M102.95,61.7c2.98,3.63,4.47,5.44,7.46,7.25"/>
		<path style="&st1;" d="M108.51,60.56c1.89,1.62,10.01,8.12,11.36,9.2"/>
		<path style="&st1;" d="M115.28,59.48c1.89,1.62,13.53,9.2,14.88,10.28"/>
		<path style="&st1;" d="M122.31,58.13c1.89,1.62,17.04,10.82,18.4,11.9"/>
		<path style="&st1;" d="M125.83,56.78c1.89,1.62,22.19,11.91,23.54,12.99"/>
		<path style="&st1;" d="M125.56,50.55c11.63,6.76,25.43,14.61,34.36,19.21"/>
		<path style="&st1;" d="M150.72,53.53c9.6,5.51,20.32,11.81,27.33,15.42"/>
		<path style="&st1;" d="M157.21,52.45c9.6,5.51,21.68,12.35,28.68,15.96"/>
		<path style="&st1;" d="M195.36,49.2c11.23,4.21,25.36,9.42,33.55,12.17"/>
		<path style="&st1;" d="M130.7,49.68c12,6.98,26.23,15.07,35.44,19.81"/>
		<path style="&st1;" d="M157.21,52.45c-7.85,1.62-11.36,2.16-15.96,2.71"/>
		<path style="&st1;" d="M283.29,1.31c0,2.71,0,7.3,0,8.39"/>
		<path style="&st1;" d="M165.6,56.23c6.76-1.35,25.43-5.68,29.76-7.03"/>
		<path style="&st1;" d="M216.47,43.79c7.58-1.62,17.04-4.87,23.81-8.39"/>
		<path style="&st1;" d="M173.45,60.83c8.93-1.62,27.33-6.22,31.66-7.58"/>
		<path style="&st1;" d="M182.65,66.25c11.36-2.16,26.51-6.22,34.36-8.66"/>
		<path style="&st1;" d="M194.55,39.46c0,1.62,0,4.33,0,5.41"/>
		<path style="&st1;" d="M239.46,27.01c0,1.62,0,4.6,0,5.68"/>
		<path style="&st1;" d="M240.28,32.7c0,1.62,0,1.62,0,2.71"/>
		<path style="&st1;" d="M194.55,44.87c10.55,3.52,28.68,10.01,41.94,14.34"/>
		<path style="&st1;" d="M194.55,39.46c12.23,4.46,31.98,12.36,47.35,17.86"/>
		<path style="&st1;" d="M239.46,32.7c15.42,4.6,21.1,7.03,30.84,9.74"/>
		<path style="&st1;" d="M199.15,38.38c12.23,4.46,30.9,11.82,46.27,17.32"/>
		<path style="&st1;" d="M195.36,45.41c0,1.62,0,2.71,0,3.79"/>
		<path style="&st1;" d="M226.21,48.12c5.41-1.89,15.15-6.22,21.1-10.01"/>
		<path style="&st1;" d="M235.13,51.36c5.41-1.89,14.88-6.49,20.83-10.28"/>
		<path style="&st1;" d="M243.52,54.61c7.3-2.98,14.07-7.03,20.02-10.82"/>
		<path style="&st1;" d="M240.28,35.4c7.58,2.98,21.1,7.58,26.51,9.47"/>
		<path style="&st1;" d="M239.46,27.01c15.42,4.6,27.33,9.2,37.07,11.9"/>
		<path style="&st1;" d="M242.71,25.39c15.42,4.6,26.51,8.93,36.25,11.63"/>
		<path style="&st1;" d="M274.91,9.7c-2.44,8.12-9.74,12.72-21.92,18.67"/>
		<path style="&st1;" d="M276.53,8.08c6.76,1.62,23,4.06,28.14,5.14"/>
		<path style="&st1;" d="M274.91,9.7c6.76,1.62,23,4.06,28.14,5.14"/>
		<line style="&st1;" x1="276.53" y1="8.08" x2="274.91" y2="9.7"/>
		<path style="&st1;" d="M296.28,22.69c-3.52-0.81-23.54-5.41-25.43-5.95"/>
		<path style="&st1;" d="M293.03,25.39c-3.33-0.92-22.56-5.88-24.35-6.49"/>
		<path style="&st1;" d="M289.52,28.1c-3.37-0.96-22.27-5.85-24.08-6.49"/>
		<path style="&st1;" d="M287.08,31.07c-3.29-0.89-23.39-6.44-25.16-7.04"/>
		<path style="&st1;" d="M283.29,33.51c-3.52-1-23.54-6.64-25.43-7.3"/>
		<path style="&st0;" d="M304.92,32.68c-14.25,14.25-33.71,28.06-53.41,37.91c-16.57,8.29-42.6,13.33-79.57,15.41
			c-34.56,1.95-57.34,0.6-79.37-0.7l-7.04-0.41"/>
	</g>
</svg>
