<?xml version="1.0" encoding="iso-8859-1"?>
<!-- Generator: Adobe Illustrator 11 Build 196, SVG Export Plug-In . SVG Version: 6.0.0 Build 78)  -->
<!DOCTYPE svg PUBLIC "-//W3C//DTD SVG 1.0//EN"    "http://www.w3.org/TR/2001/REC-SVG-20010904/DTD/svg10.dtd" [
	<!ENTITY ns_flows "http://ns.adobe.com/Flows/1.0/">
	<!ENTITY ns_svg "http://www.w3.org/2000/svg">
	<!ENTITY ns_xlink "http://www.w3.org/1999/xlink">
	<!ENTITY st0 "fill:none;stroke:#000000;stroke-width:2;stroke-linecap:round;stroke-linejoin:round;">
	<!ENTITY st1 "stroke:#000000;stroke-width:2;stroke-linecap:round;stroke-linejoin:round;">
]>
<svg  xmlns="&ns_svg;" xmlns:xlink="&ns_xlink;" xmlns:a="http://ns.adobe.com/AdobeSVGViewerExtensions/3.0/"
	 width="383.9" height="308.92" viewBox="0 0 383.9 308.92" style="overflow:visible;enable-background:new 0 0 383.9 308.92"
	 xml:space="preserve">
	<g id="Pfade">
		<path style="&st0;" d="M200.24,61.92c0.15,4.52-3.34,7.77-4,12.33c-0.77,5.34-1.61,10.82-2.66,16
			c-0.89,4.37,0.62,11.78-3.66,13.68c-2.14,0.96-5.34,1.08-7.69,1.74c-7.02,1.98-14.22,5.33-20.41,9.17
			c-1.29,0.8-2.97,2.7-4.34,3.32c-2.68,1.21-2.35-0.33-4.16-2.01c-2.76-2.57-6.79-4.29-10.42-4.83c-6.08-0.91-6.76,4.11-1,4.93"/>
		<path style="&st0;" d="M205.24,66.59c-1.89,7.74-5.8,14.75-5,23.33"/>
		<path style="&st0;" d="M2.57,257.25c2.67,3.33,7.33,6.67,12.62,7.4c-0.34,4.97-6.99,3.42-9.95,1.93
			C3.34,265.64-1.47,258.73,2.57,257.25z"/>
		<path style="&st0;" d="M19.9,257.25c-0.42-0.2-0.78-0.52-1.23-0.69c5.72,1.11,13.8,2.83,19.3,1.09c0.5,0.01,0.64,0.08,1.21-0.02
			c-0.33,3.7-8.28,3.89-10.94,3.63c-2.08-0.2-12.61-0.32-9.67-4.01"/>
		<path style="&st0;" d="M33.57,249.92c-0.25-0.29-0.42-0.6-0.7-0.87c4.45,8.9,19.78,2.34,25.73-0.64
			c-2.96-3.82-8.78-0.91-12.44-0.57c-3.87,0.35-10.47,0.2-13.26,1.41"/>
		<path style="&st0;" d="M64.24,245.25c2.66,4.14,17.99,4.45,22.97,3.74c-3.24,2.85-7.5,4.26-12.32,3.62
			c-2.54-0.34-11.78-2.83-11.26-6.29c0.56-0.26,0.7-0.14,1.28-0.06"/>
		<path style="&st0;" d="M138.53,238.31c-1.09,4.3-10.84,5.55-14.55,5.2c-4.62-0.44-11.89-1.72-14.6-6.27
			C117.9,238.92,130.9,240.92,138.53,238.31z"/>
		<path style="&st0;" d="M201.57,106.92c-1.98,2.12-3.23,4.58-4.67,7"/>
		<path style="&st0;" d="M194.57,109.25c-0.22,5-13.33,7.67-23.33,9.67"/>
		<path style="&st0;" d="M189.24,58.59c2.06,0.31,3.36-5.22,7.88-8.7c6.45-4.97,21.45-3.63,24.2,4.96
			c2.59,8.1,0.58,18.74-4.46,28.65c-2.52,4.96-1.51,10.44-2.63,14.76c-2.08,8.04-5.67,14.33-13,18.42
			c-12.94,7.21-25.96,5.86-39.26,11.2c-6.74,2.71-14.74,4.05-23.94,3.99c-4.16-0.02-5.47-3.28-0.47-3.95"/>
		<path style="&st0;" d="M215.24,94.59c2.78,0.8,7.68-3.51,11-4.67"/>
		<path style="&st0;" d="M234.57,95.92c-5.04-3.74-19.31,1.63-21.67,7.33"/>
		<path style="&st0;" d="M222.57,59.59c6,16.33,11.41,24.66,25,32.67c12.73,7.49,14.93,25.39,6.58,36.58
			c-5.25,7.03-13.29,14.42-22.59,14.44c-7.47,0.02-16.19-2.66-18.4-9.61c-2.25-7.08-5.25-13.42-11.92-17"/>
		<path style="&st0;" d="M230.57,132.25c1.37-1.33,5.54-3.7,5.59-1c0.08,4-4.77,1.61-0.59,0.67"/>
		<path style="&st0;" d="M189.24,80.59c-2.35,2.6-2.16,5.79-5.33,7.67"/>
		<path style="&st0;" d="M183.24,105.25c-5.38,0.6-7.61-3.98-6.33-8.67"/>
		<path style="&st0;" d="M150.24,109.92c-0.69-4.59-2.66-8.4-5.92-11.42c-0.79-1.29-0.54-2.53-1.42-3.92
			c-3.33-5.33-12.67-0.33-15.19,2.66c-3.73,4.42,7.89,1.92,9.53-0.99"/>
		<path style="&st0;" d="M165.9,94.25c-2.44,1.32-0.82,6.33,0.68,7.92c1.76,1.86,5.44,3.17,6.82,5.17"/>
		<path style="&st0;" d="M149.9,107.92c6.5,0.02,12.78-2.81,19-3"/>
		<path style="&st0;" d="M247.57,92.25c5.33-3,8.25-7.54,12-8.74c4.15-1.33,10.63,0.6,14.67,2.16c11.33,4.38,3.36,16.07-3.6,19.98
			c-3.19,1.79-9.08,5.03-5.99,9.19c3.26,4.4,9.93,1.66,12.93,5.06c2.42,2.73,3.95,9.98,3.25,13.28c-1.02,4.8-3.02,7.44-7.58,9.74
			c-5.37,2.7-18.09,1.93-19.35,10"/>
		<path style="&st0;" d="M262.24,133.59c1.92-2.06,5.36-9.85,4.33-16"/>
		<path style="&st0;" d="M271.9,125.92c-0.31,3.12-0.3,6.52-2.33,9"/>
		<path style="&st0;" d="M261.9,105.92c2.82-7.51-10.1-11.59-11.67-15"/>
		<path style="&st0;" d="M280.9,91.25c2.92,4.54,2.48,15.33,5.07,17.98c7.88,8.06,9.15,1.74,16.93,4.69"/>
		<path style="&st0;" d="M262.24,90.92c0.39,3.62,6.95,5.46,6.33,10"/>
		<path style="&st0;" d="M375.9,249.92c-4.65,1.36-55.52,1.79-59.1,2.75c0.02-0.02,0.12-0.07-0.23,0.25"/>
		<path style="&st0;" d="M280.9,91.25c3.69-1.92,7.46-1.23,11.08,0.59c3.15,1.59,4.45,5.96,7.33,7.35
			c5.75,2.79,12.6-9.04,17.26-10.94"/>
		<path style="&st0;" d="M288.57,95.92c4.31,2.84-1.86,6.88,7.67,11.33"/>
		<path style="&st0;" d="M307.9,102.59c-2.18-1.21-6.62-2.37-8-2.33"/>
		<path style="&st0;" d="M315.9,89.25c-3.67,3.3-0.27,11.76-2.58,16.42c-1.36,2.75-2.66,3.66-6.08,3.25
			c-3.26-0.39-3.32-3.66-6.94-2.94c-2.11,4.53,3.42,8.84,5.87,12.02c3,3.88,6.35,7.54,7.4,12.19c1.96,8.71,1.39,20.83-8.73,24.67
			c-6.5,2.47-15.31,1.32-20.92-2.67c-5.71-4.07-13-6.83-19.87-5.91c0.04,0.04-0.14-0.19-0.16-0.19c0.07,0.07,0.14,0.14,0.21,0.21
			c-0.94-0.47-2.04-0.43-2.53-0.36"/>
		<path style="&st0;" d="M126.9,244.92c-0.08,4.05,6.93,5.97,9.67,5.98c4.8,0.02,8.31-1.79,12.62-3.39
			c-1.57-2.38-8.13,0.76-10.63,0.75c-3.11-0.01-10.27-1.08-11.66-1.67"/>
		<path style="&st0;" d="M63.57,260.59c-4.84,1.85-6.87,1.25-12,0.67c-5.47-0.62-8.06,0.03-9.26-5.63c0.16,0.05,0.26,0.06,0.24,0.12
			c6.74,2.02,12.75,4.8,20.02,5.84"/>
		<path style="&st0;" d="M54.57,252.92c-1.08,5.83,8.86,4.98,12.02,4.98c6.01,0,9.13-0.18,14.34-2.83
			c-0.07-0.01-0.27,0.26-0.37,0.01c0,0,0.04,0,0.04,0.01c-3.93-0.76-25.52,3.26-26.02-0.51"/>
		<path style="&st0;" d="M112.9,247.59c2.61,1.65,4.45,3.77,8.01,4.66c3.31,0.83,7.24,1.35,10.67,1.49
			c-5.26,5.79-18.02,1.38-19.02-5.15"/>
		<path style="&st0;" d="M86.24,250.92c2.07,2.19,5.64,4.01,8.67,4.59c3.26,0.63,6.38-0.67,9.35-1.09c-0.02,0.03-0.01-0.03,0-0.04
			c-2.82,6.07-22.32,4.18-19.35-1.8"/>
		<path style="&st0;" d="M137.24,256.59c4.31,6.22,10.06,13.33,18.33,13"/>
		<path style="&st0;" d="M157.57,273.25c-5.29-2.03-10.36-0.53-15.08-4.92c-2.53-2.35-8.5-8.18-8.53-11.7
			c1.42-0.19,2.9,0.11,3.95-0.05"/>
		<path style="&st0;" d="M86.9,258.59c-2.03,2.98-8.45,6.1-12.67,5c-7.29-1.91,9.8-6.76,10.33-7.33"/>
		<path style="&st0;" d="M119.9,256.25c-3.17-0.02-6.12-0.53-8.92-1.42c-2.35-0.74-5.26-2.85-6.6,0.38
			c-1.1,2.66,0.85,3.38,2.97,3.84c4.01,0.87,10.02-0.14,13.88-1.47"/>
		<path style="&st0;" d="M295.9,127.59c2.21,6.48,5.29,10.76,0.25,16.92c-5.16,6.31-11.17,2.61-17.25,5.08"/>
		<path style="&st0;" d="M308.57,124.25c-1.34,1.78-2.73,2.15-4.67,2.13c-2.69,1.96,1.59,3.87,2.39,5.81
			c3.31,0.23,2.6-2.02,5.19,1.07c1.27,1.51,3.59,4.08,2.75,5.99"/>
		<path style="&st0;" d="M287.9,143.59c1.79,2.13,9.85,2.77,6.93,6.96c-0.21,0.01-1.47-0.08-1.62-0.12c0.01,0,0.03,0,0.04,0.01
			c-0.8-1.02-1.67-1.77-2.96-1.79c-0.24,1.07-0.51,2.27-0.79,3.21c-3.3-0.35-2.61-2.76-0.64-4.19c-0.53-0.31-1.45-0.43-1.63-0.41"/>
		<path style="&st0;" d="M208.99,125.34c-6.75,1.92-9.3,10.06-9.99,12.75c-1,3.87-0.3,9.33,2.16,12.58
			c3.19,4.22,7.6,2.97,11.75,0.83c2.22-1.15,10.91-6.21,9,0.76c-0.67,2.44-8.6,6.29-3.67,8.67c2.57,1.24,9.18-1.56,11.33-2.33
			c4.26-1.52,5.14-4.01,8.26-7.35c2.43-2.6,5.68-4.52,8.42-6.9c2.35-2.04,6.93-6.91,8.99-2.42c1.8,3.94-5.31,7.37-1.67,10.67"/>
		<path style="&st0;" d="M225.9,151.59c2.43,1.89,5.97-0.5,8.33,0"/>
		<path style="&st0;" d="M211.57,143.92c-6.93-8.64-2.83-10.75-0.58-15.92"/>
		<path style="&st0;" d="M244.57,149.92c3.33,1,5.67,1.67,8,0"/>
		<path style="&st0;" d="M222.24,161.59c-3.9,3.21-7.76,5.05-12.33,7.33c-2.3,1.15-4.44,2.7-6.66,4.08
			c-2.75,1.71-3.41,1.85-6.34,1.58c-2.89-0.26-5.24-0.15-6.41-3.24c-1.2-3.16-0.26-8.98-5.51-8.13c-3.92,0.63-7.94,6.9-9.74,10.04
			c-1.14,1.99-2.62,4.46-3.01,6.66c-0.48,2.71,0.86,5.01,0.36,7.69c-0.4,2.12-2.52,4.14-3.6,5.97c-1.68,2.86-2,5.14-2.16,8.34
			c-0.27,5.6-3.69,10.06,1.07,14.35c1.47,1.32,3.17,2.02,4.58,3.4c1.37,1.33,1.88,3.43,3.17,4.57c3.75,3.34,7.01-2.62,10.58-2.32"/>
		<path style="&st0;" d="M194.57,178.92c-3.61,1.79-4.65,9.53-5.34,12.99c-1.06,5.26-1.02,10.81-2.33,16.01
			c-2.2,8.69-1,21.63,6.67,27c3.48,2.43,8.5,3.37,12.32,3.32c1.81-0.03,4.91,0.2,6.7-0.63c2.87-1.33,1.96-3,1.22-5.68
			c-1.38-5.03-0.54-10-1.57-15c-1.24-6.06-1.34-9.52-0.34-15.33"/>
		<path style="&st0;" d="M179.24,176.92c-5.66,11.1,5.75,27.57-1.33,38.33"/>
		<path style="&st0;" d="M171.57,191.92c-0.41,3.38,3.43,3.25,5.63,3.73c-1.11,1.94-3.44,3.76-1.07,5.88
			c-1.42-0.14-2.67-0.47-3.81-1.23c-0.78,1.31-0.95,2.83-1.74,3.99c-2.71-1.56-1.45-3.79,0.63-5.12c-1.73-1.27-1.92-4.64-0.31-5.92"
			/>
		<path style="&st0;" d="M174.24,180.25c-0.08,1.2,1,2.36,2.28,2.75c-0.77,0.43-1.6,1.22-2.65,1.42c1.14,0.12,2.26,0.65,2.98,1.59
			c-0.07,1.33-0.78,2.11-2.17,1.96c3.97,2.91-1.79,4.63-2.06,0.34c0.19-0.04,0.37-0.07,0.56-0.11c-0.27-1.76-1.93-6.39,1.06-6.61"/>
		<path style="&st0;" d="M197.9,174.92c-1.86,3.39-2.4,10.24-3,14.67c-0.7,5.14-2.28,10.11-0.66,15.32
			c2.58,8.28,7.32,1.58,10.92-1.74c3.79-3.49,8.8-1.46,12.81-5.5c5.49-5.51,7.99-10.59,9.59-17.75"/>
		<path style="&st0;" d="M213.24,172.59c-0.9,4.31-2.1,8.51-4.6,12.35c-0.93,1.43-7.63,9.74-4.75,10.67
			c1.7,0.55,9.29-7.25,10.95-2.02c1.06,3.33-8.74,7.77-6.22,2.72c0.29,0.06,1.46,0.4,1.28,0.29"/>
		<path style="&st0;" d="M220.9,175.59c-1.38,1.16-2.16,2.81-1.32,4.53c-0.85,0.62-1.9,1.05-2.96,1.22c1.04,1.03,2.9,0.33,4.29,0.06
			c0.08,0.09,0.17,0.17,0.26,0.26c-0.31,1.29-0.73,2.69-0.93,4.17c0.17-3,7.19-2.34,3.72-5.15c0.86-0.21,1.36-1.1,1.99-1.43
			c-1.43-1.51-3.35-1.38-4.38-3.36c-0.62,0.19-0.97,0.57-1.33,1.03"/>
		<path style="&st0;" d="M199,138.09c-8.76,6.17-13.43,13.31-13.43,25.17"/>
		<path style="&st0;" d="M211.57,152.25c0.62,4.49,5.97,2.73,7.33,3"/>
		<path style="&st0;" d="M211.57,169.25c3.95-2.15,8.82,0.11,13.07,0.33c4.7,0.24,9.69-0.53,14-2.25
			c3.4-1.36,18.33-13.33,15.93-16.42"/>
		<path style="&st0;" d="M262.9,155.92c-1.45,4.42-3.55,4.76-7.59,3.38c-1.38,2.93,0.52,3.41,2.13,5.04
			c-0.68,0.44-1.31,1.29-2.09,1.6c3.01-1.57,5.07,4.54,6.83-1.6c-0.79-0.44-1.31-1.25-2.26-1.51c2.2-0.95,6.76-4.05,1.97-5.91"/>
		<path style="&st0;" d="M246.57,162.25c-1.33-0.12-0.08,4.06,0,5.67c0.13,2.55-0.24,4.85-0.93,7.07c-1.16,3.73-4.5,8.06-8.07,9.59
			c-4.56,1.95-8.35-1.61-10.75-5.66c-0.77-1.3-5.15-11.73-6.25-10.01"/>
		<path style="&st0;" d="M265.24,175.59c-4.73,3.59-20.04,1.82-19.33-6.33"/>
		<path style="&st0;" d="M270.57,155.25c-0.61,1.8-0.22,3.97-0.59,5.74c-0.39,1.83-1.24,3.62-1.99,5.34
			c-1.47,3.37-3.29,6.14-3.4,9.57c-0.14,4.39,0.91,7.06,6,6.04c2.96-0.6,8.22-3.48,8.3-6.92c2.23,3.64,3.02,9.91,3.61,13.97
			c0.74,5.08,1.61,9.55,1.07,14.93c-0.41,4.16-2.04,8.26-2.74,12.59c-0.73,4.48-3.68,9.48-3.23,14.28c-0.14,0.02-0.3-0.29-0.63-0.16
			c-0.5,0.57-0.88,1.54-1.02,2.23c6.79,0.58,14.79-2.03,19.96-5.62"/>
		<path style="&st0;" d="M294.24,211.92c-3.15-1.8-5.97,7.39-7.08,9.59c-2.16,4.28-6.37,3.11-9.92,5.74"/>
		<path style="&st0;" d="M282.24,190.25c0.15-0.81,0.07-1.59,0.28-2.28c-1.09,0.51-2.04,5.94-2.86,7.71
			c-1.22,2.64-2.53,5.19-3.68,7.91c-1.56,3.69-2.38,5.48-0.33,8.99c1.24,2.13,4.06,6.33,3.58,7.67"/>
		<path style="&st0;" d="M282.24,166.59c1.24,5.11-5.19,1.92-6.92,1.37c-1.07,1.82,0.55,3.65,2.21,4.36
			c-0.72,1.17-2.19,1.73-2.99,2.82c0.56-0.75,1.57-1.27,2.69-1.54c1.57-0.38,2.28,0.52,3.32,0.35c1.81-0.3,4.56-1.9,2.35-3.68"/>
		<path style="&st0;" d="M287.9,181.59c3.08,4.58,2.53,11.41,2,16.67c-0.28,2.8-0.22,6.41,1.25,8.76c1.42,2.26,4.48,3.53,6.08,5.58"
			/>
		<path style="&st0;" d="M285.57,190.59c-0.33,0.1-0.74,0.37-1.01,0.52c3.96-1.77,3.98,12.23-0.69,1.48
			c0.27-0.77,0.59-0.59,1.03-0.67"/>
		<path style="&st0;" d="M289.24,206.59c4.49,0.06-0.85,5.56-1.38,0.87c0.44,0.17,0.68,0.54,0.71,1.13"/>
		<path style="&st0;" d="M293.9,158.92c5.38,11.79,0.42,22.71,4.33,34"/>
		<path style="&st0;" d="M304.57,165.59c1.74,9.57-1.32,18.34-0.33,27.67"/>
		<path style="&st0;" d="M316.57,181.92c0.03,0.23,0.49,0.03,0.11,0.28c-2.11-0.8-4.48-0.81-5.68,1.46
			c-1.85,3.52,2.07,3.5,3.56,0.88c1.68,1.34-0.06,5.54,2.66,6.06c3.24,0.62,1.62-3.56,0.41-4.62c3.83,0.48,2.75-8.18-1.73-3.39"/>
		<path style="&st0;" d="M315.24,257.92c0.42-1.15,0.35-2.37,0.33-3.67c-0.08-5.79-0.51-10.4,0.68-16.01
			c1.07-5.08,1.66-10.52,1.66-15.99c0-4.89-1.45-11.82,1.08-15.99c2.21-3.64,10-5.13,8.86-10.62c-1.05-0.38-2.06-0.83-3.03-1.34
			c-5.65,1.35-10.94,5.39-16.83,6.03c-3.07,0.33-7.18-1.17-7.42,3.59c-0.16,3.15,2.86,4.42,3.62,7.25c-2.3,1.27-5.6,3.69-7.62,1.08"
			/>
		<path style="&st0;" d="M312.24,206.59c2.67,9-2.18,26.87-5.33,32.33"/>
		<path style="&st0;" d="M312.57,149.92c-0.88,1.64,5.07,5.96,6.01,8.98c1.34,4.31,2.25,8.39,2.73,13.02
			c0.45,4.35,0.22,9.34,0.91,13.69c0.68,4.3,3.2,6.42,5.35,9.98"/>
		<path style="&st0;" d="M165.9,213.92c-2.98,4.01-2.01,10.39-0.93,14.93c0.55,2.31,0.83,5.12,1.57,7.41
			c0.83,2.56,2.58,3.66,4.35,5.67"/>
		<path style="&st0;" d="M171.24,219.92c-5.44,5.93,0,12.61,1,18.67c0.56,3.4-1.19,6.59-1,10.33c0.17,3.5,0.6,7.14,1.67,10.33"/>
		<path style="&st0;" d="M188.57,230.92c-1.54,4.14,0.18,10.13,0,14.67c-0.19,4.73-1.29,10.15-1,14.33"/>
		<path style="&st0;" d="M214.57,236.25c-0.29,6.94-8.08,8.16-13.67,7.34c-2.26-0.33-4.55-0.85-6.39-1.25
			c-3.04-0.66-4.57-2.89-6.61-3.76"/>
		<path style="&st0;" d="M195.24,224.59c-0.39-0.35-0.83-1.11-0.6-2.3c1.08,0.51,1.81,1.65,2.26,2.68c1.04-1.18,2.34-2.2,3.96-2
			c0.1,1.45-0.54,2.78-1.25,3.96c1.34,0.59,2.92,0.39,4,1.33c-0.61,1.77-2.65,1.47-3.97,1.36c-0.01,1.72,0.48,3.41,0.22,5.18
			c-1.51-0.37-3.04-1.38-3.61-2.77c-0.69,1.64-2.05,1.21-3.03,0.05c0.55-0.62,1.38-1.62,2.22-2.16c-1.92-0.93-5.07-1.06-4.15-4.28
			c1.18-0.2,2.95,0.36,3.28,0.62"/>
		<path style="&st0;" d="M204.57,218.59c-1.3-1.16-5.4-3.16-5.61-0.39c0.61,0.19,1.73,1.08,1.88,1.13c-2.36,1.77,0.79,2.3,2.32,1.63
			c0.3,0.85,1.08,1.36,1.4,2.16c0.23-0.22,0.47-0.54,0.68-0.74c0.77,0.9,1.58,1.79,2.34,2.58c1.52-1.21,2.45-3.29-0.03-3.88
			c0.02-0.01,0.04,0.03,0,0.02c2.17-1.04,4.15-3.53,1.11-5.12c-0.49,0.72-1.35,1.67-1.42,2c-0.07-1.21-0.54-1.32-1.33-2.08
			c-1.32,0.46-2.06,1.69-2,3.03"/>
		<path style="&st0;" d="M208.24,270.92c-2.14-0.92-4.54-0.91-6.58-2.41c-1.97-1.45-3.19-3.73-4.83-5.51
			c-2.39-2.58-9.58-6.84-3.91-9.79c2.83,4.49,5.67,7.88,10.32,11.04c3.33,2.26,9.96,5.7,12.67,5.67"/>
		<path style="&st0;" d="M223.57,266.25c-2.1,0-8.56-2.25-10.93-3.74c-2.99-1.89-4.36-5.47-6.74-7.62c-4.77,3.67,5.35,11.15,8,12.03
			"/>
		<path style="&st0;" d="M193.57,264.92c-2.04,0.43-6.68-3.74-8.66-5c-1.94-1.24-6.27-6.21-7.96-5.28
			c-0.79,4.93,1.76,6.27,5.61,7.61c2.15,0.75,6.25,4.76,7.34,4.67"/>
		<path style="&st0;" d="M195.24,269.59c-1.97-0.48-5.46,1-8,1c-3.39,0-4.53-0.73-7-2.7c-7.7,5.48,11.65,8.16,14,5.03"/>
		<path style="&st0;" d="M325.9,280.92c-2.69-1.34-7.21-1.16-10.32-2.68c-4.59-2.23-5-6.5-6.67-7.26c-1.73-0.78-4.12-0.23-6.01-1.07
			c-1.63-0.72-2.85-1.6-4.09-2.93c-1.64-1.74-2.75-7.7,1.07-7.2c2.69,0.35,4.2,6.25,7.7,7.47c2.99,1.04,4.41-0.87,6.91,2.73
			c2.59,3.73,3.69,4.18,7.75,5.59c3.1,1.08,3.55,3.19,5,6"/>
		<path style="&st0;" d="M316.24,251.25c-0.66,7.49,16.78,8.38,15.61,14.96c-1.23-0.71-2.96-1.72-4.3-1.8
			c1.55,1.69,4.43,2.83,4.55,5.17c-0.14,0.05-0.36,0.4-0.44,0.54c-1.68-1.42-3.89-1.13-5.6-2.55c3.45,1.1,5.27,3.34,6.04,6.68
			c0.26,1.13-5.8-3.28-6.36-3.74c3.24,1.27,4.91,4.4,5.17,7.74"/>
		<path style="&st0;" d="M330.57,277.92c0.25,0.28,0.11,0.47,0.26,0.06c1.01,3.46,0.08,5.02-3.93,3.61"/>
		<path style="&st0;" d="M312.9,268.25c4.77-2.65,8.15-1.15,12,1.67"/>
		<path style="&st0;" d="M324.9,259.92c-0.68,2.48-1.1,9.33,0,10.33"/>
		<path style="&st0;" d="M325.57,277.92c0.02-0.06,2.29-0.57,3.67,0"/>
		<path style="&st0;" d="M300.24,259.59c0-2.27,0.28-4.81-0.36-6.88c0.21,0.21,0.44,0.39,0.69,0.55"/>
		<path style="&st0;" d="M298.32,213.92c-3.22,5.22-1.6,16.62-0.99,22.68c0.36,3.61,0.95,6.85,1.99,10.3
			c1.08,3.6,2.24,3.97,4.67,6.02"/>
		<path style="&st0;" d="M299.24,253.59c-0.79,1.43-88.17,2.99-90.67,4"/>
		<path style="&st0;" d="M202.9,257.92c0.53,0.58-3.86,0.4-4.67,0"/>
		<path style="&st0;" d="M190.24,258.92c-1.28-0.36-4.38-0.33-5.33-0.33"/>
		<path style="&st0;" d="M175.57,257.92c-1.94,1.23-4.56,0.52-6.33,1.33"/>
		<path style="&st0;" d="M134.57,261.92c-19,1.33-83,4.67-117.33,6c0,7.33,0.19,19.16,0.17,26.33"/>
		<path style="&st0;" d="M35.99,283.92c27.33-0.67,266.66-10.27,273.5-10.5"/>
		<path style="&st0;" d="M332.65,272.59c17-0.67,47.97-2.83,49.92-2.33"/>
		<path style="&st0;" d="M382.9,294.92c-1.89-0.54-346.99,12.87-347,13"/>
		<path style="&st0;" d="M17.24,267.92c6,4.33,13.84,12.29,18.75,16c0.06,6.02,0.25,17.33-0.08,24"/>
		<path style="&st0;" d="M17.4,294.25c4.67,3.67,12.83,9.67,18.5,13.67"/>
		<path style="&st0;" d="M141.24,260.92c0.68-0.36,4.44,0.49,5.33,0"/>
		<path style="&st0;" d="M151.24,260.25c1.34,0.15,2.23,0.29,3.67,0.33"/>
		<path style="&st0;" d="M159.9,260.25c1.11,0,2.22,0,3.33,0"/>
		<path style="&st0;" d="M178.57,266.25c-3.43-0.9-7.54-2.51-9.75-5.25c-1.05-1.3-5.93-9.11-6.32-3.34c-0.2,2.89,4.04,5.6,6,7
			c1.2,0.86,6.38,4.01,6.41,4.26"/>
		<path style="&st0;" d="M154.57,266.92c-0.27-0.22-0.86-0.68-0.98-0.82c-2.57-1.05-5.3-4.1-7.11-6.09
			c-1.32-1.45-5.61-8.41-1.23-8.1c2.77,0.2,5,6.21,6.23,8.1c1.5,2.31,3.5,5.84,5.75,7.25"/>
		<path style="&st0;" d="M173.57,270.92c-4.1-2.24-9.82-2.77-13.92-2.95c-3.81,3.91,10.27,4.17,11.92,5.95"/>
		<path style="&st0;" d="M143.24,116.59c-3.44-0.51-7.5,0.5-10.75-3.83"/>
		<path style="&st0;" d="M182.24,57.59c-1.31,4.59,5.94,8.57,3.67,11.33"/>
		<path style="&st1;" d="M186.24,66.25c1.29-0.61-0.02-2.51,0.91-4.09c1.36-2.33,3.14-1.36,2.51-4.66
			c-0.53-2.77-4.95-7.54-7.15-9.18c-8.01-5.96-15.89-0.08-21.22,6.51c0.12,0.12,0.25,0.24,0.37,0.37c2.09-3,5.46-2.05,2.56,1.28
			c0.33-1.05,1.07-2,2.02-2.59c1.04,0.88,1.17,1.48,0.3,2.56c0.34-0.83,1.12-1.28,1.7-1.9c1.78,1.06,0.5,2.69,0,4.08
			c0.4-1.99,4.17-2.26,3.33,1c0.22-0.56,0.34-6.36,3.09-3.14c1.51,1.77-1.12,5.04,2.83,5.04c1.68-1.86-0.06-4.7,1.83-6.57
			C185.99,55.74,186.24,60.35,186.24,66.25z"/>
		<path style="&st1;" d="M142.24,74.59c0.34-1.72,2.6-6.93,3.17-11.67c0.44-3.64-0.73-6.99-0.78-8.28c5.39-0.82,0.93-9.37-3.73-3.18
			c-0.69-3.11-4.42-8.16-2.13-11.18c1.77-2.33,12.22-0.56,12.42-1.31c-0.51,1.84-3.55,4.97,0.39,4.97c1.37,0,5.39-2.97,6.58-3.76
			c4.88-3.22,4.18-7.68,6.73-12.12c0.74-0.03,2.11,0.15,2.95,0.25c2.81,8.95-0.66,20.54-8.52,26.03c-3.82,2.67-8.42,4.05-11.68,7.66
			C144.46,65.54,143.2,70.31,142.24,74.59z"/>
		<path style="&st0;" d="M126.9,94.92c-3.94,1-3.74,6.69,0.41,7.51c1.22,0.24,7.96-0.93,9.58-1.01c0.21-0.15,0.2,0,0.37,0
			c0.13-0.7,0.46-3.65,0.32-3.5"/>
		<path style="&st0;" d="M139.24,132c1.33,5.67,3.33,7.92,5.32,7.27c2.73-0.88,2.01-3.19,0.34-7.52"/>
		<path style="&st0;" d="M134.24,128.5c-2,0.08-2.33-1.92-2-4.25"/>
		<path style="&st0;" d="M138.57,124.59c-0.13,0.29-2.4,0.01-3.67,0c-2.1-0.02-8.05-0.9-4.73-4.59c1.98-2.2,6.12,0.97,8.07,1.92"/>
		<path style="&st0;" d="M131.9,112.92c-3.91-1.13-0.25,5.44,0.67,6.33"/>
		<path style="&st0;" d="M125.57,102.92c-2.3,0.76-1.56,2.15-0.31,2.99c0.98,0.66,3.05,0.16,4.38,0.08c2.54-0.14,11.1,0.57,8.93-3.6
			c-0.41-0.05-3.51-0.9-2.68-0.14"/>
		<path style="&st0;" d="M145.57,72.25c0.07,0.12-1.71,4.92-2.33,6.33"/>
		<path style="&st0;" d="M164.9,67.59c-0.02-0.05-0.56,0.5-0.28-0.25c2.35-2.28,5.58-4.82,8.81-3.09c-1.46,1.67-4.43,0.88-6.2,1.33"
			/>
		<path style="&st0;" d="M173.9,70.92c-0.94,1.75-2.71,2.07-4,3"/>
		<path style="&st0;" d="M169.57,68.92c-1.77-0.13-7.11,2.42-3.34,3.67c2.03,0.67,5.07-3.15,6.37-4.34c-1.25-1.4-3,0.38-3.7,1"/>
		<path style="&st0;" d="M146.24,72.92c-0.92,1.91-0.65,4.21-0.68,6.17c2.72-0.63,3.53-4.69,6.68-5.18c3.31-0.52,4.86,2.2,6,4.66
			c0.76,1.63,1.9,6.86,3.65,7.51c1.9,0.71,5.76-2.92,6.68-4.16"/>
		<path style="&st0;" d="M165.24,79.25c0.43,0.29-1.06-0.47-0.61-0.16c3.37-0.37,4.25,1.64,6.96,2.47c1.67,0.51,5.36-0.26,6.65,0.02
			"/>
		<path style="&st0;" d="M154.9,76.25c0.97,2.51-3.11,2.55-4.95,2.38c0.02,0.14,0.02,0.75,0,0.89c1.56,0.74,3.27,0.37,4.62-0.45
			c0.14,0.22,0.21,0.03,0.34-0.03c-0.11,1.15-0.66,2.16-1.57,2.9c1.32-0.91,2.66-1.87,4.22-2.03"/>
		<path style="&st0;" d="M181.9,81.25c-1.77,2.81-0.11,7.59-1.74,10.92c-2.32,4.72-3.6,3.96-7.93,3.06
			c-1.36-0.28-3.28-0.94-4.74-1.23c-1.97-0.39-4,0.95-5.59,0.59c-4.19-0.94,0.6-4.6,0.33-7.67"/>
		<path style="&st0;" d="M81.32,8.75c-6.33,4.33-7.42,13.17-9.79,19.81c-0.04,0.08-0.27-0.77,0,0c5.71,2.03,11.96,3.44,17.04,1.28
			c-0.42-5.5-1-11.25,0.33-18.58"/>
		<path style="&st0;" d="M88.9,11.25c4-3.33,10.33-4.33,12.66,2.83c7.66,23.62,20.68,63.83,26.34,82.17"/>
		<path style="&st0;" d="M133.57,93.25c-5-16.33-24.58-76.07-27.62-85.37s-20.38-8.97-24.71-0.3c2,1.33,6,2.13,7.42,2.6
			c6.67-8.68,9.17-8.27,11.17-0.02"/>
		<path style="&st0;" d="M153.24,83.92c0.07-0.38,0.21-0.63,0.27-0.95c-3.19,7.08,3.94,5.34,7.07,8.95"/>
		<path style="&st0;" d="M170.57,91.59c0.92-1.06,2.22-2.58,3-2.67"/>
		<path style="&st0;" d="M165.24,91.25c-1.23-0.79,3.06-5,4.66-6.08c2.51-1.7,5.71-1.12,8.01-0.58"/>
		<path style="&st0;" d="M139.57,104.92c1.64,1.45,3.81,2.62,5.33,4"/>
		<path style="&st0;" d="M128.57,107.25c-0.32-0.01-0.63-0.23-0.93-0.3c-0.38,0.65-0.49,1.18-0.34,1.91c2.05,0.9,13,0.46,10.34-2.87
			c-0.13,0.14-0.12,0.15,0.02,0.02c-0.24-0.09,0.2,0.07,0.25,0.25"/>
		<path style="&st0;" d="M189.24,89.25c-1.01,1.22-2.32,4.27-4.41,5.59c-2.08,1.32-5.2-0.17-6.26,0.74"/>
		<path style="&st0;" d="M128.9,109.59c-0.16,0.5-0.13,1.84-0.27,2.61c1.9,0.5,9.94,0.72,9.22-2.88c-0.15-0.05-1.5-0.58-0.94-0.39"
			/>
		<path style="&st0;" d="M308.57,201.25c-2.67,1.33-3.33,3.33-3.33,7.33"/>
		<path style="&st0;" d="M161.9,264.92c-3.33-3-5-4-7.67-7.33s-1-5.33,1.67-3.33s7.67,8.67,7.67,8.67"/>
		<path style="&st0;" d="M321.24,196.92c0,2,0,5.83,0,5.83"/>
		<path style="&st0;" d="M222.24,248.25c-2.67,2-4.83,4.81-8.33,5.32c-2.43,0.35-13.67-2.19-11.67-5.99
			C215.32,249.65,215.09,249.55,222.24,248.25z"/>
		<path style="&st0;" d="M245.75,248.58c-6.1,1.92-22.84,1.31-24.17,3.16s1.8,2.45,4.8,3.12c5.7,1.27,15.05,0.32,19.57-6.45
			L245.75,248.58"/>
	</g>
</svg>
