<?xml version="1.0" encoding="iso-8859-1"?>
<!-- Generator: Adobe Illustrator 11 Build 196, SVG Export Plug-In . SVG Version: 6.0.0 Build 78)  -->
<!DOCTYPE svg PUBLIC "-//W3C//DTD SVG 1.0//EN"    "http://www.w3.org/TR/2001/REC-SVG-20010904/DTD/svg10.dtd" [
	<!ENTITY ns_flows "http://ns.adobe.com/Flows/1.0/">
	<!ENTITY ns_svg "http://www.w3.org/2000/svg">
	<!ENTITY ns_xlink "http://www.w3.org/1999/xlink">
	<!ENTITY st0 "font-family:'Myriad-Roman';">
	<!ENTITY st1 "fill:none;stroke:#000000;stroke-linecap:round;stroke-linejoin:round;">
	<!ENTITY st2 "fill:none;stroke:#000000;">
	<!ENTITY st3 "font-size:12;">
	<!ENTITY st4 "font-family:'HiraKakuPro-W3-83pv-RKSJ-H';adobe-font-script:japanese;">
]>
<svg  xmlns="&ns_svg;" xmlns:xlink="&ns_xlink;" xmlns:a="http://ns.adobe.com/AdobeSVGViewerExtensions/3.0/"
	 width="256.66" height="144.5" viewBox="0 0 256.66 144.5" style="overflow:visible;enable-background:new 0 0 256.66 144.5"
	 xml:space="preserve">
	<g id="Pfade">
		<line style="&st1;" x1="1.33" y1="0.5" x2="254.82" y2="0.5"/>
		<line style="&st1;" x1="1.33" y1="30.58" x2="40.41" y2="30.58"/>
		<path style="&st1;" d="M159.5,62.9c21.06,0,43.54-10.22,57.24-23.07V22.31H42.58v17.62"/>
		<path style="&st1;" d="M42.42,39.15c13.71,12.85,38.94,23.37,60,23.37h3.43V43.73l2.42-2.34h51.31v30.38H108.1V41.39"/>
		<polyline style="&st1;" points="0.5,33.99 34.9,33.99 34.9,43.92 "/>
		<path style="&st1;" d="M34.9,43.92C48.6,56.77,75.09,66.7,96.15,66.7h2.67l7.02-4.19"/>
		<line style="&st1;" x1="40.33" y1="24.06" x2="42.58" y2="22.31"/>
		<line style="&st1;" x1="256.16" y1="30.78" x2="216.99" y2="30.78"/>
		<line style="&st1;" x1="217.16" y1="34.38" x2="255.82" y2="34.38"/>
		<line style="&st1;" x1="40.33" y1="24.06" x2="40.33" y2="30.29"/>
		<line style="&st1;" x1="34.9" y1="33.99" x2="40.33" y2="30.29"/>
		<line style="&st1;" x1="34.9" y1="43.92" x2="42.42" y2="39.15"/>
		<line style="&st1;" x1="209.72" y1="46.94" x2="216.74" y2="39.83"/>
		<line style="&st1;" x1="99.33" y1="67.09" x2="99.33" y2="75.95"/>
		<path style="&st1;" d="M159.58,71.76c-3.84,4.48-6.1,14.6-6.1,20.44"/>
		<path style="&st1;" d="M108.1,71.76c3.84,4.48,6.1,14.6,6.1,20.44"/>
		<path style="&st1;" d="M99.33,75.95c3.84,4.48,8.61,11.39,8.61,17.23"/>
		<line style="&st1;" x1="99.33" y1="75.95" x2="108.1" y2="71.76"/>
		<polyline style="&st1;" points="0.99,118.2 101.08,118.2 106.01,114.89 1.33,114.89 "/>
		<line style="&st1;" x1="99.08" y1="144" x2="99.08" y2="118.79"/>
		<polyline style="&st1;" points="108.1,143.81 108.1,92.4 159.58,92.4 159.58,143.81 "/>
		<line style="&st1;" x1="160" y1="93.28" x2="253.23" y2="93.28"/>
		<line style="&st1;" x1="159.41" y1="115.88" x2="254.49" y2="115.88"/>
		<line style="&st1;" x1="159.41" y1="118.33" x2="253.82" y2="118.33"/>
		<polyline style="&st1;" points="0.66,93.67 106.01,93.67 106.01,114.89 "/>
		<line style="&st1;" x1="108.1" y1="92.4" x2="100.08" y2="93.86"/>
		<path style="&st1;" d="M159.59,67.62c18.87-1.79,37.96-9.27,50.13-20.69"/>
	</g>
	<g id="Beschriftung">
		<line style="&st1;" x1="147.66" y1="58" x2="189.16" y2="75.5"/>
		<line style="&st2;" x1="74.66" y1="42.5" x2="44.66" y2="61"/>
	</g>
	<g id="Text">
		<text transform="matrix(1 0 0 1 192.9097 77.75)"><tspan x="0" y="0" style="&st4; &st3;">&#x5927;&#x6597; (</tspan><tspan x="32.27" y="0" style="&st0; &st3;">dai</tspan><tspan x="47.63" y="0" style="&st0; &st3;">t</tspan><tspan x="51.53" y="0" style="&st0; &st3;">o</tspan><tspan x="58.12" y="0" style="&st0; &st3;">)</tspan></text>
		<text transform="matrix(1 0 0 1 14.1597 72)"><tspan x="0" y="0" style="&st4; &st3;">&#x8098;&#x6728; </tspan><tspan x="28" y="0" style="&st0; &st3;">(hiji</tspan><tspan x="46.6" y="0" style="&st0; &st3;">k</tspan><tspan x="52.43" y="0" style="&st0; &st3;">i</tspan><tspan x="55.23" y="0" style="&st0; &st3;">)</tspan></text>
	</g>
	<g id="Text_Outlines">
		<g>
			<path d="M199.26,71.47c0.41,1.54,1.04,2.8,1.96,3.86c0.88,1.02,1.88,1.75,3.25,2.34c-0.24,0.29-0.34,0.42-0.53,0.8
				c-2.69-1.43-4.18-3.18-5.04-5.93c-0.32,1.75-1.12,3.2-2.34,4.31c-0.76,0.67-1.42,1.09-2.59,1.63c-0.17-0.34-0.26-0.47-0.52-0.73
				c1.5-0.61,2.38-1.2,3.16-2.1c0.94-1.08,1.44-2.35,1.67-4.19h-3.26c-0.64,0-0.97,0.02-1.32,0.08v-0.94
				c0.31,0.06,0.71,0.08,1.34,0.08h3.31c0.04-0.58,0.05-0.95,0.05-1.42c0-0.55-0.04-0.98-0.08-1.31h0.98
				c-0.06,0.4-0.08,0.66-0.08,1.25c-0.01,0.61-0.02,0.96-0.06,1.48h3.64c0.61,0,1.01-0.02,1.33-0.08v0.94
				c-0.38-0.06-0.72-0.08-1.32-0.08H199.26z"/>
			<path d="M212.52,69.04c0-0.55-0.02-0.91-0.07-1.27h0.97c-0.05,0.36-0.07,0.71-0.07,1.26v5.53l1.44-0.2
				c0.58-0.08,0.95-0.17,1.3-0.28l0.07,0.91c-0.36,0.01-0.67,0.05-1.33,0.13l-1.48,0.22v1.86c0,0.61,0.02,1,0.08,1.37h-1
				c0.06-0.4,0.08-0.76,0.08-1.38v-1.73l-5.35,0.76c-0.46,0.06-0.97,0.17-1.3,0.25l-0.08-0.91c0.05,0,0.1,0,0.12,0
				c0.28,0,0.67-0.04,1.21-0.11l5.4-0.77V69.04z M209.73,74.26c-0.95-0.91-1.67-1.46-2.76-2.12l0.5-0.61
				c1.16,0.7,1.75,1.14,2.77,2.03L209.73,74.26z M210.91,71.57c-0.89-0.92-1.56-1.48-2.7-2.22l0.54-0.56
				c1.1,0.71,1.72,1.2,2.66,2.11L210.91,71.57z"/>
			<path d="M224.07,79.66c-0.7-1.07-0.98-1.64-1.27-2.51c-0.32-0.97-0.49-2-0.49-3.12c0-1.12,0.17-2.15,0.49-3.12
				c0.29-0.85,0.58-1.43,1.27-2.5l0.76,0.48c-0.67,1.03-0.94,1.57-1.2,2.42c-0.28,0.86-0.41,1.76-0.41,2.71
				c0,0.95,0.13,1.86,0.41,2.72c0.26,0.85,0.53,1.39,1.2,2.42L224.07,79.66z"/>
			<path d="M231.07,69.23v7.02c0,0.52,0.01,1.1,0.05,1.5h-0.95l-0.05-1.01h-0.02c-0.32,0.65-1.02,1.14-1.97,1.14
				c-1.4,0-2.5-1.19-2.5-2.95c-0.01-1.94,1.2-3.12,2.6-3.12c0.9,0,1.5,0.42,1.75,0.88h0.02v-3.46H231.07z M230.01,74.31
				c0-0.14-0.01-0.31-0.05-0.46c-0.16-0.66-0.73-1.21-1.52-1.21c-1.09,0-1.74,0.96-1.74,2.23c0,1.19,0.59,2.16,1.72,2.16
				c0.71,0,1.36-0.48,1.55-1.26c0.04-0.14,0.05-0.29,0.05-0.46V74.31z"/>
			<path d="M236.91,76.36c0,0.5,0.02,1,0.08,1.39h-0.95l-0.1-0.73h-0.04c-0.31,0.46-0.95,0.86-1.78,0.86
				c-1.18,0-1.78-0.83-1.78-1.67c0-1.4,1.25-2.17,3.49-2.16v-0.12c0-0.48-0.13-1.36-1.32-1.34c-0.55,0-1.12,0.16-1.52,0.43
				l-0.24-0.71c0.48-0.3,1.19-0.5,1.92-0.5c1.79,0,2.22,1.21,2.22,2.38V76.36z M235.88,74.79c-1.15-0.02-2.46,0.18-2.46,1.31
				c0,0.7,0.46,1.01,0.98,1.01c0.77,0,1.26-0.48,1.43-0.97c0.04-0.11,0.05-0.23,0.05-0.34V74.79z"/>
			<path d="M239.11,70.87c-0.4,0-0.66-0.31-0.66-0.68s0.28-0.67,0.68-0.67c0.41,0,0.67,0.3,0.67,0.67s-0.26,0.68-0.68,0.68H239.11z
				 M238.6,77.75v-5.81h1.06v5.81H238.6z"/>
			<path d="M242.69,70.55v1.39h1.51v0.8h-1.51v3.13c0,0.72,0.2,1.13,0.79,1.13c0.29,0,0.46-0.02,0.61-0.07l0.05,0.8
				c-0.2,0.07-0.53,0.14-0.94,0.14c-0.49,0-0.89-0.17-1.14-0.44c-0.29-0.32-0.41-0.84-0.41-1.52v-3.17h-0.9v-0.8h0.9v-1.07
				L242.69,70.55z"/>
			<path d="M247.68,77.88c-1.56,0-2.78-1.15-2.78-2.99c0-1.94,1.28-3.08,2.88-3.08c1.67,0,2.8,1.21,2.8,2.98
				c0,2.16-1.5,3.1-2.88,3.1H247.68z M247.72,77.09c1.01,0,1.76-0.95,1.76-2.27c0-0.98-0.49-2.22-1.74-2.22
				c-1.24,0-1.78,1.15-1.78,2.26c0,1.27,0.72,2.23,1.74,2.23H247.72z"/>
			<path d="M251.27,79.2c0.84-1.19,1.5-2.74,1.5-4.9c0-2.16-0.65-3.68-1.5-4.88h0.82c0.76,0.98,1.57,2.53,1.57,4.88
				c-0.01,2.35-0.82,3.88-1.57,4.9H251.27z"/>
		</g>
		<g>
			<path d="M16.33,68.83c-0.16,2.02-0.41,2.96-1.06,4.03c-0.2-0.25-0.35-0.4-0.62-0.6c0.89-1.4,1.08-2.87,1.08-8.18
				c0-0.83-0.01-1.26-0.06-1.64c0.34,0.05,0.65,0.06,1.06,0.06h1.52c0.38,0,0.65-0.01,0.97-0.06c-0.04,0.28-0.05,0.62-0.05,1.09
				v8.16c0,0.76-0.25,1-1.07,1c-0.42,0-0.72-0.01-1.16-0.05c-0.02-0.3-0.07-0.49-0.19-0.8c0.6,0.11,0.96,0.14,1.36,0.14
				c0.26,0,0.34-0.08,0.34-0.4v-2.75H16.33z M18.44,68.16v-2.22h-2c-0.01,0.38-0.01,0.7-0.01,0.89c-0.01,0.77-0.01,0.77-0.05,1.33
				H18.44z M18.44,65.27v-2.09h-1.98v1.69l-0.01,0.4H18.44z M20.82,65.48c-0.48,0-0.88,0.02-1.24,0.07V64.7
				c0.35,0.05,0.72,0.07,1.22,0.07h2.69v-1.32c0-0.58-0.02-0.92-0.08-1.31h0.92c-0.05,0.36-0.07,0.74-0.07,1.31v1.32h0.11
				c0.48,0,0.84-0.02,1.16-0.07v0.85c-0.34-0.05-0.7-0.07-1.16-0.07h-0.11v6.31c0,0.78-0.24,0.92-1.48,0.92
				c-0.41,0-0.83-0.02-1.19-0.05c-0.04-0.29-0.1-0.54-0.2-0.78c0.62,0.08,1.07,0.12,1.5,0.12c0.5,0,0.6-0.05,0.6-0.3v-6.23H20.82z
				 M21.74,69.7c-0.55-1.25-0.91-1.87-1.66-2.9l0.64-0.37c0.78,1.07,1.14,1.66,1.7,2.84L21.74,69.7z"/>
			<path d="M32.58,65.27c0.71,1.22,1.32,2.06,2.06,2.83c0.96,1.01,1.92,1.74,3.06,2.38c-0.3,0.3-0.41,0.42-0.6,0.76
				c-0.73-0.49-1.03-0.72-1.62-1.24c-0.96-0.84-1.36-1.26-1.99-2.14c-0.4-0.54-0.61-0.9-1.09-1.8c0.04,0.56,0.06,1.1,0.06,1.55v3.9
				c0,0.56,0.02,1,0.08,1.38h-0.97c0.06-0.42,0.08-0.83,0.08-1.38v-3.9c0-0.4,0.02-1.01,0.05-1.5c-0.62,1.32-1.27,2.26-2.18,3.19
				c-0.73,0.74-1.45,1.37-2.32,1.97c-0.18-0.29-0.37-0.52-0.61-0.7c1.07-0.65,2.18-1.58,3.05-2.56c0.72-0.8,1.24-1.55,1.91-2.75
				h-3.23c-0.48,0-0.86,0.02-1.32,0.07v-0.86c0.41,0.06,0.79,0.08,1.31,0.08h3.35v-1.33c0-0.41-0.02-0.72-0.08-1.1h0.97
				c-0.06,0.37-0.08,0.72-0.08,1.09v1.34h3.53c0.62,0,1-0.02,1.36-0.08v0.86c-0.43-0.05-0.89-0.07-1.34-0.07H32.58z"/>
			<path d="M45.31,63.67c-0.88,1.19-1.5,2.74-1.5,4.92c0,2.14,0.66,3.66,1.5,4.86H44.5c-0.76-1-1.57-2.53-1.57-4.87
				c0.01-2.35,0.82-3.9,1.57-4.91H45.31z"/>
			<path d="M46.44,63.48h1.06v3.62h0.02c0.17-0.3,0.43-0.58,0.76-0.74c0.31-0.19,0.68-0.3,1.08-0.3c0.78,0,2.03,0.48,2.03,2.48V72
				h-1.06v-3.34c0-0.95-0.35-1.73-1.34-1.73c-0.68,0-1.21,0.48-1.42,1.06c-0.06,0.14-0.07,0.3-0.07,0.5V72h-1.06V63.48z"/>
			<path d="M53.6,65.12c-0.4,0-0.66-0.31-0.66-0.68s0.28-0.67,0.68-0.67c0.41,0,0.67,0.3,0.67,0.67s-0.26,0.68-0.68,0.68H53.6z
				 M53.1,72v-5.81h1.06V72H53.1z"/>
			<path d="M54.48,73.7c0.49-0.04,0.9-0.17,1.15-0.44c0.29-0.32,0.41-0.79,0.41-2.18v-4.88h1.06v5.29c0,1.13-0.18,1.86-0.7,2.39
				c-0.47,0.47-1.24,0.66-1.8,0.66L54.48,73.7z M56.54,65.12c-0.4,0-0.66-0.31-0.66-0.68s0.28-0.67,0.68-0.67
				c0.41,0,0.67,0.3,0.67,0.67s-0.25,0.68-0.68,0.68H56.54z"/>
			<path d="M59.33,65.12c-0.4,0-0.66-0.31-0.66-0.68s0.28-0.67,0.68-0.67c0.41,0,0.67,0.3,0.67,0.67s-0.26,0.68-0.68,0.68H59.33z
				 M58.82,72v-5.81h1.06V72H58.82z"/>
			<path d="M62.69,68.86h0.02c0.14-0.2,0.34-0.47,0.5-0.66l1.72-2h1.26l-2.24,2.39L66.5,72h-1.28l-1.99-2.8l-0.54,0.61V72h-1.06
				v-8.52h1.06V68.86z"/>
			<path d="M67.97,65.12c-0.4,0-0.66-0.31-0.66-0.68s0.28-0.67,0.68-0.67c0.41,0,0.67,0.3,0.67,0.67s-0.26,0.68-0.68,0.68H67.97z
				 M67.46,72v-5.81h1.06V72H67.46z"/>
			<path d="M69.63,73.45c0.84-1.19,1.5-2.74,1.5-4.9c0-2.16-0.65-3.68-1.5-4.88h0.82c0.76,0.98,1.57,2.53,1.57,4.88
				c-0.01,2.35-0.82,3.88-1.57,4.9H69.63z"/>
		</g>
	</g>
</svg>
