<?xml version="1.0" encoding="iso-8859-1"?>
<!-- Generator: Adobe Illustrator 11 Build 196, SVG Export Plug-In . SVG Version: 6.0.0 Build 78)  -->
<!DOCTYPE svg PUBLIC "-//W3C//DTD SVG 1.0//EN"    "http://www.w3.org/TR/2001/REC-SVG-20010904/DTD/svg10.dtd" [
	<!ENTITY ns_flows "http://ns.adobe.com/Flows/1.0/">
	<!ENTITY ns_svg "http://www.w3.org/2000/svg">
	<!ENTITY ns_xlink "http://www.w3.org/1999/xlink">
	<!ENTITY st0 "fill:none;stroke:#000000;stroke-linecap:round;stroke-linejoin:round;">
]>
<svg  xmlns="&ns_svg;" xmlns:xlink="&ns_xlink;" xmlns:a="http://ns.adobe.com/AdobeSVGViewerExtensions/3.0/"
	 width="163.32" height="191.48" viewBox="0 0 163.32 191.48" style="overflow:visible;enable-background:new 0 0 163.32 191.48"
	 xml:space="preserve">
	<g id="Pfade">
		<polygon style="&st0;" points="49.27,34.48 24.89,44.69 0.51,34.48 24.89,24.27 "/>
		<polygon style="&st0;" points="106.04,10.71 81.66,20.92 57.28,10.71 81.66,0.5 "/>
		<polygon style="&st0;" points="162.82,34.48 138.43,44.69 114.05,34.48 138.44,24.27 "/>
		<polygon style="&st0;" points="106.04,58.26 81.66,68.47 57.28,58.26 81.66,48.05 "/>
		<line style="&st0;" x1="0.51" y1="34.48" x2="0.51" y2="70.82"/>
		<line style="&st0;" x1="24.89" y1="44.69" x2="24.89" y2="67.06"/>
		<line style="&st0;" x1="49.27" y1="34.48" x2="49.27" y2="56.85"/>
		<line style="&st0;" x1="57.28" y1="58.26" x2="57.28" y2="80.62"/>
		<line style="&st0;" x1="81.66" y1="68.47" x2="81.66" y2="104.8"/>
		<line style="&st0;" x1="138.43" y1="44.69" x2="138.43" y2="67.06"/>
		<line style="&st0;" x1="162.82" y1="34.48" x2="162.82" y2="70.82"/>
		<line style="&st0;" x1="106.04" y1="10.71" x2="106.04" y2="33.07"/>
		<line style="&st0;" x1="81.66" y1="20.92" x2="81.66" y2="43.28"/>
		<line style="&st0;" x1="57.28" y1="10.71" x2="57.28" y2="33.07"/>
		<line style="&st0;" x1="114.05" y1="34.48" x2="114.05" y2="56.85"/>
		<line style="&st0;" x1="106.04" y1="58.26" x2="106.04" y2="80.62"/>
		<line style="&st0;" x1="106.04" y1="33.07" x2="113.83" y2="36.33"/>
		<line style="&st0;" x1="57.28" y1="33.07" x2="49.41" y2="36.37"/>
		<line style="&st0;" x1="49.27" y1="56.85" x2="24.89" y2="67.06"/>
		<line style="&st0;" x1="24.89" y1="67.06" x2="57.28" y2="80.62"/>
		<line style="&st0;" x1="114.05" y1="56.85" x2="138.43" y2="67.06"/>
		<line style="&st0;" x1="138.43" y1="67.06" x2="106.04" y2="80.62"/>
		<polyline style="&st0;" points="0.51,70.82 81.66,104.8 162.82,70.82 "/>
		<polyline style="&st0;" points="106.04,33.07 81.66,43.28 57.28,33.07 "/>
		<path style="&st0;" d="M0.5,70.82c8.2,3.51,19.8,12.02,19.8,18.81l61.36,25.69l61.36-25.69c0-6.78,11.6-15.29,19.8-18.81"/>
		<polygon style="&st0;" points="137.2,170.02 137.2,134.74 104.31,134.74 104.31,155.7 61.78,155.7 61.78,134.74 28.89,134.74 
			28.89,170.02 "/>
		<path style="&st0;" d="M137.2,170.02c-12.73,0-19.89,8.75-19.89,20.95H48.78c0-12.2-7.16-20.95-19.89-20.95"/>
		<line style="&st0;" x1="81.66" y1="104.8" x2="81.66" y2="115.32"/>
	</g>
</svg>
