<?xml version="1.0" encoding="iso-8859-1"?>
<!-- Generator: Adobe Illustrator 11 Build 196, SVG Export Plug-In . SVG Version: 6.0.0 Build 78)  -->
<!DOCTYPE svg PUBLIC "-//W3C//DTD SVG 1.0//EN"    "http://www.w3.org/TR/2001/REC-SVG-20010904/DTD/svg10.dtd" [
	<!ENTITY ns_flows "http://ns.adobe.com/Flows/1.0/">
	<!ENTITY ns_svg "http://www.w3.org/2000/svg">
	<!ENTITY ns_xlink "http://www.w3.org/1999/xlink">
	<!ENTITY st0 "fill:none;stroke:#000000;stroke-linecap:round;stroke-linejoin:round;">
]>
<svg  xmlns="&ns_svg;" xmlns:xlink="&ns_xlink;" xmlns:a="http://ns.adobe.com/AdobeSVGViewerExtensions/3.0/"
	 width="155.23" height="82" viewBox="0 0 155.23 82" style="overflow:visible;enable-background:new 0 0 155.23 82"
	 xml:space="preserve">
	<g id="Pfade">
		<polygon style="&st0;" points="139.48,0.5 50.48,0.5 35.48,18.69 30.48,24.75 25.48,30.81 10.48,49 49.48,49 62.48,49 75.48,49 
			114.48,49 123.86,30.81 126.98,24.75 130.11,18.69 "/>
		<line style="&st0;" x1="10.48" y1="70" x2="44.48" y2="70"/>
		<line style="&st0;" x1="137.48" y1="25.38" x2="139.48" y2="21.5"/>
		<polyline style="&st0;" points="75.48,70 114.48,70 123.86,51.81 "/>
		<line style="&st0;" x1="114.48" y1="49" x2="114.48" y2="70"/>
		<line style="&st0;" x1="139.48" y1="0.5" x2="139.48" y2="21.5"/>
		<line style="&st0;" x1="10.48" y1="49" x2="10.48" y2="70"/>
		<path style="&st0;" d="M25.48,30.81"/>
		<polyline style="&st0;" points="75.48,70 69.48,81.5 75.48,49 75.48,70 "/>
		<polygon style="&st0;" points="51.19,60.59 49.63,62.07 51.18,55.59 "/>
		<polygon style="&st0;" points="48.09,73.55 46.53,75.02 48.08,68.54 "/>
		<polygon style="&st0;" points="49.64,67.07 48.08,68.54 49.63,62.07 "/>
		<polygon style="&st0;" points="46.54,80.03 44.98,81.5 46.53,75.02 "/>
		<polyline style="&st0;" points="66.48,81.5 67.23,77.44 67.98,73.38 68.73,69.31 69.48,65.25 70.23,61.19 70.98,57.12 
			71.73,53.06 72.48,49 "/>
		<line style="&st0;" x1="66.48" y1="81.5" x2="69.48" y2="81.5"/>
		<path style="&st0;" d="M56.48,81.5"/>
		<line style="&st0;" x1="41.98" y1="81.5" x2="44.98" y2="81.5"/>
		<line style="&st0;" x1="41.98" y1="81.5" x2="49.48" y2="49"/>
		<line style="&st0;" x1="49.63" y1="62.07" x2="69.48" y2="62.07"/>
		<line style="&st0;" x1="49.64" y1="67.07" x2="68.98" y2="67.07"/>
		<line style="&st0;" x1="48.08" y1="68.54" x2="68.43" y2="68.54"/>
		<line style="&st0;" x1="48.09" y1="73.55" x2="67.43" y2="73.55"/>
		<line style="&st0;" x1="46.53" y1="75.02" x2="67.38" y2="75.02"/>
		<line style="&st0;" x1="46.54" y1="80.03" x2="66.38" y2="80.03"/>
		<line style="&st0;" x1="51.19" y1="60.59" x2="69.88" y2="60.59"/>
		<polygon style="&st0;" points="52.74,54.11 51.18,55.59 52.73,49.11 "/>
		<line style="&st0;" x1="52.48" y1="49" x2="72.86" y2="49"/>
		<line style="&st0;" x1="52.74" y1="54.11" x2="71.43" y2="54.11"/>
		<line style="&st0;" x1="51.18" y1="55.59" x2="70.87" y2="55.59"/>
		<polyline style="&st0;" points="123.86,51.81 148.84,51.81 123.86,31.29 123.86,51.81 "/>
		<polyline style="&st0;" points="149.04,41.37 154.07,41.37 149.04,37.25 149.04,41.37 "/>
		<polyline style="&st0;" points="129.08,24.96 134.11,24.96 129.08,20.84 129.08,24.96 "/>
		<polyline style="&st0;" points="134.11,29.08 139.14,29.08 134.11,24.96 134.11,29.08 "/>
		<polyline style="&st0;" points="139.14,33.19 144.16,33.19 139.14,29.08 139.14,33.19 "/>
		<polyline style="&st0;" points="144.02,37.25 149.04,37.25 144.02,33.13 144.02,37.25 "/>
		<line style="&st0;" x1="149.42" y1="50.28" x2="124.44" y2="29.74"/>
		<line style="&st0;" x1="154.73" y1="39.96" x2="129.75" y2="19.44"/>
		<line style="&st0;" x1="149.42" y1="50.28" x2="148.84" y2="51.81"/>
		<line style="&st0;" x1="154.73" y1="39.96" x2="154.04" y2="41.35"/>
		<line style="&st0;" x1="149.04" y1="41.37" x2="146.01" y2="47.25"/>
		<line style="&st0;" x1="149.04" y1="37.25" x2="144.48" y2="46.1"/>
		<line style="&st0;" x1="144.02" y1="37.25" x2="141.01" y2="43.08"/>
		<line style="&st0;" x1="144.02" y1="33.13" x2="139.49" y2="41.91"/>
		<line style="&st0;" x1="139.14" y1="33.19" x2="136.09" y2="39.1"/>
		<line style="&st0;" x1="139.14" y1="29.08" x2="134.64" y2="37.79"/>
		<line style="&st0;" x1="134.11" y1="29.08" x2="131.08" y2="34.96"/>
		<line style="&st0;" x1="134.11" y1="24.96" x2="129.58" y2="33.74"/>
		<line style="&st0;" x1="129.08" y1="24.96" x2="126.02" y2="30.91"/>
		<polyline style="&st0;" points="9.98,51.34 0.5,51.34 25.48,30.81 "/>
		<line style="&st0;" x1="9.27" y1="40.89" x2="34.01" y2="20.53"/>
		<polyline style="&st0;" points="10.48,40.89 9.27,40.89 14.3,36.77 "/>
		<line style="&st0;" x1="30.65" y1="24.48" x2="29.23" y2="24.48"/>
		<polyline style="&st0;" points="25.39,28.6 24.2,28.6 29.23,24.48 29.23,26.17 "/>
		<polyline style="&st0;" points="20.54,32.41 19.36,32.41 24.39,28.29 24.39,29.97 "/>
		<line style="&st0;" x1="19.18" y1="32.72" x2="24.2" y2="28.6"/>
		<polyline style="&st0;" points="15.72,36.77 14.3,36.77 19.33,32.66 "/>
		<line style="&st0;" x1="2.24" y1="49.23" x2="26.83" y2="29.17"/>
		<line style="&st0;" x1="10.5" y1="39.21" x2="35.48" y2="18.69"/>
		<line style="&st0;" x1="9.27" y1="40.89" x2="34.01" y2="20.53"/>
		<line style="&st0;" x1="2.24" y1="49.23" x2="0.5" y2="51.34"/>
		<line style="&st0;" x1="10.5" y1="39.21" x2="9.39" y2="40.56"/>
		<line style="&st0;" x1="14.3" y1="36.77" x2="7.15" y2="45.67"/>
		<line style="&st0;" x1="24.2" y1="28.6" x2="15.43" y2="39.05"/>
		<line style="&st0;" x1="29.23" y1="24.48" x2="20.46" y2="34.93"/>
		<line style="&st0;" x1="19.33" y1="32.66" x2="10.55" y2="43.1"/>
		<polygon style="&st0;" points="126.58,5.35 55.38,5.35 43.38,19.9 39.38,24.75 35.38,29.6 23.38,44.15 54.58,44.15 64.98,44.15 
			75.38,44.15 106.58,44.15 114.08,29.6 116.58,24.75 119.08,19.9 "/>
		<rect x="78.98" y="52.5" style="&st0;" width="32" height="14"/> 
		<polygon style="&st0;" points="121.98,51.5 121.98,37.5 116.48,49 116.48,63 "/>
		<polyline style="&st0;" points="136.03,24.3 137.73,20.75 137.73,6.75 132.23,18.25 132.23,21.08 "/>
		<polyline style="&st0;" points="45.2,66.5 13.98,66.5 13.98,52.5 45.98,52.5 45.98,64.17 "/>
	</g>
</svg>
