<?xml version="1.0" encoding="iso-8859-1"?>
<!-- Generator: Adobe Illustrator 11 Build 196, SVG Export Plug-In . SVG Version: 6.0.0 Build 78)  -->
<!DOCTYPE svg PUBLIC "-//W3C//DTD SVG 1.0//EN"    "http://www.w3.org/TR/2001/REC-SVG-20010904/DTD/svg10.dtd" [
	<!ENTITY ns_flows "http://ns.adobe.com/Flows/1.0/">
	<!ENTITY ns_svg "http://www.w3.org/2000/svg">
	<!ENTITY ns_xlink "http://www.w3.org/1999/xlink">
	<!ENTITY st0 "fill:#E3E3E3;stroke:#000000;">
	<!ENTITY st1 "fill:#302D29;">
	<!ENTITY st2 "fill:#35312D;">
	<!ENTITY st3 "fill:#FFFFFF;stroke:#000000;">
]>
<svg  xmlns="&ns_svg;" xmlns:xlink="&ns_xlink;" xmlns:a="http://ns.adobe.com/AdobeSVGViewerExtensions/3.0/"
	 width="172.51" height="182.33" viewBox="0 0 172.51 182.33" style="overflow:visible;enable-background:new 0 0 172.51 182.33"
	 xml:space="preserve">
	<g id="Layer_1">
		<path style="&st0;" d="M65.89,2.52c-5.53,0.5-21.11,5.03-30.67,12.57S8.08,35.19,3.05,59.83c-5.03,24.63-3.02,51.59,9.55,67.67
			c12.57,16.09,20.31,28.9,24.13,32.17c7.04,6.03,10.96,12.82,12.07,15.08c2.39,4.9,21.11,7.08,41.22,7.08
			c20.11,0,32.05-0.67,37.2-8.59c1.84-2.83,5.53-11.56,11.56-16.59c3.02-2.51,11.64-11.33,23.12-26.65
			c10.56-14.08,13.02-57.26,6.54-75.72c-6.54-18.6-32.9-39.83-46.75-46.75C106.61,0,86.5,0.51,79.46,0.51
			C72.43,0.51,65.89,2.52,65.89,2.52z"/>
		<path style="&st3;" d="M24.17,98.41c-8.4-3.53-9.55-13.64-9.05-24.19c0.5-10.56,7.89-31.08,14.58-36.2
			c8.55-6.54,39.21-7.54,49.27-7.54s33.18-0.5,43.74,1.01c10.56,1.51,19.1,3.52,23.63,12.07c4.53,8.55,14.08,39.71,9.05,48.26
			c-4.54,7.72-4.52,8.55-18.6,5.53c-14.08-3.02-53.79-3.02-63.85-3.02s-24.13,1.51-32.17,3.02C36.73,98.09,31.2,101.36,24.17,98.41z
			"/>
		<path style="&st3;" d="M51.95,72.36c-3.31-0.37-11.41-4.78-11.04-11.78c0.37-6.99,5.52-12.88,11.78-13.25
			c6.26-0.37,13.25,2.94,13.98,8.83c0.74,5.89-1.47,11.41-5.52,13.62S51.95,72.36,51.95,72.36z"/>
		<path style="&st1;" d="M38.49,77.73c-0.88-0.38-4.78-4.78-7.16-5.28s-5.28-0.25-6.66,0.38c-1.38,0.63-4.65,5.53-4.52,8.92
			c0.13,3.39,2.26,7.04,3.77,7.42c1.51,0.38,4.9,0.88,6.79-0.38c1.89-1.26,3.65-2.26,3.39-1.76c-0.25,0.5-5.15,4.15-6.91,4.78
			c-1.76,0.63-5.78,0-7.79-0.63c-2.01-0.63-4.42-6.95-3.77-10.43c0.75-4.02,2.64-8.67,6.41-10.05c3.77-1.38,6.66-2.64,8.92-1.38
			c2.26,1.26,3.77,2.77,5.15,4.4C37.49,75.34,38.49,77.73,38.49,77.73z"/>
		<path style="&st1;" d="M135.27,46.56c-1.76,0-10.3,1.76-10.3,1.76l11.31-0.5c0,0-9.05,2.01-9.8,2.76
			c-0.75,0.75,9.05-1.51,10.05,0.5c1.01,2.01,1.01,2.01,1.01,2.01s-11.56,0-12.32,0.25c-0.75,0.25,11.06,0,12.07,2.51
			c1.01,2.51-10.56-0.25-11.81-0.25c-1.26,0,11.81,1.76,12.32,3.27s4.53-3.77,4.53-3.77L135.27,46.56z"/>
		<path style="&st3;" d="M113.77,72.36c3.31-0.37,11.41-4.78,11.04-11.78c-0.37-6.99-5.52-12.88-11.78-13.25
			c-6.26-0.37-13.25,2.94-13.98,8.83c-0.74,5.89,1.47,11.41,5.52,13.62C108.61,71.99,113.77,72.36,113.77,72.36z"/>
		<g>
			<path style="&st2;" d="M51.95,65.73c-3.31-1.1-5.52-2.94-4.42-7.73c1.1-4.78,3.68-7.36,7.73-6.26c4.05,1.1,6.26,5.15,4.78,8.46
				c-1.47,3.31-0.69,2.16-2.21,3.68C56,65.73,51.95,65.73,51.95,65.73z"/>
			<path style="&st2;" d="M113.77,65.73c3.31-1.1,5.52-2.94,4.42-7.73c-1.1-4.78-3.68-7.36-7.73-6.26c-4.05,1.1-6.26,5.15-4.78,8.46
				c1.47,3.31,0.69,2.16,2.21,3.68C109.72,65.73,113.77,65.73,113.77,65.73z"/>
		</g>
		<path d="M77.33,78.74c-0.25-2.77-6.54-11.31-10.05-7.54c-3.52,3.77-5.78,9.55-5.78,10.81s4.78,1.51,13.32,1.51
			c8.55,0,29.23-0.75,30.23-1.26c1.01-0.5-0.52-5.06-3.52-9.05c-1.51-2.01-2.77-2.51-4.53-1.76c-1.96,0.84-4.02,7.29-4.02,7.29
			s0.76-3.77,1.26-6.03c0.5-2.26,3.77-4.52,6.28-3.27c2.51,1.26,6.28,6.03,6.79,9.05c0.5,3.02,0.5,5.28,0.5,5.28
			s-26.72,1.76-32.5,1.51c-5.78-0.25-15.58-2.01-15.58-2.01s1.76-8.29,5.03-11.31c3.27-3.02,4.47-4.11,7.39-1.81
			c2.92,2.31,3.17,3.06,3.92,4.57C76.83,76.22,77.33,78.74,77.33,78.74z"/>
		<g>
			<path d="M82.7,129.99c-0.91,1.83-1.52,6.08-0.61,11.25c0.91,5.17,1.82,8.82,2.74,8.21c0.91-0.61-0.61-5.78-0.91-7.6
				c-0.3-1.82-0.61-8.82,0.3-10.65C85.13,129.38,82.7,129.99,82.7,129.99z"/>
			<path d="M14.11,127c-0.88-2.39-3.64-8.42-0.13-10.43c3.52-2.01,4.78-2.01,4.78,0.25c0,2.26-2.01,5.28-1.26,10.05
				c0.75,4.78,1.26,7.54,1.26,7.54s-2.26-2.76-3.27-4.02C14.49,129.13,14.11,127,14.11,127z"/>
			<path d="M26.3,142.2c-2.26-3.27-3.27-18.35-3.02-21.87c0.25-3.52,2.26-7.79,5.03-7.04c2.76,0.75,3.77,1.76,3.02,4.52
				c-0.75,2.76-2.51,6.03-2.51,11.31c0,5.28-0.25,10.56,0.25,14.58c0.5,4.02,2.01,6.29,0.5,4.53C28.06,146.48,26.3,142.2,26.3,142.2
				z"/>
			<path d="M40.13,153.77c-1.76-2.26-5.03-12.82-4.78-20.36c0.25-7.54,3.52-20.61,5.28-21.62c1.76-1,5.28-2.26,5.28,1
				c0,3.27-2.51,9.55-4.27,15.83c-1.76,6.29-3.25,11.69-2.01,17.6C40.63,151,40.13,153.77,40.13,153.77z"/>
			<path d="M51.94,154.77c-2.01-3.77-3.52-30.41-2.01-36.7s4.52-8.8,5.53-6.03c1.01,2.76-1.51,9.3-2.01,15.08
				c-0.5,5.78-1.51,17.85-0.75,22.12c0.75,4.27,1.26,7.04,0.5,6.79C52.44,155.78,51.94,154.77,51.94,154.77z"/>
			<path d="M160.61,127c0.88-2.39,3.65-8.42,0.13-10.43c-3.52-2.01-4.78-2.01-4.78,0.25c0,2.26,2.01,5.28,1.26,10.05
				c-0.75,4.78-1.26,7.54-1.26,7.54s2.26-2.76,3.27-4.02C160.24,129.13,160.61,127,160.61,127z"/>
			<path d="M148.42,142.2c2.26-3.27,3.27-18.35,3.02-21.87c-0.25-3.52-2.26-7.79-5.03-7.04c-2.76,0.75-3.77,1.76-3.02,4.52
				c0.75,2.76,2.51,6.03,2.51,11.31c0,5.28,0.25,10.56-0.25,14.58c-0.5,4.02-2.01,6.29-0.5,4.53S148.42,142.2,148.42,142.2z"/>
			<path d="M134.6,153.77c1.76-2.26,5.03-12.82,4.78-20.36c-0.25-7.54-3.52-20.61-5.28-21.62c-1.76-1-5.28-2.26-5.28,1
				c0,3.27,2.51,9.55,4.27,15.83c1.76,6.29,3.25,11.69,2.01,17.6C134.1,151,134.6,153.77,134.6,153.77z"/>
			<path d="M122.79,154.77c2.01-3.77,3.52-30.41,2.01-36.7c-1.51-6.28-4.53-8.8-5.53-6.03c-1,2.76,1.51,9.3,2.01,15.08
				c0.5,5.78,1.51,17.85,0.75,22.12c-0.75,4.27-1.26,7.04-0.5,6.79C122.28,155.78,122.79,154.77,122.79,154.77z"/>
			<path d="M73.27,126.95c-1.22-0.61-8.52-5.78-3.04-7.6c5.47-1.83,7,0.61,8.21,3.04c1.22,2.43,0.61,7-0.3,8.52
				c-0.91,1.52-0.91,11.56,0.61,14.29c1.52,2.74,1.82,8.52-0.3,8.21s-4.87-11.56-4.87-15.51C73.57,133.94,73.27,126.95,73.27,126.95
				z"/>
			<path d="M74.18,128.16c-2.13,0.3-16.12,7-13.08,7.6c3.04,0.61,10.04-3.35,10.04-3.35s-6.39,3.95-6.39,8.52s3.65,4.87,5.47,3.04
				c1.82-1.82,5.17-5.17,5.17-5.17s-4.26,4.26-6.08,3.65c-1.82-0.61-1.52-6.08,0-6.39c1.52-0.3,4.87-5.17,4.87-5.17V128.16z"/>
			<path d="M85.44,124.82c-2.13,0.61-5.47,2.74-4.87,0.91c0.61-1.82,9.12-8.82,14.3-7.91s7.91,5.47,6.69,7
				c-1.22,1.52-4.26,1.52-7.6,0.91C90.61,125.12,85.44,124.82,85.44,124.82z"/>
			<path d="M84.22,131.2c1.82,0.31,8.82-3.04,10.34-0.91c1.52,2.13,1.52,2.74-0.61,3.35s-11.86,2.43-9.73,3.35s9.73-1.22,11.86-1.82
				c2.13-0.61,2.43-5.17,0.91-6.39c-1.52-1.22-8.21-0.3-10.65,0.3c-2.43,0.61-3.35,1.83-3.35,1.83L84.22,131.2z"/>
			<path d="M83.92,141.85c1.52-0.61,9.12-4.26,12.77-3.04c3.65,1.22,8.21,6.08,3.65,9.43c-4.56,3.35-14.3,3.65-14.9,2.43
				c-0.61-1.22-2.13,2.13,0,2.43c2.13,0.3,8.82,0.91,14.9-1.82c6.08-2.74,6.99-10.65,3.95-12.47c-3.04-1.83-7.3-3.96-12.47-2.43
				c-5.17,1.52-7.91,0.91-8.52,2.43C82.7,140.33,83.92,141.85,83.92,141.85z"/>
			<path d="M86.96,149.15c1.52-0.61,3.95-4.87,4.56-6.99c0.61-2.13,3.04-4.56,3.65-1.83c0.61,2.74-0.91,5.17-3.35,7.3
				C89.39,149.76,86.96,149.15,86.96,149.15z"/>
			<path d="M86.35,143.98c2.13,0,5.78,2.43,8.21,3.95c2.43,1.52,1.22,3.65,4.56,0.91c3.35-2.74,3.35-1.82,0.3-3.65
				c-3.04-1.82-11.56-4.26-13.08-4.26C84.83,140.94,86.35,143.98,86.35,143.98z"/>
			<path d="M147.69,46.74c0.71-1.33,3.14-4.31,3.33-7.91c0.2-3.59,0.8-5.27,0.38-6.63c-0.42-1.36-0.61-2.6,0.94-1.78
				s2.94,4.12,1.74,7.46c-1.2,3.35-2.05,6.02-3.32,7.34c-1.27,1.32-3.23,3.41-4.13,3.5C145.73,48.83,147.69,46.74,147.69,46.74z"/>
			<path d="M158.14,75.72c3.52-1.01,8.55-8.29,9.55-11.31c1.01-3.02,1.51-9.3-0.25-8.8c-1.76,0.5-0.75,6.03-2.51,8.29
				c-1.76,2.26-2.26,7.79-3.77,8.29C159.65,72.7,158.14,75.72,158.14,75.72z"/>
			<path d="M154.27,62.59c3.32-1.46,9.47-12.37,9.3-15.72c-0.17-3.35-1.72-6.17-2.63-5.31c-0.92,0.86-0.9,3.67-2.23,8.29
				c-1.33,4.62-1.24,8.46-2.74,9.73C154.47,60.83,154.27,62.59,154.27,62.59z"/>
			<path d="M158.14,83.26c1.76,0,11.06-12.82,12.07-10.81c1,2.01-0.75,6.03-2.01,6.79c-1.26,0.75-8.8,5.53-10.05,5.78
				C156.88,85.27,158.14,83.26,158.14,83.26z"/>
			<path d="M156.38,92.56c2.51-1,9.3-4.52,10.81-7.04s3.02-3.77,3.27-1.76c0.25,2.01-0.25,5.78-4.02,6.79
				c-3.77,1.01-7.54,3.27-8.8,3.27S156.38,92.56,156.38,92.56z"/>
			<path d="M21.59,46.74c-0.64-1.33-2.82-4.31-3-7.91c-0.18-3.59-0.72-5.27-0.34-6.63c0.38-1.36,0.55-2.6-0.85-1.78
				c-1.4,0.82-2.65,4.12-1.56,7.46c1.08,3.35,1.85,6.02,2.99,7.34c1.14,1.32,2.91,3.41,3.72,3.5
				C23.35,48.83,21.59,46.74,21.59,46.74z"/>
			<path d="M12.19,75.72c-3.17-1-7.69-8.29-8.6-11.31c-0.91-3.02-1.36-9.3,0.23-8.8c1.58,0.5,0.68,6.03,2.26,8.29
				c1.58,2.26,2.04,7.79,3.39,8.29C10.83,72.7,12.19,75.72,12.19,75.72z"/>
			<path d="M15.67,62.59c-2.99-1.46-8.53-12.37-8.37-15.72c0.16-3.35,1.55-6.17,2.37-5.31s0.81,3.67,2.01,8.29
				c1.19,4.62,1.11,8.46,2.46,9.73C15.49,60.83,15.67,62.59,15.67,62.59z"/>
			<path d="M12.19,83.26c-1.58,0-9.95-12.82-10.86-10.81s0.68,6.03,1.81,6.79c1.13,0.75,7.92,5.53,9.05,5.78
				C13.32,85.27,12.19,83.26,12.19,83.26z"/>
			<path d="M13.77,92.56c-2.26-1-8.37-4.52-9.73-7.04s-2.71-3.77-2.94-1.76c-0.23,2.01,0.23,5.78,3.62,6.79
				c3.39,1.01,6.79,3.27,7.92,3.27C13.77,93.82,13.77,92.56,13.77,92.56z"/>
		</g>
		<g>
			<path style="&st1;" d="M68.66,42.29c-0.75,1.26-4.52,5.78-7.29,5.53c-2.76-0.25-19.35-5.03-21.62-4.78
				c-2.26,0.25-10.05,3.27-10.56,8.04c-0.5,4.78-1.76,10.05,1.51,9.55c3.27-0.5,5.78-1.26,5.78-1.76s-1.51,6.03-7.29,5.28
				c-5.78-0.75-8.55-5.03-8.04-10.05c0.5-5.03,3.27-13.32,7.79-15.08c4.52-1.76,6.28-3.52,9.55-2.26s8.04,4.78,11.31,6.03
				c3.27,1.26,11.81,3.52,13.32,2.77C64.63,44.8,68.66,42.29,68.66,42.29z"/>
			<path style="&st1;" d="M30.45,46.56c1.76,0,9.05,0.75,9.05,0.75l-10.05,0.5c0,0,7.01,1.75,8.04,2.01
				c3.02,0.75-7.29-0.75-8.29,1.26c-1.01,2.01-1.01,2.01-1.01,2.01s7.54-0.75,8.3-0.5c0.75,0.25-7.04,0.75-8.04,3.27
				c-1.01,2.51,6.54,0,7.79,0c1.26,0-7.79,1.51-8.29,3.02c-0.5,1.51-4.52-3.77-4.52-3.77L30.45,46.56z"/>
			<path style="&st1;" d="M22.15,51.59c-1.01,2.51-3.27,6.79-3.27,11.56c0,4.78,0,6.03,0,6.03s-1.76-6.54-0.75-11.31
				s1.51-8.04,4.78-11.81c3.27-3.77,3.52-1.01,3.52-1.01L22.15,51.59z"/>
			<path style="&st1;" d="M54.2,86.78c-1.51,0-16.09,2.76-19.35,5.03c-3.27,2.26-6.79,3.27-9.05,3.27c-2.26,0-6.54,0.5-4.02,1.51
				s5.78,2.26,8.8,1.51c3.02-0.75,11.31-6.54,15.33-7.54c4.02-1.01,13.82-2.51,15.58-3.27C63.25,86.53,54.2,86.78,54.2,86.78z"/>
			<path style="&st1;" d="M93.29,42.04c0.75,1.26,6.79,7.29,9.55,7.04c2.76-0.25,20.86-6.28,23.12-6.03
				c2.26,0.25,10.05,3.27,10.56,8.04c0.5,4.78,1.76,10.05-1.51,9.55c-3.27-0.5-5.78-1.26-5.78-1.76s1.51,6.03,7.29,5.28
				c5.78-0.75,8.55-5.03,8.04-10.05c-0.5-5.03-3.27-13.32-7.79-15.08c-4.53-1.76-8.8-2.51-12.07-1.26c-3.27,1.26-5.53,4.78-8.8,6.03
				c-3.27,1.26-11.44,2.89-13.32,3.27C100.94,47.4,93.29,42.04,93.29,42.04z"/>
			<path style="&st1;" d="M143.56,51.59c1.01,2.51,3.27,6.79,3.27,11.56c0,4.78,0,6.03,0,6.03s1.76-6.54,0.75-11.31
				c-1.01-4.78-1.51-8.04-4.78-11.81c-3.27-3.77-3.52-1.01-3.52-1.01L143.56,51.59z"/>
			<path style="&st1;" d="M127.22,77.73c0.88-0.38,4.77-4.78,7.16-5.28c2.39-0.5,5.28-0.25,6.66,0.38c1.38,0.63,4.65,5.53,4.52,8.92
				c-0.13,3.39-2.26,7.04-3.77,7.42s-4.9,0.88-6.79-0.38c-1.88-1.26-3.64-2.26-3.39-1.76c0.25,0.5,5.15,4.15,6.91,4.78
				c1.76,0.63,5.78,0,7.79-0.63s4.42-6.95,3.77-10.43c-0.76-4.02-2.64-8.67-6.41-10.05c-3.77-1.38-6.66-2.64-8.92-1.38
				c-2.26,1.26-3.77,2.77-5.15,4.4C128.23,75.34,127.22,77.73,127.22,77.73z"/>
			<path style="&st1;" d="M139.98,71.7c-1.62,0.25-3.04-0.42-5.1,1.13c-2,1.51-3.53,2.39-2.72,2.51c0.81,0.13,4.37-2.39,5.78-2.51
				c1.42-0.13,2.83,0.88,2.83,0.88s-1.47-0.74-3.84,0.5c-2.17,1.13-3.31,1.68-2.63,1.76c1.01,0.13,6.68-1.26,7.89-1.26
				s-4.05,1-4.65,1.38c-0.61,0.38,2.83-0.25,4.86-0.25c2.02,0-3.44,1.13-4.25,1.51s4.05-0.5,5.46-0.38
				c1.42,0.13,2.03,0.63,2.03,0.63s-4.66,0.38-5.47,0.88s3.44-0.13,4.45-0.13c1.01,0-4.45,1-4.65,1.51c-0.2,0.5,3.64-0.38,4.86-0.38
				s1.21,1.13,1.21,1.13s-2.23,0.25-3.85,0.38c-1.62,0.13-3.04-0.13-2.43,0.25s6.28,0.5,6.28,0.5s-1.62,0.63-2.83,0.63
				s-4.05-0.13-3.04,0.25c1.01,0.38,4.86,0.38,5.87,0.5s-2.43,0.75-3.64,0.75c-1.21,0-3.24-0.13-2.83,0.38
				c0.41,0.5,6.07,0.25,6.07,0.25s-1.82,1.13-3.85,1.51c-2.03,0.38-3.44,0.25-4.05,0.63c-0.61,0.38,2.83,0.63,4.45,0.25
				c1.62-0.38,4.25-0.63,4.25-0.63s-6.88,2.01-8.7,1.76s-2.78-0.75-2.78-0.75s2.9,1.76,5.13,1.51c2.23-0.25,8.17-2.39,8.17-2.39
				l-1.82-11.94L139.98,71.7z"/>
			<path style="&st1;" d="M111.51,86.78c1.51,0,16.09,2.76,19.35,5.03c3.27,2.26,6.79,3.27,9.05,3.27c2.26,0,6.53,0.5,4.02,1.51
				c-2.51,1.01-5.78,2.26-8.8,1.51c-3.02-0.75-11.31-6.54-15.33-7.54c-4.02-1.01-13.82-2.51-15.58-3.27
				C102.46,86.53,111.51,86.78,111.51,86.78z"/>
			<path style="&st1;" d="M74.81,44.93c-3.94-1.02-8.04-3.52-12.57-6.54c-4.52-3.02-5.53-4.27-4.52-6.03
				c1.15-2.01,2.77-1.51,5.03,0.75c2.26,2.26,1.26,4.27,4.27,6.28C70.04,41.41,74.81,44.93,74.81,44.93z"/>
			<path style="&st1;" d="M89.39,44.93c3.94-1.02,8.04-3.52,12.57-6.54c4.52-3.02,5.53-4.27,4.52-6.03
				c-1.15-2.01-2.76-1.51-5.03,0.75c-2.26,2.26-1.26,4.27-4.27,6.28C94.17,41.41,89.39,44.93,89.39,44.93z"/>
			<path style="&st1;" d="M75.07,88.04c-1.51,0-9.8,1.51-12.32,3.27c-2.51,1.76-2.76,2.01-5.53,2.26c-2.77,0.25-3.52,0.5-1.51,1
				c2.01,0.5,6.28-0.5,7.79-1.26c1.51-0.75,5.53-3.02,7.79-3.27C73.56,89.8,75.07,88.04,75.07,88.04z"/>
			<path style="&st1;" d="M82.36,88.04c-1.26,0.25-2.01,1.51-3.52,2.77c-1.51,1.26-2.01,1.76-3.77,2.01
				c-1.76,0.25-3.02,2.26-1.01,1.76c2.01-0.5,5.28-2.01,6.28-3.52C81.35,89.54,82.36,88.04,82.36,88.04z"/>
			<path style="&st1;" d="M86.38,87.79c1.01,0.25,3.27,1.26,4.27,2.77c1.01,1.51,3.52,2.01,4.78,2.26c1.26,0.25,0.75,1.01-1,1.01
				c-1.76,0-4.27-1.51-5.28-2.51C88.14,90.3,86.38,87.79,86.38,87.79z"/>
			<path style="&st1;" d="M94.17,88.29c2.51,0,8.55,1.76,10.31,3.27c1.76,1.51,1,2.01,5.53,2.51c4.52,0.5,5.03-1.26,5.03-1.26
				s-4.27,0-7.04-1.51c-2.76-1.51-7.04-3.27-9.8-3.27S94.17,88.29,94.17,88.29z"/>
			<path style="&st1;" d="M25.99,71.7c1.62,0.25,3.04-0.42,5.1,1.13c2,1.51,3.53,2.39,2.72,2.51c-0.81,0.13-4.37-2.39-5.78-2.51
				s-2.83,0.88-2.83,0.88s1.47-0.74,3.85,0.5c2.16,1.13,3.31,1.68,2.63,1.76c-1.01,0.13-6.68-1.26-7.89-1.26
				c-1.21,0,4.05,1,4.66,1.38s-2.83-0.25-4.86-0.25c-2.02,0,3.44,1.13,4.25,1.51s-4.05-0.5-5.47-0.38s-2.02,0.63-2.02,0.63
				s4.66,0.38,5.47,0.88s-3.44-0.13-4.45-0.13s4.45,1,4.66,1.51c0.2,0.5-3.64-0.38-4.86-0.38c-1.21,0-1.21,1.13-1.21,1.13
				s2.23,0.25,3.85,0.38c1.62,0.13,3.04-0.13,2.43,0.25s-6.27,0.5-6.27,0.5s1.62,0.63,2.83,0.63c1.21,0,4.05-0.13,3.04,0.25
				c-1.01,0.38-4.86,0.38-5.87,0.5c-1.01,0.13,2.43,0.75,3.64,0.75c1.21,0,3.24-0.13,2.83,0.38c-0.4,0.5-6.07,0.25-6.07,0.25
				s1.82,1.13,3.85,1.51c2.02,0.38,3.44,0.25,4.05,0.63c0.61,0.38-2.83,0.63-4.45,0.25s-4.25-0.63-4.25-0.63s6.88,2.01,8.7,1.76
				c1.82-0.25,2.78-0.75,2.78-0.75s-2.9,1.76-5.13,1.51s-8.17-2.39-8.17-2.39l1.82-11.94L25.99,71.7z"/>
		</g>
	</g>
</svg>
