<?xml version="1.0" encoding="iso-8859-1"?>
<!-- Generator: Adobe Illustrator 11 Build 196, SVG Export Plug-In . SVG Version: 6.0.0 Build 78)  -->
<!DOCTYPE svg PUBLIC "-//W3C//DTD SVG 1.0//EN"    "http://www.w3.org/TR/2001/REC-SVG-20010904/DTD/svg10.dtd" [
	<!ENTITY ns_flows "http://ns.adobe.com/Flows/1.0/">
	<!ENTITY ns_svg "http://www.w3.org/2000/svg">
	<!ENTITY ns_xlink "http://www.w3.org/1999/xlink">
	<!ENTITY st0 "fill:none;stroke:#000000;stroke-linecap:round;stroke-linejoin:round;">
]>
<svg  xmlns="&ns_svg;" xmlns:xlink="&ns_xlink;" xmlns:a="http://ns.adobe.com/AdobeSVGViewerExtensions/3.0/"
	 width="239.25" height="180" viewBox="0 0 239.25 180" style="overflow:visible;enable-background:new 0 0 239.25 180"
	 xml:space="preserve">
	<g id="Pfade">
		<line style="&st0;" x1="0.5" y1="6.5" x2="33.25" y2="32.75"/>
		<g>
			<rect x="33.25" y="26.75" style="&st0;" width="3" height="3"/> 
			<rect x="57.75" y="32.77" style="&st0;" width="3" height="104.73"/> 
			<polyline style="&st0;" points="0.5,3.5 0.5,0.5 3.5,0.5 "/>
			<line style="&st0;" x1="0.5" y1="6.5" x2="0.5" y2="3.5"/>
			<line style="&st0;" x1="0.5" y1="3.5" x2="33.25" y2="29.75"/>
			<line style="&st0;" x1="0.5" y1="0.5" x2="33.25" y2="26.75"/>
			<line style="&st0;" x1="3.5" y1="0.5" x2="36.25" y2="26.75"/>
		</g>
		<g>
			<rect x="73.75" y="26.75" style="&st0;" width="3" height="3"/> 
			<rect x="42.25" y="32.75" style="&st0;" width="3" height="124.25"/> 
			<polyline style="&st0;" points="41,3.5 41,0.5 44,0.5 "/>
			<line style="&st0;" x1="41" y1="3.5" x2="73.75" y2="29.75"/>
			<line style="&st0;" x1="41" y1="0.5" x2="73.75" y2="26.75"/>
			<line style="&st0;" x1="44" y1="0.5" x2="76.75" y2="26.75"/>
		</g>
		<g>
			<rect x="114.25" y="26.75" style="&st0;" width="3" height="3"/> 
			<polyline style="&st0;" points="81.5,3.5 81.5,0.5 84.5,0.5 "/>
			<line style="&st0;" x1="81.5" y1="3.5" x2="114.25" y2="29.75"/>
			<line style="&st0;" x1="81.5" y1="0.5" x2="114.25" y2="26.75"/>
			<line style="&st0;" x1="84.5" y1="0.5" x2="117.25" y2="26.75"/>
		</g>
		<g>
			<rect x="154.75" y="26.75" style="&st0;" width="3" height="3"/> 
			<polyline style="&st0;" points="122,3.5 122,0.5 125,0.5 "/>
			<line style="&st0;" x1="122" y1="3.5" x2="154.75" y2="29.75"/>
			<line style="&st0;" x1="122" y1="0.5" x2="154.75" y2="26.75"/>
			<line style="&st0;" x1="125" y1="0.5" x2="157.75" y2="26.75"/>
		</g>
		<g>
			<rect x="195.25" y="26.75" style="&st0;" width="3" height="3"/> 
			<polyline style="&st0;" points="162.5,3.5 162.5,0.5 165.5,0.5 "/>
			<line style="&st0;" x1="162.5" y1="3.5" x2="195.25" y2="29.75"/>
			<line style="&st0;" x1="162.5" y1="0.5" x2="195.25" y2="26.75"/>
			<line style="&st0;" x1="165.5" y1="0.5" x2="198.25" y2="26.75"/>
		</g>
		<g>
			<rect x="235.75" y="26.75" style="&st0;" width="3" height="3"/> 
			<polyline style="&st0;" points="203,3.5 203,0.5 206,0.5 "/>
			<line style="&st0;" x1="203" y1="3.5" x2="235.75" y2="29.75"/>
			<line style="&st0;" x1="203" y1="0.5" x2="235.75" y2="26.75"/>
			<line style="&st0;" x1="206" y1="0.5" x2="238.75" y2="26.75"/>
		</g>
		<line style="&st0;" x1="7.31" y1="3.5" x2="41" y2="3.5"/>
		<line style="&st0;" x1="47.81" y1="3.5" x2="81.5" y2="3.5"/>
		<line style="&st0;" x1="88.34" y1="3.5" x2="122" y2="3.5"/>
		<line style="&st0;" x1="128.81" y1="3.5" x2="162.5" y2="3.5"/>
		<line style="&st0;" x1="169.25" y1="3.5" x2="203" y2="3.5"/>
		<rect x="33.25" y="29.75" style="&st0;" width="205.5" height="3"/> 
		<rect x="33.25" y="32.75" style="&st0;" width="3" height="5"/> 
		<path style="&st0;" d="M0.5,6.5v13c11.75,3.25,22,10.75,32.75,18.25"/>
		<path style="&st0;" d="M18,28v151.5c4.25-0.5,19.75-21,24.25-22.5"/>
		<path style="&st0;" d="M21,179.5c4.25-0.5,19.75-21,24.25-22.5"/>
		<line style="&st0;" x1="18" y1="179.5" x2="21" y2="179.5"/>
		<rect x="216.25" y="32.75" style="&st0;" width="3" height="124.25"/> 
		<path style="&st0;" d="M192,151.5v28c4.25-0.5,19.75-21,24.25-22.5"/>
		<path style="&st0;" d="M195,179.5c4.25-0.5,19.75-21,24.25-22.5"/>
		<line style="&st0;" x1="192" y1="179.5" x2="195" y2="179.5"/>
		<line style="&st0;" x1="45.25" y1="151" x2="216.25" y2="151"/>
		<line style="&st0;" x1="45.25" y1="137.5" x2="216.25" y2="137.5"/>
		<line style="&st0;" x1="53" y1="33" x2="53" y2="56.75"/>
		<line style="&st0;" x1="53" y1="60.25" x2="53" y2="85"/>
		<line style="&st0;" x1="53" y1="88.5" x2="53" y2="111.25"/>
		<line style="&st0;" x1="53" y1="114.5" x2="53" y2="137.25"/>
		<path style="&st0;" d="M55.25,57.25c0.76,0,0.88,0.34,0.88,1.38s-0.12,1.62-0.88,1.62h-10v-3H55.25z"/>
		<path style="&st0;" d="M55.25,85.25c0.76,0,0.88,0.34,0.88,1.38s-0.12,1.62-0.88,1.62h-10v-3H55.25z"/>
		<path style="&st0;" d="M55.25,111.25c0.76,0,0.88,0.34,0.88,1.38s-0.12,1.62-0.88,1.62h-10v-3H55.25z"/>
		<rect x="73.25" y="32.77" style="&st0;" width="3" height="104.73"/> 
		<line style="&st0;" x1="68.5" y1="33" x2="68.5" y2="56.75"/>
		<line style="&st0;" x1="68.5" y1="60.25" x2="68.5" y2="85"/>
		<line style="&st0;" x1="68.5" y1="88.5" x2="68.5" y2="111.25"/>
		<line style="&st0;" x1="68.5" y1="114.5" x2="68.5" y2="137.25"/>
		<path style="&st0;" d="M70.75,57.25c0.76,0,0.88,0.34,0.88,1.38s-0.12,1.62-0.88,1.62h-10v-3H70.75z"/>
		<path style="&st0;" d="M70.75,85.25c0.76,0,0.88,0.34,0.88,1.38s-0.12,1.62-0.88,1.62h-10v-3H70.75z"/>
		<path style="&st0;" d="M70.75,111.25c0.76,0,0.88,0.34,0.88,1.38s-0.12,1.62-0.88,1.62h-10v-3H70.75z"/>
		<rect x="88.75" y="32.77" style="&st0;" width="3" height="104.73"/> 
		<line style="&st0;" x1="84" y1="33" x2="84" y2="56.75"/>
		<line style="&st0;" x1="84" y1="60.25" x2="84" y2="85"/>
		<line style="&st0;" x1="84" y1="88.5" x2="84" y2="111.25"/>
		<line style="&st0;" x1="84" y1="114.5" x2="84" y2="137.25"/>
		<path style="&st0;" d="M86.25,57.25c0.76,0,0.88,0.34,0.88,1.38s-0.12,1.62-0.88,1.62h-10v-3H86.25z"/>
		<path style="&st0;" d="M86.25,85.25c0.76,0,0.88,0.34,0.88,1.38s-0.12,1.62-0.88,1.62h-10v-3H86.25z"/>
		<path style="&st0;" d="M86.25,111.25c0.76,0,0.88,0.34,0.88,1.38s-0.12,1.62-0.88,1.62h-10v-3H86.25z"/>
		<rect x="104.25" y="32.77" style="&st0;" width="3" height="104.73"/> 
		<line style="&st0;" x1="99.5" y1="33" x2="99.5" y2="56.75"/>
		<line style="&st0;" x1="99.5" y1="60.25" x2="99.5" y2="85"/>
		<line style="&st0;" x1="99.5" y1="88.5" x2="99.5" y2="111.25"/>
		<line style="&st0;" x1="99.5" y1="114.5" x2="99.5" y2="137.25"/>
		<path style="&st0;" d="M101.75,57.25c0.76,0,0.88,0.34,0.88,1.38s-0.12,1.62-0.88,1.62h-10v-3H101.75z"/>
		<path style="&st0;" d="M101.75,85.25c0.76,0,0.88,0.34,0.88,1.38s-0.12,1.62-0.88,1.62h-10v-3H101.75z"/>
		<path style="&st0;" d="M101.75,111.25c0.76,0,0.88,0.34,0.88,1.38s-0.12,1.62-0.88,1.62h-10v-3H101.75z"/>
		<rect x="120" y="32.77" style="&st0;" width="3" height="104.73"/> 
		<line style="&st0;" x1="115.25" y1="33" x2="115.25" y2="56.75"/>
		<line style="&st0;" x1="115.25" y1="60.25" x2="115.25" y2="85"/>
		<line style="&st0;" x1="115.25" y1="88.5" x2="115.25" y2="111.25"/>
		<line style="&st0;" x1="115.25" y1="114.5" x2="115.25" y2="137.25"/>
		<path style="&st0;" d="M117.5,57.25c0.76,0,0.88,0.34,0.88,1.38s-0.12,1.62-0.88,1.62h-10v-3H117.5z"/>
		<path style="&st0;" d="M117.5,85.25c0.76,0,0.88,0.34,0.88,1.38s-0.12,1.62-0.88,1.62h-10v-3H117.5z"/>
		<path style="&st0;" d="M117.5,111.25c0.76,0,0.88,0.34,0.88,1.38s-0.12,1.62-0.88,1.62h-10v-3H117.5z"/>
		<rect x="136" y="32.77" style="&st0;" width="3" height="104.73"/> 
		<line style="&st0;" x1="131.25" y1="33" x2="131.25" y2="56.75"/>
		<line style="&st0;" x1="131.25" y1="60.25" x2="131.25" y2="85"/>
		<line style="&st0;" x1="131.25" y1="88.5" x2="131.25" y2="111.25"/>
		<line style="&st0;" x1="131.25" y1="114.5" x2="131.25" y2="137.25"/>
		<path style="&st0;" d="M133.5,57.25c0.76,0,0.88,0.34,0.88,1.38s-0.12,1.62-0.88,1.62H123v-3H133.5z"/>
		<path style="&st0;" d="M133.5,85.25c0.76,0,0.88,0.34,0.88,1.38s-0.12,1.62-0.88,1.62H123v-3H133.5z"/>
		<path style="&st0;" d="M133.5,111.25c0.76,0,0.88,0.34,0.88,1.38s-0.12,1.62-0.88,1.62H123v-3H133.5z"/>
		<rect x="152.25" y="32.77" style="&st0;" width="3" height="104.73"/> 
		<line style="&st0;" x1="147.5" y1="33" x2="147.5" y2="56.75"/>
		<line style="&st0;" x1="147.5" y1="60.25" x2="147.5" y2="85"/>
		<line style="&st0;" x1="147.5" y1="88.5" x2="147.5" y2="111.25"/>
		<line style="&st0;" x1="147.5" y1="114.5" x2="147.5" y2="137.25"/>
		<path style="&st0;" d="M149.75,57.25c0.76,0,0.88,0.34,0.88,1.38s-0.12,1.62-0.88,1.62h-10.5v-3H149.75z"/>
		<path style="&st0;" d="M149.75,85.25c0.76,0,0.88,0.34,0.88,1.38s-0.12,1.62-0.88,1.62h-10.5v-3H149.75z"/>
		<path style="&st0;" d="M149.75,111.25c0.76,0,0.88,0.34,0.88,1.38s-0.12,1.62-0.88,1.62h-10.5v-3H149.75z"/>
		<rect x="168.25" y="32.77" style="&st0;" width="3" height="104.73"/> 
		<line style="&st0;" x1="163.5" y1="33" x2="163.5" y2="56.75"/>
		<line style="&st0;" x1="163.5" y1="60.25" x2="163.5" y2="85"/>
		<line style="&st0;" x1="163.5" y1="88.5" x2="163.5" y2="111.25"/>
		<line style="&st0;" x1="163.5" y1="114.5" x2="163.5" y2="137.25"/>
		<path style="&st0;" d="M165.75,57.25c0.76,0,0.88,0.34,0.88,1.38s-0.12,1.62-0.88,1.62h-10.5v-3H165.75z"/>
		<path style="&st0;" d="M165.75,85.25c0.76,0,0.88,0.34,0.88,1.38s-0.12,1.62-0.88,1.62h-10.5v-3H165.75z"/>
		<path style="&st0;" d="M165.75,111.25c0.76,0,0.88,0.34,0.88,1.38s-0.12,1.62-0.88,1.62h-10.5v-3H165.75z"/>
		<rect x="184.25" y="32.77" style="&st0;" width="3" height="104.73"/> 
		<line style="&st0;" x1="179.5" y1="33" x2="179.5" y2="56.75"/>
		<line style="&st0;" x1="179.5" y1="60.25" x2="179.5" y2="85"/>
		<line style="&st0;" x1="179.5" y1="88.5" x2="179.5" y2="111.25"/>
		<line style="&st0;" x1="179.5" y1="114.5" x2="179.5" y2="137.25"/>
		<path style="&st0;" d="M181.75,57.25c0.76,0,0.88,0.34,0.88,1.38s-0.12,1.62-0.88,1.62h-10.5v-3H181.75z"/>
		<path style="&st0;" d="M181.75,85.25c0.76,0,0.88,0.34,0.88,1.38s-0.12,1.62-0.88,1.62h-10.5v-3H181.75z"/>
		<path style="&st0;" d="M181.75,111.25c0.76,0,0.88,0.34,0.88,1.38s-0.12,1.62-0.88,1.62h-10.5v-3H181.75z"/>
		<rect x="200" y="32.77" style="&st0;" width="3" height="104.73"/> 
		<line style="&st0;" x1="195.25" y1="33" x2="195.25" y2="56.75"/>
		<line style="&st0;" x1="195.25" y1="60.25" x2="195.25" y2="85"/>
		<line style="&st0;" x1="195.25" y1="88.5" x2="195.25" y2="111.25"/>
		<line style="&st0;" x1="195.25" y1="114.5" x2="195.25" y2="137.25"/>
		<path style="&st0;" d="M197.5,57.25c0.76,0,0.88,0.34,0.88,1.38s-0.12,1.62-0.88,1.62H187v-3H197.5z"/>
		<path style="&st0;" d="M197.5,85.25c0.76,0,0.88,0.34,0.88,1.38s-0.12,1.62-0.88,1.62H187v-3H197.5z"/>
		<path style="&st0;" d="M197.5,111.25c0.76,0,0.88,0.34,0.88,1.38s-0.12,1.62-0.88,1.62H187v-3H197.5z"/>
		<line style="&st0;" x1="211.25" y1="33" x2="211.25" y2="56.75"/>
		<line style="&st0;" x1="211.25" y1="60.25" x2="211.25" y2="85"/>
		<line style="&st0;" x1="211.25" y1="88.5" x2="211.25" y2="111.25"/>
		<line style="&st0;" x1="211.25" y1="114.5" x2="211.25" y2="137.25"/>
		<path style="&st0;" d="M213.5,57.25c0.76,0,0.88,0.34,0.88,1.38s-0.12,1.62-0.88,1.62H203v-3H213.5z"/>
		<path style="&st0;" d="M213.5,85.25c0.76,0,0.88,0.34,0.88,1.38s-0.12,1.62-0.88,1.62H203v-3H213.5z"/>
		<path style="&st0;" d="M213.5,111.25c0.76,0,0.88,0.34,0.88,1.38s-0.12,1.62-0.88,1.62H203v-3H213.5z"/>
	</g>
</svg>
