<?xml version="1.0" encoding="iso-8859-1"?>
<!-- Generator: Adobe Illustrator 11 Build 196, SVG Export Plug-In . SVG Version: 6.0.0 Build 78)  -->
<!DOCTYPE svg PUBLIC "-//W3C//DTD SVG 1.0//EN"    "http://www.w3.org/TR/2001/REC-SVG-20010904/DTD/svg10.dtd" [
	<!ENTITY ns_flows "http://ns.adobe.com/Flows/1.0/">
	<!ENTITY ns_svg "http://www.w3.org/2000/svg">
	<!ENTITY ns_xlink "http://www.w3.org/1999/xlink">
	<!ENTITY st0 "fill:none;stroke:#000000;stroke-linecap:round;stroke-linejoin:round;stroke-miterlimit:2;">
]>
<svg  xmlns="&ns_svg;" xmlns:xlink="&ns_xlink;" xmlns:a="http://ns.adobe.com/AdobeSVGViewerExtensions/3.0/"
	 width="123" height="125.5" viewBox="0 0 123 125.5" style="overflow:visible;enable-background:new 0 0 123 125.5"
	 xml:space="preserve">
	<g id="Layer_1">
		<line style="&st0;" x1="122.5" y1="100.25" x2="0.5" y2="100.25"/>
		<line style="&st0;" x1="0.5" y1="24.5" x2="122.5" y2="24.5"/>
		<line style="&st0;" x1="25.25" y1="0.5" x2="100.75" y2="125"/>
		<path style="&st0;" d="M32.29,11.81c-4.28,2.61-7.14,7.31-7.14,12.69"/>
		<path style="&st0;" d="M78.22,87.62c-4.28,2.61-7.14,7.31-7.14,12.69"/>
		<path d="M14.04,14.72c-0.21,0.55-0.69,1.43-1.05,1.74c-0.4,0.34-0.81,0.5-1.12,0.49c-0.49-0.04-0.72-0.14-1.12-0.54
			c-0.43-0.43-0.61-1.01-0.7-1.53c-0.18-1.01-0.25-2.01-0.13-3c0.13-0.95,0.34-1.73,0.79-2.3c0.4-0.5,0.72-0.81,1.78-0.5
			c0.52,0.16,1.01,0.63,1.3,1.1c0.47,0.76,0.67,2.16,0.79,3.06L14.04,14.72z M16.24,8.47l-1.15,3.2h-0.04
			c-0.08-0.7-0.33-1.42-0.68-2c-0.41-0.68-1.1-1.25-1.94-1.39c-0.76-0.13-1.82,0.07-2.38,0.44c-1.3,0.88-1.78,1.81-1.96,3.13
			c-0.27,2.01,0.09,3.22,0.56,4.03c0.36,0.61,0.86,1.04,1.53,1.35c1.19,0.53,2.07,0.33,2.9,0.05c1.6-0.53,2-1.77,2.3-2.29
			c0.42,1.2,0.71,1.83,1.14,2.24c0.32,0.31,0.72,0.45,1.21,0.05c0.49-0.4,0.67-1.1,0.68-1.44l0.04-1.07h-0.32
			c-0.04,0.23-0.05,0.81-0.43,1.19c-0.56,0.56-1.03,0.09-1.21-0.07c-0.34-0.34-0.59-0.85-0.74-1.72l2.07-5.72H16.24z"/>
		<path d="M57.54,90.97c-0.21,0.55-0.69,1.43-1.05,1.74c-0.4,0.34-0.81,0.5-1.12,0.49c-0.49-0.04-0.72-0.14-1.12-0.54
			c-0.43-0.43-0.61-1.01-0.7-1.53c-0.18-1.01-0.25-2.01-0.13-3c0.13-0.95,0.34-1.73,0.79-2.3c0.4-0.5,0.72-0.81,1.78-0.5
			c0.52,0.16,1.01,0.63,1.3,1.1c0.47,0.76,0.67,2.16,0.79,3.06L57.54,90.97z M59.74,84.72l-1.15,3.2h-0.04
			c-0.08-0.7-0.33-1.42-0.68-2c-0.41-0.68-1.1-1.25-1.94-1.39c-0.76-0.13-1.82,0.07-2.38,0.44c-1.3,0.88-1.78,1.81-1.96,3.13
			c-0.27,2.01,0.09,3.22,0.56,4.03c0.36,0.61,0.86,1.04,1.53,1.35c1.19,0.53,2.07,0.33,2.9,0.06c1.6-0.53,2-1.77,2.3-2.29
			c0.42,1.2,0.71,1.83,1.14,2.24c0.32,0.31,0.72,0.45,1.21,0.05c0.49-0.4,0.67-1.1,0.68-1.44l0.04-1.07h-0.32
			c-0.04,0.23-0.05,0.81-0.43,1.19c-0.56,0.56-1.03,0.09-1.21-0.07c-0.34-0.34-0.59-0.85-0.74-1.72l2.07-5.72H59.74z"/>
		<path d="M63.79,85.06l-0.54-3.09c-0.05-0.29-0.08-0.47-0.08-0.52c0-0.2,0.07-0.36,0.22-0.48s0.34-0.18,0.58-0.18
			c0.24,0,0.43,0.06,0.58,0.18c0.15,0.12,0.22,0.28,0.22,0.48c0,0.06-0.02,0.23-0.07,0.52l-0.55,3.09H63.79z"/>
	</g>
</svg>
