<?xml version="1.0" encoding="iso-8859-1"?>
<!-- Generator: Adobe Illustrator 11 Build 196, SVG Export Plug-In . SVG Version: 6.0.0 Build 78)  -->
<!DOCTYPE svg PUBLIC "-//W3C//DTD SVG 1.0//EN"    "http://www.w3.org/TR/2001/REC-SVG-20010904/DTD/svg10.dtd" [
	<!ENTITY ns_flows "http://ns.adobe.com/Flows/1.0/">
	<!ENTITY ns_svg "http://www.w3.org/2000/svg">
	<!ENTITY ns_xlink "http://www.w3.org/1999/xlink">
	<!ENTITY st0 "fill:none;stroke:#FFFFFF;stroke-width:1.73;stroke-linecap:round;stroke-linejoin:round;">
	<!ENTITY st1 "stroke:#FFFFFF;stroke-width:1.73;stroke-linecap:round;stroke-linejoin:round;">
]>
<svg  xmlns="&ns_svg;" xmlns:xlink="&ns_xlink;" xmlns:a="http://ns.adobe.com/AdobeSVGViewerExtensions/3.0/"
	 width="195.48" height="159.96" viewBox="0 0 195.48 159.96" style="overflow:visible;enable-background:new 0 0 195.48 159.96"
	 xml:space="preserve">
	<g id="Layer_1">
		<g>
			<path style="&st1;" d="M142.91,57.92c9.84-5.8,21.98-10.9,31.47-10.9c0-4.57-4.04-9.14-7.38-9.14c0-4.92-6.15-10.72-11.96-10.72
				c0-5.63-8.09-10.2-13.71-10.2c-2.46-5.63-9.14-8.09-16.18-6.86c-3.69-4.4-9.94-6-16.75-5.27c-3.11-3.52-6.98-3.96-10.5-3.96
				s-7.38,0.45-10.5,3.96c-5.93-2.02-13.06,0.88-16.76,5.27c-7.03-1.23-13.71,1.23-16.17,6.86c-5.63,0-13.71,4.57-13.71,10.2
				c-5.8,0-11.96,5.8-11.96,10.72c-3.34,0-7.38,4.57-7.38,9.14c9.49,0,21.62,5.1,31.47,10.9"/>
			<ellipse style="&st1;" cx="98.12" cy="98.93" rx="65.64" ry="60.17"/> 
			<ellipse style="&st0;" cx="98.12" cy="95.37" rx="22.5" ry="17.58"/> 
			<circle style="&st1;" cx="110.78" cy="108.56" r="5.45"/> 
			<circle style="&st1;" cx="85.46" cy="108.56" r="5.45"/> 
			<circle style="&st0;" cx="110.78" cy="108.56" r="0.87"/> 
			<path style="&st1;" d="M64,117.09c-23.21,3.87-38.33,21.88-45.01,34.54c-4.04-1.23-6.86-5.98-6.15-9.5
				c-4.04-3.52-5.98-10.2-4.04-16.17c-3.91-4.57-5.66-10.02-5.19-14.71c-2.39-3.4-2.74-7.09-2.74-10.79s0.35-7.38,2.74-10.79
				C3.14,85,4.89,79.55,8.8,74.98C6.86,69,8.8,62.32,12.84,58.8c-0.7-3.52,2.11-8.26,6.15-9.49C25.67,61.97,40.79,79.98,64,83.85"/>
			<path style="&st1;" d="M131.48,117.09c23.21,3.87,38.33,21.88,45.01,34.54c4.04-1.23,6.86-5.98,6.15-9.5
				c4.04-3.52,5.97-10.2,4.04-16.17c3.91-4.57,5.66-10.02,5.19-14.71c2.39-3.4,2.74-7.09,2.74-10.79s-0.35-7.38-2.74-10.79
				c0.47-4.69-1.28-10.14-5.19-14.71c1.94-5.98,0-12.66-4.04-16.18c0.7-3.52-2.11-8.26-6.15-9.49
				c-6.68,12.66-21.8,30.67-45.01,34.54"/>
			<path style="&st1;" d="M98.27,106.98c-2.81,0-5.98,2.99-7.03,5.27l7.03,7.74l7.03-7.74C104.24,109.96,101.08,106.98,98.27,106.98
				z"/>
			<path style="&st0;" d="M12.29,68.3c10.72,10.55,26.72,17.76,43.43,20.04"/>
			<path style="&st0;" d="M7.9,84.65c7.91,4.57,21.45,9.14,45.01,9.5"/>
			<path style="&st0;" d="M7.37,101c3.69,0,38.5,0.18,42.72,0.18"/>
			<path style="&st0;" d="M11.94,132.9c10.72-10.55,26.72-17.76,43.43-20.04"/>
			<path style="&st0;" d="M7.55,116.55c7.91-4.57,21.45-9.14,45.01-9.49"/>
			<path style="&st0;" d="M36.91,33.66c7.03,2.81,15.3,9.49,22.33,16.7"/>
			<path style="&st0;" d="M50.27,23.82c7.91,5.8,13.54,14.06,17.93,21.27"/>
			<path style="&st0;" d="M65.04,15.73c6.33,7.21,10.9,16.35,13.36,25.49"/>
			<path style="&st0;" d="M79.63,10.1c5.1,7.21,7.91,17.41,8.97,28.83"/>
			<path style="&st0;" d="M97.91,9.75c0,7.03-0.18,21.62-0.18,28.48"/>
			<path style="&st0;" d="M183.19,68.3c-10.73,10.55-26.72,17.76-43.43,20.04"/>
			<path style="&st0;" d="M187.58,84.65c-7.91,4.57-21.45,9.14-45.01,9.5"/>
			<path style="&st0;" d="M188.11,101c-3.69,0-38.5,0.18-42.72,0.18"/>
			<path style="&st0;" d="M183.53,132.9c-10.73-10.55-26.72-17.76-43.42-20.04"/>
			<path style="&st0;" d="M187.93,116.55c-7.91-4.57-21.45-9.14-45.01-9.49"/>
			<path style="&st0;" d="M158.57,33.66c-7.03,2.81-15.3,9.49-22.33,16.7"/>
			<path style="&st0;" d="M145.21,23.82c-7.91,5.8-13.54,14.06-17.93,21.27"/>
			<path style="&st0;" d="M130.44,15.73c-6.33,7.21-10.9,16.35-13.36,25.49"/>
			<path style="&st0;" d="M115.85,10.1c-5.1,7.21-7.91,17.41-8.97,28.83"/>
			<circle style="&st0;" cx="85.46" cy="108.56" r="0.86"/> 
		</g>
	</g>
</svg>
