<?xml version="1.0" encoding="iso-8859-1"?>
<!-- Generator: Adobe Illustrator 11 Build 196, SVG Export Plug-In . SVG Version: 6.0.0 Build 78)  -->
<!DOCTYPE svg PUBLIC "-//W3C//DTD SVG 1.0//EN"    "http://www.w3.org/TR/2001/REC-SVG-20010904/DTD/svg10.dtd" [
	<!ENTITY ns_flows "http://ns.adobe.com/Flows/1.0/">
	<!ENTITY ns_svg "http://www.w3.org/2000/svg">
	<!ENTITY ns_xlink "http://www.w3.org/1999/xlink">
	<!ENTITY st0 "fill:none;stroke:#000000;stroke-linecap:round;stroke-linejoin:round;">
]>
<svg  xmlns="&ns_svg;" xmlns:xlink="&ns_xlink;" xmlns:a="http://ns.adobe.com/AdobeSVGViewerExtensions/3.0/"
	 width="122.81" height="124.04" viewBox="0 0 122.81 124.04" style="overflow:visible;enable-background:new 0 0 122.81 124.04"
	 xml:space="preserve">
	<g id="Bild">
		<path style="&st0;" d="M44.53,62.02c0,12.5-10.13,22.63-22.63,22.63c-9.45,0-17.54-5.79-20.93-14.02L0.5,70.75
			c4.24,29.84,29.89,52.78,60.9,52.78s56.66-22.95,60.9-52.78l-0.47-0.12c-3.39,8.23-11.48,14.02-20.93,14.02
			c-12.5,0-22.63-10.13-22.63-22.63s10.13-22.63,22.63-22.63c9.45,0,17.54,5.79,20.93,14.02l0.47-0.12
			C118.06,23.44,92.41,0.5,61.4,0.5S4.74,23.44,0.5,53.28l0.47,0.12c3.39-8.23,11.48-14.02,20.93-14.02
			C34.4,39.39,44.53,49.52,44.53,62.02z"/>
	</g>
</svg>
