<?xml version="1.0" encoding="iso-8859-1"?>
<!-- Generator: Adobe Illustrator 11 Build 196, SVG Export Plug-In . SVG Version: 6.0.0 Build 78)  -->
<!DOCTYPE svg PUBLIC "-//W3C//DTD SVG 1.0//EN"    "http://www.w3.org/TR/2001/REC-SVG-20010904/DTD/svg10.dtd" [
	<!ENTITY ns_flows "http://ns.adobe.com/Flows/1.0/">
	<!ENTITY ns_svg "http://www.w3.org/2000/svg">
	<!ENTITY ns_xlink "http://www.w3.org/1999/xlink">
	<!ENTITY st0 "fill:none;stroke:#000000;stroke-linecap:round;stroke-linejoin:round;">
]>
<svg  xmlns="&ns_svg;" xmlns:xlink="&ns_xlink;" xmlns:a="http://ns.adobe.com/AdobeSVGViewerExtensions/3.0/"
	 width="200.24" height="268.96" viewBox="0 0 200.24 268.96" style="overflow:visible;enable-background:new 0 0 200.24 268.96"
	 xml:space="preserve">
	<g id="Pfade">
		<path style="&st0;" d="M114.67,43.57c0.46-5.92-5.47-10.03-10.94-2.28c-5.47,7.75-5.47,5.47-8.66,8.2
			c-3.19,2.73-3.65,5.47-7.29,5.47s-4.1,1.37-8.2,2.28c-4.1,0.91-11.39,0.91-14.58-2.28"/>
		<path style="&st0;" d="M10.46,48.13c-3.65,0-7-1.37-9.28-4.1"/>
		<path style="&st0;" d="M11.17,44.71c-4.33,0.46-7.7-1.37-10.67-6.38"/>
		<path style="&st0;" d="M11.67,40.38C5.51,40.61,0.96,36.5,0.5,31.72"/>
		<path style="&st0;" d="M13.03,36.05c-6.61-0.46-9.34-6.84-10.03-12.99"/>
		<path style="&st0;" d="M13.72,34c-6.61-2.28-6.84-11.17-5.92-17.55"/>
		<path style="&st0;" d="M15.54,31.04C7.34,25.57,10.98,12.58,16,5.97"/>
		<path style="&st0;" d="M17.14,29.21c-5.24-6.84-0.68-21.19,5.7-26.21"/>
		<path style="&st0;" d="M19.87,26.93c-2.73-5.24-0.68-13.9,1.6-16.18"/>
		<path style="&st0;" d="M21.92,25.34c-2.51-5.01,0.46-14.13,6.84-17.32"/>
		<path style="&st0;" d="M25.57,23.29c-1.82-4.56,2.05-11.17,10.71-13.22"/>
		<path style="&st0;" d="M44.94,22.38c1.82-7.29,6.38-14.58,11.17-17.55"/>
		<path style="&st0;" d="M46.76,23.52C50.86,14.4,61.8,1.87,67.72,0.73"/>
		<path style="&st0;" d="M48.58,24.2C55.42,12.35,62.25,3.46,77.75,0.5"/>
		<path style="&st0;" d="M49.72,25.11C63.62,3.69,74.1,3.23,86.18,4.37"/>
		<path style="&st0;" d="M52,25.11C69.08,2.74,75.08,6.24,87.09,9.16"/>
		<path style="&st0;" d="M53.37,25.57C67.27,9.62,71.14,8.93,87.32,12.58"/>
		<path style="&st0;" d="M54.96,26.71c13.44-13.9,20.74-12.76,29.62-9.57"/>
		<path style="&st0;" d="M56.79,27.85c11.85-12.08,18.91-9.34,26.21-6.84"/>
		<path style="&st0;" d="M57.7,29.9c11.85-10.48,20.05-7.06,25.75-3.87"/>
		<path style="&st0;" d="M59.29,31.04c9.34-6.15,18.46-4.56,21.65-3.19"/>
		<path style="&st0;" d="M62.71,32.63c5.01-4.33,11.17-3.87,15.95-0.91"/>
		<path style="&st0;" d="M64.08,33.77c4.79-2.05,9.8-1.14,12.99,0.68"/>
		<path style="&st0;" d="M64.99,35.59c3.42-0.91,8.66,0.68,11.17,3.19"/>
		<path style="&st0;" d="M22.83,50.63c1.37,0.91,1.6,3.87,3.19,4.1c1.6,0.23,1.82-2.73,5.24-3.87c3.42-1.14,5.47-0.91,6.84,0.68
			s2.05,5.7,1.37,7.06s-0.91,0.91-1.6,1.37"/>
		<path style="&st0;" d="M36.28,45.39c4.33,0.23,7.52,5.7,6.38,11.17"/>
		<path style="&st0;" d="M44.71,65.44c2.28,0,4.56,2.96,4.56,5.24"/>
		<path style="&st0;" d="M41.29,60.2c-2.51,2.96-5.24,2.96-8.43,1.82"/>
		<path style="&st0;" d="M48.35,35.82c1.6,0,1.6,0,1.6,0"/>
		<path style="&st0;" d="M49.72,32.63c1.14,0,0,0,1.14,0"/>
		<path style="&st0;" d="M47.67,31.26c0.23-0.91,0-1.37-0.68-2.05"/>
		<path style="&st0;" d="M43.34,29.44c0-0.91,0.23-1.14-0.68-1.37"/>
		<path style="&st0;" d="M52.91,40.83c2.28-0.46,1.82-0.91,1.82-3.65s1.82-4.1,3.87-4.56c2.05-0.46,2.96-0.23,5.24,1.82
			s0.91,3.65,0.91,5.24s0.23,1.82,1.37,2.73c1.14,0.91,1.14,3.65,0.91,5.01s-2.05,2.73-2.05,4.1c0,1.37,0,2.73-1.37,4.1
			c-1.37,1.37-3.19,0.68-3.42-1.6"/>
		<path style="&st0;" d="M59.29,43.8c0,1.6,0.91,2.28,1.14,3.65s0.46,3.65,1.82,2.51c1.37-1.14,0.46-2.51,0-3.87
			c-0.46-1.37-0.23-3.42-0.23-5.24c0-1.82-0.23-3.42-1.82-3.19c-1.6,0.23-3.19,1.37-3.19,2.96"/>
		<path style="&st0;" d="M58.15,58.15c0.46,2.05,1.14,5.01,1.14,7.06s-0.46,3.42-2.96,5.47c-2.51,2.05-3.87,2.28-5.24,4.1
			c-1.37,1.82-1.37,3.87-2.28,6.61c-0.91,2.73-4.33,4.79-6.38,5.01c-2.05,0.23-4.56,0.91-5.24,0.23s0.23-2.05,1.6-4.56
			c1.37-2.51,3.19-7.75,4.1-9.11c0.91-1.37-0.23-2.96-1.82-1.37c-1.6,1.59-6.38,8.66-8.43,11.39c-2.05,2.73-5.01,3.42-6.15,1.14
			c-1.14-2.28-0.23-4.1-1.14-5.24c-0.91-1.14-2.28-2.05-3.19-3.87c-0.91-1.82-0.68-4.56-0.46-6.15c0.23-1.6,2.28-2.28,3.65-2.96
			c1.37-0.68,1.37-3.19,0-4.1c-1.37-0.91-2.73-2.05-4.56-2.05c-1.82,0-2.96,0.91-5.47,1.14s-4.79,0.23-5.7-2.51
			c-0.91-2.73-1.14-4.33,0.23-7.29c1.37-2.96,1.37-6.38,1.6-8.89c0.23-2.51,1.6-6.84,3.65-9.57c2.05-2.73,5.7-6.84,8.43-8.2
			c2.73-1.37,3.42-0.68,4.79-1.82c1.37-1.14,4.33-4.79,7.06-5.7c2.73-0.91,4.79-0.68,6.61-0.23c1.82,0.46,2.05,1.14,3.19,2.28"/>
		<path style="&st0;" d="M64.08,63.85c7.06,0,11.17-0.68,16.63,0"/>
		<path style="&st0;" d="M87.09,61.34c1.59-0.46,1.82,0,2.05,0.68"/>
		<path style="&st0;" d="M108.51,45.16c-0.62,2.78-2.96,2.66-4.96,4.39c-1.97,1.71-3.55,4.14-4.6,6.52
			c-1.77,4.01-1.62,8.44-3.38,12.41c-0.52,1.17-0.68,2.14-2.32,2.21c-1.55,0.06-1.62-0.79-2.74-1.37"/>
		<path style="&st0;" d="M82.31,130.62c-1.04-2.13-2.21-4.71-2.96-7.18c-2.2-7.18-4.94-14.35-7.05-21.66c-1-3.47-2-6.17-4.51-9.03
			c-1.97-2.24-5.22-3.18-7.58-5.25c-4.18-3.67,0.35-9.24,4.29-11.14c2.49-1.2,4.52-1.83,6.83-3.61c1.82-1.4,3.18-3.07,4.83-4.57"/>
		<path style="&st0;" d="M65.44,80.94c3.37,2.79,4.71-1.93,6.65-3.2c1.44-0.94,3.43-1.26,4.97-2.04"/>
		<path style="&st0;" d="M80.26,69.09c0.36,0.24,1.01,0.33,1.6,0.23"/>
		<path style="&st0;" d="M79.57,72.51c3.12-0.9,3.83,1.36,3.65,4.1"/>
		<path style="&st0;" d="M83.22,65.9c1.01,0.24,1.78-0.12,1.82-1.14"/>
		<path style="&st0;" d="M91.19,66.58c1.34-0.66,2.11-2.28,2.51-3.65"/>
		<path style="&st0;" d="M83.9,68.41c3.57,2.52,1.3,3.66,1.86,7.26c1.97,0.5,2.58-2.23,2.93-3.61"/>
		<path style="&st0;" d="M56.79,70.69c0.63,0.56,1.3,0.94,2.04,1.18c2.77-2.78,5.54-3.17,9.37-3.91c2.47-0.48,6.17-1.27,8.64-0.46"
			/>
		<path style="&st0;" d="M30.35,59.29c-2.79-5.31,5.2-7.03,6.83-2.73c1.62,4.25-5.18,5.92-7.06,2.28"/>
		<path style="&st0;" d="M31.04,59.75c0.58-2.04,4.9-2.86,5.01-0.07"/>
		<path style="&st0;" d="M17.36,60.89c0.03,3.66,4.29,5.28,7.34,5.29"/>
		<path style="&st0;" d="M20.44,64.64c-0.65-1.99,0.82-3.55,3.33-3.55"/>
		<path style="&st0;" d="M82.99,84.13c2.56,0.01,5.47-0.97,7.29-2.73"/>
		<path style="&st0;" d="M92.79,76.61c0.74-0.11,1.57,0.07,2.05,0.46"/>
		<path style="&st0;" d="M102.13,83.9c-0.64-0.44-1.33-0.82-2.05-1.14"/>
		<path style="&st0;" d="M105.78,88c0.7,0.4,1.42,0.8,2.05,1.14"/>
		<path style="&st0;" d="M95.75,79.12c0.92,0.25,1.8,0.78,2.51,1.37"/>
		<path style="&st0;" d="M88.46,88c2.68-0.74,2.79-1.97,4.33-3.65"/>
		<path style="&st0;" d="M93.25,90.06c0.54-0.39,2.07-1.33,2.73-2.28"/>
		<path style="&st0;" d="M93.7,94.39c0.9-1.96,4.94-2.66,6.61-1.82"/>
		<path style="&st0;" d="M112.84,84.81c1.98-0.01,2.99-0.06,4.73-0.91c1.16-0.57,1.96-1.45,3.24-1.6"/>
		<path style="&st0;" d="M109.88,90.74c1.08-0.17,2.24,0.07,3.19,0.46"/>
		<path style="&st0;" d="M109.43,82.08c2.8,0.18,5.15-1.52,7.52-2.73"/>
		<path style="&st0;" d="M106.23,79.35c2.92,0,4.05-1.05,6.61-2.28"/>
		<path style="&st0;" d="M102.59,76.84c2.25,0.23,5.99-0.99,7.29-2.96"/>
		<path style="&st0;" d="M104.18,72.05c3.95,0,5.15-1.16,9.06-2.77c0.07-0.27,0.1-0.59,0.05-0.88"/>
		<path style="&st0;" d="M105.55,68.63c1.4,0.38,2.88,1.01,4.33,0.91c1.15-0.07,1.58-0.68,2.74-0.68"/>
		<path style="&st0;" d="M108.51,59.52c0,2.79-0.39,4.54,1.67,6.57c2.17,2.13,3.41,1.55,6.08,1.17"/>
		<path style="&st0;" d="M153.18,95.75c-7.06-2.51-18.39,1.93-21.15,2.06c-3.89,0.19-7.16,1.02-10.82,1.86
			c-4.19,0.97-9.02,0.37-12.7,2.45c-0.4,0.23-0.76,0.44-1.14,0.68"/>
		<path style="&st0;" d="M115.12,60.89c-0.27,2.07,1.74,4.33,3.01,5.44c2.37,2.07,4.67,3.43,6.58,6.08c3.36,4.66,4.94,4.62,7.5,9.67
			"/>
		<path style="&st0;" d="M113.98,39.92c0.47-2.9,3.4-0.94,4.6,0.25c1.43,1.43,1.41,2.7,2.14,4.45c0.57,1.38,1.43,2.51,1.97,4.02
			c1.34,3.71,1.79,7.18,4.26,10.46c2.34,3.11,5.35,5.8,7.3,9.18c2.75,4.75,6.87,8.86,10.5,12.9c1.33,1.47,1.97,3.66,3.38,5.04
			c1.05,1.03,2.34,1.67,3.46,2.71c1.95,1.81,3.67,3.36,5.9,4.81c3.04,1.99,3.22,5.44-0.44,6.8c-2.59,0.96-6.15-0.13-8.9,0.45
			c-1.31,0.28-1.81,0.97-3.01,1.54c-4.48,2.14-10.75,1.02-15.7,1.19c-7.61,0.26-13.89,4.1-21.62,4.1"/>
		<path style="&st0;" d="M132.21,82.08c3.28,1.21,4.59,5.2,6.65,7.69c1.67,2.02,3.92,3.66,5.88,5.3"/>
		<path style="&st0;" d="M123.1,64.99c3.59,2.4,6.52,8.01,9.38,11.38c3.39,3.98,5.83,8.9,9.3,12.77"/>
		<path style="&st0;" d="M116.72,93.93c1.81-0.13,2.36-0.88,3.83-1.43c1.66-0.62,2.67-0.07,4.35,0.25c2.62,0.49,7.26,1.5,9.59,0.5"
			/>
		<path style="&st0;" d="M132.9,90.51c1.6,0,3.19,0,4.79,0"/>
		<path style="&st0;" d="M76.38,89.14c3.08,0.37,6.69,1.09,9.89,1.59c3.75,0.58,1.81,3.51,3.61,5.71c0.85,1.04,2.26,0.98,3.29,1.63
			c1.65,1.04,0.69,2.24,1.66,3.42c0.92,1.11,4.18,1.51,5.48,1.79"/>
		<path style="&st0;" d="M105.32,99.17c-1.66,1.55-2.91,3.3-5.01,4.1"/>
		<path style="&st0;" d="M107.15,103.04c-2.93,0.27-7.47-0.68-9.07,2.1c-1.35,2.35-1.69,5.92-1.87,8.61
			c-0.24,3.63-1.49,6.03-3.36,8.94c-1.02,1.59-2.04,3.3-2.31,5.16c1.95,0.51,4.83-1.93,5.89-3.16c1.27-1.48,1.36-3.5,1.37-5.46"/>
		<path style="&st0;" d="M105.32,125.15c0.93,2.29,1.12,6.66,0.45,9.34c-0.63,2.48-2.47,3.06-4.09,4.66
			c-1.18,1.17-1.69,2.21-3.15,3.07c-0.69-4.4,3.79-6.21,4.29-10.13c0.56-4.35-1.6-7.18-4.33-10.12"/>
		<path style="&st0;" d="M99.63,113.53c-1.09,3.38,0.9,5.08,1.37,8.2"/>
		<path style="&st0;" d="M106.92,121.05c-1.39-1.2,0.33-6.8-0.46-8.66"/>
		<path style="&st0;" d="M29.21,76.15c-0.75,2.01-0.27,4.06,1.37,5.01"/>
		<path style="&st0;" d="M22.15,74.56c0.88-2.19,4.51-1.77,4.33,0.91c-0.1,1.51-1.7,3.3-2.73,1.62"/>
		<path style="&st0;" d="M29.21,74.1c-3.73-3.37,4.2-2.62,5.95-2.85c3.63-0.47,10-5.16,11.37,0.57"/>
		<path style="&st0;" d="M76.84,96.89c1.67-1.33,3.31-1.57,4.78-2.96c1.09-1.04,2.31-2.03,3.42-2.96"/>
		<path style="&st0;" d="M79.57,101.22c1.88-3.4,5.65-6.37,8.2-9.34"/>
		<path style="&st0;" d="M79.35,105.55c-0.3,4.46,1.29,10.26,2.55,14.57c0.56,1.92,1.56,3.85,2.21,5.85c0.5,1.57,0.01,3.76,0.94,5.1
			"/>
		<path style="&st0;" d="M84.59,95.75c-0.64,3.19-0.94,6.5-0.46,9.76c0.6,4.01,0.83,8.24,1.52,12.24c1.1,6.34,1.49,13.06,3.95,18.88
			c0.85,2.01,2.81,5.11,1.82,7.64c-1.22,3.13-7.27,0.36-9.61-0.19c-4.43-1.04-9.18-0.16-13.77-0.69c-2.69-0.31-10.81-1.6-17.19-0.46
			"/>
		<path style="&st0;" d="M85.73,137.23c0.23,1.4-0.03,3.16-1.82,2.73"/>
		<path style="&st0;" d="M108.51,107.83c3.04,3.66,0.03,10.08,1.6,14.14c0.82,2.12,3.68,3.67,4.05,6.6c0.3,2.39-0.65,5.96-1.35,8.17
			c-3.9-1.05-0.26-7.71-2.92-10.23"/>
		<path style="&st0;" d="M103.04,138.14c-0.86,1.2-1.78,6.76,1.11,6.12c0.72-2.58,0.63-4.93,1.92-7.25
			c1.62-2.92,2.92-3.49,2.45-6.61c-0.2-1.32-0.64-2.42-0.92-3.65"/>
		<path style="&st0;" d="M111.02,136.31c-1.33,1.58-0.96,3.92-2.09,5.66c-3.18,0.43,0.38-8.59-0.64-9.76"/>
		<path style="&st0;" d="M32.63,145.66c0.23,1.5-2.31,4.42-3.19,5.24c-1.32,1.21-2.54,0.66-2.73,2.51c-0.13,1.26-0.23,4.1,0,6.15
			c-1.25,2.34-2.16,0.6-3.42-2.51c-0.55-1.36-1.87-3.26-1.82-4.79c0.1-3.58,0.72-6.94,3.13-9.63c1.86-2.07,4.78-3.88,7.56-4.33
			c6-0.96,12.19-0.45,18.25-1.32c2.89-0.41,5.44-0.33,8.53-0.93c2.35-0.45,4.82-0.31,7.2-0.65c4.1-0.59,9.38,0.28,13.43-0.92"/>
		<path style="&st0;" d="M50.86,143.15c-2.36-0.18-4.45,1.55-6.84,1.83c-2.03,0.24-5.12-0.54-6.84,0.22"/>
		<path style="&st0;" d="M36.05,142.47c1.45,0.04,2.15,1.19,3.87,0.91"/>
		<path style="&st0;" d="M44.71,141.33c4.08-1.45,8.24-1.13,12.49-1.82c5.19-0.84,9.85-2,14.86-0.23"/>
		<path style="&st0;" d="M21.01,149.08c-3.46,3.2-6.66,5.91-8.03,10.66c-0.52,1.81-3.36,13.15,0.69,12.32
			c0.49-1.61,1.48-3.13,1.81-4.82c0.41-2.1,0.2-4.24,0.9-6.31c1.14-3.34,3.46-3.48,5.3-5.69"/>
		<path style="&st0;" d="M18.96,157.51c-0.45,3.43-0.96,4.72,0.01,8.21c0.63,2.25,1.3,4.5,2.31,6.57c4.03,1.27,0.79-6.07,0.58-7.5
			c-0.42-2.87-0.76-4.87,1.43-6.82"/>
		<path style="&st0;" d="M37.19,145.2c-0.02,5.41-4.98,11.59-10.71,11.39"/>
		<path style="&st0;" d="M26.48,160.7c-0.09,2.31,0.58,4.39,0.68,6.57c0.06,1.21,0.36,5.25-1.77,3.13c-1.16-1.15-1.77-7.83-1.2-9.25
			"/>
		<path style="&st0;" d="M24.88,168.22c-0.05,1.62,0.49,5.52-1.58,2.95c-1.2-1.5-0.59-3.98-1.15-5.68"/>
		<path style="&st0;" d="M105.1,108.97c-0.46,2.59-1.01,5.22-1.59,7.75"/>
		<path style="&st0;" d="M109.2,104.64c1.08-1.48,4.07-0.8,5.69-0.86c3.04-0.11,5.2-2.09,8.43-2.33c3.56-0.27,7.41,0.03,10.96,0.01"
			/>
		<path style="&st0;" d="M128.57,107.15c2.32,1.17,4.92-0.15,5.92-2.28"/>
		<path style="&st0;" d="M116.72,97.35c0.08,0.99-0.01,1.92-0.46,2.73"/>
		<path style="&st0;" d="M109.43,99.17c0,0.76,0,1.52,0,2.28"/>
		<path style="&st0;" d="M30.58,85.5c0.3,0.71,1.08,1.02,1.97,0.92c-0.64-0.6-0.67-1.19-0.57-2.03c0.89,0.07,1.74,0.07,2.27-0.5
			c-0.34-0.3-0.44-0.81-0.76-1.12c0.74-0.6,1.58-0.83,2.52-0.96c-0.07-0.76-0.4-1.44-0.94-2.03c0.7-0.2,1.53-0.29,2.31-0.25
			c-0.33-0.56-0.42-1.39-0.62-1.99c0.44,0.11,1.09-0.16,1.53-0.06c-0.11-2.29,1.52-3.9,3.48-5.12c-0.37,0.83,0.19,2.1-0.26,2.88"/>
		<path style="&st0;" d="M137.68,117.63c2.06-3.9,6.5-0.31,8.89-2.96"/>
		<path style="&st0;" d="M150.22,114.44c1.79,0.14,4.88,0.58,6.61,1.14"/>
		<path style="&st0;" d="M156.37,106.46c0.8-1.5,1.71-0.81,2.96-1.14c1.61-0.42,2.87-1.17,4.2-2.46c1.79-1.73,2.85-2.9,2.87-5.52"/>
		<path style="&st0;" d="M156.82,85.5c-0.04,2.08-1.07,5.23-3.65,4.79"/>
		<path style="&st0;" d="M151.81,80.71c-0.31,1.89-1.32,4.76-2.51,6.15"/>
		<path style="&st0;" d="M147.48,78.66c1.28,1.59,1.62,5.03,1.37,7.06"/>
		<path style="&st0;" d="M124.69,53.14c0.39,2.71,4.55,4.52,6.83,5.06c0.99,0.24,2.26,0.07,3.22,0.4c0.74,0.25,1.23,1.05,2.03,1.33
			c1.34,0.46,2.66-0.4,3.71,0.8c0.48,0.54,0.45,2.27,0.91,3.07c0.33,0.58,0.88,0.98,1.28,1.5c1.15,1.53,1.54,4.34,2.81,5.62
			c2.68,2.69,6.57,0.3,9.76,0.49c-0.2,2.24,2.1,3.96,3.93,4.69c1.07,0.43,2.35,0.18,3.56,0.51c1.41,0.39,2.94,1.34,4.35,1.88
			c0.84,3.61,1.55,4.11,5.02,4.5c2.44,0.28,2.54,0.45,3.83,2.46c0.86,1.34,0.67,1.48,2.24,2.51c1.15,0.75,3.11,0.86,3.9,1.7
			c1.26,1.34,0.09,5.79,0.51,7.69c0.47,2.12,2.35,3.76,2.75,5.91c0.38,2.03-0.76,4.68,0.9,6.4c1.7,1.77,1.94,0.28,2.28,3.12
			c0.22,1.83-0.02,3.78,0.69,5.54c0.12,0.29,0.07,0.88,0.21,1.13c1.03,1.88,2.79,2.26,3.24,4.72c0.44,2.4-0.48,4.05-1.1,6.23
			c-0.61,2.14-0.86,4.7-1,6.92c-0.19,3.14-0.64,7.08-0.22,10.16c0.79,5.84,4.64,8.45,6.31,13.7c1.37,4.3,2.05,6.99,0.58,11.4
			c-0.62,1.84-0.55,2.91-2.14,3.79c-1.46,0.81-3.29,0.48-4.74,1.61c-0.84,0.66-0.89,1.75-1.47,2.29c-0.91,0.84-2.8,1.12-4,1.34
			c-2.92,0.54-6.23-0.42-9.1,0.28c-1.47,0.36-3.4,1.69-4.72,2.54c-1.9,1.23-3.49,2.04-5.32,3.45c-3.4,2.63-8.72,2.86-11.63,5.87"/>
		<path style="&st0;" d="M141.33,72.28c-0.72-1.5-2.07-6.54-0.46-7.75"/>
		<path style="&st0;" d="M169.58,85.27c0.36,1.31,3.24,7.03,0,7.29"/>
		<path style="&st0;" d="M173.91,95.52c0.37-1.34,0.52-4.21,1.6-5.01"/>
		<path style="&st0;" d="M175.51,98.49c0.52-0.48,1.02-1.14,1.37-1.82"/>
		<path style="&st0;" d="M176.19,103.04c0.67,2.76-0.28,5.14-0.46,7.75"/>
		<path style="&st0;" d="M157.28,110.11c2.1-1.7,5.3-0.33,7.71-2.05c2.37-1.69,3.16-3.21,3.68-5.93"/>
		<path style="&st0;" d="M162.98,115.81c0.6,1.31,1.6,2.57,1.37,4.1"/>
		<path style="&st0;" d="M149.99,124.24c1.42-0.01,2.29,0.06,3.47-0.62c1.01-0.58,1.49-2.3,2.68-1.66"/>
		<path style="&st0;" d="M157.51,135.17c1.84-1.95,4.76-7.85,7.98-6.38"/>
		<path style="&st0;" d="M182.57,111.25c-0.17,1.07-0.42,2.06-1.14,2.73"/>
		<path style="&st0;" d="M182.35,119c-0.02-1.59,1.55-1.46,1.6-2.96"/>
		<path style="&st0;" d="M184.85,120.59c0,2.27,0.59,4.65-2.05,5.24"/>
		<path style="&st0;" d="M180.29,133.35c0,3.91,0.15,5.18-2.79,7.46c-2.21,1.71-3.58,2.99-6.32,3.48"/>
		<path style="&st0;" d="M186.68,166.39c0.86-0.08,1.77-0.26,2.52-0.6c0.09,0.67,0.45,1.25,0.67,1.74"/>
		<path style="&st0;" d="M190.55,170.5c-1.79,0-3.44-0.25-4.96,0.63c-1.03,0.59-1.94,1.88-2.79,2.56"/>
		<path style="&st0;" d="M118.54,106.69c2.2,2.85,6.39,1.68,8.44,5c0.84,1.37,1,3.85,0.68,5.48c-0.39,1.98-1.91,3.23-3.25,4.81
			c-3.81,4.5-8.67,7.95-10.88,13.64c-2.84,7.32-4.41,15.31-3.33,23.23c1.09,7.99,5.01,14.23,9.66,20.51
			c2.76,3.73,6.8,5.1,10.79,7.31c1.99,1.11,9.07,3.89,11.14,1.81"/>
		<path style="&st0;" d="M133.35,177.79c0.16,1.34,1.49,1.97,2.73,1.82c1.65-0.2,1.41-0.97,2.51-2.05"/>
		<path style="&st0;" d="M156.82,163.43c0,2.75-0.71,6.42,2.05,7.75"/>
		<path style="&st0;" d="M163.89,153.86c-2.3,1.74-3.11,5.07-3.19,7.74c-0.06,2-1.12,5.91,0.68,7.3"/>
		<path style="&st0;" d="M167.08,156.14c-3.42,1.95-5,7.94-3.65,11.62"/>
		<path style="&st0;" d="M175.74,154.77c-5.29,0.96-8.68,5.56-8.2,10.71"/>
		<path style="&st0;" d="M82.08,134.95c-2.8-0.43-3.51-5.31,0-3.65"/>
		<path style="&st0;" d="M112.16,165.94c-3.89,0-7.57-1.26-11.67-0.91c-5.52,0.46-9.56,2.71-15.24,1.65
			c-4.11-0.76-6.53-2.72-10.18,0.45c-2.26,1.96-3.33,7.38-1.24,9.82c1.3,1.51,3.67,1.41,5.12,2.6c1.6,1.3,2.77,4.08,3.14,5.99
			c1.03,5.37,1.54,10.87,4.03,15.83c0.67,1.34,1.55,2.25,2.06,3.73c0.41,1.18,0.38,2.37,0.68,3.59c0.55,2.23,1.72,3.97,2.1,6.25
			c0.39,2.34,0.6,4.71,0.92,7.08c0.39,2.9,1.18,6.08,0.9,9.06c-0.37,3.9-2.72,11.55-7.52,12.34"/>
		<path style="&st0;" d="M82.54,171.86c0.91,1.86,2.18,5.06-0.23,6.38"/>
		<path style="&st0;" d="M85.95,181.89c0.86,1.62,0.91,2.7,0.91,4.56"/>
		<path style="&st0;" d="M87.32,190.32c0.12,1,0.29,1.9,0.23,2.96"/>
		<path style="&st0;" d="M88.46,197.84c4.2,4.63,3.48,12.31,4.73,18.19c0.64,3,1.59,6.17,1.88,9.21c0.23,2.42-0.17,4.93,0.23,7.24"
			/>
		<path style="&st0;" d="M88.69,174.83c1.63,0.61,4.99-0.85,6.88-1.19c3.75-0.67,7.97-0.41,11.81-0.41"/>
		<path style="&st0;" d="M61.34,247.06c0.21,0.21-0.15,0.51,0.42,0.5c-0.42,1.37-2.98,1.59-1.98,3.33c0.78,0.05,1.47-0.03,2.2-0.23
			c1.19-2.53,8.62,0.27,10.75,0.27c3.72,0,6.43-1.23,9.79-2.57c1.96-0.78,3.99-1.92,5.98-2.22c2.32-0.35,4.05,0.42,6.09,0.74
			c2.04,0.32,6.01,1.03,7.53-0.28c2.46-2.12,0.29-5.73-0.04-8.28c-0.44-3.44-2.03-5.8-2.94-9.13c-0.9-3.3-0.56-6.78-1.17-10.14
			c-0.7-3.84-0.76-7.37-1.09-11.26c-0.51-6.09,0.08-13.53-2.29-19.3c-0.89-2.18-3.28-4.03-3.89-6.17c-0.61-2.13,0.4-4.6-1.81-6.14"
			/>
		<path style="&st0;" d="M59.29,250.02c-1.11-0.4-3.35-1.2-3.84-2.24c1.97,0,3.41,0.28,5.21-0.5"/>
		<path style="&st0;" d="M79.35,243.42c-1.29,2.28-7.21,2.83-9.57,2.96c-3.02,0.16-7.1-0.25-9.57,1.14"/>
		<path style="&st0;" d="M70.46,243.64c-1.92-0.45-4.1-0.23-5.8-1.08c-0.9,0.26-1.48,1.07-1.46,2.86c2.93,0.15,5.69,0.26,8.62,0.26"
			/>
		<path style="&st0;" d="M70,240.45c-1.53,0.2-2.81-0.48-4.3-0.19c-0.02,1.04,0.23,1.86,0.19,2.93"/>
		<path style="&st0;" d="M91.88,233.85c-1.55,0.45-3.02,2.19-4.56,2.97c-2.14,1.08-4.23,1.94-6.59,2.04
			c-2.17,0.1-9.68-3.15-10.54-0.72c-1.19,0.13-0.1-0.5-1.29-0.38c-0.23,1.24-1.19,2.21-0.03,2.47"/>
		<path style="&st0;" d="M62.25,245.24c-1.07-0.79-1.89-2.06-2.25-3.32c1.4-0.17,2.35,1.13,3.85,1.04"/>
		<path style="&st0;" d="M64.99,241.14c-0.91-0.67-1.4-1.79-2.44-2.05c1.08-0.13,2.11,0.25,2.89,0.91"/>
		<path style="&st0;" d="M67.5,238.86c-0.98-0.29-1.67-1.14-2.01-2.02c0.88,0.48,1.67,0.84,2.69,0.88"/>
		<path style="&st0;" d="M70.91,236.81c-0.57-0.74-1.61-0.93-2.46-1.12c0.07,0.75,0.58,1.41,1.32,1.8"/>
		<path style="&st0;" d="M98.26,236.58c0.34,1.31,3.42,4.71,3.42,1.59"/>
		<path style="&st0;" d="M75.02,241.59c2.15,1.13,3.52-0.05,5.48-0.68c1.45-0.47,2.99-0.53,4.55-0.68"/>
		<path style="&st0;" d="M90.51,177.79c5.08,0,9.64-1.36,14.75-0.91c2.44,0.21,4.89,1.29,7.39,1.61c2.11,0.27,4.32-0.13,6.34,0.22"
			/>
		<path style="&st0;" d="M175.97,160.47c-2.59,2.98-6.18,3.91-9.51,5.7c-6.07,3.27-11.3,7.72-16.26,12.7
			c-2.81,2.82-5.14,6.2-7.51,9.31c-1.57,2.06-4.33,3.33-6.18,5.13c-2.99,2.9-6.89,5.61-9.63,8.65c-1.55,1.72-2.45,3.71-4.69,4.76
			c-4.96,2.33-9.7,2.94-8.2,9.8c0.46,2.1,1.78,2.53,3.85,2.74c3.4,0.35,6.38,0.04,9.67,1.18c2.78,0.96,5.12,2.55,7.86,3.66
			c2.66,1.07,5.35,1.79,8.03,2.91c6.09,2.54,12.54,3.34,18.76,5.51c3.58,1.25,7.21,2.61,10.7,4.07c2.14,0.89,4.17,2.57,3.79,5.23"/>
		<path style="&st0;" d="M154.32,193.28c-1.88,1.96-5.09,3.5-7.32,5.42c-2.8,2.42-5.76,4.67-8.7,7.05
			c-3.16,2.56-6.33,6.49-10.87,5.07"/>
		<path style="&st0;" d="M131.98,206.04c0.09-1.89,4.5-5.34,5.65-6.43c2.14-2.03,4.45-3.73,6.72-5.6c4.35-3.58,9.71-7.17,14.52-9.61
			"/>
		<path style="&st0;" d="M120.82,210.15c2.36,0.68,3.41,4.19,1.82,5.92"/>
		<path style="&st0;" d="M131.07,216.53c0.55,1.17,2.13,2.12,3.32,2.55c0.78,0.29,1.93,0.09,2.61,0.39
			c0.59,0.26,0.48,0.86,1.14,1.21c2.45,1.28,5.03,2.27,7.77,2.98c2.83,0.73,5.6,1.82,8.29,2.96c3.31,1.39,6.8,2.29,9.92,4.04"/>
		<path style="&st0;" d="M175.51,239.31c-2.43,2.43-3.44,5.1-5.63,7.57c-1.71,1.93-2.09,2.17-4.63,2.68c-2.67,0.54-3.72,0.29-5,2.75
			c-0.89,1.71-0.98,2.86-0.88,4.98c2.13,0.61,2.56-1.96,4.11-2.88c1.23-0.73,3.14-0.93,4.51-0.5"/>
		<path style="&st0;" d="M131.98,210.6c1.26,1.17,2.83,2.39,4.39,3.24c2.26,1.24,5.57,1.47,8.18,2c4.9,1,10.08,4.36,14.42,6.83
			c4.75,2.69,9.89,4.61,14.71,7.3c4.48,2.5,9.49,3.15,14.54,3.9c0.38,1.19,1.01,2.42,2.29,2.75c0.44,2.14-4.06,1.59-5.26,1.15
			c-2.03-0.74-3.89-2.25-5.87-2.79"/>
		<path style="&st0;" d="M188.73,234.07c4.15-0.57,9.97,2.66,10.89,6.43c1.04,4.29-4.89,3.76-7.92,4.51
			c-2.5,0.62-3.53,1.07-4.44,3.52c-0.7,1.87-0.63,5.23-2.12,6.56c-1.46,1.31-3.46-0.11-5.08,0.62c-1.79,0.81-1.51,3.1-1.59,4.8
			c-0.06,1.25-0.29,4.07-2.05,2.52c-0.97-0.85-0.46-4.26-0.46-5.48"/>
		<path style="&st0;" d="M174.83,247.06c-1.46,0.57-1.94,2.65-1.82,4.1"/>
		<path style="&st0;" d="M159.1,254.13c-1.58-0.09-3.27,1.39-3.85,2.74c1.11,0.42,2.6,0.22,3.85,0.22"/>
		<path style="&st0;" d="M168.67,251.85c0.11,1.82-1.4,3.42-2.51,4.61c-2.02,2.16-2.32,3.65-2.47,6.98
			c1.15,0.28,2.75,0.71,3.38-0.65"/>
		<path style="&st0;" d="M171.18,253.67c-1.88,2.13-3.44,5.79-3.59,8.66c-0.19,3.38,2.34,3.43,3.59,0.68"/>
		<path style="&st0;" d="M175.28,252.99c-1.68,1.38-3.41,4.33-3.89,6.37c-0.33,1.43-0.91,6.41,1.79,5.67
			c0.58-1.34,1.42-2.7,1.86-4.06"/>
		<path style="&st0;" d="M176.42,263.7c0.42,0.8,0.88,1.6,1.38,2.3c-0.01,0.17-0.01,0.18-0.02,0.01c0.33-0.97,0.23-1.96,0.24-3"/>
		<path style="&st0;" d="M170.27,264.84c0,1.25,0.48,3.59-1.33,3.38c-0.06-1.11-0.03-2.26-0.03-3.38"/>
		<path style="&st0;" d="M163.43,263.92c0.07,3.54,1.58,4.69,1.59,0.46"/>
		<path style="&st0;" d="M172.77,265.75c0.03,1.03,0.71,2.14,1.32,2.72c0.47-1.36,0.52-3.57,0.05-5"/>
		<path style="&st0;" d="M178.7,244.33c-0.37,2.47-2.4,4.19-2.05,6.84"/>
		<path style="&st0;" d="M181.43,245.01c-0.01,2.06-0.32,3.92-0.46,5.92"/>
		<path style="&st0;" d="M132.21,114.67c-0.32-1.69,2.21-1.9,2.77-3.38c1.43-0.19,2.49-1.25,4.06-0.95"/>
		<path style="&st0;" d="M22.83,65.49c0.01-0.81,1.43-1.48,2.75-1.25"/>
		<path style="&st0;" d="M29.58,73.99c1.33,0.11,2.33-0.89,2.21-2.21c-0.25-0.06-0.46,0-0.71-0.04"/>
		<path style="&st0;" d="M24.33,76.74c0.06-0.7,0.54-0.92,1.25-0.75"/>
	</g>
</svg>
