<?xml version="1.0" encoding="iso-8859-1"?>
<!-- Generator: Adobe Illustrator 11 Build 196, SVG Export Plug-In . SVG Version: 6.0.0 Build 78)  -->
<!DOCTYPE svg PUBLIC "-//W3C//DTD SVG 1.0//EN"    "http://www.w3.org/TR/2001/REC-SVG-20010904/DTD/svg10.dtd" [
	<!ENTITY ns_flows "http://ns.adobe.com/Flows/1.0/">
	<!ENTITY ns_svg "http://www.w3.org/2000/svg">
	<!ENTITY ns_xlink "http://www.w3.org/1999/xlink">
	<!ENTITY st0 "fill:none;stroke:#000000;stroke-linecap:round;stroke-linejoin:round;">
	<!ENTITY st1 "stroke:#000000;stroke-width:0.5;">
]>
<svg  xmlns="&ns_svg;" xmlns:xlink="&ns_xlink;" xmlns:a="http://ns.adobe.com/AdobeSVGViewerExtensions/3.0/"
	 width="90.51" height="215" viewBox="0 0 90.51 215" style="overflow:visible;enable-background:new 0 0 90.51 215"
	 xml:space="preserve">
	<g id="Pfade">
		<polyline style="&st0;" points="43.05,0.5 0.5,43.05 2.39,44.94 43.05,4.28 "/>
		<polyline style="&st0;" points="43.05,0.5 85.6,43.05 83.71,44.94 43.05,4.28 "/>
		<line style="&st0;" x1="2.39" y1="44.94" x2="6.8" y2="46.51"/>
		<line style="&st0;" x1="83.71" y1="44.94" x2="88.12" y2="46.51"/>
		<path style="&st0;" d="M68.46,96.47c0.55,0.2,1.1,0.39,1.65,0.59"/>
		<path style="&st0;" d="M15.98,96.47c0.55,0.2,1.1,0.39,1.65,0.59"/>
		<line style="&st0;" x1="85.6" y1="43.05" x2="90.01" y2="44.62"/>
		<line style="&st0;" x1="43.05" y1="0.5" x2="47.46" y2="2.08"/>
		<polyline style="&st0;" points="47.46,2.08 90.01,44.62 88.12,46.51 "/>
		<line style="&st0;" x1="6.8" y1="46.51" x2="15.93" y2="37.39"/>
		<polyline style="&st0;" points="68.46,30.07 68.46,96.47 15.98,96.47 15.98,34.38 44.2,6.16 "/>
		<polyline style="&st0;" points="17.64,97.06 70.11,97.06 70.11,31.45 "/>
		<line style="&st0;" x1="39.46" y1="97.42" x2="39.46" y2="214.5"/>
		<line style="&st0;" x1="46.55" y1="97.42" x2="46.55" y2="214.5"/>
		<line style="&st0;" x1="50.49" y1="97.42" x2="50.49" y2="214.5"/>
		<g>
			<path style="&st1;" d="M26.05,35.12l1.6-0.23c0.29-0.05,0.48-0.09,0.59-0.12l6.92-2.15l1.06-0.27l6.8-1.17l7.23-0.55l1.88-0.23
				c0.16,0,0.3,0,0.43,0c1.12,0,2.15,0.27,3.09,0.82c0.83,0.5,1.25,0.89,1.25,1.17c0,0.63-0.59,0.94-1.76,0.94
				c-0.21,0-0.6-0.03-1.17-0.08c-0.21-0.03-0.4-0.05-0.59-0.08c-0.24-0.03-0.48-0.05-0.74-0.08c-0.55-0.08-1.09-0.16-1.64-0.23
				c-0.57-0.05-1.13-0.08-1.68-0.08h-3.48h-0.39c-1.72,0.03-2.58,1.24-2.58,3.64c0,0.57,0.01,0.94,0.04,1.09l0.43,3.48l-0.35,5.86
				c-0.03,0.26-0.04,0.62-0.04,1.09c0,0.1,0,0.21,0,0.31l0.12,6.14v0.35c0.03,0.49-0.08,0.96-0.31,1.41
				c-0.21,0.42-0.44,0.63-0.7,0.63c-0.42,0-0.93-0.43-1.52-1.29c-0.81-1.07-1.21-2.14-1.21-3.2c0-0.57,0.16-1.76,0.47-3.56
				c0.08-0.42,0.13-0.83,0.16-1.25c0.05-0.52,0.09-1.24,0.12-2.15c0-0.23,0-0.6,0-1.09c0.03-0.52,0.04-0.91,0.04-1.17
				c0.03-2.14,0.18-3.93,0.47-5.39c0.26-1.43,0.72-2.93,1.37-4.49c-3.23,0.42-5.8,1.24-7.7,2.46l-1.68,1.05
				c-0.55,0.37-1.24,0.55-2.07,0.55c-1.59,0-3.2-0.62-4.85-1.88C25.72,35.2,25.86,35.12,26.05,35.12z M47.73,39.38
				c1.35,0,2.49,0.27,3.4,0.82c0.94,0.55,1.41,1.21,1.41,1.99c0,0.44-0.13,0.76-0.39,0.94c-0.29,0.18-0.85,0.3-1.68,0.35
				c-1.54,0.16-3.18,0.78-4.92,1.88v-0.16c0.52-0.47,1.02-0.86,1.48-1.17c0.86-0.63,1.29-1.09,1.29-1.41c0-0.52-0.68-0.92-2.03-1.21
				c-0.37-0.1-1.21-0.18-2.54-0.23l-0.23-0.2C43.96,39.92,45.36,39.38,47.73,39.38z"/>
			<path style="&st1;" d="M27.02,79.84c0.86,0.1,1.42,0.16,1.68,0.16c0.89,0,1.76-0.18,2.62-0.55l2.5-1.06
				c0.18-0.08,0.42-0.13,0.7-0.16c0.34-0.03,0.99-0.05,1.95-0.08c0.49,0,0.99-0.08,1.49-0.23c0.44-0.13,1.28-0.46,2.5-0.98
				c1.69-0.73,3.39-1.09,5.08-1.09c0.94,0,1.74,0.2,2.42,0.59c0.68,0.42,1.02,0.89,1.02,1.41c0,0.55-0.98,1.11-2.93,1.68
				c-0.86,0.23-1.93,0.78-3.2,1.64c-0.23,0.16-0.72,0.47-1.45,0.94c-0.31,0.21-0.64,0.42-0.98,0.63c0.05-0.29,0.22-0.52,0.51-0.7
				c1.72-1.3,2.94-2.46,3.67-3.48c-0.89,0.05-1.46,0.12-1.72,0.2l-1.56,0.55c-0.16,0.05-0.33,0.12-0.51,0.2c-0.03,0-0.05,0-0.08,0
				c-0.03,0-0.05,0.01-0.08,0.04h-0.04l-1.88,1.06c-0.1,0.08-0.34,0.12-0.7,0.12c-0.39,0-0.66-0.04-0.82-0.12l-1.72-0.66
				c-0.21-0.05-0.4-0.08-0.59-0.08c-0.44,0-0.85,0.18-1.21,0.55l-2.03,2.19c-0.26,0.31-0.62,0.47-1.09,0.47
				c-0.57,0-1.08-0.17-1.52-0.51c-0.63-0.39-1.21-0.82-1.76-1.29c-0.63-0.52-0.87-0.9-0.74-1.13l0.16-0.31
				C26.81,79.8,26.92,79.81,27.02,79.84z M36.13,60.38c0.42,1.02,0.63,2.02,0.63,3.01c0,0.26-0.03,0.65-0.08,1.17
				c-0.05,0.6-0.13,1.29-0.23,2.07c-0.13,1.25-0.19,2.84-0.19,4.77c0,0.78,0.06,1.76,0.19,2.93c1.15-0.34,1.99-0.62,2.54-0.86
				c0.57-0.26,1.32-0.68,2.23-1.25v-1.84c-1.04,0.39-1.84,0.59-2.38,0.59c-0.7,0-1.23-0.68-1.56-2.03c1.38-0.16,2.74-0.95,4.06-2.38
				v-1.02c-0.81,0.26-1.49,0.39-2.03,0.39c-0.44,0-1.04-0.09-1.8-0.27c0.65-0.73,1.62-1.38,2.89-1.95h0.04
				c0-0.03,0.01-0.04,0.04-0.04s0.05-0.01,0.08-0.04c0.08-0.03,0.14-0.05,0.2-0.08c0.08-0.05,0.16-0.09,0.23-0.12
				c0.03-0.03,0.06-0.05,0.12-0.08c0.03,0,0.06-0.01,0.12-0.04c0.03-0.18,0.04-0.43,0.04-0.74c0-0.5-0.18-1.06-0.55-1.68
				c-0.18,0.03-0.42,0.04-0.7,0.04c-0.78,0-1.73-0.36-2.85-1.09l0.04-0.19l0.51-0.12l3.17-0.82l3.21-0.94
				c0.16-0.03,0.3-0.05,0.43-0.08c0.31-0.05,0.62-0.12,0.94-0.2c0.42-0.08,0.82-0.14,1.21-0.19h0.19c1.46,0.13,2.19,0.49,2.19,1.09
				c0,0.44-1.12,0.96-3.36,1.56c-0.55,0.13-1.54,0.34-2.97,0.63c0.96,0.34,1.51,0.95,1.64,1.84c0.47-0.26,0.91-0.39,1.33-0.39
				c0.26,0,0.47,0.03,0.63,0.08c1.15,0.26,1.72,0.6,1.72,1.02c0,0.18-0.22,0.47-0.66,0.86c-0.31,0.23-0.77,0.61-1.37,1.13
				c-0.76,0.65-1.34,1.13-1.76,1.45l-0.2,0.9c0.86-0.39,1.54-0.59,2.03-0.59c0.29,0,0.6,0.1,0.94,0.31c0.65,0.36,0.98,0.7,0.98,1.02
				c0,0.34-0.67,0.83-1.99,1.48c-0.47,0.21-1.2,0.63-2.19,1.25l-0.23,1.92c1.28-0.29,2.3-0.48,3.09-0.59
				c0.76-0.1,1.54-0.16,2.34-0.16c1.88,0,3.37,0.4,4.5,1.21c1.09,0.81,1.64,1.89,1.64,3.24c0,0.73-0.12,1.56-0.35,2.5
				c-0.23,0.91-0.67,2.29-1.29,4.14c-0.68,1.95-1.42,3.57-2.23,4.85c-0.73,1.15-1.5,1.72-2.31,1.72c-0.76,0-1.56-0.34-2.42-1.02
				l-3.95-3.21c-0.63-0.47-1.34-0.95-2.15-1.45c-0.89-0.52-1.99-1.11-3.32-1.76l0.04-0.19c1.62,0.55,3.14,1.13,4.57,1.76
				c2.19,0.99,4.14,1.48,5.86,1.48c0.55,0,1.01-0.27,1.41-0.82c0.73-1.07,1.33-2.42,1.8-4.06c0.49-1.67,0.74-3.22,0.74-4.65
				c0-1.35-0.69-2.11-2.07-2.27c-2.76,0.21-5.38,0.91-7.85,2.11c-1.3,0.63-2.21,0.94-2.74,0.94c-0.44,0-1.17-0.23-2.19-0.7
				c0,0.13,0,0.26,0,0.39c0,1.04-0.35,1.56-1.06,1.56c-0.7,0-1.3-0.64-1.8-1.92c-0.52-1.28-0.78-2.8-0.78-4.57
				c0-1.98,0.16-3.84,0.47-5.59c0.29-1.69,0.82-3.87,1.6-6.53C35.48,59.34,35.82,59.7,36.13,60.38z"/>
		</g>
	</g>
</svg>
