<?xml version="1.0" encoding="iso-8859-1"?>
<!-- Generator: Adobe Illustrator 11 Build 196, SVG Export Plug-In . SVG Version: 6.0.0 Build 78)  -->
<!DOCTYPE svg PUBLIC "-//W3C//DTD SVG 1.0//EN"    "http://www.w3.org/TR/2001/REC-SVG-20010904/DTD/svg10.dtd" [
	<!ENTITY ns_flows "http://ns.adobe.com/Flows/1.0/">
	<!ENTITY ns_svg "http://www.w3.org/2000/svg">
	<!ENTITY ns_xlink "http://www.w3.org/1999/xlink">
	<!ENTITY st0 "fill:none;stroke:#000000;stroke-linecap:round;stroke-linejoin:round;">
]>
<svg  xmlns="&ns_svg;" xmlns:xlink="&ns_xlink;" xmlns:a="http://ns.adobe.com/AdobeSVGViewerExtensions/3.0/"
	 width="180.29" height="180.29" viewBox="0 0 180.29 180.29" style="overflow:visible;enable-background:new 0 0 180.29 180.29"
	 xml:space="preserve">
	<g id="Pfade">
		<circle style="&st0;" cx="90.14" cy="90.14" r="89.64"/> 
		<circle style="&st0;" cx="90.14" cy="90.14" r="70.05"/> 
		<circle style="&st0;" cx="90.14" cy="90.14" r="49.64"/> 
		<circle style="&st0;" cx="90.14" cy="90.14" r="13.46"/> 
		<g>
			<line style="&st0;" x1="90.14" y1="179.51" x2="90.14" y2="160.15"/>
			<line style="&st0;" x1="26.96" y1="153.33" x2="40.64" y2="139.65"/>
			<line style="&st0;" x1="160.15" y1="90.14" x2="179.51" y2="90.14"/>
			<line style="&st0;" x1="139.65" y1="139.65" x2="153.33" y2="153.33"/>
			<line style="&st0;" x1="0.78" y1="92.16" x2="20.14" y2="92.16"/>
			<line style="&st0;" x1="139.65" y1="40.64" x2="153.33" y2="26.96"/>
			<line style="&st0;" x1="90.14" y1="20.14" x2="90.14" y2="0.78"/>
			<line style="&st0;" x1="40.64" y1="40.64" x2="26.96" y2="26.96"/>
		</g>
		<g>
			<line style="&st0;" x1="46.49" y1="66.48" x2="28.59" y2="56.77"/>
			<line style="&st0;" x1="42.73" y1="75.38" x2="23.28" y2="69.33"/>
			<line style="&st0;" x1="42.73" y1="104.91" x2="23.28" y2="110.96"/>
			<line style="&st0;" x1="46.49" y1="113.81" x2="28.59" y2="123.51"/>
			<line style="&st0;" x1="66.48" y1="133.8" x2="56.77" y2="151.7"/>
			<line style="&st0;" x1="75.38" y1="137.56" x2="69.33" y2="157.01"/>
			<line style="&st0;" x1="104.91" y1="137.56" x2="110.96" y2="157.01"/>
			<line style="&st0;" x1="113.81" y1="133.8" x2="123.51" y2="151.7"/>
			<line style="&st0;" x1="133.8" y1="113.81" x2="151.7" y2="123.51"/>
			<line style="&st0;" x1="137.56" y1="104.91" x2="157.01" y2="110.96"/>
			<line style="&st0;" x1="137.56" y1="75.38" x2="157.01" y2="69.33"/>
			<line style="&st0;" x1="133.8" y1="66.48" x2="152.14" y2="57.47"/>
			<line style="&st0;" x1="113.81" y1="46.49" x2="123.51" y2="28.59"/>
			<line style="&st0;" x1="104.91" y1="42.73" x2="110.96" y2="23.28"/>
			<line style="&st0;" x1="75.38" y1="42.73" x2="69.33" y2="23.28"/>
			<line style="&st0;" x1="66.48" y1="46.49" x2="56.77" y2="28.59"/>
		</g>
		<g>
			<line style="&st0;" x1="80.14" y1="41.51" x2="87.43" y2="76.96"/>
			<line style="&st0;" x1="100.15" y1="41.51" x2="92.86" y2="76.96"/>
			<line style="&st0;" x1="117.9" y1="48.98" x2="97.67" y2="78.98"/>
			<line style="&st0;" x1="131.31" y1="62.39" x2="101.31" y2="82.62"/>
			<line style="&st0;" x1="138.78" y1="80.14" x2="103.33" y2="87.43"/>
			<line style="&st0;" x1="138.78" y1="100.15" x2="103.33" y2="92.86"/>
			<line style="&st0;" x1="131.31" y1="117.9" x2="101.31" y2="97.67"/>
			<line style="&st0;" x1="117.9" y1="131.31" x2="97.67" y2="101.31"/>
			<line style="&st0;" x1="100.15" y1="138.78" x2="92.86" y2="103.33"/>
			<line style="&st0;" x1="80.14" y1="138.78" x2="87.43" y2="103.33"/>
			<line style="&st0;" x1="62.39" y1="131.31" x2="82.62" y2="101.31"/>
			<line style="&st0;" x1="48.98" y1="117.9" x2="78.98" y2="97.67"/>
			<line style="&st0;" x1="41.51" y1="100.15" x2="76.95" y2="92.86"/>
			<line style="&st0;" x1="41.51" y1="80.14" x2="76.95" y2="87.43"/>
			<line style="&st0;" x1="48.98" y1="62.39" x2="78.98" y2="82.62"/>
			<line style="&st0;" x1="62.39" y1="48.98" x2="82.62" y2="78.98"/>
		</g>
	</g>
</svg>
