<?xml version="1.0" encoding="iso-8859-1"?>
<!-- Generator: Adobe Illustrator 11 Build 196, SVG Export Plug-In . SVG Version: 6.0.0 Build 78)  -->
<!DOCTYPE svg PUBLIC "-//W3C//DTD SVG 1.0//EN"    "http://www.w3.org/TR/2001/REC-SVG-20010904/DTD/svg10.dtd" [
	<!ENTITY ns_flows "http://ns.adobe.com/Flows/1.0/">
	<!ENTITY ns_svg "http://www.w3.org/2000/svg">
	<!ENTITY ns_xlink "http://www.w3.org/1999/xlink">
	<!ENTITY st0 "fill:none;stroke:#000000;stroke-linecap:round;stroke-linejoin:round;">
	<!ENTITY st1 "stroke:#000000;stroke-linecap:round;stroke-linejoin:round;">
]>
<svg  xmlns="&ns_svg;" xmlns:xlink="&ns_xlink;" xmlns:a="http://ns.adobe.com/AdobeSVGViewerExtensions/3.0/"
	 width="366.48" height="249.88" viewBox="0 0 366.48 249.88" style="overflow:visible;enable-background:new 0 0 366.48 249.88"
	 xml:space="preserve">
	<g id="Pfade">
		<rect x="72.23" y="240.63" style="&st0;" width="24.52" height="8.76"/> 
		<rect x="266.6" y="240.63" style="&st0;" width="24.52" height="8.76"/> 
		<rect x="94.12" y="103.63" style="&st0;" width="174.24" height="126.52"/> 
		<rect x="91.05" y="99.47" style="&st0;" width="180.8" height="134.4"/> 
		<line style="&st0;" x1="96.74" y1="249.38" x2="266.6" y2="249.38"/>
		<line style="&st0;" x1="96.74" y1="246.75" x2="266.6" y2="246.75"/>
		<path style="&st0;" d="M243.62,102.29"/>
		<path style="&st0;" d="M243.62,166.89"/>
		<path style="&st0;" d="M240.12,102.29"/>
		<path style="&st0;" d="M240.12,166.89"/>
		<rect x="209.11" y="103.63" style="&st0;" width="3.5" height="126.52"/> 
		<rect x="238.73" y="103.63" style="&st0;" width="3.5" height="126.52"/> 
		<rect x="179.48" y="103.63" style="&st0;" width="3.5" height="126.52"/> 
		<rect x="120.24" y="103.63" style="&st0;" width="3.5" height="126.52"/> 
		<rect x="149.86" y="103.63" style="&st0;" width="3.5" height="126.52"/> 
		<rect x="90.83" y="40.56" style="&st0;" width="3.5" height="41.81"/> 
		<rect x="267.92" y="40.56" style="&st0;" width="3.5" height="41.81"/> 
		<rect x="90.61" y="82.58" style="&st0;" width="180.81" height="3.5"/> 
		<line style="&st0;" x1="80.11" y1="86.09" x2="90.61" y2="86.09"/>
		<line style="&st0;" x1="85.8" y1="9.91" x2="112.5" y2="9.91"/>
		<line style="&st0;" x1="85.8" y1="16.04" x2="112.5" y2="16.04"/>
		<line style="&st0;" x1="85.36" y1="18.45" x2="112.06" y2="18.45"/>
		<line style="&st0;" x1="84.92" y1="23.05" x2="111.63" y2="23.05"/>
		<line style="&st0;" x1="84.05" y1="26.11" x2="110.75" y2="26.11"/>
		<line style="&st0;" x1="83.61" y1="30.71" x2="110.31" y2="30.71"/>
		<polyline style="&st0;" points="181.45,68.5 225.81,82.73 236.83,82.58 186.56,66.72 "/>
		<polyline style="&st0;" points="180.89,64.93 105.06,41 94.33,40.56 175.55,66.61 "/>
		<polyline style="&st0;" points="181.41,58.3 256.89,82.51 267.92,82.37 186.62,56.71 "/>
		<polyline style="&st0;" points="180.89,54.9 136.14,40.56 125.42,40.56 175.8,56.5 "/>
		<polyline style="&st0;" points="165.48,59.91 226.11,40.78 236.83,40.56 170.68,61.56 "/>
		<polyline style="&st0;" points="165.1,63.34 105.36,82.51 94.33,82.37 159.99,61.64 "/>
		<polyline style="&st0;" points="196.89,63.34 136.44,82.73 125.42,82.58 191.64,61.68 "/>
		<polyline style="&st0;" points="197.18,59.94 257.19,41 267.92,40.56 202.42,61.56 "/>
		<line style="&st0;" x1="93.9" y1="124.72" x2="120.46" y2="124.72"/>
		<line style="&st0;" x1="93.9" y1="145.8" x2="120.46" y2="145.8"/>
		<line style="&st0;" x1="93.9" y1="166.89" x2="120.46" y2="166.89"/>
		<line style="&st0;" x1="93.9" y1="187.98" x2="120.46" y2="187.98"/>
		<line style="&st0;" x1="93.9" y1="209.06" x2="120.46" y2="209.06"/>
		<line style="&st0;" x1="152.78" y1="124.72" x2="179.34" y2="124.72"/>
		<line style="&st0;" x1="152.78" y1="145.8" x2="179.34" y2="145.8"/>
		<line style="&st0;" x1="152.78" y1="166.89" x2="179.34" y2="166.89"/>
		<line style="&st0;" x1="152.78" y1="187.98" x2="179.34" y2="187.98"/>
		<line style="&st0;" x1="152.78" y1="209.06" x2="179.34" y2="209.06"/>
		<line style="&st0;" x1="182.99" y1="124.72" x2="209.55" y2="124.72"/>
		<line style="&st0;" x1="182.99" y1="145.8" x2="209.55" y2="145.8"/>
		<line style="&st0;" x1="182.99" y1="166.89" x2="209.55" y2="166.89"/>
		<line style="&st0;" x1="182.99" y1="187.98" x2="209.55" y2="187.98"/>
		<line style="&st0;" x1="182.99" y1="209.06" x2="209.55" y2="209.06"/>
		<line style="&st0;" x1="211.88" y1="124.72" x2="238.44" y2="124.72"/>
		<line style="&st0;" x1="211.88" y1="145.8" x2="238.44" y2="145.8"/>
		<line style="&st0;" x1="211.88" y1="166.89" x2="238.44" y2="166.89"/>
		<line style="&st0;" x1="211.88" y1="187.98" x2="238.44" y2="187.98"/>
		<line style="&st0;" x1="211.88" y1="209.06" x2="238.44" y2="209.06"/>
		<line style="&st0;" x1="242.09" y1="124.72" x2="268.65" y2="124.72"/>
		<line style="&st0;" x1="242.09" y1="145.8" x2="268.65" y2="145.8"/>
		<line style="&st0;" x1="242.09" y1="166.89" x2="268.65" y2="166.89"/>
		<line style="&st0;" x1="242.09" y1="187.98" x2="268.65" y2="187.98"/>
		<line style="&st0;" x1="242.09" y1="209.06" x2="268.65" y2="209.06"/>
		<line style="&st0;" x1="123.88" y1="124.72" x2="150.44" y2="124.72"/>
		<line style="&st0;" x1="123.88" y1="145.8" x2="150.44" y2="145.8"/>
		<line style="&st0;" x1="123.88" y1="166.89" x2="150.44" y2="166.89"/>
		<line style="&st0;" x1="123.88" y1="187.98" x2="150.44" y2="187.98"/>
		<line style="&st0;" x1="123.88" y1="209.06" x2="150.44" y2="209.06"/>
		<g>
			<polygon style="&st1;" points="95.43,124.72 93.9,124.72 93.9,103.63 97.4,103.63 "/>
			<polygon style="&st1;" points="95.43,145.8 93.9,145.8 93.9,124.72 97.4,124.72 "/>
			<polygon style="&st1;" points="95.43,166.89 93.9,166.89 93.9,145.8 97.4,145.8 "/>
			<polygon style="&st1;" points="95.43,187.98 93.9,187.98 93.9,166.89 97.4,166.89 "/>
			<polygon style="&st1;" points="95.43,209.06 93.9,209.06 93.9,187.98 97.4,187.98 "/>
			<polygon style="&st1;" points="95.43,230.15 93.9,230.15 93.9,209.06 97.4,209.06 "/>
		</g>
		<g>
			<polygon style="&st1;" points="125.42,124.72 123.88,124.72 123.88,103.63 127.39,103.63 "/>
			<polygon style="&st1;" points="125.42,145.8 123.88,145.8 123.88,124.72 127.39,124.72 "/>
			<polygon style="&st1;" points="125.42,166.89 123.88,166.89 123.88,145.8 127.39,145.8 "/>
			<polygon style="&st1;" points="125.42,187.98 123.88,187.98 123.88,166.89 127.39,166.89 "/>
			<polygon style="&st1;" points="125.42,209.06 123.88,209.06 123.88,187.98 127.39,187.98 "/>
			<polygon style="&st1;" points="125.42,230.15 123.88,230.15 123.88,209.06 127.39,209.06 "/>
		</g>
		<g>
			<polygon style="&st1;" points="154.31,124.72 152.78,124.72 152.78,103.63 156.28,103.63 "/>
			<polygon style="&st1;" points="154.31,145.8 152.78,145.8 152.78,124.72 156.28,124.72 "/>
			<polygon style="&st1;" points="154.31,166.89 152.78,166.89 152.78,145.8 156.28,145.8 "/>
			<polygon style="&st1;" points="154.31,187.98 152.78,187.98 152.78,166.89 156.28,166.89 "/>
			<polygon style="&st1;" points="154.31,209.06 152.78,209.06 152.78,187.98 156.28,187.98 "/>
			<polygon style="&st1;" points="154.31,230.15 152.78,230.15 152.78,209.06 156.28,209.06 "/>
		</g>
		<g>
			<polygon style="&st1;" points="184.52,124.72 182.99,124.72 182.99,103.63 186.49,103.63 "/>
			<polygon style="&st1;" points="184.52,145.8 182.99,145.8 182.99,124.72 186.49,124.72 "/>
			<polygon style="&st1;" points="184.52,166.89 182.99,166.89 182.99,145.8 186.49,145.8 "/>
			<polygon style="&st1;" points="184.52,187.98 182.99,187.98 182.99,166.89 186.49,166.89 "/>
			<polygon style="&st1;" points="184.52,209.06 182.99,209.06 182.99,187.98 186.49,187.98 "/>
			<polygon style="&st1;" points="184.52,230.15 182.99,230.15 182.99,209.06 186.49,209.06 "/>
		</g>
		<g>
			<polygon style="&st1;" points="213.41,124.72 211.88,124.72 211.88,103.63 215.38,103.63 "/>
			<polygon style="&st1;" points="213.41,145.8 211.88,145.8 211.88,124.72 215.38,124.72 "/>
			<polygon style="&st1;" points="213.41,166.89 211.88,166.89 211.88,145.8 215.38,145.8 "/>
			<polygon style="&st1;" points="213.41,187.98 211.88,187.98 211.88,166.89 215.38,166.89 "/>
			<polygon style="&st1;" points="213.41,209.06 211.88,209.06 211.88,187.98 215.38,187.98 "/>
			<polygon style="&st1;" points="213.41,230.15 211.88,230.15 211.88,209.06 215.38,209.06 "/>
		</g>
		<g>
			<polygon style="&st1;" points="243.62,124.72 242.09,124.72 242.09,103.63 245.59,103.63 "/>
			<polygon style="&st1;" points="243.62,145.8 242.09,145.8 242.09,124.72 245.59,124.72 "/>
			<polygon style="&st1;" points="243.62,166.89 242.09,166.89 242.09,145.8 245.59,145.8 "/>
			<polygon style="&st1;" points="243.62,187.98 242.09,187.98 242.09,166.89 245.59,166.89 "/>
			<polygon style="&st1;" points="243.62,209.06 242.09,209.06 242.09,187.98 245.59,187.98 "/>
			<polygon style="&st1;" points="243.62,230.15 242.09,230.15 242.09,209.06 245.59,209.06 "/>
		</g>
		<polygon style="&st0;" points="83.17,33.55 83.17,29.71 80.54,27.42 77.92,29.71 77.92,33.55 "/>
		<polyline style="&st0;" points="86.02,11.13 86.02,7.29 83.39,5 80.76,7.29 "/>
		<line style="&st0;" x1="83.39" y1="5" x2="80.54" y2="27.42"/>
		<line style="&st0;" x1="86.02" y1="7.29" x2="83.17" y2="29.71"/>
		<line style="&st0;" x1="86.02" y1="11.13" x2="83.17" y2="33.55"/>
		<line style="&st0;" x1="80.76" y1="7.29" x2="77.92" y2="29.71"/>
		<line style="&st0;" x1="118.63" y1="9.91" x2="145.34" y2="9.91"/>
		<line style="&st0;" x1="118.63" y1="16.04" x2="145.34" y2="16.04"/>
		<line style="&st0;" x1="118.19" y1="18.45" x2="144.9" y2="18.45"/>
		<line style="&st0;" x1="117.76" y1="23.05" x2="144.46" y2="23.05"/>
		<line style="&st0;" x1="116.88" y1="26.11" x2="143.59" y2="26.11"/>
		<line style="&st0;" x1="116.44" y1="30.71" x2="143.15" y2="30.71"/>
		<polygon style="&st0;" points="116,33.55 116,29.71 113.38,27.42 110.75,29.71 110.75,33.55 "/>
		<polyline style="&st0;" points="118.85,11.13 118.85,7.29 116.22,5 113.6,7.29 "/>
		<line style="&st0;" x1="116.22" y1="5" x2="113.38" y2="27.42"/>
		<line style="&st0;" x1="118.85" y1="7.29" x2="116" y2="29.71"/>
		<line style="&st0;" x1="118.85" y1="11.13" x2="116" y2="33.55"/>
		<line style="&st0;" x1="113.6" y1="7.29" x2="110.75" y2="29.71"/>
		<line style="&st0;" x1="151.47" y1="9.91" x2="178.17" y2="9.91"/>
		<line style="&st0;" x1="151.47" y1="16.04" x2="178.17" y2="16.04"/>
		<line style="&st0;" x1="151.47" y1="18.45" x2="178.17" y2="18.45"/>
		<line style="&st0;" x1="151.03" y1="23.05" x2="177.73" y2="23.05"/>
		<line style="&st0;" x1="149.71" y1="26.11" x2="176.42" y2="26.11"/>
		<line style="&st0;" x1="149.28" y1="30.71" x2="175.98" y2="30.71"/>
		<polygon style="&st0;" points="148.84,33.55 148.84,29.71 146.21,27.42 143.59,29.71 143.59,33.55 "/>
		<polyline style="&st0;" points="151.68,11.13 151.68,7.29 149.06,5 146.43,7.29 "/>
		<line style="&st0;" x1="149.06" y1="5" x2="146.21" y2="27.42"/>
		<line style="&st0;" x1="151.68" y1="7.29" x2="148.84" y2="29.71"/>
		<line style="&st0;" x1="151.68" y1="11.13" x2="148.84" y2="33.55"/>
		<line style="&st0;" x1="146.43" y1="7.29" x2="143.59" y2="29.71"/>
		<line style="&st0;" x1="184.3" y1="9.91" x2="209.03" y2="9.91"/>
		<line style="&st0;" x1="184.3" y1="16.04" x2="208.81" y2="16.04"/>
		<line style="&st0;" x1="184.08" y1="18.45" x2="208.38" y2="18.45"/>
		<line style="&st0;" x1="183.42" y1="23.05" x2="207.5" y2="23.05"/>
		<line style="&st0;" x1="182.55" y1="26.11" x2="207.06" y2="26.11"/>
		<line style="&st0;" x1="182.11" y1="30.71" x2="206.63" y2="30.71"/>
		<polygon style="&st0;" points="181.67,33.55 181.67,29.71 179.05,27.42 176.42,29.71 176.42,33.55 "/>
		<polyline style="&st0;" points="184.52,11.13 184.52,7.29 181.89,5 179.26,7.29 "/>
		<line style="&st0;" x1="181.89" y1="5" x2="179.05" y2="27.42"/>
		<line style="&st0;" x1="184.52" y1="7.29" x2="181.67" y2="29.71"/>
		<line style="&st0;" x1="184.52" y1="11.13" x2="181.67" y2="33.55"/>
		<line style="&st0;" x1="179.26" y1="7.29" x2="176.42" y2="29.71"/>
		<line style="&st0;" x1="214.94" y1="9.91" x2="241.65" y2="9.91"/>
		<line style="&st0;" x1="214.94" y1="16.04" x2="241.65" y2="16.04"/>
		<line style="&st0;" x1="214.94" y1="18.45" x2="241.65" y2="18.45"/>
		<line style="&st0;" x1="214.51" y1="23.05" x2="241.21" y2="23.05"/>
		<line style="&st0;" x1="213.19" y1="26.11" x2="239.9" y2="26.11"/>
		<line style="&st0;" x1="212.76" y1="30.71" x2="239.46" y2="30.71"/>
		<polygon style="&st0;" points="212.32,33.55 212.32,29.71 209.69,27.42 207.06,29.71 207.06,33.55 "/>
		<polyline style="&st0;" points="215.16,11.13 215.16,7.29 212.54,5 209.91,7.29 "/>
		<line style="&st0;" x1="212.54" y1="5" x2="209.69" y2="27.42"/>
		<line style="&st0;" x1="215.16" y1="7.29" x2="212.32" y2="29.71"/>
		<line style="&st0;" x1="215.16" y1="11.13" x2="212.32" y2="33.55"/>
		<line style="&st0;" x1="209.91" y1="7.29" x2="207.06" y2="29.71"/>
		<line style="&st0;" x1="247.78" y1="9.91" x2="274.48" y2="9.91"/>
		<line style="&st0;" x1="247.78" y1="16.04" x2="274.48" y2="16.04"/>
		<line style="&st0;" x1="247.34" y1="18.45" x2="274.05" y2="18.45"/>
		<line style="&st0;" x1="246.9" y1="23.05" x2="273.61" y2="23.05"/>
		<line style="&st0;" x1="246.03" y1="26.11" x2="272.73" y2="26.11"/>
		<line style="&st0;" x1="245.59" y1="30.71" x2="272.29" y2="30.71"/>
		<polygon style="&st0;" points="245.15,33.55 245.15,29.71 242.52,27.42 239.9,29.71 239.9,33.55 "/>
		<polyline style="&st0;" points="248,11.13 248,7.29 245.37,5 242.74,7.29 "/>
		<line style="&st0;" x1="245.37" y1="5" x2="242.52" y2="27.42"/>
		<line style="&st0;" x1="248" y1="7.29" x2="245.15" y2="29.71"/>
		<line style="&st0;" x1="248" y1="11.13" x2="245.15" y2="33.55"/>
		<line style="&st0;" x1="242.74" y1="7.29" x2="239.9" y2="29.71"/>
		<polygon style="&st0;" points="277.98,33.55 277.98,29.71 275.36,27.42 272.73,29.71 272.73,33.55 "/>
		<polyline style="&st0;" points="280.83,11.13 280.83,7.29 278.2,5 275.58,7.29 "/>
		<line style="&st0;" x1="278.2" y1="5" x2="275.36" y2="27.42"/>
		<line style="&st0;" x1="280.83" y1="7.29" x2="277.98" y2="29.71"/>
		<line style="&st0;" x1="280.83" y1="11.13" x2="277.98" y2="33.55"/>
		<line style="&st0;" x1="275.58" y1="7.29" x2="272.73" y2="29.71"/>
		<line style="&st0;" x1="365.1" y1="230.15" x2="365.98" y2="230.15"/>
		<polyline style="&st0;" points="365.1,103.63 288.93,103.63 288.93,230.15 365.1,230.15 "/>
		<line style="&st0;" x1="365.1" y1="233.87" x2="365.98" y2="233.87"/>
		<polyline style="&st0;" points="365.1,99.47 285.87,99.47 285.87,233.87 365.1,233.87 "/>
		<line style="&st0;" x1="291.56" y1="249.38" x2="365.1" y2="249.38"/>
		<line style="&st0;" x1="291.56" y1="246.75" x2="365.1" y2="246.75"/>
		<rect x="315.05" y="103.63" style="&st0;" width="3.5" height="126.52"/> 
		<rect x="344.67" y="103.63" style="&st0;" width="3.5" height="126.52"/> 
		<rect x="285.65" y="40.56" style="&st0;" width="3.5" height="41.81"/> 
		<polyline style="&st0;" points="365.1,82.58 285.43,82.58 285.43,86.09 365.1,86.09 "/>
		<line style="&st0;" x1="271.86" y1="233.87" x2="285.87" y2="233.87"/>
		<line style="&st0;" x1="271.86" y1="99.47" x2="285.87" y2="99.47"/>
		<line style="&st0;" x1="271.42" y1="86.09" x2="285.43" y2="86.09"/>
		<line style="&st0;" x1="280.61" y1="9.91" x2="307.32" y2="9.91"/>
		<line style="&st0;" x1="280.61" y1="16.04" x2="307.32" y2="16.04"/>
		<line style="&st0;" x1="280.17" y1="18.45" x2="306.88" y2="18.45"/>
		<line style="&st0;" x1="279.74" y1="23.05" x2="306.44" y2="23.05"/>
		<line style="&st0;" x1="278.86" y1="26.11" x2="305.56" y2="26.11"/>
		<line style="&st0;" x1="278.42" y1="30.71" x2="305.13" y2="30.71"/>
		<polyline style="&st0;" points="365.07,61.57 299.87,41 289.15,40.56 365.09,64.91 "/>
		<polyline style="&st0;" points="365.1,51.5 330.96,40.56 320.23,40.56 365.11,54.76 "/>
		<line style="&st0;" x1="360.29" y1="59.91" x2="365.16" y2="58.38"/>
		<polyline style="&st0;" points="359.92,63.34 300.17,82.51 289.15,82.37 354.81,61.64 "/>
		<polyline style="&st0;" points="365.17,71.85 331.26,82.73 320.23,82.58 365.16,68.41 "/>
		<line style="&st0;" x1="288.71" y1="124.72" x2="315.27" y2="124.72"/>
		<line style="&st0;" x1="288.71" y1="145.8" x2="315.27" y2="145.8"/>
		<line style="&st0;" x1="288.71" y1="166.89" x2="315.27" y2="166.89"/>
		<line style="&st0;" x1="288.71" y1="187.98" x2="315.27" y2="187.98"/>
		<line style="&st0;" x1="288.71" y1="209.06" x2="315.27" y2="209.06"/>
		<line style="&st0;" x1="347.59" y1="124.72" x2="365.1" y2="124.72"/>
		<line style="&st0;" x1="347.59" y1="145.8" x2="365.1" y2="145.8"/>
		<line style="&st0;" x1="347.59" y1="166.89" x2="365.1" y2="166.89"/>
		<line style="&st0;" x1="347.59" y1="187.98" x2="365.1" y2="187.98"/>
		<line style="&st0;" x1="347.59" y1="209.06" x2="365.1" y2="209.06"/>
		<line style="&st0;" x1="318.7" y1="124.72" x2="345.26" y2="124.72"/>
		<line style="&st0;" x1="318.7" y1="145.8" x2="345.26" y2="145.8"/>
		<line style="&st0;" x1="318.7" y1="166.89" x2="345.26" y2="166.89"/>
		<line style="&st0;" x1="318.7" y1="187.98" x2="345.26" y2="187.98"/>
		<line style="&st0;" x1="318.7" y1="209.06" x2="345.26" y2="209.06"/>
		<g>
			<polygon style="&st1;" points="290.24,124.72 288.71,124.72 288.71,103.63 292.21,103.63 "/>
			<polygon style="&st1;" points="290.24,145.8 288.71,145.8 288.71,124.72 292.21,124.72 "/>
			<polygon style="&st1;" points="290.24,166.89 288.71,166.89 288.71,145.8 292.21,145.8 "/>
			<polygon style="&st1;" points="290.24,187.98 288.71,187.98 288.71,166.89 292.21,166.89 "/>
			<polygon style="&st1;" points="290.24,209.06 288.71,209.06 288.71,187.98 292.21,187.98 "/>
			<polygon style="&st1;" points="290.24,230.15 288.71,230.15 288.71,209.06 292.21,209.06 "/>
		</g>
		<g>
			<polygon style="&st1;" points="320.23,124.72 318.7,124.72 318.7,103.63 322.2,103.63 "/>
			<polygon style="&st1;" points="320.23,145.8 318.7,145.8 318.7,124.72 322.2,124.72 "/>
			<polygon style="&st1;" points="320.23,166.89 318.7,166.89 318.7,145.8 322.2,145.8 "/>
			<polygon style="&st1;" points="320.23,187.98 318.7,187.98 318.7,166.89 322.2,166.89 "/>
			<polygon style="&st1;" points="320.23,209.06 318.7,209.06 318.7,187.98 322.2,187.98 "/>
			<polygon style="&st1;" points="320.23,230.15 318.7,230.15 318.7,209.06 322.2,209.06 "/>
		</g>
		<g>
			<polygon style="&st1;" points="349.13,124.72 347.59,124.72 347.59,103.63 351.1,103.63 "/>
			<polygon style="&st1;" points="349.13,145.8 347.59,145.8 347.59,124.72 351.1,124.72 "/>
			<polygon style="&st1;" points="349.13,166.89 347.59,166.89 347.59,145.8 351.1,145.8 "/>
			<polygon style="&st1;" points="349.13,187.98 347.59,187.98 347.59,166.89 351.1,166.89 "/>
			<polygon style="&st1;" points="349.13,209.06 347.59,209.06 347.59,187.98 351.1,187.98 "/>
			<polygon style="&st1;" points="349.13,230.15 347.59,230.15 347.59,209.06 351.1,209.06 "/>
		</g>
		<path style="&st0;" d="M275.36,27.42"/>
		<path style="&st0;" d="M278.2,5"/>
		<line style="&st0;" x1="313.88" y1="9.91" x2="340.59" y2="9.91"/>
		<line style="&st0;" x1="313.45" y1="16.04" x2="340.15" y2="16.04"/>
		<line style="&st0;" x1="313.01" y1="18.45" x2="339.71" y2="18.45"/>
		<line style="&st0;" x1="312.57" y1="23.05" x2="339.27" y2="23.05"/>
		<line style="&st0;" x1="311.69" y1="26.11" x2="338.4" y2="26.11"/>
		<line style="&st0;" x1="311.26" y1="30.71" x2="337.96" y2="30.71"/>
		<polygon style="&st0;" points="310.82,33.55 310.82,29.71 308.19,27.42 305.56,29.71 305.56,33.55 "/>
		<polyline style="&st0;" points="313.66,11.13 313.66,7.29 311.04,5 308.41,7.29 "/>
		<line style="&st0;" x1="311.04" y1="5" x2="308.19" y2="27.42"/>
		<line style="&st0;" x1="313.66" y1="7.29" x2="310.82" y2="29.71"/>
		<line style="&st0;" x1="313.66" y1="11.13" x2="310.82" y2="33.55"/>
		<line style="&st0;" x1="308.41" y1="7.29" x2="305.56" y2="29.71"/>
		<line style="&st0;" x1="346.28" y1="9.91" x2="365.1" y2="9.91"/>
		<line style="&st0;" x1="346.28" y1="16.04" x2="365.1" y2="16.04"/>
		<line style="&st0;" x1="346.28" y1="18.45" x2="365.1" y2="18.45"/>
		<line style="&st0;" x1="345.19" y1="23.05" x2="365.1" y2="23.05"/>
		<line style="&st0;" x1="344.53" y1="26.11" x2="365.1" y2="26.11"/>
		<line style="&st0;" x1="344.09" y1="30.71" x2="365.1" y2="30.71"/>
		<polygon style="&st0;" points="343.65,33.55 343.65,29.71 341.03,27.42 338.4,29.71 338.4,33.55 "/>
		<polyline style="&st0;" points="346.5,11.13 346.5,7.29 343.87,5 341.24,7.29 "/>
		<line style="&st0;" x1="343.87" y1="5" x2="341.03" y2="27.42"/>
		<line style="&st0;" x1="346.5" y1="7.29" x2="343.65" y2="29.71"/>
		<line style="&st0;" x1="346.5" y1="11.13" x2="343.65" y2="33.55"/>
		<line style="&st0;" x1="341.24" y1="7.29" x2="338.4" y2="29.71"/>
		<polyline style="&st0;" points="0.87,103.63 73.54,103.63 73.54,230.15 0.87,230.15 "/>
		<path style="&st0;" d="M0.87,99.47"/>
		<polyline style="&st0;" points="0.87,99.47 77.04,99.47 77.04,233.87 0.87,233.87 "/>
		<line style="&st0;" x1="0.87" y1="249.38" x2="71.79" y2="249.38"/>
		<line style="&st0;" x1="0.87" y1="246.75" x2="71.79" y2="246.75"/>
		<path style="&st0;" d="M48.81,102.29"/>
		<path style="&st0;" d="M48.81,166.89"/>
		<path style="&st0;" d="M45.3,102.29"/>
		<path style="&st0;" d="M45.3,166.89"/>
		<rect x="14.29" y="103.63" style="&st0;" width="3.5" height="126.52"/> 
		<rect x="43.92" y="103.63" style="&st0;" width="3.5" height="126.52"/> 
		<rect x="73.1" y="40.56" style="&st0;" width="3.5" height="41.81"/> 
		<polyline style="&st0;" points="0.87,86.09 76.6,86.09 76.6,82.58 0.87,82.58 "/>
		<path style="&st0;" d="M0.87,86.09"/>
		<path style="&st0;" d="M0.87,82.58"/>
		<line style="&st0;" x1="76.6" y1="86.09" x2="86.24" y2="86.09"/>
		<line style="&st0;" x1="0.87" y1="40.56" x2="365.1" y2="40.56"/>
		<path style="&st0;" d="M0.87,40.56"/>
		<line style="&st0;" x1="0.87" y1="37.71" x2="365.1" y2="37.71"/>
		<path style="&st0;" d="M0.87,37.71"/>
		<line style="&st0;" x1="0.87" y1="34.21" x2="365.1" y2="34.21"/>
		<path style="&st0;" d="M0.87,34.21"/>
		<line style="&st0;" x1="0.87" y1="0.5" x2="365.1" y2="0.5"/>
		<path style="&st0;" d="M0.87,0.5"/>
		<line style="&st0;" x1="0.87" y1="3.13" x2="365.1" y2="3.13"/>
		<path style="&st0;" d="M0.87,3.13"/>
		<line style="&st0;" x1="77.04" y1="99.47" x2="91.05" y2="99.47"/>
		<line style="&st0;" x1="77.04" y1="233.87" x2="91.05" y2="233.87"/>
		<path style="&st0;" d="M0.92,69.61"/>
		<polyline style="&st0;" points="0.84,73.05 31,82.73 42.02,82.58 0.92,69.61 "/>
		<path style="&st0;" d="M0.84,73.05"/>
		<path style="&st0;" d="M0.84,59.56"/>
		<polyline style="&st0;" points="0.81,62.86 62.08,82.51 73.1,82.37 0.84,59.56 "/>
		<path style="&st0;" d="M0.81,62.86"/>
		<line style="&st0;" x1="0.91" y1="53.61" x2="0.5" y2="53.74"/>
		<polyline style="&st0;" points="1.08,50.31 31.29,40.78 42.02,40.56 0.91,53.61 "/>
		<path style="&st0;" d="M0.83,63.74"/>
		<line style="&st0;" x1="2.08" y1="63.34" x2="0.83" y2="63.74"/>
		<polyline style="&st0;" points="2.36,59.94 62.38,41 73.1,40.56 7.61,61.56 "/>
		<line style="&st0;" x1="0.87" y1="124.72" x2="14.73" y2="124.72"/>
		<line style="&st0;" x1="0.87" y1="145.8" x2="14.73" y2="145.8"/>
		<line style="&st0;" x1="0.87" y1="166.89" x2="14.73" y2="166.89"/>
		<line style="&st0;" x1="0.87" y1="187.98" x2="14.73" y2="187.98"/>
		<line style="&st0;" x1="0.87" y1="209.06" x2="14.73" y2="209.06"/>
		<line style="&st0;" x1="17.07" y1="124.72" x2="43.62" y2="124.72"/>
		<line style="&st0;" x1="17.07" y1="145.8" x2="43.62" y2="145.8"/>
		<line style="&st0;" x1="17.07" y1="166.89" x2="43.62" y2="166.89"/>
		<line style="&st0;" x1="17.07" y1="187.98" x2="43.62" y2="187.98"/>
		<line style="&st0;" x1="17.07" y1="209.06" x2="43.62" y2="209.06"/>
		<line style="&st0;" x1="47.27" y1="124.72" x2="73.83" y2="124.72"/>
		<line style="&st0;" x1="47.27" y1="145.8" x2="73.83" y2="145.8"/>
		<line style="&st0;" x1="47.27" y1="166.89" x2="73.83" y2="166.89"/>
		<line style="&st0;" x1="47.27" y1="187.98" x2="73.83" y2="187.98"/>
		<line style="&st0;" x1="47.27" y1="209.06" x2="73.83" y2="209.06"/>
		<g>
			<polygon style="&st1;" points="18.6,124.72 17.07,124.72 17.07,103.63 20.57,103.63 "/>
			<polygon style="&st1;" points="18.6,145.8 17.07,145.8 17.07,124.72 20.57,124.72 "/>
			<polygon style="&st1;" points="18.6,166.89 17.07,166.89 17.07,145.8 20.57,145.8 "/>
			<polygon style="&st1;" points="18.6,187.98 17.07,187.98 17.07,166.89 20.57,166.89 "/>
			<polygon style="&st1;" points="18.6,209.06 17.07,209.06 17.07,187.98 20.57,187.98 "/>
			<polygon style="&st1;" points="18.6,230.15 17.07,230.15 17.07,209.06 20.57,209.06 "/>
		</g>
		<g>
			<polygon style="&st1;" points="48.81,124.72 47.27,124.72 47.27,103.63 50.77,103.63 "/>
			<polygon style="&st1;" points="48.81,145.8 47.27,145.8 47.27,124.72 50.77,124.72 "/>
			<polygon style="&st1;" points="48.81,166.89 47.27,166.89 47.27,145.8 50.77,145.8 "/>
			<polygon style="&st1;" points="48.81,187.98 47.27,187.98 47.27,166.89 50.77,166.89 "/>
			<polygon style="&st1;" points="48.81,209.06 47.27,209.06 47.27,187.98 50.77,187.98 "/>
			<polygon style="&st1;" points="48.81,230.15 47.27,230.15 47.27,209.06 50.77,209.06 "/>
		</g>
		<line style="&st0;" x1="0.87" y1="9.91" x2="14.66" y2="9.91"/>
		<path style="&st0;" d="M0.87,9.91"/>
		<line style="&st0;" x1="0.87" y1="16.04" x2="14" y2="16.04"/>
		<path style="&st0;" d="M0.87,16.04"/>
		<line style="&st0;" x1="0.87" y1="18.45" x2="13.56" y2="18.45"/>
		<path style="&st0;" d="M0.87,18.45"/>
		<line style="&st0;" x1="0.87" y1="23.05" x2="13.13" y2="23.05"/>
		<path style="&st0;" d="M0.87,23.05"/>
		<line style="&st0;" x1="0.87" y1="26.11" x2="12.69" y2="26.11"/>
		<path style="&st0;" d="M0.87,26.11"/>
		<line style="&st0;" x1="0.87" y1="30.71" x2="11.81" y2="30.71"/>
		<path style="&st0;" d="M0.87,30.71"/>
		<line style="&st0;" x1="20.13" y1="9.91" x2="46.83" y2="9.91"/>
		<line style="&st0;" x1="20.13" y1="16.04" x2="46.83" y2="16.04"/>
		<line style="&st0;" x1="20.13" y1="18.45" x2="46.4" y2="18.45"/>
		<line style="&st0;" x1="19.69" y1="23.05" x2="45.96" y2="23.05"/>
		<line style="&st0;" x1="18.38" y1="26.11" x2="45.08" y2="26.11"/>
		<line style="&st0;" x1="17.94" y1="30.71" x2="44.65" y2="30.71"/>
		<polygon style="&st0;" points="17.5,33.55 17.5,29.71 14.88,27.42 12.25,29.71 12.25,33.55 "/>
		<polyline style="&st0;" points="20.35,11.13 20.35,7.29 17.72,5 15.1,7.29 "/>
		<line style="&st0;" x1="17.72" y1="5" x2="14.88" y2="27.42"/>
		<line style="&st0;" x1="20.35" y1="7.29" x2="17.5" y2="29.71"/>
		<line style="&st0;" x1="20.35" y1="11.13" x2="17.5" y2="33.55"/>
		<line style="&st0;" x1="15.1" y1="7.29" x2="12.25" y2="29.71"/>
		<line style="&st0;" x1="52.96" y1="9.91" x2="79.67" y2="9.91"/>
		<line style="&st0;" x1="52.96" y1="16.04" x2="79.67" y2="16.04"/>
		<line style="&st0;" x1="52.96" y1="18.45" x2="79.23" y2="18.45"/>
		<line style="&st0;" x1="52.53" y1="23.05" x2="78.79" y2="23.05"/>
		<line style="&st0;" x1="51.21" y1="26.11" x2="77.92" y2="26.11"/>
		<line style="&st0;" x1="50.77" y1="30.71" x2="77.48" y2="30.71"/>
		<polygon style="&st0;" points="50.34,33.55 50.34,29.71 47.71,27.42 45.08,29.71 45.08,33.55 "/>
		<polyline style="&st0;" points="53.18,11.13 53.18,7.29 50.56,5 47.93,7.29 "/>
		<line style="&st0;" x1="50.56" y1="5" x2="47.71" y2="27.42"/>
		<line style="&st0;" x1="53.18" y1="7.29" x2="50.34" y2="29.71"/>
		<line style="&st0;" x1="53.18" y1="11.13" x2="50.34" y2="33.55"/>
		<line style="&st0;" x1="47.93" y1="7.29" x2="45.08" y2="29.71"/>
	</g>
</svg>
