<?xml version="1.0" encoding="iso-8859-1"?>
<!-- Generator: Adobe Illustrator 11 Build 196, SVG Export Plug-In . SVG Version: 6.0.0 Build 78)  -->
<!DOCTYPE svg PUBLIC "-//W3C//DTD SVG 1.0//EN"    "http://www.w3.org/TR/2001/REC-SVG-20010904/DTD/svg10.dtd" [
	<!ENTITY ns_flows "http://ns.adobe.com/Flows/1.0/">
	<!ENTITY ns_svg "http://www.w3.org/2000/svg">
	<!ENTITY ns_xlink "http://www.w3.org/1999/xlink">
	<!ENTITY st0 "fill:none;stroke:#000000;stroke-width:1.2559;stroke-linecap:round;stroke-linejoin:round;stroke-miterlimit:2;">
]>
<svg  xmlns="&ns_svg;" xmlns:xlink="&ns_xlink;" xmlns:a="http://ns.adobe.com/AdobeSVGViewerExtensions/3.0/"
	 width="130.52" height="122.07" viewBox="0 0 130.52 122.07" style="overflow:visible;enable-background:new 0 0 130.52 122.07"
	 xml:space="preserve">
	<g id="Bild">
		<path style="&st0;" d="M68.62,56.57c10.83-28.41,19.7-33.83,28.65-38.07"/>
		<line style="&st0;" x1="65.26" y1="56.02" x2="65.26" y2="10.26"/>
		<circle style="&st0;" cx="65.26" cy="64.01" r="7.99"/> 
		<path style="&st0;" d="M59.59,58.22C37.26,30.15,30.62,31.53,13.52,30.86c-0.69-0.03-1.51-1.74-1.14-2.53
			c2.73-5.87,7.82-10.83,14.77-13.6c4.21-4.52,10.71-7.66,14.39-4.05c1.34,1.31,2.14,0.96,2.51,0C47.55,1.7,55.72,0.59,65.26,0.63"
			/>
		<path style="&st0;" d="M62.03,56.49C51.2,28.08,42.2,22.74,33.25,18.5"/>
		<path style="&st0;" d="M60.61,70.62c-7.03,8.95-16.05,7.97-17.66,34.54"/>
		<path style="&st0;" d="M58.34,68.01"/>
		<path style="&st0;" d="M57.48,61.9c-24.69,1.79-35.88-10.2-45.81-25.32c-0.29-0.45-1.58-0.53-1.93-0.13
			c-4.34,5.03-7.79,9.73-6.66,17.53c-1.16,3.77-6.21,8.9,2.81,13.38c1.98,0.98,1.98,1.93,0.01,3.72
			c-7.24,6.6-0.85,27.41,11.14,28.48c1.11,0.1,1.66,0.26,1.68,1.49c0.16,11.53,18.55,19.56,39.54,20.39
			c0.44,0.02,0.88-0.87,0.67-1.35c-5.95-13.35-5.09-37.67,4.28-48.21"/>
		<path style="&st0;" d="M57.16,64.81c-30.02,4.83-39.17-0.13-47.32-5.76"/>
		<path style="&st0;" d="M58.34,68.01c-16.01,7.95-29.2,8.26-44.27,16.74"/>
		<path style="&st0;" d="M70.03,70.62c7.03,8.95,15.92,7.97,17.54,34.54"/>
		<path style="&st0;" d="M73.14,64.77c30.02,4.83,39.39-0.1,47.54-5.73"/>
		<path style="&st0;" d="M72.23,68.18c16.01,7.95,29.15,8.08,44.22,16.56"/>
		<path style="&st0;" d="M73.05,61.9c24.69,1.79,35.88-10.2,45.81-25.32c0.29-0.45,1.58-0.53,1.93-0.13
			c4.35,5.03,7.79,9.73,6.66,17.53c1.16,3.77,6.21,8.9-2.81,13.38c-1.98,0.98-1.98,1.93-0.01,3.72c7.24,6.6,0.85,27.41-11.14,28.48
			c-1.11,0.1-1.66,0.26-1.68,1.49c-0.17,11.53-18.55,19.56-39.54,20.39c-0.44,0.02-0.88-0.87-0.67-1.35
			c5.95-13.35,5.09-37.67-4.28-48.21"/>
		<path style="&st0;" d="M70.93,58.22c22.33-28.07,28.97-26.69,46.08-27.36c0.69-0.03,1.51-1.74,1.14-2.53
			c-2.73-5.87-7.82-10.83-14.77-13.6c-4.21-4.52-10.71-7.66-14.39-4.05c-1.34,1.31-2.14,0.96-2.51,0C82.97,1.7,74.8,0.59,65.26,0.63
			"/>
	</g>
</svg>
