<?xml version="1.0" encoding="iso-8859-1"?>
<!-- Generator: Adobe Illustrator 11 Build 196, SVG Export Plug-In . SVG Version: 6.0.0 Build 78)  -->
<!DOCTYPE svg PUBLIC "-//W3C//DTD SVG 1.0//EN"    "http://www.w3.org/TR/2001/REC-SVG-20010904/DTD/svg10.dtd" [
	<!ENTITY ns_flows "http://ns.adobe.com/Flows/1.0/">
	<!ENTITY ns_svg "http://www.w3.org/2000/svg">
	<!ENTITY ns_xlink "http://www.w3.org/1999/xlink">
]>
<svg  xmlns="&ns_svg;" xmlns:xlink="&ns_xlink;" xmlns:a="http://ns.adobe.com/AdobeSVGViewerExtensions/3.0/"
	 width="120.59" height="120.59" viewBox="0 0 120.59 120.59" style="overflow:visible;enable-background:new 0 0 120.59 120.59"
	 xml:space="preserve">
	<g id="Bild">
		<path d="M0,60.29c0,33.25,27.04,60.3,60.29,60.3c33.25,0,60.3-27.04,60.3-60.29C120.59,27.05,93.55,0,60.3,0
			C27.05,0,0,27.04,0,60.29z M65.27,12.67c24.13,2.48,42.98,22.86,42.97,47.63c0,6.85-1.65,13.72-4.25,19.62L73.47,62.34
			c0.45-2.92,0.6-4.07-0.32-4.6c-1-0.58-2.21,0.98-2.51,1.32l-6.73,9.16l35.17,20.29c-8.71,12.16-22.72,19.73-38.79,19.73
			c-16.12,0-30.11-7.58-38.8-19.81l30.49-17.65c2.3,1.85,3.22,2.56,4.14,2.02c1-0.58,0.25-2.41,0.11-2.83l-4.57-10.41L16.51,79.89
			c-2.56-5.86-4.16-12.81-4.16-19.6c0-24.77,18.9-45.09,43.03-47.57l0.04,35.23c-2.76,1.07-3.82,1.51-3.82,2.58
			c0,1.16,1.96,1.42,2.4,1.51l11.3,1.25l-0.05-10.73L65.27,12.67"/>
	</g>
</svg>
