<?xml version="1.0" encoding="iso-8859-1"?>
<!-- Generator: Adobe Illustrator 11 Build 196, SVG Export Plug-In . SVG Version: 6.0.0 Build 78)  -->
<!DOCTYPE svg PUBLIC "-//W3C//DTD SVG 1.0//EN"    "http://www.w3.org/TR/2001/REC-SVG-20010904/DTD/svg10.dtd" [
	<!ENTITY ns_flows "http://ns.adobe.com/Flows/1.0/">
	<!ENTITY ns_svg "http://www.w3.org/2000/svg">
	<!ENTITY ns_xlink "http://www.w3.org/1999/xlink">
]>
<svg  xmlns="&ns_svg;" xmlns:xlink="&ns_xlink;" xmlns:a="http://ns.adobe.com/AdobeSVGViewerExtensions/3.0/"
	 width="76.79" height="193.69" viewBox="0 0 76.79 193.69" style="overflow:visible;enable-background:new 0 0 76.79 193.69"
	 xml:space="preserve">
	<g id="&#xC9;&#xE5;&#xC9;C&#xC9;&#xD1;&#xC5;_x5B__x5F_2">
		<g>
			<path d="M0,0c0.05,0.67,7.87,116.49,7.89,116.89c7.06,2.25,11.69,8.2,12.46,16c7.15,0.41,13.52,8.99,13.52,18.29
				c0,0.07-0.05,7.75-0.05,7.75c-0.04,12.89-0.07,17.82-4.04,34.76c0.72,0,11.96,0,12.68,0c-3.97-16.94-4-21.86-4.04-34.76
				c0,0-0.05-7.67-0.05-7.74c0-9.3,6.37-17.88,13.52-18.29c0.77-7.8,5.4-13.76,12.46-16C64.39,116.49,72.21,0.67,72.26,0
				C71.59,0,0.67,0,0,0z"/>
			<path d="M74.25,0c-0.04,0.59-8,118.37-8,118.37l-0.21,0.06c-7.75,2.37-11.54,7.32-12.31,16.07l-0.02,0.28l-0.28,0.01
				c-8.11,0.23-13.06,8.65-13.06,16.4c0,0.06,0.05,7.77,0.05,7.77c0.02,5.37,0.03,9.25,0.32,13.25c0.53,7.21,2.09,14.28,3.77,21.48
				c0.34,0,1.29,0,1.77,0c-3.42-15.05-3.45-20.19-3.49-32.37c0,0-0.05-7.68-0.05-7.75c0-9.3,6.37-17.88,13.52-18.29
				c0.77-7.8,5.4-13.76,12.46-16C68.75,118.87,76.74,0.67,76.79,0C76.3,0,74.68,0,74.25,0z"/>
		</g>
	</g>
</svg>
