<?xml version="1.0" encoding="iso-8859-1"?>
<!-- Generator: Adobe Illustrator 11 Build 196, SVG Export Plug-In . SVG Version: 6.0.0 Build 78)  -->
<!DOCTYPE svg PUBLIC "-//W3C//DTD SVG 1.0//EN"    "http://www.w3.org/TR/2001/REC-SVG-20010904/DTD/svg10.dtd" [
	<!ENTITY ns_flows "http://ns.adobe.com/Flows/1.0/">
	<!ENTITY ns_svg "http://www.w3.org/2000/svg">
	<!ENTITY ns_xlink "http://www.w3.org/1999/xlink">
	<!ENTITY st0 "fill:none;stroke:#000000;stroke-linecap:round;stroke-linejoin:round;stroke-miterlimit:2;">
]>
<svg  xmlns="&ns_svg;" xmlns:xlink="&ns_xlink;" xmlns:a="http://ns.adobe.com/AdobeSVGViewerExtensions/3.0/"
	 width="131.94" height="133" viewBox="0 0 131.94 133" style="overflow:visible;enable-background:new 0 0 131.94 133"
	 xml:space="preserve">
	<g id="Bild">
		<polyline style="&st0;" points="0.5,0.5 22.85,0.5 22.85,14.34 "/>
		<line style="&st0;" x1="0.5" y1="14.34" x2="34.56" y2="14.34"/>
		<polyline style="&st0;" points="31.37,20.73 31.37,17.53 2.63,17.53 "/>
		<line style="&st0;" x1="2.63" y1="17.53" x2="2.63" y2="39.89"/>
		<line style="&st0;" x1="2.63" y1="39.89" x2="30.31" y2="39.89"/>
		<line style="&st0;" x1="30.31" y1="39.89" x2="30.31" y2="17.53"/>
		<line style="&st0;" x1="2.63" y1="86.73" x2="2.63" y2="47.34"/>
		<line style="&st0;" x1="6.09" y1="17.53" x2="6.09" y2="39.89"/>
		<line style="&st0;" x1="9.55" y1="17.53" x2="9.55" y2="39.89"/>
		<line style="&st0;" x1="13.01" y1="17.53" x2="13.01" y2="39.89"/>
		<line style="&st0;" x1="16.47" y1="17.53" x2="16.47" y2="39.89"/>
		<line style="&st0;" x1="19.93" y1="17.53" x2="19.93" y2="39.89"/>
		<line style="&st0;" x1="23.39" y1="17.53" x2="23.39" y2="39.89"/>
		<line style="&st0;" x1="26.85" y1="17.53" x2="26.85" y2="39.89"/>
		<line style="&st0;" x1="4.76" y1="47.27" x2="4.76" y2="86.73"/>
		<line style="&st0;" x1="0.5" y1="86.73" x2="10.08" y2="86.73"/>
		<line style="&st0;" x1="14.34" y1="86.73" x2="14.34" y2="47.34"/>
		<line style="&st0;" x1="21.79" y1="86.73" x2="21.79" y2="47.34"/>
		<line style="&st0;" x1="23.92" y1="86.73" x2="23.92" y2="47.34"/>
		<line style="&st0;" x1="31.37" y1="86.73" x2="31.37" y2="47.34"/>
		<line style="&st0;" x1="33.5" y1="86.73" x2="33.5" y2="47.34"/>
		<line style="&st0;" x1="35.63" y1="86.73" x2="35.63" y2="47.34"/>
		<line style="&st0;" x1="43.08" y1="86.73" x2="43.08" y2="47.34"/>
		<line style="&st0;" x1="45.21" y1="86.73" x2="45.21" y2="47.34"/>
		<line style="&st0;" x1="31.37" y1="35.63" x2="31.37" y2="38.82"/>
		<line style="&st0;" x1="0.5" y1="47.34" x2="10.08" y2="47.34"/>
		<polyline style="&st0;" points="0.5,42.02 57.98,42.02 57.98,128.24 "/>
		<polyline style="&st0;" points="2.63,14.34 2.63,3.69 19.66,3.69 19.66,14.34 "/>
		<polyline style="&st0;" points="19.66,3.69 22.85,0.5 42.02,13.27 42.02,18.6 "/>
		<polyline style="&st0;" points="31.37,17.53 34.56,14.34 34.56,42.02 "/>
		<polyline style="&st0;" points="34.56,31.37 43.08,31.37 43.08,42.02 "/>
		<polyline style="&st0;" points="34.56,28.18 46.27,28.18 46.27,42.02 "/>
		<polyline style="&st0;" points="12.21,86.73 52.66,86.73 52.66,47.34 "/>
		<line style="&st0;" x1="52.66" y1="47.34" x2="12.21" y2="47.34"/>
		<line style="&st0;" x1="12.21" y1="47.34" x2="12.21" y2="126.11"/>
		<line style="&st0;" x1="12.21" y1="126.11" x2="54.79" y2="126.11"/>
		<line style="&st0;" x1="54.79" y1="126.11" x2="54.79" y2="45.21"/>
		<line style="&st0;" x1="54.79" y1="45.21" x2="0.5" y2="45.21"/>
		<polyline style="&st0;" points="43.08,31.37 46.27,28.18 61.99,36.45 61.99,43.88 "/>
		<rect x="5.82" y="88.85" style="&st0;" width="2.13" height="2.13"/> 
		<line style="&st0;" x1="10.08" y1="45.21" x2="10.08" y2="128.24"/>
		<line style="&st0;" x1="0.5" y1="126.11" x2="10.08" y2="126.11"/>
		<line style="&st0;" x1="2.63" y1="126.11" x2="2.63" y2="93.11"/>
		<line style="&st0;" x1="0.5" y1="93.11" x2="10.08" y2="93.11"/>
		<line style="&st0;" x1="4.76" y1="93.11" x2="4.76" y2="126.11"/>
		<rect x="14.34" y="88.85" style="&st0;" width="2.13" height="2.13"/> 
		<rect x="18.6" y="88.85" style="&st0;" width="29.81" height="2.13"/> 
		<rect x="50.53" y="88.85" style="&st0;" width="2.13" height="2.13"/> 
		<polyline style="&st0;" points="12.21,93.11 52.66,93.11 52.66,126.11 "/>
		<line style="&st0;" x1="14.34" y1="93.11" x2="14.34" y2="126.11"/>
		<line style="&st0;" x1="21.79" y1="93.11" x2="21.79" y2="126.11"/>
		<line style="&st0;" x1="23.92" y1="126.11" x2="23.92" y2="93.11"/>
		<line style="&st0;" x1="31.37" y1="93.11" x2="31.37" y2="126.11"/>
		<line style="&st0;" x1="33.5" y1="93.11" x2="33.5" y2="126.11"/>
		<line style="&st0;" x1="35.63" y1="93.11" x2="35.63" y2="126.11"/>
		<line style="&st0;" x1="43.08" y1="93.11" x2="43.08" y2="126.11"/>
		<line style="&st0;" x1="45.21" y1="93.11" x2="45.21" y2="126.11"/>
		<line style="&st0;" x1="50.53" y1="93.11" x2="50.53" y2="126.11"/>
		<polyline style="&st0;" points="0.5,128.24 125.05,128.24 125.05,132.5 0.5,132.5 "/>
		<line style="&st0;" x1="50.53" y1="47.34" x2="50.53" y2="86.73"/>
		<polyline style="&st0;" points="57.98,72.89 78.21,72.89 78.21,128.24 "/>
		<line style="&st0;" x1="76.08" y1="75.02" x2="60.11" y2="75.02"/>
		<line style="&st0;" x1="60.11" y1="75.02" x2="60.11" y2="100.56"/>
		<line style="&st0;" x1="60.11" y1="100.56" x2="76.08" y2="100.56"/>
		<line style="&st0;" x1="76.08" y1="100.56" x2="76.08" y2="75.02"/>
		<line style="&st0;" x1="63.31" y1="75.02" x2="63.31" y2="100.56"/>
		<line style="&st0;" x1="66.5" y1="75.02" x2="66.5" y2="100.56"/>
		<line style="&st0;" x1="69.69" y1="75.02" x2="69.69" y2="100.56"/>
		<line style="&st0;" x1="72.89" y1="75.02" x2="72.89" y2="100.56"/>
		<line style="&st0;" x1="60.11" y1="103.76" x2="76.08" y2="103.76"/>
		<line style="&st0;" x1="76.08" y1="103.76" x2="76.08" y2="126.11"/>
		<line style="&st0;" x1="76.08" y1="126.11" x2="60.11" y2="126.11"/>
		<line style="&st0;" x1="60.11" y1="126.11" x2="60.11" y2="103.76"/>
		<line style="&st0;" x1="63.31" y1="103.76" x2="63.31" y2="126.11"/>
		<line style="&st0;" x1="66.5" y1="103.76" x2="66.5" y2="126.11"/>
		<line style="&st0;" x1="69.69" y1="103.76" x2="69.69" y2="126.11"/>
		<line style="&st0;" x1="72.89" y1="103.76" x2="72.89" y2="126.11"/>
		<polyline style="&st0;" points="125.05,128.24 128.24,125.05 131.44,117.6 131.44,123.98 128.24,132.5 "/>
		<polyline style="&st0;" points="125.05,132.5 128.24,132.5 128.24,125.05 116.53,125.05 113.34,125.05 "/>
		<polyline style="&st0;" points="57.98,69.69 81.4,69.69 81.4,128.24 "/>
		<line style="&st0;" x1="44.15" y1="19.66" x2="34.56" y2="14.34"/>
		<polyline style="&st0;" points="47.34,21.79 51.98,24.83 51.98,31.29 "/>
		<line style="&st0;" x1="44.15" y1="0.5" x2="44.15" y2="28.18"/>
		<rect x="46.27" y="0.5" style="&st0;" width="1.06" height="27.68"/> 
		<rect x="92.05" y="0.5" style="&st0;" width="1.06" height="83.03"/> 
		<rect x="69.69" y="0.5" style="&st0;" width="1.06" height="55.35"/> 
		<line style="&st0;" x1="67.56" y1="0.5" x2="67.56" y2="55.85"/>
		<polyline style="&st0;" points="54.79,45.21 57.98,42.02 67.56,47.34 "/>
		<polyline style="&st0;" points="57.98,55.85 69.69,55.85 69.69,69.69 "/>
		<polyline style="&st0;" points="70.76,48.4 72,48.54 72,56.69 "/>
		<polyline style="&st0;" points="89.92,71.82 81.4,69.69 78.21,72.89 "/>
		<line style="&st0;" x1="89.92" y1="0.5" x2="89.92" y2="83.53"/>
		<polyline style="&st0;" points="57.98,59.05 66.5,59.05 66.5,69.69 "/>
		<polyline style="&st0;" points="66.5,59.05 69.69,55.85 82.01,61.18 82.01,69.83 "/>
		<path style="&st0;" d="M60.11,64.37c1.06,2.13,3.19,2.13,4.26,0"/>
		<path style="&st0;" d="M83.53,90.98c1.06,2.13,3.19,2.13,4.26,0"/>
		<path style="&st0;" d="M84.6,121.85c1.06,3.19,5.32,3.19,6.39,0"/>
		<path style="&st0;" d="M101.63,121.85c1.06,3.19,5.32,3.19,6.39,0"/>
		<path style="&st0;" d="M88.85,104.82c1.06,3.19,5.32,3.19,6.39,0"/>
		<line style="&st0;" x1="81.4" y1="97.37" x2="104.82" y2="97.37"/>
		<polyline style="&st0;" points="81.4,86.73 89.92,86.73 89.92,97.37 "/>
		<polyline style="&st0;" points="89.92,86.73 93.11,83.53 102.69,83.53 102.69,95.24 93.11,97.37 93.11,83.53 81.4,83.53 "/>
		<polyline style="&st0;" points="81.4,100.56 101.63,100.56 101.63,111.21 81.4,111.21 "/>
		<polyline style="&st0;" points="101.63,100.56 104.82,97.37 104.82,111.21 112.27,106.95 112.27,95.24 104.82,97.37 "/>
		<line style="&st0;" x1="102.69" y1="95.24" x2="112.27" y2="95.24"/>
		<polyline style="&st0;" points="81.4,114.4 113.34,114.4 113.34,128.24 "/>
		<polyline style="&st0;" points="113.34,114.4 116.53,111.21 101.63,111.21 "/>
		<polyline style="&st0;" points="116.53,125.05 121.85,117.6 131.44,117.6 "/>
		<polyline style="&st0;" points="112.27,106.95 121.85,106.95 121.85,117.6 "/>
		<polyline style="&st0;" points="116.53,125.05 116.53,111.21 121.85,106.95 "/>
	</g>
</svg>
