<?xml version="1.0" encoding="iso-8859-1"?>
<!-- Generator: Adobe Illustrator 11 Build 196, SVG Export Plug-In . SVG Version: 6.0.0 Build 78)  -->
<!DOCTYPE svg PUBLIC "-//W3C//DTD SVG 1.0//EN"    "http://www.w3.org/TR/2001/REC-SVG-20010904/DTD/svg10.dtd" [
	<!ENTITY ns_flows "http://ns.adobe.com/Flows/1.0/">
	<!ENTITY ns_svg "http://www.w3.org/2000/svg">
	<!ENTITY ns_xlink "http://www.w3.org/1999/xlink">
	<!ENTITY st0 "stroke:#FFFFFF;stroke-width:2;stroke-linecap:round;stroke-linejoin:round;">
	<!ENTITY st1 "stroke:#000000;stroke-width:0.9474;stroke-linecap:round;stroke-linejoin:round;">
	<!ENTITY st2 "fill:none;stroke:#FFFFFF;stroke-width:3;stroke-linecap:round;stroke-linejoin:round;">
	<!ENTITY st3 "stroke:#000000;stroke-linecap:round;stroke-linejoin:round;">
]>
<svg  xmlns="&ns_svg;" xmlns:xlink="&ns_xlink;" xmlns:a="http://ns.adobe.com/AdobeSVGViewerExtensions/3.0/"
	 width="190.18" height="190.83" viewBox="0 0 190.18 190.83" style="overflow:visible;enable-background:new 0 0 190.18 190.83"
	 xml:space="preserve">
	<g id="Pfade">
		<g>
			<path style="&st1;" d="M20.83,149.4c7.49,16.77,28.88,28.06,47.16,24.67c20.53-3.81,26.19-25.41,24.89-43.91
				c-5.64,8.73-16.88,4.02-13.47-4.69c4.18-10.69,13.62-13.19,13.38-26.57c-7.19,8.72-16.62,7.02-13.71-4.93
				c2.97-12.18,12.37-11.71,13.38-25.62c-7.53,7.69-15.97,5.58-12.76-5.4c3.72-12.74,11.56-11.46,13.18-26.09
				c-8.72,8.88-16.17,6.36-13.47-5.64c3.45-15.34,16.26-12.14,12.91-30.6C70.93-0.87,63.53,12.18,60.87,27.16
				C58.66,39.59,42.74,37.48,48.3,14.85c-9.59,0.58-13.62,6.9-11.13,23.78c1.85,12.62-14.95,13.43-13.8-4.37
				c-13.43,7.48-10.64,25.56-4.04,39.98c6.53,14.26-14.57,18.7-14.57-4.92C-6.75,92.53,7.6,95.35,16.27,105.57
				c10.74,12.66-8.63,19.56-12.82,5.2c-3.26,22.23,18.63,20.47,28.41,29.32C41.12,148.46,32,156.58,20.83,149.4"/>
			<g>
				<path style="&st2;" d="M88.77,4.5C62.11,32.69,51.56,57.43,50.5,90.99c-1.05,33.36,10.43,59,31.23,76.11"/>
				<path style="&st2;" d="M41.39,42.28c3.51-0.17,11.89,1.69,16.2,8.52"/>
				<path style="&st2;" d="M44.27,33.65c4.17,2.62,5.31,8.95,5.51,10.1"/>
				<path style="&st2;" d="M78.79,46.5c-6.33,0.19-14.65,1.01-21.2,4.3"/>
				<path style="&st2;" d="M74.77,37.29c-2.3,2.3-3.64,5.37-3.93,9.48"/>
				<path style="&st2;" d="M25.09,64.15c5.99-0.29,23.05,7.59,26.48,13.1"/>
				<path style="&st2;" d="M30.46,53.4c4.52,3.67,7.01,12.33,7.3,14.17"/>
				<path style="&st2;" d="M22.98,90.43c6.84-0.33,23.9,7.18,27.81,13.41"/>
				<path style="&st2;" d="M30.27,75.84c4.84,5.24,7.74,16.11,8.04,18.73"/>
				<path style="&st2;" d="M26.43,118.05c9.1-0.36,24.89,5.14,28.92,10.41"/>
				<path style="&st2;" d="M29.31,103.84c7.7,4.6,11.55,14.56,12.03,16.85"/>
				<path style="&st2;" d="M65.64,150.75c-9.21-0.21-20.5,0.41-26.83,5.13"/>
				<path style="&st2;" d="M41.01,136.64c6.21,3.92,10.26,12.19,10.65,14.16"/>
				<path style="&st2;" d="M73.04,63.95c-7.24,0.78-17.96,7.04-21.47,13.3"/>
				<path style="&st2;" d="M71.48,52.77c-5.23,3.91-7.84,10.42-7.84,13.67"/>
				<path style="&st2;" d="M74.38,89.46c-7.59,0.75-19.91,8.39-23.59,14.39"/>
				<path style="&st2;" d="M70.74,76.23C65.67,80.9,62.9,89.4,62.9,93.3"/>
				<path style="&st2;" d="M77.07,112.47c-7.43,0.88-18.11,8.92-21.71,15.99"/>
				<path style="&st2;" d="M70.55,97.71c-3.07,3.64-3.88,11.98-2.84,17.56"/>
				<path style="&st2;" d="M80.14,140.28c-4.65,0.55-12.25,6.02-14.5,10.46"/>
				<path style="&st2;" d="M73.66,127.15c-2.88,3.07-4.07,12.17-2.36,16.73"/>
			</g>
		</g>
		<g>
			<path style="&st3;" d="M169.32,149.4c-7.49,16.77-28.88,28.06-47.16,24.67c-20.53-3.81-26.19-25.41-24.89-43.91
				c5.64,8.73,16.88,4.02,13.47-4.69c-4.18-10.69-13.63-13.19-13.38-26.57c7.19,8.72,16.62,7.02,13.71-4.93
				C108.1,81.79,98.7,82.26,97.69,68.35c7.53,7.69,15.97,5.58,12.76-5.4c-3.72-12.74-11.56-11.46-13.18-26.09
				c8.72,8.88,16.17,6.36,13.47-5.64c-3.45-15.34-16.26-12.14-12.91-30.6c21.39-1.49,28.79,11.57,31.45,26.55
				c2.21,12.43,18.13,10.32,12.57-12.31c9.59,0.58,13.62,6.9,11.13,23.78c-1.85,12.62,14.95,13.43,13.8-4.37
				c13.42,7.48,10.64,25.56,4.04,39.98c-6.53,14.26,14.57,18.7,14.57-4.92c11.51,23.21-2.84,26.03-11.51,36.25
				c-10.74,12.66,8.63,19.56,12.82,5.2c3.26,22.23-18.63,20.47-28.41,29.32C149.03,148.46,158.16,156.58,169.32,149.4"/>
			<g>
				<path style="&st2;" d="M101.39,4.5c26.66,28.19,37.21,52.93,38.27,86.5c1.05,33.36-8.98,58.25-31.23,75.86"/>
				<path style="&st2;" d="M148.76,42.28c-3.51-0.17-11.89,1.69-16.2,8.52"/>
				<path style="&st2;" d="M145.88,33.65c-4.17,2.62-5.31,8.95-5.51,10.1"/>
				<path style="&st2;" d="M111.36,46.5c6.33,0.19,14.65,1.01,21.2,4.3"/>
				<path style="&st2;" d="M115.39,37.29c2.3,2.3,3.64,5.37,3.92,9.48"/>
				<path style="&st2;" d="M165.06,64.15c-5.99-0.29-23.05,7.59-26.48,13.1"/>
				<path style="&st2;" d="M159.69,53.4c-4.51,3.67-7.01,12.33-7.29,14.17"/>
				<path style="&st2;" d="M167.17,90.43c-6.84-0.33-23.9,7.18-27.81,13.41"/>
				<path style="&st2;" d="M159.88,75.84c-4.84,5.24-7.74,16.11-8.04,18.73"/>
				<path style="&st2;" d="M163.72,118.05c-7.16-0.28-24.08,5.07-28.17,10.41"/>
				<path style="&st2;" d="M160.84,103.84c-7.69,4.6-11.54,14.56-12.03,16.85"/>
				<path style="&st2;" d="M124.51,150.75c9.21-0.21,20.5,0.41,26.83,5.13"/>
				<path style="&st2;" d="M149.14,136.64c-6.21,3.92-10.26,12.19-10.65,14.16"/>
				<path style="&st2;" d="M117.11,63.95c7.24,0.78,17.96,7.04,21.47,13.3"/>
				<path style="&st2;" d="M118.67,52.77c5.23,3.91,7.84,10.42,7.84,13.67"/>
				<path style="&st2;" d="M115.77,89.46c7.59,0.75,19.91,8.39,23.59,14.39"/>
				<path style="&st2;" d="M119.41,76.23c5.07,4.67,7.84,13.17,7.84,17.07"/>
				<path style="&st2;" d="M113.08,112.47c7.43,0.88,18.86,8.92,22.46,15.99"/>
				<path style="&st2;" d="M119.6,97.71c3.07,3.64,3.88,11.98,2.84,17.56"/>
				<path style="&st2;" d="M110.02,140.28c4.65,0.55,12.24,6.02,14.5,10.46"/>
				<path style="&st2;" d="M116.49,127.15c2.88,3.07,4.07,12.17,2.36,16.73"/>
			</g>
		</g>
		<g>
			<path style="&st0;" d="M87.05,165.23c8.62,6.67,20.66,13.83,32.62,18.45c0.8,0.31,1.29,1.11,1.2,1.96
				c-0.09,0.85-0.73,1.54-1.57,1.68l-14.96,2.49c-0.43,0.07-0.86,0-1.24-0.22c-8.37-4.7-16.31-11.03-22.35-17.85
				c-0.37-0.42-0.54-0.97-0.46-1.52c0.08-0.55,0.39-1.04,0.86-1.34l3.72-3.76C85.55,164.7,86.41,164.74,87.05,165.23z"/>
			<path style="&st3;" d="M118.99,185.44c-13.43-5.18-25.26-12.65-33.1-18.72l-3.72,3.76c5.29,5.96,12.8,12.37,21.86,17.45
				L118.99,185.44z"/>
		</g>
		<g>
			<path style="&st0;" d="M102.97,164.99c-8.62,6.67-20.19,13.59-32.15,18.21c-0.8,0.31-1.29,1.11-1.2,1.96
				c0.09,0.85,0.73,1.54,1.57,1.68l14.96,2.49c0.43,0.07,0.86,0,1.24-0.22c8.37-4.7,16.31-11.03,22.35-17.84
				c0.37-0.42,0.54-0.97,0.46-1.52c-0.08-0.55-0.39-1.04-0.86-1.34l-4.2-3.52C104.47,164.46,103.6,164.5,102.97,164.99z"/>
			<path style="&st3;" d="M71.5,184.97c13.42-5.18,24.79-12.41,32.63-18.48l4.2,3.52c-5.29,5.96-12.8,12.36-21.86,17.45L71.5,184.97
				z"/>
		</g>
	</g>
</svg>
