<?xml version="1.0" encoding="iso-8859-1"?>
<!-- Generator: Adobe Illustrator 11 Build 196, SVG Export Plug-In . SVG Version: 6.0.0 Build 78)  -->
<!DOCTYPE svg PUBLIC "-//W3C//DTD SVG 1.0//EN"    "http://www.w3.org/TR/2001/REC-SVG-20010904/DTD/svg10.dtd" [
	<!ENTITY ns_flows "http://ns.adobe.com/Flows/1.0/">
	<!ENTITY ns_svg "http://www.w3.org/2000/svg">
	<!ENTITY ns_xlink "http://www.w3.org/1999/xlink">
]>
<svg  xmlns="&ns_svg;" xmlns:xlink="&ns_xlink;" xmlns:a="http://ns.adobe.com/AdobeSVGViewerExtensions/3.0/"
	 width="195.45" height="191.19" viewBox="0 0 195.45 191.19" style="overflow:visible;enable-background:new 0 0 195.45 191.19"
	 xml:space="preserve">
	<g id="&#xC9;&#xE5;&#xC9;C&#xC9;&#xD1;&#xC5;_x5B__x5F_2">
		<g>
			<g id="XMLID_4_">
				<g>
					<path d="M114.25,99.81c2.84-5.9,2.24-16.77-0.94-21.72C132.85,74.02,131.96,102.6,114.25,99.81z"/>
					<path d="M97.25,124.36c-11.69-0.19-14.95-18.37-2.83-21.72C112.73,97.6,111.59,124.59,97.25,124.36z"/>
					<path d="M92.53,147.02c3.22,17.93-26.21,18.71-23.6,0.94c5.83-1.41,12.62-1.85,15.11-6.61
						C87.61,142.51,89.73,145.11,92.53,147.02z"/>
					<path d="M64.21,106.42c1.4,7.1,1.86,15.14,7.55,17.94C57.34,144.43,39.19,106.78,64.21,106.42z"/>
					<path d="M121.8,69.6c-3.65-2.33-5.46-6.5-11.33-6.61c2.34-5.21,5.24-9.87,4.72-17.94c3.08-3.84,9.01-4.84,13.22-7.55
						c-5.59-17.15,13.93-32.15,32.1-22.66c0.69,2.58-1.88,1.9-1.89,3.78c1.62,3.41,8.71,1.37,11.33,3.78
						c-3.46,7.54,7.85,6.82,11.33,10.39c0.44,2.96-2.54,2.49-2.83,4.72c3.09,2.58,7.4,3.93,9.44,7.55c-0.33,3.13-5.44,1.48-8.5,1.89
						c0.48,5.81,6.79,5.8,9.44,9.44c0.7,3.22-3.48,1.56-3.78,3.78c2.35,4.26,7.22,6,10.39,9.44c-0.86,2.29-3.8,2.5-6.61,2.83
						c1.53,3.19,3.8,5.64,5.66,8.5c-1.42,3.12-2.31-1.96-4.72-0.94c-2.05,3.22,3.39,5.67,2.83,10.39c-3.78,0-5.67-1.89-9.44-1.89
						c-3.17,0.86-0.47,1.76-0.94,4.72c-4.21,0.11-5.85-2.33-9.44-2.83c-1.28,0.29-0.78,2.36-0.94,3.78
						c-4.78,0.69-5.59-2.59-9.44-2.83c-2.83,0.62,0.91,2.02,0,3.78c-8.36-1.72-7.31-12.83-17.94-12.27
						C147.02,68.81,131.72,62.3,121.8,69.6z"/>
					<path d="M99.14,75.27c0.79-11.28,22.11-14.28,18.88,0C111.42,76.44,105.31,78.07,99.14,75.27z"/>
					<path d="M106.7,124.36c14.46,16.66-18.01,28.78-20.77,11.33C83.44,120.05,95.86,128.43,106.7,124.36z"/>
					<path d="M102.92,147.02c16.07-20.55,28.51,27.14,2.83,20.77C108.84,161.12,107.97,150.79,102.92,147.02z"/>
					<path d="M105.75,100.76c-4.48-0.87-9.3-1.41-12.27-3.78C86.16,61.07,133.4,88.18,105.75,100.76z"/>
					<path d="M141.63,85.65c13.51-2.58,16.79,10.57,11.33,18.88c-3.02,1.69-7.92,3.31-11.33,1.89
						C145.29,100.08,144.47,92.18,141.63,85.65z"/>
					<path d="M88.76,90.37c-1.97,0.4-2.5-0.65-3.78-0.94c-2.88,2.47-2.3,8.39-3.78,12.27c-3.94-0.47-4.54-4.27-5.67-7.55
						c-3.65-1.05-3.36,3.33-5.67,0.94c0.46-2.98-1.7-3.33-0.94-6.61c-4.99,8.22-12.64,13.79-17.94,21.72
						c-2.58,0.69-1.9-1.88-3.78-1.89c-3.56,2.42-4.81,7.15-9.44,8.5c-3.03,0.83-1.29-3.12-3.78-2.83c-4.2,1.78-5.83,6.13-11.33,6.61
						c-0.73-4.5,1.47-6.08,0.94-10.39c-0.1-2.42-3.16-1.87-5.66-1.89c1.35-3.67,5.49-9.15-0.94-10.38c1.31-1.2,0.42-4.63,2.83-4.72
						c0.51-3.34-3.34-2.32-2.83-5.67c6.18-3.64-0.28-8.95,5.67-13.22c-0.52-2.62-7.62,1.32-5.67-3.78c-3.3-0.16-6.04,0.26-7.55,1.89
						c-3.31-0.75-1.09-3.3,0-4.72c-0.49-3.3-6.17-1.39-9.44-1.89c-0.19-6.8,5.24-7.98,7.55-12.27c-0.14-2.07-2.38-2.03-4.72-1.89
						c0.8-5.17,5.34-6.61,9.44-8.5c-0.41-1.79-2.03-2.37-1.89-4.72c6.25-4.14,16.66-4.11,25.49-5.67
						c-2.93-3.06-7.77-4.19-10.39-7.55c0.4-2.12,5.01-0.03,5.67-1.89c-0.18-2.96-3.74-2.56-2.83-6.61
						c2.93-2.43,10.95,0.25,9.44-6.61c5.17-0.67,5.66-0.16,10.39-0.94c15.6-14.91,35.9,5.13,30.21,23.6
						c14.96-10.98,38.55-3.03,33.99,21.72c-2.63,9.32-14.51,9.41-16.05,19.83c-2.28-0.39-2.05,1.73-4.72,0.94
						C91.14,80.79,90,85.63,88.76,90.37z"/>
					<path d="M131.25,106.42c15.02-1.11,15.54,21.93,1.89,22.66C129,122.39,129.52,112.86,131.25,106.42z"/>
					<path d="M132.19,132.86c9.06,4.95,6.03,21.24-4.72,21.72c-5.36-0.92-4.65-7.93-8.5-10.39
						C123.98,141.01,129.83,138.69,132.19,132.86z"/>
					<path d="M130.3,85.65c12.09-1.78,15.35,13.62,8.5,19.83c-5.09-0.58-10.46-0.87-13.22-3.78
						C126.39,95.58,131.63,93.9,130.3,85.65z"/>
					<path d="M92.53,98.87c-5.26,3.65-12.6,14.56-5.67,21.72c-14.03,13.31-27.52-14.24-12.27-19.83c1.77,2.32,2.96,5.23,4.72,7.55
						c5.71-0.9,5.59-7.63,7.55-12.27C88.54,97.2,91.84,96.73,92.53,98.87z"/>
					<path d="M95.37,146.08c22.83,3.8,2.25,36.96-12.27,18.88C89.01,160.5,95.5,156.6,95.37,146.08z"/>
					<path d="M81.2,1.62C91.79-3.69,93.5,5.77,103.86,5.4c4.98,13.32,25.33,12.9,21.72,32.1c-9.15-3.12-9.68-14.87-19.83-17
						c-5.44,0.23-6.82,4.51-12.27,4.72c0.38-3.71,4.15-4.03,4.72-7.55C94.73,10.13,85.89,7.96,81.2,1.62z"/>
					<path d="M121.8,74.32c3.91-11.73,26.61-4.27,18.88,9.44C132.53,85.87,125.39,79.83,121.8,74.32z"/>
					<path d="M128.41,122.47c6.19,10.93-5.44,22.75-16.05,17c-2.49-2.86,0.96-11.65-2.83-13.22
						C116.15,125.32,122.64,124.26,128.41,122.47z"/>
					<path d="M81.2,126.25c14.29,15.3-19.93,28.87-19.83,6.61C70.04,132.46,71.79,123.14,81.2,126.25z"/>
					<path d="M87.81,170.63c-0.97,4.69-4.02,7.31-6.61,10.39c-12.68,1.59-17.43-19.09-1.89-17.94
						C81.54,166.2,82.99,170.1,87.81,170.63z"/>
					<path d="M125.58,102.65c8.99,10.56-3.69,26.96-16.05,18.88c3.44-7.77-0.78-14.62-0.94-19.83
						C111.38,101.45,121.37,101.27,125.58,102.65z"/>
					<path d="M101.03,170.63c4.21-0.41,8.98,5.8,8.5,11.33c-1.49,17.3-35.48,8.07-19.83-9.44C94.95,173.36,96.7,170.7,101.03,170.63
						z"/>
				</g>
			</g>
		</g>
	</g>
</svg>
