<?xml version="1.0" encoding="iso-8859-1"?>
<!-- Generator: Adobe Illustrator 11 Build 196, SVG Export Plug-In . SVG Version: 6.0.0 Build 78)  -->
<!DOCTYPE svg PUBLIC "-//W3C//DTD SVG 1.0//EN"    "http://www.w3.org/TR/2001/REC-SVG-20010904/DTD/svg10.dtd" [
	<!ENTITY ns_flows "http://ns.adobe.com/Flows/1.0/">
	<!ENTITY ns_svg "http://www.w3.org/2000/svg">
	<!ENTITY ns_xlink "http://www.w3.org/1999/xlink">
	<!ENTITY st0 "fill:none;stroke:#000000;">
]>
<svg  xmlns="&ns_svg;" xmlns:xlink="&ns_xlink;" xmlns:a="http://ns.adobe.com/AdobeSVGViewerExtensions/3.0/"
	 width="397.86" height="377.51" viewBox="0 0 397.86 377.51" style="overflow:visible;enable-background:new 0 0 397.86 377.51"
	 xml:space="preserve">
	<g id="Pfade">
		<circle style="&st0;" cx="199.41" cy="189.89" r="75"/> 
		<path style="&st0;" d="M337.91,189.89c0-38.25-15.5-72.87-40.57-97.93c-25.06-25.06-59.69-40.57-97.93-40.57
			c-38.25,0-72.87,15.5-97.93,40.57c-25.06,25.06-40.57,59.69-40.57,97.93c0,38.25,15.5,72.87,40.57,97.93
			c25.06,25.06,59.69,40.57,97.93,40.57c38.25,0,72.87-15.5,97.93-40.57S337.91,228.14,337.91,189.89z"/>
		<line style="&st0;" x1="124.41" y1="189.89" x2="274.41" y2="189.89"/>
		<line style="&st0;" x1="130.12" y1="218.59" x2="268.7" y2="161.19"/>
		<line style="&st0;" x1="146.38" y1="242.93" x2="252.44" y2="136.86"/>
		<line style="&st0;" x1="170.71" y1="259.18" x2="228.11" y2="120.6"/>
		<line style="&st0;" x1="199.41" y1="264.89" x2="199.41" y2="114.89"/>
		<line style="&st0;" x1="228.11" y1="259.18" x2="170.71" y2="120.6"/>
		<line style="&st0;" x1="252.44" y1="242.93" x2="146.38" y2="136.86"/>
		<line style="&st0;" x1="268.7" y1="218.59" x2="130.12" y2="161.19"/>
		<g>
			<path d="M196.05,97.55v-5.16l2.55,0.25c-0.03,0.24-0.17,0.37-0.72,0.44v14.68c0,0.21-0.79,0.67-1.47,0.67h-0.37v-3.88
				c-0.82,0.59-1.93,1.33-3.34,2.19c-0.07,0.23-0.24,0.4-0.44,0.47l-1.12-2.27c0.89-0.14,2.83-0.54,4.9-1.01v-6h-4.57l-0.1-0.35
				H196.05z M206.85,103.44v2.61c0.68,0.28,0.77,0.4,0.77,0.68c0,0.79-0.56,1.17-2.34,1.17h-2.34c-2.01,0-2.42-0.51-2.42-2.54V92.4
				l2.57,0.23c-0.04,0.24-0.17,0.38-0.72,0.45v5.69c1.12-1.05,2.31-2.48,2.94-3.45l2.33,1.42c-0.05,0.09-0.16,0.14-0.3,0.14
				c-0.07,0-0.18-0.02-0.28-0.05c-1.05,0.79-3.01,1.85-4.69,2.54v6.07c0,0.7,0.07,0.77,0.56,0.77h2.31c0.25,0,0.46-0.03,0.63-0.3
				c0.19-0.26,0.49-1.31,0.82-2.47H206.85z"/>
		</g>
		<g>
			<path d="M145.81,255.15c-0.25,0.05-0.46-0.04-0.82-0.4l-4.58-4.58l-1.82,1.82l2.64,2.63l1.25-0.16l0.38,2.44
				c-0.17,0.03-0.47-0.05-0.77-0.25l-5.51,5.51c-0.82,0.82-1.56,1.21-3.33-0.21c0.98-0.98,0.57-1.71-0.12-2.62l0.16-0.16l1.6,1.6
				c0.16,0.16,0.26,0.18,0.4,0.05l5.82-5.82l-6.77-6.77l-6.88,6.88c-0.04,0.04-0.71,0.31-1.83-0.82l8.22-8.22l0.84,2l2.56,2.56
				l1.82-1.82l-5-5l0.17-0.32l5.07,5.07l1.92-1.92l1.7,2.04c-0.2,0.15-0.42,0.12-0.84-0.2l-1.42,1.42l2.88,2.88l1.82-0.21
				L145.81,255.15z M136.62,259.05c-0.25,0.07-0.47-0.05-0.79-0.37l-1.99-1.99l-2.39,2.39c-0.07,0.05-0.68-0.11-1.34-0.77
				l-0.24-0.24l2.67-2.67l-2.29-2.29l0.19-0.31l2.35,2.35l1.65-1.64l-2.15-2.15l0.17-0.32l3.32,3.32c0.82-0.4,1.92-1.03,2.67-1.51
				l1.14,2.1c-0.19,0.09-0.36,0.01-0.63-0.31c-0.79,0.07-1.92,0.09-2.88,0.01l0.73,0.73l1.26-0.12l0.36,1.82
				c-0.25,0.08-0.46-0.04-0.77-0.35l-1.93-1.93l-1.65,1.64l0.74,0.74l1.42-0.16L136.62,259.05z M135.17,249.63
				c0.94,1.54,0.83,2.46,0.4,2.9c-0.37,0.37-1,0.36-1.36,0c-0.17-0.17-0.28-0.46-0.25-0.79c0.52-0.52,0.97-1.41,1.04-2.13
				L135.17,249.63z"/>
			<path d="M134.22,266.74c-0.25,0.07-0.46-0.01-0.82-0.37l-3.5-3.5l-2.61,2.61l1.68,1.68l1.35-0.19l0.33,2.44
				c-0.19,0.01-0.41-0.04-0.73-0.28l-6.5,6.5c-0.07,0.07-0.83-0.09-1.48-0.74l-0.24-0.24l0.94-0.94l-7.08-7.08l-0.66,0.66
				c-0.09,0.09-0.8-0.01-1.46-0.67l-0.23-0.24l8.04-8.04l0.88,1.99l1.24,1.24l2.61-2.61l-3.54-3.54l0.19-0.31l9.31,9.31l1.82-0.21
				L134.22,266.74z M128.84,267.52l-1.79-1.79l-2.2,2.2c-0.33,0.33-0.37,0.37-0.25,0.5l0.48,0.48c0.2,0.2,0.33,0.33,1.27-0.11
				l0.09,0.09l-0.64,0.69c0.2,0.57,0.16,0.66-0.02,0.84c-0.46,0.46-1.03,0.36-1.76-0.37l-0.67-0.67c-1.1-1.1-1.03-1.42,0.27-2.72
				l2.18-2.18l-1.41-1.41c-1.61,1.58-3.66,3.12-6.93,2.15l0-0.25c2.36-0.11,4.1-1.6,5.68-3.16l-1.37-1.37l-5.94,5.94l7.08,7.08
				L128.84,267.52z M126.04,264.23l2.61-2.61l-1.41-1.41l-2.61,2.61L126.04,264.23z"/>
		</g>
		<g>
			<path d="M147.39,73.62l-1.98-4.77l2.45-0.75c0.06,0.24-0.02,0.41-0.5,0.68l5.62,13.56c0.08,0.19-0.47,0.92-1.1,1.18l-0.34,0.14
				l-1.49-3.59c-0.53,0.86-1.27,1.97-2.25,3.3c0.02,0.24-0.07,0.46-0.22,0.6l-1.9-1.67c0.77-0.47,2.41-1.59,4.14-2.81l-2.3-5.55
				l-4.22,1.75l-0.23-0.28L147.39,73.62z M159.62,74.94l1,2.41c0.74,0,0.86,0.08,0.97,0.34c0.3,0.73-0.07,1.3-1.72,1.98l-2.17,0.9
				c-1.86,0.77-2.43,0.45-3.2-1.42l-4.96-11.98l2.46-0.77c0.06,0.24-0.01,0.42-0.49,0.69l2.18,5.25c0.63-1.4,1.18-3.18,1.4-4.31
				l2.69,0.42c-0.01,0.1-0.09,0.19-0.22,0.24c-0.06,0.03-0.17,0.05-0.28,0.06c-0.67,1.13-2.07,2.87-3.36,4.14l2.32,5.61
				c0.27,0.65,0.36,0.68,0.81,0.5l2.13-0.88c0.23-0.09,0.41-0.21,0.47-0.52c0.08-0.32-0.05-1.4-0.18-2.59L159.62,74.94z"/>
			<path d="M154.08,89.79l-1.97-4.77l2.45-0.75c0.06,0.24-0.02,0.41-0.5,0.68l5.62,13.56c0.08,0.19-0.47,0.92-1.1,1.18l-0.34,0.14
				l-1.49-3.59c-0.53,0.86-1.27,1.97-2.25,3.3c0.02,0.24-0.07,0.47-0.22,0.6l-1.91-1.67c0.77-0.47,2.41-1.59,4.14-2.81l-2.3-5.55
				L150,91.86l-0.23-0.28L154.08,89.79z M166.32,91.11l1,2.41c0.74,0,0.87,0.08,0.97,0.34c0.3,0.73-0.07,1.3-1.72,1.98l-2.17,0.9
				c-1.86,0.77-2.43,0.46-3.2-1.42l-4.96-11.98l2.46-0.77c0.06,0.24-0.01,0.42-0.49,0.7l2.18,5.25c0.63-1.4,1.18-3.18,1.4-4.31
				l2.69,0.42c-0.01,0.1-0.09,0.19-0.22,0.24c-0.06,0.03-0.17,0.05-0.28,0.06c-0.67,1.13-2.07,2.87-3.36,4.14l2.32,5.61
				c0.27,0.65,0.36,0.68,0.81,0.5l2.13-0.88c0.23-0.09,0.41-0.21,0.47-0.52c0.08-0.32-0.05-1.4-0.18-2.59L166.32,91.11z"/>
			<path d="M169.98,97.95c-0.03,0.26-0.19,0.42-0.66,0.61l-4.58,1.9l1.41,3.41l2.2-0.91l0.34-1.32l2.38,0.62
				c-0.06,0.18-0.19,0.36-0.54,0.57l3.52,8.49c0.04,0.1-0.4,0.73-1.25,1.09l-0.31,0.13l-0.51-1.23l-9.25,3.83l0.35,0.86
				c0.05,0.11-0.32,0.74-1.18,1.09l-0.31,0.13l-4.35-10.51l2.18-0.05l1.62-0.67l-1.41-3.41l-4.62,1.92l-0.22-0.29l12.16-5.04
				l0.5-1.76L169.98,97.95z M168.64,103.22l-2.34,0.97l1.19,2.88c0.18,0.44,0.2,0.48,0.36,0.42l0.63-0.26
				c0.26-0.11,0.44-0.18,0.38-1.22l0.11-0.05l0.39,0.86c0.6,0.03,0.67,0.1,0.77,0.34c0.25,0.6-0.06,1.09-1.02,1.48l-0.87,0.36
				c-1.44,0.6-1.71,0.4-2.41-1.29l-1.18-2.85l-1.84,0.76c0.85,2.09,1.48,4.58-0.66,7.23l-0.23-0.09c0.8-2.23,0.09-4.4-0.74-6.46
				l-1.79,0.74l3.21,7.76l9.25-3.83L168.64,103.22z M164.53,104.55l-1.41-3.41l-1.84,0.76l1.41,3.41L164.53,104.55z"/>
		</g>
		<g>
			<path d="M119.36,115.04l-3.65-3.65l1.98-1.63c0.15,0.2,0.14,0.38-0.2,0.82l10.38,10.38c0.15,0.15-0.09,1.03-0.57,1.51l-0.26,0.26
				l-2.75-2.75c-0.16,1-0.42,2.3-0.82,3.91c0.11,0.21,0.11,0.46,0.03,0.64l-2.4-0.82c0.53-0.73,1.62-2.39,2.75-4.18l-4.24-4.24
				l-3.23,3.23l-0.32-0.17L119.36,115.04z M131.16,111.57l1.84,1.84c0.68-0.28,0.83-0.26,1.03-0.06c0.56,0.56,0.43,1.22-0.83,2.49
				l-1.66,1.66c-1.42,1.42-2.07,1.35-3.5-0.09l-9.17-9.17l1.98-1.66c0.15,0.2,0.15,0.4-0.19,0.83l4.02,4.02
				c0.05-1.53-0.12-3.39-0.36-4.52l2.65-0.64c0.03,0.1-0.01,0.21-0.11,0.31c-0.05,0.05-0.14,0.11-0.23,0.16
				c-0.19,1.3-0.82,3.44-1.52,5.11l4.29,4.29c0.5,0.5,0.59,0.5,0.94,0.15l1.63-1.63c0.17-0.17,0.3-0.35,0.24-0.66
				c-0.05-0.32-0.58-1.27-1.16-2.33L131.16,111.57z"/>
			<path d="M137.19,116.51c0.07,0.25-0.01,0.46-0.37,0.82l-3.5,3.5l2.61,2.61l1.68-1.68l-0.19-1.35l2.44-0.33
				c0.01,0.19-0.04,0.41-0.29,0.73l6.5,6.5c0.07,0.07-0.09,0.83-0.74,1.48l-0.24,0.24l-0.94-0.94l-7.08,7.08l0.66,0.66
				c0.09,0.09-0.01,0.8-0.67,1.46l-0.24,0.23l-8.04-8.04l1.99-0.88l1.24-1.24l-2.61-2.61l-3.54,3.54l-0.31-0.19l9.3-9.31l-0.21-1.82
				L137.19,116.51z M134.67,124.69l-2.61-2.61l-1.41,1.41l2.61,2.61L134.67,124.69z M137.97,121.89l-1.79,1.79l2.2,2.2
				c0.33,0.33,0.37,0.37,0.5,0.25l0.48-0.48c0.2-0.2,0.33-0.33-0.11-1.27l0.09-0.09l0.69,0.64c0.57-0.2,0.66-0.16,0.84,0.02
				c0.46,0.46,0.36,1.03-0.37,1.76l-0.67,0.67c-1.1,1.1-1.42,1.03-2.72-0.27l-2.18-2.18l-1.41,1.41c1.58,1.61,3.12,3.66,2.15,6.93
				l-0.25,0c-0.11-2.36-1.6-4.1-3.15-5.68l-1.37,1.37l5.94,5.94l7.08-7.08L137.97,121.89z"/>
		</g>
		<g>
			<path d="M81.26,131.57c0.16,0.2,0.16,0.43-0.03,0.9l-1.9,4.58l3.41,1.41l0.91-2.2l-0.69-1.18l2.12-1.24
				c0.08,0.17,0.12,0.39,0.02,0.78l8.49,3.52c0.1,0.04,0.24,0.8-0.12,1.66l-0.13,0.31l-1.23-0.51l-3.83,9.25l0.86,0.36
				c0.11,0.05,0.3,0.75-0.06,1.6l-0.13,0.31l-10.51-4.35l1.5-1.57l0.67-1.62l-3.41-1.41l-1.92,4.62l-0.36-0.05l5.04-12.16l-0.89-1.6
				L81.26,131.57z M82.07,140.09l-3.41-1.41l-0.76,1.84l3.41,1.41L82.07,140.09z M84.04,136.24l-0.97,2.34l2.88,1.19
				c0.44,0.18,0.48,0.2,0.55,0.04l0.26-0.63c0.11-0.26,0.18-0.44-0.59-1.13l0.05-0.11l0.89,0.33c0.45-0.4,0.54-0.4,0.79-0.3
				c0.6,0.25,0.72,0.81,0.33,1.76l-0.36,0.87c-0.6,1.44-0.92,1.49-2.62,0.79l-2.85-1.18l-0.76,1.84c2.08,0.88,4.28,2.19,4.64,5.58
				l-0.23,0.09c-1.01-2.14-3.04-3.17-5.09-4.04l-0.74,1.79l7.76,3.21l3.83-9.25L84.04,136.24z"/>
			<path d="M96.42,150.37l-4.77-1.98l1.2-2.27c0.21,0.13,0.27,0.3,0.13,0.83l13.56,5.62c0.19,0.08,0.31,0.98,0.05,1.61l-0.14,0.34
				l-3.59-1.49c0.23,0.99,0.49,2.29,0.74,3.93c0.18,0.15,0.28,0.38,0.27,0.58l-2.53,0.16c0.21-0.88,0.58-2.83,0.94-4.92l-5.55-2.3
				L95,154.72l-0.36-0.04L96.42,150.37z M106,142.65l2.41,1c0.52-0.52,0.67-0.56,0.93-0.45c0.73,0.3,0.87,0.96,0.19,2.61l-0.9,2.17
				c-0.77,1.86-1.39,2.04-3.27,1.26l-11.98-4.96l1.2-2.29c0.21,0.13,0.29,0.31,0.15,0.84l5.25,2.18c-0.54-1.44-1.41-3.08-2.06-4.04
				l2.2-1.61c0.06,0.08,0.07,0.2,0.02,0.33c-0.03,0.06-0.08,0.15-0.16,0.24c0.33,1.27,0.56,3.49,0.55,5.3l5.61,2.32
				c0.65,0.27,0.74,0.23,0.92-0.22l0.88-2.13c0.09-0.23,0.14-0.43-0.03-0.7c-0.17-0.28-1.03-0.95-1.96-1.7L106,142.65z"/>
			<path d="M113.44,144.9c0.16,0.2,0.16,0.43-0.03,0.9l-1.89,4.58l3.41,1.41l0.91-2.2l-0.69-1.17l2.12-1.24
				c0.08,0.17,0.12,0.39,0.02,0.78l8.49,3.52c0.1,0.04,0.24,0.8-0.12,1.66l-0.13,0.31l-1.23-0.51l-3.83,9.25l0.86,0.36
				c0.11,0.05,0.3,0.75-0.06,1.6l-0.13,0.31l-10.51-4.35l1.5-1.57l0.67-1.62l-3.41-1.41l-1.92,4.62l-0.36-0.05l5.04-12.16l-0.89-1.6
				L113.44,144.9z M114.25,153.42l-3.41-1.41l-0.76,1.84l3.41,1.41L114.25,153.42z M116.22,149.57l-0.97,2.34l2.88,1.19
				c0.44,0.18,0.48,0.2,0.55,0.04l0.26-0.63c0.11-0.26,0.18-0.44-0.59-1.13l0.05-0.11l0.89,0.33c0.45-0.4,0.54-0.4,0.79-0.3
				c0.6,0.25,0.72,0.81,0.33,1.77l-0.36,0.87c-0.6,1.44-0.92,1.49-2.62,0.79l-2.84-1.18l-0.76,1.84c2.08,0.88,4.28,2.19,4.64,5.58
				l-0.23,0.09c-1.01-2.14-3.04-3.17-5.09-4.04l-0.74,1.79l7.76,3.21l3.83-9.25L116.22,149.57z"/>
		</g>
		<g>
			<path d="M246.04,69.93l1.98-4.77l2.27,1.2c-0.12,0.21-0.3,0.27-0.83,0.13l-5.62,13.57c-0.08,0.19-0.98,0.31-1.61,0.05l-0.34-0.14
				l1.49-3.59c-0.99,0.24-2.29,0.49-3.93,0.74c-0.15,0.18-0.38,0.28-0.58,0.27l-0.16-2.53c0.88,0.21,2.83,0.58,4.92,0.94l2.3-5.55
				l-4.22-1.75l0.04-0.36L246.04,69.93z M253.76,79.51l-1,2.41c0.52,0.52,0.56,0.67,0.45,0.92c-0.3,0.73-0.96,0.87-2.62,0.19
				l-2.17-0.9c-1.86-0.77-2.04-1.39-1.26-3.27l4.96-11.98l2.29,1.19c-0.13,0.21-0.31,0.29-0.84,0.15l-2.18,5.25
				c1.44-0.54,3.09-1.41,4.04-2.06l1.61,2.2c-0.08,0.06-0.2,0.07-0.33,0.02c-0.07-0.03-0.16-0.08-0.24-0.16
				c-1.27,0.33-3.49,0.56-5.3,0.55l-2.32,5.61c-0.27,0.65-0.23,0.74,0.22,0.93l2.13,0.88c0.23,0.09,0.43,0.14,0.7-0.03
				c0.28-0.17,0.96-1.03,1.71-1.96L253.76,79.51z"/>
			<path d="M239.35,86.09l1.97-4.77l2.27,1.2c-0.13,0.21-0.3,0.27-0.83,0.13l-5.62,13.56c-0.08,0.19-0.98,0.31-1.61,0.05l-0.34-0.14
				l1.49-3.59c-0.99,0.23-2.29,0.49-3.92,0.74c-0.15,0.18-0.38,0.28-0.59,0.27L232,91.02c0.88,0.21,2.83,0.58,4.92,0.94l2.3-5.55
				l-4.22-1.75l0.04-0.36L239.35,86.09z M247.07,95.67l-1,2.41c0.52,0.52,0.56,0.67,0.45,0.93c-0.3,0.73-0.97,0.87-2.62,0.19
				l-2.17-0.9c-1.86-0.77-2.04-1.39-1.26-3.27l4.96-11.98l2.29,1.2c-0.13,0.21-0.31,0.29-0.84,0.15l-2.18,5.25
				c1.44-0.54,3.08-1.41,4.04-2.06l1.61,2.2c-0.08,0.06-0.2,0.07-0.33,0.02c-0.06-0.03-0.15-0.08-0.24-0.16
				c-1.27,0.33-3.49,0.56-5.3,0.55l-2.32,5.61c-0.27,0.65-0.23,0.74,0.22,0.92l2.13,0.88c0.23,0.09,0.43,0.14,0.7-0.03
				c0.28-0.17,0.95-1.03,1.7-1.96L247.07,95.67z"/>
			<path d="M237.49,109.5l-2.44-1.01c0.74,2.29,2.98,4.66,5.22,6.16l-0.09,0.17c-0.74-0.14-1.5,0.23-2.06,0.99
				c-2.04-1.98-3.25-4.49-3.42-7.34l-2.06,4.96c-0.01,0.03-0.45,0.44-2-0.2l1.73-4.19c-2.33,0.97-5.19,1.32-8.2,1.09l-0.05-0.29
				c2.88-0.27,5.71-1.35,7.69-2.69l-1.54-0.64l-0.15,0.36c-0.02,0.05-0.54,0.52-2.02-0.1l2.81-6.79l1.57,1.52l2.57,1.06l0.76-1.83
				l-6.55-2.71l0.04-0.36l6.64,2.75l1-2.42l2.33,1.25c-0.13,0.21-0.3,0.27-0.81,0.14l-0.74,1.78l3.65,1.51l1.66-0.94l1.37,2.23
				c-0.22,0.16-0.46,0.15-0.93-0.04l-5.88-2.44l-0.76,1.83l2.59,1.07l1.08-0.63l1.36,2.16c-0.17,0.08-0.45,0.12-0.8,0.05l-1.9,4.59
				c-0.01,0.02-0.69,0.34-2.02-0.21L237.49,109.5z M230.42,106.19l2.68,1.11l0.85-2.05l-2.68-1.11L230.42,106.19z M234.93,102.88
				l-2.68-1.11l-0.85,2.05l2.68,1.11L234.93,102.88z M234.88,108.03l2.75,1.14l0.85-2.05l-2.75-1.14L234.88,108.03z M239.46,104.76
				l-2.75-1.14l-0.85,2.05l2.75,1.14L239.46,104.76z"/>
		</g>
		<g>
			<path d="M274.71,109.87l3.65-3.65l1.63,1.98c-0.2,0.15-0.38,0.14-0.82-0.2l-10.38,10.38c-0.15,0.15-1.03-0.09-1.51-0.57
				l-0.26-0.26l2.75-2.75c-1-0.16-2.3-0.42-3.91-0.82c-0.21,0.11-0.46,0.11-0.64,0.03l0.82-2.4c0.73,0.53,2.39,1.62,4.18,2.75
				l4.24-4.24l-3.23-3.23l0.17-0.32L274.71,109.87z M278.18,121.68l-1.84,1.84c0.28,0.68,0.26,0.83,0.06,1.03
				c-0.56,0.56-1.22,0.43-2.49-0.83l-1.66-1.66c-1.42-1.42-1.35-2.07,0.09-3.5l9.17-9.17l1.66,1.98c-0.2,0.15-0.4,0.15-0.83-0.19
				l-4.02,4.02c1.53,0.05,3.39-0.12,4.52-0.36l0.64,2.65c-0.1,0.03-0.21-0.01-0.31-0.11c-0.05-0.05-0.11-0.14-0.16-0.23
				c-1.3-0.19-3.44-0.82-5.11-1.52l-4.29,4.29c-0.5,0.5-0.5,0.59-0.15,0.94l1.63,1.63c0.17,0.17,0.35,0.3,0.66,0.24
				c0.32-0.05,1.27-0.58,2.33-1.16L278.18,121.68z"/>
			<path d="M264.04,130.79l-1.87-1.87c-0.2,2.4,0.97,5.45,2.46,7.69l-0.15,0.12c-0.63-0.41-1.47-0.36-2.28,0.12
				c-1.12-2.61-1.29-5.4-0.35-8.09l-3.8,3.8c-0.03,0.03-0.58,0.24-1.77-0.95l3.21-3.21c-2.53,0-5.3-0.77-7.99-2.13l0.06-0.28
				c2.76,0.85,5.79,0.94,8.13,0.46l-1.18-1.18l-0.27,0.27c-0.04,0.04-0.69,0.27-1.83-0.87l5.2-5.2l0.87,2.01l1.97,1.97l1.4-1.4
				l-5.01-5.01l0.17-0.32l5.09,5.09l1.86-1.86l1.67,2.04c-0.2,0.15-0.38,0.14-0.8-0.19l-1.36,1.36l2.8,2.8l1.89-0.23l0.41,2.59
				c-0.26,0.06-0.48-0.04-0.84-0.4l-4.5-4.5l-1.4,1.4l1.98,1.98l1.24-0.17l0.43,2.51c-0.19,0.01-0.46-0.06-0.76-0.26l-3.51,3.51
				c-0.01,0.01-0.77,0.05-1.78-0.96L264.04,130.79z M258.77,125.02l2.05,2.05l1.57-1.57l-2.05-2.05L258.77,125.02z M264.2,123.7
				l-2.05-2.05l-1.57,1.57l2.05,2.05L264.2,123.7z M262.18,128.44l2.1,2.1l1.57-1.57l-2.1-2.1L262.18,128.44z M267.67,127.17
				l-2.1-2.1l-1.57,1.57l2.1,2.1L267.67,127.17z"/>
		</g>
		<g>
			<path d="M314.93,145.92l-1.01-2.44c-1.1,2.14-1.19,5.4-0.67,8.04l-0.18,0.06c-0.43-0.62-1.22-0.9-2.15-0.76
				c-0.04-2.84,0.88-5.48,2.78-7.61l-4.96,2.06c-0.03,0.01-0.63-0.01-1.27-1.56l4.19-1.73c-2.33-0.97-4.6-2.74-6.57-5.03l0.17-0.24
				c2.22,1.84,4.99,3.08,7.34,3.53l-0.64-1.54l-0.36,0.15c-0.05,0.02-0.75-0.01-1.36-1.5l6.79-2.81l0.03,2.18l1.06,2.57l1.83-0.76
				l-2.71-6.55l0.28-0.23l2.75,6.64l2.43-1l0.76,2.53c-0.24,0.06-0.41-0.02-0.67-0.48l-1.78,0.74l1.51,3.65l1.84,0.51l-0.61,2.55
				c-0.26-0.04-0.43-0.22-0.63-0.69l-2.44-5.89l-1.83,0.76l1.07,2.59l1.21,0.31l-0.56,2.49c-0.18-0.06-0.4-0.23-0.6-0.53l-4.59,1.9
				c-0.02,0.01-0.73-0.25-1.28-1.57L314.93,145.92z M312.27,138.58l1.11,2.68l2.05-0.85l-1.11-2.68L312.27,138.58z M314.12,143.04
				l1.14,2.75l2.05-0.85l-1.14-2.75L314.12,143.04z M317.79,139.43l-1.11-2.68l-2.05,0.85l1.11,2.68L317.79,139.43z M319.67,143.96
				l-1.14-2.75l-2.05,0.85l1.14,2.75L319.67,143.96z"/>
			<path d="M300.46,144.07l4.77-1.97l0.75,2.45c-0.24,0.06-0.41-0.02-0.68-0.5l-13.56,5.62c-0.19,0.08-0.92-0.47-1.18-1.1
				l-0.14-0.34l3.59-1.49c-0.86-0.53-1.97-1.27-3.3-2.25c-0.24,0.02-0.47-0.07-0.6-0.22l1.67-1.91c0.47,0.77,1.59,2.41,2.81,4.14
				l5.55-2.3l-1.75-4.22l0.28-0.23L300.46,144.07z M299.15,156.3l-2.41,1c0,0.74-0.08,0.87-0.34,0.97c-0.73,0.3-1.3-0.07-1.98-1.72
				l-0.9-2.17c-0.77-1.86-0.46-2.43,1.42-3.2l11.98-4.96l0.77,2.46c-0.24,0.06-0.42-0.01-0.7-0.49l-5.25,2.18
				c1.4,0.63,3.18,1.18,4.31,1.4l-0.42,2.69c-0.1-0.01-0.19-0.09-0.24-0.22c-0.03-0.06-0.05-0.17-0.06-0.28
				c-1.13-0.67-2.87-2.07-4.14-3.36l-5.61,2.32c-0.65,0.27-0.68,0.36-0.5,0.81l0.88,2.13c0.09,0.23,0.21,0.41,0.52,0.47
				c0.32,0.08,1.4-0.05,2.59-0.18L299.15,156.3z"/>
			<path d="M282.61,159.31l-1.01-2.44c-1.1,2.14-1.19,5.4-0.67,8.04l-0.18,0.06c-0.43-0.62-1.22-0.89-2.15-0.76
				c-0.04-2.84,0.88-5.48,2.78-7.61l-4.96,2.06c-0.03,0.01-0.63-0.01-1.27-1.56l4.19-1.74c-2.33-0.97-4.6-2.74-6.57-5.02l0.17-0.24
				c2.22,1.85,4.99,3.09,7.34,3.54l-0.64-1.54l-0.36,0.15c-0.05,0.02-0.74-0.01-1.36-1.5l6.79-2.81l0.03,2.18l1.07,2.57l1.83-0.76
				l-2.71-6.55l0.28-0.23l2.75,6.64l2.42-1l0.76,2.53c-0.24,0.06-0.41-0.02-0.67-0.48l-1.78,0.74l1.51,3.65l1.84,0.51l-0.61,2.55
				c-0.26-0.04-0.43-0.22-0.63-0.69l-2.44-5.89l-1.83,0.76l1.07,2.59l1.21,0.31l-0.56,2.49c-0.18-0.06-0.4-0.23-0.6-0.53l-4.59,1.9
				c-0.02,0.01-0.73-0.25-1.28-1.57L282.61,159.31z M279.94,151.96l1.11,2.68l2.05-0.85l-1.11-2.68L279.94,151.96z M281.79,156.43
				l1.14,2.75l2.05-0.85l-1.14-2.75L281.79,156.43z M285.47,152.82l-1.11-2.68l-2.05,0.85l1.11,2.68L285.47,152.82z M287.34,157.35
				l-1.14-2.75l-2.05,0.85l1.14,2.75L287.34,157.35z"/>
		</g>
		<g>
			<path d="M116.92,182.87c-0.12,0.23-0.33,0.31-0.84,0.31h-4.95v3.69h2.38l0.82-1.08l1.96,1.49c-0.12,0.14-0.32,0.26-0.72,0.32
				v9.19c0,0.1-0.65,0.53-1.57,0.53h-0.33v-1.33h-10.01v0.93c0,0.12-0.58,0.56-1.5,0.56h-0.33v-11.38l2.03,0.79h1.75v-3.69h-5
				l-0.09-0.35h13.16l1.14-1.43L116.92,182.87z M113.67,187.23h-2.54v3.11c0,0.47,0,0.53,0.17,0.53h0.68c0.28,0,0.47,0,0.82-0.98
				h0.12l0.04,0.95c0.54,0.26,0.58,0.35,0.58,0.61c0,0.65-0.47,0.98-1.51,0.98h-0.94c-1.56,0-1.73-0.28-1.73-2.12v-3.08h-2
				c-0.02,2.26-0.38,4.79-3.38,6.42l-0.17-0.17c1.59-1.75,1.77-4.03,1.78-6.25h-1.94v8.4h10.01V187.23z M109.36,186.88v-3.69h-2
				v3.69H109.36z"/>
		</g>
		<g>
			<path d="M293.67,191.41h-2.64c1.56,1.84,4.53,3.17,7.17,3.69l-0.02,0.19c-0.74,0.16-1.3,0.79-1.52,1.7
				c-2.64-1.05-4.72-2.91-5.97-5.48v5.37c0,0.04-0.25,0.58-1.92,0.58v-4.53c-1.79,1.78-4.29,3.2-7.16,4.15l-0.16-0.25
				c2.55-1.35,4.76-3.43,6.07-5.43h-1.66v0.39c0,0.05-0.3,0.68-1.91,0.68v-7.35l2.03,0.81h2.78v-1.98h-7.09l-0.1-0.35h7.19v-2.62
				l2.62,0.26c-0.04,0.25-0.18,0.37-0.7,0.44v1.92h3.96l1.17-1.5l2.12,1.54c-0.14,0.23-0.37,0.31-0.88,0.31h-6.37v1.98h2.8l0.75-1
				l2.08,1.47c-0.12,0.14-0.37,0.28-0.72,0.35v4.97c0,0.02-0.51,0.58-1.94,0.58V191.41z M288.77,186.29h-2.91v2.22h2.91V186.29z
				 M285.86,191.06h2.91v-2.22h-2.91V191.06z M293.67,186.29h-2.97v2.22h2.97V186.29z M290.69,191.06h2.97v-2.22h-2.97V191.06z"/>
		</g>
		<g>
			<path d="M349.53,182.73l2.28,0.94c1.2-0.84,2.44-2,3.1-2.8l2.84,1.64c-0.14,0.16-0.38,0.26-0.74,0.26
				c-0.12,0-0.28-0.02-0.44-0.04c-1.2,0.56-3.16,1.18-5.04,1.56v8.86c0.84-0.12,1.74-0.26,2.66-0.42c0.1-0.64,0.14-1.3,0.14-2v-5.66
				l2.84,0.24c-0.04,0.26-0.2,0.38-0.8,0.48v4.94c-0.02,3.98-1.46,7.36-8.08,8.98l-0.14-0.28c3.74-1.46,5.32-3.52,5.9-5.96
				c-1.04,0.58-2.42,1.3-4.22,2.16c-0.12,0.26-0.3,0.44-0.52,0.5l-1.28-2.52l1.5-0.18V182.73z M364.38,182.29l2.24,1.64
				c-0.14,0.16-0.42,0.34-0.82,0.42v9.38c0,1.4-0.34,2.4-2.6,2.6c0-1.62-0.48-1.94-1.76-2.1v-0.26h2c0.22,0,0.28-0.08,0.28-0.3
				v-9.86h-3.22v15.2c0,0.16-0.64,0.66-1.7,0.66h-0.34v-17.14l2.28,0.9h2.78L364.38,182.29z"/>
			<path d="M373.42,201.17h-3.78v-18.84h3.78v0.72h-1.86v17.4h1.86V201.17z"/>
			<path d="M391.07,192.65l2.02,1.34c-0.14,0.26-0.4,0.36-0.92,0.36h-2.24l1.88,1.4c-0.08,0.12-0.18,0.18-0.34,0.18
				c-0.1,0-0.24-0.02-0.4-0.08c-0.82,0.26-2.04,0.54-3.18,0.72c1.54,0.56,3.36,0.88,5.2,1.02v0.22c-0.8,0.24-1.32,0.9-1.52,1.9
				c-1.98-0.5-3.7-1.18-5.06-2.22c-1.64,0.46-3.96,1.02-7.24,1.76c-0.12,0.26-0.32,0.38-0.54,0.44l-1.1-2.24
				c0.58,0,1.44-0.04,2.46-0.08v-3.02h-1.94c-0.24,1.82-1.08,3.86-3.62,5.24l-0.18-0.2c1.74-2.04,1.92-4.6,1.92-6.8v-3.24l2.34,0.86
				h10.64l1.02-1.22l1.94,1.28c-0.14,0.26-0.4,0.34-0.92,0.34h-13.02v1.98c0,0.42-0.02,0.88-0.06,1.36h11.8L391.07,192.65z
				 M382.63,184.89h-5.62c0.04,0.22,0.06,0.42,0.06,0.6c0,1.14-0.62,1.92-1.6,1.92c-0.64,0-1.08-0.36-1.08-0.92
				c0-0.48,0.38-0.86,0.86-1.04c0.6-0.24,1.18-0.94,1.08-1.74l0.32-0.02c0.12,0.28,0.2,0.54,0.28,0.8h5.7v-1.7h-6.26l-0.12-0.4h12
				l1.12-1.42l2.14,1.46c-0.16,0.28-0.4,0.36-0.94,0.36h-5.84v1.7h5.78l1.04-1.08l1.88,1.8c-0.16,0.16-0.36,0.2-0.76,0.22
				c-0.52,0.52-1.42,1.24-2.12,1.6l-0.24-0.12l0.06-0.24c-0.16,0.14-0.38,0.18-0.76,0.18h-4.12l-0.12-0.4h2.74l0.82-0.98l1.5,0.96
				c0.1-0.48,0.2-1.06,0.26-1.54h-5.96v4.38c0,0.08-0.64,0.46-1.72,0.46h-0.38V184.89z M376.79,188.71l-0.12-0.4h2.96l0.82-0.96
				l1.58,1.02c-0.14,0.26-0.4,0.34-0.88,0.34H376.79z M380.39,185.49l1.52,1.02c-0.14,0.26-0.38,0.34-0.88,0.34h-3.86l-0.12-0.4
				h2.54L380.39,185.49z M378.83,192.05h9.34l0.98-1.16l1.86,1.22c-0.14,0.26-0.38,0.34-0.9,0.34h-11.16L378.83,192.05z
				 M382.11,194.35v2.94c1.22-0.04,2.56-0.12,3.94-0.2c-0.84-0.72-1.54-1.62-2.06-2.74H382.11z M384.47,194.35
				c0.64,0.8,1.54,1.42,2.6,1.9c0.96-0.56,2.04-1.36,2.68-1.9H384.47z M388.49,188.31l0.84-1.02l1.68,1.08
				c-0.16,0.26-0.42,0.34-0.9,0.34h-4.66l-0.12-0.4H388.49z"/>
			<path d="M394.1,201.17v-0.72h1.84v-17.4h-1.84v-0.72h3.76v18.84H394.1z"/>
		</g>
		<g>
			<path d="M363.39,80.99c0.16-0.6,0.34-1.42,0.46-2.06h-12.62c0.08,1.68-0.86,2.72-1.98,2.72c-0.66,0-1.14-0.36-1.14-0.96
				c0-0.5,0.38-0.9,0.82-1.12c0.8-0.28,1.68-1.14,1.72-2.16h0.3c0.12,0.4,0.22,0.78,0.26,1.12h5.1v-2.7l3.04,0.28
				c-0.04,0.28-0.22,0.44-0.84,0.52v1.9h5.18l1.12-1.14l1.96,1.88c-0.16,0.16-0.38,0.2-0.78,0.24c-0.6,0.62-1.66,1.48-2.5,1.94
				l-0.1-0.06c-0.14,0.08-0.38,0.12-0.7,0.12h-4.26v2.34h3.2l0.84-1.1l2.3,1.62c-0.14,0.16-0.42,0.34-0.84,0.42v5.86
				c0,0.02-0.58,0.6-2.1,0.6v-0.7h-8.82v0.16c0,0.06-0.32,0.78-2.08,0.78v-8.52l2.22,0.88h3.22v-2.34h-4.86l-0.1-0.4h9.14l1.08-1.32
				L363.39,80.99z M356.89,92.37c-0.1,0.12-0.3,0.2-0.58,0.2c-0.16,0-0.34-0.02-0.56-0.08c-1.78,0.98-4.68,1.84-7.56,2.18
				l-0.08-0.26c2.46-0.86,5.06-2.46,6.28-3.74L356.89,92.37z M356.38,84.25h-3.36v2.7h3.36V84.25z M353.01,87.35v2.8h3.36v-2.8
				H353.01z M361.83,84.25h-3.4v2.7h3.4V84.25z M358.43,90.15h3.4v-2.8h-3.4V90.15z M358.97,91.31c5.62,0.24,7.26,1.52,7.26,2.44
				c0,0.54-0.56,0.94-1.22,0.94c-0.32,0-0.68-0.1-1-0.36c-0.92-0.92-2.56-2-5.12-2.74L358.97,91.31z"/>
		</g>
		<g>
			<path d="M358.19,287.19c0.46,1.56,1.18,2.82,2.12,3.84c1.1-1.1,2.36-2.56,3.04-3.46l2.42,1.78c-0.08,0.12-0.2,0.22-0.42,0.22
				c-0.1,0-0.22-0.02-0.36-0.06c-1.1,0.56-2.76,1.34-4.28,1.94c1.6,1.56,3.74,2.52,6.16,3.14l-0.04,0.24
				c-0.9,0.16-1.56,0.82-1.88,1.84c-1.72-0.76-3.14-1.7-4.28-2.98c-1.68,0.64-4.04,1.46-7.48,2.5c-0.14,0.26-0.34,0.4-0.54,0.46
				l-1.28-2.42c0.56-0.04,1.36-0.1,2.32-0.2v-6.84h-1.8c-0.2,3.18-0.98,6.82-3.72,9.44l-0.24-0.16c1.8-3.64,1.94-8.18,1.94-12.04
				v-5.38l2.44,0.9h10.56l1.26-1.62l2.32,1.66c-0.14,0.26-0.4,0.36-0.98,0.36h-13.5v4.06c0,0.74,0,1.54-0.06,2.38h11.38l1.24-1.5
				l2.26,1.56c-0.16,0.26-0.42,0.34-0.98,0.34H358.19z M352.55,283.37h8.66l1.22-1.56l2.22,1.62c-0.14,0.26-0.42,0.34-0.96,0.34
				h-11.04L352.55,283.37z M355.77,287.19v6.64c1.4-0.14,2.98-0.3,4.6-0.5c-1.2-1.52-2.04-3.48-2.54-6.14H355.77z"/>
		</g>
		<g>
			<path d="M343.39,353.17h-3.78v-18.84h3.78v0.72h-1.86v17.4h1.86V353.17z"/>
			<path d="M360.88,345.39l2.28,1.58c-0.16,0.26-0.4,0.36-0.96,0.36h-17.72l-0.12-0.4h4.94v-3.24h-3.8l-0.12-0.4h3.92v-2.3
				l2.82,0.26c-0.02,0.24-0.2,0.38-0.72,0.44v1.6h4.64v-2.3l2.84,0.26c-0.02,0.24-0.2,0.38-0.7,0.44v1.6h0.88l1.14-1.46l2.18,1.52
				c-0.14,0.26-0.38,0.34-0.94,0.34h-3.26v3.24h1.46L360.88,345.39z M352.76,349.03c-0.1,0.16-0.32,0.22-0.62,0.22
				c-0.14,0-0.32,0-0.5-0.04c-1.56,0.98-4.18,1.98-6.76,2.48l-0.12-0.26c2.12-0.94,4.42-2.66,5.46-3.92L352.76,349.03z
				 M350.14,334.57h-4.88l-0.14-0.4h4.84l0.72-0.92l2.04,1.4c-0.1,0.12-0.32,0.26-0.66,0.34v2.32c0,0.04-0.56,0.48-1.92,0.48v-0.78
				h-2.32v1.8c0,0.4,0,0.4,0.54,0.4h2.68c0.68,0,0.92,0,1.52-1.46h0.18l0.02,1.34c0.7,0.24,0.76,0.32,0.76,0.58
				c0,0.72-0.58,1.16-2.42,1.16h-2.98c-1.88,0-2.24-0.44-2.24-2.04v-3.04l2.2,0.86h2.06V334.57z M351.4,343.69v3.24h4.64v-3.24
				H351.4z M358.96,334.57h-5.2l-0.12-0.4h5.16l0.72-0.94l2.08,1.42c-0.1,0.12-0.34,0.28-0.68,0.34v2.34c0,0.04-0.56,0.48-1.96,0.48
				v-0.8h-2.58v1.8c0,0.4,0,0.4,0.6,0.4H360c0.7,0,0.96,0,1.6-1.48h0.16l0.02,1.34c0.72,0.26,0.8,0.34,0.8,0.6
				c0,0.72-0.6,1.18-2.54,1.18h-3.28c-1.96,0-2.34-0.44-2.34-2.06v-3.04l2.22,0.86h2.32V334.57z M355.54,348.01
				c5.48,0.44,7.08,1.8,7.08,2.74c0,0.52-0.52,0.92-1.14,0.92c-0.32,0-0.66-0.1-0.96-0.36c-0.88-0.96-2.54-2.14-5.08-3.02
				L355.54,348.01z"/>
			<path d="M364.08,353.17v-0.72h1.84v-17.4h-1.84v-0.72h3.76v18.84H364.08z"/>
		</g>
		<g>
			<path d="M343.39,43.17h-3.78V24.33h3.78v0.72h-1.86v17.4h1.86V43.17z"/>
			<path d="M353.52,32.45c0.56,1.66,1.44,2.94,2.58,3.96c1.44-1.1,3.04-2.54,3.92-3.48l2.26,1.7c-0.1,0.12-0.2,0.2-0.42,0.2
				c-0.08,0-0.2-0.02-0.36-0.06c-1.24,0.62-3.14,1.42-4.94,2.02c1.76,1.38,4.04,2.18,6.6,2.66l-0.02,0.2
				c-0.9,0.2-1.54,0.88-1.84,1.9c-2.08-0.7-3.76-1.62-5.1-2.96c-1.92,0.68-4.64,1.46-8.86,2.56c-0.12,0.24-0.32,0.4-0.54,0.44
				l-1.42-2.52c0.6-0.02,1.4-0.08,2.38-0.14V23.55l2.42,0.94h7.14l0.88-1.16l2.4,1.7c-0.16,0.16-0.46,0.34-0.9,0.42v7.44
				c0,0.02-0.56,0.64-2.16,0.64v-1.08H353.52z M357.54,24.89h-7.62v3.34h7.62V24.89z M349.92,32.05h7.62v-3.42h-7.62V32.05z
				 M349.92,32.45v6.34c1.78-0.14,3.86-0.3,6-0.48c-1.28-1.44-2.22-3.3-2.76-5.86H349.92z"/>
			<path d="M364.08,43.17v-0.72h1.84v-17.4h-1.84v-0.72h3.76v18.84H364.08z"/>
		</g>
		<g>
			<path d="M3.78,201.17H0v-18.84h3.78v0.72H1.92v17.4h1.86V201.17z"/>
			<path d="M20.18,192.17c-0.02,0.12-1.06,0.52-1.74,0.52h-0.36v-0.84h-0.6c-0.08,0.12-0.24,0.18-0.6,0.22v5
				c0,0.5,0.02,0.52,0.68,0.52h3.24c0.46,0,0.62,0,0.82-0.32c0.18-0.3,0.48-1.28,0.9-2.6h0.16l-0.04,2.74
				c0.76,0.28,0.88,0.38,0.88,0.68c0,0.74-0.58,1.18-2.72,1.18h-3.34c-2.14,0-2.6-0.38-2.6-2.22v-5.2h-4.74v0.4
				c0,0.04-0.34,0.76-2.08,0.76v-5.96c-0.94,0.72-2.02,1.36-3.18,1.86l-0.16-0.26c2.28-1.72,4.12-4.48,4.94-6.64l2.58,1.22
				c-0.1,0.2-0.3,0.32-0.78,0.26c-0.6,0.9-1.4,1.84-2.38,2.72l1.2,0.48h7.64l0.62-0.82c-0.82-1.02-1.46-2.18-1.82-3.42h-4.78
				l-0.12-0.4h4.46l0.66-1.08l1.9,1.24c-0.24,0.26-0.84,0.42-1.54,0.46c1,1.68,3.44,3.22,6.26,3.94l-0.02,0.24
				c-0.8,0.24-1.48,1-1.68,1.8c-0.58-0.32-1.12-0.7-1.62-1.1h-0.04V192.17z M13.14,192.77c-0.06,0.3-0.26,0.4-0.8,0.44
				c-0.46,2.98-2.12,5.38-7.5,6.46l-0.12-0.32c4.34-1.34,5.32-3.92,5.46-6.92L13.14,192.77z M10.12,191.45h7.96v-4.38h-7.96V191.45z
				"/>
			<path d="M24.48,201.17v-0.72h1.84v-17.4h-1.84v-0.72h3.76v18.84H24.48z"/>
			<path d="M47.44,181.27l2.42,1.68c-0.14,0.26-0.4,0.36-0.96,0.36h-5.82v3.68h2.42l0.92-1.24l2.24,1.7
				c-0.14,0.16-0.36,0.28-0.84,0.36v11.1c0,0.14-0.72,0.6-1.76,0.6h-0.38v-1.42H35.16v0.98c0,0.14-0.64,0.64-1.7,0.64H33.1v-13.6
				l2.3,0.88h1.72v-3.68h-5.88l-0.12-0.4h15.02L47.44,181.27z M45.68,187.37h-2.6v2.76c0,0.52,0,0.58,0.18,0.58h0.6
				c0.32,0,0.5,0,0.92-1.28h0.14l0.04,1.22c0.6,0.3,0.64,0.4,0.64,0.7c0,0.74-0.54,1.12-1.66,1.12h-0.92
				c-1.76,0-1.94-0.32-1.94-2.38v-2.72h-1.96c-0.06,2.18-0.52,4.6-3.68,6.16l-0.18-0.2c1.6-1.68,1.84-3.82,1.86-5.96h-1.96v7.1
				h10.52V187.37z M35.16,197.69h10.52v-2.82H35.16V197.69z M41.08,186.99v-3.68h-1.96v3.68H41.08z"/>
		</g>
		<g>
			<path d="M49.58,91.09l-0.42,3.28c0.54,0.7,0.74,1.16,0.74,1.48c0,0.44-0.48,0.82-1.14,0.82c-1.3,0-3.84-1.52-5.48-4.12
				c-1.78,1.68-4.06,3.08-6.98,4l-0.14-0.28c2.7-1.28,4.78-3.08,6.36-5.12c-1.1-2.32-1.62-5.1-1.86-8.2h-5.54v3.74
				c0,3.04-0.24,7.26-3.8,9.98l-0.22-0.16c1.76-2.92,1.88-6.62,1.88-9.82v-5.04l2.48,0.9h5.18c-0.1-1.48-0.14-3-0.14-4.6l2.96,0.32
				c-0.02,0.24-0.16,0.38-0.76,0.48c-0.02,1.3,0,2.58,0.06,3.8h3.54l1.24-1.54l2.28,1.6c-0.14,0.24-0.4,0.34-0.96,0.34h-6.08
				c0.14,2.24,0.46,4.32,1.12,6.08c0.82-1.42,1.42-2.94,1.82-4.44l2.76,1c-0.1,0.22-0.28,0.34-0.8,0.32
				c-0.68,1.74-1.6,3.46-2.88,5.02c0.68,1.12,1.54,2.06,2.68,2.74c0.16,0.12,0.28,0.18,0.38,0.18c0.12,0,0.22-0.08,0.32-0.28
				c0.32-0.54,0.88-1.62,1.24-2.52L49.58,91.09z M39.2,87.07l2.08,1.68c-0.16,0.26-0.46,0.36-0.98,0.36h-4.66l-0.1-0.4h2.52
				L39.2,87.07z M44.34,78.19c2.8-0.08,3.72,0.92,3.72,1.74c0,0.54-0.42,1-0.96,1c-0.2,0-0.42-0.06-0.64-0.22
				c-0.42-0.84-1.34-1.82-2.2-2.32L44.34,78.19z"/>
		</g>
		<g>
			<path d="M34.74,43.17h-3.78V24.33h3.78v0.72h-1.86v17.4h1.86V43.17z"/>
			<path d="M42.28,37.01l1.06-1.46l2,1.52c-0.16,0.26-0.42,0.34-0.94,0.34h-3.06v3.82c0,0.08-0.64,0.46-1.7,0.46h-0.36v-4.28H35.7
				l-0.1-0.4h3.68v-2.6h-0.86v0.2c0,0.06-0.3,0.72-1.92,0.72v-7.54l2.02,0.86h0.76v-2.46h-3.5l-0.1-0.4h3.6v-2.88l2.88,0.28
				c-0.02,0.28-0.22,0.42-0.8,0.5v2.1h0.92l1.1-1.5l2.02,1.54c-0.16,0.26-0.42,0.36-0.96,0.36h-3.08v2.46h0.68l0.8-1.06l2.22,1.56
				c-0.12,0.14-0.38,0.3-0.76,0.38v4.9c0,0.04-0.58,0.54-2.06,0.54v-0.56h-0.9v2.6H42.28z M42.24,29.03h-3.82v2.3h3.82V29.03z
				 M38.42,34.01h3.82v-2.3h-3.82V34.01z M48.06,27.17c-0.84,1.58-1.86,2.86-3.08,3.82l-0.24-0.18c1-1.76,1.84-4.9,2.2-7.96l3.2,0.8
				c-0.08,0.26-0.24,0.4-0.76,0.42c-0.32,0.96-0.68,1.88-1.1,2.7h3.02l1.12-1.54l2.08,1.6c-0.14,0.26-0.42,0.34-0.96,0.34H48.06z
				 M53.6,36.51l-0.04,2.5c0.78,0.26,0.92,0.36,0.92,0.78c0,0.86-0.88,1.3-3.28,1.3h-2.02c-2.34,0-3.5-0.56-3.5-2.38
				c0-1.34,1.14-3.16,4.24-7.3h-3.86l-0.12-0.4H50l0.86-0.98l2.1,1.62c-0.18,0.16-0.52,0.26-0.98,0.28
				c-3.08,3.84-4.22,5.7-4.22,6.62c0,0.62,0.42,0.72,1.54,0.72h1.94c1,0,1.18-0.02,1.32-0.26c0.32-0.5,0.6-1.42,0.86-2.5H53.6z"/>
			<path d="M55.42,43.17v-0.72h1.84v-17.4h-1.84v-0.72h3.76v18.84H55.42z"/>
		</g>
		<g>
			<path d="M208.05,344.08l2.47,1.74c-0.16,0.24-0.4,0.34-0.98,0.35l-7.38,0.06l0.05,6.88c0,0.26-0.95,0.81-1.79,0.81l-0.44,0
				l-0.06-7.68l-8.1,0.06l-0.12-0.4l8.22-0.06l-0.04-5.72l-3.82,0.03c-0.81,1.81-1.77,3.33-2.95,4.48l-0.26-0.16
				c0.91-2.03,1.7-5.59,2.03-8.88l3.17,0.72c-0.08,0.26-0.24,0.4-0.78,0.45c-0.31,1.06-0.64,2.06-1.06,3.01l3.66-0.03l-0.04-4.6
				l3.04,0.28c-0.04,0.28-0.2,0.44-0.8,0.51l0.03,3.8l3.08-0.02l1.29-1.71l2.41,1.72c-0.14,0.26-0.4,0.34-0.96,0.35l-5.82,0.04
				l0.04,5.72l4.56-0.04L208.05,344.08z"/>
		</g>
		<g>
			<path d="M190.85,377.48l-3.78,0.03l-0.14-18.84l3.78-0.03l0.01,0.72l-1.86,0.01l0.13,17.4l1.86-0.01L190.85,377.48z"/>
			<path d="M200.03,358.11l2.03,1.4c-0.18,0.28-0.42,0.36-0.96,0.37l-9.32,0.07l-0.1-0.4l3.96-0.03l-0.02-2.34l2.82,0.24
				c-0.04,0.28-0.22,0.42-0.82,0.49l0.01,1.6l1.32-0.01L200.03,358.11z M199.31,368.23l0.67-0.91l1.95,1.33
				c-0.12,0.14-0.38,0.28-0.7,0.34l0.04,4.6c0.01,1.26-0.26,2.14-2.18,2.34c-0.01-1.36-0.35-1.64-1.57-1.79l0-0.26l1.74-0.01
				c0.22,0,0.28-0.08,0.28-0.3l-0.01-1.34c-0.14,0.32-0.42,0.54-0.74,0.55c-0.22,0-0.44-0.12-0.64-0.35c0-0.28-0.04-0.6-0.11-0.92
				c-0.7,0.31-1.59,0.69-2.73,1.14c-0.14,0.26-0.32,0.38-0.52,0.42l-0.75-1.93c0.3,0,0.72,0,1.24-0.03l0.28-2.46l-1.54,0.01
				l0.05,6.76c0,0.14-0.52,0.54-1.4,0.55l-0.28,0l-0.06-8.46l1.95,0.77l1.3-0.01c0.07-0.8,0.13-1.58,0.16-2.26l-1.44,0.01l0,0.48
				c0,0.02-0.26,0.46-1.58,0.47l-0.05-6.26l2.18,0.16c-0.02,0.2-0.16,0.32-0.6,0.38l0.03,3.72c0.58-0.52,1.17-1.27,1.7-2.17
				c-0.42-0.4-0.89-0.77-1.33-1.03l0.12-0.22c0.66,0.1,1.2,0.23,1.68,0.39c0.24-0.5,0.47-1.02,0.67-1.56l2.01,0.9l0-0.62l2.2,0.18
				c-0.02,0.2-0.16,0.32-0.62,0.37l0.04,5.1c0,0.04-0.26,0.48-1.58,0.49l-0.01-0.82l-2.24,0.02v0.02l1.32,0.19
				c-0.02,0.26-0.24,0.36-0.74,0.41c-0.14,0.5-0.31,1.06-0.51,1.64L199.31,368.23z M194.29,365.05l0,0.56l4.88-0.04l-0.03-4.22
				c-0.1,0.12-0.24,0.2-0.48,0.2c-0.08,0-0.14,0-0.24-0.02c-0.22,0.36-0.45,0.7-0.71,1.04c0.58,0.46,0.81,0.95,0.81,1.37
				c0,0.46-0.27,0.8-0.65,0.81c-0.16,0-0.34-0.06-0.52-0.18c-0.14-0.3-0.35-0.64-0.59-0.96c-0.71,0.69-1.49,1.25-2.27,1.64
				L194.29,365.05z M196.87,368.63c-0.27,0.8-0.61,1.64-0.96,2.43c0.6-0.02,1.28-0.05,1.96-0.09c-0.16-0.5-0.41-0.98-0.65-1.32
				l0.2-0.12c1.26,0.53,1.89,1.18,2.09,1.76l-0.02-2.68L196.87,368.63z M209.18,372.58l1.73,1.35c-0.16,0.26-0.42,0.36-0.94,0.37
				l-5.54,0.04l0.01,0.92c0,0.14-0.6,0.58-1.54,0.59l-0.34,0l-0.08-10.94c-0.44,0.62-0.91,1.19-1.41,1.69l-0.28-0.18
				c1.14-2.07,2.12-5.76,2.51-9.26l2.8,0.6c-0.06,0.26-0.24,0.42-0.74,0.43c-0.31,1.2-0.68,2.35-1.11,3.41l0.32,0.12l1.6-0.01
				c0.21-1.3,0.4-3.02,0.49-4.26l2.88,0.54c-0.06,0.26-0.24,0.36-0.74,0.39c-0.49,0.96-1.3,2.27-2.11,3.34l1.24-0.01l0.89-1.23
				l1.73,1.27c-0.16,0.26-0.44,0.34-0.94,0.35l-2,0.02l0.03,3.56l0.36,0l0.81-1.19l1.53,1.23c-0.14,0.26-0.4,0.34-0.9,0.35
				l-1.8,0.01l0.03,3.64l0.36,0l0.81-1.19l1.55,1.23c-0.16,0.26-0.4,0.34-0.92,0.35l-1.8,0.01l0.03,3.82l0.58,0L209.18,372.58z
				 M205.8,362.1l-1.46,0.01l0.03,3.56l1.46-0.01L205.8,362.1z M205.86,369.7l-0.03-3.64l-1.46,0.01l0.03,3.64L205.86,369.7z
				 M204.41,370.11l0.03,3.82l1.46-0.01l-0.03-3.82L204.41,370.11z"/>
			<path d="M211.51,377.32l-0.01-0.72l1.84-0.01l-0.13-17.4l-1.84,0.01l-0.01-0.72l3.76-0.03l0.14,18.84L211.51,377.32z"/>
		</g>
		<g>
			<path d="M190.85,20.48l-3.78,0.03l-0.14-18.84l3.78-0.03l0.01,0.72l-1.86,0.01l0.13,17.4l1.86-0.01L190.85,20.48z"/>
			<path d="M196.3,12.59c1.04-0.21,2.14-0.44,3.25-0.69l0.04,0.26c-1.35,0.79-3.41,1.93-6.39,3.35c-0.08,0.26-0.3,0.46-0.52,0.52
				l-1.12-2.59c0.58-0.08,1.48-0.23,2.6-0.44l-0.05-6.86l-2.32,0.02l-0.1-0.4l2.42-0.02l-0.04-5.28l2.98,0.26
				c-0.04,0.3-0.26,0.44-0.84,0.53l0.03,4.48l0.26,0l1.01-1.55l1.87,1.57c-0.16,0.26-0.44,0.36-0.96,0.37l-2.18,0.02L196.3,12.59z
				 M204.98,4.77l0,0.34c0.4,5.72,1.73,9.33,5.85,11.4l-0.04,0.24c-1,0.23-1.63,0.93-1.82,2.15c-2.71-1.96-3.7-5.65-4.12-10.39
				h-0.02c-0.39,4.44-1.86,7.95-8.12,10.46l-0.22-0.32c6.35-3.61,6.32-8.17,6.33-13.87l-0.92,0.01c-0.84,2.07-1.93,3.75-3.32,4.99
				l-0.28-0.16c1.22-2.09,2.13-5.9,2.43-9.62l3.08,0.6c-0.06,0.26-0.22,0.42-0.76,0.45c-0.27,1.2-0.6,2.32-1,3.35l5.36-0.04
				l1.19-1.21l2.12,1.98c-0.18,0.18-0.38,0.22-0.8,0.27c-0.69,1.08-1.92,2.81-2.87,3.8l-0.22-0.12c0.25-1.08,0.6-3.04,0.77-4.33
				L204.98,4.77z"/>
			<path d="M211.51,20.32l-0.01-0.72l1.84-0.01l-0.13-17.4l-1.84,0.01l-0.01-0.72l3.76-0.03l0.14,18.84L211.51,20.32z"/>
		</g>
		<g>
			<path d="M207.04,31.56l2.51,1.74c-0.16,0.26-0.4,0.36-0.98,0.37l-7.3,0.06l0.05,6.32c0.01,1.5-0.38,2.6-3.26,2.89
				c-0.05-1.68-0.98-1.95-3.02-2.14l0-0.28l3.56-0.03c0.36,0,0.48-0.14,0.48-0.42l-0.05-6.32l-8.26,0.06l-0.12-0.4l8.38-0.06
				l-0.03-3.38l2.12,0.14c1.19-1.05,2.5-2.64,3.27-3.73l-11.86,0.09l-0.12-0.4l12.02-0.09l1.31-1.27l2.2,2.02
				c-0.18,0.18-0.42,0.24-0.88,0.27c-1.41,1.03-3.44,2.27-5.34,3.14l0.32,0.02c-0.04,0.26-0.14,0.4-0.8,0.51l0.02,2.66l4.44-0.03
				L207.04,31.56z"/>
		</g>
		<g>
			<path d="M105.09,25.74l2.37,1.72c-0.16,0.24-0.42,0.34-1,0.35l-9.68,0.07l2.15,1c-0.08,0.18-0.26,0.3-0.6,0.3
				c-0.08,0-0.16,0-0.26-0.02c-1.07,1.11-2.3,2.18-3.46,3.01c0.66,0.54,0.91,1.13,0.91,1.65c0.01,0.74-0.49,1.32-1.15,1.33
				c-0.28,0-0.56-0.1-0.86-0.33c-0.39-1.38-1.6-2.91-2.87-3.74l0.12-0.18c1.46,0.15,2.52,0.48,3.27,0.89
				c0.55-1.08,1.2-2.53,1.75-3.91l-6.9,0.05l-0.12-0.4l8.2-0.06l-0.03-3.36l3.08,0.28c-0.04,0.28-0.24,0.42-0.84,0.53l0.02,2.54
				l4.6-0.04L105.09,25.74z M89.4,39.16c4.2-2.07,8.04-5,11.03-9.58l2.63,1.62c-0.1,0.14-0.24,0.22-0.48,0.22
				c-0.12,0-0.26-0.02-0.42-0.06c-3.63,4.15-7.79,6.5-12.62,8.1L89.4,39.16z M89.84,42.7c5.02-1.98,9.72-4.75,13.43-9.72l2.61,1.8
				c-0.12,0.14-0.26,0.2-0.48,0.2c-0.12,0-0.28-0.02-0.46-0.06c-1.19,1.21-2.4,2.24-3.66,3.15c3.81,0.81,5.04,2.46,5.05,3.58
				c0.01,0.7-0.47,1.2-1.07,1.21c-0.26,0-0.54-0.08-0.82-0.27c-0.69-1.39-2.2-3.08-3.63-4.19c-3.32,2.27-6.89,3.61-10.84,4.6
				L89.84,42.7z"/>
		</g>
		<g>
			<path d="M307.79,33.96c-0.16,0.26-0.4,0.36-0.98,0.37l-3.12,0.02l-0.26,7.86l0.68-0.01l1.21-1.79l2.23,1.8
				c-0.16,0.26-0.42,0.36-1,0.37l-17.32,0.13l-0.1-0.4l3.92-0.03c0.28-2.1,0.6-5,0.88-7.87l-5.04,0.04l-0.1-0.4l5.18-0.04
				c0.22-2.42,0.42-4.8,0.55-6.66l-3.92,0.03l-0.12-0.4l11.04-0.08l1.01-1.29l2.2,1.88c-0.16,0.18-0.36,0.26-0.82,0.35l-0.19,6.1
				l0.78-0.01l1.15-1.73L307.79,33.96z M301.19,42.23l0.3-7.86l-5.42,0.04c-0.28,2.88-0.58,5.76-0.86,7.87L301.19,42.23z
				 M301.74,27.31l-5.1,0.04c-0.12,1.88-0.31,4.26-0.53,6.66l5.4-0.04L301.74,27.31z"/>
		</g>
		<g>
			<path d="M310.13,346.18l0.03,3.4c1,0.27,1.34,0.43,1.35,0.87c0.01,1.02-0.93,1.69-5.03,1.72l-7.22,0.06
				c-2.98,0.02-4.42-0.71-4.44-3.13l-0.11-13.86l2.45,0.92l9.12-0.07l0.89-1.19l2.43,1.7c-0.16,0.18-0.48,0.38-0.92,0.49l0.05,6.9
				c0,0.02-0.62,0.54-2.18,0.56l-0.01-1.58l-9.6,0.07l0.05,6.1c0.01,0.82,0.65,1.04,2.15,1.02l7.2-0.06
				c1.38-0.01,1.98-0.09,2.38-0.66c0.34-0.52,0.86-2.05,1.21-3.27L310.13,346.18z M306.5,336.48l-9.6,0.07l0.05,6.08l9.6-0.07
				L306.5,336.48z"/>
		</g>
		<g>
			<path d="M108.43,341.93c-0.16,0.24-0.4,0.34-0.98,0.35l-6.82,0.05c1.68,2.91,4.92,5.18,8.03,6.12l-0.06,0.22
				c-0.82,0.19-1.45,0.85-1.73,1.87c-3.05-1.6-5.31-4.38-6.64-8.21l-0.02,0l0.07,8.78c0,0.26-0.93,0.81-1.75,0.81l-0.42,0
				l-0.06-7.74c-1.82,2.75-4.62,5.04-8.09,6.6l-0.18-0.3c2.96-2.02,5.38-5.14,6.68-8.13l-6.38,0.05l-0.12-0.4l8.08-0.06l-0.03-4.44
				l-6.34,0.05l-0.1-0.4l6.44-0.05l-0.03-3.96l2.98,0.26c-0.04,0.28-0.2,0.44-0.8,0.51l0.03,3.18l3.18-0.02l1.23-1.59l2.33,1.62
				c-0.14,0.26-0.4,0.34-0.96,0.35l-5.78,0.04l0.03,4.44l4.5-0.03l1.29-1.65L108.43,341.93z"/>
		</g>
		<g>
			<path d="M34.74,353.17h-3.78v-18.84h3.78v0.72h-1.86v17.4h1.86V353.17z"/>
			<path d="M42.98,338.57c-0.16,0.26-0.44,0.34-0.94,0.34h-2.12v6.48l3-0.58l0.06,0.24c-1.24,0.76-3.14,1.84-5.86,3.18
				c-0.1,0.26-0.32,0.46-0.54,0.52l-1.08-2.6c0.52-0.08,1.34-0.2,2.34-0.38v-6.86h-2.08l-0.1-0.4h2.18v-5.28l2.94,0.28
				c-0.04,0.3-0.26,0.42-0.86,0.52v4.48h0.38l0.96-1.58L42.98,338.57z M52.12,335.39l2.24,1.6c-0.14,0.16-0.4,0.32-0.8,0.4v8.98
				c0,0.04-0.52,0.66-2.08,0.66v-1.54H49.3v5.48c0,0.04-0.32,0.76-2.08,0.76v-6.24h-2.14v0.94c0,0.04-0.22,0.76-2,0.76v-11.6
				l2.14,0.9h2v-3.66l2.88,0.28c-0.04,0.28-0.2,0.42-0.8,0.5v2.88h1.98L52.12,335.39z M47.22,336.89h-2.14v3.88h2.14V336.89z
				 M45.08,345.09h2.14v-3.92h-2.14V345.09z M51.48,336.89H49.3v3.88h2.18V336.89z M49.3,345.09h2.18v-3.92H49.3V345.09z"/>
			<path d="M55.42,353.17v-0.72h1.84v-17.4h-1.84v-0.72h3.76v18.84H55.42z"/>
		</g>
		<g>
			<path d="M46.65,283.67l2.34,1.68c-0.14,0.16-0.42,0.34-0.82,0.42v8.6c0,0.04-0.64,0.58-2.2,0.58v-1.72h-4.08v5.66
				c0,0.26-0.96,0.8-1.8,0.8h-0.42v-6.46h-3.96v1.12c0,0.06-0.3,0.8-2.18,0.8v-11.28l2.34,0.96h3.8v-3.92l3.02,0.3
				c-0.04,0.28-0.2,0.44-0.8,0.5v3.12h3.88L46.65,283.67z M39.67,285.23h-3.96v3.56h3.96V285.23z M35.71,292.85h3.96v-3.66h-3.96
				V292.85z M45.97,285.23h-4.08v3.56h4.08V285.23z M41.89,292.85h4.08v-3.66h-4.08V292.85z"/>
		</g>
		<g>
			<path d="M286.17,221.6l-1.01,2.44c2.29-0.74,4.66-2.97,6.16-5.22l0.17,0.09c-0.14,0.74,0.23,1.5,0.99,2.06
				c-1.98,2.04-4.49,3.25-7.34,3.42l4.96,2.06c0.03,0.01,0.44,0.45-0.2,2l-4.19-1.73c0.96,2.33,1.32,5.19,1.09,8.2l-0.29,0.05
				c-0.27-2.88-1.35-5.71-2.69-7.69l-0.64,1.54l0.35,0.15c0.05,0.02,0.52,0.54-0.1,2.02l-6.79-2.81l1.52-1.57l1.07-2.57l-1.83-0.76
				l-2.71,6.55l-0.36-0.04l2.75-6.65l-2.42-1l1.25-2.32c0.21,0.13,0.27,0.3,0.14,0.81l1.78,0.74l1.51-3.65l-0.94-1.66l2.23-1.37
				c0.16,0.22,0.15,0.46-0.04,0.93l-2.44,5.88l1.83,0.76l1.07-2.59l-0.63-1.08l2.15-1.36c0.08,0.17,0.12,0.45,0.05,0.8l4.59,1.9
				c0.02,0.01,0.34,0.69-0.21,2.02L286.17,221.6z M279.56,224.17l-1.11,2.69l2.05,0.85l1.11-2.68L279.56,224.17z M281.43,219.64
				l-1.14,2.75l2.05,0.85l1.14-2.75L281.43,219.64z M282.86,228.68l1.11-2.68l-2.05-0.85l-1.11,2.68L282.86,228.68z M284.71,224.22
				l1.14-2.75l-2.05-0.85l-1.14,2.75L284.71,224.22z"/>
			<path d="M296.95,221.39c0.14,0.21,0.14,0.44-0.05,0.91l-2.48,5.98l2.38,0.98l1.43-3.44l-0.63-1.09l2.11-1.29
				c0.09,0.15,0.13,0.45,0.07,0.8l7.19,2.98c1.07,0.44,1.72,0.98,1.08,3.16c-1.28-0.53-1.8,0.13-2.38,1.12l-0.21-0.09l0.86-2.09
				c0.09-0.21,0.07-0.31-0.11-0.38l-7.6-3.15l-3.66,8.84l8.99,3.72c0.05,0.02,0.56,0.53-0.05,2l-10.74-4.45l1.53-1.54l1.39-3.35
				l-2.38-0.98l-2.71,6.53l-0.37-0.04l2.75-6.63l-2.5-1.04l1.24-2.35c0.21,0.13,0.28,0.34,0.14,0.85l1.86,0.77l1.56-3.77l-0.89-1.6
				L296.95,221.39z M295.92,233.33c1.06-1.46,1.96-1.71,2.53-1.47c0.48,0.2,0.71,0.79,0.52,1.26c-0.09,0.23-0.31,0.44-0.64,0.53
				c-0.68-0.28-1.67-0.35-2.36-0.15L295.92,233.33z M304.07,228.39c0.16,0.2,0.13,0.45-0.04,0.87l-1.08,2.6l3.12,1.29
				c0.07,0.05,0.16,0.67-0.2,1.53l-0.13,0.31l-3.49-1.45l-1.24,2.99l-0.36-0.05l1.27-3.07l-2.15-0.89l-1.17,2.81l-0.36-0.04
				l1.79-4.33c-0.68-0.6-1.68-1.38-2.42-1.89l1.51-1.86c0.15,0.14,0.15,0.33-0.04,0.7c0.37,0.7,0.81,1.74,1.12,2.66l0.39-0.96
				l-0.6-1.12l1.54-1.03c0.16,0.2,0.14,0.44-0.03,0.84l-1.04,2.52l2.15,0.89l0.4-0.97l-0.69-1.25L304.07,228.39z"/>
			<path d="M318.51,235l-1.01,2.44c2.29-0.74,4.66-2.98,6.16-5.22l0.17,0.09c-0.14,0.74,0.23,1.5,0.98,2.06
				c-1.98,2.04-4.49,3.25-7.34,3.42l4.96,2.06c0.03,0.01,0.44,0.45-0.2,2l-4.19-1.73c0.97,2.33,1.32,5.19,1.09,8.2l-0.29,0.05
				c-0.27-2.88-1.35-5.71-2.69-7.69l-0.64,1.54l0.36,0.15c0.05,0.02,0.52,0.54-0.1,2.02l-6.79-2.81l1.52-1.57l1.06-2.57l-1.83-0.76
				l-2.71,6.55l-0.36-0.04l2.75-6.64l-2.42-1l1.25-2.33c0.21,0.13,0.27,0.3,0.14,0.82l1.78,0.74l1.51-3.65l-0.94-1.66l2.23-1.37
				c0.16,0.22,0.15,0.46-0.04,0.93l-2.44,5.88l1.83,0.76l1.07-2.59l-0.63-1.08l2.15-1.36c0.08,0.17,0.12,0.45,0.05,0.8l4.59,1.9
				c0.02,0.01,0.34,0.69-0.21,2.02L318.51,235z M311.9,237.57l-1.11,2.68l2.05,0.85l1.11-2.68L311.9,237.57z M313.78,233.04
				l-1.14,2.75l2.05,0.85l1.14-2.75L313.78,233.04z M315.21,242.08l1.11-2.68l-2.05-0.85l-1.11,2.68L315.21,242.08z M317.05,237.62
				l1.14-2.75l-2.05-0.85l-1.14,2.75L317.05,237.62z"/>
		</g>
		<g>
			<path d="M239.06,264.22c-0.05,0.25-0.21,0.41-0.68,0.6l-5.98,2.48l0.99,2.38l3.44-1.43l0.33-1.22l2.4,0.58
				c-0.04,0.17-0.23,0.41-0.52,0.61l2.98,7.19c0.44,1.07,0.52,1.91-1.47,3c-0.53-1.28-1.36-1.18-2.47-0.89l-0.09-0.21l2.09-0.86
				c0.21-0.09,0.27-0.17,0.2-0.35l-3.15-7.6l-8.84,3.66l3.72,8.99c0.02,0.05,0.02,0.77-1.46,1.38l-4.45-10.74l2.17-0.01l3.35-1.39
				l-0.98-2.38l-6.53,2.71l-0.23-0.28l6.63-2.75l-1.04-2.51l2.54-0.78c0.06,0.24-0.05,0.44-0.5,0.7l0.77,1.86l3.77-1.56l0.5-1.76
				L239.06,264.22z M229.88,271.94c1.78-0.28,2.59,0.18,2.83,0.74c0.2,0.48-0.05,1.06-0.52,1.26c-0.23,0.09-0.53,0.09-0.83-0.08
				c-0.28-0.68-0.93-1.43-1.57-1.77L229.88,271.94z M239.14,274.2c-0.03,0.26-0.23,0.42-0.65,0.59l-2.6,1.08l1.29,3.12
				c0.02,0.09-0.36,0.59-1.22,0.94l-0.31,0.13l-1.45-3.49l-2.99,1.24l-0.22-0.29l3.07-1.27l-0.89-2.15l-2.81,1.17l-0.23-0.28
				l4.33-1.79c-0.05-0.91-0.21-2.17-0.37-3.05l2.38-0.25c0.01,0.21-0.13,0.34-0.53,0.46c-0.24,0.76-0.65,1.8-1.09,2.67l0.95-0.39
				l0.37-1.21l1.82,0.36c-0.03,0.26-0.21,0.41-0.61,0.58l-2.52,1.05l0.89,2.15l0.97-0.4l0.39-1.38L239.14,274.2z"/>
			<path d="M245.76,280.4c-0.05,0.25-0.21,0.41-0.68,0.6l-5.98,2.48l0.99,2.38l3.44-1.43l0.33-1.22l2.4,0.58
				c-0.04,0.17-0.23,0.42-0.52,0.61l2.98,7.2c0.44,1.07,0.52,1.9-1.47,2.99c-0.53-1.28-1.36-1.18-2.47-0.89l-0.09-0.21l2.09-0.86
				c0.21-0.09,0.27-0.17,0.2-0.35l-3.15-7.6l-8.84,3.66l3.72,8.99c0.02,0.05,0.02,0.77-1.46,1.38l-4.45-10.74l2.17-0.01l3.35-1.39
				l-0.99-2.38l-6.53,2.71l-0.23-0.28l6.63-2.75l-1.04-2.51l2.54-0.79c0.06,0.24-0.05,0.44-0.5,0.7l0.77,1.86l3.77-1.56l0.5-1.76
				L245.76,280.4z M236.59,288.12c1.78-0.28,2.59,0.18,2.83,0.74c0.2,0.49-0.05,1.06-0.52,1.26c-0.23,0.09-0.53,0.09-0.83-0.08
				c-0.28-0.68-0.93-1.43-1.57-1.77L236.59,288.12z M245.84,290.39c-0.03,0.26-0.23,0.42-0.65,0.59l-2.6,1.08l1.29,3.12
				c0.02,0.09-0.36,0.59-1.22,0.94l-0.31,0.13l-1.45-3.49l-2.99,1.24l-0.21-0.29l3.07-1.27l-0.89-2.15l-2.81,1.17l-0.23-0.28
				l4.33-1.79c-0.05-0.91-0.21-2.17-0.37-3.05l2.38-0.25c0.01,0.21-0.12,0.34-0.53,0.46c-0.23,0.76-0.65,1.81-1.09,2.67l0.95-0.39
				l0.37-1.21l1.82,0.37c-0.03,0.26-0.21,0.41-0.61,0.58l-2.52,1.04l0.89,2.15l0.97-0.4l0.4-1.38L245.84,290.39z"/>
			<path d="M251.37,305.25l-2.44,1.01c2.14,1.1,5.4,1.19,8.04,0.67l0.06,0.19c-0.62,0.43-0.9,1.22-0.76,2.15
				c-2.84,0.04-5.48-0.88-7.61-2.78l2.06,4.96c0.01,0.03,0,0.63-1.56,1.27l-1.73-4.19c-0.97,2.33-2.74,4.6-5.03,6.57l-0.24-0.17
				c1.85-2.22,3.09-4.99,3.54-7.34l-1.54,0.64l0.15,0.36c0.02,0.05-0.01,0.74-1.5,1.36l-2.81-6.79l2.18-0.03l2.57-1.06l-0.76-1.83
				l-6.55,2.71l-0.23-0.28l6.65-2.75l-1-2.43l2.53-0.76c0.06,0.24-0.02,0.41-0.48,0.67l0.74,1.78l3.65-1.51l0.51-1.84l2.55,0.61
				c-0.04,0.26-0.22,0.43-0.69,0.62l-5.88,2.44l0.76,1.83l2.59-1.07l0.31-1.21l2.49,0.56c-0.06,0.18-0.23,0.4-0.53,0.6l1.9,4.59
				c0.01,0.02-0.25,0.73-1.57,1.28L251.37,305.25z M244.88,302.38l-2.68,1.11l0.85,2.05l2.68-1.11L244.88,302.38z M244.03,307.91
				l2.68-1.11l-0.85-2.05l-2.68,1.11L244.03,307.91z M249.41,300.51l-2.75,1.14l0.85,2.05l2.75-1.14L249.41,300.51z M248.49,306.06
				l2.75-1.14l-0.85-2.05l-2.75,1.14L248.49,306.06z"/>
		</g>
		<g>
			<path d="M207.62,275.05c-0.14,0.21-0.35,0.3-0.86,0.3h-6.47l0,2.57h3.73l0.77-1l1.99,1.45c-0.1,0.14-0.37,0.3-0.72,0.37v7.79
				c0,1.15-0.25,1.96-2.5,2.21c0-1.38-0.81-1.61-1.94-1.77v-0.23l2.26,0c0.23,0,0.31-0.05,0.31-0.24l0-8.22h-9.57V288
				c0,0.05-0.28,0.72-1.87,0.72l0-11.62l2.01,0.82h3.62l0-2.57l-7.07,0l-0.1-0.35h7.17l0-2.71l2.64,0.25
				c-0.04,0.24-0.21,0.38-0.74,0.46V275h4.08l1.14-1.44L207.62,275.05z M203.87,284.31c-0.12,0.23-0.37,0.3-0.82,0.3h-2.82l0,3.38
				c-0.02,0.09-0.56,0.4-1.49,0.4l-0.33,0v-3.78h-3.24l-0.09-0.35l3.32,0l0-2.33h-3.05l-0.1-0.35h4.69c0.3-0.86,0.63-2.08,0.82-2.96
				l2.29,0.68c-0.07,0.19-0.25,0.26-0.67,0.23c-0.51,0.61-1.29,1.42-2.03,2.05l1.03,0l0.8-0.98l1.54,1.03
				c-0.12,0.23-0.35,0.3-0.79,0.3l-2.73,0l0,2.33l1.05,0l0.89-1.12L203.87,284.31z M196.19,278.68c1.75,0.42,2.33,1.16,2.33,1.77
				c0,0.52-0.46,0.96-0.96,0.96c-0.24,0-0.52-0.12-0.73-0.39c0-0.73-0.31-1.68-0.77-2.24L196.19,278.68z"/>
		</g>
		<g>
			<path d="M174.59,271.31c-0.21,0.14-0.44,0.14-0.91-0.05l-5.98-2.48l-0.98,2.38l3.44,1.43l1.09-0.63l1.29,2.11
				c-0.15,0.09-0.45,0.13-0.8,0.06l-2.98,7.19c-0.44,1.07-0.98,1.72-3.16,1.08c0.53-1.28-0.13-1.79-1.12-2.38l0.09-0.21l2.09,0.86
				c0.21,0.09,0.31,0.07,0.38-0.11l3.15-7.6l-8.84-3.66l-3.72,8.99c-0.02,0.05-0.53,0.56-2-0.05l4.45-10.74l1.54,1.53l3.35,1.39
				l0.98-2.38l-6.53-2.71l0.04-0.36l6.63,2.75l1.04-2.51l2.35,1.24c-0.13,0.21-0.34,0.28-0.85,0.14l-0.77,1.86l3.77,1.56l1.6-0.89
				L174.59,271.31z M167.59,278.43c-0.2,0.16-0.45,0.13-0.87-0.04l-2.6-1.08l-1.29,3.12c-0.05,0.07-0.67,0.16-1.53-0.2l-0.31-0.13
				l1.45-3.49l-2.99-1.24l0.05-0.36l3.07,1.27l0.89-2.15l-2.81-1.17l0.04-0.36l4.33,1.79c0.6-0.68,1.38-1.68,1.89-2.42l1.86,1.51
				c-0.14,0.15-0.33,0.15-0.7-0.04c-0.7,0.37-1.74,0.82-2.66,1.12l0.95,0.39l1.12-0.6l1.03,1.54c-0.2,0.16-0.44,0.14-0.84-0.03
				l-2.52-1.04l-0.89,2.15l0.97,0.4l1.25-0.69L167.59,278.43z M162.65,270.28c1.46,1.06,1.71,1.96,1.47,2.52
				c-0.2,0.49-0.79,0.72-1.26,0.52c-0.23-0.09-0.44-0.31-0.53-0.64c0.28-0.68,0.35-1.67,0.15-2.36L162.65,270.28z"/>
			<path d="M167.89,287.48c-0.21,0.14-0.44,0.14-0.91-0.05l-5.98-2.48l-0.99,2.38l3.44,1.43l1.09-0.63l1.29,2.11
				c-0.15,0.09-0.45,0.13-0.8,0.06l-2.98,7.19c-0.44,1.07-0.98,1.72-3.16,1.08c0.53-1.28-0.13-1.8-1.12-2.38l0.09-0.21l2.09,0.86
				c0.21,0.09,0.31,0.07,0.38-0.11l3.15-7.6l-8.84-3.66l-3.72,8.99c-0.02,0.05-0.53,0.56-2-0.05l4.45-10.74l1.54,1.53l3.35,1.39
				l0.98-2.38l-6.53-2.71l0.04-0.36l6.63,2.75l1.04-2.51l2.35,1.24c-0.13,0.21-0.34,0.28-0.85,0.14l-0.77,1.86l3.77,1.56l1.6-0.89
				L167.89,287.48z M160.89,294.6c-0.2,0.16-0.45,0.13-0.87-0.04l-2.6-1.08l-1.29,3.12c-0.05,0.07-0.67,0.16-1.53-0.2l-0.31-0.13
				l1.45-3.49l-2.99-1.24l0.05-0.36l3.07,1.27l0.89-2.15l-2.81-1.17l0.04-0.36l4.33,1.79c0.6-0.68,1.38-1.68,1.89-2.42l1.86,1.51
				c-0.14,0.15-0.33,0.15-0.7-0.04c-0.7,0.37-1.74,0.81-2.66,1.12l0.95,0.39l1.12-0.6l1.03,1.54c-0.2,0.16-0.44,0.14-0.84-0.03
				l-2.52-1.04l-0.89,2.15l0.97,0.4l1.25-0.69L160.89,294.6z M155.95,286.46c1.46,1.06,1.71,1.96,1.47,2.52
				c-0.2,0.49-0.79,0.72-1.26,0.52c-0.23-0.09-0.44-0.31-0.53-0.64c0.28-0.68,0.35-1.67,0.15-2.36L155.95,286.46z"/>
			<path d="M161.62,302.62c-0.2,0.16-0.43,0.16-0.9-0.03l-4.58-1.89l-1.41,3.41l2.2,0.91l1.17-0.69l1.24,2.12
				c-0.17,0.08-0.39,0.12-0.78,0.02l-3.52,8.49c-0.04,0.1-0.8,0.24-1.66-0.12l-0.31-0.13l0.51-1.23l-9.25-3.83l-0.35,0.86
				c-0.05,0.11-0.75,0.3-1.6-0.06l-0.31-0.13l4.35-10.51l1.57,1.5l1.62,0.67l1.41-3.41l-4.62-1.92l0.05-0.36l12.16,5.04l1.6-0.89
				L161.62,302.62z M156.95,305.4l-2.34-0.97l-1.19,2.88c-0.18,0.44-0.2,0.48-0.04,0.55l0.63,0.26c0.26,0.11,0.44,0.18,1.13-0.59
				l0.11,0.05l-0.33,0.89c0.4,0.45,0.4,0.54,0.3,0.79c-0.25,0.6-0.81,0.72-1.77,0.33l-0.87-0.36c-1.44-0.6-1.49-0.92-0.79-2.62
				l1.18-2.85l-1.84-0.76c-0.88,2.08-2.19,4.28-5.58,4.64l-0.09-0.23c2.14-1.01,3.17-3.04,4.04-5.09l-1.79-0.74l-3.21,7.76
				l9.25,3.83L156.95,305.4z M153.1,303.43l1.41-3.41l-1.84-0.76l-1.41,3.41L153.1,303.43z"/>
		</g>
		<g>
			<path d="M125.91,229.18c-0.26-0.03-0.42-0.19-0.61-0.66l-1.9-4.58l-3.41,1.41l0.91,2.2l1.32,0.34l-0.62,2.38
				c-0.18-0.06-0.36-0.19-0.57-0.54l-8.49,3.52c-0.1,0.04-0.73-0.4-1.09-1.25l-0.13-0.31l1.23-0.51l-3.83-9.25l-0.86,0.36
				c-0.11,0.05-0.74-0.32-1.09-1.18l-0.13-0.31l10.51-4.35l0.05,2.18l0.67,1.62l3.41-1.41l-1.92-4.62l0.29-0.21l5.04,12.16l1.76,0.5
				L125.91,229.18z M120.64,227.84l-0.97-2.34l-2.88,1.19c-0.44,0.18-0.48,0.2-0.42,0.36l0.26,0.63c0.11,0.26,0.18,0.44,1.22,0.38
				l0.05,0.11l-0.86,0.39c-0.03,0.6-0.1,0.67-0.34,0.77c-0.6,0.25-1.09-0.06-1.48-1.02l-0.36-0.87c-0.6-1.44-0.4-1.71,1.29-2.41
				l2.85-1.18l-0.76-1.84c-2.09,0.85-4.58,1.48-7.23-0.66l0.1-0.23c2.23,0.8,4.4,0.09,6.45-0.74l-0.74-1.79l-7.76,3.21l3.83,9.25
				L120.64,227.84z M119.32,223.73l3.41-1.41l-0.76-1.84l-3.41,1.41L119.32,223.73z"/>
			<path d="M108.9,236.23c-0.25-0.05-0.41-0.21-0.6-0.68l-2.48-5.98l-2.38,0.98l1.43,3.44l1.22,0.33l-0.58,2.4
				c-0.17-0.04-0.42-0.23-0.61-0.52l-7.19,2.98c-1.07,0.44-1.9,0.52-2.99-1.47c1.28-0.53,1.18-1.36,0.89-2.47l0.21-0.09l0.86,2.09
				c0.09,0.21,0.17,0.27,0.35,0.2l7.6-3.15l-3.66-8.84l-8.99,3.72c-0.05,0.02-0.77,0.02-1.38-1.46l10.74-4.45l0.01,2.17l1.39,3.35
				l2.38-0.98l-2.71-6.53l0.28-0.23l2.75,6.63l2.51-1.04l0.79,2.54c-0.24,0.06-0.44-0.05-0.7-0.51l-1.86,0.77l1.56,3.77l1.76,0.5
				L108.9,236.23z M98.92,236.31c-0.26-0.03-0.42-0.23-0.59-0.65l-1.08-2.6l-3.12,1.29c-0.09,0.02-0.59-0.36-0.94-1.22l-0.13-0.31
				l3.49-1.45l-1.24-2.99l0.29-0.22l1.27,3.07l2.15-0.89l-1.17-2.81l0.28-0.23l1.79,4.33c0.91-0.05,2.17-0.21,3.05-0.37l0.25,2.38
				c-0.2,0.01-0.34-0.13-0.46-0.53c-0.76-0.23-1.8-0.65-2.67-1.09l0.4,0.95l1.21,0.37l-0.36,1.82c-0.26-0.03-0.41-0.21-0.58-0.61
				l-1.04-2.52l-2.15,0.89l0.4,0.97l1.38,0.4L98.92,236.31z M101.18,227.06c0.28,1.78-0.18,2.59-0.74,2.83
				c-0.49,0.2-1.06-0.05-1.26-0.52c-0.09-0.23-0.09-0.53,0.07-0.83c0.68-0.28,1.43-0.94,1.78-1.57L101.18,227.06z"/>
			<path d="M93.76,242.5c-0.26-0.03-0.42-0.19-0.61-0.66l-1.9-4.58l-3.41,1.41l0.91,2.2l1.32,0.34l-0.62,2.38
				c-0.18-0.06-0.36-0.19-0.56-0.54l-8.49,3.52c-0.1,0.04-0.73-0.4-1.09-1.25l-0.13-0.31l1.23-0.51l-3.83-9.25l-0.86,0.36
				c-0.11,0.05-0.74-0.32-1.09-1.18l-0.13-0.31l10.51-4.35l0.05,2.18l0.67,1.62l3.41-1.41l-1.92-4.62l0.29-0.21l5.04,12.16l1.76,0.5
				L93.76,242.5z M88.49,241.16l-0.97-2.34l-2.88,1.19c-0.44,0.18-0.48,0.2-0.42,0.36l0.26,0.63c0.11,0.26,0.18,0.44,1.22,0.38
				l0.05,0.11l-0.86,0.39c-0.03,0.6-0.1,0.67-0.34,0.77c-0.6,0.25-1.09-0.06-1.48-1.02l-0.36-0.87c-0.6-1.44-0.4-1.71,1.29-2.41
				l2.85-1.18l-0.76-1.84c-2.09,0.85-4.58,1.48-7.23-0.66l0.09-0.23c2.23,0.8,4.4,0.09,6.45-0.74l-0.74-1.79l-7.76,3.21l3.83,9.25
				L88.49,241.16z M87.17,237.05l3.41-1.41l-0.76-1.84l-3.41,1.41L87.17,237.05z"/>
		</g>
		<g>
			<path d="M265.39,244.32c0.05,0.25-0.04,0.46-0.4,0.82l-4.58,4.58l1.82,1.82l2.63-2.64l-0.16-1.25l2.44-0.38
				c0.03,0.17-0.05,0.47-0.25,0.77l5.51,5.51c0.82,0.82,1.21,1.56-0.21,3.33c-0.98-0.98-1.71-0.57-2.62,0.12l-0.16-0.16l1.6-1.6
				c0.16-0.16,0.18-0.26,0.05-0.4l-5.82-5.82l-6.77,6.77l6.88,6.88c0.04,0.04,0.31,0.71-0.82,1.83l-8.22-8.22l2-0.84l2.56-2.56
				l-1.82-1.82l-5,5l-0.32-0.17l5.07-5.07l-1.92-1.92l2.04-1.7c0.15,0.2,0.12,0.42-0.2,0.84l1.42,1.42l2.88-2.88l-0.21-1.82
				L265.39,244.32z M259.87,254.96c1.53-0.94,2.46-0.83,2.89-0.4c0.37,0.37,0.36,1,0,1.36c-0.17,0.17-0.46,0.29-0.79,0.25
				c-0.52-0.52-1.41-0.97-2.13-1.04L259.87,254.96z M269.29,253.52c0.07,0.25-0.05,0.47-0.37,0.79l-1.99,1.99l2.39,2.39
				c0.05,0.07-0.11,0.68-0.77,1.34l-0.23,0.24l-2.67-2.67l-2.29,2.29l-0.31-0.19l2.35-2.35l-1.64-1.64l-2.15,2.15l-0.32-0.17
				l3.32-3.32c-0.4-0.82-1.03-1.92-1.51-2.67l2.1-1.14c0.09,0.19,0.01,0.36-0.31,0.63c0.07,0.79,0.09,1.92,0.01,2.88l0.73-0.73
				l-0.12-1.26l1.82-0.36c0.07,0.25-0.04,0.46-0.35,0.77l-1.93,1.93l1.64,1.64l0.74-0.74l-0.16-1.42L269.29,253.52z"/>
			<path d="M280.08,265.13l-1.87,1.87c2.4,0.2,5.44-0.97,7.68-2.46l0.12,0.15c-0.41,0.63-0.36,1.47,0.12,2.28
				c-2.61,1.12-5.39,1.29-8.09,0.35l3.8,3.8c0.02,0.03,0.23,0.58-0.95,1.77l-3.21-3.2c0,2.52-0.77,5.3-2.13,7.99l-0.28-0.06
				c0.85-2.76,0.94-5.79,0.46-8.13l-1.18,1.18l0.27,0.27c0.04,0.04,0.27,0.69-0.87,1.83l-5.2-5.2l2-0.87l1.97-1.97l-1.4-1.4
				l-5.01,5.01l-0.32-0.17l5.09-5.09l-1.86-1.86l2.04-1.67c0.15,0.2,0.14,0.38-0.19,0.8l1.36,1.36l2.8-2.8l-0.24-1.89l2.58-0.41
				c0.06,0.26-0.04,0.48-0.39,0.84l-4.5,4.5l1.4,1.4l1.98-1.98l-0.17-1.24l2.51-0.43c0.01,0.19-0.06,0.46-0.26,0.75l3.51,3.51
				c0.01,0.01,0.05,0.77-0.96,1.78L280.08,265.13z M272.99,264.97l-2.05,2.05l1.57,1.57l2.05-2.05L272.99,264.97z M274.32,270.4
				l2.05-2.05l-1.57-1.57l-2.05,2.05L274.32,270.4z M276.46,261.5l-2.1,2.1l1.57,1.57l2.1-2.1L276.46,261.5z M277.73,266.98l2.1-2.1
				l-1.57-1.57l-2.1,2.1L277.73,266.98z"/>
		</g>
		<rect x="60.91" y="50.9" style="&st0;" width="276.99" height="277.72"/> 
		<line style="&st0;" x1="60.91" y1="50.9" x2="101.41" y2="92.39"/>
		<line style="&st0;" x1="297.36" y1="91.92" x2="337.9" y2="50.9"/>
		<line style="&st0;" x1="297.41" y1="287.12" x2="337.9" y2="328.62"/>
		<line style="&st0;" x1="101.48" y1="287.83" x2="60.91" y2="328.62"/>
	</g>
</svg>
