<?xml version="1.0" encoding="iso-8859-1"?>
<!-- Generator: Adobe Illustrator 11 Build 196, SVG Export Plug-In . SVG Version: 6.0.0 Build 78)  -->
<!DOCTYPE svg PUBLIC "-//W3C//DTD SVG 1.0//EN"    "http://www.w3.org/TR/2001/REC-SVG-20010904/DTD/svg10.dtd" [
	<!ENTITY ns_flows "http://ns.adobe.com/Flows/1.0/">
	<!ENTITY ns_svg "http://www.w3.org/2000/svg">
	<!ENTITY ns_xlink "http://www.w3.org/1999/xlink">
	<!ENTITY st0 "fill:none;stroke:#000000;stroke-linecap:round;stroke-linejoin:round;">
]>
<svg  xmlns="&ns_svg;" xmlns:xlink="&ns_xlink;" xmlns:a="http://ns.adobe.com/AdobeSVGViewerExtensions/3.0/"
	 width="184.5" height="291" viewBox="0 0 184.5 291" style="overflow:visible;enable-background:new 0 0 184.5 291"
	 xml:space="preserve">
	<g id="Pfaddaten">
		<g id="Rahmen">
			<polyline style="&st0;" points="165.5,33 165.5,253.5 158,253.5 158,33.5 "/>
			<line style="&st0;" x1="155.5" y1="44.5" x2="155.5" y2="34"/>
			<line style="&st0;" x1="155.5" y1="77" x2="155.5" y2="50"/>
			<line style="&st0;" x1="29" y1="77" x2="29" y2="50"/>
			<line style="&st0;" x1="155.5" y1="90" x2="155.5" y2="80.5"/>
			<line style="&st0;" x1="155.5" y1="130" x2="155.5" y2="95"/>
			<polyline style="&st0;" points="158,253.5 155.5,249 155.5,133.5 "/>
			<line style="&st0;" x1="169.5" y1="263.5" x2="179.5" y2="263.5"/>
			<line style="&st0;" x1="179.5" y1="255.5" x2="179.5" y2="263.5"/>
			<line style="&st0;" x1="5" y1="255.5" x2="5" y2="263.5"/>
			<path style="&st0;" d="M156.5,257.5c3,0,4,6,4,9.5s3.5,8,3.5,11.5s0.5,7.5,0.5,12"/>
			<rect x="28" y="44.5" style="&st0;" width="129" height="5"/> 
			<rect x="28" y="90.5" style="&st0;" width="129" height="5"/> 
			<path style="&st0;" d="M28,77.5v3h7.5c0-0.94,0-1.96,0-3H28z"/>
			<path style="&st0;" d="M60.5,77.5v3h4c0-0.83,0-1.87,0-3H60.5z"/>
			<path style="&st0;" d="M75.5,77.5v3h4c0-0.79,0-1.83,0-3H75.5z"/>
			<path style="&st0;" d="M90.5,77.5v3h3c0-0.83,0-1.86,0-3H90.5z"/>
			<path style="&st0;" d="M135,77.5v3h3.5c0-0.86,0-1.88,0-3H135z"/>
			<rect x="149.5" y="77.5" style="&st0;" width="7.5" height="3"/> 
			<path style="&st0;" d="M120,77.5v3h4c0-0.86,0-1.89,0-3H120z"/>
			<path style="&st0;" d="M104.5,77.5v3h4.5c0-0.9,0-1.91,0-3H104.5z"/>
			<path style="&st0;" d="M46.5,77.5v3h3c0-0.92,0-1.94,0-3H46.5z"/>
			<path style="&st0;" d="M28,130.5v3h6.5c0-0.91,0-1.92,0-3H28z"/>
			<path style="&st0;" d="M61,130.5v3h3.5c0-0.9,0-1.91,0-3H61z"/>
			<path style="&st0;" d="M75.5,130.5v3H80c0-0.9,0-1.91,0-3H75.5z"/>
			<path style="&st0;" d="M91,130.5v3h4c0-0.88,0-1.9,0-3H91z"/>
			<path style="&st0;" d="M106,130.5v3h3c0-0.88,0-1.89,0-3H106z"/>
			<path style="&st0;" d="M120,130.5v3h4c0-0.88,0-1.89,0-3H120z"/>
			<rect x="150" y="130.5" style="&st0;" width="7" height="3"/> 
			<path style="&st0;" d="M135,130.5v3h4c0-0.88,0-1.89,0-3H135z"/>
			<path style="&st0;" d="M45.5,130.5v3H50c0-0.92,0-1.93,0-3H45.5z"/>
			<path style="&st0;" d="M92.25,6.5c-10,0-25.75,6-29.25,9.5c-3.5-1.5-4.5-1.5-7.5-1.5C50.46,14.5,42,22,24,22C9.5,22,7,17,4.5,17
				s-4,0.5-4,4c0,10,16.5,12.5,26,12.5c13,0,25.5-7,29-7c2,0,3.5,0,8,2c4.5-5,20.25-11,28.75-11s24.25,6,28.75,11c4.5-2,6-2,8-2
				c3.5,0,16,7,29,7c9.5,0,26-2.5,26-12.5c0-3.5-1.5-4-4-4s-5,5-19.5,5c-18,0-24.94-7.5-31.5-7.5c-3,0-4,0-7.5,1.5
				C118,12.5,102.25,6.5,92.25,6.5z"/>
			<path style="&st0;" d="M84,6.5c0-3.5,4.75-6,8.25-6s8.25,2.5,8.25,6"/>
			<polyline style="&st0;" points="19,33 19,253.5 26.5,253.5 26.5,33.5 "/>
			<line style="&st0;" x1="29" y1="249" x2="155.5" y2="249"/>
			<polyline style="&st0;" points="19.5,249 8,249 5,255.5 179.5,255.5 176.5,249 165,249 "/>
			<line style="&st0;" x1="29" y1="44.5" x2="29" y2="34"/>
			<line style="&st0;" x1="29" y1="90" x2="29" y2="80.5"/>
			<line style="&st0;" x1="29" y1="130.5" x2="29" y2="95"/>
			<polyline style="&st0;" points="26.5,253.5 29,249 29,133.5 "/>
			<line style="&st0;" x1="15" y1="263.5" x2="5" y2="263.5"/>
			<path style="&st0;" d="M32,264l-4,9v5.5l-8,12H10c0-11.5,2.5-8,2.5-12.5c0-3,2.5-5.5,2.5-9s2-11.5,5-11.5h8v6h128.5v-6h8
				c3,0,5,8,5,11.5s2.5,6,2.5,9c0,4.5,2.5,2.5,2.5,12.5h-10l-8-12V273l-4-9"/>
			<path style="&st0;" d="M28,257.5c-3,0-4,6-4,9.5s-3.5,8-3.5,11.5s-0.5,7.5-0.5,12"/>
		</g>
		<g id="Schnurverzeihrung">
			<g id="Schnuere">
				<polyline style="&st0;" points="92,173.5 129.75,136.25 153.5,160.5 "/>
				<line style="&st0;" x1="53" y1="138" x2="31.25" y2="159.75"/>
				<line style="&st0;" x1="92.5" y1="173.5" x2="56.26" y2="137.75"/>
				<polyline style="&st0;" points="155,134.5 116.5,173 80,137 43.75,173.25 31,160.5 28,160.5 "/>
				<polyline style="&st0;" points="29.5,134.5 68,173 104.5,137 140.75,173.25 153.5,160.5 156.5,160.5 "/>
			</g>
			<g id="Knoten">
				<path style="&st0;" d="M46,175c0,0.97-1.01,1.25-2.25,1.25s-2.25-0.28-2.25-1.25s1.01-1.75,2.25-1.75S46,174.03,46,175z"/>
				<path style="&st0;" d="M70.25,174.75c0,0.97-1.01,1.25-2.25,1.25s-2.25-0.28-2.25-1.25S66.76,173,68,173
					S70.25,173.78,70.25,174.75z"/>
				<path style="&st0;" d="M94.25,175.25c0,0.97-1.01,1.25-2.25,1.25s-2.25-0.28-2.25-1.25s1.01-1.75,2.25-1.75
					S94.25,174.28,94.25,175.25z"/>
				<path style="&st0;" d="M118.75,174.75c0,0.97-1.01,1.25-2.25,1.25s-2.25-0.28-2.25-1.25s1.01-1.75,2.25-1.75
					S118.75,173.78,118.75,174.75z"/>
				<path style="&st0;" d="M143,175c0,0.97-1.01,1.25-2.25,1.25s-2.25-0.28-2.25-1.25s1.01-1.75,2.25-1.75S143,174.03,143,175z"/>
			</g>
			<g>
				<path style="&st0;" d="M47,175.5c3.5,2.5,4,5.5,4,9s0,56.5,0,56.5"/>
				<path style="&st0;" d="M46.46,175.5c2.66,2.5,3.04,5.5,3.04,9s0,56.5,0,56.5"/>
				<path style="&st0;" d="M45.92,175.5c1.82,2.48,2.08,5.46,2.08,8.93c0,3.47,0,57.07,0,57.07"/>
				<path style="&st0;" d="M45.38,175.5c0.98,2.54,1.12,5.58,1.12,9.14s0,56.86,0,56.86"/>
				<path style="&st0;" d="M44.84,175.5c0.14,2.54,0.16,5.58,0.16,9.14s0,56.86,0,56.86"/>
				<path style="&st0;" d="M44.84,175.5c0.14,2.52,0.16,5.54,0.16,9.07c0,3.53,0,56.43,0,56.43"/>
				<path style="&st0;" d="M41.68,175.5c-3.5,2.5-4,5.5-4,9s0,56.5,0,56.5"/>
				<path style="&st0;" d="M42.22,175.5c-2.66,2.5-3.04,5.5-3.04,9s0,57,0,57"/>
				<path style="&st0;" d="M42.76,175.5c-1.82,2.48-2.08,5.46-2.08,8.93c0,3.47,0,57.07,0,57.07"/>
				<path style="&st0;" d="M43.3,175.5c-0.98,2.54-1.12,5.58-1.12,9.14s0,56.86,0,56.86"/>
				<path style="&st0;" d="M43.84,175.5c-0.14,2.54-0.16,5.58-0.16,9.14s0,56.86,0,56.86"/>
				<path style="&st0;" d="M43.84,175.5c-0.14,2.52-0.16,5.54-0.16,9.07c0,3.53,0,56.43,0,56.43"/>
			</g>
			<g>
				<path style="&st0;" d="M71.16,176c3.5,2.5,4,5.5,4,9s0,56.5,0,56.5"/>
				<path style="&st0;" d="M70.62,176c2.66,2.5,3.04,5.5,3.04,9s0,56.5,0,56.5"/>
				<path style="&st0;" d="M70.08,176c1.82,2.48,2.08,5.46,2.08,8.93c0,3.47,0,57.07,0,57.07"/>
				<path style="&st0;" d="M69.54,176c0.98,2.54,1.12,5.58,1.12,9.14s0,56.86,0,56.86"/>
				<path style="&st0;" d="M69,176c0.14,2.54,0.16,5.58,0.16,9.14s0,56.86,0,56.86"/>
				<path style="&st0;" d="M69,176c0.14,2.52,0.16,5.54,0.16,9.07c0,3.53,0,56.43,0,56.43"/>
				<path style="&st0;" d="M65.84,176c-3.5,2.5-4,5.5-4,9s0,56.5,0,56.5"/>
				<path style="&st0;" d="M66.38,176c-2.66,2.5-3.04,5.5-3.04,9s0,57,0,57"/>
				<path style="&st0;" d="M66.92,176c-1.82,2.48-2.08,5.46-2.08,8.93c0,3.47,0,57.07,0,57.07"/>
				<path style="&st0;" d="M67.46,176c-0.98,2.54-1.12,5.58-1.12,9.14s0,56.86,0,56.86"/>
				<path style="&st0;" d="M68,176c-0.14,2.54-0.16,5.58-0.16,9.14s0,56.86,0,56.86"/>
				<path style="&st0;" d="M68,176c-0.14,2.52-0.16,5.54-0.16,9.07c0,3.53,0,56.43,0,56.43"/>
			</g>
			<g>
				<path style="&st0;" d="M89.34,176.5c-3.5,2.5-4,5.5-4,9s0,56.5,0,56.5"/>
				<path style="&st0;" d="M89.88,176.5c-2.66,2.5-3.04,5.5-3.04,9s0,56.5,0,56.5"/>
				<path style="&st0;" d="M90.42,176.5c-1.82,2.48-2.08,5.46-2.08,8.93c0,3.47,0,57.07,0,57.07"/>
				<path style="&st0;" d="M90.96,176.5c-0.98,2.54-1.12,5.58-1.12,9.14s0,56.86,0,56.86"/>
				<path style="&st0;" d="M91.5,176.5c-0.14,2.54-0.16,5.58-0.16,9.14s0,56.86,0,56.86"/>
				<path style="&st0;" d="M91.5,176.5c-0.14,2.52-0.16,5.54-0.16,9.07c0,3.53,0,56.43,0,56.43"/>
				<path style="&st0;" d="M94.66,176.5c3.5,2.5,4,5.5,4,9s0,56.5,0,56.5"/>
				<path style="&st0;" d="M94.12,176.5c2.66,2.5,3.04,5.5,3.04,9s0,57,0,57"/>
				<path style="&st0;" d="M93.58,176.5c1.82,2.48,2.08,5.46,2.08,8.93c0,3.47,0,57.07,0,57.07"/>
				<path style="&st0;" d="M93.04,176.5c0.98,2.54,1.12,5.58,1.12,9.14s0,56.86,0,56.86"/>
				<path style="&st0;" d="M92.5,176.5c0.14,2.54,0.16,5.58,0.16,9.14s0,56.86,0,56.86"/>
				<path style="&st0;" d="M92.5,176.5c0.14,2.52,0.16,5.54,0.16,9.07c0,3.53,0,56.43,0,56.43"/>
			</g>
			<g>
				<path style="&st0;" d="M114.34,176c-3.5,2.5-4,5.5-4,9s0,56.5,0,56.5"/>
				<path style="&st0;" d="M114.88,176c-2.66,2.5-3.04,5.5-3.04,9s0,56.5,0,56.5"/>
				<path style="&st0;" d="M115.42,176c-1.82,2.48-2.08,5.46-2.08,8.93c0,3.47,0,57.07,0,57.07"/>
				<path style="&st0;" d="M115.96,176c-0.98,2.54-1.12,5.58-1.12,9.14s0,56.86,0,56.86"/>
				<path style="&st0;" d="M116.5,176c-0.14,2.54-0.16,5.58-0.16,9.14s0,56.86,0,56.86"/>
				<path style="&st0;" d="M116.5,176c-0.14,2.52-0.16,5.54-0.16,9.07c0,3.53,0,56.43,0,56.43"/>
				<path style="&st0;" d="M119.66,176c3.5,2.5,4,5.5,4,9s0,56.5,0,56.5"/>
				<path style="&st0;" d="M119.12,176c2.66,2.5,3.04,5.5,3.04,9s0,57,0,57"/>
				<path style="&st0;" d="M118.58,176c1.82,2.48,2.08,5.46,2.08,8.93c0,3.47,0,57.07,0,57.07"/>
				<path style="&st0;" d="M118.04,176c0.98,2.54,1.12,5.58,1.12,9.14s0,56.86,0,56.86"/>
				<path style="&st0;" d="M117.5,176c0.14,2.54,0.16,5.58,0.16,9.14s0,56.86,0,56.86"/>
				<path style="&st0;" d="M117.5,176c0.14,2.52,0.16,5.54,0.16,9.07c0,3.53,0,56.43,0,56.43"/>
			</g>
			<g>
				<path style="&st0;" d="M138.5,175.5c-3.5,2.5-4,5.5-4,9s0,56.5,0,56.5"/>
				<path style="&st0;" d="M139.04,175.5c-2.66,2.5-3.04,5.5-3.04,9s0,56.5,0,56.5"/>
				<path style="&st0;" d="M139.58,175.5c-1.82,2.48-2.08,5.46-2.08,8.93c0,3.47,0,57.07,0,57.07"/>
				<path style="&st0;" d="M140.12,175.5c-0.98,2.54-1.12,5.58-1.12,9.14s0,56.86,0,56.86"/>
				<path style="&st0;" d="M140.66,175.5c-0.14,2.54-0.16,5.58-0.16,9.14s0,56.86,0,56.86"/>
				<path style="&st0;" d="M140.66,175.5c-0.14,2.52-0.16,5.54-0.16,9.07c0,3.53,0,56.43,0,56.43"/>
				<path style="&st0;" d="M143.82,175.5c3.5,2.5,4,5.5,4,9s0,56.5,0,56.5"/>
				<path style="&st0;" d="M143.28,175.5c2.66,2.5,3.04,5.5,3.04,9s0,57,0,57"/>
				<path style="&st0;" d="M142.74,175.5c1.82,2.48,2.08,5.46,2.08,8.93c0,3.47,0,57.07,0,57.07"/>
				<path style="&st0;" d="M142.2,175.5c0.98,2.54,1.12,5.58,1.12,9.14s0,56.86,0,56.86"/>
				<path style="&st0;" d="M141.66,175.5c0.14,2.54,0.16,5.58,0.16,9.14s0,56.86,0,56.86"/>
				<path style="&st0;" d="M141.66,175.5c0.14,2.52,0.16,5.54,0.16,9.07c0,3.53,0,56.43,0,56.43"/>
			</g>
		</g>
		<g id="Platten">
			<g id="Loecher">
				<circle style="&st0;" cx="40" cy="115.5" r="1.5"/> 
				<circle style="&st0;" cx="55.5" cy="114" r="1.5"/> 
				<circle style="&st0;" cx="70" cy="112" r="1.5"/> 
				<circle style="&st0;" cx="85.5" cy="110.5" r="1.5"/> 
				<circle style="&st0;" cx="100.5" cy="109.5" r="1.5"/> 
				<circle style="&st0;" cx="114.5" cy="108" r="1.5"/> 
				<circle style="&st0;" cx="129.5" cy="107" r="1.5"/> 
				<circle style="&st0;" cx="144.5" cy="104.5" r="1.5"/> 
				<circle style="&st0;" cx="144" cy="65" r="1.5"/> 
				<circle style="&st0;" cx="129.5" cy="66" r="1.5"/> 
				<circle style="&st0;" cx="114.5" cy="64" r="1.5"/> 
				<circle style="&st0;" cx="99" cy="66" r="1.5"/> 
				<circle style="&st0;" cx="85" cy="66.5" r="1.5"/> 
				<circle style="&st0;" cx="70" cy="67" r="1.5"/> 
				<circle style="&st0;" cx="55" cy="68" r="1.5"/> 
				<circle style="&st0;" cx="41" cy="68" r="1.5"/> 
			</g>
			<g id="Plaettchen">
				<path style="&st0;" d="M149.5,64.5c0-2.5-3-4.5-5.5-4.5s-5.5,1.5-5.5,5s0,18,0,18h11V64.5z"/>
				<path style="&st0;" d="M135,65.5c0-2.5-3-4.5-5.5-4.5s-5.5,1.5-5.5,5s0,17,0,17h11V65.5z"/>
				<path style="&st0;" d="M120,63.5c0-2.5-3-4.5-5.5-4.5s-5.5,1.5-5.5,5s0,20,0,20h11V63.5z"/>
				<path style="&st0;" d="M104.5,65.5c0-2.5-3-4.5-5.5-4.5s-5.5,1.5-5.5,5s0,16.5,0,16.5h11V65.5z"/>
				<path style="&st0;" d="M90.5,66c0-2.5-3-4.5-5.5-4.5s-5.5,1.5-5.5,5s0,15.5,0,15.5h11V66z"/>
				<path style="&st0;" d="M75.5,66.5c0-2.5-3-4.5-5.5-4.5s-5.5,1.5-5.5,5s0,15.5,0,15.5h11V66.5z"/>
				<path style="&st0;" d="M60.5,67.5c0-2.5-3-4.5-5.5-4.5s-5.5,1.5-5.5,5s0,16.5,0,16.5h11V67.5z"/>
				<path style="&st0;" d="M46.5,67.5c0-2.5-3-4.5-5.5-4.5s-5.5,1.5-5.5,5s0,17.5,0,17.5h11V67.5z"/>
				<path style="&st0;" d="M45.5,114.5c0-2.5-3-4.5-5.5-4.5s-5.5,1.5-5.5,5s0,22,0,22h11V114.5z"/>
				<path style="&st0;" d="M61,113c0-2.5-3-4.5-5.5-4.5s-5.5,1.5-5.5,5s0,24,0,24h11V113z"/>
				<path style="&st0;" d="M75.5,111c0-2.5-3-4.5-5.5-4.5s-5.5,1.5-5.5,5s0,25.5,0,25.5h11V111z"/>
				<path style="&st0;" d="M91,109.5c0-2.5-3-4.5-5.5-4.5s-5.5,1.5-5.5,5s0,27,0,27h11V109.5z"/>
				<path style="&st0;" d="M106,108.5c0-2.5-3-4.5-5.5-4.5s-5.5,1.5-5.5,5s0,27.5,0,27.5h11V108.5z"/>
				<path style="&st0;" d="M120,107c0-2.5-3-4.5-5.5-4.5s-5.5,1.5-5.5,5s0,29,0,29h11V107z"/>
				<path style="&st0;" d="M135,106c0-2.5-3-4.5-5.5-4.5s-5.5,1.5-5.5,5s0,30,0,30h11V106z"/>
				<path style="&st0;" d="M150,103.5c0-2.5-3-4.5-5.5-4.5s-5.5,1.5-5.5,5s0,32.5,0,32.5h11V103.5z"/>
			</g>
			<g id="Faeden">
				<g id="Faden_14_">
					<path style="&st0;" d="M36.25,87.62c1.12,0.12,2.75,0.88,3.12,1.25s1.75,0.38,2.38,0s1.75-1.25,2.62-1.5"/>
					<path style="&st0;" d="M40.12,95.5c-0.12-1-0.25-3.88-0.25-4.88c0-1.03,0.12-1.88,0.75-1.88s0.38,26.38-0.38,26.38
						c-0.62,0-0.5-0.25-0.5-1"/>
					<path style="&st0;" d="M39.88,95.75c0,1-0.1,13,0,14.25"/>
				</g>
				<g id="Faden_15_">
					<path style="&st0;" d="M51,88.12c1.12,0.12,3.25,0.38,3.62,0.75s1.75,0.38,2.38,0s2.25-1.25,3.12-1.5"/>
					<path style="&st0;" d="M55.38,95.5c-0.12-1-0.25-3.88-0.25-4.88c0-1.03,0.12-1.88,0.75-1.88s0.38,25.38-0.38,25.38
						c-0.62,0-0.5-0.25-0.5-1"/>
					<path style="&st0;" d="M55.12,95.75c0,1-0.1,12,0,13.25"/>
				</g>
				<g id="Faden_20_">
					<path style="&st0;" d="M66,87.62c1.12,0.12,3.25,0.88,3.62,1.25s1.75,0.38,2.38,0s2.25-0.75,3.12-1"/>
					<path style="&st0;" d="M70.38,95.5c-0.12-1-0.25-3.88-0.25-4.88c0-1.03,0.12-1.88,0.75-1.88s0.38,22.88-0.38,22.88
						c-0.62,0-0.5-0.25-0.5-1"/>
					<path style="&st0;" d="M70.12,95.75c0,1-0.1,9.5,0,10.75"/>
				</g>
				<g id="Faden_21_">
					<path style="&st0;" d="M81.75,88.12c1.12,0.12,2.75,0.38,3.12,0.75s1.75,0.38,2.38,0s1.75-0.75,2.62-1"/>
					<path style="&st0;" d="M85.62,94c-0.12-1-0.25-2.38-0.25-3.38c0-1.03,0.12-1.88,0.75-1.88s0.38,21.38-0.38,21.38
						c-0.62,0-0.5-0.25-0.5-1"/>
					<path style="&st0;" d="M85.38,94.25c0,1-0.1,9.5,0,10.75"/>
				</g>
				<g id="Faden_22_">
					<path style="&st0;" d="M96.75,87.62c1.12,0.12,2.75,0.88,3.12,1.25s1.75,0.38,2.38,0s1.75-0.75,2.62-1"/>
					<path style="&st0;" d="M100.62,95.5c-0.12-1-0.25-3.88-0.25-4.88c0-1.03,0.12-1.88,0.75-1.88s0.38,20.88-0.38,20.88
						c-0.62,0-0.5-0.25-0.5-1"/>
					<path style="&st0;" d="M100.38,95.75c0,1-0.1,7.5,0,8.75"/>
				</g>
				<g id="Faden_23_">
					<path style="&st0;" d="M110.5,87.62c1.12,0.12,2.75,0.88,3.12,1.25s1.75,0.38,2.38,0s2.25-1.25,3.12-1.5"/>
					<path style="&st0;" d="M114.38,95.5c-0.12-1-0.25-3.88-0.25-4.88c0-1.03,0.12-1.88,0.75-1.88s0.38,18.88-0.38,18.88
						c-0.62,0-0.5-0.25-0.5-1"/>
					<path style="&st0;" d="M114.12,95.75c0,1-0.1,5.5,0,6.75"/>
				</g>
				<g id="Faden_24_">
					<path style="&st0;" d="M125,87.62c1.12,0.12,3.25,0.88,3.62,1.25s1.75,0.38,2.38,0s1.75-0.75,2.62-1"/>
					<path style="&st0;" d="M129.38,95.5c-0.12-1-0.25-3.88-0.25-4.88c0-1.03,0.12-1.88,0.75-1.88s0.38,17.88-0.38,17.88
						c-0.62,0-0.5-0.25-0.5-1"/>
					<path style="&st0;" d="M129.12,95.75c0,1-0.1,4.5,0,5.75"/>
				</g>
				<g id="Faden_25_">
					<path style="&st0;" d="M140.5,87.88c1.12,0.12,2.75,0.88,3.12,1.25s1.75,0.38,2.38,0s1.75-1.25,2.62-1.5"/>
					<path style="&st0;" d="M144.38,96.25c-0.12-1-0.25-4.38-0.25-5.38c0-1.03,0.12-1.88,0.75-1.88s0.38,15.38-0.38,15.38
						c-0.62,0-0.5-0.25-0.5-1"/>
					<path style="&st0;" d="M144.12,96.5c0,1-0.1,1.5,0,2.75"/>
				</g>
				<g id="Faden_13_">
					<path style="&st0;" d="M37.75,42.62c1.12,0.12,2.25,0.38,2.62,0.75s1.75,0.38,2.38,0s2.25-0.75,3.12-1"/>
					<path style="&st0;" d="M41.12,50c-0.12-1-0.25-3.88-0.25-4.88c0-1.03,0.12-1.88,0.75-1.88S42,68.12,41.25,68.12
						c-0.62,0-0.5-0.25-0.5-1"/>
					<path style="&st0;" d="M40.88,50.25c0,1-0.1,11.5,0,12.75"/>
				</g>
				<g id="Faden_12_">
					<path style="&st0;" d="M51.5,42.12c1.12,0.12,2.25,0.88,2.62,1.25s1.75,0.38,2.38,0s1.75-1.25,2.62-1.5"/>
					<path style="&st0;" d="M54.88,50c-0.12-1-0.25-3.88-0.25-4.88c0-1.03,0.12-1.88,0.75-1.88S55.75,68.12,55,68.12
						c-0.62,0-0.5-0.25-0.5-1"/>
					<path style="&st0;" d="M54.62,50.25c0,1-0.1,11.5,0,12.75"/>
				</g>
				<g id="Faden_5_">
					<path style="&st0;" d="M66.75,42.62c1.12,0.12,2.25,0.38,2.62,0.75s1.75,0.38,2.38,0s1.75-0.75,2.62-1"/>
					<path style="&st0;" d="M70.12,50c-0.12-1-0.25-3.88-0.25-4.88c0-1.03,0.12-1.88,0.75-1.88S71,67.12,70.25,67.12
						c-0.62,0-0.5-0.25-0.5-1"/>
					<path style="&st0;" d="M69.88,50.25c0,1-0.1,10.5,0,11.75"/>
				</g>
				<g id="Faden_4_">
					<path style="&st0;" d="M81.75,42.12c1.12,0.12,2.25,0.88,2.62,1.25s1.75,0.38,2.38,0s1.75-1.25,2.62-1.5"/>
					<path style="&st0;" d="M85.12,50c-0.12-1-0.25-3.88-0.25-4.88c0-1.03,0.12-1.88,0.75-1.88S86,66.62,85.25,66.62
						c-0.62,0-0.5-0.25-0.5-1"/>
					<path style="&st0;" d="M84.88,50.25c0,1-0.1,10,0,11.25"/>
				</g>
				<g id="Faden_3_">
					<path style="&st0;" d="M95.75,42.12c1.12,0.12,2.25,0.88,2.62,1.25s1.75,0.38,2.38,0c0.34-0.2,0.78-0.62,2.12-1"/>
					<path style="&st0;" d="M99.12,50c-0.12-1-0.25-3.88-0.25-4.88c0-1.03,0.12-1.88,0.75-1.88s0.38,22.88-0.38,22.88
						c-0.62,0-0.5-0.25-0.5-1"/>
					<path style="&st0;" d="M99.38,50.25c0,1-0.6,9.5-0.5,10.75"/>
				</g>
				<g id="Faden_2_">
					<path style="&st0;" d="M110,42.12c1.12,0.12,3.25,0.88,3.62,1.25s1.75,0.38,2.38,0s1.75-1.25,2.62-1.5"/>
					<path style="&st0;" d="M114.38,50c-0.12-1-0.25-3.88-0.25-4.88c0-1.03,0.12-1.88,0.75-1.88s0.38,20.38-0.38,20.38
						c-0.62,0-0.5-0.25-0.5-1"/>
					<path style="&st0;" d="M114.12,50.25c0,1-0.1,7,0,8.25"/>
				</g>
				<g id="Faden_1_">
					<path style="&st0;" d="M125.75,42.12c1.12,0.12,2.25,0.88,2.62,1.25s1.75,0.38,2.38,0s1.75-1.25,2.62-1.5"/>
					<path style="&st0;" d="M129.12,50c-0.12-1-0.25-3.88-0.25-4.88c0-1.03,0.12-1.88,0.75-1.88s0.88,22.88,0.12,22.88
						c-0.62,0-0.5-0.25-0.5-1"/>
					<path style="&st0;" d="M128.88,50.25c0,1,0.4,9.5,0.5,10.75"/>
				</g>
				<g id="Faden">
					<path style="&st0;" d="M140,42.12c1.12,0.12,2.75,0.38,3.12,0.75s1.75,0.38,2.38,0s1.75-0.75,2.62-1"/>
					<path style="&st0;" d="M143.88,49.5c-0.12-1-0.25-3.88-0.25-4.88c0-1.03,0.12-1.88,0.75-1.88s0.38,22.38-0.38,22.38
						c-0.62,0-0.5-0.25-0.5-1"/>
					<path style="&st0;" d="M143.62,49.75c0,1-0.1,9,0,10.25"/>
				</g>
			</g>
		</g>
	</g>
</svg>
