<?xml version="1.0" encoding="iso-8859-1"?>
<!-- Generator: Adobe Illustrator 11 Build 196, SVG Export Plug-In . SVG Version: 6.0.0 Build 78)  -->
<!DOCTYPE svg PUBLIC "-//W3C//DTD SVG 1.0//EN"    "http://www.w3.org/TR/2001/REC-SVG-20010904/DTD/svg10.dtd" [
	<!ENTITY ns_flows "http://ns.adobe.com/Flows/1.0/">
	<!ENTITY ns_svg "http://www.w3.org/2000/svg">
	<!ENTITY ns_xlink "http://www.w3.org/1999/xlink">
	<!ENTITY st0 "fill:none;stroke:#000000;stroke-width:2;stroke-linecap:round;stroke-linejoin:round;">
	<!ENTITY st1 "stroke:#000000;stroke-width:2;stroke-linecap:round;stroke-linejoin:round;">
]>
<svg  xmlns="&ns_svg;" xmlns:xlink="&ns_xlink;" xmlns:a="http://ns.adobe.com/AdobeSVGViewerExtensions/3.0/"
	 width="150.13" height="188.89" viewBox="0 0 150.13 188.89" style="overflow:visible;enable-background:new 0 0 150.13 188.89"
	 xml:space="preserve">
	<g id="Layer_1">
		<path style="&st0;" d="M12.86,90.07c0.79-2.26-0.35-6.52-0.11-9.32c0.29-3.36,0.05-7.08,0.52-10.39
			c1.05-7.42,1.9-14.88,3.83-22.08c1.01-3.78,2.16-7.42,3.48-11.06c2.01-5.54,6.15-8.51,9.82-12.99c5.57-6.8,11.89-15.07,20.51-17.7
			c3.97-1.21,7.9-1.84,11.84-2.67c3.64-0.77,7.5,0.25,11.23-0.29c7.79-1.14,16.56-5.08,23.73-0.1c6.66,4.62,12.47,9.7,18.14,15.3
			c6.29,6.22,13.19,12.76,16.18,21.45c2.55,7.43,6.01,14.63,7.02,22.38c0.52,3.94,0.97,7.95,1.42,11.86
			c0.25,2.18-0.83,8.26,0.06,9.37c-0.01-0.01-0.01,0.21-0.17-0.04"/>
		<path style="&st0;" d="M12.55,99.62c-1.56,9.14-3.28,20.24,1.16,28.79c1.93,3.73,3.12,7.48,4.58,11.4c2,5.35,5.89,9.28,9.51,13.52
			c6.31,7.38,6.06,17.88,13.68,24.5c8,6.95,17.62,10.35,28.06,10.05c9.71-0.28,18.54-0.28,27.88-3.22
			c8.66-2.73,14.35-10.25,21.03-15.91c7.45-6.32,11.79-14.33,17.2-22.25c5.46-7.99,10.38-20.3,8.47-30.25
			c-0.88-3.54-0.68-7.49-0.84-11.24c-0.2-4.58-1.4-9.04-1.76-13.61"/>
		<path style="&st0;" d="M18.15,88.96c-1.12-1.51,0.73-7.04,1.33-8.5c1.45-3.54,1.03-6.29,2.02-9.77
			c2.5-8.77,6.88-17.84,11.03-25.95c1.8-3.52,4.28-5.81,6.91-8.67c3.1-3.38,4.85-7.72,8.74-10.4c5.92-4.08,15.01-7.36,22.2-7.19
			c16.64,0.4,33.36,5.97,45.04,18.19c12.08,12.64,18.96,31.76,21.16,48.84"/>
		<path style="&st0;" d="M16.54,59.3c-1.97-0.38-2.4,5.89-1.15,7.18C16.64,67.78,19.17,59.81,16.54,59.3z"/>
		<path style="&st0;" d="M22.35,47.79c2.56-1.96,0.93,12.09-2.2,7.4C18.55,52.79,20.67,49.08,22.35,47.79z"/>
		<path style="&st0;" d="M30.92,37.31c-1.45,0.75-5.1,6.74-1.88,7.49c1.72,0.4,4.92-7.49,2.08-7.7"/>
		<path style="&st0;" d="M26.4,31.22c-0.17-0.13-0.33-0.23-0.48-0.39c-1.37,0.71-5.49,5.65-2.21,6.53c1.59,0.43,2.94-2.49,3.14-3.6
			c0.19-1.01-0.41-4.39-1.73-2.31"/>
		<path style="&st0;" d="M43.64,17.02c-0.42-0.1-9.78,5.93-5.45,7.25c1.56,0.47,4.7-3.35,5.21-4.26
			C43.9,19.1,44.05,17.12,43.64,17.02z"/>
		<path style="&st0;" d="M49.21,20.58c1.02,2.59,4.84-0.65,5.87-1.76c1.76-1.9,1.32-3.7-1.51-2.11
			C52.46,17.34,48.24,18.1,49.21,20.58z"/>
		<path style="&st0;" d="M54.6,7.68c-1.57,0.04-7.57,1.54-5.91,3.79C50.02,13.27,57.62,7.6,54.6,7.68z"/>
		<path style="&st0;" d="M76.56,6.5c-1.9-0.53-8.14-1.17-7.86,1.5c0.28,2.68,6.18,1.25,6.97,1.02C76.85,8.66,78.94,7.16,76.56,6.5z"
			/>
		<path style="&st0;" d="M90.31,4.01c-2.25-1.34-7.95-3.02-7.21-0.27C83.53,5.32,92.05,5.05,90.31,4.01z"/>
		<path style="&st0;" d="M90.22,15.03c-2.34-0.89-4.75-1.16-7.23-0.79C75.62,17.54,100.95,19.76,90.22,15.03"/>
		<path style="&st0;" d="M102.05,11.93c-1.26-0.59-2.32-1.96-4.04-1.64c-2.26,0.42-0.84,2.36,0.89,3.69
			c1.29,0.99,3.7,2.22,5.32,1.58C106.84,14.51,103.37,12.55,102.05,11.93z"/>
		<path style="&st0;" d="M113.47,28.33c-1.04-1.73-2.4-2.14-4.1-1.23c-1.21,2.02,4.22,7.49,5.7,6.53
			C116.06,31.43,115.53,29.66,113.47,28.33"/>
		<path style="&st0;" d="M115.07,19.63c-7.24-3.7,3.05,7.2,4.7,5.85C118.75,23.1,117.19,21.15,115.07,19.63"/>
		<path style="&st0;" d="M126.63,36.17c0.31,1.66,2.24,4.68,1.21,6.55C124.4,39.06,125.5,30.23,126.63,36.17"/>
		<path style="&st0;" d="M133.52,58.41c-1.87-2.52-2.42,4.42-1.47,5.96C134.73,68.78,135.38,60.94,133.52,58.41z"/>
		<path style="&st0;" d="M16.73,75.62c-1.81-1.69-3.23,5.76-1.46,7.28C18.02,85.28,18.27,77.07,16.73,75.62z"/>
		<path style="&st0;" d="M13.84,101.93c-0.12-0.24-0.21-2.09-0.43-2.11c-1.52,1.38-2.73,6.5-0.93,8.03
			C14.31,106.78,14.55,103.35,13.84,101.93z"/>
		<path style="&st0;" d="M12.84,126.1c0.12,2.21,2.16,2.37,3.22,3.77c0.92,1.22,0.67,2.86,0.69,4.45"/>
		<path style="&st0;" d="M23.02,145.7c4.66-0.53,5.45,3.77,6.62,7.09c-2.49-0.03-5.33-4.74-6.19-6.67"/>
		<path style="&st0;" d="M33.21,163.84c1.59,1.55,2.52,4.09,2.59,6.3"/>
		<path style="&st0;" d="M46.93,179.76c0.98,3.05,3.43,3.99,5.95,4.35C51.83,181.87,49.27,180.23,46.93,179.76"/>
		<path style="&st0;" d="M82.47,175.99c-1.5-0.68-4.29,0.08-5.49,1.53c-1.66,2,0,3.67,1.96,4.01
			C82.01,182.05,86.4,177.76,82.47,175.99z"/>
		<path style="&st0;" d="M91.12,181.76c0.11,2.21,7.43-1.45,7.31-3C98.23,175.94,91.02,179.72,91.12,181.76z"/>
		<path style="&st0;" d="M103.24,160.94c-2.04,1.19-6.84,8.8-0.9,8.23C108.4,168.59,105.74,159.48,103.24,160.94z"/>
		<path style="&st0;" d="M96.9,176.02c1.21-3.5,0.46-7.16,0.56-10.81c0.08-2.95-0.37-9,2.74-10.69c2.02-1.09,7.71-0.03,9.15,2.07
			c1.67,2.42,0.5,8.28-0.13,10.73c2.18-3.5,5.26-5.95,7.25-7.78c2.97-2.74,5.98-5.47,9.03-8.16c2.78-2.45,4.74-4.04,5.95-7.58
			c1.1-3.23,2.28-6.57,3.17-9.9c0.82-3.09,1.61-6.25,1.75-9.6c0.15-3.6-0.53-7.31-0.38-10.8c0.33-7.68,1.36-15.11,1.27-22.9"/>
		<path style="&st0;" d="M16.31,94.91c-0.37,7.01-2.18,13.56-2.1,20.58c0.04,3.69,0.45,6.96,1.55,10.37c0.96,3,1.51,6.58,3.17,9.29
			c1.68,2.74,3.98,5.92,6.19,8.2c2.21,2.28,4.91,4.03,6.9,6.49c4.46,5.5,5.1,12.9,8.48,19.2c2.63,4.91,6.2,7.83,11.03,10.52
			c4.26,2.38,8.9,5.28,13.88,3.5c0,0-0.03,0-0.03,0c3.89,0.6,6.78,3.01,10.51,0.64c-0.18,0-0.19-0.45,0,0
			c-2.31-0.31-5.39-3.21-5.47-5.67c-0.12-3.62,3.87-5.64,6.93-6.01c3.35-0.41,7.07-0.74,10.39,0.3c3.04,0.95,5.27,3.07,8.31,3.94"/>
		<path style="&st0;" d="M124.02,100.06c1.96,1.33,5.4-1.74,6.53-3.25"/>
		<path style="&st0;" d="M123.85,103.03c1.41-1.2,5.23-1.07,6.99-0.5"/>
		<path style="&st0;" d="M121.99,108.21c14.62-4.83,15.85,37.13-4.52,31.34"/>
		<path style="&st0;" d="M18.99,96.71c1.02-0.45,3.25,0.5,6,0.25"/>
		<path style="&st0;" d="M26.53,99.03c-0.84-0.28-5.97,1.27-6.78,1.92"/>
		<path style="&st0;" d="M27.12,95c-3.16,0.45-4.74-2.95-6.83-4.38"/>
		<path style="&st0;" d="M27.4,100.93c1.26-0.2-8.8-0.13-10.02,13.68c-1.4,15.84,7.12,25.1,14.93,26.96"/>
		<path style="&st0;" d="M65.93,117.03c-9.31-12.17-20.77,8.52-9.41,10.92"/>
		<path style="&st0;" d="M87.69,116.4c13.05-4.2,12.15,13.92,3.39,12.85"/>
		<path style="&st1;" d="M63.94,127.32c-2.07,1.09,2.95,2.62,3.2,1.24C66.53,126.93,65.46,126.52,63.94,127.32z"/>
		<path style="&st1;" d="M80.29,130.35c1.08-0.98,1.78-2.24,3.34-1.38C88.46,131.65,78.24,133.26,80.29,130.35"/>
		<path style="&st0;" d="M67.84,135.44c-0.43-1.55-0.88-3.66-1.11-5.19"/>
		<path style="&st0;" d="M64.61,130.49c0.02,2.01-0.04,4.6-0.36,6.48"/>
		<path style="&st0;" d="M62.91,130.09c-1.04,1.22-1.93,3.27-2.94,4.5c0.04,0.09,0.03,0.56,0.02,0.31"/>
		<path style="&st0;" d="M83.5,133.07c0.29,1.42,1.26,3.8,1.32,4.94"/>
		<path style="&st0;" d="M81.81,133.3c-0.43,1.34-0.67,3.47-0.8,4.96"/>
		<path style="&st0;" d="M80.09,131.84c-0.32,1.94-1.2,3.67-2.06,5.4"/>
		<path style="&st1;" d="M31.04,47.91c0.49-1.03,4.39-3.28,6.06-3.86c-0.04,1.1-0.86,2.23-1.54,3.14c2.17-0.08,4.16-0.93,6.46-0.85
			c-0.25,1.13-1.83,1.88-2.71,2.66c0.02,0,0.01-0.03-0.01-0.02c3.33,0.61,7.56-0.99,10.23,1.69c-1.03,1.19-6.12,1.81-7.83,2.01
			c-2.79,0.33-5.24,1.15-7.88,1.84c-2.64,0.7-2.87,2.07-3.72,4.67c-0.75,2.31-0.12,6.7-2.5,6.12c-2.38-0.59,0.86-14.75,3.65-17.4"/>
		<path style="&st0;" d="M72.27,39.18c1.05,2.85,1.99,3.99,4.75,3.6c2.22-0.32,5.92-0.83,7.8,0.71"/>
		<path style="&st0;" d="M84.02,47.53c-3.07,0.01-5.29-0.52-8.02-1.66c-2.6-1.09-5.42-1.86-8.16-2.48"/>
		<path style="&st0;" d="M63.06,49.88c0.92-1.9,7.42-0.02,9.12,0.69c2.94,1.23,5.67,3.07,8.73,3.82c5.61,1.38,13.28-5.72,18.42-1.32
			"/>
		<path style="&st1;" d="M128.1,66.32c-4.8-0.09-0.42-7.09-3.94-10.76c-0.68-0.71-4.39-4.5-4.7-2.28c-0.13,0.97,3.43,3.39,4.07,4.16
			c-2.75,0.11-3.91-3.45-6.97-3.75c-4.58-0.45-0.38,2.92,1.63,3.86c-3.27-1.34-5.94-3.61-9.46-1.79c-0.58,3.34,8.99,5.48,11.47,5.6
			c2.26,0.11,4.59,4.72,5.19,5.15C131.53,70.92,123.91,66.23,128.1,66.32z"/>
		<path style="&st0;" d="M106.19,77.22c-26.57-4.12-21.17,37.97,6.74,30.68C134.61,102.24,121.9,79.66,106.19,77.22"/>
		<path style="&st1;" d="M103.98,89.47c-7.54,0.2-8.15,11.26-0.51,11.03C110.56,100.29,112.3,89.25,103.98,89.47"/>
		<path style="&st0;" d="M72.44,92.37c0.92-1.65,4.55-1.13,5.1,0.79"/>
		<path style="&st0;" d="M72.93,97.88c1.79-0.02,4.45-0.64,5.52,1"/>
		<path style="&st0;" d="M31.4,98.77c-3.95,0.34-1.99-8.61,0.26-12.1c4.35-6.76,16.88-6.25,22.87-3.63
			c7.6,3.33,11.41,13.68,4.46,19.38C49.23,110.41,41.15,97.92,31.4,98.77"/>
		<path style="&st1;" d="M54.61,89.46c-5.34-4.45-13.71,1.09-8.4,7.28c2.44,2.85,4.92,4.65,8.03,1.29
			C55.95,96.18,56.77,91.25,54.61,89.46z"/>
		<path style="&st0;" d="M48.1,151.77c-8.1,8.57,2.23,25.2,13.61,22.65C72.59,171.98,56.56,142.82,48.1,151.77"/>
		<path style="&st0;" d="M53.21,154.05c-9.61-2.78-3.11,14.95,3.29,16.99C66.02,174.07,59.7,155.92,53.21,154.05"/>
		<path style="&st0;" d="M48.1,151.77c0.43-1.12,11.24-10.48,13.01-11.59"/>
		<path style="&st0;" d="M61.71,174.42c6.47-2.5,20.28-5.55,27.28-4.88"/>
		<path style="&st0;" d="M103.72,141.4c-0.07,0.07-0.14,0.14-0.21,0.21"/>
		<path style="&st0;" d="M102.5,146.29c-0.23-0.58-0.35,0.01-0.42,0.22"/>
		<path style="&st0;" d="M106.28,143.28c-0.07-0.07-0.14-0.14-0.21-0.21"/>
		<path style="&st0;" d="M105.69,147.31c-0.21,0.58-0.69,1.5-0.2,1.27"/>
		<path style="&st0;" d="M109.48,144.73c0.38-0.65,0.26,0.09,0.22,0.42"/>
		<path style="&st0;" d="M112.67,145.75c-0.5,0.41-1.33,1.54-1.47,1.71"/>
		<path style="&st0;" d="M108.89,148.76c0,0.07,0,0.14,0,0.21"/>
		<path style="&st0;" d="M114.62,149.54c0.28-0.72,0.78-1.3,1.46-1.71"/>
		<path style="&st0;" d="M113.16,151.89c0.14,0.11,0.21,0.25,0.22,0.42"/>
		<path style="&st0;" d="M119.23,145.25c0,0.14,0,0.28,0,0.42"/>
		<path style="&st0;" d="M119.48,148.43c-0.27-0.04-0.38,0.12-0.42,0.43"/>
		<path style="&st0;" d="M117.61,151.84c-0.39,0.24-0.61,0.62-0.62,1.07"/>
		<path style="&st0;" d="M121.62,149.89c0.17-0.59,0.25-1.24,0.19-1.7"/>
		<path style="&st0;" d="M126.88,146.44c0.23-0.35,0.42-0.72-0.01-0.64"/>
		<path style="&st0;" d="M122.69,150.94c0,0.17-0.07,0.32-0.21,0.43"/>
		<path style="&st0;" d="M114.72,158.23c0.43-0.39,0.75-1.05,0.83-1.7"/>
		<path style="&st0;" d="M74.51,144.48c-0.07-0.21-0.15-0.42-0.22-0.63"/>
		<path style="&st0;" d="M78.34,145.92c0.25,0.08,0.46,0.22,0.63,0.41c-0.12,0.54-0.3,1.25-0.61,1.71"/>
		<path style="&st0;" d="M82.4,149.06c0.1,0.27,0.02,0.58-0.2,0.85"/>
		<path style="&st0;" d="M85.83,152.83c-0.22,0.24-0.28,0.53-0.2,0.85"/>
		<path style="&st0;" d="M70.69,143.89c-0.29,0.12-0.78,0.71-1.04,1.28"/>
		<path style="&st0;" d="M66.88,144.14c-0.23,0.31-0.29,0.68-0.2,1.06"/>
		<path style="&st0;" d="M72.34,140.06c0.12,0.53,0.27,1,0.44,1.48"/>
		<path style="&st0;" d="M86.82,146.04c-0.21,0.36-0.42,0.71-0.62,1.07"/>
		<path style="&st0;" d="M89.01,152.8c-0.36,0.67-0.64,1.39-0.82,2.13"/>
		<path style="&st0;" d="M83.21,145.87c-0.45-0.01-0.54,0.24-0.42,0.64"/>
		<path style="&st0;" d="M82.23,152.87c0.05,0.81-0.04,1.69,0.03,2.54"/>
		<path style="&st0;" d="M85.27,158.98c-0.14,0.21-0.28,0.43-0.42,0.64"/>
		<path style="&st0;" d="M82.56,163.25c-0.03,0.3-0.17,0.56-0.42,0.64"/>
		<path style="&st0;" d="M25.22,133.38c0.08,0.49,0.15,0.99,0.23,1.48"/>
		<path style="&st0;" d="M28.42,135.68c-0.32,0.22-0.26,0.53,0.01,0.85"/>
		<path style="&st0;" d="M31.61,136.7c0.01,0.58,0.09,1.14,0.23,1.69"/>
		<path style="&st0;" d="M37.13,137.7c-0.51,0.54-0.53,1.21-0.19,1.91"/>
		<path style="&st0;" d="M43.05,136.36c-0.34,0.09-0.28,0.47,0.01,0.85"/>
		<path style="&st0;" d="M42.88,140.18c-0.06,0.71-0.2,1.43-0.4,2.12"/>
		<path style="&st0;" d="M39.32,143.39c-0.57,0.31-0.85,0.83-0.83,1.49"/>
		<path style="&st0;" d="M42.35,168.16c-0.23-0.67-0.31-1.39-0.24-2.12"/>
		<path style="&st0;" d="M40.35,160.13c-0.42,0.1-0.53,0.42-0.41,0.85"/>
		<path style="&st0;" d="M43.85,169.62c-0.52-0.42-0.1,0.68,0.01,1.27"/>
		<path style="&st0;" d="M47.28,172.97c0.01,0.57,0.01,1.13,0.02,1.7"/>
		<path style="&st0;" d="M40.81,163.09c0.34,0.13,0.4,0.35,0.22,0.63"/>
		<path style="&st0;" d="M48.36,174.87c0,0.21,0,0.42,0.01,0.64"/>
		<path style="&st0;" d="M52.41,177.16c0.21,0.21,0.43,0.42,0.64,0.63"/>
		<path style="&st0;" d="M57.9,175.61c-0.25,0.23-0.32,0.83-0.2,1.48"/>
		<path style="&st0;" d="M68.57,181.64c0.14,0.11,0.22,0.25,0.22,0.42"/>
		<path style="&st0;" d="M62.36,176.2c-0.1,0.55-0.02,1.16,0.23,1.48"/>
		<path style="&st0;" d="M66.38,175.94c0.24,0.14,0.39,0.36,0.43,0.63"/>
		<path style="&st0;" d="M64.52,179.56c0.62-0.05,0.59,0.56,0.44,1.26"/>
		<path style="&st0;" d="M59.43,179.83c0.31,0.44,0.33,0.94,0.01,1.27"/>
		<path style="&st0;" d="M55.6,177.76c-0.24,0.51-0.25,1.04,0.02,1.48"/>
		<path style="&st0;" d="M49.66,177.4c0.19-0.25,0.33-0.54,0.41-0.85"/>
		<path style="&st0;" d="M141.43,83.33c2.45,0.77,7.23,0.87,7.68,4.38c0.46,3.55-5.26,2.9-7.6,2.83c-1.25-0.04-11.34,0.54-8.53-3.36
			c1.32-1.83,8-0.85,9.96-0.69c0.79,0.06,1.55,0.04,2.14,0.08c0-0.01-0.03,0.02-0.01,0.02c-0.47-1.55-2.64-1.06-4.05-1.13"/>
		<path style="&st0;" d="M18.79,89.8c-2.72,0.11-5.8,1.1-8.4,1.94c-2.17,0.71-7.41,1.88-8.87,3.6c-2.1,2.48,2.59,2.6,4.2,2.67
			c2.52,0.1,4.93,0.01,7.44,0.54"/>
		<path style="&st0;" d="M13.14,95.79c-1.69,0.02-5.24,0.85-6.34-0.1c2.38-0.46,4.4-2.28,6.96-1.39"/>
		<path style="&st0;" d="M139.25,78.48c-0.22-0.06-0.49-0.09-0.65-0.11c-0.29,1.57-1.07,6.34,0.68,7.07
			c1.5-1.56,0.37-5.31-0.24-6.53"/>
		<path style="&st0;" d="M140.59,103.26c-0.84-2.55-0.78,9.38-0.31,10.73C141.41,111.51,141.42,105.79,140.59,103.26z"/>
		<path style="&st0;" d="M139.03,124.03c-1.29,0.43-3.3,7.93-1.71,9.71C139.09,132.64,140.32,123.6,139.03,124.03z"/>
		<path style="&st0;" d="M123.81,156.86c-1.52-0.44-7,4.66-4.74,6.59C120.36,162.99,126.8,157.73,123.81,156.86z"/>
		<path style="&st0;" d="M123.85,104.53c2.65,0.43,4.89,1.86,6.65,2.43"/>
	</g>
</svg>
