<?xml version="1.0" encoding="iso-8859-1"?>
<!-- Generator: Adobe Illustrator 11 Build 196, SVG Export Plug-In . SVG Version: 6.0.0 Build 78)  -->
<!DOCTYPE svg PUBLIC "-//W3C//DTD SVG 1.0//EN"    "http://www.w3.org/TR/2001/REC-SVG-20010904/DTD/svg10.dtd" [
	<!ENTITY ns_flows "http://ns.adobe.com/Flows/1.0/">
	<!ENTITY ns_svg "http://www.w3.org/2000/svg">
	<!ENTITY ns_xlink "http://www.w3.org/1999/xlink">
	<!ENTITY st0 "fill:none;stroke:#000000;stroke-linecap:round;stroke-linejoin:round;">
	<!ENTITY st1 "stroke:#000000;stroke-linecap:round;stroke-linejoin:round;">
]>
<svg  xmlns="&ns_svg;" xmlns:xlink="&ns_xlink;" xmlns:a="http://ns.adobe.com/AdobeSVGViewerExtensions/3.0/"
	 width="142.5" height="120.75" viewBox="0 0 142.5 120.75" style="overflow:visible;enable-background:new 0 0 142.5 120.75"
	 xml:space="preserve">
	<g id="Bild">
		<path style="&st0;" d="M110.5,92.75c1.44-1.38,5-4.25,5-18.75s-4-20-4-28.5s2.25-7.75,2.25-14.25S110.25,3.75,71,3.75
			c-15.25,0-21.5,1.25-26.5,6.5"/>
		<path style="&st0;" d="M100.5,45.25c0.5,5.25,6,17.5,6,21.5s-2.22,7.75-5.5,7.5c-3.25-0.25-0.5-1.75-2.75-1.75
			c-1.52,0-1.5,3.5,0.5,3.5"/>
		<path style="&st0;" d="M111,44.75c-4.5-0.25-9.5,1-9.5,4.5"/>
		<path style="&st0;" d="M70.25,48.5c6.44-0.06,16-1.25,18.25,2"/>
		<path style="&st0;" d="M93.5,73.75c0-1.75,0.25-2.25,1.25-3.25"/>
		<path style="&st0;" d="M111.44,48.19C109,47.5,104.5,50.25,103.5,54c3-0.25,6,0,8.25-4.25"/>
		<path style="&st0;" d="M73.5,52.5c2.31-1.12,3.51-1.24,5.25-1c2.36,0.32,6.25,3,8.5,3"/>
		<path style="&st0;" d="M73.5,52.5c4.75,4.25,9.25,3.25,13.75,2"/>
		<circle style="&st1;" cx="83.42" cy="54.33" r="1.06"/> 
		<circle style="&st1;" cx="109.94" cy="50.19" r="1.06"/> 
		<path style="&st0;" d="M89.5,40.62c-4.12-3.69-13.75-0.88-15.75-2.88"/>
		<path style="&st0;" d="M84.75,43.5c-1.25-3-2.25-3.88-9-4.25"/>
		<path style="&st0;" d="M87.25,42.5c-1.38-3.06-4.75-3.38-11.5-3.25"/>
		<path style="&st0;" d="M105.5,38.5c1.75-1.5,4.75-3.75,7.5-4.5"/>
		<path style="&st0;" d="M106.5,39.25c1.81-2.44,3.38-3.38,6.38-4.62"/>
		<path style="&st0;" d="M0.5,105.5c0.75-8.75,30.2-23.51,32.45-24.01"/>
		<path style="&st0;" d="M44.75,65.25c0.5,3.75,1.75,5.25,8,5.25"/>
		<path style="&st0;" d="M44.5,59.75c-0.25-3.25,1.75-4.5,3.5-4.25s3.5,2.75,3.75,6"/>
		<path style="&st0;" d="M49.5,64.75c-1.75-2.5-0.75-5.25-0.75-8"/>
		<path style="&st0;" d="M33.75,92.5c0.19-3.06,3.12-7.62,3-11.75c-1-0.75-2.12-0.69-3.44-0.5c-0.15,0.29-0.01,0.11-0.36,1.24
			c-0.83,2.68-2.2,9.09-2.2,12.26"/>
		<path style="&st0;" d="M29.25,27.25c0,0-1.44-1.7-2.75-2c-0.81-0.19-1.88,0.19-1.88,1.94c0,1.62,0.25,2.12,1.19,2.25"/>
		<path style="&st0;" d="M51.81,76.44c-1.69,0-10.19-0.31-10.38-5.12"/>
		<path style="&st0;" d="M0.75,116.5c2.25-11.75,49.75-38.75,98-34.25"/>
		<path style="&st0;" d="M18.75,100.25c-3.5,4.25-8.75,6.75-9,11.75s2.25,4.75,2.25,8.25"/>
		<path style="&st0;" d="M15.94,103.19c2,2.5,6.56,0.56,10.56,1.06s6.25-2.5,10.25-2.5s8.19,3.28,8.75,8.25
			c0.31,2.75,1.31,2.19,2,5.25"/>
		<path style="&st0;" d="M112,116.5c3.75-6.75,5.75-12.5,6-20.25"/>
		<path style="&st0;" d="M142,117.5c-4-10.25-11.59-19.59-24-21.25c-0.5-2.25-4.5-3.5-7.5-3.5"/>
		<path style="&st0;" d="M80.25,117.25c0.25-11,5.26-34.61,18.5-35C107.25,82,110,92.75,110,99s-0.25,14.25-5.75,18"/>
		<path style="&st0;" d="M90.25,118.5c1-6.75,3-22.75,6.5-22.75s3.13,4,3,6.75C99.5,107.75,95,113,92,116.25"/>
		<path style="&st0;" d="M85.5,116.75c0-8,5.5-26.5,11.5-26.25s6.45,7.26,6.75,10.5c0.75,8-5.75,12.75-6.25,17.5"/>
		<path style="&st0;" d="M43.75,118.5c0-3.75,1.75-3.25,3.75-3.25s4,2,4.25,3.25"/>
		<path style="&st0;" d="M98.75,82.25c0.75,0,2.8-1.92,2.25-2.75c-0.5-0.75-4.12,1.69-5.38,2.44"/>
		<path style="&st1;" d="M63.62,41.5c-1.77,0.56-0.59-1.86-0.19-2.06c-1.21,0.45-1.62-1.63-0.81-2c-1.83,0.81-0.53-1.71,0.19-2.06
			c-1.43,0.56-0.67-1.76,0.12-1.88c-1.5,0.25-1.94-1.31-0.12-2.06c-1.88,0.88-1.25-1.88,1.12-3c-3.19,2.12-2.55-1.04-0.12-2.12
			c-2.25,1.12-2.06-0.69,1.06-2.81c-2.42,1.45-3.01,0.51,0-2.12c-2.56,2.19-9.38,7.88-13.12,9.12s-12.25,4-15.5,4.25
			s-2-3.5-2.25-5.25s4.75-14.25,10.5-19.25c-4-1.25-5.75-6-7-9.75c-0.5,5-1,13.29-2.75,18.25c-1.5,4.25-2,5.25-5.5,8.5
			c1.5,1.75,0.95,3.64,2.25,6.25c1.5,3-1.25,0.75-1.25,0.75s-2.44-4.81-4.44-4.81c-1,0.62-1.19,3.31-2.38,4.62
			c-0.92,1.02-8.94,6.25-8.94,8.12c0,1.31,5.51,10.26,7.81,10.44c0.81,0.06,1.56-0.94,2-1.12c-1.25-0.62-3.56-4.75-3.5-5.88
			s6.94-7.1,9-7c1.31,0.06,1.75,0.31,1.75,2s0.25,6.44,1.38,8.44c2.12,4.62,4.69,15.31,4.56,19.56c-0.06,3.06-0.12,8.81-0.12,9.94
			s-0.19,1.06,0.25,1.06s1.08-4.19,2.81-3.94c0.44,0.06,0.5-0.56,0.5-1.06c0-0.75,0.12-0.62,0.06-1.25
			c-0.44,0.69-1.38,1.75-2.19,1.88c-0.74,0.11-0.94-0.12-0.94-0.69s0.06-0.88,0.44-1.12s2.62-1.88,3.12-2.12
			c-0.5-2.06-0.75-4.81-0.69-8.31c0.09-5.19,0.44-14.44,6.44-14.5c5-0.05,8.25,2.62,8.44,8.75c0.44-5.56,4.32-8.87,5.69-9.69
			c1.56-0.94,1.56-2,1.56-3.62C61.75,43.69,60.85,43.12,63.62,41.5z"/>
		<path style="&st0;" d="M24.31,51.5c2.44-0.12,5.06-1.25,8.19-3.5"/>
	</g>
</svg>
