<?xml version="1.0" encoding="iso-8859-1"?>
<!-- Generator: Adobe Illustrator 11 Build 196, SVG Export Plug-In . SVG Version: 6.0.0 Build 78)  -->
<!DOCTYPE svg PUBLIC "-//W3C//DTD SVG 1.0//EN"    "http://www.w3.org/TR/2001/REC-SVG-20010904/DTD/svg10.dtd" [
	<!ENTITY ns_flows "http://ns.adobe.com/Flows/1.0/">
	<!ENTITY ns_svg "http://www.w3.org/2000/svg">
	<!ENTITY ns_xlink "http://www.w3.org/1999/xlink">
]>
<svg  xmlns="&ns_svg;" xmlns:xlink="&ns_xlink;" xmlns:a="http://ns.adobe.com/AdobeSVGViewerExtensions/3.0/"
	 width="200.22" height="75.84" viewBox="0 0 200.22 75.84" style="overflow:visible;enable-background:new 0 0 200.22 75.84"
	 xml:space="preserve">
	<g id="Pfade">
		<g>
			<polygon points="191.95,51.58 200.22,43.3 195.43,38.5 200.22,33.71 191.95,25.43 187.15,30.23 171.16,14.24 175.96,9.44 
				167.68,1.17 162.89,5.96 158.09,1.17 149.81,9.44 154.61,14.24 138.62,30.23 133.83,25.43 125.55,33.71 130.35,38.5 125.55,43.3 
				133.83,51.58 138.62,46.78 139.47,47.63 147.74,39.35 146.9,38.5 162.89,22.52 178.88,38.5 162.89,54.49 157.15,48.76 
				148.87,57.03 154.61,62.77 149.81,67.57 158.09,75.84 162.89,71.05 167.68,75.84 175.96,67.57 171.16,62.77 187.15,46.78 "/>
			<polygon points="171.26,43.3 166.46,38.5 171.26,33.71 162.98,25.43 158.18,30.23 157.15,29.19 148.87,37.47 149.91,38.5 
				133.92,54.49 117.93,38.5 133.92,22.52 139.66,28.25 147.93,19.98 142.2,14.24 146.99,9.44 138.72,1.17 133.92,5.96 129.12,1.17 
				120.85,9.44 125.64,14.24 109.65,30.23 104.86,25.43 96.58,33.71 101.38,38.5 96.58,43.3 104.86,51.58 109.65,46.78 
				125.64,62.77 120.85,67.57 129.12,75.84 133.92,71.05 138.72,75.84 146.99,67.57 142.2,62.77 158.18,46.78 162.98,51.58 "/>
		</g>
		<g>
			<path d="M75.81,26.2V9.18h-9.18V0H49.61v9.18H26.2V0H9.18v9.18H0V26.2h9.18v23.41H0v17.02h9.18v9.18H26.2v-9.18h23.41v9.18h17.02
				v-9.18h9.18V49.61h-9.18V26.2H75.81z M49.61,49.61H26.2V26.2h23.41V49.61z"/>
		</g>
	</g>
</svg>
