<?xml version="1.0" encoding="iso-8859-1"?>
<!-- Generator: Adobe Illustrator 11 Build 196, SVG Export Plug-In . SVG Version: 6.0.0 Build 78)  -->
<!DOCTYPE svg PUBLIC "-//W3C//DTD SVG 1.0//EN"    "http://www.w3.org/TR/2001/REC-SVG-20010904/DTD/svg10.dtd" [
	<!ENTITY ns_flows "http://ns.adobe.com/Flows/1.0/">
	<!ENTITY ns_svg "http://www.w3.org/2000/svg">
	<!ENTITY ns_xlink "http://www.w3.org/1999/xlink">
]>
<svg  xmlns="&ns_svg;" xmlns:xlink="&ns_xlink;" xmlns:a="http://ns.adobe.com/AdobeSVGViewerExtensions/3.0/"
	 width="183.62" height="185.37" viewBox="0 0 183.62 185.37" style="overflow:visible;enable-background:new 0 0 183.62 185.37"
	 xml:space="preserve">
	<g id="Pfade">
		<g>
			<path d="M47.39,35.76c-0.38-2.34,2.39-6.37-0.49-7.68c-2.88-1.31-7.93,2.25-10.57,3.2c-3.37,1.37-5.05,2.05-8.44,3.51
				c-4.04,2.09-6.24,4.97-5.01,6.23c1.23,1.25,5.26,0.29,8.97-1.8c2.44-1.37,4.18-2.9,4.89-4.16c0.42-0.6,2.37,0.16,1.45,0.98
				c-1.61,0.57-3.55,2.06-4.9,4.14c-2.02,3.1-1.96,6.43-0.05,6.99c1.91,0.57,4.79-1.8,6.57-4.8c1.21-2.05,1.71-3.96,1.42-5.22
				c0.4-0.85,2.3-0.44,2.12,0.27c-1.27,0.92-2.33,2.74-2.5,4.94c-0.25,3.23,1.45,6.08,3.52,6.04c2.07-0.04,3.62-2.74,3.73-5.82
				C47.51,39.89,47.32,38.58,47.39,35.76z"/>
			<path d="M28.51,47.88c1.88-3.74,1.79,0.13,3.72,0.69c1.92,0.56,5.39-2.41,3.65,1.27c-1.74,3.67-5.69,8.59-7.64,8.04
				C26.3,57.34,26.64,51.63,28.51,47.88z"/>
			<path d="M22.86,42.12c3.63,1.18,6.62-1.4,7.79-0.14c1.17,1.25,0.35,2.21-3.31,4.86c-3.65,2.65-7.51,5.98-8.77,4.56
				C17.31,49.99,19.05,44.58,22.86,42.12z"/>
			<path d="M45.34,50.02c-3.78-0.91-3.57-4.19-5.59-3.96c-2.02,0.24-2.42,1.32-1.92,5.17c0.5,3.84,0.73,8.37,2.87,7.91
				C42.85,58.68,46,53.53,45.34,50.02z"/>
			<path d="M23.8,58.46c1.96-4.14,1.82,0.09,3.76,0.64c1.95,0.55,5.65-2.86,3.68,1.27c-1.96,4.14-5.67,9.05-7.61,8.5
				C21.69,68.33,21.84,62.6,23.8,58.46z"/>
			<path d="M17.39,53.29c3.63,1.2,6.46-3.51,7.72-2.1c1.27,1.41,0.4,2.7-2.49,6.16c-1.82,3.49-7.54,6.37-8.81,4.93
				C12.54,60.83,13.67,56.3,17.39,53.29z"/>
			<path d="M39.92,60.33c-3.78-0.89-2-5.91-4.14-5.46c-2.14,0.45-2.58,1.87-3.27,5.96c-1.54,3.57,0.68,8.7,2.79,8.21
				C37.43,68.54,40.22,64.48,39.92,60.33z"/>
			<path d="M19.01,69.97c1.57-4.28,1.78,0.08,3.73,0.63c1.95,0.55,5.28-3,3.7,1.28c-1.58,4.28-4.21,9.35-6.15,8.8
				C18.34,80.13,17.44,74.25,19.01,69.97z"/>
			<path d="M12.38,64.7c3.64,1.21,6.35-3.69,7.62-2.24c1.27,1.44,0.35,2.79-2.22,6.38c-1.52,3.61-6.52,6.61-7.97,5.14
				C8.36,72.5,8.85,67.84,12.38,64.7z"/>
			<path d="M34.94,71.76c-3.77-0.88-2.14-6.09-4.27-5.6c-2.13,0.49-2.62,1.96-2.96,6.18c-1.21,3.69,1.75,8.94,3.69,8.42
				C33.35,80.23,35.46,76.04,34.94,71.76z"/>
			<path d="M16.11,81.16c0.61-4.39,1.7,0.07,3.64,0.62c1.95,0.55,4.37-3.1,3.75,1.29c-0.62,4.39-2.02,9.32-4.01,8.81
				C17.5,91.37,15.51,85.55,16.11,81.16z"/>
			<path d="M8.84,75.8c3.67,1.21,5.56-3.83,6.97-2.35c1.4,1.47,0.62,2.87-1.1,6.56c-0.72,3.71-4.88,6.8-6.51,5.31
				C6.57,83.81,6.02,79.04,8.84,75.8z"/>
			<path d="M31.53,82.88c-3.74-0.88-2.97-6.23-4.95-5.72c-1.99,0.51-2.32,2.03-1.78,6.35c-0.39,3.79,3.62,8.87,5.33,8.39
				C31.83,91.42,32.78,87.27,31.53,82.88z"/>
			<path d="M15.28,92.62c-0.05-4.34,1.68,0.03,3.69,0.52c2.01,0.49,3.72-3.04,3.9,1.17c0.18,4.22-0.63,9.17-2.73,8.77
				C18.05,102.68,15.33,96.97,15.28,92.62z"/>
			<path d="M7.4,87.37c3.69,1.22,4.58-3.92,6.21-2.44c1.63,1.48,1.26,2.89,0.13,6.59c-0.15,3.69-3.98,6.9-5.77,5.44
				C6.18,95.49,5.21,90.67,7.4,87.37z"/>
			<path d="M30.53,94.13c-3.7-0.89-4.19-6.07-5.94-5.56c-1.76,0.51-1.69,2.05-0.38,6.16c0.32,3.62,5.02,8.49,6.61,8
				C32.42,102.23,32.65,98.33,30.53,94.13z"/>
			<path d="M16.13,104.24c-0.56-4.37,1.72-0.05,3.83,0.34c2.11,0.4,3.44-3.26,4.12,0.99c0.68,4.25,0.2,9.49-1.96,9.15
				C19.95,114.38,16.68,108.61,16.13,104.24z"/>
			<path d="M7.57,99.25c3.79,1.14,4.07-4.04,5.89-2.62c1.83,1.41,1.67,2.81,0.96,6.57c0.28,3.72-3.26,7.11-5.19,5.67
				C7.3,107.42,5.8,102.62,7.57,99.25z"/>
			<path d="M31.73,105.12c-3.76-0.82-5.04-5.86-6.71-5.31c-1.67,0.55-1.35,2.03,0.47,6.12c0.75,3.64,5.87,8.57,7.43,8
				C34.48,113.36,34.4,109.24,31.73,105.12z"/>
			<path d="M18.3,116.86c-0.56-4.37,1.72-0.05,3.83,0.35c2.11,0.4,3.44-3.26,4.12,0.99c0.68,4.25,0.2,9.49-1.96,9.15
				C22.12,127,18.85,121.23,18.3,116.86z"/>
			<path d="M9.01,112c3.79,1.14,4.07-4.04,5.89-2.63c1.83,1.42,1.67,2.81,0.96,6.57c0.28,3.72-3.26,7.11-5.19,5.67
				C8.74,120.17,7.24,115.36,9.01,112z"/>
			<path d="M33.9,117.74c-3.76-0.81-5.04-5.86-6.71-5.31c-1.67,0.55-1.35,2.03,0.47,6.12c0.75,3.64,5.87,8.57,7.43,8
				S36.57,121.86,33.9,117.74z"/>
			<path d="M145.44,47.77c2.27-0.17,4.99,4.12,6.23,1.21c1.24-2.91-0.55-5.66-2.01-12.37c-1.45-3.33-2.17-5-3.71-8.36
				c-2.19-3.99-5.12-6.12-6.35-4.86c-1.22,1.26-0.16,5.27,2.01,8.92c1.43,2.4,3,4.11,4.28,4.79c0.61,0.41-0.1,2.37-0.94,1.47
				c-0.61-1.6-2.14-3.49-4.25-4.8c-3.14-1.95-6.47-1.8-6.99,0.12c-0.52,1.92,1.91,4.75,4.96,6.45c2.07,1.16,4,1.61,5.25,1.29
				c0.86,0.38,0.49,2.29-0.22,2.13c-0.95-1.25-2.8-2.26-5-2.38c-3.24-0.18-6.04,1.59-5.96,3.66c0.08,2.07,2.83,3.55,5.91,3.59
				C141.31,48,142.62,47.77,145.44,47.77z"/>
			<path d="M132.87,29.2c3.79,1.79-0.09,1.8-0.6,3.73c-0.51,1.94,2.54,5.33-1.18,3.68c-3.71-1.65-8.73-5.48-8.23-7.44
				C123.36,27.21,129.08,27.41,132.87,29.2z"/>
			<path d="M138.49,23.41c-1.09,3.66,1.56,6.58,0.33,7.78c-1.23,1.2-2.2,0.4-4.94-3.19c-2.73-3.59-6.16-7.36-4.77-8.66
				C130.49,18.05,135.95,19.66,138.49,23.41z"/>
			<path d="M131.14,46.07c0.82-3.81,4.1-3.67,3.82-5.68c-0.28-2.02-1.38-2.39-5.21-1.8c-3.83,0.59-8.35,0.93-7.84,3.06
				C122.42,43.79,127.65,46.81,131.14,46.07z"/>
			<path d="M122.18,24.74c4.19,1.86-0.05,1.82-0.55,3.78c-0.5,1.96,3,5.58-1.19,3.71c-4.18-1.86-9.19-5.45-8.68-7.41
				C112.27,22.87,118,22.88,122.18,24.74z"/>
			<path d="M127.2,18.21c-1.12,3.65,3.66,6.37,2.29,7.67c-1.38,1.3-2.69,0.47-6.22-2.34c-3.53-1.73-6.55-7.38-5.14-8.69
				C119.54,13.54,124.1,14.56,127.2,18.21z"/>
			<path d="M120.7,40.9c0.8-3.8,5.86-2.15,5.36-4.27c-0.5-2.13-1.93-2.53-6.03-3.13c-3.61-1.45-8.68,0.89-8.14,2.99
				C112.43,38.6,116.56,41.3,120.7,40.9z"/>
			<path d="M110.56,20.23c4.32,1.47-0.04,1.78-0.54,3.74c-0.5,1.96,3.13,5.21-1.19,3.73c-4.32-1.48-9.45-3.98-8.95-5.94
				C100.39,19.81,106.24,18.76,110.56,20.23z"/>
			<path d="M115.67,13.47c-1.12,3.67,3.84,6.26,2.42,7.56c-1.41,1.3-2.79,0.41-6.44-2.07c-3.64-1.43-6.77-6.36-5.33-7.84
				C107.78,9.64,112.45,10.02,115.67,13.47z"/>
			<path d="M109.16,36.2c0.79-3.79,6.03-2.29,5.5-4.4c-0.54-2.12-2.02-2.57-6.25-2.81c-3.72-1.12-8.9,1.97-8.33,3.9
				C100.64,34.81,104.89,36.82,109.16,36.2z"/>
			<path d="M99.31,17.6c4.41,0.5-0.03,1.7-0.53,3.66c-0.5,1.96,3.21,4.3-1.2,3.78c-4.4-0.52-9.36-1.79-8.91-3.8
				C89.13,19.23,94.9,17.1,99.31,17.6z"/>
			<path d="M104.49,10.2c-1.12,3.69,3.96,5.47,2.52,6.91c-1.44,1.44-2.85,0.69-6.58-0.94c-3.72-0.63-6.92-4.71-5.46-6.38
				C96.42,8.13,101.18,7.46,104.49,10.2z"/>
			<path d="M97.95,33.05c0.79-3.76,6.16-3.12,5.59-5.09c-0.56-1.97-2.09-2.27-6.39-1.63c-3.8-0.29-8.78,3.84-8.26,5.53
				C89.42,33.56,93.6,34.41,97.95,33.05z"/>
			<path d="M86.73,163.5c-0.98-8.22-0.78-16.31,0.46-24.1c-1.54-0.13-3.06-0.31-4.56-0.55c-1.28,8.15-1.48,16.6-0.46,25.19
				c0.88,7.35,2.6,14.39,5.06,21.04c1.66,0.14,3.33,0.23,5.02,0.27C89.53,178.49,87.64,171.17,86.73,163.5z"/>
			<path d="M89.33,163.19c0.93,7.81,2.9,15.25,5.75,22.19c1.52-0.01,3.03-0.06,4.53-0.15c-3.04-7-5.14-14.56-6.09-22.54
				c-0.94-7.89-0.7-15.65,0.58-23.1c-0.59,0.02-1.17,0.04-1.77,0.04c-0.85,0-1.68-0.03-2.52-0.06
				C88.57,147.2,88.36,155.13,89.33,163.19z"/>
			<path d="M95.92,162.4c0.96,8.03,3.1,15.63,6.24,22.64c1.37-0.12,2.73-0.27,4.08-0.45c-3.26-6.98-5.49-14.58-6.45-22.65
				c-0.93-7.84-0.6-15.53,0.82-22.89c-1.33,0.18-2.68,0.32-4.04,0.41C95.25,146.86,94.98,154.56,95.92,162.4z"/>
			<path d="M101.99,161.68c0.96,8.06,3.22,15.64,6.54,22.57c1.23-0.2,2.46-0.42,3.67-0.67c-3.39-6.82-5.7-14.32-6.65-22.32
				c-0.96-8.04-0.47-15.91,1.24-23.37c-1.27,0.31-2.55,0.57-3.85,0.8C101.43,146.06,101.05,153.8,101.99,161.68z"/>
			<path d="M21.12,141.09l-4.51,3.38c16.15,23.06,40.98,36.42,66.98,38.77c-0.54-1.57-1.05-3.16-1.51-4.77
				C58.08,175.77,36.06,162.43,21.12,141.09z"/>
			<path d="M167.01,39.15C137.93-2.38,80.69-12.47,39.15,16.61c-40.3,28.22-51,82.95-25.03,124.11l2.39-1.7
				C-8.16,99.92,3.5,47.17,41.79,20.37C81.24-7.26,135.62,2.33,163.25,41.79c27.63,39.45,18.04,93.84-21.42,121.47
				c-9.03,6.32-18.84,10.69-28.93,13.2c0.53,1.46,1.1,2.89,1.72,4.3c10.41-2.67,20.52-7.21,29.84-13.74
				C186,137.93,196.09,80.69,167.01,39.15z"/>
			<path d="M26.73,137.16l-4.21,3.17c14.28,20.4,35.93,32.56,58.84,35.42c-0.37-1.45-0.7-2.92-1-4.4
				C59.16,168.3,39.98,156.09,26.73,137.16z"/>
			<path d="M154.8,41.93c0.98,1.22,1.93,2.48,2.84,3.79c25.46,36.36,16.63,86.47-19.73,111.93c-8.43,5.9-17.59,9.96-27.01,12.25
				c0.35,1.38,0.73,2.73,1.16,4.07c9.86-2.43,19.46-6.68,28.28-12.86c38.28-26.8,47.57-79.55,20.78-117.82
				c-2.05-2.92-4.26-5.65-6.61-8.17L154.8,41.93z"/>
			<path d="M44.78,32.68c14.43-10.88,31.6-16.76,48.61-17.47l-1.67-4.12c-17.35,1-34.77,7.12-49.48,18.21"/>
			<path d="M31.89,133.54l-3.94,2.98c12.69,18.12,31.68,29.19,51.93,32.33c-0.23-1.34-0.43-2.69-0.61-4.05
				C60.49,161.57,43.69,150.39,31.89,133.54z"/>
			<path d="M148.74,49.33c26.76,36.84,19.06,79.68-14.45,103.14c-7.69,5.39-16.05,9.1-24.66,11.23c0.2,1.29,0.45,2.57,0.72,3.84
				c9.13-2.23,18.01-6.16,26.18-11.88c35.27-24.69,45.37-70.62,15.41-108.57L148.74,49.33z"/>
			<path d="M109.33,161.49c8.26-2.08,16.29-5.66,23.69-10.84c18.08-12.66,28.77-30.57,28.86-51.05c0.08-16.32-7.43-32.22-17.2-42.28
				c-20.23-20.83-55.63-25.28-83.82-4.98c-25.97,18.7-25.43,51.48-20.42,70.34l1.55-1.17c-3.3-23.32-2.35-48.26,21.83-66.08
				c24.1-17.76,57.93-16.26,77.18,3.94c11.9,12.5,17.22,25.29,17.16,39.9c-0.07,18.51-10.46,36.7-27.2,48.42
				c-6.87,4.81-14.31,8.17-21.97,10.16c0.08,1.12,0.18,2.25,0.31,3.38C109.31,161.34,109.32,161.41,109.33,161.49z"/>
			<path d="M36.65,130.21l-3.69,2.81c11.31,16.16,28.07,26.23,46.06,29.48c-0.13-1.25-0.24-2.49-0.31-3.73
				C61.99,155.5,47.2,145.27,36.65,130.21z"/>
			<path d="M52.05,103.65c8.69-24.43,17.83-44.53,51.61-46.17c27.69-1.34,47.34,24.07,47.6,46.92c0.18,15.34-9.54,29.23-23.39,38.93
				c-5.97,4.18-12.42,7.17-19.07,9.03c-0.01,1.14,0.01,2.28,0.06,3.43c7.29-1.94,14.37-5.17,20.91-9.75
				c14.78-10.35,25.18-25.01,25.51-41.72c0.42-21.71-18.68-52.73-51.75-50.89c-34.79,1.93-43.45,20.35-53.16,49.23L52.05,103.65z"/>
			<path d="M41.04,127.13l-3.46,2.65c10.12,14.46,24.99,23.62,41.02,26.88c-0.04-1.13-0.07-2.26-0.07-3.39
				C63.58,150.04,50.51,140.65,41.04,127.13z"/>
			<path d="M67.33,93.49c6.97-24.17,39.7-34.47,61.1-19.63c19.04,13.21,18.75,38.11,9.25,52.66c-3.12,4.77-7.71,8.58-12.62,12.02
				c-5.02,3.52-10.42,6.12-15.97,7.86c-0.09,1.07-0.16,2.9-0.21,3.99c6.24-1.82,13.05-4.66,18.67-8.6
				c5.17-3.62,9.69-7.83,13.27-12.63c14.14-18.94,7.77-47.37-9.63-58.29c-22.46-14.1-54.82-8.83-65.3,21.67L67.33,93.49z"/>
			<path d="M45.09,124.31l-3.24,2.49c9.1,13,22.35,21.36,36.71,24.55c0.02-1.04,0.06-2.08,0.11-3.11
				C65.24,145.12,53.62,136.48,45.09,124.31z"/>
			<path d="M112.54,90.01c-4.24-0.75-9.84,0.62-9.76,2.65c0.08,2.02,5.98,4.24,10.06,4.83c4.09,0.58,0.16-1.84,0.13-3.8
				C112.94,91.72,116.78,90.76,112.54,90.01z"/>
			<path d="M113.22,88.63c3.7,2.72,4.89,3.24,5.8,1.85c0.91-1.39-2.54-3.55-2.41-7.18c-3.57-2.95-9.48-3.22-10.5-1.67
				C105.11,83.19,109.53,85.91,113.22,88.63z"/>
			<path d="M115.57,106.49c-0.29-3.87,2.96-4.6,2.13-6.43c-0.84-1.83-2.04-1.94-5.59-0.33c-3.55,1.62-7.71,3.34-6.61,5.25
				C106.6,106.89,112.4,108.17,115.57,106.49z"/>
			<path d="M100.87,88.61c-4.56-0.59-9.93,1.21-9.82,3.28c0.12,2.07,5.81,3.91,10.32,4.43c4.5,0.52,0.14-1.9,0.05-3.93
				C101.34,90.37,105.43,89.2,100.87,88.61z"/>
			<path d="M101.57,87.16c4.2,1.7,5.72,2.14,6.72,0.56c1-1.58-4.46-2.94-4.37-6.68c-4.06-2.67-8.78-2.42-9.77-0.75
				C93.17,81.95,97.67,86.49,101.57,87.16z"/>
			<path d="M107.99,98.89c-1.09-1.89-2.6-1.9-6.64-1.21c-3.83-0.29-7.79,3.71-6.66,5.58c1.13,1.88,5.69,3.07,9.46,1.37
				C103.77,100.7,109.07,100.79,107.99,98.89z"/>
			<path d="M89.22,95.7c4.39-0.04,0.09-1.98-0.03-4.06c-0.12-2.08,3.83-3.81-0.62-3.83c-4.45-0.02-9.4,3.12-9.24,5.25
				S84.83,95.74,89.22,95.7z"/>
			<path d="M89.22,86.22c4.14,1.24,5.71,1.69,6.68,0.01c0.97-1.67-4.51-2.7-4.49-6.55c-4.07-2.37-8.57-1.27-9.47,0.65
				C81.04,82.24,85.39,86,89.22,86.22z"/>
			<path d="M95.81,97.73c-1.13-1.88-2.67-1.87-6.58-0.63c-3.73,0.21-7.33,5.23-6.22,6.93s5.44,2.04,9.1-0.1
				C91.66,99.92,96.94,99.61,95.81,97.73z"/>
			<path d="M137.65,103.11l-0.13-0.12c0,0-3.52-5.71-6.03-9.68c-2.36-2.8-3.53-4.19-5.99-7c-3.29-3.26-6.86-4.67-7.77-3.25
				c-0.91,1.42,1.23,4.93,4.41,7.87c2.09,1.93,4.13,3.2,5.61,3.56c0.73,0.26,0.52,2.22-0.57,1.56c-1.04-1.36-3.1-2.8-5.58-3.56
				c-3.69-1.13-6.96-0.19-6.95,1.75c0.02,1.94,3.19,3.99,6.68,4.86c2.38,0.6,4.44,0.58,5.61,0.01c0.97,0.17,1.11,2.03,0.35,2.04
				c-1.29-0.96-3.43-1.49-5.65-1.08c-3.27,0.61-5.5,3.05-4.84,5s3.73,2.59,6.78,1.85c2.46-1.29,3.7-1.8,6.54-2.43
				c1.04,0.03,2.37-0.22,4.04,0.28c3.11,3.57,6.07,8.95,0.17,19.33c-2.67,4.7-7.25,8.17-11.91,11.44
				c-4.03,2.82-8.31,4.99-12.73,6.57c-0.17,1.04-0.32,2.08-0.44,3.13c5.14-1.68,10.12-4.13,14.79-7.39
				c4.96-3.47,9.88-7.16,12.65-12.19C142.26,115.55,142.15,109.19,137.65,103.11z"/>
			<path d="M49.56,120.94l-3.05,2.36c8.21,11.73,19.35,20.1,32.26,23.17c0.07-0.95,0.15-1.89,0.25-2.83
				C66.91,140.66,57.28,131.97,49.56,120.94z"/>
			<path d="M54.49,117.8l-3.62,2.23c7.44,10.63,16.66,19.08,28.33,22.01c0.1-0.87,0.22-2.47,0.35-3.33
				C68.58,135.89,61.5,127.81,54.49,117.8z"/>
			<path d="M85.7,122c1.1,0.56,4.76-11.28,15.8-11.03c11.04,0.25,14.18,6.97,14.05,13.79c-0.14,7.59-2.03,8.35-5.26,11.54
				c-0.12,1.67-0.12,2.81,0.5,4.01c1.4,0,8.77-5.7,8.78-15.56c0.01-8.83-6.28-16.3-17.82-16.55C90.21,107.95,84.6,121.44,85.7,122z"
				/>
		</g>
	</g>
</svg>
