<?xml version="1.0" encoding="iso-8859-1"?>
<!-- Generator: Adobe Illustrator 11 Build 196, SVG Export Plug-In . SVG Version: 6.0.0 Build 78)  -->
<!DOCTYPE svg PUBLIC "-//W3C//DTD SVG 1.0//EN"    "http://www.w3.org/TR/2001/REC-SVG-20010904/DTD/svg10.dtd" [
	<!ENTITY ns_flows "http://ns.adobe.com/Flows/1.0/">
	<!ENTITY ns_svg "http://www.w3.org/2000/svg">
	<!ENTITY ns_xlink "http://www.w3.org/1999/xlink">
	<!ENTITY st0 "fill:#111111;">
	<!ENTITY st1 "fill:#FFFFFF;">
	<!ENTITY st2 "fill:none;stroke:#FFFFFF;stroke-linecap:round;stroke-linejoin:round;">
	<!ENTITY st3 "fill:#0B0809;enable-background:new    ;">
]>
<svg  xmlns="&ns_svg;" xmlns:xlink="&ns_xlink;" xmlns:a="http://ns.adobe.com/AdobeSVGViewerExtensions/3.0/"
	 width="185.95" height="185.3" viewBox="0 0 185.95 185.3" style="overflow:visible;enable-background:new 0 0 185.95 185.3"
	 xml:space="preserve">
	<g id="Pfade">
		<g>
			<g>
				<g>
					<path style="&st0;" d="M97.46,151.69c-9.73-13.11,2.07-19.73,3-29.2c0.93-9.47-3.38-17.73-0.95-19.49
						c2.43-1.76,8.89,4.8,17.67,6.62c8.78,1.83,19.83-6.53,29.27,6.47c12.91,17.77,4.57,49.74,0.73,52.53
						C143.35,171.41,110.37,169.46,97.46,151.69z"/>
					<path style="&st0;" d="M38.48,115.66c9.47-13.3,19.4-4.13,28.7-6.17c9.29-2.04,15.82-8.69,18.25-6.93
						c2.43,1.77-1.82,9.94-0.84,18.86c0.98,8.91,12.34,16.84,2.9,29.84c-12.91,17.77-45.9,19.71-49.73,16.93
						C33.92,165.4,25.58,133.43,38.48,115.66z"/>
					<path style="&st0;" d="M54.53,48.44c15.58,4.89,9.92,17.18,14.73,25.39c4.81,8.21,13.15,12.36,12.22,15.21
						c-0.93,2.86-10.02,1.34-18.19,5.03c-8.18,3.68-12.21,16.94-27.48,11.97C14.93,99.25,2.88,68.48,4.35,63.97
						C5.81,59.47,33.64,41.65,54.53,48.44z"/>
					<path style="&st0;" d="M123.42,42.92c0.16,16.33-13.27,14.75-19.59,21.86s-7.69,16.33-10.69,16.33c-3,0-4.37-9.11-10.4-15.75
						c-6.03-6.64-19.88-6.37-19.88-22.44C62.85,20.96,88.4,0,93.14,0C97.88,0,123.42,20.96,123.42,42.92z"/>
					<path style="&st0;" d="M123.42,42.92c0.16,16.33-13.27,14.75-19.59,21.86s-7.69,16.33-10.69,16.33c-3,0-4.37-9.11-10.4-15.75
						c-6.03-6.64-19.88-6.37-19.88-22.44C62.85,20.96,88.4,0,93.14,0C97.88,0,123.42,20.96,123.42,42.92z"/>
				</g>
				<path style="&st0;" d="M149.95,106.74c-15.48,5.2-18.12-8.06-26.84-11.88c-8.71-3.82-17.91-2.27-18.83-5.12
					c-0.93-2.86,7.31-6.97,11.76-14.76c4.45-7.78-0.08-20.88,15.2-25.84c20.89-6.79,48.72,11.03,50.18,15.54
					C182.88,69.18,170.84,99.95,149.95,106.74z"/>
			</g>
			<g>
				<path style="&st1;" d="M12.31,119.81c0.35,1.03,1.48,1.58,2.51,1.22l66.64-22.98c1.03-0.36,1.58-1.48,1.22-2.51
					c-0.36-1.03-1.48-1.58-2.51-1.22L13.53,117.3C12.5,117.65,11.95,118.78,12.31,119.81z"/>
			</g>
			<g>
				<path style="&st0;" d="M13.43,119.42c0.14,0.41,0.59,0.63,1,0.49l66.64-22.98c0.41-0.14,0.63-0.59,0.49-1
					c-0.14-0.41-0.59-0.63-1-0.49l-66.64,22.98C13.51,118.56,13.29,119.01,13.43,119.42z"/>
			</g>
			<g>
				<path style="&st1;" d="M93.38,177.64c1.09-0.02,1.96-0.92,1.94-2.01l-1.26-70.48c-0.02-1.09-0.92-1.96-2.01-1.94
					c-1.09,0.02-1.96,0.92-1.94,2.01l1.27,70.48C91.39,176.8,92.29,177.66,93.38,177.64z"/>
			</g>
			<g>
				<path style="&st0;" d="M93.36,176.46c0.44-0.01,0.78-0.37,0.78-0.8l-1.27-70.48c-0.01-0.44-0.37-0.79-0.8-0.78
					c-0.44,0.01-0.78,0.37-0.78,0.8l1.27,70.48C92.56,176.12,92.92,176.47,93.36,176.46z"/>
			</g>
			<g>
				<path style="&st1;" d="M174.11,118.92c0.32-1.04-0.27-2.15-1.31-2.47l-67.42-20.58c-1.04-0.32-2.15,0.27-2.47,1.31
					s0.27,2.15,1.31,2.46l67.42,20.58C172.69,120.55,173.79,119.96,174.11,118.92z"/>
			</g>
			<g>
				<path style="&st0;" d="M172.98,118.57c0.13-0.42-0.11-0.86-0.53-0.99l-67.42-20.58c-0.42-0.13-0.86,0.11-0.99,0.52
					c-0.13,0.42,0.11,0.86,0.53,0.99l67.42,20.58C172.41,119.22,172.85,118.99,172.98,118.57z"/>
			</g>
			<g>
				<path style="&st1;" d="M143.27,23.08c-0.89-0.63-2.12-0.41-2.75,0.49l-40.4,57.76c-0.63,0.89-0.41,2.13,0.49,2.75
					c0.89,0.63,2.13,0.41,2.75-0.49l40.4-57.76C144.38,24.93,144.16,23.7,143.27,23.08z"/>
			</g>
			<g>
				<path style="&st0;" d="M142.59,24.05c-0.36-0.25-0.85-0.16-1.1,0.2l-40.4,57.76c-0.25,0.36-0.16,0.85,0.19,1.1
					c0.36,0.25,0.85,0.16,1.1-0.2l40.4-57.76C143.03,24.79,142.94,24.3,142.59,24.05z"/>
			</g>
			<g>
				<path style="&st0;" d="M151.7,32.14l-14.74,0.64c-0.44,0.02-0.77,0.39-0.75,0.82c0.02,0.44,0.39,0.78,0.82,0.76l14.74-0.64
					c0.44-0.02,0.77-0.39,0.75-0.82C152.5,32.46,152.13,32.12,151.7,32.14z"/>
			</g>
			<g>
				<path style="&st0;" d="M162.81,41.55l-32.48,0.59c-0.44,0.01-0.78,0.37-0.78,0.8c0.01,0.44,0.37,0.78,0.8,0.78l32.48-0.59
					c0.44-0.01,0.78-0.37,0.77-0.8C163.6,41.89,163.24,41.54,162.81,41.55z"/>
			</g>
			<g>
				<path style="&st0;" d="M136.73,33.29L130.45,16c-0.15-0.41-0.6-0.62-1.01-0.47c-0.41,0.15-0.62,0.6-0.47,1.01l6.28,17.29
					c0.15,0.41,0.6,0.62,1.01,0.47C136.67,34.15,136.88,33.7,136.73,33.29z"/>
			</g>
			<g>
				<path style="&st0;" d="M130.17,41.56l-11.59-30.57c-0.15-0.41-0.61-0.61-1.02-0.46c-0.41,0.15-0.61,0.61-0.46,1.02l11.59,30.57
					c0.16,0.41,0.61,0.61,1.02,0.46C130.12,42.42,130.32,41.97,130.17,41.56z"/>
			</g>
			<circle style="&st0;" cx="168.37" cy="41.62" r="2.9"/> 
			<circle style="&st0;" cx="159.46" cy="30.2" r="2.9"/> 
			<circle style="&st0;" cx="145.84" cy="19.06" r="2.9"/> 
			<circle style="&st0;" cx="130.26" cy="9.45" r="2.9"/> 
			<circle style="&st0;" cx="116.38" cy="5.1" r="2.9"/> 
			<line style="&st2;" x1="93.16" y1="8.16" x2="93.16" y2="80.58"/>
			<path style="&st2;" d="M84.34,8.16c0,0-1.9,31.6,8.64,31.6c10.53,0,9.01-31.6,9.01-31.6"/>
			<path style="&st2;" d="M75.12,19.75c0,13.17,7.9,33.44,17.91,33.44c10.01,0,16.59-24.49,16.59-33.18"/>
			<path style="&st2;" d="M68.28,32.13c0,20.8,20.28,34.5,24.49,34.5c4.21,0,23.96-13.46,23.96-34.52"/>
			<line style="&st2;" x1="93.16" y1="8.16" x2="93.16" y2="80.58"/>
			<path style="&st2;" d="M84.34,8.16c0,0-1.9,31.6,8.64,31.6c10.53,0,9.01-31.6,9.01-31.6"/>
			<path style="&st2;" d="M75.12,19.75c0,13.17,7.9,33.44,17.91,33.44c10.01,0,16.59-24.49,16.59-33.18"/>
			<path style="&st2;" d="M68.28,32.13c0,20.8,20.28,34.5,24.49,34.5c4.21,0,23.96-13.46,23.96-34.52"/>
			<g>
				<path style="&st1;" d="M92.37,8.16v72.42c0,0.44,0.35,0.79,0.79,0.79c0.44,0,0.79-0.35,0.79-0.79V8.16
					c0-0.44-0.35-0.79-0.79-0.79C92.73,7.37,92.37,7.73,92.37,8.16z"/>
			</g>
			<g>
				<path style="&st1;" d="M101.95,7.37c-0.43,0.02-0.77,0.39-0.75,0.83c0.01,0.23,1.03,22.96-4.98,29.27
					c-0.96,1.01-2.02,1.5-3.24,1.5c-1.21,0-2.27-0.49-3.21-1.5c-5.94-6.3-4.65-29.04-4.63-29.27c0.03-0.44-0.31-0.81-0.74-0.84
					c-0.44-0.03-0.81,0.31-0.83,0.74c-0.06,0.96-1.34,23.65,5.06,30.44c1.25,1.32,2.71,1.99,4.37,1.99c1.65,0,3.12-0.67,4.38-1.99
					c6.48-6.8,5.46-29.48,5.41-30.44C102.75,7.69,102.38,7.35,101.95,7.37z"/>
			</g>
			<g>
				<path style="&st1;" d="M74.33,19.75c0,13.47,8.03,34.23,18.7,34.23c11.03,0,17.38-25.78,17.38-33.97c0-0.44-0.35-0.79-0.79-0.79
					c-0.44,0-0.79,0.35-0.79,0.79c0,9.39-6.84,32.39-15.8,32.39c-9.45,0-17.12-19.76-17.12-32.65c0-0.44-0.35-0.79-0.79-0.79
					C74.69,18.96,74.33,19.31,74.33,19.75z"/>
			</g>
			<g>
				<path style="&st1;" d="M115.94,32.1c0,20.18-19.19,33.73-23.17,33.73c-4.08,0-23.7-13.54-23.7-33.71c0-0.44-0.35-0.79-0.79-0.79
					c-0.44,0-0.79,0.35-0.79,0.79c0,21.2,20.39,35.29,25.28,35.29c4.79,0,24.75-14.09,24.75-35.31c0-0.44-0.35-0.79-0.79-0.79
					C116.29,31.31,115.94,31.67,115.94,32.1z"/>
			</g>
			<g>
				<path style="&st1;" d="M11.37,66.23c-0.13,0.41,0.09,0.86,0.51,1L80.75,89.6c0.42,0.13,0.86-0.09,1-0.51
					c0.13-0.42-0.09-0.86-0.51-1L12.36,65.72C11.95,65.59,11.5,65.81,11.37,66.23z"/>
			</g>
			<g>
				<path style="&st1;" d="M14.08,57.87c-0.11,0.42,0.13,0.86,0.56,0.97c0.22,0.06,22.16,6.11,26.3,13.78
					c0.66,1.23,0.8,2.39,0.43,3.54c-0.37,1.15-1.17,2-2.42,2.6c-7.83,3.7-29.05-4.55-29.27-4.64c-0.41-0.16-0.86,0.04-1.02,0.45
					C8.5,74.98,8.7,75.44,9.1,75.6c0.9,0.35,22.08,8.58,30.52,4.59c1.64-0.78,2.73-1.97,3.24-3.54c0.51-1.57,0.33-3.18-0.54-4.78
					c-4.46-8.26-26.35-14.3-27.28-14.55C14.63,57.21,14.2,57.45,14.08,57.87z"/>
			</g>
			<g>
				<path style="&st1;" d="M27.72,54.24c-0.13,0.42,0.09,0.86,0.51,1c8.93,2.9,28.69,16.51,25.92,25.04
					c-2.92,8.99-24.08,10.17-36.35,6.19c-0.42-0.13-0.86,0.09-1,0.51c-0.13,0.42,0.09,0.86,0.51,1c12.81,4.16,35.04,2.94,38.34-7.2
					c3.41-10.49-19.15-24.5-26.94-27.03C28.3,53.59,27.86,53.82,27.72,54.24z"/>
			</g>
			<g>
				<path style="&st1;" d="M41.42,51.21c-0.13,0.42,0.09,0.86,0.51,1c12,3.9,18.47,13.67,21.27,19.15
					c3.18,6.24,4.17,11.74,3.66,13.32c-0.52,1.59-4.84,5.72-11.3,9.01c-5.48,2.79-16.41,6.91-28.08,3.12
					c-0.42-0.13-0.86,0.09-1,0.51c-0.13,0.41,0.09,0.86,0.51,1c12.21,3.97,23.59-0.31,29.29-3.21c6.65-3.39,11.36-7.71,12.09-9.93
					c0.7-2.15-0.51-8.17-3.75-14.52c-2.9-5.7-9.64-15.86-22.18-19.93C42,50.57,41.55,50.79,41.42,51.21z"/>
			</g>
			<g>
				<path style="&st1;" d="M84.46,102.51L41.89,161.1c-0.26,0.35-0.18,0.85,0.17,1.1c0.35,0.26,0.85,0.18,1.1-0.17l42.57-58.59
					c0.26-0.35,0.18-0.85-0.17-1.1C85.21,102.08,84.71,102.16,84.46,102.51z"/>
			</g>
			<g>
				<path style="&st1;" d="M57,134.5c-9.23,1.69-21.74,20.64-22.27,21.45c-0.24,0.37-0.14,0.85,0.23,1.09
					c0.37,0.24,0.85,0.14,1.09-0.23c0.13-0.19,12.66-19.19,21.23-20.76c1.37-0.25,2.52-0.03,3.5,0.69s1.55,1.73,1.72,3.1
					c1.1,8.59-13.31,26.22-13.45,26.4c-0.28,0.34-0.23,0.83,0.11,1.11c0.34,0.28,0.83,0.23,1.11-0.11
					c0.61-0.75,14.98-18.34,13.8-27.61c-0.23-1.8-1.02-3.21-2.36-4.18C60.38,134.5,58.8,134.18,57,134.5z"/>
			</g>
			<g>
				<path style="&st1;" d="M35.54,141.84c-0.26,0.35-0.18,0.85,0.17,1.1c0.35,0.26,0.85,0.18,1.1-0.17
					c5.52-7.6,24.57-22.18,31.82-16.92c1.78,1.29,2.93,3.49,3.41,6.51c1.44,9.09-3.42,22.63-8.75,29.97
					c-0.26,0.35-0.18,0.85,0.17,1.1c0.35,0.26,0.85,0.18,1.1-0.17c5.51-7.59,10.54-21.66,9.04-31.14c-0.55-3.46-1.91-6-4.04-7.54
					C60.65,118.09,40.35,135.21,35.54,141.84z"/>
			</g>
			<g>
				<path style="&st1;" d="M62.7,112.94c-6.31,1-18.06,4.27-25.81,14.94c-0.26,0.35-0.18,0.85,0.17,1.1s0.85,0.18,1.1-0.17
					c7.42-10.21,18.71-13.35,24.78-14.31c6.92-1.1,12.46-0.33,13.8,0.64c3.3,2.4,11.21,24.89-0.64,41.2
					c-0.26,0.35-0.18,0.85,0.17,1.1c0.35,0.26,0.85,0.18,1.1-0.17c12.46-17.15,4.25-40.53,0.29-43.41
					C75.85,112.54,69.75,111.83,62.7,112.94z"/>
			</g>
			<g>
				<path style="&st1;" d="M99.34,102.8c-0.35,0.26-0.43,0.75-0.17,1.1l42.57,58.59c0.26,0.35,0.75,0.43,1.1,0.17
					c0.35-0.26,0.43-0.75,0.17-1.1l-42.57-58.59C100.18,102.63,99.69,102.55,99.34,102.8z"/>
			</g>
			<g>
				<path style="&st1;" d="M123.48,135.72c-1.33,0.97-2.13,2.38-2.38,4.19c-1.25,9.3,12.91,27.05,13.51,27.8
					c0.27,0.34,0.77,0.4,1.11,0.12c0.34-0.27,0.39-0.77,0.12-1.11c-0.14-0.18-14.33-17.97-13.18-26.61c0.18-1.38,0.75-2.4,1.74-3.12
					c0.98-0.71,2.12-0.94,3.48-0.68c8.51,1.61,20.83,20.76,20.95,20.95c0.24,0.37,0.72,0.48,1.09,0.24
					c0.37-0.23,0.47-0.72,0.24-1.09c-0.52-0.81-12.81-19.92-21.99-21.66C126.39,134.43,124.81,134.75,123.48,135.72z"/>
			</g>
			<g>
				<path style="&st1;" d="M115.54,124.88c-8.92,6.48,1.09,31.07,5.9,37.7c0.26,0.35,0.75,0.43,1.1,0.17
					c0.35-0.26,0.43-0.75,0.17-1.1c-5.52-7.6-13.5-30.22-6.25-35.49c1.78-1.29,4.22-1.71,7.25-1.23
					c9.09,1.44,20.46,10.25,25.79,17.58c0.26,0.35,0.75,0.43,1.1,0.17c0.35-0.26,0.43-0.75,0.17-1.1
					c-5.51-7.59-17.34-16.71-26.83-18.22C120.51,122.83,117.67,123.33,115.54,124.88z"/>
			</g>
			<g>
				<path style="&st1;" d="M107.86,113.86c-1.83,1.33-4.39,6.91-5.5,13.96c-1,6.31-1.52,18.5,6.23,29.16
					c0.26,0.35,0.75,0.43,1.1,0.17c0.35-0.26,0.43-0.75,0.17-1.1c-7.42-10.21-6.91-21.92-5.95-27.99c1.1-6.92,3.53-11.95,4.87-12.92
					c1.35-0.98,7.27-1.78,14.44-0.64c6.07,0.96,17.34,4.06,24.55,13.98c0.26,0.35,0.75,0.43,1.1,0.17s0.43-0.75,0.17-1.1
					c-7.55-10.39-19.27-13.62-25.58-14.62C116.1,111.77,109.75,112.49,107.86,113.86z"/>
			</g>
			<g>
				<path style="&st1;" d="M173.42,66.47l-68.87,22.38c-0.42,0.13-0.64,0.58-0.51,1c0.14,0.42,0.58,0.64,1,0.51l68.87-22.38
					c0.42-0.14,0.64-0.58,0.51-1C174.28,66.56,173.83,66.34,173.42,66.47z"/>
			</g>
			<g>
				<path style="&st1;" d="M170.74,58.07c-0.93,0.24-22.9,6.03-27.39,14.22c-0.87,1.59-1.06,3.2-0.55,4.77
					c0.51,1.57,1.6,2.76,3.25,3.55c8.46,4.06,29.72-3.92,30.62-4.26c0.41-0.15,0.61-0.61,0.46-1.02c-0.16-0.41-0.61-0.61-1.02-0.46
					c-0.21,0.08-21.52,8.08-29.38,4.31c-1.26-0.6-2.05-1.46-2.43-2.62c-0.38-1.16-0.23-2.31,0.43-3.52
					c4.16-7.59,26.18-13.39,26.4-13.45c0.42-0.11,0.67-0.54,0.57-0.96S171.16,57.96,170.74,58.07z"/>
			</g>
			<g>
				<path style="&st1;" d="M156.82,52.9c-12.81,4.16-30.08,18.22-26.78,28.36c3.41,10.49,29.89,8.56,37.68,6.03
					c0.42-0.13,0.64-0.58,0.51-1c-0.14-0.42-0.58-0.64-1-0.51c-8.93,2.9-32.92,3.5-35.69-5.02c-2.92-8.99,13.5-22.38,25.77-26.37
					c0.42-0.13,0.64-0.58,0.51-1C157.68,52.99,157.24,52.76,156.82,52.9z"/>
			</g>
			<g>
				<path style="&st1;" d="M142.94,50.21c-12.21,3.97-18.91,14.12-21.81,19.81c-3.39,6.65-4.66,12.91-3.94,15.13
					c0.7,2.15,5.22,6.31,11.57,9.54c5.69,2.9,17.12,7.16,29.66,3.09c0.42-0.14,0.64-0.58,0.51-1c-0.13-0.41-0.58-0.64-1-0.51
					c-12,3.9-22.98-0.2-28.46-2.99c-6.24-3.18-10.27-7.05-10.78-8.62c-0.52-1.59,0.55-7.47,3.85-13.93
					c2.79-5.48,9.22-15.24,20.89-19.03c0.41-0.14,0.64-0.58,0.51-1C143.8,50.3,143.35,50.07,142.94,50.21z"/>
			</g>
			<g>
				<path style="&st1;" d="M42.07,24.23c-0.87,0.66-1.04,1.9-0.39,2.77l42.45,56.28c0.66,0.87,1.9,1.04,2.77,0.39
					c0.87-0.66,1.04-1.9,0.39-2.77L44.84,24.62C44.18,23.75,42.94,23.57,42.07,24.23z"/>
			</g>
			<g>
				<path style="&st0;" d="M42.78,25.18c-0.35,0.26-0.42,0.76-0.15,1.11l42.45,56.28c0.26,0.35,0.76,0.42,1.11,0.16
					s0.42-0.76,0.16-1.11L43.89,25.33C43.63,24.98,43.13,24.91,42.78,25.18z"/>
			</g>
			<g>
				<path style="&st0;" d="M53.29,19.01l-3.95,14.22c-0.12,0.42,0.13,0.86,0.55,0.97c0.42,0.12,0.86-0.13,0.97-0.55l3.95-14.22
					c0.12-0.42-0.13-0.86-0.55-0.97S53.41,18.59,53.29,19.01z"/>
			</g>
			<g>
				<path style="&st0;" d="M65.68,11.36L56.2,42.43c-0.13,0.42,0.11,0.86,0.53,0.99c0.42,0.13,0.86-0.11,0.99-0.52l9.48-31.07
					c0.13-0.42-0.11-0.86-0.52-0.99C66.25,10.7,65.8,10.94,65.68,11.36z"/>
			</g>
			<g>
				<path style="&st0;" d="M49.76,33.6l-18.38,0.63c-0.44,0.02-0.78,0.38-0.76,0.82c0.02,0.44,0.38,0.78,0.82,0.76l18.38-0.63
					c0.44-0.02,0.78-0.38,0.76-0.82C50.56,33.93,50.2,33.59,49.76,33.6z"/>
			</g>
			<g>
				<path style="&st0;" d="M55.6,42.4l-32.65,1.58c-0.44,0.02-0.77,0.39-0.75,0.83c0.02,0.44,0.39,0.77,0.83,0.75l32.66-1.58
					c0.43-0.02,0.77-0.39,0.75-0.83C56.4,42.71,56.03,42.38,55.6,42.4z"/>
			</g>
			<circle style="&st0;" cx="67.46" cy="6.08" r="2.9"/> 
			<circle style="&st0;" cx="53.85" cy="11.03" r="2.9"/> 
			<circle style="&st0;" cx="39.05" cy="20.54" r="2.9"/> 
			<circle style="&st0;" cx="25.09" cy="32.39" r="2.9"/> 
			<circle style="&st0;" cx="16.66" cy="44.24" r="2.9"/> 
			<g>
				<path style="&st0;" d="M10.82,107.52l12.3,8.15c0.36,0.24,0.85,0.14,1.09-0.22c0.24-0.36,0.14-0.85-0.22-1.09l-12.3-8.15
					c-0.36-0.24-0.85-0.14-1.1,0.22C10.35,106.79,10.45,107.28,10.82,107.52z"/>
			</g>
			<g>
				<path style="&st0;" d="M7.36,93.38L33.99,112c0.36,0.25,0.85,0.16,1.1-0.2s0.16-0.85-0.19-1.1L8.27,92.08
					c-0.36-0.25-0.85-0.16-1.1,0.19C6.92,92.63,7,93.13,7.36,93.38z"/>
			</g>
			<g>
				<path style="&st0;" d="M23.6,115.39l-5.08,17.68c-0.12,0.42,0.12,0.86,0.54,0.98c0.42,0.12,0.86-0.12,0.98-0.54l5.08-17.68
					c0.12-0.42-0.12-0.86-0.54-0.98C24.16,114.72,23.72,114.97,23.6,115.39z"/>
			</g>
			<g>
				<path style="&st0;" d="M33.77,112.55l-8.59,31.55c-0.11,0.42,0.13,0.85,0.56,0.97c0.42,0.11,0.85-0.13,0.97-0.55l8.59-31.54
					c0.11-0.42-0.13-0.86-0.55-0.97C34.32,111.89,33.88,112.13,33.77,112.55z"/>
			</g>
			<circle style="&st0;" cx="2.9" cy="90.05" r="2.9"/> 
			<circle style="&st0;" cx="3.4" cy="104.53" r="2.9"/> 
			<circle style="&st0;" cx="7.87" cy="121.54" r="2.9"/> 
			<circle style="&st0;" cx="14.82" cy="138.48" r="2.9"/> 
			<circle style="&st0;" cx="23.49" cy="150.16" r="2.9"/> 
			<g>
				<path style="&st0;" d="M81.23,175.27l11.56-9.18c0.34-0.27,0.4-0.77,0.13-1.11c-0.27-0.34-0.77-0.4-1.11-0.13l-11.55,9.18
					c-0.34,0.27-0.4,0.77-0.13,1.11C80.39,175.48,80.89,175.54,81.23,175.27z"/>
			</g>
			<g>
				<path style="&st0;" d="M66.71,174.19l25.93-19.57c0.35-0.26,0.42-0.76,0.15-1.11c-0.26-0.35-0.76-0.42-1.11-0.16l-25.93,19.57
					c-0.35,0.26-0.42,0.76-0.15,1.11C65.87,174.38,66.37,174.45,66.71,174.19z"/>
			</g>
			<g>
				<path style="&st0;" d="M92.67,165.54l15.25,10.29c0.36,0.24,0.85,0.15,1.1-0.21c0.24-0.36,0.15-0.85-0.21-1.1l-15.25-10.29
					c-0.36-0.24-0.85-0.15-1.1,0.21C92.21,164.81,92.3,165.3,92.67,165.54z"/>
			</g>
			<g>
				<path style="&st0;" d="M93.11,154.99l27.35,17.92c0.36,0.24,0.85,0.14,1.09-0.23c0.24-0.37,0.14-0.85-0.23-1.09l-27.35-17.92
					c-0.36-0.24-0.85-0.14-1.09,0.23C92.65,154.27,92.75,154.76,93.11,154.99z"/>
			</g>
			<circle style="&st0;" cx="62.17" cy="177.4" r="2.9"/> 
			<circle style="&st0;" cx="76.1" cy="181.4" r="2.9"/> 
			<circle style="&st0;" cx="93.66" cy="182.41" r="2.9"/> 
			<circle style="&st0;" cx="111.92" cy="181.02" r="2.9"/> 
			<circle style="&st0;" cx="125.7" cy="176.39" r="2.9"/> 
			<g>
				<path style="&st0;" d="M168.1,129.74l-5.16-13.83c-0.15-0.41-0.61-0.62-1.02-0.46c-0.41,0.15-0.62,0.61-0.46,1.02l5.16,13.83
					c0.15,0.41,0.61,0.62,1.02,0.46C168.04,130.6,168.25,130.14,168.1,129.74z"/>
			</g>
			<g>
				<path style="&st0;" d="M162.58,143.21l-10.6-30.71c-0.14-0.41-0.59-0.63-1.01-0.49c-0.41,0.14-0.63,0.59-0.49,1l10.6,30.71
					c0.14,0.41,0.59,0.63,1,0.49C162.5,144.07,162.72,143.62,162.58,143.21z"/>
			</g>
			<g>
				<path style="&st0;" d="M162.38,115.86l14.5-11.32c0.34-0.27,0.41-0.77,0.14-1.11c-0.27-0.34-0.76-0.41-1.11-0.14l-14.5,11.31
					c-0.34,0.27-0.41,0.77-0.14,1.11C161.54,116.06,162.03,116.12,162.38,115.86z"/>
			</g>
			<g>
				<path style="&st0;" d="M152.49,112.17l25.49-20.47c0.34-0.27,0.39-0.77,0.12-1.11c-0.27-0.34-0.77-0.39-1.11-0.12l-25.49,20.47
					c-0.34,0.27-0.39,0.77-0.12,1.11C151.65,112.39,152.15,112.44,152.49,112.17z"/>
			</g>
			<circle style="&st0;" cx="164.24" cy="148.52" r="2.9"/> 
			<circle style="&st0;" cx="172.34" cy="136.51" r="2.9"/> 
			<circle style="&st0;" cx="178.73" cy="120.12" r="2.9"/> 
			<circle style="&st0;" cx="183.05" cy="102.33" r="2.9"/> 
			<circle style="&st0;" cx="182.9" cy="87.8" r="2.9"/> 
			<g>
				<path style="&st3;" d="M106.2,92.96c0,7.27-5.9,13.17-13.17,13.17c-7.27,0-13.17-5.89-13.17-13.17
					c0-5.38,4.63-13.17,13.17-13.17C100.3,79.79,106.2,85.69,106.2,92.96z"/>
				<path style="&st1;" d="M79.07,92.96c0,7.7,6.26,13.96,13.96,13.96c7.7,0,13.96-6.26,13.96-13.96c0-7.7-6.26-13.96-13.96-13.96
					C84.04,79,79.07,87.26,79.07,92.96z M80.65,92.96c0-5.06,4.41-12.38,12.38-12.38c6.82,0,12.38,5.55,12.38,12.38
					c0,6.82-5.55,12.38-12.38,12.38S80.65,99.79,80.65,92.96z"/>
			</g>
		</g>
	</g>
</svg>
