<?xml version="1.0" encoding="iso-8859-1"?>
<!-- Generator: Adobe Illustrator 11 Build 196, SVG Export Plug-In . SVG Version: 6.0.0 Build 78)  -->
<!DOCTYPE svg PUBLIC "-//W3C//DTD SVG 1.0//EN"    "http://www.w3.org/TR/2001/REC-SVG-20010904/DTD/svg10.dtd" [
	<!ENTITY ns_flows "http://ns.adobe.com/Flows/1.0/">
	<!ENTITY ns_svg "http://www.w3.org/2000/svg">
	<!ENTITY ns_xlink "http://www.w3.org/1999/xlink">
	<!ENTITY st0 "fill:none;stroke:#000000;stroke-linecap:round;stroke-linejoin:round;stroke-miterlimit:2;">
]>
<svg  xmlns="&ns_svg;" xmlns:xlink="&ns_xlink;" xmlns:a="http://ns.adobe.com/AdobeSVGViewerExtensions/3.0/"
	 width="193.98" height="229.5" viewBox="0 0 193.98 229.5" style="overflow:visible;enable-background:new 0 0 193.98 229.5"
	 xml:space="preserve">
	<g id="Bild">
		<line style="&st0;" x1="52.11" y1="8.5" x2="85.11" y2="8.5"/>
		<line style="&st0;" x1="142.11" y1="95.5" x2="189.86" y2="95.5"/>
		<line style="&st0;" x1="141.86" y1="8.75" x2="189.96" y2="8.73"/>
		<polyline style="&st0;" points="83.86,122 65.11,116.5 73.86,83.25 84.99,61.1 91.61,47.91 94.31,42.54 96.83,37.52 98.49,34.12 
			101.11,29 102.11,1.75 95.11,1.25 94.11,25.25 96.95,31.02 98.49,34.12 "/>
		<polyline style="&st0;" points="84.99,61.1 85.11,30.94 85.11,8.5 94.11,0.5 102.11,0.5 109.61,8.75 109.86,30.75 84.61,119.5 
			68.11,114.75 75.86,83.75 102.86,29.25 104.36,3.06 "/>
		<path style="&st0;" d="M52.11,94.25"/>
		<polyline style="&st0;" points="141.11,227.75 141.11,229 97.61,229 96.86,228.5 52.11,228.5 52.11,8.5 "/>
		<line style="&st0;" x1="52.11" y1="227" x2="93.36" y2="227"/>
		<polyline style="&st0;" points="104.36,227.25 141.86,227.25 141.86,8.75 109.61,8.75 "/>
		<path style="&st0;" d="M84.61,119.5c0,33.75,11.25,72.25,36.25,86.25c-10.5,5.75-17.51,11.42-16.5,21.5h-2.25"/>
		<path style="&st0;" d="M84.61,119.5c0,37.68,5.17,70.4,26.75,86.25c-7,6.75-9.75,12.25-9.31,21.81h-2
			c-0.95-9.39,0.06-12.56,3.81-21.81C83.61,189.75,84.61,153.25,84.61,119.5"/>
		<path style="&st0;" d="M96.13,227.85L94.61,228c-17.94-11.8-15.11-60.21-10-108.5"/>
		<path style="&st0;" d="M99.86,227.71h-1.5h0c-3.5-4.75-3.75-14.96-0.25-20.46c-11.75-12.75-14.75-18.75-13.5-87.75"/>
		<path style="&st0;" d="M97.76,227.85h-1.62c-5.75-4.75-7.27-12.6-4.52-20.1c-9.8-11.14-9.9-20.88-7-88.25"/>
		<path style="&st0;" d="M109.53,31.67c0,31.67-2.42,118.83-4.92,159.08"/>
		<polyline style="&st0;" points="83.86,85 104.86,30 106.68,5.62 "/>
		<polyline style="&st0;" points="92.11,2.25 92.11,27.25 96.83,37.52 "/>
		<polyline style="&st0;" points="89.11,5 89.11,28.25 94.31,42.54 "/>
		<line style="&st0;" x1="85.11" y1="30.94" x2="91.61" y2="47.91"/>
		<line style="&st0;" x1="94.86" y1="8.06" x2="101.8" y2="8.12"/>
		<line style="&st0;" x1="98.18" y1="8.19" x2="96.95" y2="31.02"/>
		<path style="&st0;" d="M193.36,13.33c0,0-1.17,68.42-1.67,74.17s-2.17,8.17-2.67-0.33s1-75.5,1-75.5
			C190.2,8.17,194.03,10.17,193.36,13.33z"/>
		<path style="&st0;" d="M191.7,87.5c0,4.5,0.33,8-1.83,8c-0.89,0-2.08-0.92-2.33-5.17c-0.5-8.5,0.94-79.79,0.94-79.79
			c0.06-1.31,0.88-1.81,1.5-1.81c0.81,0,3.73-0.9,3.4,4.6"/>
		<path style="&st0;" d="M191.7,87.5c-0.5,5.75-2.17,8.17-2.67-0.33S191.36,13,191.36,13c0.17-3.5,2.67-2.83,2,0.33"/>
		<line style="&st0;" x1="51.86" y1="95.25" x2="4.11" y2="95.25"/>
		<line style="&st0;" x1="52.11" y1="8.5" x2="4.01" y2="8.48"/>
		<path style="&st0;" d="M0.61,13.08c0,0,1.17,68.42,1.67,74.17s2.17,8.17,2.67-0.33s-1-75.5-1-75.5C3.78,7.92-0.05,9.92,0.61,13.08
			z"/>
		<path style="&st0;" d="M2.28,87.25c0,4.5-0.33,8,1.83,8c0.89,0,2.08-0.92,2.33-5.17c0.5-8.5-0.94-79.79-0.94-79.79
			c-0.06-1.31-0.88-1.81-1.5-1.81c-0.73,0-3.73-0.9-3.4,4.6"/>
		<path style="&st0;" d="M2.28,87.25c0.5,5.75,2.17,8.17,2.67-0.33S2.61,12.75,2.61,12.75c-0.17-3.5-2.67-2.83-2,0.33"/>
	</g>
</svg>
