<?xml version="1.0" encoding="iso-8859-1"?>
<!-- Generator: Adobe Illustrator 11 Build 196, SVG Export Plug-In . SVG Version: 6.0.0 Build 78)  -->
<!DOCTYPE svg PUBLIC "-//W3C//DTD SVG 1.0//EN"    "http://www.w3.org/TR/2001/REC-SVG-20010904/DTD/svg10.dtd" [
	<!ENTITY ns_flows "http://ns.adobe.com/Flows/1.0/">
	<!ENTITY ns_svg "http://www.w3.org/2000/svg">
	<!ENTITY ns_xlink "http://www.w3.org/1999/xlink">
]>
<svg  xmlns="&ns_svg;" xmlns:xlink="&ns_xlink;" xmlns:a="http://ns.adobe.com/AdobeSVGViewerExtensions/3.0/"
	 width="194.12" height="161.42" viewBox="0 0 194.12 161.42" style="overflow:visible;enable-background:new 0 0 194.12 161.42"
	 xml:space="preserve">
	<g id="Pfade">
		<path d="M94.17,94.1v67.32h4.51V94.1H94.17z M89.89,90.14h13.07c0.28-0.23,0.36-0.69,0.34-1.06c-0.03-0.48-0.2-0.77-0.3-0.87
			H89.85c-0.1,0.1-0.27,0.39-0.3,0.87C89.52,89.44,89.61,89.91,89.89,90.14z M101.55,91.49H91.3c0.29,1.12,0.77,1.93,2.43,1.93h5.38
			C100.78,93.42,101.26,92.61,101.55,91.49z M60.54,51.28c1.4,0.14,4.78,0.48,5.47,0.55c3.82-8.95,9.16-17.82,15.86-26.4
			c-0.47-0.04-0.74-0.06-0.95-0.07C72.61,33.27,65.78,41.99,60.54,51.28z M39.14,48.11c1.62,0.29,6.68,1.18,7.31,1.29
			c6.19-9,14.23-17.48,23.86-25.25c-1.57-0.24-3.82-0.57-4.19-0.63C55.43,30.09,46.61,38.16,39.14,48.11z M50.47,50.01
			c1.55,0.21,5.51,0.74,6.16,0.83c5.04-9.26,11.64-17.96,19.61-25.91c-0.36-0.04-0.74-0.07-1.03-0.1
			C65.21,32.51,56.92,40.98,50.47,50.01z M28.51,45.78c1.58,0.37,6.04,1.4,6.66,1.55c7.2-9.93,15.7-18.04,25.84-24.77
			c-1.34-0.28-2.82-0.6-3.15-0.67C47.04,27.92,36.94,36.18,28.51,45.78z M18.52,42.94c1.48,0.44,5.48,1.64,6.08,1.82
			c8.1-9.73,17.54-17.83,28.07-24.16c-1.45-0.4-3.3-0.92-3.67-1.02C37.85,25.35,27.61,33.22,18.52,42.94z M133.11,22.55
			c10.15,6.74,18.64,14.85,25.84,24.77c0.62-0.14,5.08-1.18,6.66-1.54c-8.42-9.6-18.53-17.86-29.35-23.9
			C135.93,21.95,134.45,22.27,133.11,22.55z M108.78,53.07c0.9-0.04,4.76-0.22,6-0.27c-2.76-9.31-6.37-17.96-10.72-25.79
			C106.34,36.51,107.88,46.21,108.78,53.07z M99.74,25.96c0,0-0.44,0.01-0.88,0.01c0,1.24,0,26.03,0,27.31
			c1.01-0.02,5.14-0.09,6.25-0.1c-0.96-7.22-2.58-17.48-5.03-27.23C99.92,25.96,99.74,25.96,99.74,25.96z M123.82,24.16
			c9.63,7.77,17.67,16.24,23.86,25.25c0.63-0.11,5.69-1.01,7.31-1.29c-7.48-9.95-16.3-18.02-26.98-24.58
			C127.64,23.58,125.39,23.92,123.82,24.16z M112.26,25.43c6.7,8.58,12.04,17.45,15.86,26.4c0.69-0.07,4.06-0.41,5.47-0.55
			c-5.24-9.29-12.07-18.02-20.37-25.92C113,25.38,112.74,25.4,112.26,25.43z M107.59,25.72c0,0-0.06,0-0.06,0
			c4.42,8.07,8.11,17.09,10.95,26.86c0.78-0.06,4.49-0.33,5.85-0.42c-3.94-8.93-9.45-17.83-16.44-26.46
			C107.73,25.71,107.59,25.72,107.59,25.72z M141.45,20.6c10.53,6.33,19.97,14.43,28.07,24.16c0.6-0.18,4.61-1.38,6.09-1.82
			c-9.09-9.72-19.33-17.59-30.49-23.37C144.76,19.68,142.9,20.2,141.45,20.6z M79.34,52.8c1.24,0.06,5.11,0.23,6.01,0.27
			c0.9-6.85,2.43-16.55,4.71-26.06C85.71,34.83,82.11,43.49,79.34,52.8z M69.81,52.16c1.35,0.1,5.07,0.37,5.84,0.42
			c2.84-9.77,6.52-18.79,10.95-26.86c-0.01,0-0.21-0.01-0.35-0.02C79.26,34.33,73.75,43.22,69.81,52.16z M117.88,24.92
			c7.96,7.96,14.57,16.66,19.61,25.91c0.65-0.09,4.61-0.62,6.16-0.83c-6.45-9.03-14.74-17.5-24.74-25.19
			C118.62,24.85,118.24,24.89,117.88,24.92z M89,53.18c1.11,0.02,5.25,0.09,6.25,0.1c0-1.28,0-26.07,0-27.31
			c-0.43-0.01-1.06-0.02-1.22-0.02C91.59,35.68,89.97,45.95,89,53.18z M152.7,67.04c-2.3,0.35-4.67,0.69-7.09,1.01
			c0.23,0.72,0.45,1.45,0.67,2.18c2.52-0.34,4.97-0.69,7.35-1.06C153.33,68.46,153.02,67.75,152.7,67.04z M140.6,68.7
			c-2.04,0.25-4.11,0.48-6.22,0.71c0.16,0.76,0.3,1.5,0.43,2.22c2.2-0.23,4.36-0.48,6.49-0.74C141.07,70.15,140.84,69.42,140.6,68.7
			z M129.41,69.9c-2.03,0.19-4.07,0.36-6.14,0.52c0.13,0.74,0.25,1.49,0.37,2.23c2.09-0.17,4.16-0.34,6.21-0.54
			C129.72,71.4,129.57,70.66,129.41,69.9z M164.86,65.01c-2.26,0.41-4.63,0.83-7.08,1.23c0.3,0.71,0.59,1.42,0.88,2.13
			c2.54-0.42,4.99-0.85,7.31-1.28C165.61,66.42,165.24,65.72,164.86,65.01z M188.11,59.82c-1.68,0.48-3.78,1.04-6.26,1.64
			c0.42,0.75,0.79,1.44,1.11,2.05c2.58-0.63,4.75-1.21,6.43-1.71C189,61.17,188.56,60.49,188.11,59.82z M176.95,62.58
			c-2.15,0.48-4.49,0.96-6.99,1.46c0.37,0.71,0.73,1.4,1.08,2.08c2.53-0.5,4.87-1,7.03-1.48C177.74,63.98,177.35,63.28,176.95,62.58
			z M75.83,70.78c-0.13,0.74-0.25,1.49-0.37,2.23c2.42,0.16,4.86,0.29,7.32,0.4c0.03-0.71,0.06-1.46,0.11-2.25
			C80.52,71.05,78.16,70.93,75.83,70.78z M118.29,70.78c-2.33,0.15-4.68,0.28-7.05,0.38c0.04,0.79,0.08,1.54,0.11,2.25
			c2.46-0.11,4.9-0.24,7.32-0.4C118.55,72.27,118.43,71.52,118.29,70.78z M64.72,69.9c-0.16,0.76-0.31,1.5-0.44,2.22
			c2.05,0.19,4.12,0.37,6.21,0.54c0.12-0.75,0.24-1.49,0.37-2.23C68.79,70.27,66.74,70.09,64.72,69.9z M17.18,62.58
			c-0.4,0.7-0.79,1.39-1.13,2.05c2.16,0.48,4.51,0.98,7.03,1.48c0.35-0.68,0.71-1.37,1.08-2.08C21.66,63.55,19.33,63.06,17.18,62.58
			z M94.58,71.47c-2.25-0.02-4.5-0.06-6.74-0.12c-0.05,0.8-0.08,1.55-0.11,2.25c2.27,0.07,4.56,0.11,6.85,0.13
			C94.58,73.05,94.58,72.29,94.58,71.47z M106.28,71.34c-2.24,0.07-4.48,0.11-6.73,0.12c0,0.83,0,1.59,0,2.26
			c2.29-0.02,4.57-0.06,6.84-0.13C106.36,72.89,106.32,72.14,106.28,71.34z M6.01,59.82c-0.44,0.68-0.89,1.35-1.28,1.98
			c1.69,0.5,3.85,1.08,6.43,1.71c0.32-0.61,0.69-1.29,1.11-2.05C9.8,60.85,7.7,60.3,6.01,59.82z M53.53,68.7
			c-0.24,0.73-0.47,1.45-0.69,2.18c2.13,0.26,4.29,0.51,6.49,0.74c0.13-0.72,0.27-1.46,0.43-2.22
			C57.64,69.18,55.57,68.94,53.53,68.7z M41.42,67.04c-0.32,0.71-0.63,1.42-0.93,2.14c2.38,0.36,4.84,0.72,7.35,1.06
			c0.21-0.73,0.44-1.46,0.67-2.18C46.09,67.73,43.72,67.39,41.42,67.04z M29.26,65.01c-0.38,0.71-0.75,1.41-1.1,2.08
			c2.33,0.43,4.77,0.86,7.31,1.28c0.29-0.71,0.57-1.43,0.87-2.13C33.89,65.83,31.52,65.42,29.26,65.01z M103.83,12.43V6.76
			c0-3.74-3.03-6.76-6.76-6.76S90.3,3.03,90.3,6.76v5.67H103.83z M105.04,5.43c0.07,0.44,0.13,0.88,0.13,1.34v7.02H88.94V6.76
			c0-0.46,0.06-0.9,0.14-1.34C36.26,9.1,8.38,48.4,0,62.62l1.81,0.62c0.11,0.04,0.25,0.08,0.38,0.12
			c8.45-14.19,35.48-51.7,86.17-55.64c-50.68,9.57-72.62,49.4-76.88,58.16c0.7,0.17,1.43,0.34,2.19,0.51
			c6.48-13.96,30.42-47.51,74.03-56.26C46.2,24.69,31.95,51.85,23.39,68.47c0.76,0.15,1.52,0.3,2.31,0.45
			c8.43-16.33,22.52-42.45,62.51-56.56C61.85,28.53,44.73,47.69,35.98,70.74c0.75,0.12,1.51,0.24,2.28,0.37
			c8.59-22.28,25.24-40.87,50.81-56.64C68.43,30.52,54.53,50.46,48.58,72.6c0.75,0.1,1.5,0.2,2.26,0.3
			c5.89-21.65,19.59-41.16,39.9-56.88C69.67,38.7,62.44,59.45,60.31,73.99c0.75,0.08,1.5,0.15,2.25,0.23
			c2.09-14.13,9.14-34.26,29.55-56.36C81.86,33.15,74.78,52.73,71.47,74.99c0.75,0.06,1.5,0.11,2.25,0.16
			c3.04-20.34,9.27-38.38,18.2-52.85c-5.1,18.61-7.77,43.64-7.86,53.42c0.75,0.03,1.5,0.06,2.25,0.08
			c0.09-10.44,3.44-40.5,9.61-58.93v58.91h2.26V16.88c6.17,18.43,9.52,48.49,9.61,58.93c0.75-0.02,1.51-0.05,2.26-0.08
			c-0.09-9.78-2.75-34.8-7.86-53.42c8.94,14.47,15.16,32.51,18.2,52.85c0.75-0.05,1.5-0.11,2.25-0.16
			c-3.3-22.26-10.39-41.84-20.63-57.13c20.41,22.1,27.46,42.23,29.55,56.36c0.75-0.07,1.5-0.15,2.25-0.23
			c-2.13-14.54-9.37-35.29-30.42-57.97c20.3,15.72,34,35.22,39.89,56.87c0.76-0.1,1.51-0.19,2.26-0.29
			c-5.95-22.15-19.86-42.09-40.48-58.14c25.57,15.76,42.22,34.36,50.81,56.64c0.76-0.12,1.53-0.24,2.28-0.36
			c-8.75-23.05-25.87-42.21-52.22-58.39c39.99,14.11,54.08,40.23,62.51,56.56c0.78-0.15,1.55-0.3,2.31-0.45
			c-8.57-16.62-22.82-43.78-64.3-58.32c43.61,8.75,67.55,42.29,74.03,56.26c0.75-0.17,1.48-0.35,2.19-0.51
			c-4.25-8.77-26.19-48.59-76.88-58.16c50.69,3.94,77.72,41.45,86.17,55.64c0.12-0.04,0.26-0.08,0.37-0.12l1.81-0.62
			C185.74,48.4,157.87,9.1,105.04,5.43z M88.76,74.98c0.56,3.13,1.63,7.91,3.52,11.87h0.07c-1.23-3.21-1.9-8.44-2.23-11.85
			C89.67,75,89.21,74.99,88.76,74.98z M91.49,75.04c0.35,3.53,1.06,8.93,2.32,11.82h0.18c-0.6-2.51-0.92-8.09-1.07-11.79
			C92.44,75.06,91.96,75.04,91.49,75.04z M83.94,77.52c1.59,4.73,3.59,8.01,4.49,9.33h0.82c-1.71-3.59-2.91-6.77-3.72-9.27
			L83.94,77.52z M94.39,77.59c0.21,3.94,0.54,7.81,0.97,9.27h0.38v-9.27H94.39z M86.97,77.63c0.84,2.53,2.06,5.7,3.77,9.22h0.06
			c-1.37-3.04-2.29-6.41-2.89-9.19L86.97,77.63z M106,75.82c0-0.26-0.01-0.57-0.02-0.86c-0.17,0.01-0.34,0.01-0.51,0.02
			c-0.53,3.04-1.57,7.76-3.42,11.88h0.06c1.8-3.7,3.06-7.02,3.9-9.61L106,75.82z M107.31,77.63c-0.82,2.5-2,5.66-3.71,9.23h0.82
			c0.9-1.32,2.88-4.57,4.47-9.28L107.31,77.63z M100,75.07c0,1.59,0,2.51,0,2.51h-0.18c-0.18,3.38-0.47,7.28-0.95,9.27h0.18
			c1.26-2.88,1.97-8.26,2.32-11.79C100.9,75.07,100.45,75.07,100,75.07z M97.1,77.59v9.27h0.38c0.44-1.46,0.77-5.33,0.97-9.27H97.1z
			 M102.72,75.04c-0.33,3.4-1,8.62-2.23,11.82h0.08c1.88-3.95,2.95-8.72,3.51-11.85C103.63,75.02,103.17,75.03,102.72,75.04z"/>
	</g>
</svg>
