<?xml version="1.0" encoding="iso-8859-1"?>
<!-- Generator: Adobe Illustrator 11 Build 196, SVG Export Plug-In . SVG Version: 6.0.0 Build 78)  -->
<!DOCTYPE svg PUBLIC "-//W3C//DTD SVG 1.0//EN"    "http://www.w3.org/TR/2001/REC-SVG-20010904/DTD/svg10.dtd" [
	<!ENTITY ns_flows "http://ns.adobe.com/Flows/1.0/">
	<!ENTITY ns_svg "http://www.w3.org/2000/svg">
	<!ENTITY ns_xlink "http://www.w3.org/1999/xlink">
	<!ENTITY st0 "fill:#FF9900;stroke:#FF1A00;">
]>
<svg  xmlns="&ns_svg;" xmlns:xlink="&ns_xlink;" xmlns:a="http://ns.adobe.com/AdobeSVGViewerExtensions/3.0/"
	 width="126.48" height="126.48" viewBox="0 0 126.48 126.48" style="overflow:visible;enable-background:new 0 0 126.48 126.48"
	 xml:space="preserve">
	<g id="Pfade">
		<path style="&st0;" d="M65.24,53.19l8.05-40.44C74.4,7.2,70.79,1.8,65.24,0.7c-0.66-0.13-1.33-0.2-2-0.2c-0.66,0-1.33,0.06-2,0.2
			c-5.55,1.1-9.16,6.5-8.05,12.05l8.05,40.44c0.65-0.13,1.32-0.2,2-0.2S64.59,53.06,65.24,53.19z"/>
		<circle style="&st0;" cx="63.24" cy="63.24" r="10.25"/> 
		<path style="&st0;" d="M89.26,6.33c-0.56-0.38-1.15-0.7-1.77-0.96c-0.61-0.25-1.25-0.46-1.92-0.59
			c-5.55-1.13-10.96,2.46-12.08,8.01l-8.2,40.41c1.34,0.27,2.59,0.81,3.69,1.55l23.05-34.18C95.19,15.87,93.95,9.5,89.26,6.33z"/>
		<path style="&st0;" d="M109.14,20.71c-0.37-0.56-0.8-1.08-1.27-1.56c-0.46-0.47-0.98-0.9-1.55-1.29
			c-4.69-3.17-11.06-1.94-14.23,2.75L68.98,54.75c1.11,0.75,2.07,1.73,2.81,2.85l34.43-22.7C110.95,31.79,112.25,25.43,109.14,20.71
			z"/>
		<path style="&st0;" d="M121.87,41.37c-0.13-0.66-0.32-1.31-0.58-1.93c-0.25-0.61-0.56-1.21-0.94-1.78
			c-3.13-4.72-9.49-6-14.21-2.88L71.78,57.58c0.73,1.1,1.26,2.36,1.52,3.7l40.47-7.89C119.33,52.3,122.95,46.92,121.87,41.37z"/>
		<path style="&st0;" d="M53.19,61.24l-40.44-8.05C7.2,52.08,1.8,55.69,0.7,61.24c-0.13,0.66-0.2,1.33-0.2,2c0,0.66,0.06,1.33,0.2,2
			c1.1,5.55,6.5,9.16,12.05,8.05l40.44-8.05c-0.13-0.65-0.2-1.32-0.2-2S53.06,61.89,53.19,61.24z"/>
		<path style="&st0;" d="M20.56,34.45c-4.69-3.16-11.06-1.93-14.23,2.77c-0.38,0.56-0.7,1.15-0.96,1.77
			c-0.25,0.61-0.46,1.25-0.59,1.92C3.66,46.46,7.24,51.87,12.79,53l40.4,8.2c0.27-1.34,0.81-2.59,1.55-3.69L20.56,34.45z"/>
		<path style="&st0;" d="M57.6,54.69L34.91,20.26c-3.12-4.73-9.47-6.03-14.2-2.92c-0.56,0.37-1.08,0.8-1.56,1.27
			c-0.47,0.46-0.9,0.98-1.29,1.55c-3.17,4.69-1.94,11.06,2.75,14.23L54.75,57.5C55.51,56.38,56.48,55.43,57.6,54.69z"/>
		<path style="&st0;" d="M53.39,12.71c-1.08-5.56-6.47-9.18-12.02-8.1c-0.66,0.13-1.31,0.32-1.93,0.58
			c-0.61,0.25-1.21,0.56-1.78,0.94c-4.72,3.13-6,9.49-2.88,14.21L57.58,54.7c1.1-0.73,2.36-1.26,3.7-1.52L53.39,12.71z"/>
		<path style="&st0;" d="M73.29,113.73l-8.05-40.44c-0.65,0.13-1.32,0.2-2,0.2c-0.69,0-1.35-0.07-2-0.2l-8.05,40.44
			c-1.1,5.55,2.5,10.95,8.05,12.05c0.66,0.13,1.33,0.2,2,0.2c0.66,0,1.33-0.06,2-0.2C70.79,124.68,74.4,119.28,73.29,113.73z"/>
		<path style="&st0;" d="M34.45,105.92c-3.16,4.69-1.93,11.06,2.77,14.23c0.56,0.38,1.15,0.7,1.77,0.96
			c0.61,0.25,1.25,0.46,1.92,0.59c5.55,1.13,10.96-2.46,12.08-8.01l8.2-40.41c-1.35-0.27-2.59-0.8-3.69-1.55L34.45,105.92z"/>
		<path style="&st0;" d="M54.69,68.88l-34.43,22.7c-4.73,3.12-6.03,9.47-2.92,14.2c0.37,0.56,0.8,1.08,1.27,1.56
			c0.46,0.47,0.98,0.9,1.55,1.29c4.69,3.17,11.06,1.94,14.23-2.75l23.1-34.15C56.38,70.98,55.43,70,54.69,68.88z"/>
		<path style="&st0;" d="M12.71,73.09c-5.56,1.08-9.18,6.47-8.1,12.02c0.13,0.66,0.32,1.31,0.58,1.93c0.25,0.61,0.56,1.21,0.94,1.78
			c3.13,4.72,9.49,6,14.21,2.88L54.7,68.91c-0.73-1.1-1.26-2.36-1.52-3.7L12.71,73.09z"/>
		<path style="&st0;" d="M125.78,61.24c-1.1-5.55-6.5-9.16-12.05-8.05l-40.44,8.05c0.13,0.65,0.2,1.32,0.2,2s-0.07,1.35-0.2,2
			l40.44,8.05c5.55,1.1,10.95-2.5,12.05-8.05c0.13-0.66,0.2-1.33,0.2-2C125.98,62.58,125.92,61.91,125.78,61.24z"/>
		<path style="&st0;" d="M113.69,73.48l-40.41-8.2c-0.27,1.34-0.81,2.59-1.55,3.69l34.18,23.05c4.69,3.16,11.06,1.93,14.23-2.77
			c0.38-0.56,0.7-1.15,0.96-1.77c0.25-0.61,0.46-1.25,0.59-1.92C122.82,80.02,119.24,74.61,113.69,73.48z"/>
		<path style="&st0;" d="M105.88,92.09L71.73,68.98c-0.75,1.11-1.73,2.07-2.85,2.81l22.69,34.43c3.12,4.73,9.47,6.03,14.2,2.92
			c0.56-0.37,1.09-0.8,1.56-1.27c0.47-0.46,0.9-0.98,1.29-1.55C111.79,101.64,110.57,95.26,105.88,92.09z"/>
		<path style="&st0;" d="M91.7,106.14L68.9,71.78c-1.1,0.73-2.36,1.26-3.7,1.52l7.89,40.47c1.08,5.56,6.46,9.18,12.02,8.1
			c0.66-0.13,1.31-0.32,1.93-0.58c0.61-0.25,1.21-0.56,1.78-0.94C93.54,117.22,94.82,110.86,91.7,106.14z"/>
		<path style="&st0;" d="M33.79,18.87c0.05-0.03,0.11-0.05,0.16-0.08c-1.16-2.63-1.13-5.57-0.05-8.12
			c-0.71-0.42-1.52-0.68-2.41-0.68c-2.62,0-4.75,2.13-4.75,4.75c0,0.32,0.03,0.63,0.09,0.93C29.42,15.8,31.93,16.91,33.79,18.87z"/>
		<path style="&st0;" d="M33.79,18.87c0.05-0.03,0.11-0.05,0.16-0.08c-1.16-2.63-1.13-5.57-0.05-8.12
			c-0.71-0.42-1.52-0.68-2.41-0.68c-2.62,0-4.75,2.13-4.75,4.75c0,0.32,0.03,0.63,0.09,0.93C29.42,15.8,31.93,16.91,33.79,18.87z"/>
		<path style="&st0;" d="M52.95,10.99c0.06-0.01,0.12-0.01,0.18-0.02c-0.07-2.88,1.08-5.58,3.05-7.53
			c-0.49-0.66-1.15-1.21-1.97-1.54c-2.42-1-5.2,0.15-6.2,2.58c-0.12,0.29-0.21,0.59-0.27,0.89C50.09,6.48,51.99,8.47,52.95,10.99z"
			/>
		<path style="&st0;" d="M73.55,10.99c0.06,0.02,0.12,0.04,0.17,0.05c1.03-2.69,3.12-4.76,5.68-5.81c-0.21-0.79-0.61-1.55-1.23-2.17
			c-1.86-1.85-4.87-1.83-6.72,0.03c-0.22,0.23-0.42,0.47-0.59,0.73C72.61,5.74,73.61,8.29,73.55,10.99z"/>
		<path style="&st0;" d="M92.94,19.04c0.05,0.04,0.09,0.08,0.14,0.12c1.99-2.08,4.71-3.18,7.48-3.16c0.12-0.81,0.04-1.67-0.3-2.48
			c-1.01-2.42-3.78-3.57-6.21-2.57c-0.29,0.12-0.57,0.27-0.82,0.44C94.11,13.83,94.05,16.57,92.94,19.04z"/>
		<path style="&st0;" d="M107.64,33.84c0.03,0.05,0.05,0.11,0.08,0.16c2.63-1.16,5.57-1.13,8.12-0.04c0.42-0.71,0.68-1.52,0.68-2.4
			c0-2.62-2.12-4.75-4.75-4.76c-0.32,0-0.63,0.03-0.93,0.09C110.72,29.48,109.61,31.99,107.64,33.84z"/>
		<path style="&st0;" d="M115.48,52.89c0.01,0.06,0.01,0.12,0.02,0.18c2.88-0.07,5.58,1.07,7.53,3.04c0.66-0.49,1.2-1.15,1.54-1.97
			c1-2.43-0.16-5.2-2.58-6.2c-0.29-0.12-0.59-0.21-0.89-0.26C119.98,50.03,118,51.92,115.48,52.89z"/>
		<path style="&st0;" d="M115.41,73.95c-0.02,0.06-0.04,0.11-0.05,0.17c2.68,1.05,4.73,3.15,5.76,5.72c0.8-0.2,1.56-0.6,2.18-1.22
			c1.86-1.85,1.87-4.86,0.02-6.72c-0.23-0.22-0.47-0.42-0.72-0.59C120.67,73.05,118.11,74.03,115.41,73.95z"/>
		<path style="&st0;" d="M19.02,33.56c0.04-0.05,0.08-0.09,0.12-0.14c-2.08-1.99-3.18-4.71-3.17-7.48c-0.81-0.12-1.67-0.04-2.48,0.3
			c-2.42,1.01-3.57,3.79-2.57,6.21c0.12,0.29,0.27,0.57,0.44,0.82C13.81,32.4,16.56,32.46,19.02,33.56z"/>
		<path style="&st0;" d="M10.98,52.98c0.02-0.06,0.04-0.12,0.05-0.17c-2.69-1.03-4.76-3.11-5.81-5.67
			c-0.79,0.21-1.55,0.61-2.17,1.23c-1.84,1.87-1.83,4.87,0.04,6.72c0.23,0.22,0.47,0.42,0.73,0.58
			C5.73,53.92,8.28,52.92,10.98,52.98z"/>
		<path style="&st0;" d="M10.99,73.52c-0.01-0.06-0.01-0.12-0.02-0.18c-2.88,0.07-5.58-1.08-7.53-3.05
			c-0.66,0.49-1.2,1.15-1.54,1.96c-1,2.43,0.15,5.2,2.58,6.21c0.29,0.12,0.6,0.21,0.89,0.27C6.48,76.38,8.46,74.49,10.99,73.52z"/>
		<path style="&st0;" d="M18.85,92.65c-0.03-0.05-0.05-0.11-0.08-0.16c-2.63,1.16-5.57,1.13-8.12,0.05
			c-0.42,0.71-0.67,1.52-0.68,2.41c0,2.62,2.12,4.75,4.75,4.75c0.32,0,0.63-0.03,0.93-0.1C15.77,97.02,16.88,94.51,18.85,92.65z"/>
		<path style="&st0;" d="M33.66,107.52c-0.05-0.04-0.09-0.08-0.14-0.12c-1.98,2.08-4.71,3.19-7.47,3.18
			c-0.11,0.81-0.03,1.67,0.3,2.48c1.01,2.42,3.79,3.56,6.22,2.55c0.29-0.12,0.57-0.27,0.82-0.45
			C32.5,112.73,32.56,109.99,33.66,107.52z"/>
		<path style="&st0;" d="M52.69,115.44c-0.06-0.01-0.12-0.04-0.17-0.05c-1.04,2.68-3.14,4.74-5.7,5.78c0.2,0.79,0.6,1.55,1.22,2.18
			c1.86,1.85,4.86,1.86,6.72,0c0.23-0.23,0.42-0.47,0.59-0.72C53.6,120.7,52.61,118.14,52.69,115.44z"/>
		<path style="&st0;" d="M92.71,107.59c-0.05,0.03-0.11,0.05-0.16,0.09c1.16,2.63,1.14,5.57,0.06,8.12
			c0.71,0.42,1.52,0.67,2.41,0.68c2.62,0,4.75-2.13,4.75-4.75c0-0.32-0.03-0.63-0.1-0.93C97.08,110.67,94.57,109.56,92.71,107.59z"
			/>
		<path style="&st0;" d="M107.36,93.06c-0.04,0.05-0.08,0.09-0.12,0.14c2.07,1.99,3.17,4.72,3.14,7.49
			c0.81,0.12,1.67,0.04,2.48-0.29c2.43-1,3.58-3.78,2.58-6.2c-0.12-0.3-0.27-0.57-0.44-0.82C112.57,94.24,109.83,94.17,107.36,93.06
			z"/>
		<path style="&st0;" d="M73.65,115.47c-0.06,0.01-0.12,0.01-0.18,0.02c0.07,2.88-1.06,5.59-3.03,7.54c0.5,0.66,1.15,1.2,1.97,1.54
			c2.43,1,5.21-0.17,6.2-2.59c0.12-0.3,0.21-0.6,0.26-0.9C76.52,119.97,74.62,117.99,73.65,115.47z"/>
	</g>
</svg>
