<?xml version="1.0" encoding="iso-8859-1"?>
<!-- Generator: Adobe Illustrator 11 Build 196, SVG Export Plug-In . SVG Version: 6.0.0 Build 78)  -->
<!DOCTYPE svg PUBLIC "-//W3C//DTD SVG 1.0//EN"    "http://www.w3.org/TR/2001/REC-SVG-20010904/DTD/svg10.dtd" [
	<!ENTITY ns_flows "http://ns.adobe.com/Flows/1.0/">
	<!ENTITY ns_svg "http://www.w3.org/2000/svg">
	<!ENTITY ns_xlink "http://www.w3.org/1999/xlink">
	<!ENTITY st0 "fill:#0A0809;stroke:#FFFFFF;stroke-width:2;">
]>
<svg  xmlns="&ns_svg;" xmlns:xlink="&ns_xlink;" xmlns:a="http://ns.adobe.com/AdobeSVGViewerExtensions/3.0/"
	 width="183.23" height="190.21" viewBox="0 0 183.23 190.21" style="overflow:visible;enable-background:new 0 0 183.23 190.21"
	 xml:space="preserve">
	<g id="Pfade">
		<g>
			<path style="&st0;" d="M91.61,95.11c0,0-19.07-58.68-20.82-64.07C66.12,16.63,75.81,1,91.61,1s25.5,15.63,20.82,30.04
				C110.68,36.43,91.61,95.11,91.61,95.11z"/>
			<path style="&st0;" d="M91.61,95.11c0,0-49.92-36.27-54.5-39.6c-12.25-8.9-13.6-27.25-0.81-36.53
				c12.79-9.29,29.81-2.34,34.5,12.06C72.55,36.43,91.61,95.11,91.61,95.11z"/>
			<path style="&st0;" d="M91.61,95.11c0,0-61.7,0-67.37,0C9.1,95.1-2.77,81.06,2.11,66.03C7,51,24.86,46.61,37.11,55.51
				C41.7,58.84,91.61,95.11,91.61,95.11z"/>
			<path style="&st0;" d="M91.61,95.11c0,0-49.91,36.27-54.5,39.6c-12.25,8.9-30.11,4.51-35-10.52
				c-4.88-15.03,6.99-29.08,22.13-29.08C29.92,95.11,91.61,95.11,91.61,95.11z"/>
			<path style="&st0;" d="M91.61,95.11c0,0,49.92-36.27,54.5-39.6c12.25-8.9,13.6-27.25,0.81-36.53
				c-12.79-9.29-29.81-2.34-34.5,12.06C110.68,36.43,91.61,95.11,91.61,95.11z"/>
			<path style="&st0;" d="M91.61,95.11c0,0,61.7,0,67.37,0c15.14,0,27.01-14.05,22.13-29.08c-4.88-15.03-22.75-19.42-35-10.52
				C141.53,58.84,91.61,95.11,91.61,95.11z"/>
			<path style="&st0;" d="M91.61,95.11c0,0,49.92,36.27,54.5,39.6c12.25,8.9,30.11,4.51,35-10.52c4.88-15.03-6.99-29.08-22.13-29.08
				C153.31,95.11,91.61,95.11,91.61,95.11z"/>
			<path style="&st0;" d="M91.61,95.11c0,0-19.07,58.68-20.82,64.07c-4.68,14.4,5.01,30.04,20.82,30.04s25.5-15.63,20.82-30.04
				C110.68,153.78,91.61,95.11,91.61,95.11z"/>
			<path style="&st0;" d="M91.61,95.11c0,0-49.92,36.27-54.5,39.6c-12.25,8.9-13.6,27.25-0.81,36.54s29.81,2.34,34.5-12.06
				C72.55,153.78,91.61,95.11,91.61,95.11z"/>
			<path style="&st0;" d="M91.61,95.11c0,0,49.92,36.27,54.5,39.6c12.25,8.9,13.6,27.25,0.81,36.54
				c-12.79,9.29-29.81,2.34-34.5-12.06C110.68,153.78,91.61,95.11,91.61,95.11z"/>
		</g>
		<circle style="&st0;" cx="91.61" cy="95.11" r="14.79"/> 
	</g>
</svg>
