<?xml version="1.0" encoding="iso-8859-1"?>
<!-- Generator: Adobe Illustrator 11 Build 196, SVG Export Plug-In . SVG Version: 6.0.0 Build 78)  -->
<!DOCTYPE svg PUBLIC "-//W3C//DTD SVG 1.0//EN"    "http://www.w3.org/TR/2001/REC-SVG-20010904/DTD/svg10.dtd" [
	<!ENTITY ns_flows "http://ns.adobe.com/Flows/1.0/">
	<!ENTITY ns_svg "http://www.w3.org/2000/svg">
	<!ENTITY ns_xlink "http://www.w3.org/1999/xlink">
]>
<svg  xmlns="&ns_svg;" xmlns:xlink="&ns_xlink;" xmlns:a="http://ns.adobe.com/AdobeSVGViewerExtensions/3.0/"
	 width="179.77" height="185.25" viewBox="0 0 179.77 185.25" style="overflow:visible;enable-background:new 0 0 179.77 185.25"
	 xml:space="preserve">
	<g id="Pfade">
		<path d="M129.91,115.51c0,0,41.17-23.1,49.86-51.69c0,0-26.3-16.01-65.19,9.61c0,0-1.83-62.21-24.69-73.42v0c0,0,0,0,0,0
			c0,0,0,0,0,0v0C67.02,11.22,65.19,73.43,65.19,73.43C26.3,47.81,0,63.82,0,63.82c8.69,28.59,49.86,51.69,49.86,51.69
			c-30.42,8.01-39.8,25.62-39.8,25.62c9.83,7.78,43,4.58,43,4.58c-5.72,9.38-3.43,29.28-3.43,29.28
			c8.67-0.23,40.06-21.6,40.25-21.73c0.2,0.13,31.59,21.5,40.25,21.73c0,0,2.29-19.9-3.43-29.28c0,0,33.17,3.2,43-4.58
			C169.71,141.13,160.33,123.52,129.91,115.51z M162.33,138.91c-0.41,0.72-1.33,0.98-2.06,0.57c-0.24-0.14-24.21-13.46-65.91-13.08
			c-0.07,0.3-0.18,0.58-0.3,0.86c4.78,4.08,26.21,22.91,32.89,37.73c0.34,0.76,0,1.65-0.76,2c-0.76,0.34-1.65,0-2-0.76
			c-6.41-14.23-28-33.17-32.25-36.81c-0.62,0.31-1.31,0.48-2.04,0.48c-0.74,0-1.43-0.18-2.05-0.48
			c-4.25,3.64-25.84,22.57-32.26,36.81c-0.34,0.76-1.24,1.1-2,0.76c-0.76-0.34-1.1-1.24-0.76-2c6.68-14.83,28.12-33.66,32.89-37.74
			c-0.13-0.27-0.23-0.56-0.3-0.85c-41.71-0.39-65.68,12.94-65.92,13.08c-0.72,0.41-1.65,0.16-2.06-0.57s-0.16-1.65,0.56-2.06
			c1.01-0.57,24.96-13.93,67.7-13.47c0.06-0.12,0.12-0.25,0.19-0.36C55.73,83.49,13.48,70.2,13.05,70.07c-0.8-0.24-1.25-1.09-1-1.89
			c0.24-0.8,1.09-1.25,1.89-1c0.44,0.13,43.48,13.64,74.24,53.84c0.07-0.03,0.13-0.04,0.2-0.07V9.74c0-0.83,0.68-1.51,1.51-1.51
			c0.83,0,1.51,0.68,1.51,1.51v111.21c0.06,0.03,0.13,0.04,0.19,0.07c30.77-40.21,73.81-53.71,74.24-53.84
			c0.8-0.24,1.64,0.21,1.88,1c0.24,0.8-0.21,1.64-1,1.89c-0.43,0.13-42.68,13.42-72.84,52.94c0.07,0.12,0.13,0.24,0.19,0.37
			c42.73-0.46,66.69,12.89,67.69,13.47C162.49,137.26,162.74,138.18,162.33,138.91z M89.89,185.25c-0.07,0-8.03,0.15-11.44-2.32
			c0,0,5.13-17.71,4.35-21.74c0,0,1.29-3.12,7.08-4.51v0c0,0,0,0,0,0s0,0,0,0l0,0c5.79,1.39,7.08,4.51,7.08,4.51
			c-0.78,4.04,4.35,21.74,4.35,21.74C97.92,185.4,89.96,185.25,89.89,185.25z M87.27,124.91c0-1.45,1.17-2.62,2.62-2.62
			c1.45,0,2.62,1.17,2.62,2.62c0,1.45-1.17,2.62-2.62,2.62C88.44,127.53,87.27,126.35,87.27,124.91z"/>
	</g>
</svg>
