<?xml version="1.0" encoding="iso-8859-1"?>
<!-- Generator: Adobe Illustrator 11 Build 196, SVG Export Plug-In . SVG Version: 6.0.0 Build 78)  -->
<!DOCTYPE svg PUBLIC "-//W3C//DTD SVG 1.0//EN"    "http://www.w3.org/TR/2001/REC-SVG-20010904/DTD/svg10.dtd" [
	<!ENTITY ns_flows "http://ns.adobe.com/Flows/1.0/">
	<!ENTITY ns_svg "http://www.w3.org/2000/svg">
	<!ENTITY ns_xlink "http://www.w3.org/1999/xlink">
	<!ENTITY st0 "fill:none;stroke:#000000;stroke-width:3;stroke-linecap:round;stroke-linejoin:round;">
]>
<svg  xmlns="&ns_svg;" xmlns:xlink="&ns_xlink;" xmlns:a="http://ns.adobe.com/AdobeSVGViewerExtensions/3.0/"
	 width="125.48" height="194.04" viewBox="0 0 125.48 194.04" style="overflow:visible;enable-background:new 0 0 125.48 194.04"
	 xml:space="preserve">
	<g id="Layer_1">
		<path style="&st0;" d="M1.86,131.86c0,33.51,27.17,60.68,60.68,60.68c33.51,0,60.68-27.17,60.68-60.68
			c0-33.51-47.9-58.41-60.68-75.85C49.76,73.46,1.86,98.35,1.86,131.86"/>
		<path style="&st0;" d="M87.59,79.78c-6.38,3.93-15.88,4.06-25.05,4.06c-9,0-17.2-0.12-24.63-3.91"/>
		<path style="&st0;" d="M103.89,94.28c-10.89,6.14-26.16,6.84-41.35,6.84c-15.01,0-28.99-0.7-40.93-6.69"/>
		<path style="&st0;" d="M62.53,1.5c0,11.23-6.28,19.19-10.7,28.78c-4.9,10.63-2.92,25.51,10.7,25.74
			c9.94,0.17,14.27-9.15,12.86-17.99c-1.5-9.44-13.77-9.29-13.77,0.68"/>
		<path style="&st0;" d="M14.64,39.91c0,11.23-6.28,19.19-10.7,28.78c-4.9,10.63-2.92,25.51,10.7,25.74
			c9.94,0.17,14.27-9.15,12.86-17.99c-1.5-9.44-13.77-9.29-13.77,0.68"/>
		<path style="&st0;" d="M110.86,39.76c0,11.24-6.28,19.19-10.7,28.78c-4.9,10.63-2.92,25.51,10.7,25.74
			c9.94,0.17,14.26-9.15,12.86-17.99c-1.5-9.44-13.77-9.29-13.77,0.68"/>
	</g>
</svg>
