<?xml version="1.0" encoding="iso-8859-1"?>
<!-- Generator: Adobe Illustrator 11 Build 196, SVG Export Plug-In . SVG Version: 6.0.0 Build 78)  -->
<!DOCTYPE svg PUBLIC "-//W3C//DTD SVG 1.0//EN"    "http://www.w3.org/TR/2001/REC-SVG-20010904/DTD/svg10.dtd" [
	<!ENTITY ns_flows "http://ns.adobe.com/Flows/1.0/">
	<!ENTITY ns_svg "http://www.w3.org/2000/svg">
	<!ENTITY ns_xlink "http://www.w3.org/1999/xlink">
]>
<svg  xmlns="&ns_svg;" xmlns:xlink="&ns_xlink;" xmlns:a="http://ns.adobe.com/AdobeSVGViewerExtensions/3.0/"
	 width="136.53" height="188.7" viewBox="0 0 136.53 188.7" style="overflow:visible;enable-background:new 0 0 136.53 188.7"
	 xml:space="preserve">
	<g id="Pfade">
		<path d="M0,163.26c0.61,2.46,1.37,4.69,2.25,6.7c0.3-3.68,0.68-7.17,1.05-10.14C1.23,161.98,0,163.26,0,163.26z M20.01,186.85
			c3.31-0.92,8.92-2.52,14.77-4.43c1.09-1.29,2.31-2.72,3.65-4.3c-10.05,3.64-18.91,5.9-22.72,6.8
			C17.18,185.72,18.63,186.35,20.01,186.85z M29.45,188.7c0,0,0.95-1.12,2.55-3c-2.87,0.9-5.56,1.69-7.84,2.35
			C27.31,188.72,29.45,188.7,29.45,188.7z M5.96,157.05c-0.58,4.27-1.31,10.42-1.7,16.8c0.86,1.45,1.79,2.75,2.77,3.93
			c0.48-8.92,1.61-18.36,2.42-24.36C8.18,154.74,7.02,155.95,5.96,157.05z M27.14,172.57c-4.79,0-8.69-3.9-8.69-8.69
			c0-1.99,0.7-3.81,1.84-5.28c0.17-2.55,0.92-11.04,3.42-20.06c-1.35,1.41-2.69,2.81-4.01,4.19c-1.25,5.78-3.87,19.46-3.87,32.66
			c0,0.4,0.01,0.8,0.02,1.2c9.64-1.69,21.34-6.02,34.91-12.97c0.37-0.44,0.75-0.88,1.13-1.33l-17.22,5.87
			C33.16,170.78,30.37,172.57,27.14,172.57z M26.34,155.28c0.54-3.5,2.31-14.47,4.81-24.51c-1.3,1.36-2.61,2.73-3.92,4.1
			c-2.83,8.29-4,17.05-4.45,21.55C23.84,155.79,25.04,155.4,26.34,155.28z M13.62,179.31l-0.04-1.29
			c-0.33-11.94,1.7-24.73,3.15-32.21c-1.6,1.68-3.15,3.28-4.61,4.81c-0.81,5.69-2.47,18.32-2.94,29.51c1.33,1.3,2.72,2.41,4.11,3.34
			l-0.07-0.33c0.14-0.03,13.49-2.87,28.21-8.59c1.75-2.06,3.61-4.25,5.55-6.53c-12.35,5.96-23.13,9.7-32.1,11.08L13.62,179.31z
			 M65.15,128.03c-0.25-0.14-0.5-0.28-0.74-0.43c-4.56,3.98-9.75,6.83-9.98,6.96l-1.98,1.08l0.31-2.24
			c0.56-4.06,3.35-9.81,4.35-11.76c-0.38-0.49-0.73-1-1.07-1.52c-2.08,3.49-6.92,12.13-8.43,19.49
			C50.87,138.36,58.03,135,65.15,128.03z M62.38,126.32c-0.55-0.37-1.1-0.74-1.63-1.12c-0.71-0.51-1.38-1.1-2-1.72
			c-0.87,1.77-2.31,4.9-3.15,7.74C57.38,130.11,59.95,128.37,62.38,126.32z M71.02,130.55c-14.72,15.65-31.13,21.41-31.83,21.65
			l-1.56,0.54l0.05-1.65c0.57-18.31,13.05-34.64,15.44-37.6c-0.41-1.52-0.66-3.02-0.74-4.45c-14.92,18.18-19.1,42.89-19.83,48.1
			c0.46,0.37,0.87,0.78,1.24,1.23c3.43-1.2,15.94-6.62,38.28-27.53C71.72,130.75,71.37,130.65,71.02,130.55z M35.82,163.95
			c0,0.5-0.06,0.98-0.15,1.46l19.09-6.51c1.38-1.62,2.75-3.23,4.12-4.83C48.37,159.24,38.45,162.98,35.82,163.95z M28.94,163.88
			c0,0.99-0.8,1.79-1.79,1.79s-1.79-0.8-1.79-1.79c0-0.99,0.8-1.79,1.79-1.79S28.94,162.89,28.94,163.88z M33.55,163.88
			c0,3.54-2.88,6.41-6.41,6.41c-3.54,0-6.41-2.87-6.41-6.41c0-1.7,0.68-3.24,1.76-4.38l0.03,0c0,0,0-0.03,0-0.04
			c1.17-1.22,2.8-1.99,4.62-1.99C30.68,157.48,33.55,160.35,33.55,163.88z M31.21,163.88c0-2.24-1.83-4.07-4.07-4.07
			c-2.24,0-4.07,1.83-4.07,4.07c0,2.25,1.83,4.07,4.07,4.07C29.39,167.95,31.21,166.13,31.21,163.88z M40.09,149.4
			c4.29-1.76,16.95-7.63,28.56-19.67c-0.46-0.19-0.92-0.38-1.36-0.6c-10.18,10.24-20.45,13.18-20.89,13.3l-1.64,0.45l0.21-1.69
			c1.15-9.18,8.15-20.75,9.79-23.37c-0.28-0.57-0.54-1.14-0.77-1.73C50.56,120.69,41.23,134.41,40.09,149.4z M30.44,155.85
			c0.89-5.74,4.17-22.67,13.34-38.34c-2.82,2.97-6.02,6.32-9.38,9.84c-2.92,10.52-5.1,23.75-5.76,27.98
			C29.26,155.46,29.87,155.62,30.44,155.85z M66.89,119.11c4.35,3.42,8.39,4.91,10.55,3.9c1.1-0.52,1.77-1.77,2.03-3.65
			c-0.35-0.4-0.7-0.81-1.11-1.24l-0.11,0.11l-0.31,0.28l-0.28,0.16c-0.65,0.37-4.09,2.02-8.34-1.95c-1.92-1.79-2.91-3.64-2.93-5.5
			c0-0.02,0-0.03,0-0.05c0-1.15,0.37-1.98,0.72-2.55c-1.18-0.74-2.28-1.33-3.33-1.8c-0.89,1.69-1.29,3.51-1.1,5.32
			C62.96,114.76,64.41,117.17,66.89,119.11z M62.08,123.35c7.29,5.21,13.02,6.7,18.9,4.96c1.64-2.16,1.67-4.17,0.27-6.54
			c-0.57,1.57-1.51,2.68-2.84,3.3c-3.03,1.42-7.74-0.1-12.92-4.17c-2.97-2.33-4.72-5.27-5.06-8.51c-0.23-2.19,0.21-4.39,1.24-6.41
			c-3.4-1.15-5.77-0.9-6.84-0.18C53.94,110.67,56.35,119.26,62.08,123.35z M74.93,131.26c-22.52,21.33-35.43,27.45-39.88,29.08
			c0.19,0.42,0.32,0.85,0.44,1.3c3.67-1.36,15.74-6,27.23-12.1c6.78-7.94,12.74-14.9,15.78-18.38
			C77.28,131.32,76.09,131.35,74.93,131.26z M37.69,47.76l31.46,30.99l19.89-20.71l-7.39-7.1c0,0-8.33,8.68-12.7,13.22
			C64.6,59.88,56.49,51.9,52.18,47.65c5.33-5.41,26.86-27.24,32.39-32.86c5.65,6.06,32.56,34.89,37.78,40.48
			c-6.04,6.17-53.05,54.2-53.05,54.2s-2.17,2.1,1.57,5.59c3.46,3.22,5.75,1.58,5.75,1.58l59.91-61.2L84.77,0L37.69,47.76z"/>
	</g>
</svg>
