<?xml version="1.0" encoding="iso-8859-1"?>
<!-- Generator: Adobe Illustrator 11 Build 196, SVG Export Plug-In . SVG Version: 6.0.0 Build 78)  -->
<!DOCTYPE svg PUBLIC "-//W3C//DTD SVG 1.0//EN"    "http://www.w3.org/TR/2001/REC-SVG-20010904/DTD/svg10.dtd" [
	<!ENTITY ns_flows "http://ns.adobe.com/Flows/1.0/">
	<!ENTITY ns_svg "http://www.w3.org/2000/svg">
	<!ENTITY ns_xlink "http://www.w3.org/1999/xlink">
	<!ENTITY st0 "fill:#BFBFBF;stroke:#000000;">
]>
<svg  xmlns="&ns_svg;" xmlns:xlink="&ns_xlink;" xmlns:a="http://ns.adobe.com/AdobeSVGViewerExtensions/3.0/"
	 width="101" height="101" viewBox="0 0 101 101" style="overflow:visible;enable-background:new 0 0 101 101" xml:space="preserve"
	>
	<g id="Layer_1">
		<g>
			<g>
				<path style="&st0;" d="M41.51,28.39c1.2,2.07,2.34,4.06,3.41,5.91h36.14l-3.41-5.91C75.65,28.39,47.47,28.39,41.51,28.39z"/>
				<path style="&st0;" d="M38.53,65.61h6.83c2.44-4.22,18.07-31.3,18.07-31.3h-6.83C53.97,38.88,38.53,65.61,38.53,65.61z"/>
				<path style="&st0;" d="M50.76,56.42c1,1.73,14.93,25.85,17.85,30.92c1.2-2.08,2.35-4.07,3.41-5.91L54.18,50.51L50.76,56.42z"/>
				<path style="&st0;" d="M41.95,71.52c-2.4,0-4.7,0-6.83,0L18.39,100.5h6.83C29.03,93.89,39.49,75.78,41.95,71.52z"/>
				<path style="&st0;" d="M72.03,93.08c1.7,2.95,3.18,5.5,4.28,7.42h6.83l-7.7-13.33L72.03,93.08z"/>
				<path style="&st0;" d="M20.46,65.61l3.41,5.91c2.06,0,30,0,35.7,0c-1.2-2.08-2.35-4.08-3.42-5.91H20.46z"/>
				<path style="&st0;" d="M29.5,93.08l4.28,7.42h6.83c-2.54-4.39-5.21-9.03-7.7-13.33C31.71,89.25,30.56,91.24,29.5,93.08z"/>
				<path style="&st0;" d="M8.01,55.87c2.54,4.39,18.07,31.3,18.07,31.3l3.42-5.91c-2.54-4.39-18.07-31.3-18.07-31.3L8.01,55.87z"/>
				<path style="&st0;" d="M29.28,19.04l18.07,31.3l3.41-5.91c-1.06-1.84-15.23-26.39-18.07-31.3C31.49,15.2,30.34,17.2,29.28,19.04
					z"/>
				<path style="&st0;" d="M13.64,65.61c-0.88,0-6.53,0-13.14,0v5.91h16.55L13.64,65.61z"/>
				<path style="&st0;" d="M20.46,34.31h-6.83c-0.72,1.25-7.91,13.7-13.14,22.75v8.55c0.64,0,1.28,0,1.89,0L20.46,34.31z"/>
				<path style="&st0;" d="M77.65,71.52c-0.92,1.59-12.21,21.15-16.73,28.98h6.83l16.73-28.98H77.65z"/>
				<path style="&st0;" d="M81.06,65.61h6.83c0.7-1.21,7.44-12.89,12.61-21.84v-9.46c-0.46,0-0.92,0-1.37,0L81.06,65.61z"/>
				<path style="&st0;" d="M23.88,28.4c0.88-1.52,11.55-20.01,16.11-27.9h-6.83L17.05,28.4H23.88z"/>
				<path style="&st0;" d="M38.09,34.31l-3.41-5.91c-6.03,0-4.72,0-34.18,0v2.64l1.89,3.28C7.47,34.31,38.09,34.31,38.09,34.31z"/>
				<path style="&st0;" d="M72.25,7.21L68.37,0.5h-6.83c3.2,5.54,6.15,10.66,7.29,12.62C70.04,11.04,71.19,9.05,72.25,7.21z"/>
				<path style="&st0;" d="M29.3,7.21c-1.51-2.62-2.84-4.92-3.87-6.71H18.6l7.29,12.62L29.3,7.21z"/>
				<path style="&st0;" d="M66.85,28.39L82.95,0.5h-6.83c-3.88,6.72-13.73,23.78-16.1,27.89C62.42,28.39,64.73,28.39,66.85,28.39z"
					/>
				<path style="&st0;" d="M8.01,44.04L0.5,31.03v11.83c1.83,3.17,3.34,5.78,4.1,7.1C5.8,47.88,6.95,45.89,8.01,44.04z"/>
				<path style="&st0;" d="M62.99,65.61l3.41,5.91c4.29,0,27.09,0,34.09,0v-3.55l-1.37-2.36C94.06,65.61,62.99,65.61,62.99,65.61z"
					/>
				<path style="&st0;" d="M87.89,34.31L87.89,34.31c0.86,0,6.23,0,12.61,0v-5.91H84.48L87.89,34.31z"/>
				<path style="&st0;" d="M96.93,49.96c-1.2,2.08-2.35,4.07-3.41,5.91l6.99,12.1V56.14C98.91,53.39,97.61,51.15,96.93,49.96z"/>
				<path style="&st0;" d="M72.25,19.04c2.44,4.22,17.85,30.92,17.85,30.92l3.42-5.91c-2.54-4.39-17.85-30.92-17.85-30.92
					L72.25,19.04z"/>
			</g>
		</g>
	</g>
</svg>
