<?xml version="1.0" encoding="iso-8859-1"?>
<!-- Generator: Adobe Illustrator 11 Build 196, SVG Export Plug-In . SVG Version: 6.0.0 Build 78)  -->
<!DOCTYPE svg PUBLIC "-//W3C//DTD SVG 1.0//EN"    "http://www.w3.org/TR/2001/REC-SVG-20010904/DTD/svg10.dtd" [
	<!ENTITY ns_flows "http://ns.adobe.com/Flows/1.0/">
	<!ENTITY ns_svg "http://www.w3.org/2000/svg">
	<!ENTITY ns_xlink "http://www.w3.org/1999/xlink">
]>
<svg  xmlns="&ns_svg;" xmlns:xlink="&ns_xlink;" xmlns:a="http://ns.adobe.com/AdobeSVGViewerExtensions/3.0/"
	 width="147.17" height="184.26" viewBox="0 0 147.17 184.26" style="overflow:visible;enable-background:new 0 0 147.17 184.26"
	 xml:space="preserve">
	<g id="&#xC9;&#xE5;&#xC9;C&#xC9;&#xD1;&#xC5;_x5B__x5F_2">
		<path d="M18.43,23.75c0.51-2.25,2.13-4.08,4.5-4.81c0.07-0.02,0.9-0.15,1.63-0.27c-0.52-1.83-3.89-13.77-3.89-13.77
			C19.5,2.17,16.37,0.68,14.51,0C14.61,0.63,17.11,15.76,18.43,23.75z M24.01,22.98c-0.97,0.31-1.63,1.2-1.63,2.23
			c0,1.29,1.06,2.34,2.35,2.34c0.1-0.01,0.22-0.02,0.34-0.02l0,0c0,0,14.76-2.46,16.08-2.68c0.06-0.48,0.41-3.28,0.58-4.72
			C27.82,22.38,24.71,22.88,24.01,22.98z M1.75,26.84L1.75,26.84c-1.13,0.18-1.91,1.25-1.73,2.38c0.18,1.13,1.25,1.91,2.38,1.72
			c0,0,9.6-1.54,12.63-2.02c-0.18-1.11-0.5-3-0.68-4.1C12.7,25.09,1.75,26.84,1.75,26.84z M25.11,27.53 M33.62,115.59
			c1.99-0.64,33.33-10.68,35.03-11.22c-0.52-1.73-10.48-34.92-10.84-36.13c-1.03-0.09-5.32-0.44-5.32-0.44
			c-9.24-0.54-14.47-6.11-19.29-20.55c0,0-3.93-12.65-4.97-16c-0.51,0.09-2.49,0.42-2.49,0.42c-0.09,0.01-0.94,0.07-0.94,0.07
			c-2.43,0-4.45-1.34-5.59-3.25C24.68,61.52,33.35,113.95,33.62,115.59z M72.64,103.09c1.74-0.56,30.19-9.67,32.35-10.36
			C97.6,79.5,83.63,71.66,62.35,68.8C63.16,71.47,72.11,101.35,72.64,103.09z M34.31,119.77c0.27,1.6,10.28,62.19,10.66,64.49
			c2.21-0.9,100.75-40.87,102.2-41.46c-1.04-5.26-8.71-38.43-38.25-46.93C108.31,96.06,35.88,119.26,34.31,119.77z"/>
	</g>
</svg>
