<?xml version="1.0" encoding="iso-8859-1"?>
<!-- Generator: Adobe Illustrator 11 Build 196, SVG Export Plug-In . SVG Version: 6.0.0 Build 78)  -->
<!DOCTYPE svg PUBLIC "-//W3C//DTD SVG 1.0//EN"    "http://www.w3.org/TR/2001/REC-SVG-20010904/DTD/svg10.dtd" [
	<!ENTITY ns_flows "http://ns.adobe.com/Flows/1.0/">
	<!ENTITY ns_svg "http://www.w3.org/2000/svg">
	<!ENTITY ns_xlink "http://www.w3.org/1999/xlink">
	<!ENTITY st0 "stroke:#000000;">
]>
<svg  xmlns="&ns_svg;" xmlns:xlink="&ns_xlink;" xmlns:a="http://ns.adobe.com/AdobeSVGViewerExtensions/3.0/"
	 width="237.5" height="118.25" viewBox="0 0 237.5 118.25" style="overflow:visible;enable-background:new 0 0 237.5 118.25"
	 xml:space="preserve">
	<g id="Pfade">
		<g>
			<polygon style="&st0;" points="23.75,4.25 23.75,0.5 13.75,0.5 13.75,4.25 0.5,4.25 0.5,17.75 37,17.75 37,4.25 "/>
		</g>
		<g>
			<polygon style="&st0;" points="48.75,29.25 48.75,25.5 38.75,25.5 38.75,29.25 25.5,29.25 25.5,42.75 62,42.75 62,29.25 "/>
		</g>
		<g>
			<polygon style="&st0;" points="73.75,54.25 73.75,50.5 63.75,50.5 63.75,54.25 50.5,54.25 50.5,67.75 87,67.75 87,54.25 "/>
		</g>
		<g>
			<polygon style="&st0;" points="98.75,79.25 98.75,75.5 88.75,75.5 88.75,79.25 75.5,79.25 75.5,92.75 112,92.75 112,79.25 "/>
		</g>
		<g>
			<polygon style="&st0;" points="123.75,104.25 123.75,100.5 113.75,100.5 113.75,104.25 100.5,104.25 100.5,117.75 137,117.75 
				137,104.25 "/>
		</g>
		<g>
			<polygon style="&st0;" points="213.75,4.25 213.75,0.5 223.75,0.5 223.75,4.25 237,4.25 237,17.75 200.5,17.75 200.5,4.25 "/>
		</g>
		<g>
			<polygon style="&st0;" points="188.75,29.25 188.75,25.5 198.75,25.5 198.75,29.25 212,29.25 212,42.75 175.5,42.75 175.5,29.25 
				"/>
		</g>
		<g>
			<polygon style="&st0;" points="163.75,54.25 163.75,50.5 173.75,50.5 173.75,54.25 187,54.25 187,67.75 150.5,67.75 150.5,54.25 
				"/>
		</g>
		<g>
			<polygon style="&st0;" points="138.75,79.25 138.75,75.5 148.75,75.5 148.75,79.25 162,79.25 162,92.75 125.5,92.75 125.5,79.25 
				"/>
		</g>
	</g>
</svg>
