<?xml version="1.0" encoding="iso-8859-1"?>
<!-- Generator: Adobe Illustrator 11 Build 196, SVG Export Plug-In . SVG Version: 6.0.0 Build 78)  -->
<!DOCTYPE svg PUBLIC "-//W3C//DTD SVG 1.0//EN"    "http://www.w3.org/TR/2001/REC-SVG-20010904/DTD/svg10.dtd" [
	<!ENTITY ns_flows "http://ns.adobe.com/Flows/1.0/">
	<!ENTITY ns_svg "http://www.w3.org/2000/svg">
	<!ENTITY ns_xlink "http://www.w3.org/1999/xlink">
	<!ENTITY st0 "fill:none;stroke:#000000;stroke-linecap:round;stroke-linejoin:round;">
]>
<svg  xmlns="&ns_svg;" xmlns:xlink="&ns_xlink;" xmlns:a="http://ns.adobe.com/AdobeSVGViewerExtensions/3.0/"
	 width="144.75" height="183.25" viewBox="0 0 144.75 183.25" style="overflow:visible;enable-background:new 0 0 144.75 183.25"
	 xml:space="preserve">
	<g id="Pfade">
		<polyline style="&st0;" points="64.25,0.5 0.5,0.5 0.5,24.25 "/>
		<polyline style="&st0;" points="0.5,0.5 29.5,25 29.5,48.75 0.5,24.25 "/>
		<line style="&st0;" x1="84.5" y1="48.75" x2="143.25" y2="48.75"/>
		<line style="&st0;" x1="29.5" y1="48.75" x2="84.5" y2="48.75"/>
		<line style="&st0;" x1="29.5" y1="25" x2="92.25" y2="25"/>
		<polyline style="&st0;" points="84.5,48.75 84.5,36.88 92.5,36.88 "/>
		<line style="&st0;" x1="92.5" y1="25" x2="92.5" y2="36.88"/>
		<polyline style="&st0;" points="143.75,0.5 64.25,0.5 70,5.12 62.53,5.09 66.75,9.25 97.5,9.25 100,5.5 106.5,8.5 111.75,13.75 
			109,17.75 104.22,15.74 74.97,15.74 80,20.38 87.5,20.38 92.25,24.75 144,24.75 "/>
		<polyline style="&st0;" points="144,68.62 64.5,68.62 70.25,73.25 62.78,73.22 67,77.38 97.75,77.38 100.25,73.62 106.75,76.62 
			112,81.88 109.25,85.88 104.47,83.86 75.22,83.86 80.25,88.5 87.75,88.5 92.5,92.88 143.75,92.88 "/>
		<line style="&st0;" x1="85" y1="115.62" x2="85" y2="104.75"/>
		<line style="&st0;" x1="67" y1="99.75" x2="67" y2="77.38"/>
		<line style="&st0;" x1="75.22" y1="106.74" x2="75.22" y2="83.86"/>
		<line style="&st0;" x1="97.75" y1="83.25" x2="97.75" y2="77.38"/>
		<line style="&st0;" x1="100.25" y1="83.25" x2="100.25" y2="73.62"/>
		<line style="&st0;" x1="106.75" y1="84.25" x2="106.75" y2="76.62"/>
		<line style="&st0;" x1="64.5" y1="73" x2="64.5" y2="68.62"/>
		<line style="&st0;" x1="92.5" y1="104.75" x2="92.5" y2="92.88"/>
		<line style="&st0;" x1="87.75" y1="100.38" x2="87.75" y2="88.5"/>
		<line style="&st0;" x1="80.25" y1="100.38" x2="80.25" y2="88.5"/>
		<line style="&st0;" x1="62.78" y1="85.09" x2="62.78" y2="73.22"/>
		<line style="&st0;" x1="57.75" y1="92" x2="57.75" y2="80.12"/>
		<line style="&st0;" x1="87.75" y1="100.38" x2="92.5" y2="104.75"/>
		<line style="&st0;" x1="80.25" y1="100.38" x2="87.75" y2="100.38"/>
		<line style="&st0;" x1="71.5" y1="93.75" x2="75" y2="93.75"/>
		<line style="&st0;" x1="57.75" y1="80.12" x2="62.5" y2="84.5"/>
		<line style="&st0;" x1="80.25" y1="100.38" x2="85" y2="104.75"/>
		<line style="&st0;" x1="57.75" y1="80.12" x2="62.25" y2="80.12"/>
		<line style="&st0;" x1="85" y1="104.75" x2="92.5" y2="104.75"/>
		<line style="&st0;" x1="71.5" y1="99.75" x2="71.5" y2="93.75"/>
		<line style="&st0;" x1="71.5" y1="99.75" x2="75.01" y2="102.99"/>
		<line style="&st0;" x1="71.5" y1="93.75" x2="75.01" y2="96.99"/>
		<line style="&st0;" x1="67" y1="99.75" x2="71.5" y2="99.75"/>
		<line style="&st0;" x1="66.75" y1="99.94" x2="57.52" y2="92"/>
		<line style="&st0;" x1="85" y1="115.62" x2="75.22" y2="106.74"/>
		<line style="&st0;" x1="85" y1="115.62" x2="143.75" y2="115.62"/>
		<line style="&st0;" x1="29.75" y1="136.5" x2="29.75" y2="160.25"/>
		<line style="&st0;" x1="84.75" y1="160.25" x2="143.5" y2="160.25"/>
		<line style="&st0;" x1="57.5" y1="182.75" x2="141.75" y2="182.75"/>
		<line style="&st0;" x1="29.75" y1="160.25" x2="84.75" y2="160.25"/>
		<line style="&st0;" x1="75.33" y1="168.25" x2="83.38" y2="168.25"/>
		<line style="&st0;" x1="64.79" y1="176.75" x2="73.04" y2="176.75"/>
		<line style="&st0;" x1="29.75" y1="136.5" x2="93" y2="136.5"/>
		<polyline style="&st0;" points="2.5,182.75 2.5,159 29.75,136.5 "/>
		<line style="&st0;" x1="2.5" y1="182.75" x2="57.5" y2="182.75"/>
		<polyline style="&st0;" points="84.75,160.25 84.75,148.38 92.75,148.38 "/>
		<line style="&st0;" x1="92.75" y1="136.75" x2="92.75" y2="148.38"/>
		<line style="&st0;" x1="93" y1="136.5" x2="144.25" y2="136.5"/>
		<line style="&st0;" x1="2.5" y1="182.75" x2="29.75" y2="160.25"/>
		<line style="&st0;" x1="73.25" y1="176.76" x2="83.54" y2="168.26"/>
		<line style="&st0;" x1="75.07" y1="168.24" x2="84.75" y2="160.25"/>
		<line style="&st0;" x1="57.5" y1="182.75" x2="64.76" y2="176.76"/>
	</g>
</svg>
