<?xml version="1.0" encoding="iso-8859-1"?>
<!-- Generator: Adobe Illustrator 11 Build 196, SVG Export Plug-In . SVG Version: 6.0.0 Build 78)  -->
<!DOCTYPE svg PUBLIC "-//W3C//DTD SVG 1.0//EN"    "http://www.w3.org/TR/2001/REC-SVG-20010904/DTD/svg10.dtd" [
	<!ENTITY ns_flows "http://ns.adobe.com/Flows/1.0/">
	<!ENTITY ns_svg "http://www.w3.org/2000/svg">
	<!ENTITY ns_xlink "http://www.w3.org/1999/xlink">
]>
<svg  xmlns="&ns_svg;" xmlns:xlink="&ns_xlink;" xmlns:a="http://ns.adobe.com/AdobeSVGViewerExtensions/3.0/"
	 width="210.38" height="166.19" viewBox="0 0 210.38 166.19" style="overflow:visible;enable-background:new 0 0 210.38 166.19"
	 xml:space="preserve">
	<g id="Pfade">
		<path d="M73.35,5.23c0.58,0.6,1.8,1.66,2.13,1.87l0.15,0.09l0.03,0.09l0.21,0.61c0,0.35-0.15,0.7-0.41,0.94
			c-0.27,0.25-0.6,0.35-0.94,0.33c-0.09,0.01-0.23,0.04-0.23,0.04c-0.5,0.08-1.93-1.29-2.66-2.05c-2.15,2.81-3.38,6.28-3.67,10.32
			c3.1-1.32,6.38-2.08,9.76-2.2c3.52-0.12,7.09,0.47,10.36,1.71c3.68-1.54,7-5.46,8.64-7.65c-1.64-0.21-4.21-0.38-7-0.02
			c-0.23,0.22-2.04,1.89-2.04,1.89c-0.54,0.46-1.35,0.4-1.81-0.13c-0.2-0.23-0.31-0.53-0.31-0.84c0-0.38,0.16-0.73,0.44-0.97
			c1.36-1.18,3.78-3.55,5.23-5.5c-4.93,0.29-8.09,2.03-8.61,2.35c-0.06,0.08-0.26,0.32-0.49,0.6c0.39,0.26,0.81,0.47,1.32,0.59
			c0.33,0.08,0.62,0.28,0.8,0.57c0.13,0.21,0.19,0.44,0.19,0.67c0,0.1-0.01,0.2-0.03,0.29c-0.08,0.33-0.28,0.62-0.57,0.8
			c-0.29,0.18-0.63,0.24-0.97,0.16c-0.91-0.21-1.7-0.62-2.41-1.14c-0.22,0.25-0.37,0.41-0.62,0.71c0.38,0.25,0.8,0.45,1.29,0.57
			c0.33,0.08,0.62,0.28,0.8,0.57c0.13,0.21,0.19,0.44,0.19,0.67c0,0.1-0.01,0.2-0.03,0.29c-0.08,0.33-0.28,0.62-0.57,0.8
			c-0.29,0.18-0.63,0.24-0.97,0.16c-2.4-0.55-3.48-2.08-3.6-2.25l-0.03-0.05l-0.05-0.13l0.02,0.04c0.02,0.03-0.08-0.2-0.08-0.2
			c0,0-0.03-0.13-0.04-0.2c0-0.02-0.04-0.28-0.04-0.28l0.05-0.08l0,0l-0.01,0.06c0,0,0.04-0.2,0.04-0.2c0,0,0.11-0.27,0.11-0.27
			c0,0,0.07-0.1,0.09-0.14c0.03-0.04,0.1-0.14,0.1-0.14c0.04-0.04,4.21-4.55,6.88-8.6C79.61,0.9,76.05,2.65,73.35,5.23z
			 M82.68,13.72c-0.27-0.21-0.44-0.51-0.49-0.85c-0.01-0.06-0.01-0.11-0.01-0.17c0-0.28,0.09-0.55,0.27-0.78
			c0.21-0.27,0.51-0.45,0.85-0.49c0.34-0.04,0.68,0.04,0.95,0.25c0.2,0.15,1.94,1.45,3.34,1.96c0.32,0.12,0.58,0.35,0.72,0.66
			c0.15,0.31,0.16,0.66,0.04,0.98c-0.12,0.32-0.35,0.58-0.66,0.73c-0.31,0.15-0.66,0.16-0.98,0.04
			C84.85,15.38,82.77,13.79,82.68,13.72z M97.09,12.99c-0.64,0.74-1.44,1.59-2.33,2.43c0.59-0.03,1.14,0.35,1.3,0.94
			c0.02,0.08,0.25,0.76,0.78,1.6c0.78-0.3,1.55-0.62,2.3-0.95c-1.3-1.25-1.55-2.14-1.59-2.4c-0.01-0.07-0.02-0.14-0.02-0.21
			c0-0.58,0.41-1.1,1.01-1.24c0.66-0.15,1.34,0.27,1.52,0.93c0-0.01,0.27,0.67,1.64,1.74c1.94-1.01,3.47-2.03,4.59-3.05
			C101.18,11.03,97.68,12.67,97.09,12.99z M31.05,17.94c0.43,0.17,0.85,0.36,1.26,0.58c3.02-2.71,5.23-3.56,5.48-3.65
			c0.67-0.23,1.4,0.13,1.63,0.79c0.05,0.14,0.07,0.28,0.07,0.42c0,0.19-0.04,0.38-0.13,0.56c-0.15,0.31-0.41,0.54-0.73,0.65
			c-0.01,0-1.74,0.67-4.18,2.76c0.49,0.43,0.95,0.89,1.39,1.4c2.38-0.89,4.35-2.16,5.94-7.04C38.61,13.72,33.42,13.8,31.05,17.94z
			 M90.98,18.35c0.59,0.32,1.18,0.65,1.74,1.02c0.25-0.08,1.05-0.34,1.65-0.53c-0.55-0.97-0.78-1.73-0.8-1.82
			c-0.03-0.11-0.04-0.22-0.04-0.33c0-0.08,0.05-0.16,0.06-0.24C92.78,17.14,91.9,17.78,90.98,18.35z M77.81,17.84L77.81,17.84
			c-9.42,0.33-17.67,5.83-22.64,15.08c-2.05,3.81-3.82,6.94-5.42,9.59c-6.81,11.27-10.58,13.77-17.44,18.31l-2.59,1.73
			c-4.75,3.2-7.75,8.11-8.45,13.82c-0.94,7.63,2.4,16.09,9.38,23.84c0,0,0.23,0.26,0.23,0.26l0.07,0.34
			c3.55,17.3,14.64,21.24,22.68,22.7l0.79,0.14l0.21,0.78c3.24,11.58,14.55,22.68,32.5,21.39l0.69-0.05l0.42,0.55
			c4.48,5.83,9.84,10.26,16.29,13.48c-7.66-6.54-11.87-11.36-11.91-11.41c-0.2-0.23-0.31-0.52-0.31-0.83c0-0.03,0-0.06,0-0.09
			c0.02-0.34,0.18-0.66,0.44-0.88c0.26-0.22,0.59-0.33,0.93-0.31c0.34,0.03,0.65,0.18,0.88,0.44c0.06,0.07,6.45,7.37,18.02,16.31
			c0.93,0.29,1.89,0.55,2.87,0.8c-12.31-9.52-20.17-17.78-20.25-17.86c-0.23-0.24-0.35-0.55-0.35-0.88c0-0.01,0-0.03,0-0.04
			c0.01-0.34,0.15-0.66,0.41-0.89c0.25-0.23,0.57-0.36,0.91-0.35c0.34,0.01,0.66,0.15,0.9,0.4c0.09,0.1,9.66,10.15,24.29,20.86
			c0.72,0.12,1.45,0.22,2.21,0.32c-14.91-11.1-25.7-21.76-25.8-21.87c-0.25-0.25-0.38-0.58-0.38-0.91c0-0.33,0.12-0.65,0.37-0.9
			c0.24-0.24,0.56-0.38,0.91-0.38c0.34,0,0.67,0.13,0.91,0.38c0.12,0.12,12.35,12.25,29.04,24.2c0.13,0.01,0.94,0.05,1.87,0.11
			c-13.45-9.82-24.47-19.69-28.67-23.56c-0.27-0.25-0.41-0.6-0.41-0.94c0-0.31,0.11-0.62,0.34-0.87c0.23-0.25,0.55-0.4,0.89-0.41
			c0.34-0.01,0.67,0.11,0.92,0.34c4.63,4.27,16.96,15.29,31.54,25.62c0.15,0,0.88,0,1.73,0c-12.61-9.13-23.84-18.67-29.52-23.63
			c-0.26-0.23-0.41-0.54-0.44-0.88c0-0.03,0-0.06,0-0.08c0-0.31,0.11-0.61,0.32-0.84c0.46-0.53,1.28-0.58,1.81-0.12
			c6.17,5.4,18.53,15.88,32.15,25.5c0.16-0.01,0.81-0.03,1.6-0.06c-13.62-9.82-26.24-20.36-32.65-25.86
			c-0.26-0.22-0.42-0.53-0.44-0.87c0-0.03,0-0.07,0-0.1c0-0.31,0.11-0.6,0.31-0.83c0.22-0.26,0.54-0.42,0.88-0.44
			s0.67,0.08,0.93,0.31c6.93,5.94,20.69,17.41,35.1,27.59c0.17-0.01,0.78-0.05,1.54-0.11c-16.12-11.6-31.6-24.53-37.6-29.64
			c-0.3-0.25-0.45-0.62-0.45-0.98c0-0.29,0.1-0.59,0.31-0.83c0.46-0.54,1.27-0.6,1.8-0.15c6.4,5.45,23.08,19.38,39.91,31.28
			c0.17-0.02,0.75-0.07,1.49-0.14c-15.62-11.23-31.18-23.92-39.17-30.58c-0.26-0.22-0.42-0.52-0.46-0.86c0-0.04,0-0.08,0-0.12
			c0-0.3,0.1-0.59,0.3-0.82c0.45-0.54,1.26-0.62,1.8-0.16c8.51,7.09,25.18,20.67,41.4,32.17c0.18-0.02,0.77-0.08,1.51-0.16
			c-17.46-12.55-35.21-26.96-42.13-32.65c-0.26-0.22-0.43-0.52-0.46-0.87c0-0.04-0.01-0.08-0.01-0.13c0-0.3,0.1-0.58,0.29-0.81
			c0.22-0.26,0.52-0.43,0.87-0.46s0.67,0.07,0.94,0.29c7.32,6.03,26.27,21.4,44.32,34.21c0.18-0.02,0.74-0.08,1.45-0.17
			c-18.46-13.27-37.73-28.77-45.26-34.9c-0.31-0.25-0.47-0.62-0.47-1c0-0.29,0.09-0.57,0.29-0.81c0.21-0.26,0.52-0.43,0.86-0.46
			c0.34-0.04,0.68,0.06,0.95,0.28c7.93,6.46,28.4,22.92,47.43,36.46c0.28-0.03,1.27-0.15,1.47-0.17
			c-20.94-15.05-43.23-32.95-49.65-38.14c-0.31-0.25-0.47-0.62-0.47-1c0-0.28,0.09-0.57,0.28-0.8c0.45-0.55,1.26-0.64,1.81-0.19
			c6.75,5.47,30.4,24.46,51.83,39.71c0.18-0.02,0.74-0.08,1.46-0.16c-22.07-15.85-46-34.93-52.9-40.47
			c-0.27-0.21-0.43-0.52-0.47-0.86c-0.01-0.05-0.01-0.1-0.01-0.14c0-0.29,0.1-0.57,0.29-0.8c0.44-0.55,1.25-0.64,1.8-0.19
			c7.24,5.82,32.59,26.02,55.14,42.07c0.18-0.02,0.77-0.07,1.51-0.14c-22.93-16.46-48.28-36.5-55.59-42.32
			c-0.27-0.21-0.44-0.52-0.48-0.86c-0.01-0.05-0.01-0.1-0.01-0.15c0-0.29,0.1-0.57,0.28-0.8c0.21-0.27,0.52-0.44,0.86-0.47
			c0.34-0.04,0.68,0.06,0.94,0.27c7.67,6.11,34.47,27.29,57.94,43.99c0.17-0.01,0.78-0.05,1.55-0.1
			c-23.84-17.09-50.87-38.3-58.68-44.47c-0.32-0.25-0.49-0.63-0.49-1.01c0-0.28,0.09-0.56,0.27-0.79c0.44-0.56,1.25-0.65,1.8-0.21
			c8.17,6.46,36.69,28.85,61.19,46.27c0.16,0,0.82-0.02,1.62-0.04c-25.08-17.95-53.84-40.39-62.16-46.93
			c-0.27-0.21-0.44-0.51-0.48-0.85c-0.01-0.05-0.01-0.11-0.01-0.16c0-0.29,0.1-0.56,0.28-0.79c0.21-0.27,0.51-0.44,0.85-0.48
			c0.34-0.04,0.68,0.05,0.95,0.27c6.16,4.84,38.21,29.9,64.99,48.92c0.15,0.01,0.89,0.03,1.78,0.06
			c-27.28-19.48-59.47-44.5-65.74-49.38c-0.27-0.21-0.44-0.51-0.48-0.85c-0.01-0.05-0.01-0.11-0.01-0.16c0-0.29,0.09-0.56,0.27-0.79
			c0.21-0.27,0.51-0.44,0.85-0.48c0.34-0.04,0.68,0.05,0.95,0.26c4.05,3.17,40.41,31.48,69.09,51.76c0.06,0.01,0.39,0.05,0.67,0.09
			c-26.13-20.88-58.88-45.32-68.44-52.42c-0.34-0.25-0.52-0.64-0.52-1.03c0-0.27,0.08-0.53,0.25-0.76c0.42-0.57,1.23-0.69,1.8-0.27
			c7.26,5.39,44.82,33.38,72.19,55.43c0.63,0.15,1.19,0.3,1.71,0.46c0-0.01-0.15-0.35-0.21-0.5
			c-24.31-19.88-58.74-45.51-72.42-55.61c-0.27-0.2-0.45-0.5-0.5-0.84c-0.01-0.07-0.02-0.13-0.02-0.2c0-0.27,0.09-0.54,0.25-0.76
			c0.2-0.27,0.5-0.45,0.84-0.51c0.34-0.05,0.68,0.03,0.96,0.24c12.83,9.47,44.81,33.28,68.82,52.68c-0.36-0.91-0.67-1.7-0.72-1.82
			c-25.41-20.71-61.93-47.52-68.99-52.69c-0.34-0.25-0.53-0.64-0.53-1.04c0-0.26,0.08-0.53,0.25-0.76c0.2-0.28,0.5-0.46,0.84-0.51
			s0.68,0.03,0.96,0.23c9.37,6.86,41.38,30.42,65.75,50.05c-0.32-0.88-0.59-1.65-0.64-1.78c-21.97-17.88-51.13-39.29-62.66-47.67
			c-0.28-0.2-0.46-0.5-0.51-0.84c-0.01-0.07-0.02-0.13-0.02-0.2c0-0.27,0.08-0.53,0.25-0.75c0.2-0.28,0.5-0.46,0.84-0.51
			c0.34-0.05,0.68,0.03,0.95,0.23c10.82,7.87,37.98,27.81,59.63,45.23c-0.27-0.85-0.51-1.58-0.55-1.71
			c-21.19-17.22-48.82-37.33-59.73-45.19c-0.28-0.2-0.46-0.5-0.52-0.84c-0.01-0.07-0.02-0.14-0.02-0.21c0-0.27,0.08-0.53,0.24-0.75
			c0.2-0.28,0.49-0.46,0.83-0.52c0.34-0.06,0.68,0.02,0.96,0.22c10.28,7.4,36.08,26.18,56.88,42.88c-0.25-0.81-0.46-1.53-0.51-1.68
			c-20.38-16.56-46.6-35.45-56.94-42.81c-0.28-0.19-0.46-0.49-0.52-0.82c-0.01-0.07-0.02-0.15-0.02-0.22c0-0.26,0.08-0.52,0.24-0.74
			c0.41-0.58,1.22-0.71,1.79-0.3c9.7,6.9,34.09,24.47,54.19,40.58c-0.24-0.84-0.45-1.55-0.49-1.69
			c-18.23-14.81-41.13-31.24-53.17-39.73c-0.35-0.25-0.54-0.65-0.54-1.05c0-0.25,0.08-0.51,0.23-0.74c0.41-0.58,1.21-0.72,1.79-0.31
			c11.28,7.95,32.62,23.25,50.46,37.54c-0.24-0.83-0.44-1.52-0.48-1.67c-17.4-14.13-38.88-29.38-50.16-37.23
			c-0.28-0.2-0.47-0.49-0.53-0.83c-0.01-0.08-0.02-0.15-0.02-0.23c0-0.26,0.08-0.51,0.23-0.73c0.2-0.28,0.49-0.47,0.83-0.53
			c0.34-0.06,0.68,0.02,0.96,0.21c10.53,7.33,30.47,21.47,47.43,35.03c-0.15-0.5-0.31-1.03-0.31-1.03s-0.14-0.46-0.2-0.65
			c-16.6-13.47-36.81-27.64-47.39-34.9c-0.28-0.19-0.47-0.49-0.54-0.82c-0.01-0.08-0.02-0.16-0.02-0.24c0-0.26,0.08-0.51,0.22-0.72
			c0.19-0.28,0.48-0.47,0.82-0.54c0.34-0.06,0.68,0.01,0.96,0.2c9.83,6.74,28.47,19.8,44.59,32.64c-0.14-0.45-0.31-0.95-0.31-0.95
			s-0.19-0.58-0.26-0.79c-15.9-12.87-34.88-25.98-44.79-32.66c-0.37-0.25-0.56-0.66-0.56-1.07c0-0.25,0.07-0.49,0.22-0.71
			c0.4-0.59,1.2-0.74,1.78-0.35c9.13,6.15,26.48,18.12,41.84,30.29c-0.23-0.64-0.46-1.3-0.46-1.3s-0.12-0.33-0.18-0.5
			c-16.36-13.17-35.53-26.02-43.02-30.94c-0.37-0.25-0.58-0.66-0.58-1.08c0-0.24,0.07-0.48,0.21-0.7c0.39-0.59,1.19-0.76,1.78-0.37
			c6.84,4.49,24.11,16.06,39.83,28.4c-0.27-0.66-0.56-1.33-0.87-2.02c-15.41-12.27-32.91-23.75-39.73-28.12
			c-0.38-0.25-0.59-0.66-0.59-1.08c0-0.24,0.06-0.47,0.2-0.69c0.38-0.6,1.18-0.77,1.77-0.39c6.04,3.87,21.26,13.84,35.72,24.97
			c-0.46-0.85-0.91-1.66-1.36-2.41c-15.2-11.79-31.49-22.04-36.13-24.9c-0.39-0.24-0.61-0.66-0.61-1.09c0-0.23,0.06-0.46,0.19-0.67
			c0.38-0.6,1.17-0.79,1.77-0.42c3.84,2.37,16.8,10.5,30.22,20.42c-15-19.47-34.89-23.08-35.09-23.11l0,0l-0.85-0.14l-0.19-0.84
			c-1.52-6.57-7.14-18.03-18.57-19.26l-0.98-0.11l-0.15-0.97c-1.14-7.28-3.89-12.29-8.19-14.9c-4.66-2.82-11.05-2.89-19-0.19
			l-0.96,0.32l-0.54-0.85C92.75,20.87,85.43,17.57,77.81,17.84z M28.23,79.92l0.01-0.57c0.17-4.74,2.57-11.61,13.02-17.38
			C51.55,56.3,56.05,45.96,59.33,38.4c0.01-0.02,2.34-5.1,2.34-5.1c3.1-5.91,8.3-9.82,13.91-10.48c4.16-0.49,10.6,0.59,17.77,8.45
			c2.64-0.94,5.27-1.49,7.85-1.63l-0.13,0.02c0.18-0.06,0.38-0.07,0.56-0.04c3.46-0.11,6.55,0.54,9.17,1.94
			c4.63,2.47,7.81,7.12,9.45,13.79c1.81,0.69,3.51,1.43,5.19,2.26c-0.05-0.02,0.19,0.07,0.19,0.07l0.07,0.03
			c0,0,0.02,0.03,0.04,0.05c3.01,1.52,5.46,3.13,7.48,4.93c0.03,0.01,0.17,0.16,0.17,0.16c3.73,3.38,5.89,7.41,6.58,12.29
			c0.87,1.17,1.68,2.44,2.4,3.79l0,0.01l-0.05-0.08l0.22,0.43l-0.04-0.1c0.94,1.8,1.65,3.63,2.12,5.45l0,0l-0.04-0.1l0.14,0.56
			l-0.01-0.11c0.38,1.61,0.58,3.13,0.58,4.52c0,0.83-0.06,1.65-0.19,2.43c-0.11,0.7-0.77,1.18-1.46,1.07
			c-0.34-0.05-0.64-0.24-0.84-0.51c-0.16-0.22-0.25-0.48-0.25-0.75c0-0.07,0-0.14,0.02-0.2c0.1-0.61,0.14-1.25,0.14-1.92
			c0-0.55-0.04-1.12-0.11-1.71c-0.86,0.93-2.43,2.63-2.43,2.63c-0.18,0.2-0.42,0.3-0.67,0.36c0.08,0.02,0.16,0.03,0.24,0.05
			l0.85,0.19l1.29,7.76c0-0.03,0.02,0.21,0.02,0.21c0,0.63-0.45,1.16-1.07,1.26c-0.34,0.06-0.68-0.02-0.96-0.22
			c-0.28-0.2-0.46-0.5-0.52-0.83c0,0-0.79-4.72-1.01-6.03c-5.94-1.23-13.18-1.87-13.25-1.87c-0.01,0-1.08-0.09-1.08-0.09l-0.09-1.07
			c-0.07-0.77-0.71-7.54-1.91-13.6c-5.56-1.75-15.02-1.96-17.4-1.98c-8.36,10.39-16.37,18.7-23.81,24.73
			c0.09,0.51,2.07,11.67,2.21,12.44c0.81-0.03,13.62-0.43,13.62-0.43c0.34-0.01,0.67,0.11,0.92,0.35c0.25,0.23,0.39,0.55,0.4,0.9
			c0.01,0.34-0.11,0.67-0.35,0.92c-0.23,0.25-0.55,0.39-0.89,0.4l-15.84,0.49c0,0-2.4-13.5-2.54-14.29
			c-0.81,0.01-17.55,0.23-17.55,0.23s-1.53-12.23-1.62-12.99c-0.77-0.06-14.84-1.16-14.84-1.16s-0.26-11.39-0.3-12.93
			c-0.53,0.33-1.03,0.64-1.51,0.9c0,0-1.58,0.95-1.63,0.98c0,0.51-0.01,13.12-0.01,14.06C41.83,79.24,57,78.81,57,78.81
			s-0.22,11.43-0.24,12.22c0.79,0.15,16.07,2.94,16.07,2.94s3.48,13.47,3.65,14.15c0.7,0.04,17.01,0.87,17.01,0.87
			c0.68,0.04,1.22,0.6,1.22,1.28l0,0.07c-0.04,0.71-0.64,1.25-1.35,1.21c0,0-18.89-0.97-18.89-0.97S70.92,96.8,70.76,96.2
			c-0.6-0.11-16.6-3.04-16.6-3.04s0.21-10.75,0.22-11.71c-0.98,0.03-16.08,0.46-16.08,0.46S38.3,68.78,38.3,67
			c-4.73,3.61-7.33,7.89-7.5,12.45c-0.01,0.16-0.01,0.32-0.01,0.48c0,5.56,3.5,11.41,9.03,15.01l0.68,0.45l-0.12,0.81
			c-0.2,1.42-0.3,2.79-0.3,4.08c0,5.23,1.59,9.43,4.68,12.3c3.93,3.64,10.14,4.98,16.63,3.58l1.37-0.29l0.18,1.39
			c0.77,6.05,3.38,10.73,7.76,13.92c5.81,4.22,13,4.57,15.58,4.08c0,0,1.03-0.19,1.03-0.19l0.4,0.97c1.42,3.45,5.68,6.29,5.73,6.31
			c0.59,0.39,0.76,1.18,0.38,1.78c-0.38,0.59-1.18,0.76-1.77,0.38c-0.18-0.12-4.26-2.84-6.24-6.63c-4.34,0.48-11.25-0.73-16.59-4.62
			c-4.62-3.35-7.48-8.21-8.54-14.42c-6.87,1.14-13.43-0.47-17.64-4.37l0,0c-2.51-2.33-5.5-6.67-5.5-14.15l0,0
			c0-1.06,0.09-2.3,0.26-3.72C31.89,92.45,28.23,86.1,28.23,79.92z M33.4,86.21l0.76-14.2c0.04-0.71,0.64-1.25,1.35-1.21
			c0.68,0.04,1.22,0.6,1.22,1.28c0,0.04-0.5,9.36-0.62,11.65c0.95,0.03,14.93,0.46,14.93,0.46s0.96,14.4,1.02,15.32
			c0.93-0.05,17.52-0.91,17.52-0.91s3.09,12.59,3.25,13.25c0.69,0.06,21.84,1.86,21.84,1.86s0.51,13.13,0.51,13.15
			c0,0.69-0.54,1.25-1.24,1.28c-0.34,0.01-0.67-0.11-0.92-0.34c-0.1-0.1-0.18-0.21-0.24-0.33c-1.04,0.96-5.38,4.94-5.38,4.94
			c-0.25,0.23-0.58,0.35-0.92,0.34c-0.34-0.01-0.66-0.16-0.89-0.42c-0.22-0.23-0.34-0.54-0.34-0.86c0-0.02,0-0.04,0-0.05
			c0.01-0.34,0.16-0.66,0.42-0.89c0,0,5.82-5.34,6.84-6.29c-0.02-0.42-0.25-6.43-0.29-7.47c-1.39,1.42-12.37,12.61-12.37,12.61
			c-0.5,0.5-1.31,0.51-1.81,0.02c-0.25-0.25-0.38-0.59-0.38-0.92c0-0.32,0.12-0.65,0.36-0.9c0,0,8.88-9.05,11.51-11.72
			c-1.61-0.14-7.44-0.63-7.83-0.67c-0.32,0.32-10.59,10.74-10.59,10.74c-0.5,0.5-1.31,0.51-1.81,0.01
			c-0.25-0.25-0.38-0.58-0.38-0.92c0-0.33,0.12-0.65,0.37-0.9c0,0,6.81-6.91,9.1-9.22c-0.87-0.07-5.62-0.48-6.05-0.51
			c-0.31,0.34-4.87,5.29-4.87,5.29c-0.23,0.25-0.55,0.4-0.89,0.41c-0.34,0.02-0.67-0.11-0.92-0.34c-0.25-0.23-0.4-0.54-0.41-0.89
			c0-0.02,0-0.04,0-0.06c0-0.32,0.12-0.63,0.34-0.87c0,0,4.49-4.88,4.83-5.25c-0.09-0.36-0.5-2.04-0.76-3.07
			c-1.01,1.11-5.4,5.91-5.4,5.91c-0.48,0.52-1.29,0.56-1.81,0.08c-0.28-0.25-0.42-0.6-0.42-0.95c0-0.31,0.11-0.62,0.33-0.87
			c0,0,5.53-6.05,6.56-7.18c-0.11-0.45-1.18-4.82-1.31-5.35c-0.65,0.03-3.46,0.18-3.78,0.2c-0.26,0.26-8.36,8.35-8.36,8.35
			c-0.24,0.24-0.56,0.38-0.91,0.38s-0.67-0.13-0.91-0.38c-0.25-0.25-0.38-0.58-0.38-0.91s0.12-0.66,0.38-0.91
			c0,0,4.4-4.39,6.35-6.34c-2.03,0.11-10.32,0.54-10.32,0.54s-0.17-2.6-0.26-3.91c-0.04,0.07-0.07,0.14-0.13,0.2l-4.6,5.06
			c-0.48,0.52-1.29,0.56-1.81,0.08c-0.25-0.23-0.4-0.54-0.42-0.89c0-0.02,0-0.04,0-0.06c0-0.32,0.12-0.62,0.33-0.86l4.6-5.06
			c0.48-0.52,1.29-0.56,1.81-0.09c0.05,0.04,0.07,0.1,0.12,0.16c-0.23-3.46-0.43-6.43-0.5-7.44c-1.21,1.01-6.33,5.31-6.33,5.31
			c-0.54,0.45-1.35,0.38-1.81-0.16c-0.2-0.24-0.3-0.53-0.3-0.83c0-0.37,0.16-0.73,0.46-0.98c0,0,5.28-4.43,7.24-6.07
			c-1.2-0.04-3.35-0.1-3.63-0.11c-0.28,0.24-5.4,4.68-5.4,4.68c-0.26,0.22-0.59,0.34-0.93,0.31c-0.34-0.02-0.65-0.18-0.88-0.44
			c-0.2-0.23-0.31-0.53-0.31-0.84c0-0.03,0-0.06,0-0.09c0.02-0.34,0.18-0.66,0.44-0.88c0,0,2.04-1.77,3.3-2.86
			C38.85,86.37,33.4,86.21,33.4,86.21z M44.91,109.83L44.91,109.83c-0.51-0.49-0.53-1.31-0.04-1.82l5.06-5.29
			c0.49-0.51,1.3-0.53,1.81-0.04c0.51,0.49,0.53,1.31,0.04,1.82l-5.06,5.29c-0.23,0.25-0.55,0.39-0.9,0.4
			C45.48,110.19,45.16,110.06,44.91,109.83z M88.66,87.22l13.28-13.03l12.83,1.34l-0.28,10.93l-14.34,13.37H89.47L88.66,87.22z
			 M96.91,121.79c-0.25-0.24-0.39-0.56-0.39-0.9l-0.23-15.42c0-0.34,0.13-0.67,0.36-0.91c0.24-0.25,0.56-0.38,0.9-0.39
			c0.34-0.01,0.66,0.12,0.91,0.36c0.25,0.24,0.39,0.56,0.39,0.9c0,0,0.23,15.42,0.23,15.42c0,0.34-0.13,0.67-0.36,0.91
			c-0.24,0.25-0.56,0.38-0.9,0.39C97.48,122.15,97.16,122.02,96.91,121.79z M101.39,71.75c-0.67-0.05-1.19-0.61-1.19-1.28l0-0.09
			c0.06-0.72,0.68-1.25,1.38-1.19c1.22,0.1,11.98,0.95,16.43,1.62c0,0,0.82,0.12,0.82,0.12l0.22,0.8c1.04,3.72,1.26,9.39,1.26,13.49
			l-0.06,3.71c0,0-0.01,0.32-0.01,0.32l-0.01,0.2c0,0-0.58,0.54-1,0.94c2.02-0.06,9.37-0.27,9.37-0.27l1.09-0.03l1.95,10.32
			l-0.56,0.48c-4.95,4.26-10.5,10.84-11.12,11.58c-0.01,0.01-0.35,0.42-0.35,0.42l-9.87,0.85l-0.85-10.22
			c0,0,10.48-9.07,12.28-10.62c-1.64,0.05-4.48,0.13-4.76,0.14c-0.26,0.25-11,10.33-11.32,10.63c0.02,0.43,0.56,11.59,0.61,12.46
			c0.89,0,13.74,0,13.74,0c0.71,0,1.28,0.57,1.28,1.28s-0.58,1.28-1.28,1.28h-16.18l-0.78-16.08c0,0,14.93-14.03,15.23-14.31
			c0-0.36,0.04-3,0.04-3c0-2.95-0.14-8.36-1-12.08C111.91,72.58,101.83,71.78,101.39,71.75z M121.83,86.11
			c0-0.67,0.52-1.23,1.2-1.28c0,0,11.58-0.75,11.58-0.75l0.31,0.94c0.1,0.29,2.38,7.24,1.9,13.16c-0.06,0.7-0.68,1.23-1.38,1.18
			c-0.66-0.05-1.18-0.61-1.18-1.28l0.06-1.59c0-3.84-1.01-7.85-1.55-9.73c-0.74,0.05-9.57,0.62-9.57,0.62
			c-0.34,0.02-0.67-0.09-0.93-0.32c-0.26-0.23-0.41-0.54-0.43-0.88C121.84,86.17,121.83,86.14,121.83,86.11z M96.98,123.85
			c0-0.31,0.11-0.61,0.32-0.84c0.23-0.26,0.54-0.41,0.88-0.43l14.73-0.92c0.34-0.02,0.67,0.09,0.93,0.32
			c0.26,0.23,0.41,0.54,0.43,0.88c0,0.03,0,0.06,0,0.08c0,0.31-0.11,0.61-0.32,0.84c-0.23,0.26-0.54,0.41-0.88,0.43
			c0,0-0.81,0.05-1.35,0.08c0,0.79,0.03,5.07,0.03,5.07c0,0.71-0.57,1.28-1.28,1.29c-0.71,0-1.29-0.57-1.29-1.27
			c0,0-0.02-3.56-0.02-4.93c-0.96,0.06-10.81,0.68-10.81,0.68c-0.34,0.02-0.67-0.09-0.93-0.32s-0.41-0.54-0.43-0.88
			C96.98,123.91,96.98,123.88,96.98,123.85z M93.07,131.91c0-0.11,0.02-0.23,0.05-0.34c0.09-0.33,0.3-0.61,0.6-0.78l4.83-2.76
			c0.61-0.35,1.4-0.14,1.75,0.48c0.17,0.3,0.21,0.64,0.12,0.97c-0.09,0.33-0.3,0.61-0.6,0.78l-4.83,2.76
			c-0.3,0.17-0.65,0.21-0.98,0.12c-0.33-0.09-0.6-0.3-0.77-0.6C93.12,132.35,93.07,132.13,93.07,131.91z M95.45,135.23
			c5.04-0.2,7.35-2.31,7.44-2.4c0.5-0.48,1.31-0.48,1.8,0.02c0.49,0.5,0.49,1.31,0,1.81c-0.12,0.12-2.96,2.89-9.14,3.14
			c-0.34,0.01-0.67-0.11-0.92-0.34c-0.25-0.23-0.4-0.55-0.41-0.89l0,0C94.19,135.86,94.75,135.26,95.45,135.23z M7.05,19.32
			c-0.76,0.41-0.92,1.33-0.92,2.03c0,0,0.01,0.09,0.01,0.18c1.4,0.98,5.63,3.52,11.21,2.94c0.34-0.04,0.67,0.06,0.94,0.28
			c0.27,0.22,0.43,0.52,0.47,0.87c0.07,0.7-0.44,1.33-1.14,1.41c-2.58,0.27-5.18-0.01-7.73-0.82l0.06,0.01
			c-4.18-0.81-5.91,0.05-6.45,0.45c-0.31,0.23-0.51,0.51-0.54,0.74c0.01,0,0.08,0.35,0.63,0.9c0.71,0.71,3.58,2.99,10.54,2.3
			c0,0,1.02-0.1,1.02-0.1l0.32,0.97c0.68,2.04,2.03,2.96,2.77,2.96c2.16,0,3.66,2.17,3.83,2.41c0.19,0.28,0.26,0.62,0.19,0.96
			c-0.07,0.34-0.26,0.63-0.54,0.82c-0.58,0.39-1.38,0.24-1.78-0.35c-0.35-0.52-1.12-1.28-1.7-1.28c-0.28,0-0.57-0.05-0.86-0.12
			c-0.08,0.34-0.15,0.73-0.15,1.2c0,0.77,0.18,1.66,0.8,2.45c1.34,1.72,4.92,3.37,14.38,1.45c0.34-0.07,0.68,0,0.97,0.19
			s0.48,0.48,0.55,0.82c0.07,0.33,0,0.68-0.19,0.96c-0.19,0.29-0.48,0.48-0.81,0.55c-3.05,0.62-5.78,0.91-8.14,0.87
			c0.32,0.64,0.83,1.38,1.68,2.01c1.98,1.47,5.02,1.82,9.04,1.05c0.7-0.13,1.37,0.32,1.5,1.02c0.13,0.69-0.32,1.37-1.02,1.5
			c-1.88,0.36-3.61,0.47-5.2,0.38c0.18,0.49,0.31,0.82,0.41,1.1c0.88,0.06,2.56,0.01,4.14-1.05c0.59-0.39,1.39-0.23,1.78,0.36
			c0.14,0.21,0.22,0.46,0.22,0.71c0,0.08-0.01,0.17-0.03,0.26c-0.07,0.34-0.26,0.63-0.55,0.81c-1.68,1.12-3.41,1.43-4.75,1.48
			c0.26,0.9,0.46,1.75,0.61,2.54c5.44-3.65,8.76-6.3,14.33-15.36c-2.91-2.16-5.17-4.37-6.23-5.46c-1.14,0.66-2.31,1.21-3.5,1.6
			c-0.67,0.22-1.4-0.14-1.62-0.81l0,0c0,0-0.07-0.41-0.07-0.41c0-0.55,0.35-1.04,0.88-1.22c3.57-1.19,8.89-4.7,8.89-9.47
			c0,0-0.01-0.08-0.01-0.16c-8.03-1.54-12.89,3.11-13.09,3.32c-0.26,0.25-0.59,0.37-0.93,0.37c-0.02,0.06-0.01,0.13-0.04,0.19
			c-0.06,0.12-0.16,0.19-0.25,0.29c0.29,0.27,0.53,0.55,0.7,0.89c0.09,0.18,0.14,0.38,0.14,0.57c0,0.47-0.26,0.93-0.71,1.15
			c-0.31,0.15-0.66,0.18-0.98,0.07c-0.32-0.11-0.59-0.34-0.74-0.64c-0.69-1.37-5.55-0.93-8.65-0.1c-0.33,0.09-0.68,0.04-0.97-0.13
			c-0.3-0.17-0.51-0.45-0.6-0.78c-0.03-0.11-0.04-0.22-0.04-0.33c0-0.57,0.38-1.09,0.95-1.24c0.22-0.06,1.32-0.34,2.73-0.56
			c-0.05-0.32-0.08-0.63-0.08-0.92c0-1.38,0.51-2.36,0.9-2.92c-0.98-1.65-1.24-2.96-1.25-3.02c-0.02-0.08-0.02-0.16-0.02-0.24
			c0-0.6,0.42-1.14,1.03-1.26c0.33-0.07,0.67,0,0.96,0.19c0.29,0.19,0.48,0.48,0.55,0.82c0.03,0.16,0.86,3.86,5.25,6.18
			c0.06-0.14,0.15-0.28,0.26-0.39c0.01-0.01,1.72-1.7,4.7-2.99c-4.49-6.81-9.69-5.26-14.73-3.73c-2.47,0.75-4.6,1.4-6.44,0.88
			c0,0-0.27-0.08-0.27-0.08l-0.21-0.18C10.35,19.05,8.07,18.77,7.05,19.32z M36.47,32.06c-0.29-0.18-0.5-0.46-0.59-0.79v0
			c-0.17-0.68,0.25-1.38,0.93-1.55c2.49-0.62,3.37-1.9,3.38-1.91c0.39-0.58,1.18-0.75,1.77-0.37c0.59,0.38,0.76,1.17,0.38,1.76
			c-0.14,0.22-1.45,2.14-4.91,3.01C37.11,32.29,36.76,32.24,36.47,32.06z M75.89,25.37L75.89,25.37c-0.21,0.03-0.42,0.09-0.63,0.12
			c0.03,0.01,0.06,0,0.1,0.01c0.33,0.09,0.61,0.3,0.78,0.6c0.11,0.2,0.17,0.41,0.17,0.63c0,0.11-0.02,0.23-0.05,0.34
			c-0.02,0.06-1.66,6.18-3.86,9.37c-0.4,0.58-1.2,0.73-1.79,0.32c-0.36-0.25-0.55-0.65-0.55-1.06c0-0.25,0.07-0.51,0.23-0.73
			c1.87-2.7,3.43-8.33,3.5-8.57c0.09-0.33,0.3-0.58,0.57-0.75c-4.18,1.04-7.99,4.23-10.39,8.81c0,0-2.28,4.95-2.28,4.95
			c-2.91,6.71-6.91,15.88-15.14,22.15c0.01,0.44,0.26,11.52,0.28,12.3c0.85,0.07,14.62,1.14,14.62,1.14s1.5,11.96,1.6,12.79
			c0.78-0.01,15.54-0.2,15.89-0.21c9.91-7.96,19.34-18.98,25.57-26.93c-0.12-0.42-1.29-4.62-1.29-4.62c0-0.01-0.05-0.17-0.05-0.17
			l0.01,0.06c0,0-2.03-7.29-2.21-7.93c-0.69-0.03-11.49-0.42-11.49-0.42c-0.63-0.02-1.12-0.5-1.2-1.12
			c-0.09,0.21-0.57,1.28-0.57,1.28c-0.14,0.31-0.39,0.55-0.71,0.67c-0.32,0.12-0.67,0.12-0.99-0.02c-0.31-0.14-0.55-0.39-0.68-0.71
			c-0.06-0.15-0.09-0.31-0.09-0.46c0-0.18,0.04-0.35,0.11-0.52c0,0,5.22-11.75,6.09-13.71C86.35,27.41,80.97,24.76,75.89,25.37z
			 M51.62,69.62l0.28-8.87l7.6-8.36h9.62l2.26,8.75l-9.71,10.99L51.62,69.62z M60.89,47.77c-0.56-0.15-0.96-0.66-0.96-1.24
			l0.04-0.33c0.09-0.33,0.3-0.6,0.59-0.78s0.64-0.22,0.97-0.13c0.92,0.24,8.83,2.26,12.1,2.26h1l0.25,0.97
			c0.01,0.06,1.32,5.18,1.6,10.43c0.48-0.61,0.97-1.23,0.97-1.23c0.43-0.56,1.24-0.66,1.8-0.23c0.56,0.44,0.66,1.25,0.23,1.8
			c-0.39,0.5-9.57,12.35-14.92,16.77c-0.26,0.22-0.6,0.32-0.94,0.29c-0.34-0.03-0.65-0.2-0.87-0.46c-0.19-0.23-0.29-0.52-0.29-0.81
			c0-0.04,0-0.08,0.01-0.12c0.03-0.34,0.2-0.65,0.46-0.87c3.07-2.54,7.66-7.88,11.01-11.96c0.01-0.25,0.04-1.25,0.04-1.25
			c0-4.29-0.97-9.03-1.37-10.82C68.5,49.75,61.21,47.86,60.89,47.77z M63.9,41.57c-0.58-0.14-0.98-0.65-0.98-1.25l0.04-0.31
			c0.08-0.33,0.29-0.61,0.58-0.78c0.29-0.18,0.64-0.23,0.97-0.15c0.09,0.02,9.56,2.33,14.05,4.46l0.63,0.29l1.48,10.58
			c0.1,0.7-0.39,1.35-1.09,1.45c-0.34,0.05-0.67-0.04-0.95-0.24c-0.27-0.21-0.45-0.51-0.5-0.85l0,0c0,0-1.21-8.65-1.28-9.17
			C72.43,43.67,63.99,41.59,63.9,41.57z M75.15,39.26L75.15,39.26c-0.27-0.21-0.44-0.52-0.48-0.86c-0.04-0.34,0.05-0.68,0.27-0.94
			c2.28-2.91,5.26-8.96,5.6-9.64c0.16-0.33,0.42-0.56,0.74-0.67c0.32-0.11,0.67-0.09,0.98,0.06c0.31,0.15,0.54,0.41,0.65,0.73
			c0.11,0.32,0.09,0.67-0.06,0.98c-0.03,0.07-3.26,6.77-5.9,10.13C76.51,39.6,75.71,39.7,75.15,39.26z M80.66,41.21
			c-0.01-0.07-0.02-0.13-0.02-0.2c0-0.27,0.09-0.54,0.25-0.76c2.39-3.26,4.41-8.82,4.43-8.88c0.12-0.32,0.35-0.58,0.66-0.73
			c0.31-0.15,0.66-0.16,0.98-0.04c0.66,0.24,1.01,0.97,0.77,1.64c-0.09,0.24-2.15,5.95-4.78,9.53c-0.42,0.57-1.22,0.69-1.79,0.28
			C80.89,41.84,80.71,41.54,80.66,41.21z M82.36,56.25L82.36,56.25c-0.28-0.65,0.02-1.4,0.66-1.69c0.23-0.1,5.59-2.4,12.9-2.64
			c0,0,0.77-0.02,0.77-0.02l0.38,0.66c2.67,4.6,3.82,11.17,3.83,11.24c0.06,0.33-0.01,0.67-0.21,0.95c-0.2,0.28-0.49,0.47-0.83,0.53
			c-0.7,0.12-1.36-0.34-1.49-1.04c-0.01-0.06-1.05-5.63-3.17-9.7c-6.38,0.36-11.11,2.35-11.16,2.37
			C83.4,57.2,82.64,56.9,82.36,56.25z M68.57,74.34l0.55-0.47c0.08-0.07,7.97-6.85,11.52-11.96c0,0,0.32-0.46,0.32-0.46l10.22-1.46
			l1.23-0.18l1.95,10.85L81.08,84.17H70.26L68.57,74.34z M25.29,28.35c0,0.21,0.03,0.44,0.08,0.69c0.51-0.02,0.98-0.02,1.43,0
			c-0.52-0.4-0.98-0.85-1.43-1.32C25.33,27.91,25.29,28.11,25.29,28.35z M102.19,32.13c-0.26,0.43-7.33,11.77-8.13,13.06
			c1.34,0.05,6.82,0.25,7.26,0.27c0.3-0.4,7.65-10.28,7.65-10.28c0.2-0.27,0.5-0.45,0.84-0.5c0.34-0.05,0.68,0.04,0.95,0.24
			s0.45,0.51,0.5,0.85c0.01,0.06,0.01,0.12,0.01,0.19c0,0.27-0.09,0.54-0.26,0.77c0,0-7.4,9.93-7.68,10.31
			c0.11,0.38,1.24,4.42,1.63,5.81c1.04-1.4,7.68-10.3,7.68-10.3c0.21-0.27,0.5-0.45,0.84-0.5c0.34-0.05,0.68,0.04,0.95,0.24
			c0.34,0.25,0.51,0.64,0.51,1.03c0,0.27-0.08,0.54-0.25,0.76c0,0-7.74,10.38-8.87,11.88c0.08,0.28,0.36,1.3,0.61,2.19
			c5.08-6.64,8.19-11.35,8.22-11.4c0.39-0.59,1.19-0.75,1.78-0.37c0.37,0.25,0.58,0.65,0.58,1.07c0,0.24-0.07,0.49-0.21,0.7
			c-0.16,0.24-3.98,5.99-9.84,13.5c-0.01,0.02-0.18,0.23-0.38,0.48c3.8,0.11,11.11,0.51,16.04,2.02c0.38-0.48,7.48-9.56,8.04-10.27
			c-1.47-1.2-3.19-2.32-5.21-3.4c-1.63,2.74-5.26,8.54-8.61,11.71c-0.52,0.48-1.33,0.46-1.81-0.05c-0.23-0.25-0.35-0.56-0.35-0.88
			c0-0.34,0.13-0.68,0.4-0.93c3.09-2.92,6.68-8.68,8.06-10.98c-1.42-0.66-2.89-1.28-4.4-1.84c0,0-0.65-0.24-0.65-0.24l-0.15-0.68
			c-1.41-6.26-4.22-10.56-8.35-12.76C107.45,32.67,104.95,32.11,102.19,32.13z M93.92,33.75c-0.14,0.32-3.65,8.21-5.12,11.53
			c0.22-0.16,0.48-0.26,0.77-0.25c0,0,1.02,0.04,1.54,0.06C91.38,44.64,98,34,98.99,32.43C96.95,32.75,95.17,33.29,93.92,33.75z
			 M60.63,54.95c-0.28,0.31-5.99,6.59-6.2,6.82c-0.01,0.33-0.16,5.17-0.18,5.86c0.56,0.14,6.01,1.5,6.53,1.63
			c0.37-0.42,7.45-8.43,7.78-8.8c-0.11-0.44-1.26-4.88-1.42-5.51C66.45,54.95,61.02,54.95,60.63,54.95z M57.47,65.07
			c-0.34-0.02-0.66-0.17-0.89-0.42l0,0c-0.23-0.26-0.34-0.59-0.33-0.93c0.02-0.34,0.17-0.66,0.43-0.88l6.67-5.98
			c0.25-0.23,0.58-0.34,0.92-0.33c0.34,0.02,0.66,0.17,0.89,0.42c0.47,0.53,0.43,1.34-0.1,1.81l-6.67,5.98
			C58.14,64.97,57.81,65.09,57.47,65.07z M124.49,65.96c0.2,1.02,0.4,2.14,0.6,3.32c1.16-1.31,7.2-8.18,7.2-8.18
			c0.47-0.53,1.28-0.58,1.81-0.12c0.26,0.23,0.41,0.54,0.43,0.88c0,0.03,0,0.05,0,0.08c0,0.31-0.11,0.61-0.32,0.85
			c0,0-8.33,9.46-8.62,9.79c0.04,0.35,0.4,3.26,0.57,4.63c1.27-1.36,10.9-11.64,11.23-11.99c-0.58-3.72-2.17-6.86-4.82-9.59
			C131.9,56.49,124.75,65.63,124.49,65.96z M82.4,63.84c-3.35,4.61-9.41,10.05-11.06,11.49c0.08,0.47,0.97,5.64,1.08,6.28
			c0.74,0,7.21,0,7.59,0c0.28-0.29,11.24-11.45,11.58-11.8c-0.08-0.42-1.14-6.33-1.28-7.1C89.5,62.82,82.74,63.79,82.4,63.84z
			 M73.75,78.8c0-0.01,0-0.03,0-0.04c0-0.33,0.13-0.66,0.36-0.9L84.67,66.6c0.45-0.52,1.24-0.57,1.79-0.1
			c0.26,0.23,0.41,0.54,0.43,0.88c0.02,0.35-0.09,0.68-0.32,0.94c-0.01,0.01-10.62,11.31-10.62,11.31c-0.23,0.25-0.54,0.39-0.87,0.4
			c-0.34,0.01-0.67-0.11-0.93-0.35C73.9,79.46,73.76,79.14,73.75,78.8z M127.89,79.12c1.06,0.12,2.58,0.3,2.93,0.34
			c0.32-0.36,8.47-9.49,8.92-10c-0.34-0.59-0.72-1.19-1.13-1.79C137.86,68.48,129.05,77.89,127.89,79.12z M133.88,79.89
			c1.67,0.25,3.21,0.52,4.59,0.8c-0.04-0.03-0.08-0.04-0.12-0.07c-0.25-0.23-0.4-0.55-0.41-0.89c0-0.02,0-0.04,0-0.05
			c0-0.32,0.12-0.63,0.34-0.87c0,0,3.35-3.63,3.7-4.01c-0.27-0.94-0.62-1.89-1.03-2.84C140.11,72.9,134.86,78.79,133.88,79.89z
			 M91.3,88.23c0.03,0.41,0.53,8.24,0.58,9.03c0.81,0,6.91,0,7.27,0c0.28-0.26,12.52-11.67,12.82-11.95
			c0.01-0.38,0.17-6.76,0.18-7.48c-0.63-0.07-8.83-0.92-9.27-0.96C102.55,77.18,91.61,87.92,91.3,88.23z M94.83,94.17L94.83,94.17
			c-0.5-0.5-0.51-1.31-0.02-1.82l12.89-13.12c0.24-0.24,0.56-0.38,0.9-0.38c0.34,0,0.67,0.13,0.91,0.37c0.5,0.5,0.51,1.31,0.01,1.81
			L96.65,94.15c-0.24,0.24-0.56,0.38-0.9,0.38C95.4,94.54,95.08,94.41,94.83,94.17z M16.64,84.95c0.16,1.33,0.6,3.35,1.95,4.95
			c0.2,0.23,0.3,0.52,0.3,0.82c0,0.04,0,0.08,0,0.12c-0.03,0.34-0.19,0.65-0.45,0.87c-0.26,0.22-0.59,0.32-0.94,0.29
			s-0.65-0.19-0.87-0.45c-1.75-2.09-2.34-4.66-2.54-6.28c-0.46,0.08-0.91,0.16-1.37,0.24c0.23,0.95,0.68,2.31,1.59,3.34
			c0.22,0.24,0.32,0.55,0.32,0.85c0,0.35-0.15,0.71-0.43,0.96c-0.26,0.23-0.58,0.34-0.93,0.32c-0.34-0.02-0.66-0.17-0.88-0.43
			c-1.22-1.38-1.83-3.06-2.16-4.4c-0.63,0.2-1.24,0.41-1.83,0.66c0.24,0.56,0.66,1.25,1.42,1.92c0.29,0.26,0.43,0.61,0.43,0.96
			c0,0.3-0.11,0.61-0.32,0.85c-0.47,0.53-1.28,0.58-1.81,0.12c-0.89-0.79-1.56-1.71-2.01-2.72C3.07,89.78,1.06,92.44,0,96.04
			c2.97-2.17,7.6-5.38,12.19-5.15c0.71,0.04,1.25,0.64,1.22,1.35c-0.04,0.71-0.64,1.25-1.35,1.22c-1.49-0.08-3.17,0.35-5.13,1.29
			c-0.45,1.07-1.97,5.09-2.6,10.92c3.62-4.12,8.72-11.33,9.34-12.22c0.2-0.29,0.5-0.48,0.84-0.54s0.68,0.02,0.96,0.21
			c0.1,0.07,0.16,0.16,0.24,0.25c0.15-0.53,0.61-0.92,1.19-0.93c0.69-0.01,1.28,0.54,1.31,1.24c0,0.03,0.07,0.89,1.36,1.53
			c0.63,0.32,0.89,1.09,0.57,1.72c-0.32,0.63-1.09,0.89-1.72,0.57c-1.63-0.82-2.3-1.96-2.58-2.78c-0.03,0.06-0.02,0.13-0.06,0.18
			c0,0-0.33,0.46-0.54,0.76c0.25,0.48,0.79,1.17,1.97,1.71c0.31,0.14,0.55,0.4,0.67,0.72c0.06,0.15,0.08,0.3,0.08,0.45
			c0,0.18-0.04,0.36-0.12,0.53c-0.14,0.31-0.39,0.55-0.72,0.67s-0.67,0.11-0.98-0.03c-1.02-0.46-1.85-1.09-2.49-1.85
			c-0.42,0.58-1.05,1.43-1.15,1.58c-0.08,0.73-0.28,2.83-0.28,5.58c0,2,0.18,4.28,0.51,6.57c1.73-3.63,4.01-8.34,6.33-11.43
			c0,0,1.05-1.39,1.05-1.39l1.02,1.41c0.03,0.04,3.31,4.41,8.23,4.77c-0.34-1.15-0.62-2.21-0.85-3.26
			c-4.89-5.49-8.01-11.17-9.3-16.87C18.31,84.83,17.45,84.88,16.64,84.95z M18.99,91.98c-0.01-0.08-0.02-0.15-0.02-0.23
			c0-0.62,0.44-1.16,1.06-1.27c0.33-0.06,0.67,0.01,0.95,0.21c0.28,0.2,0.47,0.49,0.53,0.83c0.01,0.07,0.33,1.72,1.38,3.15
			c0.2,0.28,0.29,0.62,0.23,0.95c-0.05,0.34-0.23,0.64-0.51,0.84c-0.28,0.2-0.62,0.28-0.95,0.23c-0.34-0.05-0.64-0.23-0.84-0.51
			C19.49,94.36,19.06,92.37,18.99,91.98z M125.23,92.79c-0.26,0.22-13.3,11.5-13.67,11.82c0.04,0.45,0.47,5.68,0.53,6.35
			c0.6-0.05,5.87-0.5,6.25-0.53c0.99-1.17,5.9-6.88,10.52-10.97c-0.09-0.48-1.14-6.01-1.27-6.73
			C127.42,92.73,125.53,92.78,125.23,92.79z M113.61,107.86L113.61,107.86c-0.57-0.42-0.69-1.23-0.27-1.79
			c0.57-0.76,5.68-7.48,11.45-10.71c0.62-0.34,1.4-0.12,1.75,0.49c0.17,0.3,0.21,0.65,0.12,0.98c-0.09,0.33-0.31,0.6-0.61,0.77
			c-5.44,3.05-10.59,9.93-10.64,10C114.98,108.16,114.17,108.28,113.61,107.86z M21.19,106.38c0,1.43,0.28,3.11,0.78,4.81
			c1.06-1.66,2.1-3.74,2.67-4.94c-1.34-0.66-2.46-1.45-3.28-2.16C21.26,104.84,21.19,105.6,21.19,106.38z"/>
	</g>
</svg>
