<?xml version="1.0" encoding="iso-8859-1"?>
<!-- Generator: Adobe Illustrator 11 Build 196, SVG Export Plug-In . SVG Version: 6.0.0 Build 78)  -->
<!DOCTYPE svg PUBLIC "-//W3C//DTD SVG 1.0//EN"    "http://www.w3.org/TR/2001/REC-SVG-20010904/DTD/svg10.dtd" [
	<!ENTITY ns_flows "http://ns.adobe.com/Flows/1.0/">
	<!ENTITY ns_svg "http://www.w3.org/2000/svg">
	<!ENTITY ns_xlink "http://www.w3.org/1999/xlink">
	<!ENTITY st0 "fill:none;">
]>
<svg  xmlns="&ns_svg;" xmlns:xlink="&ns_xlink;" xmlns:a="http://ns.adobe.com/AdobeSVGViewerExtensions/3.0/"
	 width="187.95" height="173.56" viewBox="0 0 187.95 173.56" style="overflow:visible;enable-background:new 0 0 187.95 173.56"
	 xml:space="preserve">
	<g id="Pfade">
		<g>
			<circle style="&st0;" cx="65.86" cy="43.33" r="2.41"/> 
			<circle style="&st0;" cx="122.09" cy="43.33" r="2.41"/> 
			<path d="M50.63,170.33c-1.95-3.12-5.08-6.05-6.93-6.74c2.93-2.54,3.51-8.88,2.25-11.91c4.71-0.08,8.76-2.06,12.04-5.28
				c-1.31-0.77-2.6-1.71-3.83-2.83c-3.44,3.18-6.48,5.18-11.23,5.18c-2.54,0-4,1.07-2.83,4.1s0.44,6.33-0.05,8.58
				s0.24,2.94,1.02,3.82c0.78,0.88,3.12,3.42,4.39,7.52c2.15,0,8.1-0.29,10.25,0.59c2.15,0.88,5.86-1.17,6.25-3.81
				C59.03,170.23,55.12,171.4,50.63,170.33z"/>
			<path d="M39.83,34.13c0.08-0.26,0.15-0.54,0.22-0.81c-0.9-0.29-1.78-0.6-2.59-0.94c-5.28-2.22-8.57-5.42-9.28-9
				c-0.19-0.98-0.16-2.02,0.04-3.09c-0.27,0.12-0.55,0.24-0.81,0.36C26.23,29.61,35.23,33,39.83,34.13z"/>
			<path d="M65.2,48.59v8.33c0.45,0.07,0.89,0.13,1.33,0.21v-8.54c-0.22,0.03-0.44,0.07-0.66,0.07
				C65.63,48.66,65.42,48.62,65.2,48.59z"/>
			<path d="M37.97,31.15c10.33,4.35,28.02,4.34,42-3.43c-10.49,0.73-32.53,1.35-34.46-6c-0.13-0.51-0.2-1.02-0.2-1.53
				c0-1.33,0.45-2.68,1.35-4.01C51.47,9.05,69.01,3.07,82.15,0.7c-21.68-2.94-39.6,3.8-48.1,12.35c-3.48,3.49-5.14,7.17-4.57,10.08
				C30.1,26.26,33.11,29.11,37.97,31.15z"/>
			<path d="M26.36,44.79c6.02,0.14,10.75-3.33,13.04-9.4c-1.54-0.38-2.97-0.85-4.26-1.4l-1.34,3.76c-0.12,0.35-0.51,0.56-0.86,0.44
				c-0.35-0.12-0.54-0.47-0.41-0.81l1.4-3.95c-1.75-0.87-3.22-1.9-4.42-3.08c-0.73,0.71-2.15,2.18-2.68,3.3
				c-0.16,0.33-0.55,0.47-0.88,0.32c-0.33-0.16-0.47-0.55-0.32-0.88c0.63-1.33,2.21-2.96,2.98-3.72c-0.97-1.17-1.69-2.46-2.13-3.85
				c-0.78,0.24-2.17,0.73-3.15,1.53c-0.28,0.23-0.7,0.19-0.93-0.1c-0.23-0.28-0.19-0.7,0.1-0.93c1.19-0.97,2.8-1.53,3.66-1.79
				c-0.17-0.93-0.23-1.9-0.16-2.9c-8.68,4.31-13.06,9.57-12.09,14.73C14.8,40.81,20.27,44.65,26.36,44.79z"/>
			<path d="M25.94,48.7c-0.02,0-0.04,0-0.06,0c0.01,0,0.01,0,0.02,0C25.91,48.71,25.92,48.7,25.94,48.7z"/>
			<path d="M14.69,59.11c4.92,1.79,10.09,0.92,13.84-2.33l0.01-0.01c0.04-0.03,3.23-2.79,3.67-9.03c-1.87,0.57-3.78,0.89-5.65,0.95
				l-0.25,4c-0.02,0.37-0.34,0.69-0.71,0.66c-0.37-0.02-0.65-0.3-0.62-0.66l0.25-3.98c-1.85-0.05-3.62-0.36-5.27-0.91
				c-0.49,1.16-1.61,3.87-1.97,5.26c-0.09,0.35-0.46,0.57-0.81,0.47c-0.35-0.09-0.57-0.46-0.47-0.81c0.39-1.47,1.51-4.19,2.02-5.39
				c-0.33-0.14-0.66-0.27-0.97-0.43c-1.14-0.59-2.15-1.32-3.06-2.17c-0.62,0.58-1.76,1.68-2.33,2.64c-0.19,0.31-0.6,0.42-0.91,0.23
				c-0.31-0.19-0.42-0.6-0.23-0.91c0.65-1.09,1.86-2.28,2.54-2.91c-1.28-1.45-2.29-3.2-3-5.25c-4.49,4.42-5.04,8.44-4.61,11.17
				C6.8,53.82,10.07,57.43,14.69,59.11z"/>
			<path d="M2.6,113.19c1.3-2.47,1.95-8.46,1.95-8.46s7.54-1.56,12.76-5.21c-0.25,1.84,3.31,6.66,14.19,9.82
				c-1.47-3.28-2.72-6.54-3.62-9.7c-2.47-1.6-5.46-3.66-6.67-4.94c-2.21-2.34-3.26-1.56-4.95-0.65c-1.69,0.91-10.02,4.81-11.98,5.86
				c-1.95,1.04-4.3,0.52-4.3,4.55c0,4.04,0,8.72,0,10.54c0,1.82,0.91,3.78,1.56,4.95c0.65,1.17,1.04,1.82,1.04,1.82l2.73-2.47
				C5.34,119.3,2.99,115.14,2.6,113.19z"/>
			<path d="M22,119.17c0.13-0.59,0.97-0.52,0.91,0.32c0.07,2.47,1.35,3.12,2.99,4.1c2.52,1.49,7.89,3.65,15.56,3.6
				c-1.34-2.05-2.69-4.2-3.99-6.42c-3.47-0.82-9.06-2.27-13.52-4.02c-1.5-0.59-4.03-2.02-5.6,0.39c-1.56,2.41-5.66,8.72-12.24,11.07
				c-2.73,0.98-3.12,2.08-2.08,3.71c1.04,1.63,3.12,3.58,2.86,7.35c0,0,1.76,1.82,2.08,4.62c0,0,5.07-2.08,1.24-7.09
				c0,0-0.19-3.12-0.72-4.23C13.28,131.54,21.35,126.85,22,119.17z"/>
			<path d="M45.75,133.42c-5.06,0.95-8.37,1.31-13.08,0.59c-2.54-0.39-3.42,0.1-4.78,1.37c-1.37,1.27-5.17,3.61-6.64,4.49
				s-2.15,1.07-1.66,3.71c0.49,2.64,0.88,7.13,0.88,8.88s0.78,3.81,3.42,5.66c0.68-1.76,0.68-4.2-0.78-5.95
				c0.49-3.12,0.2-7.91,0.2-7.91s6.54-0.78,9.86-7.03c1.86,1.33,9.04,1.77,15.4-0.07C47.66,136.01,46.71,134.76,45.75,133.42z"/>
			<path d="M28.87,58.18c-4.07,3.22-9.48,4.06-14.64,2.18c-2.74-1-5.02-2.64-6.68-4.64c-0.17,0.64-0.31,1.27-0.42,1.9
				c3.31,3.35,7.61,5.18,12.17,5.12c3.92-0.05,7.53-1.52,10.04-4.03C29.16,58.5,29,58.32,28.87,58.18z"/>
			<path d="M8.86,69.01c3.1,5.78,9.48,10.16,18.43,12.69c1.47-6.36,4.53-11.35,8.38-15.15c-1.88-2.61-4.01-5.15-5.46-6.84
				c-2.75,2.72-6.67,4.31-10.9,4.36c-4.6,0.06-8.94-1.66-12.4-4.82C6.61,62.69,7.25,66,8.86,69.01z"/>
			<path d="M18.35,45.72c4.51,2.34,10.04,1.87,13.9,0.63c0-0.41-0.02-0.84-0.04-1.27c-1.79,0.72-3.76,1.09-5.88,1.04
				c-6.49-0.15-12.34-4.21-13.61-9.32c-0.31,0.25-0.61,0.5-0.9,0.75C13,41.32,15.19,44.08,18.35,45.72z"/>
			<path d="M47.76,16.92c-1.04,1.54-1.36,3-0.97,4.46c1.47,5.59,19.58,6.13,35.1,4.87c0.09-0.42,0.16-0.99,0.15-1.57
				c-20.09,1.66-32.93-0.55-33.76-3.69c-0.27-1.01-0.02-2.05,0.76-3.2C53.2,11.62,71.41,5.08,85.56,3.04
				c0.06-0.33,0.1-0.68,0.14-1.04l0.08-0.56C72.75,3.25,52.79,9.47,47.76,16.92z"/>
			<path d="M34.56,33.73c-0.04-0.02-0.08-0.04-0.13-0.06c0.03,0.02,0.05,0.04,0.09,0.05C34.54,33.72,34.55,33.72,34.56,33.73z"/>
			<path d="M161.62,46.12c-2.12,0.05-4.09-0.32-5.88-1.04c-0.02,0.43-0.04,0.86-0.04,1.27c3.86,1.24,9.39,1.71,13.9-0.63
				c3.16-1.64,5.35-4.39,6.53-8.18c-0.28-0.25-0.58-0.5-0.89-0.75C173.96,41.91,168.11,45.97,161.62,46.12z"/>
			<path d="M162.01,48.7c0.02,0,0.03,0.01,0.05,0.01c0.01,0,0.01,0,0.02,0C162.06,48.7,162.03,48.7,162.01,48.7z"/>
			<path d="M159.78,23.38c-0.71,3.58-4,6.78-9.28,9c-0.82,0.34-1.69,0.65-2.59,0.94c0.07,0.27,0.14,0.55,0.22,0.81
				c4.59-1.13,13.6-4.52,12.42-13.49c-0.26-0.12-0.54-0.24-0.81-0.36C159.94,21.35,159.97,22.4,159.78,23.38z"/>
			<path d="M153.39,33.73c0.01,0,0.03,0,0.04-0.01c0.03-0.01,0.05-0.04,0.08-0.05C153.47,33.69,153.43,33.71,153.39,33.73z"/>
			<path d="M164.62,27.05c-0.98-0.8-2.37-1.3-3.15-1.53c-0.44,1.39-1.16,2.68-2.13,3.85c0.78,0.76,2.36,2.38,2.98,3.72
				c0.16,0.33,0.01,0.73-0.32,0.88s-0.73,0.01-0.88-0.32c-0.53-1.12-1.96-2.59-2.68-3.3c-1.19,1.17-2.67,2.21-4.42,3.08l1.41,3.95
				c0.12,0.35-0.07,0.69-0.42,0.81c-0.35,0.12-0.74-0.09-0.86-0.44l-1.34-3.76c-1.29,0.55-2.73,1.02-4.26,1.4
				c2.29,6.07,7.01,9.54,13.04,9.4c6.09-0.14,11.57-3.98,12.46-8.74c0.97-5.16-3.41-10.42-12.09-14.73c0.06,1,0.01,1.97-0.16,2.9
				c0.87,0.26,2.47,0.83,3.66,1.79c0.28,0.23,0.33,0.65,0.1,0.93C165.33,27.24,164.91,27.28,164.62,27.05z"/>
			<path d="M176.74,46.69c0.19,0.31,0.09,0.72-0.23,0.91c-0.31,0.19-0.72,0.09-0.91-0.23c-0.57-0.96-1.71-2.07-2.33-2.64
				c-0.91,0.84-1.92,1.58-3.06,2.17c-0.31,0.16-0.65,0.29-0.97,0.43c0.51,1.2,1.62,3.92,2.01,5.39c0.09,0.36-0.12,0.72-0.47,0.81
				c-0.36,0.09-0.72-0.12-0.81-0.47c-0.37-1.39-1.48-4.1-1.97-5.26c-1.64,0.55-3.42,0.86-5.27,0.91l0.25,3.98
				c0.02,0.37-0.26,0.64-0.62,0.66c-0.37,0.02-0.68-0.3-0.7-0.66l-0.25-4c-1.87-0.07-3.77-0.39-5.65-0.96
				c0.43,6.24,3.63,9,3.67,9.03l0.01,0.01c0,0,0,0,0,0c3.75,3.25,8.92,4.12,13.84,2.33c4.62-1.68,7.89-5.29,8.54-9.4
				c0.43-2.73-0.12-6.75-4.61-11.17c-0.71,2.04-1.71,3.8-3,5.25C174.88,44.41,176.09,45.6,176.74,46.69z"/>
			<path d="M180.82,57.62c-0.11-0.63-0.25-1.27-0.42-1.9c-1.66,2.01-3.95,3.65-6.68,4.64c-5.16,1.88-10.57,1.04-14.64-2.18
				c-0.13,0.14-0.29,0.32-0.47,0.53c2.51,2.51,6.13,3.99,10.04,4.03C173.21,62.79,177.52,60.97,180.82,57.62z"/>
			<path d="M152.28,66.55c3.85,3.8,6.92,8.79,8.38,15.15c8.95-2.54,15.33-6.91,18.43-12.69c1.61-3,2.25-6.31,1.94-9.76
				c-3.46,3.16-7.8,4.87-12.4,4.82c-4.23-0.05-8.15-1.64-10.9-4.36C156.28,61.39,154.17,63.94,152.28,66.55z"/>
			<path d="M80.92,6.76c2.53-0.59,3.64-1.35,4.19-2.31c-13.77,2.09-31.05,8.29-34.97,14.08c-0.81,1.21-0.64,1.87-0.57,2.12
				c0.41,1.57,10.3,4.52,32.26,2.71c-0.08-0.23-0.18-0.45-0.33-0.63c-0.43-0.55-1.14-0.78-2.16-0.73
				c-15.93,1.1-24.77-0.48-27.58-1.66L51,20.03l0.46-0.67C54.51,14.93,67.82,9.41,80.92,6.76z"/>
			<path d="M106.86,61.2c-0.83-1.93-1.27-4.4-1.45-5.72c-1.98,0.95-3.84,1.1-5.76,1.18c0.79,1.21,1.98,3.34,2.26,5.64
				C103.65,62,105.28,61.62,106.86,61.2z"/>
			<path d="M108.62,22.01c-1.02-0.05-1.73,0.19-2.17,0.73c-0.14,0.18-0.24,0.4-0.32,0.63c21.95,1.8,31.84-1.15,32.26-2.72
				c0.07-0.25,0.24-0.91-0.57-2.12c-3.91-5.8-21.2-12-34.97-14.08c0.54,0.96,1.66,1.72,4.18,2.31c13.11,2.65,26.41,8.17,29.46,12.6
				l0.46,0.67l-0.75,0.32C133.39,21.52,124.54,23.11,108.62,22.01z"/>
			<path d="M86.05,62.29c0.27-2.29,1.46-4.43,2.26-5.64c-1.92-0.07-3.78-0.23-5.76-1.18c-0.19,1.32-0.62,3.78-1.45,5.72
				C82.67,61.62,84.31,62,86.05,62.29z"/>
			<path d="M141.3,16.18c0.9,1.34,1.35,2.68,1.35,4.01c0,0.51-0.07,1.02-0.2,1.53c-1.94,7.35-23.97,6.73-34.46,6
				c13.97,7.77,31.66,7.77,42,3.43c4.86-2.04,7.87-4.89,8.49-8.03c0.57-2.91-1.09-6.58-4.57-10.08c-8.5-8.55-26.42-15.29-48.1-12.35
				C118.94,3.07,136.48,9.05,141.3,16.18z"/>
			<path d="M126.09,43.33c0-2.21-1.79-4-4-4c-2.21,0-4,1.79-4,4s1.79,4,4,4C124.3,47.33,126.09,45.54,126.09,43.33z M122.09,45.74
				c-1.33,0-2.41-1.08-2.41-2.41s1.08-2.41,2.41-2.41c1.33,0,2.41,1.08,2.41,2.41S123.42,45.74,122.09,45.74z"/>
			<path d="M121.43,48.59v8.54c0.44-0.08,0.88-0.15,1.33-0.21v-8.33c-0.22,0.03-0.44,0.07-0.66,0.07
				C121.86,48.66,121.65,48.62,121.43,48.59z"/>
			<path d="M102.39,3.04c14.15,2.03,32.36,8.58,36.53,14.75c0.78,1.15,1.02,2.2,0.75,3.2c-0.83,3.15-13.66,5.35-33.75,3.69
				c-0.01,0.58,0.06,1.15,0.15,1.57c15.53,1.26,33.63,0.72,35.1-4.87c0.38-1.46,0.07-2.92-0.97-4.46
				c-5.03-7.45-24.99-13.68-38.03-15.49L102.25,2C102.29,2.37,102.33,2.71,102.39,3.04z"/>
			<path d="M69.86,43.33c0-2.21-1.79-4-4-4c-2.21,0-4,1.79-4,4s1.79,4,4,4C68.07,47.33,69.86,45.54,69.86,43.33z M65.86,45.74
				c-1.33,0-2.41-1.08-2.41-2.41s1.08-2.41,2.41-2.41c1.33,0,2.41,1.08,2.41,2.41S67.19,45.74,65.86,45.74z"/>
			<path d="M134.87,140.6c8.46-9.7,25.81-34.99,25.41-51.29c-0.56-22.93-20.13-31.47-32.33-31.47c-5.66,0-10.25,1.44-15.1,2.96
				c-3.57,1.12-7.24,2.26-11.51,2.91c0,0-0.01,0-0.01,0c0,0,0,0,0,0c-2.25,0.35-4.67,0.57-7.34,0.57c-2.68,0-5.09-0.22-7.34-0.57
				c0,0,0,0,0,0c0,0-0.01,0-0.02,0c-4.27-0.66-7.94-1.79-11.51-2.91c-4.85-1.52-9.44-2.96-15.1-2.96c-12.2,0-31.77,8.54-32.33,31.47
				c-0.4,16.29,16.95,41.59,25.41,51.29c8.88,10.18,21.61,8.41,27.41,4.01l0.38-0.29l0.4,0.27c2.59,1.75,7.48,3.79,12.71,3.79
				c5.23,0,10.11-2.04,12.71-3.79l0.39-0.27l0.38,0.29C113.26,149.01,125.98,150.78,134.87,140.6z M135.13,66.85l0.91-0.63l1.09,0.2
				c0.67,0.43,0.87,1.33,0.43,2c-3.32,5.16-2.97,13.09-1.44,16.83c0,0-0.01,1.11-0.01,1.11l-0.79,0.78c0,0-1.11-0.01-1.11-0.01
				s-0.77-0.79-0.77-0.79c-0.85-2.09-1.33-4.87-1.33-7.81C132.11,74.48,133.02,70.13,135.13,66.85z M84.77,80.14
				c0.44-0.66,1.34-0.85,2-0.41c0.02,0.01,2.5,1.56,7.21,1.56s7.19-1.54,7.21-1.56l0,0c0.66-0.43,1.56-0.25,2,0.41
				c0.44,0.67,0.26,1.56-0.4,2c-0.12,0.08-3.1,2.04-8.8,2.04c-5.69,0-8.68-1.95-8.81-2.04C84.51,81.7,84.33,80.81,84.77,80.14z
				 M50.83,66.42l1.09-0.2l0.91,0.63c3.65,5.67,3.71,14.53,1.69,19.49c-0.3,0.74-1.15,1.09-1.89,0.79c-0.74-0.3-1.09-1.15-0.79-1.88
				c1.53-3.74,1.88-11.67-1.44-16.83c0,0-0.2-1.09-0.2-1.09L50.83,66.42z M54.79,107.71c-0.14,0.79-0.89,1.31-1.67,1.17
				c-0.7-0.12-1.19-0.74-1.19-1.42c0-0.08,0.01-0.17,0.02-0.25c0.2-1.15,0.3-2.32,0.3-3.48c0-5.03-1.83-9.87-4.86-12.33
				c-0.35-0.29-0.54-0.7-0.54-1.12c0-0.32,0.11-0.64,0.32-0.91c0,0,0.98-0.53,0.98-0.53l1.06,0.32
				C53.69,92.79,56.04,100.6,54.79,107.71z M59.62,130.37c0,0-0.72,0.83-0.72,0.83s-1.1,0.08-1.11,0.08c0,0-0.84-0.72-0.84-0.72
				l-0.08-1.11c0.56-1.69,1.12-3.79,1.12-6.03c0-2.35-0.61-4.87-2.46-7.27c0,0-0.29-1.07-0.29-1.07l0.55-0.96
				c0,0,1.07-0.29,1.07-0.29l0.96,0.55C62.28,120.17,60.98,126.28,59.62,130.37z M68.57,82.5L68.57,82.5c-0.66-0.44-0.84-1.34-0.4-2
				c0.44-0.66,1.34-0.84,2.01-0.4c2.04,1.36,7.7,2.37,9.69,0.38l1.02-0.42l1.02,0.42l0.42,1.02l-0.42,1.02
				C78.61,85.82,71.4,84.38,68.57,82.5z M75.24,124.11c-0.46,0.65-1.36,0.81-2.01,0.35l0,0c-0.65-0.46-0.81-1.36-0.35-2.01
				c3.27-4.65,3.45-13.23,1.29-17c0,0-0.14-1.1-0.14-1.1l0.68-0.87c0.69-0.39,1.58-0.15,1.97,0.54
				C79.31,108.62,79.26,118.4,75.24,124.11z M108.13,128.53c0,0-0.99,0.48-0.99,0.48l-1.05-0.36c-3.79-3.37-9.74-3.73-12.12-3.73
				c-2.38,0-8.33,0.36-12.12,3.74c0,0-1.04,0.36-1.04,0.36l-1.29-0.62l0.29,0.14l-0.36-1.05l0.48-0.99
				c4.37-3.88,10.67-4.46,14.04-4.46c3.37,0,9.67,0.58,14.04,4.47c0,0,0.48,0.99,0.48,0.99L108.13,128.53z M83.94,114.88
				c0-0.72,0.55-1.35,1.28-1.44l0.46-0.05c1.83-0.21,4.83-0.54,8.29-0.54c3.46,0,6.46,0.34,8.26,0.54c0.04,0,0.49,0.06,0.49,0.06
				l0.97,0.54l0.31,1.06c-0.09,0.79-0.8,1.36-1.6,1.27l-0.46-0.05c-1.75-0.2-4.65-0.53-7.97-0.53c-3.32,0-6.22,0.33-7.96,0.53
				c-0.01,0-0.47,0.05-0.47,0.05l-1.06-0.31c0,0-0.53-0.97-0.53-0.97C83.94,114.98,83.94,114.93,83.94,114.88z M108.36,104.28
				c-2.93,3.52-8.58,5.79-14.39,5.79c-5.81,0-11.46-2.27-14.39-5.79c0,0-0.33-1.06-0.33-1.06l0.52-0.98
				c0.61-0.51,1.52-0.43,2.03,0.18c2.41,2.89,7.18,4.75,12.17,4.75c4.98,0,9.76-1.87,12.17-4.75l0.1-0.12l-0.1,0.12l0.98-0.51
				l1.06,0.33l0.51,0.98L108.36,104.28z M114.72,124.46c-0.66,0.46-1.56,0.3-2.02-0.35c-2.24-3.18-3.24-7.62-3.24-11.73
				c0-3.27,0.64-6.33,1.81-8.37c0.39-0.69,1.28-0.93,1.97-0.54c0.69,0.39,0.93,1.28,0.54,1.97c-2.15,3.77-1.98,12.35,1.29,17
				C115.53,123.1,115.37,124,114.72,124.46z M119.38,82.5c-2.83,1.88-10.04,3.32-13.34,0.01l-0.42-1.02l0.42-1.02l1.02-0.42
				l1.02,0.42c2,2,7.65,0.99,9.69-0.38l0.13-0.09l-0.13,0.08l1.09-0.21l0.92,0.62c0,0,0.22,1.08,0.22,1.08L119.38,82.5z
				 M132.41,116.15c-3.61,4.69-2.49,9.84-1.34,13.3c0.25,0.75-0.16,1.57-0.9,1.83c-0.76,0.25-1.58-0.15-1.83-0.9l0-0.01
				c-1.36-4.09-2.66-10.2,1.79-15.98c0,0,0.96-0.55,0.96-0.55l1.06,0.29c0,0,0.55,0.96,0.55,0.96L132.41,116.15z M138.75,89.16
				c0,0,1.06-0.32,1.06-0.32l0.97,0.53c0,0,0.31,1.06,0.31,1.06l-0.53,0.97c-3.73,3.02-5.65,9.67-4.56,15.81
				c0.14,0.78-0.39,1.54-1.17,1.68c-0.79,0.14-1.54-0.39-1.68-1.17l0,0C131.91,100.6,134.26,92.79,138.75,89.16z"/>
			<path d="M166.7,139.87c-1.46-0.88-5.27-3.22-6.64-4.49c-1.37-1.27-2.25-1.76-4.78-1.37c-4.7,0.72-8.02,0.36-13.08-0.59
				c-0.97,1.33-1.91,2.59-2.81,3.74c6.35,1.84,13.53,1.4,15.4,0.07c3.32,6.25,9.86,7.03,9.86,7.03s-0.29,4.78,0.19,7.91
				c-1.46,1.76-1.46,4.2-0.78,5.95c2.63-1.85,3.42-3.91,3.42-5.66s0.39-6.25,0.88-8.88C168.85,140.94,168.17,140.75,166.7,139.87z"
				/>
			<path d="M145.03,148.75c-4.75,0-7.79-2.01-11.23-5.18c-1.23,1.12-2.52,2.06-3.83,2.83c3.28,3.22,7.33,5.2,12.04,5.28
				c-1.27,3.03-0.68,9.37,2.25,11.91c-1.85,0.68-4.98,3.61-6.93,6.74c-4.49,1.07-8.4-0.1-11.32-0.78c0.39,2.64,4.1,4.69,6.25,3.81
				c2.15-0.88,8.1-0.59,10.25-0.59c1.27-4.1,3.61-6.64,4.39-7.52s1.51-1.57,1.02-3.82s-1.22-5.55-0.05-8.58
				C149.03,149.83,147.57,148.75,145.03,148.75z"/>
			<path d="M181.83,128.22c-6.58-2.35-10.67-8.66-12.24-11.07c-1.56-2.41-4.1-0.98-5.6-0.39c-4.46,1.75-10.04,3.19-13.52,4.02
				c-1.3,2.21-2.64,4.37-3.99,6.42c7.67,0.05,13.04-2.11,15.56-3.6c1.64-0.98,2.92-1.63,2.99-4.1c-0.06-0.84,0.78-0.91,0.91-0.32
				c0.65,7.68,8.72,12.37,12.5,13.41c-0.52,1.11-0.72,4.23-0.72,4.23c-3.84,5.01,1.24,7.09,1.24,7.09c0.32-2.8,2.08-4.62,2.08-4.62
				c-0.26-3.78,1.82-5.73,2.86-7.35C184.96,130.3,184.57,129.2,181.83,128.22z"/>
			<path d="M183.66,99.91c-1.95-1.04-10.28-4.95-11.98-5.86c-1.69-0.91-2.73-1.69-4.95,0.65c-1.21,1.28-4.21,3.34-6.67,4.94
				c-0.9,3.15-2.14,6.42-3.62,9.7c10.88-3.16,14.45-7.98,14.19-9.82c5.21,3.64,12.76,5.21,12.76,5.21s0.65,5.99,1.95,8.46
				c-0.39,1.95-2.73,6.12-2.73,6.12l2.73,2.47c0,0,0.39-0.65,1.04-1.82c0.65-1.17,1.56-3.12,1.56-4.95c0-1.82,0-6.51,0-10.54
				C187.95,100.43,185.61,100.95,183.66,99.91z"/>
		</g>
	</g>
</svg>
