<?xml version="1.0" encoding="iso-8859-1"?>
<!-- Generator: Adobe Illustrator 11 Build 196, SVG Export Plug-In . SVG Version: 6.0.0 Build 78)  -->
<!DOCTYPE svg PUBLIC "-//W3C//DTD SVG 1.0//EN"    "http://www.w3.org/TR/2001/REC-SVG-20010904/DTD/svg10.dtd" [
	<!ENTITY ns_flows "http://ns.adobe.com/Flows/1.0/">
	<!ENTITY ns_svg "http://www.w3.org/2000/svg">
	<!ENTITY ns_xlink "http://www.w3.org/1999/xlink">
	<!ENTITY st0 "fill:none;stroke:#000000;stroke-linecap:round;stroke-linejoin:round;stroke-dasharray:4;">
	<!ENTITY st1 "fill:none;stroke:#000000;stroke-linecap:round;stroke-linejoin:round;">
	<!ENTITY st2 "fill:#FFFFFF;stroke:#000000;stroke-linecap:round;stroke-linejoin:round;">
	<!ENTITY st3 "stroke:#000000;stroke-linecap:round;stroke-linejoin:round;">
]>
<svg  xmlns="&ns_svg;" xmlns:xlink="&ns_xlink;" xmlns:a="http://ns.adobe.com/AdobeSVGViewerExtensions/3.0/"
	 width="143.02" height="181" viewBox="0 0 143.02 181" style="overflow:visible;enable-background:new 0 0 143.02 181"
	 xml:space="preserve">
	<g id="Bild">
		<path style="&st1;" d="M142.5,170.16c0.25-37.25-1.4-79.64-15.5-117.25c-6.75-18-12.88-29.38-31.62-41.44
			c0-2.06-1.01-3.76-1.56-5.06C90-2.53,68.03-1.04,59.5,8.91c0.06,1.38-0.12,3.44-0.25,5c-35.75,30.75-48.75,81-58.75,128
			c4.75,3.5,17.5,9.25,22.5,11.25c0.75,4-0.26,5.03,1,7.75c3,6.5,9.5,11.75,15.75,11.75c32.25,0,25.75,6,41,7.75
			c1.09,0.12,11.81,0.19,16.31-0.25v-1.75C111.81,178.16,131.25,176.66,142.5,170.16z"/>
		<path style="&st1;" d="M1.5,138.91c3.75,2.25,14.12,8.69,19.62,9.94s8.38,1.69,13.88,3.81c5.83,2.25,6.32,2.12,6.19,4.44
			c-0.16,2.8-2.19,2.93-3.94,3.06c-5.04,0.39-7,0-12,1.5"/>
		<path style="&st1;" d="M23,153.16c4.5,0.75,7.25,1,11,2.75s3.75,0.25,3.25,4.25"/>
		<path style="&st1;" d="M50.5,88.66c-1,7.25-9.44,62.75-9.44,68.75"/>
		<path style="&st1;" d="M28.62,161.03c2.75,5,5.88,6.12,10.38,6.88s15.5,0,22.5,1.5s9.57,4.64,14.5,5.75
			c7.75,1.75,18.31,1.19,21.06,1.19l0.06-1.5c10.75,0.5,29.62-1.44,44.88-8.94"/>
		<path style="&st1;" d="M67.25,26.16c-23.5,21.25-41.5,88.75-43,123"/>
		<path style="&st1;" d="M78.12,31.16c-10.5,38.75-15.19,102.69-14.69,138.69"/>
		<path style="&st1;" d="M97.06,176.35c0,2,0,2.06,0,2.06"/>
		<path style="&st1;" d="M90,32.91c0-3.5-1.06-4.02-3.75-4.25c-6.62-0.56-20.94-7.31-27-14.75C57.75,22.91,73.75,32.91,90,32.91
			c0,0,2.5,0,3,6.25s1,48.25,1.5,61s2.75,53.38,2.62,74.69"/>
		<path style="&st1;" d="M84.19,28.22c2.75-1.88,11.06-8.38,11.19-16.75"/>
		<path style="&st1;" d="M80.5,27.22c4.25-2.56,13.94-14.69,13.19-19.56"/>
		<path style="&st1;" d="M92.69,12.1c-5.31-3.12-21.87-3.91-26.62,0.31c-1.12,1-0.88,5.56-0.19,7.44"/>
		<path style="&st1;" d="M73.5,9.78c-0.33,3.76-0.88,10.19-0.94,14"/>
		<path style="&st1;" d="M80.5,9.53c-0.12,5.19,0.38,13.69,0.81,17.12"/>
		<path style="&st3;" d="M62.81,6.03c0.88,2.19,3.69,5.31,4,5.81c-1.5,1-1.94,2.62-0.94,8c-2.94-2-5-4.44-6.62-5.94
			c0.12-2.06,0.38-2.88,0.25-5C61,7.35,62.81,6.03,62.81,6.03z"/>
		<path style="&st3;" d="M65.25,4.35c0.56,0.94,1.44,1.88,3.31,4.12c2-1.12,8.38-2.19,11.75-2.12c1.75,0.03,12.62,0.44,13.38,2.81
			c-0.06-5.12-4-8.62-13.88-8.62C72.19,0.53,65.25,4.35,65.25,4.35z"/>
		<path style="&st1;" d="M91,22.41c26.75,33.25,24.5,98.5,24.75,151"/>
		<g>
			<path style="&st0;" d="M64.25,23.91c-22,21.75-42,87.5-44,124.25"/>
			<path style="&st0;" d="M74.06,29.78c-12.5,38.25-14.81,120-14.56,139.25"/>
			<path style="&st0;" d="M76.5,9.53c-0.38,3.38-1,13.12-1.06,15.62"/>
			<path style="&st0;" d="M83.25,9.66c0.06,4.88,0.56,9.75,1.06,14.12"/>
			<path style="&st0;" d="M88.88,24.41c25.88,34.75,21.88,96.25,22.12,148.75"/>
		</g>
		<g>
			<circle style="&st2;" cx="84.25" cy="39.66" r="5.17"/> 
			<path style="&st1;" d="M81.25,35.66c2.81,1.53,1.75,1.75,3,4s2.4,2.81,4.06,3"/>
			<path style="&st1;" d="M84.25,39.66c0,0,3.25,0.75,4.75-1"/>
			<path style="&st1;" d="M84.25,44.83c-1.5-1.58,0-5.17,0-5.17s-2.5-0.5-4,2.75"/>
			<path style="&st1;" d="M79.08,39.66c1.58-2.25,5.17,0,5.17,0c3.5-1.75,2.25-1.25,3.5-3.25"/>
			<path style="&st1;" d="M84.25,39.66c0.56-1.19,1.12-3.75,0.19-5.06"/>
		</g>
		<g>
			<circle style="&st2;" cx="106.25" cy="121.91" r="5.17"/> 
			<path style="&st1;" d="M103.25,117.91c2.81,1.53,1.75,1.75,3,4s2.4,2.81,4.06,3"/>
			<path style="&st1;" d="M106.25,121.91c0,0,3.25,0.75,4.75-1"/>
			<path style="&st1;" d="M106.25,127.08c-1.5-1.58,0-5.17,0-5.17s-2.5-0.5-4,2.75"/>
			<path style="&st1;" d="M101.08,121.91c1.58-2.25,5.17,0,5.17,0c3.5-1.75,2.25-1.25,3.5-3.25"/>
			<path style="&st1;" d="M106.25,121.91c0.56-1.19,1.12-3.75,0.19-5.06"/>
		</g>
		<g>
			<circle style="&st2;" cx="83.25" cy="124.91" r="5.17"/> 
			<path style="&st1;" d="M80.25,120.91c2.81,1.53,1.75,1.75,3,4s2.4,2.81,4.06,3"/>
			<path style="&st1;" d="M83.25,124.91c0,0,3.25,0.75,4.75-1"/>
			<path style="&st1;" d="M83.25,130.08c-1.5-1.58,0-5.17,0-5.17s-2.5-0.5-4,2.75"/>
			<path style="&st1;" d="M78.08,124.91c1.58-2.25,5.17,0,5.17,0c3.5-1.75,2.25-1.25,3.5-3.25"/>
			<path style="&st1;" d="M83.25,124.91c0.56-1.19,1.12-3.75,0.19-5.06"/>
		</g>
		<g>
			<circle style="&st2;" cx="103.12" cy="32.91" r="5.17"/> 
			<path style="&st1;" d="M100.12,28.91c2.81,1.53,1.75,1.75,3,4s2.4,2.81,4.06,3"/>
			<path style="&st1;" d="M103.12,32.91c0,0,3.25,0.75,4.75-1"/>
			<path style="&st1;" d="M103.12,38.08c-1.5-1.58,0-5.17,0-5.17s-2.5-0.5-4,2.75"/>
			<path style="&st1;" d="M97.95,32.91c1.58-2.25,5.17,0,5.17,0c3.5-1.75,2.25-1.25,3.5-3.25"/>
			<path style="&st1;" d="M103.12,32.91c0.56-1.19,1.12-3.75,0.19-5.06"/>
		</g>
		<path style="&st3;" d="M92.12,35.85c1.44,0.31,0.97-0.16,2.2,0.61s0.36,1.2,2.11,0.83s-0.62-3.75-1.38-3.06"/>
		<g>
			<g>
				<circle style="&st2;" cx="94.33" cy="36.46" r="2.39"/> 
			</g>
			<path style="&st3;" d="M92.19,35.35c0.81,0.38,1.41,1.34,2.14,1.11s2.11-0.05,2.17,0.83"/>
			<path style="&st3;" d="M94.75,34.22c-0.19,0.56-0.69,1.06-0.44,2s0.2,1.43-0.31,2.38"/>
		</g>
		<g>
			<g>
				<circle style="&st2;" cx="95.39" cy="124.21" r="2.39"/> 
			</g>
			<path style="&st3;" d="M93.25,123.1c0.81,0.38,1.41,1.34,2.14,1.11s2.11-0.05,2.17,0.83"/>
			<path style="&st3;" d="M95.81,121.97c-0.19,0.56-0.69,1.06-0.44,2s0.2,1.43-0.31,2.38"/>
		</g>
		<polygon style="&st1;" points="88.94,37.35 91.75,36.28 92.38,37.97 89.56,39.03 "/>
		<polygon style="&st1;" points="88.31,123.22 93,123.1 93.25,125.47 88.31,125.85 "/>
		<polygon style="&st1;" points="97.44,122.66 101.08,121.91 101.56,123.85 97.94,124.6 "/>
		<polygon style="&st1;" points="96.19,34.78 98.12,33.97 98.75,35.66 96.81,36.47 "/>
	</g>
</svg>
