<?xml version="1.0" encoding="iso-8859-1"?>
<!-- Generator: Adobe Illustrator 11 Build 196, SVG Export Plug-In . SVG Version: 6.0.0 Build 78)  -->
<!DOCTYPE svg PUBLIC "-//W3C//DTD SVG 1.0//EN"    "http://www.w3.org/TR/2001/REC-SVG-20010904/DTD/svg10.dtd" [
	<!ENTITY ns_flows "http://ns.adobe.com/Flows/1.0/">
	<!ENTITY ns_svg "http://www.w3.org/2000/svg">
	<!ENTITY ns_xlink "http://www.w3.org/1999/xlink">
	<!ENTITY st0 "fill:#0A0809;stroke:#0A0809;stroke-width:2;">
	<!ENTITY st1 "fill:none;stroke:#000000;stroke-width:2;stroke-linejoin:round;">
	<!ENTITY st2 "fill:none;stroke:#0A0809;stroke-width:2;stroke-linecap:round;stroke-linejoin:round;">
	<!ENTITY st3 "fill:none;stroke:#000000;stroke-width:2;stroke-linecap:round;stroke-linejoin:round;">
	<!ENTITY st4 "fill:none;stroke:#000000;stroke-width:2;">
	<!ENTITY st5 "stroke:#000000;stroke-width:2;stroke-linecap:round;stroke-linejoin:round;">
]>
<svg  xmlns="&ns_svg;" xmlns:xlink="&ns_xlink;" xmlns:a="http://ns.adobe.com/AdobeSVGViewerExtensions/3.0/"
	 width="385.97" height="130.26" viewBox="0 0 385.97 130.26" style="overflow:visible;enable-background:new 0 0 385.97 130.26"
	 xml:space="preserve">
	<g id="Pfade">
		<g>
			<path style="&st2;" d="M130.77,38.12c-2.42-14.26-11.92-26.31-25.85-30.88C89.21,2.09,72.13,7.83,62.21,20.89
				c0,0,4.84,7.58,5.93,9.27c-2.37,1.62-11.18,7.95-11.18,7.95"/>
			<path style="&st2;" d="M92.96,49.8c-13.74-9.01-31.13-13.42-47.42-10.99C27.64,41.48,10.38,50.92,1,66.67
				c18.17-3.44,38.19-0.97,54.59,7.67c20.05,10.58,31.07,29.47,37.37,50.56c6.29-21.09,17.32-39.98,37.37-50.56
				c16.4-8.65,36.42-11.12,54.59-7.67c-9.38-15.75-26.65-25.19-44.54-27.86C124.09,36.38,106.7,40.79,92.96,49.8z"/>
			<g>
				<polyline style="&st2;" points="62.21,20.89 41.1,25.01 56.96,38.11 "/>
				<line style="&st0;" x1="41.1" y1="25.01" x2="68.14" y2="30.16"/>
			</g>
			<g>
				<ellipse style="&st5;" cx="83.85" cy="19.29" rx="2.07" ry="1.93"/> 
				<circle style="&st3;" cx="83.85" cy="19.29" r="5.8"/> 
				<path style="&st3;" d="M93.57,13.42c1.11,1.7,1.75,3.72,1.75,5.88c0,6.11-5.14,11.06-11.47,11.06c-1.35,0-2.64-0.22-3.84-0.64"
					/>
			</g>
		</g>
		<g>
			<ellipse style="&st4;" cx="292.51" cy="83.11" rx="6.36" ry="6.49"/> 
			<path style="&st3;" d="M324.07,58.79c6.86,8.22,11,17.48,11,26.81c0,28.19-16.58,43.67-42.56,43.67
				c-25.15,0-42.56-15.48-42.56-43.67c0-28.19,37.86-55.83,74.07-55.55c31.51,0.24,49.62,18.58,60.95,41.25
				c-27.92-21.83-72.56-18.58-91.36,5.19"/>
			<path style="&st1;" d="M261.32,57.92c-19.74-4.36-44.02-0.13-61.27,13.37c11.33-22.66,29.44-41.01,60.95-41.25
				c10.09-0.08,21.23,2.94,30.72,6.61"/>
			<path style="&st3;" d="M323.4,29.79c-0.83-17.69-14.31-29.32-31.17-28.77c-8.01,0.26-19.9,4.7-25.15,11.61l-18.79,3.87
				l13.66,13.25"/>
			<path style="&st3;" d="M267.08,12.63c3.04,4.7,0.49,13.95-2.88,17.05"/>
			<line style="&st3;" x1="267.91" y1="22.3" x2="248.29" y2="16.5"/>
			<g>
				<ellipse style="&st5;" cx="286.24" cy="14.27" rx="2.07" ry="1.93"/> 
				<circle style="&st3;" cx="286.24" cy="14.27" r="5.8"/> 
				<path style="&st3;" d="M295.96,8.4c1.11,1.7,1.75,3.72,1.75,5.87c0,6.11-5.14,11.06-11.47,11.06c-1.35,0-2.64-0.22-3.84-0.64"/>
			</g>
		</g>
	</g>
</svg>
