<?xml version="1.0" encoding="iso-8859-1"?>
<!-- Generator: Adobe Illustrator 11 Build 196, SVG Export Plug-In . SVG Version: 6.0.0 Build 78)  -->
<!DOCTYPE svg PUBLIC "-//W3C//DTD SVG 1.0//EN"    "http://www.w3.org/TR/2001/REC-SVG-20010904/DTD/svg10.dtd" [
	<!ENTITY ns_flows "http://ns.adobe.com/Flows/1.0/">
	<!ENTITY ns_svg "http://www.w3.org/2000/svg">
	<!ENTITY ns_xlink "http://www.w3.org/1999/xlink">
	<!ENTITY st0 "fill:none;stroke:#000000;stroke-linecap:round;stroke-linejoin:round;">
	<!ENTITY st1 "fill:#FFFFFF;stroke:#000000;stroke-linecap:round;stroke-linejoin:round;">
	<!ENTITY st2 "stroke:#000000;stroke-linecap:round;stroke-linejoin:round;">
	<!ENTITY st3 "fill:#FFFFFF;stroke:#FFFFFF;stroke-linecap:round;stroke-linejoin:round;">
]>
<svg  xmlns="&ns_svg;" xmlns:xlink="&ns_xlink;" xmlns:a="http://ns.adobe.com/AdobeSVGViewerExtensions/3.0/"
	 width="161.01" height="274.58" viewBox="0 0 161.01 274.58" style="overflow:visible;enable-background:new 0 0 161.01 274.58"
	 xml:space="preserve">
	<g id="Pfade">
		<polyline style="&st0;" points="132.35,69.48 132.35,56.94 126.8,55.01 126.56,72.37 "/>
		<polygon style="&st0;" points="116.67,77.2 133.32,69.24 135.25,74.54 118.12,82.74 "/>
		<polyline style="&st0;" points="63.13,37.16 39.01,15.94 43.11,0.5 40.46,2.19 35.88,17.14 59.03,35.95 "/>
		<polyline style="&st0;" points="43.11,0.5 59.51,2.67 65.79,32.34 "/>
		<polyline style="&st0;" points="72.78,47.29 52.04,12.8 50.11,14.01 71.09,48.98 "/>
		<polyline style="&st0;" points="102.45,65.14 111.37,74.06 107.99,77.92 101.96,72.86 "/>
		<polyline style="&st0;" points="106.79,68.75 114.5,68.75 114.99,75.27 "/>
		<polyline style="&st0;" points="69.4,51.39 54.21,38.37 64.34,38.12 "/>
		<polyline style="&st0;" points="66.27,36.44 71.57,27.27 75.19,44.15 "/>
		<line style="&st0;" x1="52.28" y1="37.16" x2="63.13" y2="37.16"/>
		<line style="&st0;" x1="52.04" y1="34.99" x2="63.13" y2="37.16"/>
		<line style="&st0;" x1="67.71" y1="21" x2="66.27" y2="36.44"/>
		<line style="&st0;" x1="69.89" y1="23.9" x2="66.27" y2="36.44"/>
		<polyline style="&st0;" points="74.23,37.64 77.6,37.16 78.81,39.57 "/>
		<polyline style="&st0;" points="73.99,35.95 77.36,31.85 81.7,36.2 "/>
		<path style="&st0;" d="M63.86,148.83c1.21,0,3.38,0.72,4.58,0.72c1.21,0,3.62-0.96,4.58-0.96s5.31,1.45,6.03,2.17
			s1.69,0.72,2.41,0.24c0.72-0.48-0.12-1.45-1.21-2.17c-0.85-0.57-3.5-1.81-4.82-2.41"/>
		<path style="&st0;" d="M78.63,148.1c1.69,0.72,3.56,1.67,4.34,2.05c1.63,0.78,2.53-1.03,1.33-1.75s-5.97-3.44-7.42-3.68"/>
		<path style="&st0;" d="M84.84,148.59c1.69,1.03,2.53-0.6,1.33-1.57s-2.35-1.69-4.22-2.53c-0.98-0.44-2.89-1.21-4.1-1.69"/>
		<path style="&st0;" d="M85.8,146.66c2.17,0.72,2.41-0.72,1.45-1.69c-0.96-0.96-2.77-2.11-3.86-2.65c-2.08-1.04-4.94-1.69-7.04-1.3
			"/>
		<path style="&st0;" d="M76.88,139.9c0.72,0,3.62,0,4.58,0c0.96,0,1.45-0.72,1.45-1.45s-1.33-0.96-2.41-0.96
			c-1.94,0-5.06,0.96-6.75,1.21s-5.06,0.72-7.24,0.72"/>
		<polygon style="&st0;" points="61.69,111.44 63.86,110.96 76.4,134.84 74.23,135.56 "/>
		<polyline style="&st0;" points="74.23,135.56 72.3,136.53 59.76,113.37 61.69,111.44 "/>
		<polygon style="&st2;" points="73.45,136.17 76.35,141.02 77.73,140.33 74.95,135.56 "/>
		<polyline style="&st0;" points="107.51,79.85 117.4,89.98 121.26,85.64 110.4,75.51 "/>
		<line style="&st0;" x1="117.16" y1="75.75" x2="111.13" y2="75.75"/>
		<polygon style="&st0;" points="56.38,47.29 61.93,47.53 65.79,71.41 60.72,74.3 "/>
		<polyline style="&st0;" points="55.9,48.25 52.52,50.43 57.58,56.7 "/>
		<polyline style="&st0;" points="58.55,61.52 52.52,77.68 46.25,77.44 55.66,54.77 "/>
		<polyline style="&st0;" points="60.24,91.19 59.51,70.68 55.41,71.41 55.17,90.22 "/>
		<polyline style="&st0;" points="63.37,54.77 71.81,63.21 67.71,66.1 "/>
		<polyline style="&st0;" points="64.34,62.73 70.61,70.93 66,74.23 "/>
		<polyline style="&st0;" points="65.89,68.69 65.79,76.71 60.48,76.96 "/>
		<line style="&st0;" x1="72.78" y1="70.68" x2="70.61" y2="70.93"/>
		<line style="&st0;" x1="62.65" y1="46.08" x2="61.93" y2="47.53"/>
		<path style="&st2;" d="M102.93,62.24c1.02-2.05,8.68-11.34,9.89-13.51c1.21-2.17,1.69-5.55,0.96-9.17
			c1.93,0.96-14.71-6.27-14.71-6.27c-2.41-0.72-6.03-1.21-7.48-0.96c-2.14,0.36-7.48,2.41-9.17,3.86
			C78.8,39.3,70.85,50.91,66.99,55.73c1.21,2.89,15.13,8.84,18.81,10.13c4.82,1.69,10.61,3.62,15.19,3.62
			C100.76,66.1,102.45,63.21,102.93,62.24z"/>
		<path style="&st3;" d="M71.09,53.08c2.17,1.21,15.44,7.48,19.05,8.92c3.62,1.45,6.99,2.41,9.17,2.89"/>
		<path style="&st3;" d="M95.93,57.9c2.41-1.21,10.37-7.48,12.06-9.17"/>
		<path style="&st3;" d="M99.55,61.28c0-1.21-0.48-4.34,0-5.55"/>
		<polyline style="&st1;" points="53,60.07 42.87,61.04 42.87,67.79 "/>
		<line style="&st1;" x1="71.09" y1="63.69" x2="74.2" y2="65.76"/>
		<polyline style="&st1;" points="39.98,79.85 35.88,70.68 43.35,68.27 "/>
		<polyline style="&st1;" points="43.6,74.06 43.84,68.27 50.83,64.65 "/>
		<polyline style="&st0;" points="47.46,74.3 42.39,74.06 33.47,95.04 39.01,97.94 46.97,77.2 "/>
		<polyline style="&st0;" points="44.2,84.79 48.18,84.43 48.42,89.5 "/>
		<polyline style="&st0;" points="37.57,84.67 31.54,81.3 29.61,86.12 "/>
		<polyline style="&st0;" points="25.02,94.32 29.37,86.36 21.41,79.37 23.58,94.32 "/>
		<polyline style="&st0;" points="40.22,100.35 31.54,101.56 32.26,96.01 33.47,95.04 35.88,88.29 29.85,85.4 "/>
		<polyline style="&st0;" points="31.54,101.56 31.05,105.9 35.88,105.9 "/>
		<polyline style="&st0;" points="31.05,105.9 29.61,105.9 29.37,116.51 18.51,94.56 32.26,95.53 "/>
		<line style="&st0;" x1="66" y1="74.23" x2="65.54" y2="90.7"/>
		<line style="&st0;" x1="66.03" y1="86.84" x2="70.85" y2="88.77"/>
		<polyline style="&st0;" points="48.66,85.88 52.76,85.88 53.24,86.84 "/>
		<polyline style="&st0;" points="51.07,89.98 53.73,87.08 54.93,86.84 "/>
		<path style="&st0;" d="M54.57,132.37c2.17-1.21,3.98-8.38,3.74-11.03c-0.11-1.2-4.1-11.34-5.31-13.75
			c-1.21-2.41-6.51-10.85-7.48-11.82c-0.96-0.96-1.69-0.48-2.41,0.24s-2.17,3.38-2.17,3.38c-2.17,2.65-19.78,28.46-19.78,35.45
			c0,5.55,10.13,17.85,8.68,52.34"/>
		<path style="&st0;" d="M77.84,84.43c0.96-0.24,0.96-2.65,0.48-3.14s-1.93-0.96-1.93-1.93s1.21-1.21,1.21,0"/>
		<path style="&st2;" d="M75.67,62.48c-1.21,2.41-4.1,13.26-4.1,22.43c0,2.17,0.59,4.03,1.21,5.06c0.72,1.21,1.93,1.69,2.65,2.41
			c0-2.89,0.48-6.99,0.48-7.96c-1.45-0.72-1.69-3.14-1.69-4.82s0.97-5.35,2.17-5.31c1.4,0.05,2.62,2.7,3.14,3.86
			c0.51,1.13,1.48,2.53,2.41,3.86c0,0-1.41-3.27-1.74-3.92c-0.19-0.37,0.07-0.53,0.38-0.34c0.31,0.18,2.57,2.09,2.57,2.09
			c-1-1-2.13-2.41-2.41-2.69c-0.29-0.28-0.32-0.66,0.09-0.69s1.84,0,1.84,0c-1.03-0.62-2.05-1.06-2.65-1.56
			c-0.5-0.41-0.13-1.2,0.44-1.05c0.53,0.14,2.94,0.68,2.94,0.68c-1.42-0.71-1.79-1.08-2.32-1.41c-0.59-0.38-0.5-1.06,0.28-1.09
			c0.75-0.03,2.28,0.09,2.28,0.09c-0.96-0.66-1.62-1.19-2.35-1.53c-0.85-0.4-0.52-1.21-0.12-1.23c0.72-0.05,2.48-0.13,2.48-0.13
			c-1.69-0.48-1.45-0.48-2.41-0.96c-0.96-0.48-0.3-1.36,0.23-1.45c0.5-0.09,2.42,0.01,2.42,0.01s-7.58-2.66-7.96-3.14
			C75.65,63.36,75.67,62.48,75.67,62.48z"/>
		<path style="&st0;" d="M46.13,109.15c2.41,4.1,8.32,17.55,7.66,22.67"/>
		<path style="&st0;" d="M35.52,119.65c0.72,1.21,3.86,5.06,6.51,6.03c2.65,0.96,6.15,2.53,7.96,3.86
			c1.81,1.33,10.49,6.87,11.82,7.84"/>
		<path style="&st0;" d="M71.45,88.41c-1.45,0.36-6.03,2.29-7.72,3.62c1.03,4.22,4.76,8.74,9.2,11.73
			c4.43,2.98,9.56,4.58,13.36,4.43c3.13-0.12,10.32-2.74,11.09-3.98c-0.12-1.45-0.12-7.6-0.72-8.32"/>
		<line style="&st0;" x1="50.95" y1="88.65" x2="41.55" y2="92.03"/>
		<line style="&st0;" x1="39.98" y1="95.77" x2="40.22" y2="100.35"/>
		<path style="&st0;" d="M64.1,93.6c1.57,3.26,6.39,19.29,6.39,29.67"/>
		<path style="&st0;" d="M94.61,75.03c-0.72-1.45-3.5-3.62-4.34-3.98c-0.84-0.36-2.65-0.72-3.26-0.72
			C89.9,71.53,92.8,73.22,94.61,75.03z"/>
		<path style="&st0;" d="M94.25,84.07c-0.48,0-1.33,0.24-1.33,0.84s0.72,1.21,1.45,1.21s2.77,0.24,3.14-0.24
			c0.36-0.48,0.36-4.94,0.24-5.79c-0.12-0.84-0.96-1.81-0.96-3.14"/>
		<path style="&st0;" d="M89.42,78.4c0.87,0.44,2.41,1.45,2.77,1.81c0.36,0.36,1.33,0.12,0.72-0.84c-0.6-0.96-2.89-3.5-3.74-3.38
			c-0.84,0.12-2.42,0.75-1.81,1.21C87.85,77.56,88.7,78.04,89.42,78.4z"/>
		<circle style="&st2;" cx="91.83" cy="79.13" r="0.72"/> 
		<path style="&st0;" d="M79.29,91.31c1.81,2.65,7.11,9.29,10.25,9.29c3.74,0,9.41-7.48,9.77-9.65c0.36-2.17,2.41-6.99,2.41-9.04
			c0-2.05,0.84-5.31,0.72-6.15c-0.12-0.84-0.96-4.7-1.69-5.67"/>
		<path style="&st0;" d="M100.88,72.98c-0.84,0.48-1.81,1.81-2.17,2.53c1.08-0.72,1.45-1.33,2.53-1.93
			C102.32,72.98,100.88,72.98,100.88,72.98z"/>
		<path style="&st2;" d="M101.84,79.61c-0.84,0.36-1.81,0.48-2.65,0.48c1.33-1.09,2.29-1.57,2.77-2.17
			C101.96,79.01,101.96,79.25,101.84,79.61z"/>
		<path style="&st0;" d="M88.09,90.82c0.6,0.48,2.89,3.26,3.86,3.26c0.96,0,0.84-0.84,0.84-1.45"/>
		<path style="&st2;" d="M94.25,89.62c1.33-0.1,1.21,1.21,0,1.21c0,0-1.81,0.72-2.65,0.72s-2.77-0.12-3.5-0.72
			C89.3,90.58,92.68,89.74,94.25,89.62z"/>
		<path style="&st0;" d="M96.66,97.34c-0.12,1.45-5.31,5.55-7.48,5.43c-2.17-0.12-6.39-0.36-10.61-2.65
			c-4.22-2.29-7.6-7.48-7.6-9.04c0-0.72-0.24-1.45,0.36-2.05"/>
		<path style="&st0;" d="M63.61,91.91c-3.62,0-10.37-0.72-13.02-0.96"/>
		<polyline style="&st0;" points="132.59,75.75 132.35,81.3 125.6,79.25 "/>
		<path style="&st2;" d="M85.56,153.17l-1.21,0.72c0,0-2.42-3.62-2.88-4.35c1.03,0.5,1.57,0.65,2.33,0.8L85.56,153.17z"/>
		<path style="&st0;" d="M48.42,99.02c0-2.65,0.48-8.08,1.09-8.32c0.6-0.24,1.94,1.69,2.53,3.38c1.45,4.1,13.27,32.56,12.54,43.65"
			/>
		<path style="&st0;" d="M69.4,131.82c-0.24,1.21-0.6,6.15-0.84,7.36"/>
		<line style="&st0;" x1="121.26" y1="85.64" x2="126.93" y2="79.49"/>
		<polyline style="&st0;" points="129.7,105.54 142.12,103 135.85,99.02 "/>
		<polyline style="&st0;" points="133.8,75.39 144.05,82.5 136.33,95.89 "/>
		<line style="&st0;" x1="136.21" y1="77.32" x2="136.33" y2="96.73"/>
		<polyline style="&st0;" points="131.99,96.73 138.26,96.49 130.06,103.24 "/>
		<polyline style="&st0;" points="120.65,86.24 132.23,87.45 131.63,101.56 "/>
		<polyline style="&st0;" points="124.27,86.6 128.01,97.7 122.22,98.54 118.97,89.01 "/>
		<polyline style="&st0;" points="118.12,99.51 123.55,107.1 129.58,102.16 128.61,98.54 124.15,98.3 "/>
		<polyline style="&st0;" points="127.77,113.37 123.79,128.21 118,109.76 128.85,113.37 129.58,102.16 "/>
		<line style="&st0;" x1="112.58" y1="100.47" x2="118" y2="109.76"/>
		<line style="&st0;" x1="97.62" y1="94.32" x2="131.51" y2="150.88"/>
		<line style="&st0;" x1="138.74" y1="160.04" x2="160.22" y2="195.93"/>
		<line style="&st0;" x1="137.66" y1="161.61" x2="158.79" y2="196.88"/>
		<polyline style="&st0;" points="100.4,94.8 108.47,94.68 100.27,87.45 "/>
		<polyline style="&st0;" points="107.51,79.85 104.5,82.62 102.08,80.94 "/>
		<line style="&st0;" x1="102.45" y1="76.47" x2="107.51" y2="79.85"/>
		<line style="&st0;" x1="110.4" y1="75.51" x2="107.51" y2="79.85"/>
		<line style="&st0;" x1="104.5" y1="82.62" x2="106.3" y2="92.75"/>
		<polyline style="&st0;" points="111.49,95.17 117.76,101.19 119.57,93.72 110.04,87.57 "/>
		<polyline style="&st0;" points="122.22,98.54 121.14,99.51 118.12,99.51 "/>
		<polyline style="&st0;" points="109.92,103.79 112.58,100.47 108.47,80.81 "/>
		<path style="&st0;" d="M117.04,122.78c0.12-3.26-1.57-12.66-3.86-16.28"/>
		<path style="&st0;" d="M100.64,113.13c0.48-2.41,1.81-7.48,2.65-9.41"/>
		<path style="&st0;" d="M107.25,110.44c-1.27,3.75-3.15,10.65-3.6,12.09"/>
		<path style="&st0;" d="M104.13,101.68c1.33-3.01,2.77-6.99,3.98-6.99c1.33,0,1.93,5.66,1.93,7.24c0,2.05-0.96,5.19-1.81,6.15"/>
		<line style="&st0;" x1="105.33" y1="99.46" x2="110.16" y2="103.49"/>
		<line style="&st0;" x1="104.62" y1="102.52" x2="108.96" y2="106.26"/>
		<line style="&st0;" x1="102.45" y1="106.74" x2="107.15" y2="110.84"/>
		<line style="&st0;" x1="101.67" y1="109.44" x2="106.3" y2="113.37"/>
		<line style="&st0;" x1="101.1" y1="111.88" x2="105.52" y2="115.73"/>
		<line style="&st0;" x1="101.58" y1="115.69" x2="104.68" y2="118.44"/>
		<path style="&st0;" d="M68.44,159.92c2.89,0,10.61,6.75,16.64,6.75c6.03,0,13.75-4.1,17.12-4.1"/>
		<line style="&st0;" x1="48.31" y1="99.36" x2="53.48" y2="98.66"/>
		<line style="&st0;" x1="50.03" y1="102.16" x2="54.69" y2="101.56"/>
		<line style="&st0;" x1="51.92" y1="105.54" x2="55.9" y2="104.93"/>
		<line style="&st0;" x1="53.54" y1="108.49" x2="57.34" y2="108.07"/>
		<line style="&st0;" x1="54.75" y1="111.38" x2="58.31" y2="110.96"/>
		<line style="&st0;" x1="55.9" y1="114.28" x2="59.51" y2="113.86"/>
		<line style="&st0;" x1="56.98" y1="117.17" x2="60.24" y2="116.75"/>
		<line style="&st0;" x1="57.95" y1="119.83" x2="61.08" y2="119.46"/>
		<line style="&st0;" x1="58.25" y1="123.81" x2="62.17" y2="123.26"/>
		<line style="&st0;" x1="60.6" y1="128.03" x2="63.31" y2="127.66"/>
		<line style="&st0;" x1="61.38" y1="131.1" x2="63.86" y2="130.8"/>
		<line style="&st0;" x1="62.11" y1="134.3" x2="64.4" y2="134"/>
		<path style="&st0;" d="M58.31,121.33c1.75,3.38,3.86,13.51,4.58,16.16"/>
		<path style="&st0;" d="M25.51,148.1c0,12.06-5.55,36.42-8.68,45.1c-2.03,5.61-2.89,8.68-2.89,11.34c0,1.69-0.36,3.44,1.93,4.58
			c0.96,0.48,24.6,19.05,36.18,19.05c0-6.27,0.24-10.85,0.24-14.47c0-3.62,1.21-20.26,1.21-22.67c0-2.41,2.65-17.37,3.14-20.74
			c0.48-3.38,2.17-17.37,2.41-20.26c0.24-2.92,2.89-12.54,3.86-12.54c0.96,0,2.89,0.72,2.89,2.41"/>
		<path style="&st0;" d="M124.63,135.8c2.41,0,5.91,4.94,5.91,7.96"/>
		<path style="&st0;" d="M107.63,122.78c0.48,1.93,6.29,6.63,11.21,7.12"/>
		<path style="&st0;" d="M123.79,128.21c0.48,1.81,0.72,4.7,0.36,6.51"/>
		<path style="&st0;" d="M24.72,157.45c-6.75,1.55-13.59,2.87-20.43,4.03c-1.25,0.21-2.5,0.42-3.75,0.62
			c-0.24,1.15,0.54,5.12,1.02,5.61c1.14-0.21,2.45-0.46,3.86-0.74c6.04-1.19,13.99-2.92,18.38-4.09"/>
		<path style="&st2;" d="M24.72,157.45c-3.68,0.84-16.58,3.5-20.43,4.03c-0.24,1.15,0.48,5.64,1.14,5.49
			c3.43-0.77,12.78-2.76,18.38-4.09C24.06,162.09,24.6,158.36,24.72,157.45z"/>
		<path style="&st0;" d="M53.24,204.3c0,2.89,2.41-5.07,3.86-7.96c0.96-1.93,2.05-11.46,2.05-15.8"/>
		<path style="&st0;" d="M62.17,163.06c0,2.17-2.17,10.85-2.17,13.26s-4.1,13.99-6.51,14.71"/>
		<path style="&st0;" d="M66.99,149.31c0.24,1.93-2.41,6.75-3.62,6.75c-1.21,0-0.72-5.79-0.72-7.48s2.41-8.44,4.1-8.68"/>
		<path style="&st0;" d="M57.52,162.82c0.42,0.12,3.56,1.02,4.46,1.33"/>
		<path style="&st0;" d="M57.22,165.65c0.38,0.11,2.92,0.84,4.1,1.21"/>
		<path style="&st0;" d="M57.09,169.11c1.1,0.32,3.06,0.89,3.75,1.12"/>
		<path style="&st0;" d="M56.51,172.31c1.1,0.32,3.05,0.89,3.73,1.12"/>
		<path style="&st0;" d="M56.02,175.53c1.11,0.32,3,0.88,3.67,1.1"/>
		<path style="&st0;" d="M55.42,178.89c1.1,0.32,3.05,0.89,3.73,1.12"/>
		<path style="&st0;" d="M54.86,182.15c1.13,0.33,2.58,0.76,3.08,0.93"/>
		<path style="&st0;" d="M54.33,186.14c0.9,0.26,1.81,0.54,2.23,0.68"/>
		<path style="&st0;" d="M68.68,150.52c0,1.93-3.86,9.41-5.31,9.41c-1.45,0-2.89-6.75-2.65-8.92s2.41-12.06,3.62-12.06
			c1.21,0,1.45,0.24,2.41,0.96"/>
		<path style="&st0;" d="M64.1,162.82c0,4.58,0.96,37.87,0.96,47.27s-9.84,15.15-13.51,19.05c-3.86,4.1-11.34,20.5-13.02,22.19
			c-1.69,1.69-0.96,2.65,0.48,2.89c0.75,0.12,8.83,1.47,17.21,1.54c7.84,0.07,15.93-1.09,18.49-2.03
			c5.31-1.93,12.78-5.31,14.47-6.99"/>
		<path style="&st0;" d="M58.79,152.45c0,5.79,2.17,10.61,4.1,10.61c2.42,0,5.06-8.2,5.06-9.65"/>
		<path style="&st0;" d="M33.23,220.46c0,3.86-0.96,12.3-1.93,13.99"/>
		<path style="&st0;" d="M32.26,226.97c-2.89,2.89-12.4,11.63-13.35,12.38c-1.61,1.29-0.88,1.85,0.56,1.85c1.45,0,8.44,0.24,10.61,0
			s12.3-1.69,13.99-1.93"/>
		<path style="&st0;" d="M65.06,224.4c-0.64,2.73-10.93,15.6-13.35,16.08"/>
		<path style="&st0;" d="M80.18,251.57c2.57,0.32,8.2,1.29,10.77,1.29"/>
		<path style="&st0;" d="M50.91,259.61c3.38,0,11.82,3.14,13.67,4.98c0.72,0.72,0.88,1.57,0.8,2.41"/>
		<path style="&st0;" d="M52.68,261.86c3.38,0,11.07,3.1,12.7,5.15c1.01-0.6,2.09-0.72,2.57-0.6c0.48,0.12,2.41,2.29,2.89,3.02
			c0.48,0.72-0.48,2.17-1.33,1.93s-3.26-3.38-3.86-3.74"/>
		<path style="&st0;" d="M62.97,255.59c0,1.61,1.12,6.59,1.12,8.16"/>
		<path style="&st0;" d="M63.98,261.46c1.81,0.24,3.02,2.53,3.02,4.46"/>
		<path style="&st0;" d="M68.68,271.11c0.24,0.6-1.29,1.69-2.33,1.69c-2.57,0-4.82-2.09-5.95-3.06
			c-1.13-0.96-12.86-12.38-14.31-14.31"/>
		<path style="&st0;" d="M68.92,271.71c0,0.96-0.88,2.37-2.73,2.37c-2.73,0-4.98-0.64-6.27-1.77s-16.08-15.92-17.37-17.69"/>
		<path style="&st0;" d="M90.87,247.23c0,1.08,0.72,8.68,0.72,9.77c0,1.09-0.6,6.75-0.6,8.08s1.33,2.29,2.89,2.29
			c2.17,0,13.14,0,14.95,0c1.81,0,7.6,2.89,11.21,2.89c3.62,0,5.06-2.65,5.06-3.38"/>
		<path style="&st0;" d="M91.47,264.36c2.05,0,15.38-0.13,17.12,0.36c0.84,0.24,3.98,1.33,5.43,1.93c1.45,0.6,4.94,1.09,6.39,1.09
			c1.81,0,4.22,0,4.7-0.84c0.19-0.33,0.19-1.83-0.8-2c-1.01-0.17-1.62-0.08-2.21-0.17"/>
		<path style="&st0;" d="M103.17,245.66c0.12,1.21,0.48,7.6,0.36,9.29"/>
		<path style="&st0;" d="M103.89,252.3c0.96,0.36,8.03,5.83,9.29,6.39c1.08,0.48,2.41,2.17,2.65,2.65"/>
		<path style="&st0;" d="M109.92,264.72c0-0.96,3.98-3.38,5.19-3.38s2.51,0.17,2.89,0.48"/>
		<path style="&st0;" d="M112.09,265.68c0.96-0.84,3.26-2.89,4.34-3.01c1.09-0.12,2.05-0.24,2.65,0c0.6,0.24,2.77,1.94,3.01,2.05
			c2.29,1.08,3.03-1.6,1.33-2.53c-1.33-0.72-4.34-2.17-6.27-2.29"/>
		<path style="&st0;" d="M112.21,257.84c1.33,0,2.65,0.12,3.62,0.36s1.93,2.53,2.29,3.01"/>
		<path style="&st0;" d="M103.41,251.45c2.65-0.12,10.97-4.1,10.97-6.39c0-1.81-3.98-2.65-7.12-2.65c-3.13,0-9.41,1.86-14.11,1.93
			c-8.44,0.12-15.19-3.74-19.42-4.82c-0.7-0.18-0.89-0.48-0.84-1.45c0.24-4.94,0.84-8.92,0.84-13.63s-0.24-10.01-0.24-15.32"/>
		<path style="&st0;" d="M103.77,249.04c1.81-0.48,7.12-2.77,7.12-3.62c0-0.6-0.84-1.21-2.53-1.21c-2.77,0-12.06,2.19-14.71,2.29
			c-9.53,0.36-20.5-5.19-21.95-5.43c-1.31-0.22-2.05-0.6-2.05-1.33c0-3.5,1.33-8.08,1.33-12.9c0-4.94,0.12-7.6,0.12-18.21"/>
		<path style="&st0;" d="M115.69,154.73c-0.58-3.02-2.08-5.18-3.84-5.18c-2.26,0-4.1,3.56-4.1,7.96c0,4.4,1.84,7.96,4.1,7.96
			c1.69,0,3.14-1.98,3.77-4.82"/>
		<path style="&st0;" d="M111.72,154.5c-0.67,0-1.21,1.35-1.21,3.01s0.54,3.01,1.21,3.01"/>
		<ellipse style="&st0;" cx="150.67" cy="160.28" rx="1.21" ry="3.01"/> 
		<path style="&st0;" d="M121.85,160.65c-0.67,0-1.21-1.11-1.21-2.77c0-1.67,0.54-2.53,1.21-2.53"/>
		<path style="&st0;" d="M119.33,160.65c-0.67,0-1.21-1.35-1.21-3.01c0-1.67,0.54-2.53,1.21-2.53"/>
		<path style="&st0;" d="M114.15,160.28c-0.67,0-1.21-1.35-1.21-3.01c0-1.66,1.03-2.53,1.7-2.53"/>
		<path style="&st0;" d="M147.31,162.94c-0.67,0-1.45-1.11-1.45-2.77s0.54-3.01,1.21-3.01"/>
		<path style="&st0;" d="M142.48,162.46c-0.67,0-1.45-1.11-1.45-2.77s0.54-3.01,1.21-3.01"/>
		<path style="&st0;" d="M115.23,172.95c-4.58,0-8.68-2.89-10.85-4.34"/>
		<path style="&st0;" d="M123.43,138.22c-0.96,2.89-1.45,6.99-1.45,9.41c0,2.41,0,5.31,0.24,7"/>
		<path style="&st0;" d="M122.95,161.13c0.36,3.01,1.21,10.37,1.21,13.99c0,3.62,0.96,10.61,0.96,16.88
			c0,7.72-2.41,29.18-6.75,28.94c-2.17-0.12-6.75-3.86-8.92-6.75"/>
		<path style="&st0;" d="M123.67,208.88c5.79-3.13,8.92-10.13,8.92-19.29c0-7.48-0.96-21.71-3.13-27.74"/>
		<ellipse style="&st0;" cx="159.67" cy="196.52" rx="0.84" ry="0.9"/> 
		<path style="&st0;" d="M120.78,217.81c4.34-1.69,10.37-9.41,10.37-17.85"/>
		<path style="&st0;" d="M91.59,165.71c2.89,0,9.65,0.12,12.3,0.12c2.29-1.09,3.5-10.01,3.5-15.8c0-19.54-5.31-34.25-10.61-45.34"/>
		<path style="&st0;" d="M64.82,161.61c3.14,0.48,8.68,2.89,12.78,3.38"/>
		<path style="&st0;" d="M66.99,162.33c0,2.65,1.69,21.22,1.69,24.84c0,3.62,1.21,15.68,1.21,17.61s0.96,4.34,3.62,4.34
			c2.65,0,11.58,0.96,15.44,0.96c3.86,0,13.75,0,15.2,0c1.45,0,1.93-0.96,1.93-1.69c0-0.72-0.48-11.82-1.21-14.23
			c-0.72-2.41-2.17-9.89-2.41-13.26c-0.24-3.38-1.69-10.37-1.69-14.47"/>
		<path style="&st0;" d="M69.4,162.82c0,3.62,0.72,18.33,1.45,21.95c0.72,3.62,1.21,15.44,1.69,18.33s0.72,3.86,2.17,4.1
			s10.61,0.96,14.23,0.96c3.62,0,11.09,0.48,12.78,0.48c1.21,0,1.69-0.72,1.69-2.17c0-1.45,0-9.41-1.21-13.51
			c-1.21-4.1-2.41-13.26-2.89-16.16s-0.96-8.68-0.96-11.09"/>
		<path style="&st0;" d="M103.89,165.83c0.48,4.22,1.21,8.32,1.69,13.14c0.48,4.82,2.83,14.66,3.38,20.26
			c0.96,9.89,0.48,23.64-0.96,34.97"/>
		<path style="&st0;" d="M114.26,244.34c0-6.51-2.89-21.22-3.62-28.7"/>
		<path style="&st0;" d="M125.36,141.35c-1.21,0.48-1.92,5.74-1.45,13.27"/>
		<path style="&st0;" d="M127.05,144.25c-1.45,0-0.96,6.75-0.96,10.37"/>
		<path style="&st0;" d="M126.08,161.13c0.96,10.61,0.24,19.54-0.96,26.77"/>
		<path style="&st0;" d="M139.15,160.19c0.53,0.17,1.04-0.21,1.04-1.54c0-4.07,0.01-7.05-2.29-9.59c-2.41-2.65-5.55-4.34-8.44-4.82"
			/>
		<path style="&st0;" d="M98.71,92.75l34.13,57.04c0.72,1.33,1.33,3.38,3.5,5.06"/>
		<path style="&st0;" d="M126.08,150.76c1.69,1.93,6.95,4.41,8.44,5.31c2.08,1.25,2.73-0.32,0.84-1.69
			c-1.36-0.98-2.29-2.29-3.74-3.38"/>
		<path style="&st0;" d="M124.39,179.82c0.96,0,1.09-0.12,1.69-0.12"/>
		<path style="&st0;" d="M124.39,175.84c0.96,0,1.09-0.12,1.69-0.12"/>
		<path style="&st0;" d="M124.27,172.46c0.96,0,1.08-0.12,1.69-0.12"/>
		<path style="&st0;" d="M124.15,168.97c0.96,0,1.09-0.12,1.69-0.12"/>
		<path style="&st0;" d="M123.43,165.95c0.96,0,2.05-0.12,2.65-0.12"/>
		<path style="&st0;" d="M124.03,163.42c0.96,0,1.57-0.12,2.17-0.12"/>
		<path style="&st0;" d="M124.03,152.33c0.96,0,1.08-0.12,1.69-0.12"/>
		<path style="&st0;" d="M123.79,148.95c0.96,0,1.57-0.12,2.17-0.12"/>
		<path style="&st0;" d="M124.27,144.97c0.96,0,1.57-0.12,2.17-0.12"/>
		<path style="&st0;" d="M123.91,161.01c0,0.96,0,4.94,0,7.12"/>
		<path style="&st0;" d="M140.19,162.21c3.44,0.33,8.1,0.77,10.48,1.09"/>
		<path style="&st0;" d="M111.72,160.53c6.51,0,17.07,0.69,25.94,1.45"/>
		<path style="&st0;" d="M140.43,156.58c4.81,0.38,9.51,0.7,10.49,0.81"/>
		<path style="&st0;" d="M111.72,154.5c2.59,0.06,12.41,0.76,21.59,1.46"/>
		<path style="&st0;" d="M133.92,150.4"/>
		<path style="&st0;" d="M136.93,160.16c0,0.84,1.4,1.44,1.69,0c0.6-3.01,0.36-5.19,0-6.87"/>
		<path style="&st0;" d="M135.25,158.96c-0.12,0.96,1.31,2.23,1.81,0.24c0.36-1.45,0.36-4.7,0-6.15"/>
		<path style="&st0;" d="M134.16,155.82c-0.24,1.09-0.36,1.93-0.72,2.77c-0.39,0.91,1.21,1.45,1.81,0.36
			c0.39-0.71,0.6-1.45,0.72-2.29"/>
		<path style="&st0;" d="M128.25,158.23c2.17,0,3.5,0.12,4.34,0.24"/>
		<path style="&st0;" d="M75.43,164.75c0,2.65-0.48,8.44-0.48,12.3s0.82,13.55,1.69,16.16c0.48,1.45,0.73,1.57,1.93,1.69
			c2.41,0.24,5.79,0.24,7.24,0.24"/>
		<path style="&st2;" d="M77.6,164.75c0,2.17-0.72,8.92-0.96,11.58c-0.24,2.65,1.21,12.06,1.21,13.27c0,1.21,0.24,2.17,1.21,2.41
			s2.65,0.24,4.1,0.24c0-2.17-0.48-9.65-0.48-12.54c0-2.89,0-9.89,0.24-13.02C80.74,166.43,79.29,165.95,77.6,164.75z"/>
		<path style="&st0;" d="M85.08,167.4c0.24,2.89,0.96,17.85,0.96,21.71c0,3.86,0.24,6.99,0.24,7.96s0,1.69,0.96,1.69
			c0.96,0,6.51,0.24,8.44,0.24c0-4.34,0.2-10.36,0.24-13.02c0.06-3.56-1.21-17.85-1.21-19.78"/>
		<path style="&st2;" d="M87.73,166.43c0.27,4.09,0.96,10.13,0.96,13.75c0,3.62,0,13.99,0,15.44s0,1.21,0.96,1.21
			s1.69,0.24,2.89,0.24c0.72,0,1.51-0.12,1.51-1.09s-0.19-8.32-0.06-11.21c0.18-4.16-1.03-16.7-1.45-19.05
			C90.99,166.25,90.14,166.19,87.73,166.43z"/>
		<path style="&st2;" d="M64.34,166.19c1.08,0,1.91,0,2.59,0"/>
		<path style="&st2;" d="M64.58,169.57c1.08,0,1.91,0,2.59,0"/>
		<path style="&st2;" d="M64.58,172.95c1.27,0,2.21,0,2.95,0"/>
		<path style="&st2;" d="M64.52,177.11c1.61,0,2.62-0.02,3.38-0.04"/>
		<path style="&st2;" d="M64.58,180.67c1.65,0,2.74,0,3.56,0"/>
		<path style="&st2;" d="M64.82,184.52c1.61,0,2.68,0,3.5,0"/>
		<path style="&st2;" d="M64.88,188.38c1.95,0,2.96,0,3.74,0"/>
		<path style="&st2;" d="M64.82,191.52c1.9,0,3.06,0,3.92,0"/>
		<path style="&st2;" d="M65.06,194.65c1.9,0,3.06,0,3.92,0"/>
		<path style="&st2;" d="M65.3,198.27c1.95,0,3.11,0,3.98,0"/>
		<path style="&st2;" d="M65.3,201.65c2.13,0,3.33,0,4.22,0"/>
		<path style="&st2;" d="M65.3,204.78c2.23,0,3.44,0,4.34,0"/>
		<path style="&st2;" d="M65.3,207.68c2.65,0,3.86,0,4.82,0"/>
		<path style="&st2;" d="M65.06,211.78c2.65,0,4.82,0,5.79,0"/>
		<path style="&st2;" d="M64.58,214.43c2.65,0,5.31,0,6.27,0"/>
		<path style="&st2;" d="M63.13,217.81c2.65,0,6.75,0,7.72,0"/>
		<path style="&st2;" d="M60.72,220.7c2.65,0,9.23,0.18,10.19,0.18"/>
		<path style="&st2;" d="M58.31,223.35c2.65,0,11.58,0.24,12.54,0.24"/>
		<path style="&st0;" d="M55.41,226.01c2.65,0,14.47,0.48,15.44,0.48"/>
		<path style="&st0;" d="M52.04,228.9c2.65,0,17.85,0.48,18.81,0.48"/>
		<path style="&st0;" d="M49.38,232.04c2.65,0,19.9,0.84,20.86,0.84"/>
		<path style="&st0;" d="M47.7,235.17c2.65,0,20.98,1.33,21.95,1.33"/>
		<path style="&st0;" d="M46.01,238.31c4.34,0.24,22.67,1.45,23.64,1.45"/>
		<path style="&st0;" d="M44.56,241.68c3.74,0.36,24.12,0.72,30.15,0.48"/>
		<path style="&st0;" d="M42.87,244.34c7.48,0.6,31.84,0.12,36.3-0.24"/>
		<path style="&st0;" d="M41.43,247.23c5.55,0.24,38.59,0,41.6-1.93"/>
		<path style="&st0;" d="M39.74,249.88c2.65,0,36.66,0.24,41.72-1.21"/>
		<path style="&st0;" d="M38.29,252.05c4.34,0.48,33.65-0.12,36.06-0.48"/>
		<path style="&st0;" d="M85.56,246.03c-1.93,1.69-7.72,5.67-16.4,6.75c-8.68,1.09-25.44,0.36-29.42-0.48"/>
		<path style="&st0;" d="M90.99,251.09c-2.05,0-4.1-0.84-5.31-1.33"/>
		<path style="&st0;" d="M87.73,248.08c1.09,0,1.93,0.12,2.77,0.12"/>
		<path style="&st0;" d="M103.77,245.54c1.45,0,5.67-0.24,6.75-0.24"/>
		<path style="&st0;" d="M79.53,241.44c2.41,0,24.12,0.96,26.29,0.96"/>
		<path style="&st0;" d="M110.65,242.65c0.96,0,2.47-0.12,3.14-0.24"/>
		<path style="&st0;" d="M73.26,238.55c3.5,0.06,36.9,0.72,40.28,0.72"/>
		<path style="&st0;" d="M73.5,235.41c3.14,0,34.97,1.45,39.8,1.45"/>
		<path style="&st0;" d="M73.26,232.76c4.1,0,33.77,0.96,39.55,0.96"/>
		<path style="&st0;" d="M73.74,230.11c6.99,0,31.59,0.72,38.83,0.72"/>
		<path style="&st0;" d="M73.74,226.49c4.22,0.3,32.8,0.96,38.59,0.96"/>
		<path style="&st0;" d="M73.74,223.35c6.51,0.48,34.01,1.21,38.11,1.45"/>
		<path style="&st0;" d="M73.74,220.7c8.2,0.96,33.04,1.69,37.62,1.69"/>
		<path style="&st0;" d="M73.99,218.29c3.14,0.48,33.04,0.96,36.42,0.96"/>
		<path style="&st0;" d="M73.99,215.64c5.31,0.48,30.15,0.96,36.66,0.96"/>
		<path style="&st0;" d="M73.74,212.74c3.86,0.24,29.67,0.72,35.45,0.72"/>
		<path style="&st0;" d="M106.06,208.4c1.21,0,2.65,0,3.38,0"/>
		<path style="&st0;" d="M106.3,204.78c1.21,0,2.17,0,2.89,0"/>
		<path style="&st0;" d="M106.06,201.17c1.21,0,2.17,0,2.89,0"/>
		<path style="&st0;" d="M105.34,197.31c1.21,0,2.65,0,3.38,0"/>
		<path style="&st0;" d="M104.86,193.93c1.21,0,2.47,0.06,3.2,0.06"/>
		<path style="&st0;" d="M104.13,190.31c1.21,0,2.65,0,3.38,0"/>
		<path style="&st0;" d="M103.65,186.69c1.21,0,2.17,0,2.89,0"/>
		<path style="&st0;" d="M102.69,183.32c1.21,0,2.65,0,3.38,0"/>
		<path style="&st0;" d="M102.45,179.94c1.21,0,2.17,0,2.89,0"/>
		<path style="&st0;" d="M102.2,176.08c1.21,0,2.17,0,2.89,0"/>
		<path style="&st0;" d="M101.48,172.46c1.21,0,2.17,0,2.89,0"/>
		<path style="&st0;" d="M101.24,169.33c1.21,0,2.17,0,2.89,0"/>
		<path style="&st0;" d="M135.49,154.25c0-0.84-0.12-0.96-0.12-1.45"/>
	</g>
</svg>
