<?xml version="1.0" encoding="iso-8859-1"?>
<!-- Generator: Adobe Illustrator 11 Build 196, SVG Export Plug-In . SVG Version: 6.0.0 Build 78)  -->
<!DOCTYPE svg PUBLIC "-//W3C//DTD SVG 1.0//EN"    "http://www.w3.org/TR/2001/REC-SVG-20010904/DTD/svg10.dtd" [
	<!ENTITY ns_flows "http://ns.adobe.com/Flows/1.0/">
	<!ENTITY ns_svg "http://www.w3.org/2000/svg">
	<!ENTITY ns_xlink "http://www.w3.org/1999/xlink">
	<!ENTITY st0 "fill:none;stroke:#000000;stroke-linecap:round;stroke-linejoin:round;">
	<!ENTITY st1 "font-family:'MyriadPro-Regular';">
	<!ENTITY st2 "fill:none;stroke:#000000;stroke-width:0.5;stroke-miterlimit:2;">
	<!ENTITY st3 "fill:none;stroke:#000000;stroke-width:0.5;stroke-linecap:round;stroke-linejoin:round;">
	<!ENTITY st4 "fill:none;stroke:#000000;stroke-width:0.5;stroke-linecap:round;stroke-linejoin:round;stroke-miterlimit:2;">
	<!ENTITY st5 "font-size:13;">
	<!ENTITY st6 "font-family:'HiraKakuPro-W3-83pv-RKSJ-H';adobe-font-script:japanese;">
]>
<svg  xmlns="&ns_svg;" xmlns:xlink="&ns_xlink;" xmlns:a="http://ns.adobe.com/AdobeSVGViewerExtensions/3.0/"
	 width="256.51" height="188.01" viewBox="0 0 256.51 188.01" style="overflow:visible;enable-background:new 0 0 256.51 188.01"
	 xml:space="preserve">
	<g id="Pfade">
		<rect x="15.5" y="64.01" style="&st0;" width="36.5" height="9.5"/> 
		<path style="&st0;" d="M63,63.51v-14c0-1.93-2.91-3.5-6.5-3.5s-6.5,1.57-6.5,3.5v14"/>
		<line style="&st0;" x1="63" y1="73.51" x2="63" y2="187.51"/>
		<line style="&st0;" x1="50" y1="187.51" x2="50" y2="73.51"/>
		<line style="&st0;" x1="235.5" y1="187.51" x2="7.5" y2="187.51"/>
		<rect x="191" y="64.01" style="&st0;" width="36.5" height="9.5"/> 
		<rect x="61.25" y="64.01" style="&st0;" width="120.5" height="9.5"/> 
		<path style="&st0;" d="M180,63.51v-14c0-1.93,2.91-3.5,6.5-3.5s6.5,1.57,6.5,3.5v14"/>
		<line style="&st0;" x1="180" y1="73.51" x2="180" y2="187.51"/>
		<line style="&st0;" x1="193" y1="187.51" x2="193" y2="73.51"/>
		<polyline style="&st0;" points="192.54,48.01 242.5,48.01 242.5,34.51 0.5,34.51 0.5,48.01 50.46,48.01 "/>
		<line style="&st0;" x1="180.49" y1="48.01" x2="62.51" y2="48.01"/>
		<line style="&st3;" x1="64" y1="46.51" x2="179.5" y2="46.51"/>
		<line style="&st3;" x1="2" y1="46.51" x2="49" y2="46.51"/>
		<line style="&st3;" x1="194" y1="46.51" x2="241" y2="46.51"/>
	</g>
	<g id="Beschriftung">
		<line style="&st4;" x1="189" y1="109.21" x2="214.5" y2="109.51"/>
		<line style="&st2;" x1="121.5" y1="98.18" x2="121.5" y2="68.76"/>
		<line style="&st4;" x1="121.5" y1="41.26" x2="157" y2="10.76"/>
	</g>
	<g id="Text">
		<text transform="matrix(1 0 0 1 160.0381 10.8809)"><tspan x="0" y="0" style="&st1; &st5;">k</tspan><tspan x="6.33" y="0" style="&st1; &st5;">asa</tspan><tspan x="24.01" y="0" style="&st1; &st5;">g</tspan><tspan x="31.2" y="0" style="&st1; &st5;">i </tspan><tspan x="0" y="15.6" style="&st1; &st5;">(</tspan><tspan x="3.69" y="15.6" style="&st6; &st5;">&#x7B20;&#x6728;</tspan><tspan x="29.69" y="15.6" style="&st1; &st5;">)</tspan></text>
		<text transform="matrix(1 0 0 1 217.1709 109.9463)"><tspan x="0" y="0" style="&st1; &st5;">hashi</tspan><tspan x="28.89" y="0" style="&st1; &st5;">r</tspan><tspan x="33.07" y="0" style="&st1; &st5;">a</tspan><tspan x="0" y="15.6" style="&st1; &st5;">(</tspan><tspan x="3.69" y="15.6" style="&st6; &st5;">&#x67F1;</tspan><tspan x="16.69" y="15.6" style="&st1; &st5;">)</tspan></text>
		<text transform="matrix(1 0 0 1 98.0264 110.2002)"><tspan x="0" y="0" style="&st1; &st5;">nu</tspan><tspan x="14.38" y="0" style="&st1; &st5;">k</tspan><tspan x="20.7" y="0" style="&st1; &st5;">i (</tspan><tspan x="30.19" y="0" style="&st6; &st5;">&#x8CAB;</tspan><tspan x="43.19" y="0" style="&st1; &st5;">)</tspan></text>
	</g>
	<g id="Text_Outlines">
		<g>
			<path d="M162.13,7.47h0.03c0.16-0.22,0.36-0.49,0.55-0.71l1.86-2.17h1.37l-2.43,2.59l2.77,3.71h-1.39l-2.16-3.02l-0.59,0.65v2.37
				h-1.14V1.65h1.14V7.47z"/>
			<path d="M171.75,9.37c0,0.55,0.03,1.08,0.09,1.51h-1.03l-0.1-0.79h-0.04c-0.34,0.49-1.03,0.94-1.92,0.94
				c-1.27,0-1.92-0.9-1.92-1.81c0-1.52,1.35-2.35,3.78-2.34V6.75c0-0.52-0.14-1.47-1.43-1.46c-0.6,0-1.21,0.17-1.65,0.47l-0.26-0.77
				c0.52-0.32,1.29-0.55,2.08-0.55c1.94,0,2.4,1.31,2.4,2.57V9.37z M170.63,7.67c-1.25-0.03-2.67,0.19-2.67,1.42
				c0,0.75,0.49,1.09,1.07,1.09c0.83,0,1.37-0.52,1.55-1.05c0.04-0.12,0.05-0.25,0.05-0.36V7.67z"/>
			<path d="M173.43,9.71c0.35,0.21,0.95,0.44,1.52,0.44c0.82,0,1.21-0.4,1.21-0.94c0-0.55-0.33-0.83-1.16-1.14
				c-1.14-0.42-1.68-1.04-1.68-1.78c0-1.01,0.83-1.85,2.17-1.85c0.64,0,1.2,0.17,1.54,0.39l-0.27,0.82
				c-0.25-0.14-0.7-0.36-1.29-0.36c-0.68,0-1.04,0.39-1.04,0.86c0,0.52,0.36,0.75,1.18,1.08c1.08,0.4,1.65,0.95,1.65,1.88
				c0,1.12-0.87,1.9-2.34,1.9c-0.69,0-1.33-0.18-1.77-0.44L173.43,9.71z"/>
			<path d="M183.17,9.37c0,0.55,0.03,1.08,0.09,1.51h-1.03l-0.1-0.79h-0.04c-0.34,0.49-1.03,0.94-1.92,0.94
				c-1.27,0-1.92-0.9-1.92-1.81c0-1.52,1.35-2.35,3.78-2.34V6.75c0-0.52-0.14-1.47-1.43-1.46c-0.6,0-1.21,0.17-1.65,0.47l-0.26-0.77
				c0.52-0.32,1.29-0.55,2.08-0.55c1.94,0,2.41,1.31,2.41,2.57V9.37z M182.05,7.67c-1.25-0.03-2.67,0.19-2.67,1.42
				c0,0.75,0.49,1.09,1.07,1.09c0.83,0,1.37-0.52,1.55-1.05c0.04-0.12,0.05-0.25,0.05-0.36V7.67z"/>
			<path d="M190.38,9.96c0,1.46-0.3,2.33-0.9,2.89c-0.62,0.56-1.51,0.75-2.3,0.75c-0.75,0-1.59-0.18-2.09-0.52l0.29-0.88
				c0.42,0.27,1.07,0.51,1.85,0.51c1.17,0,2.03-0.61,2.03-2.21V9.8h-0.03c-0.34,0.58-1.03,1.05-2,1.05c-1.56,0-2.68-1.33-2.68-3.08
				c0-2.13,1.39-3.33,2.85-3.33c1.09,0,1.68,0.56,1.96,1.09h0.03l0.04-0.95h1.01c-0.04,0.44-0.05,0.96-0.05,1.72V9.96z M189.24,7.06
				c0-0.18-0.01-0.35-0.06-0.51c-0.21-0.68-0.75-1.22-1.6-1.22c-1.09,0-1.87,0.92-1.87,2.39c0,1.22,0.64,2.26,1.86,2.26
				c0.71,0,1.35-0.44,1.59-1.18c0.07-0.18,0.09-0.4,0.09-0.61V7.06z"/>
			<path d="M192.73,3.52c-0.42,0-0.69-0.33-0.69-0.7c0-0.4,0.29-0.71,0.72-0.71c0.42,0,0.7,0.31,0.7,0.71c0,0.38-0.27,0.7-0.71,0.7
				H192.73z M192.19,10.88V4.59h1.14v6.29H192.19z"/>
			<path d="M163.46,17.46c-0.95,1.29-1.62,2.96-1.62,5.33c0,2.31,0.71,3.96,1.62,5.26h-0.88c-0.82-1.08-1.7-2.74-1.7-5.28
				c0.01-2.55,0.88-4.23,1.7-5.32H163.46z"/>
			<path d="M166.27,18.08c-0.49,0.74-0.82,1.16-1.31,1.64c-0.22-0.26-0.26-0.29-0.65-0.53c0.72-0.65,0.99-0.98,1.4-1.62
				s0.6-1.08,0.81-1.86l0.86,0.23c-0.4,0.9-0.44,0.98-0.68,1.42h2.28c0.52,0,0.77-0.01,1.09-0.06v0.83
				c-0.34-0.03-0.61-0.04-1.04-0.04h-0.92c0.29,0.61,0.42,0.94,0.69,1.69l-0.81,0.26c-0.22-0.79-0.38-1.25-0.7-1.95H166.27z
				 M170.98,26.03c0.71-1.2,1.12-2.17,1.6-3.89l0.83,0.32c-0.57,1.69-0.91,2.44-1.55,3.56h2.77c0.6,0,1.04-0.03,1.39-0.08v0.94
				c-0.43-0.06-0.87-0.09-1.39-0.09h-8.76c-0.53,0-0.99,0.03-1.43,0.09v-0.94c0.31,0.05,0.81,0.08,1.43,0.08H170.98z M169.71,20.68
				c0-0.51-0.03-0.79-0.08-1.05h0.98c-0.07,0.27-0.08,0.53-0.08,1.05v0.42h3.55c0.56,0,0.87-0.01,1.18-0.06v0.87
				c-0.34-0.05-0.66-0.06-1.18-0.06h-7.61c-0.52,0-0.86,0.01-1.2,0.06v-0.87c0.31,0.05,0.64,0.06,1.2,0.06h3.24V20.68z
				 M168.18,25.69c-0.36-1.48-0.57-2.08-1.13-3.21l0.77-0.27c0.6,1.3,0.78,1.78,1.17,3.19L168.18,25.69z M171.28,18.1
				c-0.29,0.49-0.44,0.73-0.87,1.29c-0.26-0.22-0.42-0.31-0.7-0.43c0.82-0.9,1.39-1.99,1.66-3.2l0.86,0.22
				c-0.26,0.68-0.36,0.92-0.57,1.39h3.24c0.53,0,0.79-0.01,1.12-0.07v0.86c-0.33-0.05-0.6-0.07-1.12-0.07h-1.7
				c0.38,0.7,0.56,1.09,0.78,1.72l-0.79,0.27c-0.26-0.86-0.39-1.18-0.78-1.99H171.28z"/>
			<path d="M183.68,19.19c0.77,1.33,1.43,2.24,2.24,3.07c1.04,1.09,2.08,1.89,3.32,2.57c-0.33,0.32-0.44,0.46-0.65,0.82
				c-0.79-0.53-1.12-0.78-1.75-1.34c-1.04-0.91-1.47-1.37-2.16-2.31c-0.43-0.58-0.66-0.98-1.18-1.95c0.04,0.61,0.06,1.2,0.06,1.68
				v4.22c0,0.61,0.03,1.08,0.09,1.5h-1.05c0.07-0.46,0.09-0.9,0.09-1.5v-4.22c0-0.43,0.03-1.09,0.05-1.62
				c-0.68,1.43-1.38,2.44-2.37,3.46c-0.79,0.81-1.57,1.48-2.51,2.13c-0.2-0.31-0.4-0.56-0.66-0.75c1.16-0.7,2.37-1.72,3.3-2.77
				c0.78-0.87,1.34-1.68,2.07-2.98h-3.5c-0.52,0-0.94,0.03-1.43,0.08v-0.94c0.44,0.06,0.86,0.09,1.42,0.09h3.63v-1.44
				c0-0.44-0.03-0.78-0.09-1.2h1.05c-0.06,0.4-0.09,0.78-0.09,1.18v1.46h3.82c0.68,0,1.08-0.03,1.47-0.09v0.94
				c-0.47-0.05-0.96-0.08-1.46-0.08H183.68z"/>
			<path d="M189.99,28.05c0.91-1.29,1.62-2.96,1.62-5.3s-0.7-3.99-1.62-5.29h0.88c0.82,1.07,1.7,2.74,1.7,5.29
				c-0.01,2.55-0.88,4.2-1.7,5.3H189.99z"/>
		</g>
		<g>
			<path d="M218.12,100.72h1.14v3.93h0.03c0.18-0.32,0.47-0.62,0.82-0.8c0.34-0.21,0.74-0.33,1.17-0.33c0.84,0,2.2,0.52,2.2,2.69
				v3.74h-1.14v-3.63c0-1.01-0.38-1.86-1.46-1.86c-0.74,0-1.31,0.52-1.53,1.14c-0.06,0.16-0.08,0.32-0.08,0.55v3.8h-1.14V100.72z"/>
			<path d="M229.77,108.44c0,0.55,0.03,1.08,0.09,1.51h-1.03l-0.1-0.79h-0.04c-0.34,0.49-1.03,0.94-1.92,0.94
				c-1.27,0-1.92-0.9-1.92-1.81c0-1.52,1.35-2.35,3.78-2.34v-0.13c0-0.52-0.14-1.47-1.43-1.46c-0.6,0-1.21,0.17-1.65,0.47
				l-0.26-0.77c0.52-0.33,1.29-0.55,2.08-0.55c1.94,0,2.4,1.31,2.4,2.57V108.44z M228.65,106.74c-1.25-0.03-2.67,0.2-2.67,1.42
				c0,0.75,0.49,1.09,1.07,1.09c0.83,0,1.37-0.52,1.55-1.05c0.04-0.12,0.05-0.25,0.05-0.36V106.74z"/>
			<path d="M231.45,108.78c0.35,0.21,0.95,0.44,1.52,0.44c0.82,0,1.21-0.4,1.21-0.94c0-0.55-0.33-0.83-1.16-1.14
				c-1.14-0.42-1.68-1.04-1.68-1.78c0-1.01,0.83-1.85,2.17-1.85c0.64,0,1.2,0.17,1.53,0.39l-0.27,0.82
				c-0.25-0.14-0.7-0.36-1.29-0.36c-0.68,0-1.04,0.39-1.04,0.86c0,0.52,0.37,0.75,1.18,1.08c1.08,0.4,1.65,0.95,1.65,1.88
				c0,1.12-0.87,1.9-2.34,1.9c-0.69,0-1.33-0.18-1.77-0.44L231.45,108.78z"/>
			<path d="M236.75,100.72h1.14v3.93h0.03c0.18-0.32,0.47-0.62,0.82-0.8c0.34-0.21,0.74-0.33,1.17-0.33c0.84,0,2.2,0.52,2.2,2.69
				v3.74h-1.14v-3.63c0-1.01-0.38-1.86-1.46-1.86c-0.74,0-1.31,0.52-1.53,1.14c-0.06,0.16-0.08,0.32-0.08,0.55v3.8h-1.14V100.72z"/>
			<path d="M244.51,102.59c-0.42,0-0.69-0.33-0.69-0.7c0-0.4,0.29-0.71,0.72-0.71c0.42,0,0.7,0.31,0.7,0.71
				c0,0.38-0.27,0.7-0.71,0.7H244.51z M243.96,109.95v-6.29h1.14v6.29H243.96z"/>
			<path d="M247.01,105.62c0-0.74-0.01-1.38-0.05-1.96h1l0.05,1.24h0.04c0.29-0.85,0.99-1.38,1.75-1.38c0.12,0,0.21,0.01,0.31,0.03
				v1.08c-0.12-0.01-0.23-0.03-0.39-0.03c-0.81,0-1.38,0.61-1.53,1.46c-0.03,0.17-0.04,0.35-0.04,0.53v3.37h-1.14V105.62z"/>
			<path d="M255.62,108.44c0,0.55,0.03,1.08,0.09,1.51h-1.03l-0.1-0.79h-0.04c-0.34,0.49-1.03,0.94-1.92,0.94
				c-1.27,0-1.92-0.9-1.92-1.81c0-1.52,1.35-2.35,3.78-2.34v-0.13c0-0.52-0.14-1.47-1.43-1.46c-0.6,0-1.21,0.17-1.65,0.47
				l-0.26-0.77c0.52-0.33,1.29-0.55,2.08-0.55c1.94,0,2.41,1.31,2.41,2.57V108.44z M254.51,106.74c-1.25-0.03-2.67,0.2-2.67,1.42
				c0,0.75,0.49,1.09,1.07,1.09c0.83,0,1.37-0.52,1.55-1.05c0.04-0.12,0.05-0.25,0.05-0.36V106.74z"/>
			<path d="M220.59,116.52c-0.95,1.29-1.62,2.96-1.62,5.33c0,2.31,0.71,3.96,1.62,5.26h-0.88c-0.82-1.08-1.7-2.74-1.7-5.28
				c0.01-2.55,0.88-4.22,1.7-5.32H220.59z"/>
			<path d="M224.41,117.94c0.48,1.1,0.87,1.69,1.65,2.54c-0.2,0.22-0.29,0.36-0.47,0.74c-0.62-0.86-0.9-1.31-1.27-2.22
				c0.04,1.09,0.05,1.52,0.05,2.26v4.09c0,0.57,0.03,0.9,0.08,1.22h-0.96c0.07-0.34,0.09-0.68,0.09-1.21v-3.85
				c0-0.65,0.01-1.16,0.06-2.35c-0.57,2.04-0.95,2.9-1.83,4.16c-0.26-0.44-0.31-0.51-0.55-0.75c0.95-1.14,1.7-2.73,2.17-4.63h-1.05
				c-0.38,0-0.52,0.01-0.81,0.07v-0.83c0.27,0.05,0.47,0.06,0.88,0.06h1.1v-1.44c0-0.47-0.03-0.74-0.08-1.08h0.96
				c-0.05,0.32-0.08,0.6-0.08,1.09v1.43h0.51c0.39,0,0.57-0.01,0.86-0.06v0.83c-0.3-0.05-0.48-0.07-0.85-0.07H224.41z
				 M227.47,118.15c-0.57,0-0.99,0.03-1.4,0.06v-0.9c0.36,0.05,0.77,0.08,1.4,0.08h4.04c0.62,0,1.03-0.03,1.39-0.08v0.9
				c-0.42-0.05-0.82-0.06-1.4-0.06h-1.94v2.89h1.47c0.64,0,0.99-0.01,1.39-0.07v0.88c-0.42-0.05-0.81-0.06-1.39-0.06h-1.47v3.33
				h2.21c0.55,0,0.96-0.03,1.42-0.08v0.92c-0.46-0.05-0.9-0.08-1.42-0.08h-5.03c-0.52,0-0.94,0.03-1.39,0.08v-0.92
				c0.43,0.05,0.85,0.08,1.4,0.08h1.98v-3.33h-1.11c-0.57,0-1,0.03-1.4,0.06v-0.88c0.4,0.05,0.78,0.07,1.4,0.07h1.11v-2.89H227.47z
				 M230.01,117.08c-0.84-0.7-1.43-1.09-2.48-1.66l0.51-0.6c1.01,0.55,1.61,0.94,2.47,1.59L230.01,117.08z"/>
			<path d="M234.12,127.12c0.91-1.29,1.62-2.96,1.62-5.3s-0.7-3.99-1.62-5.29h0.88c0.82,1.07,1.7,2.74,1.7,5.29
				c-0.01,2.55-0.88,4.2-1.7,5.3H234.12z"/>
		</g>
		<g>
			<path d="M98.98,105.61c0-0.66-0.01-1.18-0.05-1.7h1.01l0.06,1.03h0.03c0.31-0.58,1.04-1.17,2.08-1.17c0.87,0,2.22,0.52,2.22,2.68
				v3.76h-1.14v-3.63c0-1.01-0.38-1.87-1.46-1.87c-0.74,0-1.33,0.53-1.53,1.17c-0.05,0.14-0.08,0.35-0.08,0.53v3.8h-1.14V105.61z"/>
			<path d="M111.46,108.47c0,0.66,0.01,1.23,0.05,1.73h-1.01l-0.06-1.03h-0.03c-0.29,0.51-0.96,1.17-2.08,1.17
				c-0.99,0-2.17-0.56-2.17-2.76v-3.68h1.14v3.47c0,1.2,0.38,2.01,1.4,2.01c0.77,0,1.3-0.53,1.51-1.05c0.06-0.16,0.1-0.36,0.1-0.58
				v-3.85h1.14V108.47z"/>
			<path d="M114.5,106.79h0.03c0.16-0.22,0.36-0.49,0.55-0.71l1.86-2.17h1.37l-2.43,2.59l2.77,3.71h-1.39l-2.16-3.02l-0.59,0.65
				v2.37h-1.14v-9.23h1.14V106.79z"/>
			<path d="M120.22,102.84c-0.42,0-0.69-0.33-0.69-0.7c0-0.4,0.29-0.71,0.71-0.71c0.42,0,0.7,0.31,0.7,0.71
				c0,0.38-0.27,0.7-0.72,0.7H120.22z M119.67,110.2v-6.29h1.14v6.29H119.67z"/>
			<path d="M127.94,101.18c-0.95,1.29-1.62,2.96-1.62,5.33c0,2.31,0.71,3.96,1.62,5.26h-0.88c-0.82-1.08-1.7-2.74-1.7-5.28
				c0.01-2.55,0.88-4.22,1.7-5.32H127.94z"/>
			<path d="M139.03,101.91c-0.17,0.98-0.25,1.47-0.25,1.5c-0.26-0.03-0.62-0.04-1.29-0.04h-6.46c-0.47,0-0.77,0.01-1.08,0.04
				c0.18-0.49,0.3-0.91,0.43-1.5h-0.39c-0.51,0-0.8,0.01-1.12,0.07v-0.73c0.29,0.05,0.6,0.06,1.14,0.06h0.48
				c0.14-0.82,0.18-1.07,0.18-1.47c0.27,0.04,0.65,0.05,1.12,0.05h6.38c0.65,0,0.91-0.01,1.18-0.05c-0.06,0.27-0.08,0.38-0.12,0.65
				c-0.01,0.08-0.05,0.35-0.13,0.82h0.23c0.56,0,0.84-0.01,1.17-0.06v0.73c-0.33-0.05-0.62-0.07-1.14-0.07H139.03z M133.28,109.75
				c-1.26,0.71-2.16,1.04-3.89,1.39c-0.13-0.29-0.25-0.46-0.49-0.74c1.59-0.21,2.56-0.51,3.74-1.14L133.28,109.75z M137.52,104.08
				c0.68,0,1-0.01,1.35-0.05c-0.03,0.38-0.04,0.78-0.04,1.42v2.33c0,0.7,0.01,1.12,0.05,1.35c-0.34-0.04-0.83-0.05-1.46-0.05h-5.54
				c-0.62,0-1.12,0.01-1.46,0.05c0.04-0.26,0.05-0.66,0.05-1.33v-2.38c0-0.57-0.01-0.96-0.04-1.38c0.37,0.03,0.73,0.04,1.35,0.04
				H137.52z M131.18,101.91c-0.06,0.29-0.09,0.42-0.22,0.86H134c0.1-0.35,0.14-0.55,0.22-0.86H131.18z M131.28,105.53h6.76v-0.83
				h-6.76V105.53z M131.28,106.99h6.76v-0.86h-6.76V106.99z M131.28,108.45h6.76v-0.86h-6.76V108.45z M134.35,101.31
				c0.05-0.27,0.07-0.35,0.13-0.79h-3.03c-0.07,0.37-0.07,0.4-0.14,0.79H134.35z M134.97,101.91c-0.08,0.36-0.12,0.55-0.21,0.86
				h3.28c0.09-0.38,0.1-0.44,0.18-0.86H134.97z M138.33,101.31c0.05-0.32,0.06-0.4,0.12-0.79h-3.22c-0.08,0.48-0.08,0.48-0.13,0.79
				H138.33z M136.66,109.26c1.26,0.65,2.18,0.91,3.86,1.1c-0.21,0.25-0.31,0.4-0.49,0.77c-1.73-0.32-2.71-0.66-3.98-1.39
				L136.66,109.26z"/>
			<path d="M141.47,111.77c0.91-1.29,1.62-2.96,1.62-5.3s-0.7-3.99-1.62-5.29h0.88c0.82,1.07,1.7,2.74,1.7,5.29
				c-0.01,2.55-0.88,4.2-1.7,5.3H141.47z"/>
		</g>
	</g>
</svg>
