<?xml version="1.0" encoding="iso-8859-1"?>
<!-- Generator: Adobe Illustrator 11 Build 196, SVG Export Plug-In . SVG Version: 6.0.0 Build 78)  -->
<!DOCTYPE svg PUBLIC "-//W3C//DTD SVG 1.0//EN"    "http://www.w3.org/TR/2001/REC-SVG-20010904/DTD/svg10.dtd" [
	<!ENTITY ns_flows "http://ns.adobe.com/Flows/1.0/">
	<!ENTITY ns_svg "http://www.w3.org/2000/svg">
	<!ENTITY ns_xlink "http://www.w3.org/1999/xlink">
]>
<svg  xmlns="&ns_svg;" xmlns:xlink="&ns_xlink;" xmlns:a="http://ns.adobe.com/AdobeSVGViewerExtensions/3.0/"
	 width="187.45" height="174.44" viewBox="0 0 187.45 174.44" style="overflow:visible;enable-background:new 0 0 187.45 174.44"
	 xml:space="preserve">
	<g id="layer1" inkscape:label="Vrstva 1" inkscape:groupmode="layer">
		<path d="M93.68,0C70.27,18.47,56.64,47.42,56.64,77.19c0,27.29,10.94,51.96,28.54,69.62c2.46-1.85,4.83-3.82,7.08-5.92
			c-16.36-16.01-26.56-38.64-26.56-63.7c0-25.75,10.78-48.92,27.94-64.99c16.91,16.06,27.51,39.07,27.51,64.62
			c0,2.18-0.07,4.33-0.22,6.47c3,0.92,5.94,2,8.84,3.22c0.3-3.1,0.45-6.21,0.45-9.32C130.23,47.64,116.94,18.6,93.68,0"/>
		<path id="path6350_2_" d="M56.02,88.74C25.08,102.67,3.72,133.15,0,166.73c11.35,4.84,23.67,7.34,36.01,7.34
			c44.71,0,82.19-32.1,91.88-75.15c-2.79-1.29-5.66-2.42-8.57-3.39c-8.31,39.54-42.46,69.2-83.31,69.2c-9.03,0-17.73-1.45-25.9-4.14
			c5.35-27.64,23.31-50.61,47.43-62.29C56.88,95.14,56.38,91.95,56.02,88.74"/>
		<path d="M93.72,80.65c-9.13,0-17.95,1.34-26.3,3.84c0.26,3.14,0.7,6.27,1.3,9.36c7.91-2.5,16.3-3.85,25-3.85
			c41.41,0,75.94,30.47,83.63,70.83c-8.28,2.77-17.12,4.27-26.29,4.27c-18.47,0-35.57-6.06-49.53-16.35
			c-2.26,2.2-4.62,4.28-7.07,6.24c15.77,12.21,35.37,19.46,56.61,19.46c12.49,0,24.93-2.56,36.39-7.51
			C182.16,118.15,142.44,80.65,93.72,80.65"/>
	</g>
</svg>
