<?xml version="1.0" encoding="iso-8859-1"?>
<!-- Generator: Adobe Illustrator 11 Build 196, SVG Export Plug-In . SVG Version: 6.0.0 Build 78)  -->
<!DOCTYPE svg PUBLIC "-//W3C//DTD SVG 1.0//EN"    "http://www.w3.org/TR/2001/REC-SVG-20010904/DTD/svg10.dtd" [
	<!ENTITY ns_flows "http://ns.adobe.com/Flows/1.0/">
	<!ENTITY ns_svg "http://www.w3.org/2000/svg">
	<!ENTITY ns_xlink "http://www.w3.org/1999/xlink">
	<!ENTITY st0 "fill:none;stroke:#000000;stroke-linecap:round;stroke-linejoin:round;">
	<!ENTITY st1 "font-family:'MyriadPro-Regular';">
	<!ENTITY st2 "fill:none;stroke:#000000;stroke-width:0.5;stroke-miterlimit:2;">
	<!ENTITY st3 "fill:none;stroke:#000000;stroke-width:0.5;stroke-linecap:round;stroke-linejoin:round;stroke-miterlimit:2;">
	<!ENTITY st4 "font-size:13;">
	<!ENTITY st5 "fill:none;stroke:#000000;stroke-linecap:round;stroke-linejoin:round;stroke-miterlimit:2;">
	<!ENTITY st6 "font-family:'HiraKakuPro-W3-83pv-RKSJ-H';adobe-font-script:japanese;">
]>
<svg  xmlns="&ns_svg;" xmlns:xlink="&ns_xlink;" xmlns:a="http://ns.adobe.com/AdobeSVGViewerExtensions/3.0/"
	 width="354.71" height="229.66" viewBox="0 0 354.71 229.66" style="overflow:visible;enable-background:new 0 0 354.71 229.66"
	 xml:space="preserve">
	<g id="Pfade">
		<line style="&st5;" x1="0.5" y1="229.16" x2="293" y2="229.16"/>
		<line style="&st0;" x1="70.81" y1="68.69" x2="71.41" y2="50.5"/>
		<polyline style="&st0;" points="86.15,81.54 81.26,229.16 65.5,229.16 70.38,81.62 "/>
		<line style="&st0;" x1="87.17" y1="50.5" x2="86.57" y2="68.69"/>
		<polyline style="&st0;" points="62.87,68.56 62.87,64.62 70.75,65.94 "/>
		<polyline style="&st0;" points="95.06,68.56 95.06,64.62 87.17,65.94 "/>
		<path style="&st0;" d="M70.22,81.37c1.81,0,2.83-2.98,2.83-6.24s-0.53-6.24-2.34-6.24H32.66v12.48H70.22z"/>
		<polygon style="&st0;" points="273.71,34.08 271.09,42.62 18.87,42.62 16.24,34.08 "/>
		<polyline style="&st0;" points="261.89,42.62 261.89,50.5 28.06,50.5 28.06,42.62 "/>
		<line style="&st0;" x1="219.14" y1="68.69" x2="218.54" y2="50.5"/>
		<polyline style="&st0;" points="203.8,81.54 208.69,229.16 224.45,229.16 219.57,81.62 "/>
		<line style="&st0;" x1="202.78" y1="50.5" x2="203.38" y2="68.69"/>
		<polyline style="&st0;" points="227.08,68.56 227.08,64.62 219.2,65.94 "/>
		<polyline style="&st0;" points="194.89,68.56 194.89,64.62 202.78,65.94 "/>
		<path style="&st0;" d="M219.73,81.37c-1.81,0-2.83-2.98-2.83-6.24s0.53-6.24,2.34-6.24h38.06v12.48H219.73z"/>
		<path style="&st0;" d="M203.39,68.89c1.81,0,3,2.97,3,6.24s-0.9,6.24-2.71,6.24H86.27c-1.81,0-2.71-2.98-2.71-6.24
			s1.18-6.24,3-6.24H203.39z"/>
		<line style="&st0;" x1="137.09" y1="50.5" x2="137.09" y2="68.89"/>
		<line style="&st0;" x1="152.86" y1="50.5" x2="152.86" y2="68.89"/>
	</g>
	<g id="Pfeile">
		<line style="&st3;" x1="144.73" y1="60.62" x2="128.39" y2="92.24"/>
		<line style="&st3;" x1="224.48" y1="66.87" x2="263.48" y2="66.87"/>
		<line style="&st3;" x1="144.48" y1="37.37" x2="179.98" y2="10.87"/>
		<line style="&st3;" x1="255.98" y1="46.87" x2="308.23" y2="46.57"/>
		<line style="&st2;" x1="166.98" y1="129.29" x2="166.98" y2="74.87"/>
		<line style="&st3;" x1="214.48" y1="140.07" x2="261.48" y2="139.87"/>
	</g>
	<g id="Text">
		<text transform="matrix(1 0 0 1 183.0137 10.8809)"><tspan x="0" y="0" style="&st1; &st4;">k</tspan><tspan x="6.33" y="0" style="&st1; &st4;">asa</tspan><tspan x="24.01" y="0" style="&st1; &st4;">g</tspan><tspan x="31.2" y="0" style="&st1; &st4;">i </tspan><tspan x="0" y="15.6" style="&st1; &st4;">(</tspan><tspan x="3.69" y="15.6" style="&st6; &st4;">&#x7B20;&#x6728;</tspan><tspan x="29.69" y="15.6" style="&st1; &st4;">)</tspan></text>
		<text transform="matrix(1 0 0 1 264.3965 139.9463)"><tspan x="0" y="0" style="&st1; &st4;">hashi</tspan><tspan x="28.89" y="0" style="&st1; &st4;">r</tspan><tspan x="33.07" y="0" style="&st1; &st4;">a</tspan><tspan x="0" y="15.6" style="&st1; &st4;">(</tspan><tspan x="3.69" y="15.6" style="&st6; &st4;">&#x67F1;</tspan><tspan x="16.69" y="15.6" style="&st1; &st4;">)</tspan></text>
		<text transform="matrix(1 0 0 1 266.6973 67.1973)"><tspan x="0" y="0" style="&st1; &st4;">k</tspan><tspan x="6.15" y="0" style="&st1; &st4;">usabi</tspan><tspan x="0" y="15.6" style="&st1; &st4;">(</tspan><tspan x="3.69" y="15.6" style="&st6; &st4;">&#x6954;</tspan><tspan x="16.69" y="15.6" style="&st1; &st4;">)</tspan></text>
		<text transform="matrix(1 0 0 1 311.9668 46.5977)"><tspan x="0" y="0" style="&st1; &st4;">shima</tspan><tspan x="32.51" y="0" style="&st1; &st4;">g</tspan><tspan x="39.7" y="0" style="&st1; &st4;">i</tspan><tspan x="0" y="15.6" style="&st1; &st4;">(</tspan><tspan x="3.69" y="15.6" style="&st6; &st4;">&#x5CF6;&#x6728;</tspan><tspan x="29.69" y="15.6" style="&st1; &st4;">)</tspan></text>
		<text transform="matrix(1 0 0 1 102.5146 104.1758)"><tspan x="0" y="0" style="&st1; &st4;">ga</tspan><tspan x="13.53" y="0" style="&st1; &st4;">k</tspan><tspan x="19.68" y="0" style="&st1; &st4;">uzu</tspan><tspan x="39.57" y="0" style="&st1; &st4;">k</tspan><tspan x="45.9" y="0" style="&st1; &st4;">a</tspan><tspan x="9.39" y="15.6" style="&st1; &st4;">(</tspan><tspan x="13.08" y="15.6" style="&st6; &st4;">&#x984D;&#x675F;</tspan><tspan x="39.08" y="15.6" style="&st1; &st4;">)</tspan></text>
		<text transform="matrix(1 0 0 1 143.502 141.9502)"><tspan x="0" y="0" style="&st1; &st4;">nu</tspan><tspan x="14.38" y="0" style="&st1; &st4;">k</tspan><tspan x="20.7" y="0" style="&st1; &st4;">i (</tspan><tspan x="30.19" y="0" style="&st6; &st4;">&#x8CAB;</tspan><tspan x="43.19" y="0" style="&st1; &st4;">)</tspan></text>
	</g>
	<g id="Text_Outlines">
		<g>
			<path d="M185.11,7.47h0.03c0.16-0.22,0.36-0.49,0.55-0.71l1.86-2.17h1.37l-2.43,2.59l2.77,3.71h-1.39l-2.16-3.02l-0.59,0.65v2.37
				h-1.14V1.65h1.14V7.47z"/>
			<path d="M194.73,9.37c0,0.55,0.03,1.08,0.09,1.51h-1.03l-0.1-0.79h-0.04c-0.34,0.49-1.03,0.94-1.92,0.94
				c-1.27,0-1.92-0.9-1.92-1.81c0-1.52,1.35-2.35,3.78-2.34V6.75c0-0.52-0.14-1.47-1.43-1.46c-0.6,0-1.21,0.17-1.65,0.47l-0.26-0.77
				c0.52-0.32,1.29-0.55,2.08-0.55c1.94,0,2.4,1.31,2.4,2.57V9.37z M193.61,7.67c-1.25-0.03-2.67,0.19-2.67,1.42
				c0,0.75,0.49,1.09,1.07,1.09c0.83,0,1.37-0.52,1.55-1.05c0.04-0.12,0.05-0.25,0.05-0.36V7.67z"/>
			<path d="M196.4,9.71c0.35,0.21,0.95,0.44,1.52,0.44c0.82,0,1.21-0.4,1.21-0.94c0-0.55-0.33-0.83-1.16-1.14
				c-1.14-0.42-1.68-1.04-1.68-1.78c0-1.01,0.83-1.85,2.17-1.85c0.64,0,1.2,0.17,1.54,0.39l-0.27,0.82
				c-0.25-0.14-0.7-0.36-1.29-0.36c-0.68,0-1.04,0.39-1.04,0.86c0,0.52,0.36,0.75,1.18,1.08c1.08,0.4,1.65,0.95,1.65,1.88
				c0,1.12-0.87,1.9-2.34,1.9c-0.69,0-1.33-0.18-1.77-0.44L196.4,9.71z"/>
			<path d="M206.14,9.37c0,0.55,0.03,1.08,0.09,1.51h-1.03l-0.1-0.79h-0.04c-0.34,0.49-1.03,0.94-1.92,0.94
				c-1.27,0-1.92-0.9-1.92-1.81c0-1.52,1.35-2.35,3.78-2.34V6.75c0-0.52-0.14-1.47-1.43-1.46c-0.6,0-1.21,0.17-1.65,0.47l-0.26-0.77
				c0.52-0.32,1.29-0.55,2.08-0.55c1.94,0,2.41,1.31,2.41,2.57V9.37z M205.02,7.67c-1.25-0.03-2.67,0.19-2.67,1.42
				c0,0.75,0.49,1.09,1.07,1.09c0.83,0,1.37-0.52,1.55-1.05c0.04-0.12,0.05-0.25,0.05-0.36V7.67z"/>
			<path d="M213.36,9.96c0,1.46-0.3,2.33-0.9,2.89c-0.62,0.56-1.51,0.75-2.3,0.75c-0.75,0-1.59-0.18-2.09-0.52l0.29-0.88
				c0.42,0.27,1.07,0.51,1.85,0.51c1.17,0,2.03-0.61,2.03-2.21V9.8h-0.03c-0.34,0.58-1.03,1.05-2,1.05c-1.56,0-2.68-1.33-2.68-3.08
				c0-2.13,1.39-3.33,2.85-3.33c1.09,0,1.68,0.56,1.96,1.09h0.03l0.04-0.95h1.01c-0.04,0.44-0.05,0.96-0.05,1.72V9.96z M212.21,7.06
				c0-0.18-0.01-0.35-0.06-0.51c-0.21-0.68-0.75-1.22-1.6-1.22c-1.09,0-1.87,0.92-1.87,2.39c0,1.22,0.64,2.26,1.86,2.26
				c0.71,0,1.35-0.44,1.59-1.18c0.07-0.18,0.09-0.4,0.09-0.61V7.06z"/>
			<path d="M215.71,3.52c-0.42,0-0.69-0.33-0.69-0.7c0-0.4,0.29-0.71,0.72-0.71c0.42,0,0.7,0.31,0.7,0.71c0,0.38-0.27,0.7-0.71,0.7
				H215.71z M215.16,10.88V4.59h1.14v6.29H215.16z"/>
			<path d="M186.43,17.46c-0.95,1.29-1.62,2.96-1.62,5.33c0,2.31,0.71,3.96,1.62,5.26h-0.88c-0.82-1.08-1.7-2.74-1.7-5.28
				c0.01-2.55,0.88-4.23,1.7-5.32H186.43z"/>
			<path d="M189.24,18.08c-0.49,0.74-0.82,1.16-1.31,1.64c-0.22-0.26-0.26-0.29-0.65-0.53c0.72-0.65,0.99-0.98,1.4-1.62
				s0.6-1.08,0.81-1.86l0.86,0.23c-0.4,0.9-0.44,0.98-0.68,1.42h2.28c0.52,0,0.77-0.01,1.09-0.06v0.83
				c-0.34-0.03-0.61-0.04-1.04-0.04h-0.92c0.29,0.61,0.42,0.94,0.69,1.69l-0.81,0.26c-0.22-0.79-0.38-1.25-0.7-1.95H189.24z
				 M193.96,26.03c0.71-1.2,1.12-2.17,1.6-3.89l0.83,0.32c-0.57,1.69-0.91,2.44-1.55,3.56h2.77c0.6,0,1.04-0.03,1.39-0.08v0.94
				c-0.43-0.06-0.87-0.09-1.39-0.09h-8.76c-0.53,0-0.99,0.03-1.43,0.09v-0.94c0.31,0.05,0.81,0.08,1.43,0.08H193.96z M192.69,20.68
				c0-0.51-0.03-0.79-0.08-1.05h0.98c-0.07,0.27-0.08,0.53-0.08,1.05v0.42h3.55c0.56,0,0.87-0.01,1.18-0.06v0.87
				c-0.34-0.05-0.66-0.06-1.18-0.06h-7.61c-0.52,0-0.86,0.01-1.2,0.06v-0.87c0.31,0.05,0.64,0.06,1.2,0.06h3.24V20.68z
				 M191.15,25.69c-0.36-1.48-0.57-2.08-1.13-3.21l0.77-0.27c0.6,1.3,0.78,1.78,1.17,3.19L191.15,25.69z M194.26,18.1
				c-0.29,0.49-0.44,0.73-0.87,1.29c-0.26-0.22-0.42-0.31-0.7-0.43c0.82-0.9,1.39-1.99,1.66-3.2l0.86,0.22
				c-0.26,0.68-0.36,0.92-0.57,1.39h3.24c0.53,0,0.79-0.01,1.12-0.07v0.86c-0.33-0.05-0.6-0.07-1.12-0.07h-1.7
				c0.38,0.7,0.56,1.09,0.78,1.72l-0.79,0.27c-0.26-0.86-0.39-1.18-0.78-1.99H194.26z"/>
			<path d="M206.66,19.19c0.77,1.33,1.43,2.24,2.24,3.07c1.04,1.09,2.08,1.89,3.32,2.57c-0.33,0.32-0.44,0.46-0.65,0.82
				c-0.79-0.53-1.12-0.78-1.75-1.34c-1.04-0.91-1.47-1.37-2.16-2.31c-0.43-0.58-0.66-0.98-1.18-1.95c0.04,0.61,0.06,1.2,0.06,1.68
				v4.22c0,0.61,0.03,1.08,0.09,1.5h-1.05c0.07-0.46,0.09-0.9,0.09-1.5v-4.22c0-0.43,0.03-1.09,0.05-1.62
				c-0.68,1.43-1.38,2.44-2.37,3.46c-0.79,0.81-1.57,1.48-2.51,2.13c-0.2-0.31-0.4-0.56-0.66-0.75c1.16-0.7,2.37-1.72,3.3-2.77
				c0.78-0.87,1.34-1.68,2.07-2.98h-3.5c-0.52,0-0.94,0.03-1.43,0.08v-0.94c0.44,0.06,0.86,0.09,1.42,0.09h3.63v-1.44
				c0-0.44-0.03-0.78-0.09-1.2h1.05c-0.06,0.4-0.09,0.78-0.09,1.18v1.46h3.82c0.68,0,1.08-0.03,1.47-0.09v0.94
				c-0.47-0.05-0.96-0.08-1.46-0.08H206.66z"/>
			<path d="M212.97,28.05c0.91-1.29,1.62-2.96,1.62-5.3s-0.7-3.99-1.62-5.29h0.88c0.82,1.07,1.7,2.74,1.7,5.29
				c-0.01,2.55-0.88,4.2-1.7,5.3H212.97z"/>
		</g>
		<g>
			<path d="M265.35,130.72h1.14v3.93h0.03c0.18-0.32,0.47-0.62,0.82-0.8c0.34-0.21,0.74-0.33,1.17-0.33c0.84,0,2.2,0.52,2.2,2.69
				v3.74h-1.14v-3.63c0-1.01-0.38-1.86-1.46-1.86c-0.74,0-1.31,0.52-1.53,1.14c-0.06,0.16-0.08,0.32-0.08,0.55v3.8h-1.14V130.72z"/>
			<path d="M276.99,138.44c0,0.55,0.03,1.08,0.09,1.51h-1.03l-0.1-0.79h-0.04c-0.34,0.49-1.03,0.94-1.92,0.94
				c-1.27,0-1.92-0.9-1.92-1.81c0-1.52,1.35-2.35,3.78-2.34v-0.13c0-0.52-0.14-1.47-1.43-1.46c-0.6,0-1.21,0.17-1.65,0.47
				l-0.26-0.77c0.52-0.33,1.29-0.55,2.08-0.55c1.94,0,2.4,1.31,2.4,2.57V138.44z M275.88,136.74c-1.25-0.03-2.67,0.2-2.67,1.42
				c0,0.75,0.49,1.09,1.07,1.09c0.83,0,1.37-0.52,1.55-1.05c0.04-0.12,0.05-0.25,0.05-0.36V136.74z"/>
			<path d="M278.67,138.78c0.35,0.21,0.95,0.44,1.52,0.44c0.82,0,1.21-0.4,1.21-0.94c0-0.55-0.33-0.83-1.16-1.14
				c-1.14-0.42-1.68-1.04-1.68-1.78c0-1.01,0.83-1.85,2.17-1.85c0.64,0,1.2,0.17,1.53,0.39l-0.27,0.82
				c-0.25-0.14-0.7-0.36-1.29-0.36c-0.68,0-1.04,0.39-1.04,0.86c0,0.52,0.37,0.75,1.18,1.08c1.08,0.4,1.65,0.95,1.65,1.88
				c0,1.12-0.87,1.9-2.34,1.9c-0.69,0-1.33-0.18-1.77-0.44L278.67,138.78z"/>
			<path d="M283.97,130.72h1.14v3.93h0.03c0.18-0.32,0.47-0.62,0.82-0.8c0.34-0.21,0.74-0.33,1.17-0.33c0.84,0,2.2,0.52,2.2,2.69
				v3.74h-1.14v-3.63c0-1.01-0.38-1.86-1.46-1.86c-0.74,0-1.31,0.52-1.53,1.14c-0.06,0.16-0.08,0.32-0.08,0.55v3.8h-1.14V130.72z"/>
			<path d="M291.74,132.59c-0.42,0-0.69-0.33-0.69-0.7c0-0.4,0.29-0.71,0.72-0.71c0.42,0,0.7,0.31,0.7,0.71
				c0,0.38-0.27,0.7-0.71,0.7H291.74z M291.19,139.95v-6.29h1.14v6.29H291.19z"/>
			<path d="M294.23,135.62c0-0.74-0.01-1.38-0.05-1.96h1l0.05,1.24h0.04c0.29-0.85,0.99-1.38,1.75-1.38c0.12,0,0.21,0.01,0.31,0.03
				v1.08c-0.12-0.01-0.23-0.03-0.39-0.03c-0.81,0-1.38,0.61-1.53,1.46c-0.03,0.17-0.04,0.35-0.04,0.53v3.37h-1.14V135.62z"/>
			<path d="M302.85,138.44c0,0.55,0.03,1.08,0.09,1.51h-1.03l-0.1-0.79h-0.04c-0.34,0.49-1.03,0.94-1.92,0.94
				c-1.27,0-1.92-0.9-1.92-1.81c0-1.52,1.35-2.35,3.78-2.34v-0.13c0-0.52-0.14-1.47-1.43-1.46c-0.6,0-1.21,0.17-1.65,0.47
				l-0.26-0.77c0.52-0.33,1.29-0.55,2.08-0.55c1.94,0,2.41,1.31,2.41,2.57V138.44z M301.73,136.74c-1.25-0.03-2.67,0.2-2.67,1.42
				c0,0.75,0.49,1.09,1.07,1.09c0.83,0,1.37-0.52,1.55-1.05c0.04-0.12,0.05-0.25,0.05-0.36V136.74z"/>
			<path d="M267.82,146.52c-0.95,1.29-1.62,2.96-1.62,5.33c0,2.31,0.71,3.96,1.62,5.26h-0.88c-0.82-1.08-1.7-2.74-1.7-5.28
				c0.01-2.55,0.88-4.22,1.7-5.32H267.82z"/>
			<path d="M271.64,147.94c0.48,1.1,0.87,1.69,1.65,2.54c-0.2,0.22-0.29,0.36-0.47,0.74c-0.62-0.86-0.9-1.31-1.27-2.22
				c0.04,1.09,0.05,1.52,0.05,2.26v4.09c0,0.57,0.03,0.9,0.08,1.22h-0.96c0.07-0.34,0.09-0.68,0.09-1.21v-3.85
				c0-0.65,0.01-1.16,0.06-2.35c-0.57,2.04-0.95,2.9-1.83,4.16c-0.26-0.44-0.31-0.51-0.55-0.75c0.95-1.14,1.7-2.73,2.17-4.63h-1.05
				c-0.38,0-0.52,0.01-0.81,0.07v-0.83c0.27,0.05,0.47,0.06,0.88,0.06h1.1v-1.44c0-0.47-0.03-0.74-0.08-1.08h0.96
				c-0.05,0.32-0.08,0.6-0.08,1.09v1.43h0.51c0.39,0,0.57-0.01,0.86-0.06v0.83c-0.3-0.05-0.48-0.07-0.85-0.07H271.64z
				 M274.69,148.15c-0.57,0-0.99,0.03-1.4,0.06v-0.9c0.36,0.05,0.77,0.08,1.4,0.08h4.04c0.62,0,1.03-0.03,1.39-0.08v0.9
				c-0.42-0.05-0.82-0.06-1.4-0.06h-1.94v2.89h1.47c0.64,0,0.99-0.01,1.39-0.07v0.88c-0.42-0.05-0.81-0.06-1.39-0.06h-1.47v3.33H279
				c0.55,0,0.96-0.03,1.42-0.08v0.92c-0.46-0.05-0.9-0.08-1.42-0.08h-5.03c-0.52,0-0.94,0.03-1.39,0.08v-0.92
				c0.43,0.05,0.85,0.08,1.4,0.08h1.98v-3.33h-1.11c-0.57,0-1,0.03-1.4,0.06v-0.88c0.4,0.05,0.78,0.07,1.4,0.07h1.11v-2.89H274.69z
				 M277.24,147.08c-0.84-0.7-1.43-1.09-2.48-1.66l0.51-0.6c1.01,0.55,1.61,0.94,2.47,1.59L277.24,147.08z"/>
			<path d="M281.35,157.12c0.91-1.29,1.62-2.96,1.62-5.3s-0.7-3.99-1.62-5.29h0.88c0.82,1.07,1.7,2.74,1.7,5.29
				c-0.01,2.55-0.88,4.2-1.7,5.3H281.35z"/>
		</g>
		<g>
			<path d="M268.79,63.79h0.03c0.16-0.22,0.36-0.49,0.55-0.71l1.86-2.17h1.37l-2.43,2.59l2.77,3.71h-1.39l-2.16-3.02l-0.59,0.65
				v2.37h-1.14v-9.23h1.14V63.79z"/>
			<path d="M279.06,65.47c0,0.66,0.01,1.23,0.05,1.73h-1.01l-0.07-1.03h-0.03c-0.29,0.51-0.96,1.17-2.08,1.17
				c-0.99,0-2.17-0.56-2.17-2.76v-3.68h1.14v3.47c0,1.2,0.38,2.01,1.4,2.01c0.77,0,1.3-0.53,1.51-1.05c0.07-0.16,0.1-0.36,0.1-0.58
				v-3.85h1.14V65.47z"/>
			<path d="M280.8,66.03c0.35,0.21,0.95,0.44,1.52,0.44c0.82,0,1.21-0.4,1.21-0.94c0-0.55-0.33-0.83-1.16-1.14
				c-1.14-0.42-1.68-1.04-1.68-1.78c0-1.01,0.83-1.85,2.17-1.85c0.64,0,1.2,0.17,1.53,0.39l-0.27,0.82
				c-0.25-0.14-0.7-0.36-1.29-0.36c-0.68,0-1.04,0.39-1.04,0.86c0,0.52,0.36,0.75,1.18,1.08c1.08,0.4,1.65,0.95,1.65,1.88
				c0,1.12-0.87,1.9-2.34,1.9c-0.69,0-1.33-0.18-1.77-0.44L280.8,66.03z"/>
			<path d="M290.54,65.69c0,0.55,0.03,1.08,0.09,1.51h-1.03l-0.1-0.79h-0.04c-0.34,0.49-1.03,0.94-1.92,0.94
				c-1.27,0-1.92-0.9-1.92-1.81c0-1.52,1.35-2.35,3.78-2.34v-0.13c0-0.52-0.14-1.47-1.43-1.46c-0.6,0-1.21,0.17-1.65,0.47
				l-0.26-0.77c0.52-0.32,1.29-0.55,2.08-0.55c1.94,0,2.41,1.31,2.41,2.57V65.69z M289.42,63.99c-1.25-0.03-2.66,0.19-2.66,1.42
				c0,0.75,0.49,1.09,1.07,1.09c0.83,0,1.36-0.52,1.55-1.05c0.04-0.12,0.05-0.25,0.05-0.36V63.99z"/>
			<path d="M292.37,57.97h1.14v3.94h0.03c0.4-0.7,1.13-1.14,2.14-1.14c1.56,0,2.65,1.3,2.65,3.2c0,2.26-1.43,3.38-2.83,3.38
				c-0.91,0-1.62-0.35-2.11-1.18h-0.03l-0.07,1.04h-0.99c0.04-0.43,0.05-1.07,0.05-1.62V57.97z M293.52,64.68
				c0,0.14,0.01,0.29,0.04,0.42c0.22,0.79,0.9,1.34,1.72,1.34c1.21,0,1.91-0.98,1.91-2.42c0-1.27-0.65-2.35-1.87-2.35
				c-0.78,0-1.51,0.55-1.73,1.4c-0.04,0.14-0.07,0.3-0.07,0.48V64.68z"/>
			<path d="M300.31,59.84c-0.42,0-0.69-0.33-0.69-0.7c0-0.4,0.29-0.71,0.71-0.71c0.42,0,0.7,0.31,0.7,0.71c0,0.38-0.27,0.7-0.71,0.7
				H300.31z M299.77,67.2v-6.29h1.14v6.29H299.77z"/>
			<path d="M270.12,73.78c-0.95,1.29-1.62,2.96-1.62,5.33c0,2.31,0.71,3.96,1.62,5.26h-0.88c-0.82-1.08-1.7-2.74-1.7-5.28
				c0.01-2.55,0.88-4.23,1.7-5.32H270.12z"/>
			<path d="M272.13,75.19c-0.38,0-0.68,0.01-0.92,0.05v-0.81c0.22,0.04,0.51,0.05,0.94,0.05h0.56v-1.13c0-0.74-0.01-1.04-0.07-1.35
				h0.9c-0.05,0.35-0.07,0.7-0.07,1.34v1.14h0.39c0.36,0,0.58-0.01,0.84-0.05v0.81c-0.3-0.04-0.51-0.05-0.83-0.05h-0.36
				c0.31,0.91,0.64,1.46,1.26,2.11l-0.03,0.04c0.38-0.03,0.94-0.1,1.47-0.22l-0.01-1.36h-0.46c-0.35,0-0.55,0.01-0.81,0.05v-0.77
				c0.22,0.04,0.44,0.05,0.81,0.05h0.44l-0.01-1.21h-0.73c-0.35,0-0.51,0.01-0.75,0.05v-0.77c0.23,0.04,0.39,0.05,0.75,0.05h0.71
				v-0.16c0-0.55-0.01-0.75-0.08-1.08h0.87c-0.05,0.25-0.08,0.53-0.08,0.94v0.3h0.7c0.43,0,0.62-0.01,0.82-0.05v0.77
				c-0.26-0.04-0.43-0.05-0.81-0.05h-0.7l0.01,1.21h0.58c0.36,0,0.55-0.01,0.77-0.05v0.77c-0.23-0.04-0.43-0.05-0.77-0.05h-0.57
				l0.01,1.21c0.64-0.14,0.83-0.2,1.38-0.35l0.01,0.66c-0.66,0.19-0.88,0.25-1.39,0.38v0.08c0.01,0.58,0.03,0.75,0.06,0.99h-0.83
				c0.04-0.25,0.05-0.44,0.05-0.9c-0.35,0.08-0.47,0.1-0.69,0.16c-0.34,0.08-0.39,0.09-0.62,0.16l-0.17-0.79
				c-0.1,0.13-0.3,0.4-0.4,0.61c-0.44-0.6-0.66-1-0.91-1.69c0.04,0.74,0.05,1.35,0.05,1.94v4.08c0,0.68,0.03,1.13,0.08,1.51h-0.92
				c0.05-0.38,0.08-0.83,0.08-1.51v-3.59c0-0.56,0.01-1.03,0.08-2.08c-0.35,1.59-0.78,2.7-1.46,3.77c-0.18-0.29-0.27-0.4-0.51-0.64
				c0.84-1.18,1.42-2.64,1.79-4.55H272.13z M279.01,80.25c0.74,1.27,2.04,2.17,3.9,2.67c-0.22,0.29-0.33,0.48-0.43,0.78
				c-1.94-0.68-3.26-1.69-3.99-3.04c-0.69,1.61-1.78,2.46-3.98,3.06c-0.12-0.33-0.21-0.48-0.44-0.77c1.25-0.25,2.11-0.62,2.77-1.18
				c0.47-0.4,0.78-0.87,0.99-1.51h-2.04c-0.69,0-0.99,0.01-1.33,0.06v-0.83c0.3,0.05,0.61,0.06,1.34,0.06h2.2
				c0.04-0.3,0.05-0.43,0.05-0.69c0-0.06,0-0.12-0.01-0.22l0.88,0.03c-0.01,0.06-0.06,0.36-0.13,0.88h2.52
				c0.66,0,0.99-0.01,1.35-0.08v0.86c-0.36-0.05-0.71-0.08-1.35-0.08H279.01z M279.51,73.45c-0.35,0-0.6,0.01-0.87,0.05v-0.82
				c0.31,0.05,0.55,0.06,1.08,0.06h1.83c0.44,0,0.73-0.01,0.95-0.04c-0.01,0.16-0.03,0.3-0.05,0.82c-0.09,2.27-0.23,3.56-0.47,4.1
				c-0.18,0.45-0.43,0.58-1.07,0.58c-0.3,0-0.51-0.01-1-0.06c-0.01-0.31-0.05-0.49-0.14-0.77c0.4,0.08,0.73,0.12,1.13,0.12
				c0.3,0,0.4-0.08,0.47-0.32c0.18-0.68,0.27-1.64,0.35-3.72h-1.39c-0.07,1.37-0.17,2-0.48,2.83c-0.32,0.91-0.8,1.6-1.61,2.31
				c-0.22-0.27-0.3-0.35-0.58-0.55c0.88-0.69,1.31-1.29,1.61-2.22c0.23-0.68,0.3-1.21,0.34-2.38H279.51z"/>
			<path d="M283.65,84.37c0.91-1.29,1.62-2.96,1.62-5.3s-0.7-3.99-1.62-5.29h0.88c0.82,1.07,1.7,2.74,1.7,5.29
				c-0.01,2.55-0.88,4.2-1.7,5.3H283.65z"/>
		</g>
		<g>
			<path d="M312.76,45.43c0.35,0.21,0.95,0.44,1.52,0.44c0.82,0,1.21-0.4,1.21-0.94c0-0.55-0.32-0.83-1.16-1.14
				c-1.14-0.42-1.68-1.04-1.68-1.78c0-1.01,0.83-1.85,2.17-1.85c0.64,0,1.2,0.17,1.53,0.39l-0.27,0.82
				c-0.25-0.14-0.7-0.36-1.29-0.36c-0.68,0-1.04,0.39-1.04,0.86c0,0.52,0.36,0.75,1.18,1.08c1.08,0.4,1.65,0.95,1.65,1.88
				c0,1.12-0.87,1.9-2.34,1.9c-0.69,0-1.33-0.18-1.77-0.44L312.76,45.43z"/>
			<path d="M318.06,37.37h1.14v3.93h0.03c0.18-0.32,0.47-0.62,0.82-0.81c0.34-0.21,0.74-0.33,1.17-0.33c0.84,0,2.2,0.52,2.2,2.69
				v3.74h-1.14v-3.63c0-1.01-0.38-1.86-1.46-1.86c-0.74,0-1.31,0.52-1.53,1.14c-0.07,0.16-0.08,0.32-0.08,0.55v3.8h-1.14V37.37z"/>
			<path d="M325.83,39.24c-0.42,0-0.69-0.33-0.69-0.7c0-0.4,0.29-0.71,0.71-0.71c0.42,0,0.7,0.31,0.7,0.71c0,0.38-0.27,0.7-0.72,0.7
				H325.83z M325.28,46.6v-6.29h1.14v6.29H325.28z"/>
			<path d="M328.32,42.01c0-0.66-0.03-1.18-0.05-1.7h1l0.05,1.01h0.04c0.35-0.6,0.94-1.16,1.99-1.16c0.84,0,1.5,0.52,1.77,1.26h0.03
				c0.2-0.36,0.46-0.62,0.71-0.82c0.38-0.29,0.78-0.44,1.38-0.44c0.85,0,2.08,0.55,2.08,2.73v3.71h-1.12v-3.56
				c0-1.22-0.46-1.94-1.37-1.94c-0.66,0-1.16,0.48-1.36,1.03c-0.05,0.17-0.09,0.38-0.09,0.57v3.9h-1.12v-3.78
				c0-1-0.44-1.72-1.31-1.72c-0.7,0-1.23,0.57-1.42,1.14c-0.07,0.17-0.09,0.36-0.09,0.56v3.8h-1.12V42.01z"/>
			<path d="M343.6,45.09c0,0.55,0.03,1.08,0.09,1.51h-1.03l-0.1-0.79h-0.04c-0.34,0.49-1.03,0.94-1.92,0.94
				c-1.27,0-1.92-0.9-1.92-1.81c0-1.52,1.35-2.35,3.78-2.34v-0.13c0-0.52-0.14-1.47-1.43-1.46c-0.6,0-1.21,0.17-1.65,0.47
				l-0.26-0.77c0.52-0.32,1.29-0.55,2.08-0.55c1.94,0,2.41,1.31,2.41,2.57V45.09z M342.48,43.39c-1.25-0.03-2.67,0.19-2.67,1.42
				c0,0.75,0.49,1.09,1.07,1.09c0.83,0,1.37-0.52,1.55-1.05c0.04-0.12,0.05-0.25,0.05-0.36V43.39z"/>
			<path d="M350.81,45.67c0,1.46-0.3,2.33-0.9,2.89c-0.62,0.56-1.51,0.75-2.3,0.75c-0.75,0-1.59-0.18-2.09-0.52l0.29-0.88
				c0.42,0.27,1.07,0.51,1.85,0.51c1.17,0,2.03-0.61,2.03-2.21v-0.69h-0.03c-0.34,0.58-1.03,1.05-2,1.05
				c-1.56,0-2.68-1.33-2.68-3.08c0-2.13,1.39-3.33,2.85-3.33c1.09,0,1.68,0.56,1.96,1.09h0.03l0.04-0.95h1.01
				c-0.04,0.44-0.05,0.96-0.05,1.72V45.67z M349.67,42.78c0-0.18-0.01-0.35-0.06-0.51c-0.21-0.68-0.75-1.22-1.6-1.22
				c-1.09,0-1.87,0.92-1.87,2.39c0,1.22,0.64,2.26,1.86,2.26c0.71,0,1.35-0.44,1.59-1.18c0.07-0.18,0.09-0.4,0.09-0.61V42.78z"/>
			<path d="M353.16,39.24c-0.42,0-0.69-0.33-0.69-0.7c0-0.4,0.29-0.71,0.72-0.71c0.42,0,0.7,0.31,0.7,0.71c0,0.38-0.27,0.7-0.71,0.7
				H353.16z M352.62,46.6v-6.29h1.14v6.29H352.62z"/>
			<path d="M315.39,53.18c-0.95,1.29-1.62,2.96-1.62,5.33c0,2.31,0.71,3.96,1.62,5.26h-0.88c-0.82-1.08-1.7-2.74-1.7-5.28
				c0.01-2.55,0.88-4.23,1.7-5.32H315.39z"/>
			<path d="M320.24,59.52h-1.12c-0.57,0-0.71,0-1.08,0.03c0.04-0.34,0.05-0.66,0.05-1.17v-4.84c0-0.39-0.03-0.7-0.05-1.01
				c0.3,0.04,0.54,0.05,1.04,0.05h1.46c0.25-0.39,0.43-0.77,0.62-1.3l0.86,0.17c-0.23,0.47-0.4,0.78-0.62,1.13h3.19
				c0.51,0,0.77-0.01,1.07-0.05c-0.04,0.26-0.04,0.4-0.04,0.82v2.16c0,0.34,0.01,0.61,0.04,0.88c-0.39-0.03-0.66-0.04-1.01-0.04
				h-5.73v0.87h7.61c0.52,0,0.88-0.03,1.22-0.08v0.83c-0.4-0.04-0.75-0.06-1.25-0.06h-7.58v0.94h7.45c0.46,0,0.74-0.01,1.03-0.05
				c-0.01,0.12-0.04,0.32-0.09,0.73c-0.16,1.52-0.38,2.63-0.61,2.99c-0.25,0.36-0.6,0.49-1.37,0.49c-0.36,0-0.57-0.01-0.99-0.04
				c-0.04-0.36-0.07-0.46-0.2-0.82c0.52,0.08,0.88,0.12,1.27,0.12c0.43,0,0.58-0.09,0.69-0.43c0.14-0.47,0.29-1.33,0.39-2.31h-5.43
				v1.7h2.45v-0.64c0-0.3-0.01-0.48-0.05-0.73h0.87c-0.04,0.23-0.05,0.51-0.05,0.78v0.65c0,0.26,0,0.44,0.03,0.68
				c-0.14,0-0.14,0-0.48-0.01c-0.09-0.01-0.34-0.01-0.46-0.01h-5.4v0.6h-0.86c0.05-0.31,0.08-0.68,0.08-1.03l-0.01-0.82
				c0-0.33-0.01-0.51-0.06-0.78h0.9c-0.04,0.23-0.04,0.4-0.04,0.73v0.58h2.29V59.52z M324.78,54.12v-0.88h-5.89v0.88H324.78z
				 M318.9,55.7h5.89v-0.94h-5.89V55.7z"/>
			<path d="M335.61,54.9c0.77,1.33,1.43,2.24,2.24,3.07c1.04,1.09,2.08,1.89,3.32,2.57c-0.33,0.32-0.44,0.46-0.65,0.82
				c-0.79-0.53-1.12-0.78-1.75-1.34c-1.04-0.91-1.47-1.37-2.16-2.31c-0.43-0.58-0.66-0.98-1.18-1.95c0.04,0.61,0.06,1.2,0.06,1.68
				v4.22c0,0.61,0.03,1.08,0.09,1.5h-1.05c0.07-0.46,0.09-0.9,0.09-1.5v-4.22c0-0.43,0.03-1.09,0.05-1.62
				c-0.68,1.43-1.38,2.44-2.37,3.46c-0.79,0.81-1.57,1.48-2.51,2.13c-0.2-0.31-0.4-0.56-0.66-0.75c1.16-0.7,2.37-1.72,3.3-2.77
				c0.78-0.87,1.34-1.68,2.07-2.98H331c-0.52,0-0.94,0.03-1.43,0.08v-0.94c0.44,0.06,0.86,0.09,1.42,0.09h3.63v-1.44
				c0-0.44-0.03-0.78-0.09-1.2h1.05c-0.06,0.4-0.09,0.78-0.09,1.18v1.46h3.82c0.68,0,1.08-0.03,1.47-0.09v0.94
				c-0.47-0.05-0.96-0.08-1.46-0.08H335.61z"/>
			<path d="M341.92,63.77c0.91-1.29,1.62-2.96,1.62-5.3s-0.7-3.99-1.62-5.29h0.88c0.82,1.07,1.7,2.74,1.7,5.29
				c-0.01,2.55-0.88,4.2-1.7,5.3H341.92z"/>
		</g>
		<g>
			<path d="M108.85,103.25c0,1.46-0.3,2.33-0.9,2.89c-0.62,0.56-1.51,0.75-2.3,0.75c-0.75,0-1.59-0.18-2.09-0.52l0.29-0.88
				c0.42,0.27,1.07,0.51,1.85,0.51c1.17,0,2.03-0.61,2.03-2.21v-0.69h-0.03c-0.34,0.58-1.03,1.05-2,1.05
				c-1.56,0-2.68-1.33-2.68-3.08c0-2.13,1.39-3.33,2.85-3.33c1.09,0,1.68,0.56,1.96,1.09h0.03l0.04-0.95h1.01
				c-0.04,0.44-0.05,0.96-0.05,1.72V103.25z M107.7,100.35c0-0.18-0.01-0.35-0.06-0.51c-0.21-0.68-0.75-1.22-1.6-1.22
				c-1.09,0-1.87,0.92-1.87,2.39c0,1.22,0.64,2.26,1.86,2.26c0.72,0,1.35-0.44,1.59-1.18c0.06-0.18,0.09-0.4,0.09-0.61V100.35z"/>
			<path d="M115.16,102.67c0,0.55,0.03,1.08,0.09,1.51h-1.03l-0.1-0.79h-0.04c-0.34,0.49-1.03,0.94-1.92,0.94
				c-1.27,0-1.92-0.9-1.92-1.81c0-1.52,1.35-2.35,3.78-2.34v-0.13c0-0.52-0.14-1.47-1.43-1.46c-0.6,0-1.21,0.17-1.65,0.47
				l-0.26-0.77c0.52-0.32,1.29-0.55,2.08-0.55c1.94,0,2.4,1.31,2.4,2.57V102.67z M114.05,100.96c-1.25-0.03-2.67,0.19-2.67,1.42
				c0,0.75,0.49,1.09,1.07,1.09c0.83,0,1.36-0.52,1.55-1.05c0.04-0.12,0.05-0.25,0.05-0.36V100.96z"/>
			<path d="M118.14,100.77h0.03c0.16-0.22,0.36-0.49,0.55-0.71l1.86-2.17h1.37l-2.43,2.59l2.77,3.71h-1.39l-2.16-3.02l-0.59,0.65
				v2.37H117v-9.23h1.14V100.77z"/>
			<path d="M128.41,102.45c0,0.66,0.01,1.23,0.05,1.73h-1.01l-0.06-1.03h-0.03c-0.29,0.51-0.96,1.17-2.08,1.17
				c-0.99,0-2.17-0.56-2.17-2.76v-3.68h1.14v3.47c0,1.2,0.38,2.01,1.4,2.01c0.77,0,1.3-0.53,1.51-1.05c0.06-0.16,0.1-0.36,0.1-0.58
				v-3.85h1.14V102.45z"/>
			<path d="M129.59,103.51l2.85-3.71c0.29-0.35,0.53-0.65,0.83-0.99v-0.03h-3.42v-0.91h4.8v0.71l-2.82,3.67
				c-0.26,0.34-0.52,0.66-0.81,0.98v0.03h3.68v0.91h-5.11V103.51z"/>
			<path d="M141.14,102.45c0,0.66,0.01,1.23,0.05,1.73h-1.01l-0.06-1.03h-0.03c-0.29,0.51-0.96,1.17-2.08,1.17
				c-0.99,0-2.17-0.56-2.17-2.76v-3.68h1.14v3.47c0,1.2,0.38,2.01,1.4,2.01c0.77,0,1.3-0.53,1.51-1.05c0.06-0.16,0.1-0.36,0.1-0.58
				v-3.85h1.14V102.45z"/>
			<path d="M144.18,100.77h0.03c0.16-0.22,0.36-0.49,0.55-0.71l1.86-2.17h1.37l-2.43,2.59l2.77,3.71h-1.39l-2.16-3.02l-0.59,0.65
				v2.37h-1.14v-9.23h1.14V100.77z"/>
			<path d="M153.8,102.67c0,0.55,0.03,1.08,0.09,1.51h-1.03l-0.1-0.79h-0.04c-0.34,0.49-1.03,0.94-1.92,0.94
				c-1.27,0-1.92-0.9-1.92-1.81c0-1.52,1.35-2.35,3.78-2.34v-0.13c0-0.52-0.14-1.47-1.43-1.46c-0.6,0-1.21,0.17-1.65,0.47
				l-0.26-0.77c0.52-0.32,1.29-0.55,2.08-0.55c1.94,0,2.41,1.31,2.41,2.57V102.67z M152.68,100.96c-1.25-0.03-2.66,0.19-2.66,1.42
				c0,0.75,0.49,1.09,1.07,1.09c0.83,0,1.37-0.52,1.55-1.05c0.04-0.12,0.05-0.25,0.05-0.36V100.96z"/>
			<path d="M115.33,110.75c-0.95,1.29-1.62,2.96-1.62,5.33c0,2.31,0.71,3.96,1.62,5.26h-0.88c-0.82-1.08-1.7-2.74-1.7-5.28
				c0.01-2.55,0.88-4.23,1.7-5.32H115.33z"/>
			<path d="M117.3,117.49c0-0.27-0.01-0.53-0.03-0.82c-0.26,0.16-0.42,0.25-0.86,0.47c-0.12-0.29-0.23-0.47-0.44-0.66
				c1.1-0.47,2.04-1.04,2.81-1.74c-0.4-0.36-0.66-0.66-1-1.12c-0.33,0.39-0.69,0.75-1.14,1.13c-0.16-0.23-0.31-0.4-0.51-0.56
				c0.86-0.64,1.34-1.18,1.86-2.05c0.25-0.4,0.36-0.68,0.44-0.99l0.75,0.22c-0.06,0.1-0.06,0.1-0.22,0.4
				c-0.07,0.13-0.1,0.19-0.18,0.34h1.38c0.31,0,0.56-0.03,0.75-0.06l0.44,0.46c-0.12,0.16-0.12,0.16-0.3,0.45
				c-0.51,0.82-0.78,1.2-1.27,1.74c0.68,0.49,1.29,0.83,2.33,1.25c-0.16,0.22-0.25,0.39-0.35,0.71c-1.01-0.47-1.7-0.88-2.46-1.48
				c-0.51,0.47-0.9,0.78-1.64,1.26c0.2,0.01,0.3,0.01,0.56,0.01h2.02c0.47,0,0.69-0.01,0.92-0.05c-0.04,0.29-0.05,0.61-0.05,1.14
				v1.16c0,0.87,0,0.87,0.03,1.14c-0.13-0.01-0.44-0.01-0.96-0.03h-2.12v0.82h-0.81c0.03-0.27,0.05-0.68,0.05-1.18V117.49z
				 M118.82,109.9c0-0.38-0.03-0.6-0.08-0.87h0.95c-0.07,0.27-0.08,0.48-0.08,0.88v0.4h1.3c0.6,0,0.85-0.01,1.05-0.04
				c-0.03,0.22-0.04,0.43-0.04,0.78v0.43c0,0.27,0.01,0.6,0.04,0.74h-0.74v-1.23h-4.06v1.4h-0.79c0.04-0.23,0.05-0.46,0.05-0.74
				v-0.57c0-0.26-0.01-0.49-0.05-0.81c0.2,0.03,0.47,0.04,1.07,0.04h1.38V109.9z M118.06,119.14h2.31v-2.03h-2.31V119.14z
				 M118.39,112.76c-0.06,0.12-0.1,0.16-0.21,0.33c0.4,0.56,0.61,0.78,1.07,1.18c0.48-0.51,0.74-0.86,1.12-1.51H118.39z
				 M124.26,118.89c-0.87,0.88-1.55,1.36-2.72,1.94c-0.14-0.26-0.32-0.46-0.55-0.66c1.17-0.48,1.82-0.92,2.63-1.77L124.26,118.89z
				 M123.16,110.14c-0.6,0-0.95,0.03-1.27,0.08v-0.88c0.36,0.06,0.62,0.08,1.27,0.08h3.48c0.64,0,0.99-0.03,1.27-0.08v0.88
				c-0.4-0.06-0.66-0.08-1.27-0.08h-1.25c-0.16,0.53-0.29,0.91-0.51,1.42h1.3c0.6,0,0.92-0.01,1.17-0.05
				c-0.03,0.36-0.04,0.66-0.04,1.18v4.3c0,0.53,0.01,0.85,0.04,1.25c-0.39-0.03-0.72-0.04-1.12-0.04h-2.83
				c-0.39,0-0.71,0.01-1.12,0.04c0.03-0.39,0.04-0.75,0.04-1.18v-4.32c0-0.53-0.01-0.94-0.05-1.22c0.31,0.03,0.58,0.04,1.13,0.04
				h0.7c0.21-0.52,0.35-0.94,0.48-1.42H123.16z M123.09,113.51h3.47v-1.25h-3.47V113.51z M123.09,115.49h3.47v-1.29h-3.47V115.49z
				 M123.09,117.51h3.47v-1.34h-3.47V117.51z M125.74,118.41c0.82,0.77,1.38,1.14,2.55,1.69c-0.22,0.23-0.39,0.45-0.53,0.73
				c-1.14-0.61-1.78-1.09-2.61-1.94L125.74,118.41z"/>
			<path d="M130.56,111.07c-0.48,0-0.9,0.03-1.26,0.08v-0.94c0.36,0.06,0.7,0.09,1.27,0.09h3.98v-0.08c0-0.53-0.03-0.87-0.09-1.25
				h0.99c-0.05,0.38-0.08,0.74-0.08,1.25v0.08h4.16c0.64,0,0.95-0.03,1.31-0.09v0.94c-0.4-0.05-0.82-0.08-1.3-0.08h-4.17v1.29h2.73
				c0.78,0,1.16-0.01,1.48-0.06c-0.05,0.39-0.05,0.64-0.05,1.36v1.07c0,0.65,0.01,1.03,0.05,1.39c-0.34-0.05-0.75-0.08-1.49-0.08
				h-2.26c1.22,1.59,3.02,2.74,5.37,3.46c-0.22,0.23-0.36,0.44-0.53,0.79c-1.29-0.51-2.27-1.03-3.17-1.68
				c-0.94-0.68-1.42-1.16-2.16-2.13c0.03,0.53,0.04,0.77,0.04,1.01v1.87c0,0.7,0.01,1,0.08,1.39h-0.99c0.07-0.4,0.09-0.73,0.09-1.39
				v-1.87c0-0.23,0-0.53,0.03-1c-0.62,0.86-0.96,1.22-1.73,1.85c-0.99,0.81-1.98,1.39-3.26,1.94c-0.14-0.3-0.26-0.47-0.52-0.74
				c1.37-0.49,2.57-1.18,3.64-2.07c0.58-0.48,0.96-0.9,1.34-1.43h-1.96c-0.78,0-1.18,0.03-1.51,0.08c0.04-0.38,0.05-0.64,0.05-1.39
				v-1.04c0-0.73-0.01-1.01-0.05-1.39c0.3,0.04,0.7,0.06,1.44,0.06h2.54v-1.29H130.56z M131.42,113.07v2.25h3.13v-2.25H131.42z
				 M135.37,115.32h3.37v-2.25h-3.37V115.32z"/>
			<path d="M141.86,121.35c0.91-1.29,1.62-2.96,1.62-5.3s-0.7-3.99-1.62-5.29h0.88c0.82,1.07,1.7,2.74,1.7,5.29
				c-0.01,2.55-0.88,4.2-1.7,5.3H141.86z"/>
		</g>
		<g>
			<path d="M144.45,137.36c0-0.66-0.01-1.18-0.05-1.7h1.01l0.06,1.03h0.03c0.31-0.58,1.04-1.17,2.08-1.17
				c0.87,0,2.22,0.52,2.22,2.68v3.76h-1.14v-3.63c0-1.01-0.38-1.87-1.46-1.87c-0.74,0-1.33,0.53-1.53,1.17
				c-0.05,0.14-0.08,0.35-0.08,0.53v3.8h-1.14V137.36z"/>
			<path d="M156.93,140.22c0,0.66,0.01,1.24,0.05,1.73h-1.01l-0.07-1.03h-0.03c-0.29,0.51-0.96,1.17-2.08,1.17
				c-0.99,0-2.17-0.56-2.17-2.76v-3.68h1.14v3.47c0,1.2,0.38,2.01,1.4,2.01c0.77,0,1.3-0.53,1.51-1.05c0.06-0.16,0.1-0.36,0.1-0.58
				v-3.85h1.14V140.22z"/>
			<path d="M159.97,138.54H160c0.16-0.22,0.36-0.49,0.55-0.71l1.86-2.17h1.37l-2.43,2.59l2.77,3.71h-1.39l-2.16-3.02l-0.58,0.65
				v2.37h-1.14v-9.23h1.14V138.54z"/>
			<path d="M165.69,134.59c-0.42,0-0.69-0.33-0.69-0.7c0-0.4,0.29-0.71,0.71-0.71c0.42,0,0.7,0.31,0.7,0.71
				c0,0.38-0.27,0.7-0.71,0.7H165.69z M165.15,141.95v-6.29h1.14v6.29H165.15z"/>
			<path d="M173.42,132.93c-0.95,1.29-1.62,2.96-1.62,5.33c0,2.31,0.71,3.96,1.62,5.26h-0.88c-0.82-1.08-1.7-2.74-1.7-5.28
				c0.01-2.55,0.88-4.23,1.7-5.32H173.42z"/>
			<path d="M184.5,133.66c-0.17,0.98-0.25,1.47-0.25,1.5c-0.26-0.03-0.62-0.04-1.29-0.04h-6.46c-0.47,0-0.77,0.01-1.08,0.04
				c0.18-0.49,0.3-0.91,0.43-1.5h-0.39c-0.51,0-0.8,0.01-1.12,0.07v-0.73c0.29,0.05,0.6,0.06,1.14,0.06h0.48
				c0.14-0.82,0.18-1.07,0.18-1.47c0.27,0.04,0.65,0.05,1.12,0.05h6.38c0.65,0,0.91-0.01,1.18-0.05c-0.06,0.27-0.08,0.38-0.12,0.65
				c-0.01,0.08-0.05,0.35-0.13,0.82h0.23c0.56,0,0.84-0.01,1.17-0.06v0.73c-0.33-0.05-0.62-0.07-1.14-0.07H184.5z M178.76,141.5
				c-1.26,0.71-2.16,1.04-3.89,1.39c-0.13-0.29-0.25-0.46-0.49-0.74c1.59-0.21,2.56-0.51,3.74-1.14L178.76,141.5z M183,135.83
				c0.68,0,1-0.01,1.35-0.05c-0.03,0.38-0.04,0.78-0.04,1.42v2.33c0,0.7,0.01,1.12,0.05,1.35c-0.34-0.04-0.83-0.05-1.46-0.05h-5.54
				c-0.62,0-1.12,0.01-1.46,0.05c0.04-0.26,0.05-0.66,0.05-1.33v-2.38c0-0.57-0.01-0.96-0.04-1.38c0.37,0.03,0.73,0.04,1.35,0.04
				H183z M176.65,133.66c-0.06,0.29-0.09,0.42-0.22,0.86h3.04c0.1-0.35,0.14-0.55,0.22-0.86H176.65z M176.75,137.28h6.76v-0.83
				h-6.76V137.28z M176.75,138.74h6.76v-0.86h-6.76V138.74z M176.75,140.19h6.76v-0.86h-6.76V140.19z M179.82,133.06
				c0.05-0.27,0.07-0.35,0.13-0.79h-3.03c-0.07,0.36-0.07,0.4-0.14,0.79H179.82z M180.45,133.66c-0.08,0.36-0.12,0.55-0.21,0.86
				h3.28c0.09-0.38,0.1-0.44,0.18-0.86H180.45z M183.8,133.06c0.05-0.32,0.06-0.4,0.12-0.79h-3.22c-0.08,0.48-0.08,0.48-0.13,0.79
				H183.8z M182.14,141.01c1.26,0.65,2.18,0.91,3.86,1.1c-0.21,0.25-0.31,0.4-0.49,0.77c-1.73-0.33-2.71-0.66-3.98-1.39
				L182.14,141.01z"/>
			<path d="M186.95,143.52c0.91-1.29,1.62-2.96,1.62-5.3s-0.7-3.99-1.62-5.29h0.88c0.82,1.07,1.7,2.74,1.7,5.29
				c-0.01,2.55-0.88,4.2-1.7,5.3H186.95z"/>
		</g>
	</g>
</svg>
