<?xml version="1.0" encoding="iso-8859-1"?>
<!-- Generator: Adobe Illustrator 11 Build 196, SVG Export Plug-In . SVG Version: 6.0.0 Build 78)  -->
<!DOCTYPE svg PUBLIC "-//W3C//DTD SVG 1.0//EN"    "http://www.w3.org/TR/2001/REC-SVG-20010904/DTD/svg10.dtd" [
	<!ENTITY ns_flows "http://ns.adobe.com/Flows/1.0/">
	<!ENTITY ns_svg "http://www.w3.org/2000/svg">
	<!ENTITY ns_xlink "http://www.w3.org/1999/xlink">
]>
<svg  xmlns="&ns_svg;" xmlns:xlink="&ns_xlink;" xmlns:a="http://ns.adobe.com/AdobeSVGViewerExtensions/3.0/"
	 width="192.17" height="176.45" viewBox="0 0 192.17 176.45" style="overflow:visible;enable-background:new 0 0 192.17 176.45"
	 xml:space="preserve">
	<g id="Pfade">
		<circle cx="96.08" cy="91.89" r="11.21"/> 
		<path d="M71.65,106.18l6.6,3.67c0,0,3.12-5,7.23-9.58c2.35,3.06,5.81,4.9,9.48,5.27c-0.51,6.87,0.4,34.12-0.05,40.2
			c-0.62,8.45-4.11,18.18-17.03,25.63c-19.83,11.45-40.68,1.95-48.84-12.18c-8.16-14.13-4-26.1-4-26.1s-12.44-2.39-20.6-16.52
			c-8.16-14.13-5.96-36.93,13.87-48.38c12.91-7.46,23.08-5.61,30.71-1.93c5.49,2.65,28.63,17.06,34.84,20.05
			c-1.51,3.36-1.65,7.28-0.18,10.84c-6.02,1.26-11.91,1.47-11.91,1.47L71.65,106.18z"/>
		<path d="M120.51,106.05l-0.13-7.55c0,0-5.89-0.21-11.91-1.47c1.48-3.56,1.34-7.48-0.17-10.85c6.21-3,29.35-17.4,34.84-20.05
			c7.63-3.68,17.8-5.53,30.71,1.93c19.83,11.45,22.03,34.25,13.87,48.38c-8.16,14.13-20.6,16.52-20.6,16.52s4.15,11.97-4.01,26.1
			c-8.16,14.13-29.01,23.62-48.83,12.18c-12.91-7.46-16.4-17.18-17.02-25.63c-0.45-6.08,0.45-33.33-0.05-40.2
			c3.67-0.37,7.13-2.21,9.48-5.27c4.11,4.58,7.23,9.58,7.23,9.58L120.51,106.05z"/>
		<path d="M96.08,63.4l-6.47,3.89c0,0,2.77,5.2,4.68,11.05c-3.82,0.5-7.15,2.59-9.3,5.58c-5.7-3.88-29.75-16.72-34.79-20.15
			C43.2,59,36.52,51.11,36.52,36.2C36.52,13.31,55.16,0,71.48,0c16.32,0,24.6,9.58,24.6,9.58S104.37,0,120.69,0
			c16.32,0,34.96,13.31,34.96,36.2c0,14.91-6.68,22.8-13.68,27.56c-5.04,3.43-29.09,16.27-34.79,20.15
			c-2.16-2.99-5.48-5.07-9.3-5.58c1.92-5.85,4.68-11.05,4.68-11.05L96.08,63.4z"/>
	</g>
</svg>
