<?xml version="1.0" encoding="iso-8859-1"?>
<!-- Generator: Adobe Illustrator 11 Build 196, SVG Export Plug-In . SVG Version: 6.0.0 Build 78)  -->
<!DOCTYPE svg PUBLIC "-//W3C//DTD SVG 1.0//EN"    "http://www.w3.org/TR/2001/REC-SVG-20010904/DTD/svg10.dtd" [
	<!ENTITY ns_flows "http://ns.adobe.com/Flows/1.0/">
	<!ENTITY ns_svg "http://www.w3.org/2000/svg">
	<!ENTITY ns_xlink "http://www.w3.org/1999/xlink">
	<!ENTITY st0 "stroke:#000000;">
	<!ENTITY st1 "fill:none;stroke:#000000;">
]>
<svg  xmlns="&ns_svg;" xmlns:xlink="&ns_xlink;" xmlns:a="http://ns.adobe.com/AdobeSVGViewerExtensions/3.0/"
	 width="183.4" height="159.92" viewBox="0 0 183.4 159.92" style="overflow:visible;enable-background:new 0 0 183.4 159.92"
	 xml:space="preserve">
	<g id="Layer_1">
		<g>
			<g>
				<path style="&st1;" d="M91.7,0.98c2.23,3.76,14.3,9.8,20.92,9.8c12.85,0,19.02,4.41,22.03,9c8.51,2.6,15.03,9.7,17.02,18.55
					c5.43,4.12,8.65,11.31,9.8,21.9c2.01,18.38,3.02,36.84,5.28,55.19c1.62,13.17,3.51,31.21,15.5,44H1.15
					c11.99-12.79,13.88-30.83,15.5-44c2.26-18.35,3.27-36.81,5.27-55.19c1.15-10.58,4.38-17.78,9.8-21.9
					c1.99-8.85,8.51-15.95,17.02-18.55c3-4.59,9.17-9,22.02-9C77.4,10.78,89.47,4.74,91.7,0.98z"/>
				<path style="&st1;" d="M164.46,159.05c-8.73-13.91-10.01-30.05-11.5-42.18c-0.67-5.41-0.67-16.39-1.38-28.01
					c-0.64-10.6-1.31-21.56-1.94-27.34c-0.76-7-2.67-12.44-8.93-15.8c-0.45-8.8-5.62-14.44-14.33-15.55
					c-2.44-6.06-7.32-7.5-13.77-7.5c-6.44,0-14.76-3.07-20.92-6.94c-6.16,3.86-14.48,6.94-20.92,6.94c-6.46,0-11.33,1.44-13.77,7.5
					c-8.71,1.11-13.88,6.75-14.33,15.55c-6.26,3.36-8.16,8.8-8.93,15.8c-0.63,5.78-1.3,16.74-1.94,27.34
					c-0.7,11.62-0.71,22.6-1.37,28.01c-1.49,12.13-2.78,28.27-11.5,42.18"/>
			</g>
			<g>
				<line style="&st1;" x1="43.26" y1="42.82" x2="87.51" y2="42.82"/>
				<line style="&st1;" x1="33.35" y1="81.46" x2="87.4" y2="81.46"/>
				<line style="&st1;" x1="33.35" y1="78.82" x2="87.18" y2="78.82"/>
				<line style="&st1;" x1="30.59" y1="118.23" x2="87.51" y2="118.23"/>
				<line style="&st1;" x1="140.14" y1="42.82" x2="95.88" y2="42.82"/>
				<line style="&st1;" x1="150.05" y1="81.46" x2="95.99" y2="81.46"/>
				<line style="&st1;" x1="150.05" y1="78.82" x2="96.21" y2="78.82"/>
				<line style="&st1;" x1="152.8" y1="118.23" x2="95.88" y2="118.23"/>
			</g>
			<g>
				<polygon style="&st0;" points="93.13,16.72 93.13,159.19 90.27,159.19 90.27,16.72 91.7,15.73 "/>
				<g>
					<line style="&st1;" x1="87.74" y1="159.08" x2="87.74" y2="18.16"/>
					<line style="&st1;" x1="95.66" y1="159.08" x2="95.66" y2="18.16"/>
				</g>
			</g>
			<g>
				<line style="&st1;" x1="30.81" y1="118.12" x2="30.79" y2="159.08"/>
				<line style="&st1;" x1="42.38" y1="81.9" x2="42.52" y2="159.08"/>
				<line style="&st1;" x1="53.77" y1="81.9" x2="53.77" y2="159.08"/>
				<line style="&st1;" x1="65.09" y1="81.68" x2="65.09" y2="159.08"/>
				<line style="&st1;" x1="76.42" y1="81.9" x2="76.42" y2="159.08"/>
				<line style="&st1;" x1="42.23" y1="46.01" x2="42.38" y2="78.93"/>
				<line style="&st1;" x1="53.62" y1="31.15" x2="53.62" y2="78.93"/>
				<line style="&st1;" x1="64.95" y1="23.66" x2="64.95" y2="78.93"/>
				<line style="&st1;" x1="76.27" y1="22.23" x2="76.27" y2="78.93"/>
				<line style="&st1;" x1="152.58" y1="118.12" x2="152.61" y2="159.08"/>
				<line style="&st1;" x1="141.02" y1="81.9" x2="140.87" y2="159.08"/>
				<line style="&st1;" x1="129.63" y1="81.9" x2="129.63" y2="159.08"/>
				<line style="&st1;" x1="118.3" y1="81.68" x2="118.3" y2="159.08"/>
				<line style="&st1;" x1="106.98" y1="81.9" x2="106.98" y2="159.08"/>
				<line style="&st1;" x1="141.17" y1="46.01" x2="141.02" y2="78.93"/>
				<line style="&st1;" x1="129.77" y1="31.15" x2="129.77" y2="78.93"/>
				<line style="&st1;" x1="118.45" y1="23.66" x2="118.45" y2="78.93"/>
				<line style="&st1;" x1="107.13" y1="22.23" x2="107.13" y2="78.93"/>
			</g>
		</g>
	</g>
</svg>
