<?xml version="1.0" encoding="iso-8859-1"?>
<!-- Generator: Adobe Illustrator 11 Build 196, SVG Export Plug-In . SVG Version: 6.0.0 Build 78)  -->
<!DOCTYPE svg PUBLIC "-//W3C//DTD SVG 1.0//EN"    "http://www.w3.org/TR/2001/REC-SVG-20010904/DTD/svg10.dtd" [
	<!ENTITY ns_flows "http://ns.adobe.com/Flows/1.0/">
	<!ENTITY ns_svg "http://www.w3.org/2000/svg">
	<!ENTITY ns_xlink "http://www.w3.org/1999/xlink">
	<!ENTITY st0 "fill:none;stroke:#000000;stroke-linecap:round;stroke-linejoin:round;stroke-miterlimit:2;">
]>
<svg  xmlns="&ns_svg;" xmlns:xlink="&ns_xlink;" xmlns:a="http://ns.adobe.com/AdobeSVGViewerExtensions/3.0/"
	 width="169.06" height="169.19" viewBox="0 0 169.06 169.19" style="overflow:visible;enable-background:new 0 0 169.06 169.19"
	 xml:space="preserve">
	<g id="Bild">
		<path style="&st0;" d="M84.62,38.38c0-5.75,0-37.88,0-37.88s-2.75,3.06-3.19,5.19c-0.9,4.37-2.81,21.44-2.81,25.94
			c0,3.38,2.25,3,2,6.12s-2.5,4.5-5.25,4.38s-3.75-1.5-3.75-2.62c0-2.84,0.88-6.12,0.12-7.38c-1.02-1.69-6-5.91-6-12
			c0-8.12,10.25-16.5,14-19.5C66.71,0.79,57.5,8.69,57.5,23.38C57.5,39.04,68,41.42,68,47.08c0,0,14.12,0,16.62,0"/>
		<path style="&st0;" d="M84.62,45.25c-1.75,0-11.38,0-13.88,0C69,44.38,66.88,41,66.88,38.12c0-4.25-6.88-5.88-6.88-16.38
			c0-6.67,3.29-13.54,9.38-16.12c-4.62,3.88-6.88,9-6.62,16.25C63.14,33.21,68.5,31,68.5,36.62"/>
		<path style="&st0;" d="M68.88,47c0,1.75-0.5,3.75,0.62,6s3.5,2.25,4.38,4.25s1.88,3.62,3.38,4.12h7.38"/>
		<line style="&st0;" x1="78.62" y1="31.62" x2="84.38" y2="31.62"/>
		<path style="&st0;" d="M71.75,33.62c-1.38,0-3.25,1.38-3.25,3c0,3.62,2.5,7.25,5.12,7.25"/>
		<path style="&st0;" d="M76.62,45.38c4,0,8-2.38,8-7"/>
		<line style="&st0;" x1="72.12" y1="49.25" x2="84.62" y2="49.25"/>
		<path style="&st0;" d="M73.62,51.38c2.12,0.62,4.88,4.88,4.88,7"/>
		<path style="&st0;" d="M78.38,51.38c2.38,1.38,3.38,4.62,3.38,7"/>
		<path style="&st0;" d="M77.25,61.38c-1.88,0-1.75,3.12,0,3.12s7.38,0,7.38,0"/>
		<circle style="&st0;" cx="84.62" cy="84.62" r="8.31"/> 
		<circle style="&st0;" cx="84.62" cy="84.62" r="11.31"/> 
		<circle style="&st0;" cx="84.62" cy="84.62" r="18.56"/> 
		<line style="&st0;" x1="77.75" y1="64.75" x2="76.62" y2="67.88"/>
		<line style="&st0;" x1="84.62" y1="51.69" x2="84.62" y2="58.38"/>
		<path style="&st0;" d="M84.62,66.06c-0.75,1.31-3.87,3.6-2.88,7.44"/>
		<path style="&st0;" d="M71.56,71.56c0.42,1.45-0.11,5.28,3.32,7.25"/>
		<path style="&st0;" d="M71.56,71.56c1.47,0.33,5.27-0.42,7.43,2.9"/>
		<path style="&st0;" d="M66.06,84.62c1.33-0.71,3.73-3.75,7.52-2.64"/>
		<path style="&st0;" d="M84.62,76.32c-1.5,0-3.06,3.68-3.06,8.25s1.69,8.37,3.06,8.37"/>
		<path style="&st0;" d="M84.62,0.5c0,0,2.75,3.06,3.19,5.19c0.9,4.37,2.81,21.44,2.81,25.94c0,3.38-2.25,3-2,6.12
			s2.5,4.5,5.25,4.38s3.75-1.5,3.75-2.62c0-2.84-0.88-6.12-0.12-7.38c1.02-1.69,6-5.91,6-12c0-8.12-10.25-16.5-14-19.5
			c13.04,0.17,22.25,8.07,22.25,22.75c0,15.67-10.5,18.04-10.5,23.71c0,0-14.12,0-16.62,0"/>
		<path style="&st0;" d="M84.62,45.25c1.75,0,11.38,0,13.88,0c1.75-0.88,3.88-4.25,3.88-7.12c0-4.25,6.88-5.88,6.88-16.38
			c0-6.67-3.29-13.54-9.38-16.12c4.62,3.88,6.88,9,6.62,16.25c-0.39,11.33-5.75,9.12-5.75,14.75"/>
		<path style="&st0;" d="M100.38,47c0,1.75,0.5,3.75-0.62,6s-3.5,2.25-4.38,4.25S93.5,60.88,92,61.38h-7.38"/>
		<line style="&st0;" x1="87" y1="31.62" x2="84.88" y2="31.62"/>
		<path style="&st0;" d="M97.5,33.62c1.38,0,3.25,1.38,3.25,3c0,3.62-2.5,7.25-5.12,7.25"/>
		<path style="&st0;" d="M92.62,45.38c-4,0-8-2.38-8-7"/>
		<line style="&st0;" x1="97.12" y1="49.25" x2="84.62" y2="49.25"/>
		<path style="&st0;" d="M95.62,51.38c-2.12,0.62-4.88,4.88-4.88,7"/>
		<path style="&st0;" d="M90.88,51.38c-2.38,1.38-3.38,4.62-3.38,7"/>
		<path style="&st0;" d="M92,61.38c1.88,0,1.75,3.12,0,3.12s-7.38,0-7.38,0"/>
		<line style="&st0;" x1="91.5" y1="64.75" x2="92.62" y2="67.88"/>
		<path style="&st0;" d="M38.38,84.56c-5.75,0-37.88,0-37.88,0s3.06,2.75,5.19,3.19c4.37,0.9,21.44,2.81,25.94,2.81
			c3.38,0,3-2.25,6.12-2s4.5,2.5,4.38,5.25s-1.5,3.75-2.62,3.75c-2.84,0-6.12-0.88-7.38-0.12c-1.69,1.02-5.91,6-12,6
			c-8.12,0-16.5-10.25-19.5-14c0.17,13.04,8.07,22.25,22.75,22.25c15.67,0,18.04-10.5,23.71-10.5c0,0,0-14.12,0-16.62"/>
		<path style="&st0;" d="M45.25,84.56c0,1.75,0,11.38,0,13.88c-0.88,1.75-4.25,3.88-7.12,3.88c-4.25,0-5.88,6.88-16.38,6.88
			c-6.67,0-13.54-3.29-16.12-9.38c3.88,4.62,9,6.88,16.25,6.62c11.33-0.39,9.12-5.75,14.75-5.75"/>
		<path style="&st0;" d="M47,100.31c1.75,0,3.75,0.5,6-0.62s2.25-3.5,4.25-4.38s3.62-1.88,4.12-3.38v-7.38"/>
		<line style="&st0;" x1="31.62" y1="90.56" x2="31.62" y2="84.81"/>
		<path style="&st0;" d="M33.62,97.44c0,1.38,1.38,3.25,3,3.25c3.62,0,7.25-2.5,7.25-5.12"/>
		<path style="&st0;" d="M45.38,92.56c0-4-2.38-8-7-8"/>
		<line style="&st0;" x1="49.25" y1="97.06" x2="49.25" y2="84.56"/>
		<path style="&st0;" d="M51.38,95.56c0.62-2.12,4.88-4.88,7-4.88"/>
		<path style="&st0;" d="M51.38,90.81c1.38-2.38,4.62-3.38,7-3.38"/>
		<path style="&st0;" d="M61.38,91.94c0,1.88,3.12,1.75,3.12,0s0-7.38,0-7.38"/>
		<line style="&st0;" x1="64.75" y1="91.44" x2="67.88" y2="92.56"/>
		<line style="&st0;" x1="51.69" y1="84.56" x2="58.38" y2="84.56"/>
		<path style="&st0;" d="M66.06,84.56c1.31,0.75,3.6,3.87,7.44,2.88"/>
		<path style="&st0;" d="M71.56,97.62c1.45-0.42,5.28,0.11,7.25-3.32"/>
		<path style="&st0;" d="M71.56,97.62c0.33-1.47-0.42-5.27,2.9-7.43"/>
		<path style="&st0;" d="M84.62,103.12c-0.71-1.33-3.75-3.73-2.64-7.52"/>
		<path style="&st0;" d="M0.5,84.56c0,0,3.06-2.75,5.19-3.19c4.37-0.9,21.44-2.81,25.94-2.81c3.38,0,3,2.25,6.12,2
			s4.5-2.5,4.38-5.25s-1.5-3.75-2.62-3.75c-2.84,0-6.12,0.88-7.38,0.12c-1.69-1.02-5.91-6-12-6c-8.12,0-16.5,10.25-19.5,14
			c0.17-13.04,8.07-22.25,22.75-22.25c15.67,0,18.04,10.5,23.71,10.5c0,0,0,14.12,0,16.62"/>
		<path style="&st0;" d="M45.25,84.56c0-1.75,0-11.38,0-13.88c-0.88-1.75-4.25-3.88-7.12-3.88c-4.25,0-5.88-6.88-16.38-6.88
			c-6.67,0-13.54,3.29-16.12,9.38c3.88-4.62,9-6.88,16.25-6.62c11.33,0.39,9.12,5.75,14.75,5.75"/>
		<path style="&st0;" d="M47,68.81c1.75,0,3.75-0.5,6,0.62s2.25,3.5,4.25,4.38s3.62,1.88,4.12,3.38v7.38"/>
		<line style="&st0;" x1="31.62" y1="82.19" x2="31.62" y2="84.31"/>
		<path style="&st0;" d="M33.62,71.69c0-1.38,1.38-3.25,3-3.25c3.62,0,7.25,2.5,7.25,5.12"/>
		<path style="&st0;" d="M45.38,76.56c0,4-2.38,8-7,8"/>
		<line style="&st0;" x1="49.25" y1="72.06" x2="49.25" y2="84.56"/>
		<path style="&st0;" d="M51.38,73.56c0.62,2.12,4.88,4.88,7,4.88"/>
		<path style="&st0;" d="M51.38,78.31c1.38,2.38,4.62,3.38,7,3.38"/>
		<path style="&st0;" d="M61.38,77.19c0-1.88,3.12-1.75,3.12,0s0,7.38,0,7.38"/>
		<line style="&st0;" x1="64.75" y1="77.69" x2="67.88" y2="76.56"/>
		<path style="&st0;" d="M84.62,130.81c0,5.75,0,37.88,0,37.88s2.75-3.06,3.19-5.19c0.9-4.37,2.81-21.44,2.81-25.94
			c0-3.38-2.25-3-2-6.12s2.5-4.5,5.25-4.38s3.75,1.5,3.75,2.62c0,2.84-0.88,6.12-0.12,7.38c1.02,1.7,6,5.91,6,12
			c0,8.12-10.25,16.5-14,19.5c13.04-0.17,22.25-8.07,22.25-22.75c0-15.67-10.5-18.04-10.5-23.71c0,0-14.12,0-16.62,0"/>
		<path style="&st0;" d="M84.62,123.94c1.75,0,11.38,0,13.88,0c1.75,0.88,3.88,4.25,3.88,7.12c0,4.25,6.88,5.88,6.88,16.38
			c0,6.67-3.29,13.54-9.38,16.12c4.62-3.88,6.88-9,6.62-16.25c-0.39-11.33-5.75-9.12-5.75-14.75"/>
		<path style="&st0;" d="M100.38,122.19c0-1.75,0.5-3.75-0.62-6s-3.5-2.25-4.38-4.25s-1.88-3.62-3.38-4.12h-7.38"/>
		<line style="&st0;" x1="90.62" y1="137.56" x2="84.88" y2="137.56"/>
		<path style="&st0;" d="M97.5,135.56c1.38,0,3.25-1.38,3.25-3c0-3.62-2.5-7.25-5.12-7.25"/>
		<path style="&st0;" d="M92.62,123.81c-4,0-8,2.38-8,7"/>
		<line style="&st0;" x1="97.12" y1="119.94" x2="84.62" y2="119.94"/>
		<path style="&st0;" d="M95.62,117.81c-2.12-0.62-4.88-4.88-4.88-7"/>
		<path style="&st0;" d="M90.88,117.81c-2.38-1.38-3.38-4.62-3.38-7"/>
		<path style="&st0;" d="M92,107.81c1.88,0,1.75-3.12,0-3.12s-7.38,0-7.38,0"/>
		<line style="&st0;" x1="91.5" y1="104.44" x2="92.62" y2="101.31"/>
		<line style="&st0;" x1="84.62" y1="117.49" x2="84.62" y2="110.81"/>
		<path style="&st0;" d="M84.62,103.12c0.75-1.31,3.87-3.6,2.88-7.44"/>
		<path style="&st0;" d="M97.69,97.62c-0.42-1.45,0.11-5.28-3.32-7.25"/>
		<path style="&st0;" d="M97.69,97.62c-1.47-0.33-5.27,0.42-7.43-2.9"/>
		<path style="&st0;" d="M103.19,84.56c-1.33,0.71-3.73,3.75-7.52,2.64"/>
		<path style="&st0;" d="M84.62,168.69c0,0-2.75-3.06-3.19-5.19c-0.9-4.37-2.81-21.44-2.81-25.94c0-3.38,2.25-3,2-6.12
			s-2.5-4.5-5.25-4.38s-3.75,1.5-3.75,2.62c0,2.84,0.88,6.12,0.12,7.38c-1.02,1.7-6,5.91-6,12c0,8.12,10.25,16.5,14,19.5
			c-13.04-0.17-22.25-8.07-22.25-22.75c0-15.67,10.5-18.04,10.5-23.71c0,0,14.12,0,16.62,0"/>
		<path style="&st0;" d="M84.62,123.94c-1.75,0-11.38,0-13.88,0c-1.75,0.88-3.88,4.25-3.88,7.12c0,4.25-6.88,5.88-6.88,16.38
			c0,6.67,3.29,13.54,9.38,16.12c-4.62-3.88-6.88-9-6.62-16.25c0.39-11.33,5.75-9.12,5.75-14.75"/>
		<path style="&st0;" d="M68.88,122.19c0-1.75-0.5-3.75,0.62-6s3.5-2.25,4.38-4.25s1.88-3.62,3.38-4.12h7.38"/>
		<line style="&st0;" x1="82.25" y1="137.56" x2="84.38" y2="137.56"/>
		<path style="&st0;" d="M71.75,135.56c-1.38,0-3.25-1.38-3.25-3c0-3.62,2.5-7.25,5.12-7.25"/>
		<path style="&st0;" d="M76.62,123.81c4,0,8,2.38,8,7"/>
		<line style="&st0;" x1="72.12" y1="119.94" x2="84.62" y2="119.94"/>
		<path style="&st0;" d="M73.62,117.81c2.12-0.62,4.88-4.88,4.88-7"/>
		<path style="&st0;" d="M78.38,117.81c2.38-1.38,3.38-4.62,3.38-7"/>
		<path style="&st0;" d="M77.25,107.81c-1.88,0-1.75-3.12,0-3.12s7.38,0,7.38,0"/>
		<line style="&st0;" x1="77.75" y1="104.44" x2="76.62" y2="101.31"/>
		<path style="&st0;" d="M130.69,84.56c5.75,0,37.88,0,37.88,0s-3.06-2.75-5.19-3.19c-4.37-0.9-21.44-2.81-25.94-2.81
			c-3.38,0-3,2.25-6.12,2s-4.5-2.5-4.38-5.25s1.5-3.75,2.62-3.75c2.84,0,6.12,0.88,7.38,0.12c1.69-1.02,5.91-6,12-6
			c8.12,0,16.5,10.25,19.5,14c-0.17-13.04-8.07-22.25-22.75-22.25c-15.67,0-18.04,10.5-23.71,10.5c0,0,0,14.12,0,16.62"/>
		<path style="&st0;" d="M123.81,84.56c0-1.75,0-11.38,0-13.88c0.88-1.75,4.25-3.88,7.12-3.88c4.25,0,5.88-6.88,16.38-6.88
			c6.67,0,13.54,3.29,16.12,9.38c-3.88-4.62-9-6.88-16.25-6.62c-11.33,0.39-9.12,5.75-14.75,5.75"/>
		<path style="&st0;" d="M122.06,68.81c-1.75,0-3.75-0.5-6,0.62s-2.25,3.5-4.25,4.38s-3.62,1.88-4.12,3.38v7.38"/>
		<line style="&st0;" x1="137.44" y1="78.56" x2="137.44" y2="84.31"/>
		<path style="&st0;" d="M135.44,71.69c0-1.38-1.38-3.25-3-3.25c-3.62,0-7.25,2.5-7.25,5.12"/>
		<path style="&st0;" d="M123.69,76.56c0,4,2.38,8,7,8"/>
		<line style="&st0;" x1="119.81" y1="72.06" x2="119.81" y2="84.56"/>
		<path style="&st0;" d="M117.69,73.56c-0.62,2.12-4.88,4.88-7,4.88"/>
		<path style="&st0;" d="M117.69,78.31c-1.38,2.38-4.62,3.38-7,3.38"/>
		<path style="&st0;" d="M107.69,77.19c0-1.88-3.12-1.75-3.12,0s0,7.38,0,7.38"/>
		<line style="&st0;" x1="104.31" y1="77.69" x2="101.19" y2="76.56"/>
		<line style="&st0;" x1="117.37" y1="84.56" x2="110.69" y2="84.56"/>
		<path style="&st0;" d="M103,84.56c-1.31-0.75-3.6-3.87-7.44-2.88"/>
		<path style="&st0;" d="M97.5,71.5c-1.45,0.42-5.28-0.11-7.25,3.32"/>
		<path style="&st0;" d="M97.5,71.5c-0.33,1.47,0.42,5.27-2.9,7.43"/>
		<path style="&st0;" d="M84.44,66c0.71,1.33,3.75,3.73,2.64,7.52"/>
		<path style="&st0;" d="M168.56,84.56c0,0-3.06,2.75-5.19,3.19c-4.37,0.9-21.44,2.81-25.94,2.81c-3.38,0-3-2.25-6.12-2
			s-4.5,2.5-4.38,5.25s1.5,3.75,2.62,3.75c2.84,0,6.12-0.88,7.38-0.12c1.69,1.02,5.91,6,12,6c8.12,0,16.5-10.25,19.5-14
			c-0.17,13.04-8.07,22.25-22.75,22.25c-15.67,0-18.04-10.5-23.71-10.5c0,0,0-14.12,0-16.62"/>
		<path style="&st0;" d="M123.81,84.56c0,1.75,0,11.38,0,13.88c0.88,1.75,4.25,3.88,7.12,3.88c4.25,0,5.88,6.88,16.38,6.88
			c6.67,0,13.54-3.29,16.12-9.38c-3.88,4.62-9,6.88-16.25,6.62c-11.33-0.39-9.12-5.75-14.75-5.75"/>
		<path style="&st0;" d="M122.06,100.31c-1.75,0-3.75,0.5-6-0.62s-2.25-3.5-4.25-4.38s-3.62-1.88-4.12-3.38v-7.38"/>
		<line style="&st0;" x1="137.44" y1="86.94" x2="137.44" y2="84.81"/>
		<path style="&st0;" d="M135.44,97.44c0,1.38-1.38,3.25-3,3.25c-3.62,0-7.25-2.5-7.25-5.12"/>
		<path style="&st0;" d="M123.69,92.56c0-4,2.38-8,7-8"/>
		<line style="&st0;" x1="119.81" y1="97.06" x2="119.81" y2="84.56"/>
		<path style="&st0;" d="M117.69,95.56c-0.62-2.12-4.88-4.88-7-4.88"/>
		<path style="&st0;" d="M117.69,90.81c-1.38-2.38-4.62-3.38-7-3.38"/>
		<path style="&st0;" d="M107.69,91.94c0,1.88-3.12,1.75-3.12,0s0-7.38,0-7.38"/>
		<line style="&st0;" x1="104.31" y1="91.44" x2="101.19" y2="92.56"/>
	</g>
</svg>
