<?xml version="1.0" encoding="iso-8859-1"?>
<!-- Generator: Adobe Illustrator 11 Build 196, SVG Export Plug-In . SVG Version: 6.0.0 Build 78)  -->
<!DOCTYPE svg PUBLIC "-//W3C//DTD SVG 1.0//EN"    "http://www.w3.org/TR/2001/REC-SVG-20010904/DTD/svg10.dtd" [
	<!ENTITY ns_flows "http://ns.adobe.com/Flows/1.0/">
	<!ENTITY ns_svg "http://www.w3.org/2000/svg">
	<!ENTITY ns_xlink "http://www.w3.org/1999/xlink">
	<!ENTITY st0 "fill:none;stroke:#000000;">
]>
<svg  xmlns="&ns_svg;" xmlns:xlink="&ns_xlink;" xmlns:a="http://ns.adobe.com/AdobeSVGViewerExtensions/3.0/"
	 width="408.68" height="201.88" viewBox="0 0 408.68 201.88" style="overflow:visible;enable-background:new 0 0 408.68 201.88"
	 xml:space="preserve">
	<g id="Pfade">
		<polyline style="&st0;" points="29.64,67.29 29.64,33.65 58.78,16.82 87.91,33.65 "/>
		<polyline style="&st0;" points="87.91,67.29 87.91,33.65 117.05,16.82 146.19,33.65 "/>
		<polyline style="&st0;" points="146.19,67.29 146.19,33.65 175.33,16.82 204.46,33.65 "/>
		<polyline style="&st0;" points="204.46,67.29 204.46,33.65 233.6,16.82 262.74,33.65 "/>
		<polyline style="&st0;" points="262.74,67.29 262.74,33.65 291.88,16.82 321.01,33.65 "/>
		<polyline style="&st0;" points="321.01,67.29 321.01,33.65 350.15,16.82 379.29,33.65 "/>
		<polyline style="&st0;" points="379.29,67.29 379.29,33.65 408.43,16.82 "/>
		<polyline style="&st0;" points="0.5,117.76 0.5,84.11 29.64,67.29 58.78,84.11 "/>
		<polyline style="&st0;" points="58.78,117.76 58.78,84.11 87.91,67.29 117.05,84.11 "/>
		<polyline style="&st0;" points="117.05,117.76 117.05,84.11 146.19,67.29 175.33,84.11 "/>
		<polyline style="&st0;" points="175.33,117.76 175.33,84.11 204.46,67.29 233.6,84.11 "/>
		<polyline style="&st0;" points="233.6,117.76 233.6,84.11 262.74,67.29 291.88,84.11 "/>
		<polyline style="&st0;" points="291.88,117.76 291.88,84.11 321.01,67.29 350.15,84.11 "/>
		<polyline style="&st0;" points="350.15,117.76 350.15,84.11 379.29,67.29 408.43,84.11 "/>
		<polyline style="&st0;" points="29.64,168.23 29.64,134.58 58.78,117.76 87.92,134.58 "/>
		<polyline style="&st0;" points="87.92,168.23 87.92,134.58 117.05,117.76 146.19,134.58 "/>
		<polyline style="&st0;" points="146.19,168.23 146.19,134.58 175.33,117.76 204.46,134.58 "/>
		<polyline style="&st0;" points="204.46,168.23 204.46,134.58 233.6,117.76 262.74,134.58 "/>
		<polyline style="&st0;" points="262.74,168.23 262.74,134.58 291.88,117.76 321.01,134.58 "/>
		<polyline style="&st0;" points="321.01,168.23 321.01,134.58 350.15,117.76 379.29,134.58 "/>
		<polyline style="&st0;" points="379.29,168.23 379.29,134.58 408.43,117.76 "/>
		<polyline style="&st0;" points="0.5,185.06 29.64,168.23 58.78,185.06 "/>
		<line style="&st0;" x1="0.5" y1="201.88" x2="0.5" y2="185.06"/>
		<polyline style="&st0;" points="58.78,185.06 87.92,168.23 117.05,185.06 "/>
		<line style="&st0;" x1="58.78" y1="201.88" x2="58.78" y2="185.06"/>
		<polyline style="&st0;" points="117.05,185.06 146.19,168.23 175.33,185.06 "/>
		<line style="&st0;" x1="117.05" y1="201.88" x2="117.05" y2="185.06"/>
		<polyline style="&st0;" points="175.33,185.06 204.47,168.23 233.6,185.06 "/>
		<line style="&st0;" x1="175.33" y1="201.88" x2="175.33" y2="185.06"/>
		<polyline style="&st0;" points="233.6,185.06 262.74,168.23 291.88,185.06 "/>
		<line style="&st0;" x1="233.6" y1="201.88" x2="233.6" y2="185.06"/>
		<polyline style="&st0;" points="291.88,185.06 321.01,168.23 350.15,185.06 "/>
		<line style="&st0;" x1="291.88" y1="201.88" x2="291.88" y2="185.06"/>
		<polyline style="&st0;" points="350.15,185.06 379.29,168.23 408.43,185.06 "/>
		<line style="&st0;" x1="350.15" y1="201.88" x2="350.15" y2="185.06"/>
		<line style="&st0;" x1="0.5" y1="16.82" x2="0.5" y2="0"/>
		<line style="&st0;" x1="58.78" y1="16.82" x2="58.78" y2="0"/>
		<line style="&st0;" x1="117.05" y1="16.82" x2="117.05" y2="0"/>
		<line style="&st0;" x1="175.33" y1="16.82" x2="175.33" y2="0"/>
		<line style="&st0;" x1="233.6" y1="16.82" x2="233.6" y2="0"/>
		<line style="&st0;" x1="291.87" y1="16.82" x2="291.87" y2="0"/>
		<line style="&st0;" x1="350.15" y1="16.82" x2="350.15" y2="0"/>
		<line style="&st0;" x1="0.5" y1="16.82" x2="29.64" y2="33.65"/>
		<line style="&st0;" x1="0.5" y1="117.76" x2="29.64" y2="134.58"/>
	</g>
</svg>
