<?xml version="1.0" encoding="iso-8859-1"?>
<!-- Generator: Adobe Illustrator 11 Build 196, SVG Export Plug-In . SVG Version: 6.0.0 Build 78)  -->
<!DOCTYPE svg PUBLIC "-//W3C//DTD SVG 1.0//EN"    "http://www.w3.org/TR/2001/REC-SVG-20010904/DTD/svg10.dtd" [
	<!ENTITY ns_flows "http://ns.adobe.com/Flows/1.0/">
	<!ENTITY ns_svg "http://www.w3.org/2000/svg">
	<!ENTITY ns_xlink "http://www.w3.org/1999/xlink">
	<!ENTITY st0 "fill:#0A0809;">
]>
<svg  xmlns="&ns_svg;" xmlns:xlink="&ns_xlink;" xmlns:a="http://ns.adobe.com/AdobeSVGViewerExtensions/3.0/"
	 width="156.07" height="180.21" viewBox="0 0 156.07 180.21" style="overflow:visible;enable-background:new 0 0 156.07 180.21"
	 xml:space="preserve">
	<g id="Pfade">
		<path style="&st0;" d="M71.65,3.69L0,45.05v90.1l78.03,45.05l78.03-45.05v-90.1L78.03,0L71.65,3.69z M78.03,29.49
			c9.27,5.35,43.23,24.96,52.5,30.31c0,10.7,0,49.92,0,60.62c-9.27,5.35-43.23,24.96-52.5,30.31c-9.27-5.35-43.23-24.96-52.49-30.31
			c0-10.7,0-49.92,0-60.62C34.8,54.45,68.77,34.84,78.03,29.49z M77.12,33.6L28.64,61.59v57.04l49.4,28.52l49.39-28.52V61.59
			L78.03,33.07L77.12,33.6z M78.03,37.28c1.72,0.99,44.03,25.42,45.75,26.41c0,1.99,0,50.84,0,52.82
			c-1.72,0.99-44.03,25.42-45.75,26.41c-1.72-0.99-44.03-25.42-45.75-26.41c0-1.99,0-50.84,0-52.82
			C34.01,62.7,76.31,38.27,78.03,37.28z"/>
	</g>
</svg>
