<?xml version="1.0" encoding="iso-8859-1"?>
<!-- Generator: Adobe Illustrator 11 Build 196, SVG Export Plug-In . SVG Version: 6.0.0 Build 78)  -->
<!DOCTYPE svg PUBLIC "-//W3C//DTD SVG 1.0//EN"    "http://www.w3.org/TR/2001/REC-SVG-20010904/DTD/svg10.dtd" [
	<!ENTITY ns_flows "http://ns.adobe.com/Flows/1.0/">
	<!ENTITY ns_svg "http://www.w3.org/2000/svg">
	<!ENTITY ns_xlink "http://www.w3.org/1999/xlink">
	<!ENTITY st0 "fill:#0A0809;">
	<!ENTITY st1 "fill:none;stroke:#FFFFFF;stroke-width:2;stroke-linecap:round;stroke-linejoin:round;">
]>
<svg  xmlns="&ns_svg;" xmlns:xlink="&ns_xlink;" xmlns:a="http://ns.adobe.com/AdobeSVGViewerExtensions/3.0/"
	 width="202.44" height="186.05" viewBox="0 0 202.44 186.05" style="overflow:visible;enable-background:new 0 0 202.44 186.05"
	 xml:space="preserve">
	<g id="Pfade">
		<g>
			<path style="&st0;" d="M101.47,0.05c0,0,5.33-1,5.67,5.67c19.33,1.67-2.67,21.33-2.67,21.33v14.67l3.33-2.67c0,0-1-5.67,1-11.33
				c3.67-13,12.33-8.33,14.67-4.67c6.33-3,9.67,5.33,5.67,10c1.33,0.33,3.67,5,0.67,8.67s-13.67,5.33-18.67,1.67l-7,3.33v24
				l4.67-4.33c0,0-1-2-0.33-11.33s8.33-9,13.67-8c9-4.33,11.33,4,10,9c3,1,3.67,7.67,2,10.33c-1.67,2.67-16.67,6.67-22.67,3
				l-7.33,8.33l1,3.67c0,0,23.67-16.33,53.67-14c31.33,2.44,38.01,16.56,37.33,28.33c16.67,20.33-5,33.67-5,33.67
				c-1.67,15.33-23.33,21.67-31,14.33c-3.33,2.67-11.67,5.67-16.33,3c0,5.33-3.67,10-6.33,10c0,15.67-17,21.33-20.33,20
				c-2,1.33-6,9.33-16.33,9.33h0.83c-10.33,0-14.33-8-16.33-9.33c-3.33,1.33-20.33-4.33-20.33-20c-2.67,0-6.33-4.67-6.33-10
				c-4.67,2.67-13-0.33-16.33-3c-7.67,7.33-29.33,1-31-14.33c0,0-21.67-13.33-5-33.67c-0.67-11.67,7.33-26,37.33-28.33
				s53.67,14,53.67,14l1-3.67l-7.33-8.33c-6,3.67-21-0.33-22.67-3c-1.67-2.67-1-9.33,2-10.33c-1.33-5,1-13.33,10-9
				c5.33-1,13-1.33,13.67,8s-0.33,11.33-0.33,11.33l4.67,4.33v-24l-7-3.33c-5,3.67-15.67,2-18.67-1.67s-0.67-8.33,0.67-8.67
				c-4-4.67-0.67-13,5.67-10c2.33-3.67,11-8.33,14.67,4.67c2,5.67,1,11.33,1,11.33l3.33,2.67V27.05c0,0-22-19.67-2.67-21.33
				c0.33-6.67,5.67-5.67,5.67-5.67H101.47z"/>
			<path style="&st0;" d="M33.89,67.14l-6.25-3.5c-5.5,3.5-24.5,2.25-19.25-9c-1.25-3.5-0.75-10.5,6.25-10.25
				c3.25-5,16-9.5,15.5,15.25c0,0.25,4.5,1.75,4.5,1.75V47.64c0,0-9.75-5.75-8.75-10.25c-5.25-2.5-0.5-10,5-10.75
				c1.25-6.75,9.25-6,11.5-2.75c3.25,1,11,6.25,7,12.5s-10.5,10.5-10.5,10.5v15.5l4.25-2.5c0,0-1.75-14,7.75-19
				c4.5-1.25,6.5,1.5,7.25,2.75c3.75-1,12.75,2.5,6.75,11c2.75,2.5,2,10-7.25,11s-12.25-2.25-12.25-2.25l-4,3L33.89,67.14z"/>
			<path style="&st0;" d="M168.38,67.14l6.25-3.5c5.5,3.5,24.5,2.25,19.25-9c1.25-3.5,0.75-10.5-6.25-10.25
				c-3.25-5-16-9.5-15.5,15.25c0,0.25-4.5,1.75-4.5,1.75V47.64c0,0,9.75-5.75,8.75-10.25c5.25-2.5,0.5-10-5-10.75
				c-1.25-6.75-9.25-6-11.5-2.75c-3.25,1-11,6.25-7,12.5s10.5,10.5,10.5,10.5v15.5l-4.25-2.5c0,0,1.75-14-7.75-19
				c-4.5-1.25-6.5,1.5-7.25,2.75c-3.75-1-12.75,2.5-6.75,11c-2.75,2.5-2,10,7.25,11s12.25-2.25,12.25-2.25l4,3L168.38,67.14z"/>
			<g>
				<circle style="&st1;" cx="101.47" cy="88.72" r="8.33"/> 
				<path style="&st1;" d="M92.14,88.22c-12.67,0.5-48.5,15.83-66,47.33"/>
				<path style="&st1;" d="M88.64,88.39c-10-11.33-37-23.67-71.67-1.33"/>
				<path style="&st1;" d="M78.3,91.55c-17.17-10.83-41.67-12.5-64.67,11.33"/>
				<path style="&st1;" d="M66.47,96.89c-16.5-7.33-36.33-2-51.83,18.17"/>
				<path style="&st1;" d="M55.97,103.05c-12.5-2.5-29.67,6.67-34.67,23.83"/>
				<path style="&st1;" d="M55.3,104.39c-2,15-14.33,27.17-19.5,32.17"/>
				<path style="&st1;" d="M65.47,97.39c1.5,15-8.5,34.67-17.83,41.67"/>
				<path style="&st1;" d="M79.14,91.39c0.5,5.67-0.33,11.5-1.33,13.5"/>
				<path style="&st1;" d="M91.47,88.39c0,0,0,8-0.5,8.83"/>
				<path style="&st1;" d="M95.8,95.39c-20.5,5.5-36.5,32.33-37.17,50.67"/>
				<path style="&st1;" d="M99.8,102.89c-17.83,8.67-32,27.5-33.17,45.67"/>
				<path style="&st1;" d="M100.3,113.72c-16.33,8-26.5,24.17-25.83,44.67"/>
				<path style="&st1;" d="M100.47,124.05c-15,9.33-18.33,30.33-17.67,42.17"/>
				<path style="&st1;" d="M100.64,135.89c-9,6.83-10.83,26.83-7,36.17"/>
				<path style="&st1;" d="M110.63,88.22c12.67,0.5,48.5,15.83,66,47.33"/>
				<path style="&st1;" d="M114.13,88.39c10-11.33,37-23.67,71.67-1.33"/>
				<path style="&st1;" d="M124.47,91.55c17.17-10.83,41.67-12.5,64.67,11.33"/>
				<path style="&st1;" d="M136.3,96.89c16.5-7.33,36.33-2,51.83,18.17"/>
				<path style="&st1;" d="M146.8,103.05c12.5-2.5,29.67,6.67,34.67,23.83"/>
				<path style="&st1;" d="M147.47,104.39c2,15,14.33,27.17,19.5,32.17"/>
				<path style="&st1;" d="M137.3,97.39c-1.5,15,8.5,34.67,17.83,41.67"/>
				<path style="&st1;" d="M123.63,91.39c-0.5,5.67,0.33,11.5,1.33,13.5"/>
				<path style="&st1;" d="M111.3,88.39c0,0,0,8,0.5,8.83"/>
				<path style="&st1;" d="M106.97,95.39c20.5,5.5,36.5,32.33,37.17,50.67"/>
				<path style="&st1;" d="M102.97,102.89c17.83,8.67,32,27.5,33.17,45.67"/>
				<path style="&st1;" d="M102.47,113.72c16.33,8,26.5,24.17,25.83,44.67"/>
				<path style="&st1;" d="M102.3,124.05c15,9.33,18.33,30.33,17.67,42.17"/>
				<path style="&st1;" d="M102.14,135.89c9,6.83,10.83,26.83,7,36.17"/>
				<line style="&st1;" x1="100.97" y1="97.05" x2="100.97" y2="177.05"/>
			</g>
		</g>
	</g>
</svg>
