<?xml version="1.0" encoding="iso-8859-1"?>
<!-- Generator: Adobe Illustrator 11 Build 196, SVG Export Plug-In . SVG Version: 6.0.0 Build 78)  -->
<!DOCTYPE svg PUBLIC "-//W3C//DTD SVG 1.0//EN"    "http://www.w3.org/TR/2001/REC-SVG-20010904/DTD/svg10.dtd" [
	<!ENTITY ns_flows "http://ns.adobe.com/Flows/1.0/">
	<!ENTITY ns_svg "http://www.w3.org/2000/svg">
	<!ENTITY ns_xlink "http://www.w3.org/1999/xlink">
	<!ENTITY st0 "fill:none;stroke:#000000;stroke-linecap:round;stroke-linejoin:round;">
	<!ENTITY st1 "fill:#7F7F7F;stroke:#000000;stroke-linecap:round;stroke-linejoin:round;">
]>
<svg  xmlns="&ns_svg;" xmlns:xlink="&ns_xlink;" xmlns:a="http://ns.adobe.com/AdobeSVGViewerExtensions/3.0/"
	 width="219.87" height="183.47" viewBox="0 0 219.87 183.47" style="overflow:visible;enable-background:new 0 0 219.87 183.47"
	 xml:space="preserve">
	<g id="Pfade">
		<line style="&st0;" x1="110.18" y1="182.92" x2="110.18" y2="59.77"/>
		<line style="&st0;" x1="164.97" y1="66.31" x2="117.27" y2="66.31"/>
		<line style="&st0;" x1="164.97" y1="182.58" x2="164.97" y2="59.81"/>
		<line style="&st0;" x1="117.27" y1="171.58" x2="164.97" y2="171.58"/>
		<line style="&st0;" x1="117.27" y1="59.81" x2="117.27" y2="182.58"/>
		<line style="&st0;" x1="131.43" y1="171.58" x2="131.43" y2="66.62"/>
		<line style="&st0;" x1="147.27" y1="171.27" x2="147.27" y2="66.93"/>
		<line style="&st0;" x1="170.89" y1="4.55" x2="170.89" y2="18.89"/>
		<line style="&st0;" x1="170.88" y1="21.38" x2="170.88" y2="159.67"/>
		<line style="&st0;" x1="117.27" y1="174.5" x2="164.97" y2="174.5"/>
		<line style="&st0;" x1="117.27" y1="177.74" x2="165.3" y2="177.74"/>
		<polyline style="&st0;" points="187.05,36.78 206.4,36.78 206.4,54.61 "/>
		<line style="&st0;" x1="186.38" y1="54.92" x2="206.4" y2="54.92"/>
		<path style="&st0;" d="M169.87,177.74c-1.49,0-2.7,1.12-2.7,2.49v2.49"/>
		<path style="&st0;" d="M186.37,21.38c0.74,0,1.35-0.56,1.35-1.25s-0.6-1.25-1.35-1.25h-15.48c-0.74,0-1.35,0.56-1.35,1.25
			s0.6,1.25,1.35,1.25H186.37z"/>
		<ellipse style="&st0;" cx="139.86" cy="124.15" rx="2.7" ry="2.49"/> 
		<ellipse style="&st0;" cx="112.63" cy="115.47" rx="2.7" ry="2.49"/> 
		<ellipse style="&st0;" cx="112.63" cy="124.47" rx="2.7" ry="2.49"/> 
		<ellipse style="&st0;" cx="139.86" cy="104.52" rx="2.7" ry="2.49"/> 
		<polygon style="&st0;" points="186.37,4.55 181.31,0.5 175.95,0.5 170.89,4.55 "/>
		<line style="&st0;" x1="186.37" y1="4.55" x2="186.37" y2="18.89"/>
		<line style="&st0;" x1="186.38" y1="21.38" x2="186.38" y2="159.67"/>
		<path style="&st0;" d="M187.39,177.74v-13.71h1.69v-1.87c0-1.38-1.21-2.49-2.7-2.49h-15.5c-1.49,0-2.7,1.12-2.7,2.49v1.87h1.68
			v13.71"/>
		<line style="&st0;" x1="187.39" y1="164.03" x2="169.87" y2="164.03"/>
		<line style="&st0;" x1="187.39" y1="177.74" x2="169.87" y2="177.74"/>
		<rect x="209.1" y="38.03" style="&st0;" width="10.27" height="15.96"/> 
		<polygon style="&st1;" points="171.03,154.53 160.27,154.53 158.08,156.55 151,156.55 155.38,152.5 151,148.45 158.08,148.45 
			160.27,150.48 171.03,150.48 "/>
		<polygon style="&st1;" points="171.03,82 160.27,82 158.08,84.02 151,84.02 155.38,79.97 151,75.92 158.08,75.92 160.27,77.95 
			171.03,77.95 "/>
		<polyline style="&st0;" points="186.38,40.48 188.26,40.48 188.26,42.97 186.38,42.97 "/>
		<polyline style="&st0;" points="186.38,49.48 188.26,49.48 188.26,51.97 186.38,51.97 "/>
		<line style="&st0;" x1="48.99" y1="36.9" x2="170.88" y2="36.9"/>
		<line style="&st0;" x1="49.08" y1="55.92" x2="170.54" y2="55.92"/>
		<line style="&st0;" x1="48.99" y1="59.34" x2="170.88" y2="59.34"/>
		<path style="&st0;" d="M190.09,182.73v-2.49c0-1.38-1.21-2.49-2.7-2.49"/>
		<path style="&st0;" d="M208.89,36.78c0-0.74-0.56-1.35-1.25-1.35c-0.69,0-1.25,0.6-1.25,1.35v18.14c0,0.74,0.56,1.35,1.25,1.35
			c0.69,0,1.25-0.6,1.25-1.35V36.78z"/>
		<line style="&st0;" x1="214.93" y1="182.97" x2="4.93" y2="182.97"/>
		<line style="&st0;" x1="54.9" y1="66.31" x2="102.6" y2="66.31"/>
		<line style="&st0;" x1="54.9" y1="182.58" x2="54.9" y2="59.81"/>
		<line style="&st0;" x1="102.6" y1="171.58" x2="54.9" y2="171.58"/>
		<line style="&st0;" x1="102.6" y1="59.81" x2="102.6" y2="182.58"/>
		<line style="&st0;" x1="88.43" y1="171.58" x2="88.43" y2="66.62"/>
		<line style="&st0;" x1="72.6" y1="171.27" x2="72.6" y2="66.93"/>
		<line style="&st0;" x1="48.98" y1="4.55" x2="48.98" y2="18.89"/>
		<line style="&st0;" x1="48.99" y1="21.38" x2="48.99" y2="159.67"/>
		<line style="&st0;" x1="102.6" y1="174.5" x2="54.9" y2="174.5"/>
		<line style="&st0;" x1="102.6" y1="177.74" x2="54.57" y2="177.74"/>
		<polyline style="&st0;" points="32.82,36.78 13.47,36.78 13.47,54.61 "/>
		<line style="&st0;" x1="33.49" y1="54.92" x2="13.47" y2="54.92"/>
		<path style="&st0;" d="M50,177.74c1.49,0,2.7,1.12,2.7,2.49v2.49"/>
		<path style="&st0;" d="M33.5,21.38c-0.74,0-1.35-0.56-1.35-1.25s0.6-1.25,1.35-1.25h15.48c0.74,0,1.35,0.56,1.35,1.25
			s-0.6,1.25-1.35,1.25H33.5z"/>
		<ellipse style="&st0;" cx="80.01" cy="124.15" rx="2.7" ry="2.49"/> 
		<ellipse style="&st0;" cx="107.24" cy="115.47" rx="2.7" ry="2.49"/> 
		<ellipse style="&st0;" cx="107.24" cy="124.47" rx="2.7" ry="2.49"/> 
		<ellipse style="&st0;" cx="80.01" cy="104.52" rx="2.7" ry="2.49"/> 
		<polygon style="&st0;" points="33.5,4.55 38.55,0.5 43.92,0.5 48.98,4.55 "/>
		<line style="&st0;" x1="33.5" y1="4.55" x2="33.5" y2="18.89"/>
		<line style="&st0;" x1="33.49" y1="21.38" x2="33.49" y2="159.67"/>
		<path style="&st0;" d="M32.48,177.74v-13.71h-1.69v-1.87c0-1.38,1.21-2.49,2.7-2.49h15.5c1.49,0,2.7,1.12,2.7,2.49v1.87H50v13.71"
			/>
		<line style="&st0;" x1="32.48" y1="164.03" x2="50" y2="164.03"/>
		<line style="&st0;" x1="32.48" y1="177.74" x2="50" y2="177.74"/>
		<rect x="0.5" y="38.03" style="&st0;" width="10.27" height="15.96"/> 
		<polygon style="&st1;" points="49.09,154.53 59.6,154.53 61.79,156.55 68.87,156.55 64.49,152.5 68.87,148.45 61.79,148.45 
			59.6,150.48 49.09,150.48 "/>
		<polygon style="&st1;" points="49.09,82 59.6,82 61.79,84.02 68.87,84.02 64.49,79.97 68.87,75.92 61.79,75.92 59.6,77.95 
			49.09,77.95 "/>
		<polyline style="&st0;" points="33.49,40.48 31.61,40.48 31.61,42.97 33.49,42.97 "/>
		<polyline style="&st0;" points="33.49,49.48 31.61,49.48 31.61,51.97 33.49,51.97 "/>
		<path style="&st0;" d="M48.99,36.9"/>
		<path style="&st0;" d="M49.33,55.92"/>
		<path style="&st0;" d="M29.78,182.73v-2.49c0-1.38,1.21-2.49,2.7-2.49"/>
		<path style="&st0;" d="M10.97,36.78c0-0.74,0.56-1.35,1.25-1.35c0.69,0,1.25,0.6,1.25,1.35v18.14c0,0.74-0.56,1.35-1.25,1.35
			c-0.69,0-1.25-0.6-1.25-1.35V36.78z"/>
		<line style="&st0;" x1="4.93" y1="182.97" x2="214.93" y2="182.97"/>
	</g>
</svg>
