<?xml version="1.0" encoding="iso-8859-1"?>
<!-- Generator: Adobe Illustrator 11 Build 196, SVG Export Plug-In . SVG Version: 6.0.0 Build 78)  -->
<!DOCTYPE svg PUBLIC "-//W3C//DTD SVG 1.0//EN"    "http://www.w3.org/TR/2001/REC-SVG-20010904/DTD/svg10.dtd" [
	<!ENTITY ns_flows "http://ns.adobe.com/Flows/1.0/">
	<!ENTITY ns_svg "http://www.w3.org/2000/svg">
	<!ENTITY ns_xlink "http://www.w3.org/1999/xlink">
	<!ENTITY st0 "fill:#8C8C8C;">
	<!ENTITY st1 "fill:#929292;">
	<!ENTITY st2 "fill:#999999;">
	<!ENTITY st3 "fill:#666666;">
	<!ENTITY st4 "fill:#737373;">
	<!ENTITY st5 "fill:#DADADA;">
]>
<svg  xmlns="&ns_svg;" xmlns:xlink="&ns_xlink;" xmlns:a="http://ns.adobe.com/AdobeSVGViewerExtensions/3.0/"
	 width="284.4" height="126.43" viewBox="0 0 284.4 126.43" style="overflow:visible;enable-background:new 0 0 284.4 126.43"
	 xml:space="preserve">
	<g id="Layer_1">
		<g>
			<path style="&st0;" d="M76.22,14.39c-3.45,0.77-18.78,19.4-33.04,22.28c-7.58,1.53-11.3,11.42-15.43,16.78s-5.78,21.37-9.7,30.75
				c-1.84,4.39-9.19,15.82-16.88,21.85c-5.19,4.07,7.83,11.42,18.86,11.42c11.03,0,80.62,0.74,89.58,6.1
				c2.8,1.68,11.71-1.66,21.14,2.11c6.12,2.44,42.21-1.73,47.61-3.01c9.65-2.3,30.12-3.35,39.77-1.05
				c9.65,2.3,17-112.26,5.97-114.55C216.66,5.51,76.22,14.39,76.22,14.39z"/>
			<path style="&st4;" d="M198.12,30.5c2.33,3.03,15.49,20.37,12.91,27.58c-4.55,12.71,9.31,20.73,5.51,29.07
				c-1.91,4.18-3.06,26.04-0.77,28.34c2.3,2.3,1.53,3.83,6.13,3.83c4.59,0,22.06,0,25.27-9.19c3.22-9.19,9.96-19.15,13.79-20.68
				c3.83-1.53,17.8-15.13,20.86-24.33c3.06-9.19,4.59-9.96-2.3-10.72c-2.59-0.29-23.71-13.73-26.22-26.22
				c-2.31-11.49-9.19-19.15-20.68-22.98c-11.49-3.83-18.25,7.97-18.25,7.97L198.12,30.5z"/>
			<g>
				<g>
					<path style="&st5;" d="M41.75,66.39c-0.39,1.01-1.09,2.7-1.22,1.98c-0.13-0.72,0.35-2.43-0.24-0.73
						c-0.59,1.7-1.39,4.95-1.89,7.54c-0.5,2.58-1.12,4.8-1.09,5.86c0.04,1.06,0.13,0.72,0.27,0.21c0.14-0.51-0.18,1.04-0.2,1.91
						c-0.02,0.88,0.21,0.02,0.41-0.66c0.19-0.68,0.53-0.29,0.49,0.23c-0.04,0.52,2.32-7.49,2.78-9.9c0.46-2.41,0.89-3.95,0.92-4.47
						c0.04-0.52,0.13-0.87-0.38-0.22C41.08,68.78,41.75,66.39,41.75,66.39z"/>
					<path style="&st5;" d="M46.99,66.71c-0.23,0.41-0.69,1.67-0.74,2.25s0.01-0.43-0.27-0.61c-0.28-0.18-2.46,9.18-2.67,10.33
						s-0.92,4.84-0.41,3.45c0.5-1.4,0.76-1.52,0.6-0.95c-0.16,0.56-1.13,4.82-0.36,2.87s0.94-2.95,1-2.36
						c0.06,0.59,0.04,1.46,0.63-0.66c0.59-2.12,2.67-11.49,2.69-12.36c0.02-0.87-0.17-0.6-0.67,0.8
						C46.27,70.85,46.99,66.71,46.99,66.71z"/>
					<path style="&st5;" d="M49.23,71.68c-0.28-0.19-1.19-0.48-1.66-0.4c-0.47,0.08,0.36-0.09,0.6-0.5c0.24-0.41-6.95-0.91-7.85-0.9
						s-3.79,0.01-2.77,0.31s1.04,0.6,0.62,0.54c-0.42-0.06-3.7-0.27-2.3,0.24c1.4,0.51,2.19,0.48,1.68,0.7
						c-0.51,0.22-1.23,0.4,0.36,0.64s8.83,0.61,9.55,0.42c0.72-0.18,0.55-0.36-0.47-0.66S49.23,71.68,49.23,71.68z"/>
					<path style="&st5;" d="M47.58,78.77c-0.28-0.19-0.65-0.42-1.12-0.34c-0.47,0.08,0.36-0.09,0.6-0.5
						c0.24-0.41-6.95-0.91-7.85-0.9s-3.79,0.01-2.77,0.31s1.04,0.6,0.62,0.54c-0.42-0.06-2.73-0.16-1.33,0.34
						c1.4,0.51,1.22,0.38,0.71,0.59c-0.51,0.22-1.24,0.4,0.36,0.64s8.83,0.61,9.55,0.43c0.72-0.18,0.55-0.36-0.47-0.66
						S47.58,78.77,47.58,78.77z"/>
				</g>
				<g>
					<path style="&st5;" d="M96.74,51.83c-0.4,1.01-1.09,2.7-1.22,1.98c-0.13-0.72,0.35-2.43-0.24-0.73
						c-0.59,1.7-1.39,4.95-1.89,7.54c-0.5,2.58-1.13,4.8-1.09,5.86c0.04,1.06,0.13,0.72,0.28,0.21c0.14-0.51-0.18,1.04-0.2,1.91
						s0.21,0.02,0.41-0.66c0.19-0.68,0.53-0.29,0.49,0.23s2.32-7.49,2.78-9.9s0.89-3.95,0.92-4.48c0.04-0.52,0.13-0.87-0.38-0.22
						C96.07,54.22,96.74,51.83,96.74,51.83z"/>
					<path style="&st5;" d="M101.97,52.15c-0.23,0.41-0.69,1.67-0.74,2.25c-0.05,0.58,0.01-0.43-0.27-0.61
						c-0.28-0.18-2.46,9.18-2.67,10.33s-0.92,4.84-0.41,3.45c0.5-1.4,0.76-1.52,0.6-0.95c-0.16,0.57-1.13,4.82-0.36,2.87
						s0.94-2.95,1-2.36c0.06,0.59,0.03,1.46,0.63-0.66c0.59-2.12,2.67-11.49,2.69-12.36s-0.16-0.6-0.67,0.8
						S101.97,52.15,101.97,52.15z"/>
					<path style="&st5;" d="M104.22,57.12c-0.28-0.19-1.19-0.48-1.66-0.4c-0.47,0.08,0.36-0.09,0.6-0.5
						c0.24-0.41-6.95-0.91-7.85-0.9c-0.89,0.01-3.79,0.01-2.77,0.31c1.02,0.3,1.04,0.6,0.62,0.54c-0.43-0.06-3.7-0.27-2.3,0.24
						c1.4,0.51,2.19,0.48,1.68,0.7c-0.51,0.22-1.24,0.4,0.36,0.64s8.83,0.61,9.55,0.42c0.72-0.18,0.55-0.36-0.46-0.66
						C100.97,57.21,104.22,57.12,104.22,57.12z"/>
					<path style="&st5;" d="M102.57,64.21c-0.28-0.19-0.65-0.42-1.12-0.34c-0.47,0.08,0.36-0.09,0.6-0.5
						c0.24-0.41-6.95-0.91-7.85-0.9s-3.79,0.01-2.77,0.31c1.02,0.3,1.04,0.6,0.62,0.54c-0.43-0.07-2.73-0.17-1.33,0.34
						c1.4,0.51,1.22,0.38,0.71,0.59c-0.51,0.22-1.24,0.4,0.36,0.64s8.83,0.61,9.55,0.42c0.72-0.18,0.55-0.36-0.47-0.66
						C99.85,64.36,102.57,64.21,102.57,64.21z"/>
				</g>
				<g>
					<path style="&st5;" d="M133.92,81.04c-0.39,1.01-1.09,2.7-1.22,1.98c-0.13-0.72,0.35-2.43-0.24-0.73
						c-0.59,1.7-1.39,4.95-1.89,7.54c-0.5,2.58-1.12,4.8-1.09,5.86s0.13,0.72,0.28,0.21c0.14-0.51-0.18,1.04-0.21,1.91
						c-0.02,0.88,0.22,0.02,0.41-0.66c0.19-0.68,0.53-0.29,0.49,0.23c-0.04,0.52,2.32-7.49,2.78-9.9s0.89-3.95,0.92-4.47
						s0.13-0.87-0.38-0.22C133.25,83.43,133.92,81.04,133.92,81.04z"/>
					<path style="&st5;" d="M139.15,81.36c-0.23,0.41-0.69,1.67-0.74,2.25s0.01-0.44-0.27-0.61c-0.28-0.18-2.46,9.18-2.67,10.33
						s-0.92,4.84-0.41,3.45c0.5-1.4,0.76-1.52,0.6-0.95c-0.16,0.56-1.13,4.82-0.36,2.87s0.94-2.95,1-2.36
						c0.06,0.59,0.04,1.46,0.63-0.66s2.67-11.49,2.69-12.36c0.02-0.87-0.17-0.6-0.67,0.8C138.43,85.5,139.15,81.36,139.15,81.36z"/>
					<path style="&st5;" d="M141.4,86.33c-0.28-0.19-1.19-0.48-1.66-0.4c-0.47,0.08,0.36-0.09,0.6-0.5c0.24-0.41-6.95-0.91-7.85-0.9
						c-0.89,0.01-3.79,0.01-2.77,0.32c1.02,0.3,1.04,0.6,0.62,0.54c-0.42-0.07-3.7-0.27-2.3,0.24s2.19,0.48,1.68,0.7
						c-0.51,0.22-1.23,0.4,0.36,0.64c1.59,0.24,8.83,0.61,9.55,0.42c0.72-0.18,0.55-0.36-0.47-0.66S141.4,86.33,141.4,86.33z"/>
					<path style="&st5;" d="M139.74,93.42c-0.28-0.19-0.65-0.42-1.12-0.34c-0.47,0.08,0.36-0.09,0.6-0.5
						c0.24-0.41-6.95-0.91-7.85-0.9c-0.89,0.01-3.79,0.01-2.77,0.32c1.02,0.3,1.04,0.6,0.62,0.54c-0.42-0.06-2.73-0.16-1.33,0.34
						c1.4,0.51,1.22,0.38,0.71,0.59c-0.51,0.22-1.24,0.4,0.36,0.64c1.59,0.24,8.83,0.61,9.55,0.43c0.72-0.18,0.55-0.36-0.47-0.66
						C137.02,93.57,139.74,93.42,139.74,93.42z"/>
				</g>
				<g>
					<path style="&st5;" d="M185.25,51.83c-0.39,1.01-1.09,2.7-1.22,1.98c-0.13-0.72,0.35-2.43-0.24-0.73
						c-0.59,1.7-1.39,4.95-1.89,7.54c-0.5,2.58-1.13,4.8-1.09,5.86c0.04,1.06,0.13,0.72,0.28,0.21c0.14-0.51-0.18,1.04-0.2,1.91
						s0.21,0.02,0.41-0.66c0.19-0.68,0.53-0.29,0.49,0.23s2.32-7.49,2.78-9.9s0.89-3.95,0.92-4.48c0.04-0.52,0.13-0.87-0.38-0.22
						C184.58,54.22,185.25,51.83,185.25,51.83z"/>
					<path style="&st5;" d="M190.49,52.15c-0.23,0.41-0.69,1.67-0.74,2.25s0.01-0.43-0.27-0.61c-0.28-0.18-2.46,9.18-2.67,10.33
						s-0.92,4.84-0.41,3.45c0.5-1.4,0.76-1.52,0.6-0.95c-0.16,0.57-1.13,4.82-0.36,2.87s0.94-2.95,1-2.36
						c0.06,0.59,0.03,1.46,0.63-0.66c0.59-2.12,2.67-11.49,2.69-12.36s-0.17-0.6-0.67,0.8C189.77,56.29,190.49,52.15,190.49,52.15z"
						/>
					<path style="&st5;" d="M192.73,57.12c-0.28-0.19-1.19-0.48-1.66-0.4c-0.47,0.08,0.36-0.09,0.6-0.5
						c0.23-0.41-6.95-0.91-7.85-0.9c-0.89,0.01-3.79,0.01-2.77,0.31c1.02,0.3,1.04,0.6,0.62,0.54c-0.42-0.06-3.7-0.27-2.3,0.24
						c1.4,0.51,2.19,0.48,1.68,0.7c-0.51,0.22-1.24,0.4,0.36,0.64s8.83,0.61,9.55,0.42c0.72-0.18,0.55-0.36-0.47-0.66
						C189.48,57.21,192.73,57.12,192.73,57.12z"/>
					<path style="&st5;" d="M191.08,64.21c-0.28-0.19-0.65-0.42-1.12-0.34c-0.47,0.08,0.36-0.09,0.6-0.5
						c0.24-0.41-6.95-0.91-7.85-0.9s-3.79,0.01-2.77,0.31c1.02,0.3,1.04,0.6,0.62,0.54c-0.42-0.07-2.73-0.17-1.33,0.34
						c1.4,0.51,1.22,0.38,0.71,0.59c-0.51,0.22-1.24,0.4,0.36,0.64s8.83,0.61,9.55,0.42c0.72-0.18,0.55-0.36-0.47-0.66
						C188.36,64.36,191.08,64.21,191.08,64.21z"/>
				</g>
				<g>
					<path style="&st5;" d="M237.83,24.74c0.67,0.49,1.81,1.29,1.54,0.7c-0.26-0.59-1.3-1.53-0.21-0.66s3.01,2.72,4.46,4.28
						c1.45,1.55,2.8,2.77,3.27,3.55c0.47,0.78,0.26,0.59-0.05,0.31c-0.31-0.28,0.57,0.63,0.99,1.25c0.42,0.61-0.1,0.14-0.52-0.23
						c-0.41-0.38-0.41,0.1-0.15,0.45c0.26,0.35-4.66-3.99-6.01-5.45s-2.28-2.3-2.54-2.66s-0.47-0.54,0.1-0.38
						C239.28,26.06,237.83,24.74,237.83,24.74z"/>
					<path style="&st5;" d="M235.27,28.03c0.31,0.16,1.13,0.79,1.42,1.17c0.29,0.38-0.21-0.3-0.14-0.6
						c0.06-0.29,5.52,5.12,6.15,5.81c0.63,0.69,2.71,2.92,1.8,2.22c-0.91-0.71-1.09-0.64-0.75-0.33s2.81,2.78,1.51,1.84
						c-1.3-0.94-1.85-1.56-1.61-1.11s0.66,1.06-0.63-0.1c-1.28-1.17-6.69-6.65-7.1-7.25c-0.41-0.61-0.19-0.52,0.71,0.18
						C237.56,30.57,235.27,28.03,235.27,28.03z"/>
					<path style="&st5;" d="M236.4,32.9c0.06-0.3,0.4-1.04,0.67-1.26c0.28-0.22-0.23,0.15-0.54,0c-0.31-0.15,3.18-4.72,3.64-5.24
						s1.96-2.21,1.58-1.39c-0.39,0.81-0.26,1.04-0.07,0.74c0.19-0.29,1.79-2.36,1.3-1.17c-0.49,1.18-0.91,1.63-0.55,1.48
						c0.36-0.15,0.82-0.44,0.11,0.67s-4.29,5.6-4.75,5.89c-0.46,0.29-0.45,0.07-0.06-0.74C238.13,31.06,236.4,32.9,236.4,32.9z"/>
					<path style="&st5;" d="M240.54,36.99c0.06-0.3,0.14-0.68,0.42-0.9s-0.23,0.15-0.54-0.01c-0.31-0.15,3.18-4.72,3.64-5.24
						c0.47-0.52,1.96-2.21,1.58-1.4c-0.39,0.81-0.26,1.04-0.07,0.74c0.19-0.29,1.34-1.72,0.85-0.53c-0.49,1.18-0.46,0.98-0.09,0.84
						c0.36-0.14,0.82-0.44,0.11,0.67c-0.71,1.11-4.29,5.6-4.75,5.89c-0.46,0.29-0.45,0.07-0.06-0.74S240.54,36.99,240.54,36.99z"/>
				</g>
				<g>
					<path style="&st5;" d="M234.22,69.76c0.67,0.49,1.81,1.29,1.55,0.7c-0.26-0.59-1.3-1.53-0.21-0.66
						c1.09,0.87,3.01,2.72,4.46,4.28s2.8,2.77,3.27,3.55c0.47,0.78,0.26,0.59-0.05,0.31c-0.31-0.28,0.57,0.63,0.99,1.25
						s-0.1,0.14-0.52-0.23c-0.41-0.38-0.41,0.1-0.15,0.45s-4.66-3.99-6.01-5.45s-2.28-2.3-2.54-2.66c-0.26-0.35-0.47-0.54,0.1-0.38
						C235.67,71.08,234.22,69.76,234.22,69.76z"/>
					<path style="&st5;" d="M231.66,73.05c0.31,0.16,1.13,0.79,1.42,1.17c0.29,0.38-0.21-0.3-0.14-0.6
						c0.07-0.29,5.52,5.12,6.15,5.81s2.71,2.93,1.8,2.22c-0.91-0.71-1.09-0.64-0.75-0.33c0.34,0.31,2.81,2.78,1.51,1.84
						s-1.85-1.56-1.61-1.11c0.24,0.45,0.66,1.06-0.63-0.1c-1.29-1.17-6.69-6.65-7.1-7.25c-0.41-0.61-0.19-0.52,0.71,0.18
						S231.66,73.05,231.66,73.05z"/>
					<path style="&st5;" d="M232.79,77.92c0.06-0.3,0.4-1.04,0.67-1.26s-0.23,0.15-0.54-0.01c-0.31-0.15,3.18-4.72,3.64-5.24
						c0.47-0.52,1.96-2.21,1.58-1.4s-0.26,1.04-0.07,0.74s1.79-2.36,1.3-1.17c-0.49,1.18-0.91,1.62-0.55,1.48s0.82-0.44,0.11,0.67
						c-0.71,1.11-4.29,5.6-4.75,5.9c-0.46,0.29-0.45,0.07-0.06-0.75C234.52,76.08,232.79,77.92,232.79,77.92z"/>
					<path style="&st5;" d="M236.93,82.02c0.05-0.3,0.14-0.68,0.42-0.9c0.28-0.22-0.23,0.15-0.54-0.01
						c-0.31-0.15,3.18-4.72,3.64-5.24c0.47-0.51,1.96-2.21,1.58-1.39c-0.39,0.81-0.26,1.04-0.07,0.74c0.19-0.3,1.34-1.72,0.85-0.53
						c-0.49,1.18-0.46,0.98-0.09,0.84c0.37-0.14,0.82-0.44,0.11,0.67c-0.71,1.11-4.29,5.6-4.75,5.89c-0.46,0.29-0.45,0.07-0.06-0.74
						C238.4,80.53,236.93,82.02,236.93,82.02z"/>
				</g>
				<g>
					<path style="&st5;" d="M68.94,97.41c-0.4,1.01-1.09,2.7-1.22,1.98c-0.13-0.72,0.35-2.43-0.24-0.73
						c-0.59,1.7-1.39,4.95-1.89,7.54c-0.5,2.58-1.13,4.8-1.09,5.86c0.04,1.06,0.13,0.72,0.28,0.21c0.14-0.51-0.18,1.04-0.2,1.91
						s0.21,0.02,0.41-0.66c0.19-0.68,0.53-0.29,0.49,0.23c-0.04,0.52,2.32-7.49,2.78-9.9s0.89-3.95,0.92-4.47
						c0.04-0.52,0.13-0.87-0.38-0.22C68.27,99.8,68.94,97.41,68.94,97.41z"/>
					<path style="&st5;" d="M74.17,97.73c-0.23,0.41-0.69,1.67-0.74,2.25s0.01-0.43-0.27-0.61c-0.28-0.18-2.47,9.18-2.67,10.33
						s-0.92,4.84-0.41,3.45c0.5-1.4,0.76-1.52,0.6-0.95s-1.13,4.82-0.36,2.87s0.94-2.95,1-2.36c0.06,0.59,0.03,1.46,0.63-0.66
						c0.59-2.12,2.67-11.49,2.69-12.36c0.02-0.87-0.16-0.6-0.67,0.8C73.46,101.87,74.17,97.73,74.17,97.73z"/>
					<path style="&st5;" d="M76.42,102.7c-0.28-0.19-1.19-0.48-1.66-0.4c-0.47,0.08,0.36-0.09,0.6-0.5s-6.95-0.91-7.85-0.9
						c-0.89,0.01-3.79,0.01-2.77,0.31c1.02,0.3,1.04,0.6,0.62,0.54c-0.43-0.06-3.7-0.27-2.3,0.24c1.4,0.51,2.19,0.48,1.68,0.7
						c-0.51,0.22-1.24,0.4,0.36,0.64s8.83,0.61,9.55,0.42c0.72-0.18,0.55-0.36-0.47-0.66C73.17,102.79,76.42,102.7,76.42,102.7z"/>
					<path style="&st5;" d="M74.77,109.79c-0.28-0.19-0.65-0.42-1.12-0.34c-0.47,0.08,0.36-0.09,0.6-0.5
						c0.24-0.41-6.95-0.91-7.85-0.9c-0.89,0.01-3.79,0.01-2.77,0.31c1.02,0.3,1.04,0.6,0.62,0.54c-0.43-0.06-2.73-0.16-1.33,0.34
						c1.4,0.51,1.22,0.38,0.71,0.59s-1.24,0.4,0.36,0.64s8.83,0.61,9.55,0.42c0.72-0.18,0.55-0.36-0.47-0.66
						C72.05,109.94,74.77,109.79,74.77,109.79z"/>
				</g>
			</g>
			<g>
				<path style="&st4;" d="M178.37,122.67c3.88-0.7,23-1.19,25.19,0.27c2.19,1.46,5.83,1.46,8.39,0.37
					c2.55-1.09,6.56-0.73,9.48-1.82c2.92-1.09,5.83-4.01,6.2-5.47c0.37-1.46-6.56-17.5-9.11-20.05c-2.55-2.55-9.84-4.74-12.03-4.38
					c-2.19,0.36-17.14,6.93-17.14,6.93L178.37,122.67z"/>
				<path style="&st4;" d="M112.75,124.29c-3.06-2.3-3.06-9.96-0.77-19.15s1.92-22.21,4.98-19.15c3.06,3.06,1.96,14.79,1.53,20.3
					c-0.38,4.98,9.19,15.7,3.83,18C118.05,126.13,112.75,124.29,112.75,124.29z"/>
				<path style="&st4;" d="M10.89,116.64c-4.6-3.06-9.19-6.13-4.6-6.89c4.6-0.77,8.42,0.77,9.96-3.83c1.53-4.59,4.59-5.36,8.42-4.59
					C28.51,102.08,36.17,88.3,40,86.77c3.83-1.53-3.06,16.85-6.89,18.38c-3.83,1.53-10.72,6.13-11.49,8.42
					C20.85,115.87,10.89,116.64,10.89,116.64z"/>
			</g>
			<path style="&st1;" d="M116.2,87.15c0.77-8.42,1.15-8.04-1.15-8.04s-2.68,12.64-6.51,16.47c-3.42,3.42-6.13,9.19-5.36,13.02
				c0.77,3.83-3.83,12.25,1.53,13.79c5.36,1.53,10.72,4.6,9.19-3.06c-1.53-7.66-0.77-16.85,1.53-20.68
				C117.73,94.81,116.2,87.15,116.2,87.15z"/>
			<path style="&st1;" d="M12.81,109.36c-3.06,0.77-4.6,3.83-8.43,2.3c-3.83-1.53-6.13-3.83,0-5.36c6.49-1.62,10.3-7.01,14.55-8.42
				c4.59-1.53,10.34-4.98,14.17-6.51c3.83-1.53,7.28-11.11,7.28-6.51s-4.59,11.49-10.72,13.79c-6.13,2.3-9.96,6.89-12.25,7.66
				C15.1,107.06,12.81,109.36,12.81,109.36z"/>
			<path style="&st4;" d="M55.57,29.56c-3.29-0.16-5.31,7.35-9.1,12.96c-3.09,4.58-2.73,12.71,1.1,8.88
				c1.91-1.92,11.86-16.01,15.12-16.78c3.25-0.77,4.73,18.99,6.3,15.71c3.51-7.35,11.21-13.72,13.51-9.89
				c2.3,3.83,8.05,8.97,9.19,6.13c5.07-12.68,4.6-5.36,10.72-5.36s11.49-2.3,15.32,0.77s-2.73,8.39,0.34,6.86
				c3.06-1.53,12.68-9.93,15.75-9.93c15.19,0,22.76-7.2,31.4-1.44c4.59,3.06,3.09,9.65,8.46,9.65s2.95-15.26,16.33-5.58
				c2.56,1.85,9.68,2.73,15.04,2.73c5.36,0,2.3-10.72,2.3-10.72l-106.97-6.87L55.57,29.56z"/>
			<path style="&st3;" d="M202.59,39.5c2.39,0,5.2-0.79,6.29-1.77l22.89-29.07C232.85,7.69,231.8,0,229.41,0H83.54
				c-2.39,0-5.2,0.79-6.29,1.77L42.41,30.84c-1.08,0.98-2.1,8.66,0.29,8.66H202.59z"/>
			<path style="&st2;" d="M198.12,31.4c2.17,0,4.73-0.72,5.72-1.61l22.39-26.43c0.99-0.89,0.03-1.61-2.14-1.61H83.96
				c-2.17,0-4.73,0.72-5.71,1.61L46.21,29.79c-0.99,0.89-0.03,1.61,2.14,1.61H198.12z"/>
		</g>
	</g>
</svg>
