<?xml version="1.0" encoding="iso-8859-1"?>
<!-- Generator: Adobe Illustrator 11 Build 196, SVG Export Plug-In . SVG Version: 6.0.0 Build 78)  -->
<!DOCTYPE svg PUBLIC "-//W3C//DTD SVG 1.0//EN"    "http://www.w3.org/TR/2001/REC-SVG-20010904/DTD/svg10.dtd" [
	<!ENTITY ns_flows "http://ns.adobe.com/Flows/1.0/">
	<!ENTITY ns_svg "http://www.w3.org/2000/svg">
	<!ENTITY ns_xlink "http://www.w3.org/1999/xlink">
	<!ENTITY st0 "fill:#0A0809;">
	<!ENTITY st1 "fill:none;stroke:#FFFFFF;stroke-width:2;stroke-linecap:round;stroke-linejoin:round;">
]>
<svg  xmlns="&ns_svg;" xmlns:xlink="&ns_xlink;" xmlns:a="http://ns.adobe.com/AdobeSVGViewerExtensions/3.0/"
	 width="189.24" height="184.12" viewBox="0 0 189.24 184.12" style="overflow:visible;enable-background:new 0 0 189.24 184.12"
	 xml:space="preserve">
	<g id="Pfade">
		<g>
			<path style="&st0;" d="M30.41,75.94l3.73,1.86c-2.69,37.07,10.56,67.93,36.87,86.99c3.31,1.66,4.97,1.24,7.46,0
				c4.97-2.49,9.11-3.73,10.98-1.04c1.86,2.69,1.04,5.18-0.21,6.21c3.52,2.07,5.18,10.98-3.94,11.6
				c-1.45,3.52-10.15,4.35-10.56-3.73c0.21-5.8-2.9-8.29-4.14-9.32C33.31,142.43,27.51,104.73,30.41,75.94z"/>
			<path style="&st0;" d="M36.63,79.26c-1.66,31.07,1.86,51.98,33.76,83.47c2.9,2.07,10.15-0.41,11.39-1.45
				c1.24-1.04-0.83-5.38-3.11-5.38c-0.41-1.86-0.83-3.11-3.31-2.49c0.21-2.28-1.86-5.38-4.76-4.56c0.21-2.28,0.83-5.59-3.73-6.21
				c0.83-2.69-0.21-4.97-3.52-4.76c1.45-2.9-0.62-5.59-2.07-5.18c1.24-2.9,1.24-5.8-1.86-6.63c0.83-2.07,0.41-3.52-1.86-4.14
				c1.45-2.49,1.24-2.9-1.04-4.35c1.66-3.11,2.07-5.8-0.41-6.83c1.45-2.69,1.24-3.94,0-4.76s1.66-3.52-1.24-3.94
				c1.24-2.49,2.69-4.35,1.04-7.46c1.66-1.66,1.86-3.31,0.41-4.97c2.07-2.28,2.9-6.21-0.21-5.8C52.99,84.23,38.49,81.33,36.63,79.26
				z"/>
			<path style="&st0;" d="M75.77,50.05C69.56,32.86,78.05,10.5,90.89,1.59C82.81-1.93,72.46,0.97,68.11,4.7
				c-6.21-1.24-15.53,2.07-18.43,7.87c-14.7,3.11-13.05,8.7-13.88,11.39c-5.18,0.41-9.73,2.28-11.39,8.49
				c-5.18,1.04-7.04,5.18-6.83,8.7c-4.97,1.04-6.21,7.25-4.97,10.56c-5.18,1.66-5.8,4.56-4.56,7.25c-2.28,3.11-3.52,3.73-1.86,6.21
				c-3.73,2.9-2.9,6.01,0.62,8.49c-6.83,2.28-5.39,6.21-4.14,7.66c-3.11,1.66-1.86,4.76,0,6.63c-4.14,2.07-2.9,5.38,0,6.83
				c-1.66,3.93-3.31,5.59-0.41,8.49c-2.07,2.69,0.41,6.63,2.28,7.25c-2.49,2.69-1.45,5.39,1.04,6.42c-1.04,4.35,1.04,7.25,3.11,8.28
				c-2.07,2.69,0.41,5.8,2.28,6.63c-0.62,2.69,1.04,4.76,3.73,5.59c0,3.52,1.66,8.49,5.59,9.11c-0.21,3.31,0.41,5.8,4.97,6.63
				c1.04,3.52,2.28,4.14,6.42,4.76c0,5.38,3.94,7.46,6.83,7.46c0,3.52,3.52,5.59,6.01,5.38c1.24,3.11,4.76,1.86,7.66,2.49
				c0.83,3.52,4.35,4.76,8.28,5.38c2.07,3.31,4.56,3.31,5.8,2.07c1.24,2.07,7.46,3.93,7.04,0.83c-0.41-3.11-0.62-9.73-14.5-18.23
				c-13.88-8.49-48.05-68.76-23.2-107.9C44.91,40.32,75.77,50.05,75.77,50.05z"/>
			<path style="&st0;" d="M158.82,75.94l-3.73,1.86c2.69,37.07-10.56,67.93-36.87,86.99c-3.31,1.66-4.97,1.24-7.46,0
				c-4.97-2.49-9.11-3.73-10.98-1.04c-1.86,2.69-1.04,5.18,0.21,6.21c-3.52,2.07-5.18,10.98,3.94,11.6
				c1.45,3.52,10.15,4.35,10.56-3.73c-0.21-5.8,2.9-8.29,4.14-9.32C155.92,142.43,161.72,104.73,158.82,75.94z"/>
			<path style="&st0;" d="M152.61,79.26c1.66,31.07-1.86,51.98-33.76,83.47c-2.9,2.07-10.15-0.41-11.39-1.45
				c-1.24-1.04,0.83-5.38,3.11-5.38c0.41-1.86,0.83-3.11,3.31-2.49c-0.21-2.28,1.86-5.38,4.76-4.56c-0.21-2.28-0.83-5.59,3.73-6.21
				c-0.83-2.69,0.21-4.97,3.52-4.76c-1.45-2.9,0.62-5.59,2.07-5.18c-1.24-2.9-1.24-5.8,1.86-6.63c-0.83-2.07-0.41-3.52,1.86-4.14
				c-1.45-2.49-1.24-2.9,1.04-4.35c-1.66-3.11-2.07-5.8,0.42-6.83c-1.45-2.69-1.24-3.94,0-4.76c1.24-0.83-1.66-3.52,1.24-3.94
				c-1.24-2.49-2.69-4.35-1.04-7.46c-1.66-1.66-1.86-3.31-0.41-4.97c-2.07-2.28-2.9-6.21,0.21-5.8
				C136.25,84.23,150.75,81.33,152.61,79.26z"/>
			<path style="&st0;" d="M113.47,50.05c6.21-17.19-2.28-39.56-15.12-48.46c8.08-3.52,18.43-0.62,22.78,3.11
				c6.21-1.24,15.53,2.07,18.43,7.87c14.71,3.11,13.05,8.7,13.88,11.39c5.18,0.41,9.73,2.28,11.39,8.49
				c5.18,1.04,7.04,5.18,6.83,8.7c4.97,1.04,6.21,7.25,4.97,10.56c5.18,1.66,5.8,4.56,4.56,7.25c2.28,3.11,3.52,3.73,1.86,6.21
				c3.73,2.9,2.9,6.01-0.62,8.49c6.83,2.28,5.38,6.21,4.14,7.66c3.11,1.66,1.86,4.76,0,6.63c4.14,2.07,2.9,5.38,0,6.83
				c1.66,3.93,3.31,5.59,0.41,8.49c2.07,2.69-0.41,6.63-2.28,7.25c2.49,2.69,1.45,5.39-1.04,6.42c1.04,4.35-1.04,7.25-3.11,8.28
				c2.07,2.69-0.41,5.8-2.28,6.63c0.62,2.69-1.04,4.76-3.73,5.59c0,3.52-1.66,8.49-5.59,9.11c0.21,3.31-0.41,5.8-4.97,6.63
				c-1.04,3.52-2.28,4.14-6.42,4.76c0,5.38-3.93,7.46-6.83,7.46c0,3.52-3.52,5.59-6.01,5.38c-1.24,3.11-4.76,1.86-7.66,2.49
				c-0.83,3.52-4.35,4.76-8.29,5.38c-2.07,3.31-4.56,3.31-5.8,2.07c-1.24,2.07-7.46,3.93-7.04,0.83c0.42-3.11,0.62-9.73,14.5-18.23
				c13.88-8.49,48.05-68.76,23.2-107.9C144.33,40.32,113.47,50.05,113.47,50.05z"/>
			<path style="&st0;" d="M87.3,70.14c-5.11-12.56-18.64-21.95-32.31-20.99c-13.67,0.97-24.3,12.56-24.72,21.95
				c4.97,7.59,23.89,11.32,30.51,11.32s21.4-2.9,23.06-4.42C82.33,74.84,85.92,70.28,87.3,70.14z"/>
			<path style="&st0;" d="M91.44,66.83c-11.32-8.84-28.03-40.18,3.31-64.48c28.86,23.06,17.81,53.99,3.59,64.62
				C94.89,64.21,91.44,66.83,91.44,66.83z"/>
			<path style="&st0;" d="M102.63,70.83c7.46-26.65,35.35-21.95,41.84-18.78s15.19,11.05,13.95,20.3
				c-11.74,9.8-24.02,10.22-30.65,10.36s-18.64-1.1-22.23-5.8C105.94,74.29,102.63,70.83,102.63,70.83z"/>
			<path style="&st0;" d="M98.9,80.22v13.81c-1.24,2.62-8.15,1.66-8.7,0.41c-0.55-1.24,0.14-13.81,0.14-13.81s-3.87-3.59-4.28-4.56
				c-0.69-2.07,3.04-3.59,5.25-2.49c0,0,0.83-3.59,0.69-4.42c-0.14-0.83,4.42-1.93,5.38-0.14c0.97,1.8,1.24,3.45,0.83,4.7
				c1.11-0.14,2.76-2.49,4-0.83C103.46,74.56,103.46,77.46,98.9,80.22z"/>
			<path style="&st1;" d="M34.67,23.34c0,6.49,1.23,18.29,13.25,24.65"/>
			<path style="&st1;" d="M11.22,51.37c2.35,2.35,14.5,9.67,22.92,7.18"/>
			<path style="&st1;" d="M4.87,74.15c5.8,3.31,21.26,2.21,23.47,0.28"/>
			<path style="&st1;" d="M1.56,96.38c5.94,3.73,22.64-1.1,25.68-3.59"/>
			<path style="&st1;" d="M5.01,118.06c5.38,0.55,20.16-2.49,24.85-6.49"/>
			<path style="&st1;" d="M13.98,139.46c4.83-0.69,16.29-4.83,21.54-11.18"/>
			<path style="&st1;" d="M31.24,159.89c4.56-3.45,10.63-9.39,12.01-15.74"/>
			<path style="&st1;" d="M53.47,174.94c2.76-0.97,4-12.01,3.18-14.22"/>
			<path style="&st1;" d="M36.11,93.34c3.83,3.31,13.15,7.87,19.78,6.73"/>
			<path style="&st1;" d="M37.77,110.63c3.62,1.97,14.6,6.83,19.26,5.7"/>
			<path style="&st1;" d="M44.5,129.9c3.42,1.35,15.53,3.73,19.16,1.55"/>
			<path style="&st1;" d="M57.13,149.16c3.73,0.93,14.19,0.42,16.57-2.07"/>
			<path style="&st1;" d="M154.82,23.34c0,6.49-1.48,18.29-13.5,24.65"/>
			<path style="&st1;" d="M178.01,51.37c-2.35,2.35-14.5,9.67-22.92,7.18"/>
			<path style="&st1;" d="M184.37,74.15c-5.8,3.31-21.26,2.21-23.47,0.28"/>
			<path style="&st1;" d="M187.68,96.38c-5.94,3.73-22.64-1.1-25.68-3.59"/>
			<path style="&st1;" d="M184.23,118.06c-5.38,0.55-20.16-2.49-24.85-6.49"/>
			<path style="&st1;" d="M175.25,139.46c-4.83-0.69-16.29-4.83-21.54-11.18"/>
			<path style="&st1;" d="M157.99,159.89c-4.56-3.45-10.63-9.39-12.01-15.74"/>
			<path style="&st1;" d="M135.76,174.94c-2.76-0.97-4-12.01-3.17-14.22"/>
			<path style="&st1;" d="M153.13,93.34c-3.83,3.31-13.15,7.87-19.78,6.73"/>
			<path style="&st1;" d="M151.47,110.63c-3.62,1.97-14.6,6.83-19.26,5.7"/>
			<path style="&st1;" d="M144.74,129.9c-3.42,1.35-15.53,3.73-19.16,1.55"/>
			<path style="&st1;" d="M132.1,149.16c-3.73,0.93-14.19,0.42-16.57-2.07"/>
			<path style="&st1;" d="M36.21,68.28c13.25-5.8,42.04-2.69,48.26,5.38"/>
			<line style="&st1;" x1="94.2" y1="66.21" x2="94.2" y2="12.15"/>
			<path style="&st1;" d="M105.18,73.46c10.77-8.91,38.32-11.39,47.84-5.18"/>
		</g>
	</g>
</svg>
