<?xml version="1.0" encoding="iso-8859-1"?>
<!-- Generator: Adobe Illustrator 11 Build 196, SVG Export Plug-In . SVG Version: 6.0.0 Build 78)  -->
<!DOCTYPE svg PUBLIC "-//W3C//DTD SVG 1.0//EN"    "http://www.w3.org/TR/2001/REC-SVG-20010904/DTD/svg10.dtd" [
	<!ENTITY ns_flows "http://ns.adobe.com/Flows/1.0/">
	<!ENTITY ns_svg "http://www.w3.org/2000/svg">
	<!ENTITY ns_xlink "http://www.w3.org/1999/xlink">
	<!ENTITY st0 "fill:#0A0809;">
]>
<svg  xmlns="&ns_svg;" xmlns:xlink="&ns_xlink;" xmlns:a="http://ns.adobe.com/AdobeSVGViewerExtensions/3.0/"
	 width="188" height="188" viewBox="0 0 188 188" style="overflow:visible;enable-background:new 0 0 188 188" xml:space="preserve"
	>
	<g id="Pfade">
		<path style="&st0;" d="M94,0C42.08,0,0,42.08,0,94c0,51.92,42.08,94,94,94c51.91,0,94-42.09,94-94C188,42.08,145.91,0,94,0z
			 M22.86,107.55h57.59v57.59C51.33,159.62,28.38,136.67,22.86,107.55z M22.86,80.45c5.51-29.12,28.46-52.07,57.59-57.59v57.59
			H22.86z M107.55,22.87c29.12,5.51,52.08,28.46,57.59,57.59h-57.59V22.87z M107.55,165.14v-57.59h57.59
			C159.62,136.67,136.67,159.62,107.55,165.14z"/>
	</g>
</svg>
