<?xml version="1.0" encoding="iso-8859-1"?>
<!-- Generator: Adobe Illustrator 11 Build 196, SVG Export Plug-In . SVG Version: 6.0.0 Build 78)  -->
<!DOCTYPE svg PUBLIC "-//W3C//DTD SVG 1.0//EN"    "http://www.w3.org/TR/2001/REC-SVG-20010904/DTD/svg10.dtd" [
	<!ENTITY ns_flows "http://ns.adobe.com/Flows/1.0/">
	<!ENTITY ns_svg "http://www.w3.org/2000/svg">
	<!ENTITY ns_xlink "http://www.w3.org/1999/xlink">
]>
<svg  xmlns="&ns_svg;" xmlns:xlink="&ns_xlink;" xmlns:a="http://ns.adobe.com/AdobeSVGViewerExtensions/3.0/"
	 width="178.66" height="179.73" viewBox="0 0 178.66 179.73" style="overflow:visible;enable-background:new 0 0 178.66 179.73"
	 xml:space="preserve">
	<g id="Pfade">
		<g>
			<path d="M60.34,24.44c0,0,13.15-13.15,17.02-15.08c0,0,7.76,2.8,10.13,6.46C87.5,15.82,71.12,16.26,60.34,24.44z"/>
			<path d="M25.12,119.9c1.71-0.6,3.99,0.03,6.78,1.89c5.76,3.84,13.41,4.75,17.5,4.96c-0.02-0.06-0.05-0.11-0.07-0.16l-0.21-0.54
				c0,0,0.02-0.12,0.03-0.22c-0.05-0.02-0.25-0.08-0.25-0.08c-1.55-0.52-2.83-1.26-3.82-2.21c-6.67-1.74-14.31-5.32-17.4-8.41
				c-2.41-2.41-4.39-1.88-5.19-1.49c-0.2,1.3-0.55,5.06,1.44,7.01C24.22,120.35,24.6,120.08,25.12,119.9z M29.26,113.52
				c2.45,2.45,8.28,5.32,13.89,7.1c-0.41-1.08-0.59-2.19-0.59-3.27c0-0.21,0.01-0.41,0.02-0.62c-5.35-1.77-11.49-5.81-15.31-9.62
				c-2.2-2.2-3.48-2.35-4.05-2.25c-0.29,0.05-0.52,0.19-0.69,0.34l0.05,0.05l-0.65,0.79c-0.25,0.3-2.2,2.82-0.21,5.46
				C23.43,110.77,26.34,110.6,29.26,113.52z M31.11,131.95c1.04-1.35,3.61-3.34,9.28-1.7l2.79,0.82c3.53,1.05,6.41,1.89,9.24,2.36
				c0,0,0,0,0,0c0-0.82,0.1-1.71,0.29-2.65c-0.12-0.07-0.2-0.12-0.2-0.12c-0.68-0.4-1.28-0.94-1.81-1.61
				c-3.72-0.07-13.11-0.75-20.07-5.39c-2.79-1.86-4.17-1.83-4.74-1.65c-0.39,0.12-0.57,0.37-0.64,0.5
				C25.19,123.52,25.05,129.15,31.11,131.95z M22.78,102.65c1.79-0.35,3.84,0.62,6.08,2.87c3.9,3.9,9.48,7.35,14.06,8.94
				c0.17-0.72,0.38-1.4,0.61-2.01c-0.21-0.19-0.4-0.39-0.59-0.6c-5.17-2.12-12.43-8.73-16.2-14.11c-1.16-1.66-2.36-2.53-3.57-2.6
				c-1.33-0.08-2.4,0.84-2.74,1.17c-0.15,0.43-0.47,1.5-0.53,2.84c0.01,0.09,0.01,0.17,0,0.26c-0.02,1.28,0.25,2.76,1.14,4.1
				C21.49,103.12,22.07,102.78,22.78,102.65z M35.04,55.66c-0.88,0.24-2.98,0.99-4.38,3c-0.17,0.25-0.33,0.51-0.47,0.78
				c0,0,0,0.01-0.01,0.01c-0.87,1.69-1.14,3.8-0.79,6.32c1.46-0.16,3.94-0.14,5.83,1.33c1.58,1.23,2.38,3.17,2.38,5.76
				c0,2.82,1.25,7.35,6.67,13.61c0.73-0.94,1.56-1.73,2.4-2.37c-3.36-5.04-7.32-14.28-7.32-19.84
				C39.35,59.29,36.14,56.48,35.04,55.66z M42.43,141c1-0.91,3.73-2.62,8.7-0.49c1.63,0.7,3.05,1.05,4.33,1.21
				c-0.34-0.5-0.63-1.06-0.82-1.68l-0.27-0.85c0,0-1.36-2.44-1.64-3.43c-3.18-0.45-6.31-1.37-10.19-2.52l-2.78-0.82
				c-4.94-1.43-6.61,0.45-7.04,1.14C33.03,135.01,34.73,140.77,42.43,141z M38.26,48.78c-0.32,0.39-0.58,0.78-0.8,1.17
				c0,0.01-0.01,0.01-0.01,0.02c-0.92,1.63-1.07,3.14-1.08,3.88c1.41,1.05,5.23,4.45,5.23,10.41c0,5.13,3.83,13.99,6.95,18.63
				c0.28-0.15,0.56-0.28,0.82-0.39l1.41-0.59c-7.45-13.51-7.5-26.23-3.88-37.45C42.95,45.17,40.04,46.6,38.26,48.78z M75.44,145.3
				c0-0.04,0-0.08-0.01-0.12l0,0C75.43,145.22,75.44,145.26,75.44,145.3z M21.71,87.8c-1.14,1.18-2.33,3.17-1.68,6
				c0.81-0.51,1.93-0.98,3.26-0.91c1.94,0.1,3.73,1.3,5.31,3.56c3.06,4.38,8.19,9.14,12.35,11.79c-0.25-0.9-0.38-1.85-0.38-2.87
				c0-0.84,0.09-1.73,0.27-2.64c-4.35-2.73-7.29-7.06-9.57-10.42c-1.18-1.75-2.21-3.26-3.18-4.23c-2.26-2.26-3.79-2-4.34-1.79
				l-0.35,0.18c-0.08,0.04-0.81,0.44-1.59,1.22C21.77,87.73,21.74,87.77,21.71,87.8z M25.36,71.47c-0.36,1.1-0.17,2.35,0.57,3.72
				c2.82,0.25,7.42,2.12,8.25,7.94c0.49,3.43,4.29,6.77,7.71,9.18c0.14-1.43,0.55-2.72,1.11-3.86c-6.25-7.04-7.66-12.29-7.66-15.58
				c0-1.86-0.51-3.2-1.51-3.98c-1.75-1.37-4.56-0.84-5.03-0.74C28.4,68.32,26.03,69.43,25.36,71.47z M23.48,84.03
				c1.31-0.31,3.52-0.2,6.19,2.46c1.12,1.13,2.2,2.72,3.45,4.56c2.15,3.18,4.7,6.94,8.31,9.41c0.24-0.73,0.53-1.47,0.88-2.22
				c0,0,0.15-0.32,0.23-0.51c-0.04-0.14-0.09-0.3-0.09-0.3c-0.24-0.82-0.4-1.6-0.5-2.36c-4.08-2.69-9.31-6.86-9.99-11.63
				c-0.75-5.22-5.18-5.93-6.4-6.02C24.67,78.02,22.12,80.13,23.48,84.03z M58.65,145.63c2.8,0.37,4.71,0.32,4.56,0.19
				c0,0-0.69-1.05-0.71-1.27c-0.01,0-0.13-0.01-0.13-0.01c-0.89-0.05-8.61-0.79-12.12-1.96c-5.51-1.85-5.59-0.53-6.22,0
				c0.06,0.78,0.34,2.51,1.56,4.24c0.03,0.03,0.05,0.06,0.07,0.1c1.09,1.49,2.89,2.95,5.88,3.78c-0.04-1.06,0.15-2.41,1.05-3.49
				C53.78,145.79,55.82,145.26,58.65,145.63z M43.37,147.45c-0.98-1.63-1.38-3.23-1.52-4.24c-2.71-0.16-4.79-0.93-6.37-1.96
				c-5.11,2.94-13.72,3.38-18.87,3.36c2.25,2.85,4.66,5.47,7.18,7.87C26.61,152.62,38.41,152.89,43.37,147.45z M20.07,115.69
				c0-1.06,0.11-1.92,0.19-2.46c-0.58-0.67-0.99-1.36-1.26-2.04c-6.65-1.09-14.42-8.05-18.8-12.48c0.3,5.18,0.96,10.01,1.93,14.54
				c2.97,1.81,11.57,6.63,18.67,6.62C20.24,118.48,20.07,116.97,20.07,115.69z M24.63,129.04c-1.4-2.42-1.62-4.85-1.62-6.1
				c0-0.07,0-0.1,0-0.16c-0.3-0.22-0.57-0.46-0.81-0.72c-6.87,0.58-15.03-3.34-19.36-5.78c0.98,3.9,2.19,7.56,3.61,10.99
				C8.75,127.97,16.87,130.18,24.63,129.04z M33.6,139.7c-1.99-2.06-2.78-4.46-3.04-5.56c-1.92-0.83-3.35-1.9-4.42-3.07
				c-7.2,1.37-14.7-0.12-18.51-1.12c2.08,4.53,4.53,8.64,7.24,12.37C19.14,142.43,28.25,142.32,33.6,139.7z M44.02,42.83
				c1.15-0.33,2.39-0.58,3.73-0.77C57.17,16.94,88.2,0,88.2,0S72.83,0.96,58.35,6.4l0.12,0.13C58.33,6.67,44.19,20.63,44.02,42.83z
				 M60.7,158.7c-3.4-0.5-5.77-2.38-7.19-3.9c-1.62,2.19-5.8,6.32-15.16,8.71c3.15,1.89,6.33,3.56,9.5,5.02
				C56.53,164.9,59.64,160.73,60.7,158.7z M51.95,153.09c-3.43-0.74-5.71-2.2-7.22-3.82c-4.7,4.78-13.57,5.51-18.42,5.52
				c3.01,2.62,6.15,4.95,9.35,7.03C46.64,159.56,50.77,154.83,51.95,153.09z M34.15,53.58c0.03-0.93,0.23-2.42,1-4.05
				c-7.17-9.62-3.64-22.94-0.61-30.55c-4.56,3.28-8.99,7.12-13.07,11.61c0.32,4.88,1.79,21.1,7.47,26.63
				C30.6,54.94,32.88,53.97,34.15,53.58z M23.27,70.64c0.8-2.26,2.81-3.61,3.96-4.22c-0.14-0.93-0.24-1.83-0.24-2.69
				c0-1.65,0.28-3.14,0.82-4.47c-5.94-5.21-7.85-19.47-8.43-26.29c-3.44,4.09-6.59,8.68-9.3,13.84
				C12.37,61.64,20.17,68.47,23.27,70.64z M36.43,47.47c0.02-0.02,0.03-0.04,0.05-0.07c1.48-1.83,3.57-3.22,6.23-4.16h-0.95
				c0-17.32,7.94-29.64,12.33-35.14c-5.2,2.2-10.66,4.97-16.03,8.47C35.37,22.35,29.64,37.28,36.43,47.47z M20.69,85.65
				c0.27-0.24,0.54-0.45,0.81-0.64c-0.42-1.11-0.67-2.17-0.67-3.12c0-2.82,1.56-4.86,3.01-5.99c-0.46-0.94-0.78-1.86-0.87-2.75
				C20.58,71.72,11.7,65.52,8.4,50.16C6.58,54.06,5,58.27,3.72,62.8C5.33,66.96,11.63,81.83,20.69,85.65z M17.79,97.7
				c0.14-0.9,0.34-1.62,0.48-2.03c-0.46-1.24-0.7-2.41-0.7-3.46c0-1.92,0.65-3.53,1.53-4.8C11.07,83.52,5.37,72.46,2.77,66.44
				C1.73,70.78,0.96,75.4,0.5,80.31C3.31,84.35,10.97,94.66,17.79,97.7z M18.58,108.81c0.05-1.36,0.52-2.58,1.07-3.47
				c-1.36-1.7-1.9-3.58-1.99-5.26C11.08,97.59,4,88.96,0.23,83.82C0,87.48-0.06,91.31,0.06,95.3
				C3.47,98.94,11.79,107.2,18.58,108.81z"/>
			<path d="M118.32,24.44c0,0-13.15-13.15-17.03-15.08c0,0-7.76,2.8-10.13,6.46C91.17,15.82,107.54,16.26,118.32,24.44z"/>
			<path d="M92.16,116.48c0.81,1.15,2.13,1.71,4.05,1.71c0.22,0.01,5.16,0.21,7.53-4.12c-3.38-2.64-3.77-7.79-3.82-8.89
				c-0.13,0.04-0.27,0.07-0.4,0.11c0.04,0.15,0.05,0.3,0.02,0.46l-1.42,8.64c-0.1,0.61-0.68,1.03-1.29,0.93
				c-0.61-0.1-1.03-0.68-0.93-1.29l1.35-8.2c-1.83,0.37-5.05,0.89-5.05,0.89C92.17,106.79,89.91,113.31,92.16,116.48z
				 M107.11,113.99c4.6,0.9,7.68-1.83,8.81-3.06c-0.39-2.29-1.79-8.64-5.61-10.35c0,0-1.06,0.7-2.87,1.62l3.3,6.47
				c0.28,0.55,0.06,1.23-0.49,1.51c-0.55,0.28-1.23,0.06-1.51-0.49l-3.3-6.48c-0.01-0.01-0.01-0.03-0.02-0.04
				c-1.37,0.61-4,1.78-4,1.78C101.41,105.04,101.49,112.89,107.11,113.99z M92,131.71c0.1,0.2,0.14,0.43,0.1,0.66l-0.6,3.92
				c-0.09,0.61-0.67,1.04-1.28,0.94c-0.61-0.09-1.04-0.67-0.94-1.28l0.52-3.41c-0.75,0.13-1.23,0.06-1.36,0.03
				c-1.66-0.02-3.07-0.39-4.22-1.1c-1.11,1.96-2.68,5.74-0.93,7.49c2.92,2.91,6.45,3.07,10.53,0.47c-1.3-3.39,1.08-8.1,2.03-9.76
				c-0.26-0.21-0.51-0.43-0.73-0.68C94.01,130.33,92.94,131.17,92,131.71z M84.42,117.43l0.12,0.02l0.1,0.04
				c0.02,0.01,1.82,0.77,5.87-0.86c-1.8-3.54-0.2-8.96,0.19-10.16c-0.55-0.01-1.1-0.04-1.65-0.08c-0.01,0.06-0.01,0.12-0.03,0.18
				l-1.83,6.8c-0.16,0.6-0.78,0.96-1.38,0.79c-0.6-0.16-0.96-0.78-0.79-1.38l1.8-6.69c-1.73-0.32-3.36-0.86-4.67-1.68l-1.05,1.91
				c0,0-1.66,6.28,0.41,9.37C82.17,116.68,83.12,117.25,84.42,117.43z M69.65,115.29l-3.1,6.27c-0.28,0.56-0.95,0.79-1.51,0.51
				c-0.56-0.28-0.79-0.95-0.51-1.51l3.24-6.56c0.07-0.14,0.17-0.26,0.28-0.36c-0.13-0.17-0.26-0.34-0.38-0.53
				c-2.09,0.61-4.09,0.21-5.21-0.13c-0.85,1.49-3.17,6.04-1.15,8.86c2.41,3.37,6.87,3.21,8.61,3c-0.92-3.2,1.09-7.34,1.65-8.41
				C70.92,116.17,70.28,115.79,69.65,115.29z M58.18,110.02c0,0,0.01,0,0.01-0.01c-0.37-0.57-0.62-1.19-0.74-1.87
				c-0.04-0.23-0.06-0.46-0.07-0.69c-1.69,0-3.13-0.21-4.33-0.59c-0.15,0.33-2.19,4.9-0.95,8.05c0.46,1.16,1.3,1.96,2.6,2.48
				c0.02,0.01,1.92,0.86,4.34,0.97c0.21-2.44,1.36-4.79,2.01-5.96c-0.49-0.24-0.92-0.51-1.31-0.79c-0.04,0.05-0.09,0.1-0.14,0.14
				l-3.26,2.68c-0.48,0.39-1.19,0.33-1.58-0.15c-0.4-0.48-0.33-1.19,0.15-1.58L58.18,110.02z M100.7,118.74
				c-2.35,1.04-4.53,0.95-4.54,0.95c-0.37,0-0.73-0.03-1.07-0.07c-0.33,1.46-0.93,5.15,0.6,7.66c0.79,1.29,2.02,2.07,3.82,2.4
				c0.22,0.06,5.36,1.36,8.16-3.94c-0.44-0.37-0.83-0.79-1.16-1.29c-2.01-3.04-1.26-7.58-0.86-9.32c-0.22-0.08-0.45-0.17-0.65-0.26
				c-0.6,1.08-1.35,1.9-2.15,2.55c0.17,0.23,0.25,0.53,0.2,0.84l-1.15,7.26c-0.1,0.61-0.67,1.03-1.29,0.94
				c-0.62-0.1-1.03-0.67-0.94-1.29L100.7,118.74z M78.77,116.69l-0.96,6.21c-0.1,0.61-0.67,1.04-1.29,0.94
				c-0.61-0.09-1.04-0.67-0.94-1.29l0.89-5.75c-1.1,0.21-3.45,0.11-3.45,0.11c-0.03,0.05-2.95,5.28-1.39,8.19
				c0.62,1.16,1.95,1.82,3.93,1.97c0.03,0,2.58,0.08,5.32-1.76c-0.07-0.62-0.1-1.23-0.1-1.83c0-2.86,0.66-5.33,0.71-5.51
				c0,0-0.8-0.81-1.23-1.45c-0.18-0.27-0.33-0.55-0.47-0.85c-0.28,0.14-0.65,0.31-1.07,0.48C78.78,116.31,78.8,116.5,78.77,116.69z
				 M108.96,126.56c-0.98,1.82-3.33,4.3-3.45,4.61l-3.42,8.21c-0.24,0.58-0.9,0.84-1.47,0.61c-0.57-0.24-0.84-0.9-0.61-1.47
				l3.07-7.35c-2.14,0.45-3.88,0-3.89-0.01c-0.75-0.14-1.43-0.37-2.05-0.67c-1.05,1.86-3.94,7.67-0.7,9.97
				c4.12,2.93,9.44,1.66,12.05-1.38c-2.06-3.5,0.66-9.69,1.83-12.04C109.83,126.91,109.38,126.76,108.96,126.56z M113.46,114.61
				l2.7,6.51c0.24,0.57-0.04,1.23-0.61,1.47s-1.23-0.03-1.47-0.61l-2.7-6.51c-0.02-0.03-0.02-0.07-0.03-0.1
				c-1.25,0.3-2.66,0.4-4.23,0.14c-0.35,1.57-1.01,5.6,0.66,8.12c0.81,1.22,2.04,1.91,3.77,2.11c5.43,0.64,7.82-1.37,8.75-2.56
				c0.1-2.2,0.07-8.8-3.47-11.02C116.13,112.87,114.99,113.86,113.46,114.61C113.45,114.61,113.46,114.61,113.46,114.61z
				 M84.07,118.88c-0.42-0.07-0.82-0.17-1.19-0.3c-0.28,1.16-1.6,7.25,0.87,10.48c1.04,1.37,2.62,2.03,4.81,2.03l0.08,0l0.07,0.01
				c0.1,0.02,2.51,0.4,5.53-3.38c-1.58-2.95-0.97-6.81-0.61-8.42c-0.89-0.3-1.64-0.76-2.25-1.41c-0.64,0.27-1.23,0.48-1.79,0.66
				c0.06,0.13,0.09,0.28,0.09,0.43v7.47c0,0.62-0.5,1.13-1.13,1.13c-0.62,0-1.13-0.5-1.13-1.13v-7.38
				C85.45,119.37,84.38,119.01,84.07,118.88z M99.29,149.64c0.04,0,3.49-0.03,5.93-1.57c-0.42-1.89-0.27-3.82-0.08-5.07
				c-0.91,0.31-1.87,0.5-2.86,0.57c0,0.16-0.03,0.32-0.1,0.48l-1.34,2.94c-0.26,0.57-0.93,0.82-1.49,0.56
				c-0.57-0.26-0.82-0.92-0.56-1.49l1.18-2.59c-1.51-0.23-3.02-0.81-4.41-1.79c-0.39-0.28-0.72-0.59-0.99-0.93
				c-0.7,0.44-1.38,0.8-2.03,1.09c-0.08,1.03-0.15,3.88,1.5,5.82C95.18,148.97,96.94,149.64,99.29,149.64z M77.28,128.4
				c-1.05,0.2-1.74,0.17-1.81,0.17c-1.44-0.1-2.61-0.45-3.52-1.02c-0.38,1.75-0.86,5.23,0.64,7.59c0.86,1.34,2.28,2.15,4.23,2.41
				l0.12,0.02l0.09,0.04c0.01,0.01,1.19,0.45,3.99-0.74c-0.03-2.48,1.37-5.19,2.03-6.34c-0.17-0.18-0.34-0.37-0.49-0.57
				c-0.68-0.89-1.12-1.94-1.39-3.04c-0.53,0.32-1.05,0.57-1.54,0.78c0.08,0.23,0.1,0.48,0.02,0.73l-2.04,6.38
				c-0.19,0.59-0.82,0.92-1.42,0.73c-0.59-0.19-0.92-0.82-0.73-1.42L77.28,128.4z M84.96,149.44c3.95,1.62,6.63-0.19,7.69-1.15
				c-1.48-1.97-1.68-4.45-1.64-5.9c-0.46,0.13-0.9,0.23-1.33,0.29c0.01,0.11,0.01,0.23-0.02,0.35l-0.98,4.24
				c-0.14,0.61-0.75,0.98-1.35,0.84c-0.61-0.14-0.98-0.75-0.84-1.35l0.94-4.05c-1.74-0.22-3.18-0.99-4.34-1.93
				c-0.51,1.46-1.26,4.28-0.42,6.4C83.07,148.24,83.83,148.98,84.96,149.44z M90.25,151.27c-0.19,0.05-0.38,0.1-0.58,0.14
				c0.03,0.23,0,0.47-0.12,0.69l-2.2,4.02c-0.3,0.54-0.98,0.75-1.53,0.45c-0.55-0.3-0.75-0.98-0.45-1.53l1.92-3.5
				c-0.89-0.08-1.86-0.29-2.89-0.71c-0.8-0.33-1.47-0.78-2.02-1.35c-0.74,2.26-2.24,8.61,3.85,9.78c0,0,1.98,0.15,4.43-1.04
				C89.77,155.41,89.97,152.81,90.25,151.27z M81.26,147.73c-1.18-2.99,0.13-6.8,0.64-8.09c-0.29-0.38-0.51-0.8-0.65-1.25
				c-0.51,0.2-0.95,0.35-1.37,0.46c0.04,0.17,0.04,0.35,0,0.54l-1.43,5.5c-0.16,0.6-0.77,0.96-1.37,0.81
				c-0.6-0.16-0.96-0.77-0.81-1.37l1.33-5.13c-0.53-0.02-0.88-0.11-1.04-0.17c-1.27-0.17-2.35-0.56-3.26-1.13
				c-0.32,1.05-1.65,5.73-1.04,9.36c1.54,1.3,5.44,3.93,9.75,1.8C81.7,148.65,81.45,148.22,81.26,147.73z M70.05,130.91
				c0-2,0.42-3.77,0.63-4.53c-0.03-0.04-0.06-0.07-0.09-0.11c-0.21,0.04-0.5,0.08-0.86,0.11c0.01,0.2-0.03,0.41-0.13,0.6l-3.41,6.35
				c-0.29,0.55-0.98,0.75-1.52,0.46c-0.55-0.29-0.75-0.98-0.46-1.52l3.14-5.85c-1.26-0.09-2.71-0.36-4.08-1.03
				c-0.67,0.49-2.37,2.12-2.93,6.43c0,0,0.37,2.2,1.25,3.3l0.04-0.06c0.05,0.03,4.68,2.78,10,1.33c-0.11-0.14-0.22-0.29-0.32-0.44
				C70.35,134.42,70.05,132.59,70.05,130.91z M67.6,142.89c-0.47,0.4-1.18,0.35-1.59-0.13s-0.35-1.18,0.13-1.59l3.43-2.92
				c-2.1,0.18-4-0.14-5.48-0.57c-0.66,2.31-1.83,8.97,6.57,8.95c-0.23-2.4,0.18-4.98,0.59-6.84L67.6,142.89z M103.69,150.41
				c-0.94,0.31-1.86,0.49-2.61,0.59c0.03,0.25-0.03,0.52-0.18,0.75l-3.45,5.08c-0.35,0.51-1.05,0.65-1.56,0.3
				c-0.51-0.35-0.65-1.05-0.3-1.56l3.02-4.44c-2.02-0.11-3.67-0.7-4.92-1.75c-0.4,0.36-0.99,0.81-1.74,1.22
				c-0.29,1.11-1.19,5.55,1.28,9.67c1.5,1.38,3.92,2.49,7.26,0.57C100,155.77,101.99,152.35,103.69,150.41z M120.82,124.81
				c-0.7,0.68-1.72,1.41-3.17,1.9c0.03,0.1,0.05,0.2,0.05,0.3l0.01,6.41c0,0.62-0.5,1.13-1.12,1.13c-0.62,0-1.13-0.5-1.13-1.12
				l-0.01-6.21c-1.04,0.14-2.21,0.17-3.57,0.05c-1.56,2.92-4.3,9.7-1.35,11.88c3.55,2.63,7.46,1.95,10.62,0.48
				C122.2,137.02,124.16,130.53,120.82,124.81z M111.56,153.75c-0.05,0.22-0.17,0.43-0.35,0.59l-4.16,3.68
				c-0.47,0.41-1.18,0.37-1.59-0.1c-0.41-0.47-0.37-1.18,0.1-1.59l3.66-3.23c-1.25-0.52-2.24-1.33-2.96-2.43
				c-0.1-0.15-0.18-0.3-0.26-0.46c-1.45,1.19-4.63,4.53-4.03,10.56c1.32,1.2,4.85,3.71,8.62,0.7c0,0,4.48-2.94,5.42-7.41
				C113.98,154.24,112.34,153.94,111.56,153.75z M116.73,142.41c0.01,0.17-0.02,0.35-0.1,0.52l-2.94,6.16
				c-0.27,0.56-0.94,0.8-1.5,0.53c-0.56-0.27-0.8-0.94-0.53-1.5l2.75-5.78c-1.7-0.24-3.29-0.89-4.76-1.98
				c-0.06-0.04-0.11-0.1-0.17-0.14c-0.74,0.81-1.65,1.51-2.67,2.06c-0.24,1.05-0.96,4.99,0.72,7.57c0.82,1.26,2.13,2.04,3.89,2.31
				l0.06,0.01l0.05,0.02c0.03,0.01,2.56,0.79,5.63,0.19c1.73-1.79,4.93-5.92,3.64-10.96C119.4,141.98,118.04,142.3,116.73,142.41z
				 M50.23,112.02c0.13-2.71,1.21-5.22,1.44-5.74c-0.49-0.27-0.93-0.58-1.3-0.94l-2.95,2.73c-0.46,0.42-1.17,0.39-1.59-0.06
				c-0.42-0.46-0.4-1.17,0.06-1.59l3-2.78c0.08-0.08,0.18-0.12,0.28-0.17c-0.3-0.83-0.41-1.74-0.36-2.68
				c-0.77-0.2-2.05-0.73-3.85-2.08c-1.16,1.73-4.35,7.41-0.23,12C46.87,111.6,49.1,111.91,50.23,112.02z M50.76,103.4
				c0.89,1.72,3.17,2.57,6.72,2.56c0.55-3.18,3.11-6.28,4.3-7.57c-0.67-0.42-1.33-0.84-1.95-1.28l-4.67,4.39
				c-0.45,0.43-1.17,0.41-1.59-0.05c-0.43-0.45-0.4-1.17,0.05-1.59l4.39-4.13c-1.26-1.04-2.34-2.13-3.13-3.26
				c0,0-0.26-0.34-0.67-0.9C52.28,94.4,49.11,100.22,50.76,103.4z M49.01,99.28c0.36-1.81,1.14-3.65,1.96-5.22l-3.91,0.08
				c-0.62,0.01-1.13-0.49-1.14-1.11s0.49-1.13,1.11-1.14l4.54-0.09c0.22,0,0.42,0.06,0.59,0.16c0.45-0.73,0.85-1.32,1.11-1.69
				c-1.27-1.81-2.93-4.35-3.55-6.06c0,0-7.5,4.71-5.05,12.34C46.84,98.4,48.28,99.05,49.01,99.28z M61.92,124.56
				c-0.52-0.39-1.01-0.84-1.46-1.39l-3.17,3.32c-0.43,0.45-1.14,0.47-1.59,0.04c-0.45-0.43-0.47-1.14-0.04-1.59l3.32-3.48
				c0.11-0.11,0.23-0.2,0.37-0.26c-0.14-0.44-0.23-0.88-0.28-1.33c-2.05-0.08-3.75-0.63-4.51-0.92c-0.89,0.88-3.29,3.75-2.7,8.35
				c0.92,1.74,2.9,3.66,7.13,3.46C59.61,127.25,60.96,125.44,61.92,124.56z M58.93,107.87c0.27,1.46,1.32,2.57,3.23,3.4
				c0.03,0.01,2.38,1.06,4.85,0.45c-0.98-3.37,2.17-7,3.95-8.72c-0.75-0.32-1.52-0.66-2.3-1.02l-3.56,6.3
				c-0.31,0.54-0.99,0.73-1.53,0.43s-0.73-0.99-0.43-1.53l3.48-6.16c-1.19-0.58-2.38-1.2-3.53-1.86
				C61.98,100.35,58.33,104.53,58.93,107.87z M68.88,112.21c3.49,5.27,8.85,2.88,10.4,2.04c-0.27-1.06-0.38-2.18-0.38-3.24
				c0-2.49,0.54-4.63,0.58-4.79c0,0-0.67-0.21-1.87-0.64l-1.4,5.43c-0.16,0.6-0.77,0.96-1.37,0.81c-0.6-0.15-0.96-0.77-0.81-1.37
				l1.43-5.56c0.01-0.03,0.02-0.06,0.03-0.09c-0.88-0.33-1.88-0.72-2.99-1.17C70.98,105.02,66.87,109.18,68.88,112.21z
				 M51.74,117.14l-3.35,2.94c-0.47,0.41-1.18,0.36-1.59-0.11c-0.41-0.47-0.36-1.18,0.11-1.59l3.43-3.01
				c0.09-0.08,0.19-0.13,0.29-0.18c-0.19-0.54-0.31-1.1-0.37-1.67c-0.87-0.07-2.48-0.26-4.24-0.78c-1.06,2.18-4.03,9.7,4.32,11.76
				c0.36-3.06,1.85-5.16,2.79-6.22C52.6,117.96,52.14,117.58,51.74,117.14z"/>
			<path d="M86.01,76.53c18.61-12.4,14.73-19.19,14.73-19.19c-12.79,1.36-13.46-9.27-13.46-9.27c-0.33,0.41-0.75,0.81-1.28,1.19
				c-4.48,3.25,0.11,7.4,0.45,7.85c0.34,0.45,7.96,9.19-5.6,13.56c-13.56,4.37-23.43,18.27-23.43,18.27s7.55,8.69,18.32,10.5
				C73.99,96.05,71.08,86.48,86.01,76.53z M102.59,73.92c4.6-3.81,12.78-10.31,12.78-18.95c0-8.63-5.61-18.95-16.26-18.95
				c-10.65,0-11.88,5.6-11.88,5.6s2.24,3.02,0.43,5.9c1.06-1.37,4.26-4.87,8.81-3.77c5.62,1.36,12.99,6.59,11.24,12.99
				S97.8,71.29,93.18,74.01c-4.51,2.65-20.73,12.68-14.87,25.74c0.43,0.02,0.86,0.04,1.3,0.04c0,0,0.58,4.26,10.27,4.26
				c12.4,0,18.2-5.55,18.2-5.55c-0.67-2.47-3.25-4.62-10.2-9.67C90.93,83.79,97.99,77.73,102.59,73.92z"/>
			<path d="M59.84,33.69c1.12,2.35,22.29,16.09,22.29,16.09s1.88-0.59,3.04-2.41L59.43,32.4C59.47,32.75,59.6,33.18,59.84,33.69z
				 M85.81,42.22L62.64,30.81c0,0-1.67-0.35-2.6,0.2l25.76,14.98C86.09,44.99,86.16,43.75,85.81,42.22z"/>
			<path d="M93.95,48.23c0,0,1.16-4.07,6.01-1.16c4.85,2.91,0.98,8.15-3.1,6.2C92.56,51.21,93.95,48.23,93.95,48.23z M97.42,51.46
				c2,0.96,3.9-1.62,1.52-3.04C96.57,46.99,96,48.99,96,48.99S95.31,50.46,97.42,51.46z"/>
			<path d="M56.76,89.65c0,0,10.15,11.47,18.64,11.47c0,0,3.53-0.33,4.52,1.76c0.99,2.1-0.88,1.88-3.86,0.55S64.1,100.94,56.31,91.3
				C56.31,91.3,54.94,89.15,56.76,89.65z"/>
			<path d="M63.49,157.28c0,0-8.89-2.46-9.41-6.12c-0.52-3.66,3.51-3.89,12.75-2.2C66.84,148.97,60.24,151.54,63.49,157.28z"/>
			<path d="M70.5,151.89c0,0-4.91-1.15-4.91,1.88c0,3.03,2.61,5.02,7.94,5.85c5.33,0.84,11.6,1.36,11.6,1.36s-6.86-2.72-5.33-7.32
				L70.5,151.89z"/>
			<path d="M71.54,148.23c0,0,1.99,2.2,4.29,2.93c2.3,0.73-6.06-0.11-7.53-1.15L71.54,148.23z"/>
			<path d="M59.31,131.93h-3.35c0,0-2.82,2.72-0.42,5.12c2.4,2.4,3.87-1.88,3.87-1.88L59.31,131.93z"/>
			<path d="M59.89,136.79l3.08,0.26l-1.78,4.39c0,0-1.31,2.04-3.34,0C55.81,139.4,59.89,136.79,59.89,136.79z"/>
			<path d="M55.45,166.26c0,0,5.41-5.23,6.71-6.52c1.29-1.29,3.88-0.86,3.57,0.86C65.41,162.33,60.43,165.89,55.45,166.26z"/>
			<path d="M58.34,171.12c0,0,8.74-8.43,9.47-9.78s4.74-0.43,4.06,1.35C71.2,164.48,64.55,170.45,58.34,171.12z"/>
			<path d="M65.17,174.32c0,0,8.12-9.6,8.67-11.2s1.35-0.49,2.15,0.31c0.8,0.8,3.75,4.37,1.48,5.78
				C75.19,170.63,70.33,174.32,65.17,174.32z"/>
			<path d="M67.22,177.07c0,0,2.93,0.76,5.32,1.17c0,0,3.33-4.54,4.13-6.69C76.67,171.55,69.26,177.07,67.22,177.07z"/>
			<path d="M48.51,170.05l4.58,2.17c0,0,6.04-3.44,7.52-4.91C60.61,167.31,51.72,169.44,48.51,170.05z"/>
			<path d="M57.85,174.16l4.44,1.52l5.21-5.29C67.5,170.38,59.31,174.71,57.85,174.16z"/>
			<path d="M74.31,178.56l4.76-6.45c0,0,3.8,7.24,6.39,7.62C85.46,179.73,76.32,179.3,74.31,178.56z"/>
			<path d="M78.45,163.68h2.71c0,0,1.23,9.1,5.78,11.13v3.26C86.94,178.07,81.02,174.44,78.45,163.68z"/>
			<path d="M82.39,163.56h1.97c0,0,0.89,6.71,4.2,8.12v2.65C88.56,174.32,82.82,170.08,82.39,163.56z"/>
			<path d="M86.7,163.86h5.9c0,0-0.46,4.58-2.4,6.52C90.2,170.38,87.99,170.88,86.7,163.86z"/>
			<path d="M94.76,163h3.38c0,0,0.18,6.84-6.46,10.15C91.68,173.15,94.76,168.23,94.76,163z"/>
			<path d="M101.46,161.71c0,0,0.98,4.61,7.07,2.77c0,0-4.18,6.4-13.96,9.91C94.57,174.38,101.02,164.6,101.46,161.71z"/>
			<path d="M101.52,172.54c0,0-5.34,6.63-8.49,7.19c0,0,8.12-0.33,13.67-1.61L101.52,172.54z"/>
			<path d="M103.92,171.74c0,0,2.89-2.15,4.55-3.81l5.69,8.41C114.16,176.33,107.49,175.31,103.92,171.74z"/>
			<path d="M110.32,163.8c0,0,0.31,2.09,0.31,2.64s7.77,6.21,10.83,6.21c0,0-2.52-8.24-7.2-11.14
				C114.26,161.52,111.3,163.8,110.32,163.8z"/>
			<path d="M115.3,160.79l1.05-3.69c0,0,3.26-0.37,5.35,0.55s8.8,6.52,11.5,9.23C133.2,166.88,122.51,167.48,115.3,160.79z"/>
			<path d="M120.59,166.2l4.19,6.34c0,0,4.08-1.86,5.98-2.83C130.76,169.71,121.98,167.59,120.59,166.2z"/>
			<path d="M114.93,171.8l5.41,2.51c0,0-2.58,0.93-4.16,1.41C116.18,175.72,114.93,173.81,114.93,171.8z"/>
			<path d="M129.05,85.7l5.27-0.35c0.62-0.04,1.16,0.43,1.2,1.05c0.04,0.62-0.43,1.16-1.05,1.2l-4.8,0.32
				c0.36,0.77,0.71,1.6,1.01,2.48c2.77-0.71,5.03-0.26,6.62,0.39c1.04-1.93,1.01-5,1.01-5c0-6.56-6.96-8.4-6.96-8.4
				c-0.64,2.32-1.97,4.71-3.63,7.01c0.25,0.38,0.55,0.88,0.88,1.44C128.73,85.77,128.88,85.71,129.05,85.7z M140.16,100.5
				c0.92-3.57-0.69-6.14-2.01-7.57c-1.14-0.76-3.61-1.96-7.05-1.1c0.43,1.67,0.62,3.44,0.36,5.17h5.45c0.62,0,1.12,0.5,1.12,1.13
				c0,0.62-0.5,1.12-1.12,1.12h-4.84c0.88,1.26,2.1,3.29,2.65,5.52C135.44,104.91,138.94,103.28,140.16,100.5z M130.09,107.35
				l-5.07-1.06c0.99,1.52,2.27,3.9,2.68,6.54c3.04-0.84,4.92-2.24,5.55-4.16c1.05-3.2-1.41-7.17-2.66-8.9
				c-0.93,1.83-2.52,3.29-4.73,4.39l4.68,0.98c0.61,0.13,1,0.72,0.87,1.33C131.3,107.08,130.7,107.47,130.09,107.35z M123.23,114.54
				l-2.25-0.79c1.14,2.36,1.5,5.17,1.57,7.34c1.81-1.25,2.98-2.74,3.49-4.47c1.11-3.78-1.17-7.86-2.51-9.84
				c-0.62,1.7-1.74,3.14-3.34,4.31l3.79,1.33c0.59,0.21,0.9,0.85,0.69,1.44C124.46,114.44,123.82,114.74,123.23,114.54z
				 M128.5,95.99c-0.23,0.58-0.88,0.86-1.46,0.64l-5.77-2.27c1.14,1.95,2.81,5.4,2.83,8.96c2.98-1.18,4.87-2.96,5.62-5.31
				c1.41-4.43-1.45-9.88-2.98-12.33c-1.59,2.01-4.27,4.8-5.65,6.19l6.77,2.66C128.44,94.76,128.72,95.41,128.5,95.99z
				 M122.13,106.24c1.9-5.29-2.64-11.93-3.07-12.54c-3.28,2.93-5.91,4.84-5.91,4.84l-0.48,0.51l7.26,2.67
				c0.58,0.21,0.88,0.86,0.67,1.45c-0.21,0.58-0.86,0.88-1.45,0.67l-3.8-1.4c1.56,2.56,2.35,5.68,2.74,7.89
				c0.09,0.05,0.16,0.12,0.24,0.18C120.23,109.39,121.51,107.97,122.13,106.24z M140.05,103.04c-1.71,1.94-3.28,3.03-4.69,3.22
				c-0.13,0.02-0.26,0.03-0.38,0.03c0.02,0.21,0.03,0.42,0.03,0.63c0.06,0,0.11,0.01,0.17,0.02l4.38,0.97
				c0.61,0.13,0.99,0.73,0.86,1.34c-0.13,0.61-0.73,0.99-1.34,0.86l-4.38-0.97c0,0,0,0.01,0,0.01c-0.02,0.07-0.06,0.14-0.09,0.21
				c0.91,0.66,2.63,2.29,4,5.86C144.84,110.39,141.5,104.91,140.05,103.04z M133.89,110.71c-1.15,1.67-3.18,2.89-6.06,3.65
				c0.01,0.44-0.02,0.89-0.08,1.34c0,0,0,0,0,0l5.65,1.07c0.61,0.12,1.01,0.71,0.9,1.31c-0.12,0.61-0.7,1.01-1.32,0.9l-3.96-0.75
				c1.02,1.31,2.19,3.57,3.05,7.44c4.64-0.34,5.75-4.38,5.95-7.22C137.28,113.08,134.84,111.46,133.89,110.71z M127.01,118.28
				c-0.84,1.79-2.34,3.31-4.45,4.56c0,0.15-0.01,0.3-0.01,0.44l0,0.01c0.06,0.1,0.22,0.38,0.22,0.38c0.22,0.37,0.41,0.75,0.59,1.13
				l4.79,2.88c0.53,0.32,0.71,1.01,0.38,1.55c-0.32,0.53-1.01,0.7-1.55,0.38l-2.48-1.49c0.3,1.33,0.43,2.65,0.43,3.9
				c0,2.04-0.32,3.91-0.72,5.46c6.04-0.77,6.21-5.78,6.87-9.02C130.01,121.61,128.01,119.12,127.01,118.28z"/>
			<path d="M154.74,120.63c1.99-1.96,1.64-5.71,1.44-7.01c-0.8-0.38-2.78-0.92-5.19,1.49c-2.15,2.15-6.5,4.53-11.2,6.37
				c-0.47,1.69-1.26,3.08-2.32,4.12c3.12-0.74,6.44-1.92,9.3-3.82c2.78-1.86,5.06-2.49,6.78-1.89
				C154.06,120.08,154.44,120.35,154.74,120.63z M147.55,131.95c6.06-2.8,5.92-8.43,5.84-9.44c-0.07-0.13-0.25-0.38-0.64-0.5
				c-0.57-0.18-1.95-0.21-4.74,1.65c-4.61,3.08-10.29,4.4-14.68,4.97l-0.24,1.31c-0.1,0.59-0.22,1.25-0.38,1.94
				c0.88-0.25,1.79-0.52,2.76-0.81l2.79-0.82C143.94,128.6,146.51,130.6,147.55,131.95z M156.74,106.03l-0.65-0.79l0.05-0.05
				c-0.17-0.15-0.41-0.29-0.69-0.34c-0.57-0.1-1.85,0.06-4.05,2.25c-2.16,2.16-5.06,4.38-8.14,6.23c-0.75,1.3-1.82,2.5-3.22,3.6
				c0.08,0.39,0.17,0.77,0.23,1.2l0.03,0.23l-0.02,0.23c-0.01,0.09-0.02,0.18-0.03,0.27c3.9-1.63,7.4-3.6,9.15-5.35
				c2.92-2.92,5.84-2.75,7.55-2.03C158.94,108.85,156.99,106.33,156.74,106.03z M158.75,99.15c-0.05-1.34-0.38-2.41-0.53-2.84
				c-0.34-0.33-1.41-1.25-2.74-1.17c-1.21,0.07-2.41,0.95-3.57,2.6c-1.93,2.75-4.77,5.82-7.78,8.46c0.22,0.8,0.36,1.65,0.36,2.57
				c0,0.38-0.02,0.76-0.07,1.15c0,0,0,0,0,0c1.95-1.33,3.79-2.83,5.37-4.41c2.25-2.25,4.29-3.21,6.08-2.87
				c0.71,0.14,1.29,0.48,1.73,0.87c0.9-1.34,1.16-2.82,1.14-4.1C158.75,99.32,158.75,99.24,158.75,99.15z M156.96,87.8
				c-0.03-0.03-0.07-0.06-0.1-0.1c-0.78-0.77-1.51-1.17-1.59-1.22l-0.35-0.18c-0.55-0.21-2.08-0.47-4.34,1.79
				c-0.97,0.97-2,2.48-3.18,4.23c-1.31,1.93-2.84,4.17-4.73,6.25c-0.01,0.82-0.12,1.66-0.34,2.5l-0.05,0.18l-0.08,0.17
				c-0.07,0.16-0.17,0.3-0.25,0.46c0.4,0.54,0.88,1.24,1.3,2.08c2.57-2.31,5.03-4.96,6.8-7.5c1.58-2.26,3.37-3.46,5.31-3.56
				c1.32-0.07,2.44,0.4,3.25,0.91C159.29,90.96,158.1,88.98,156.96,87.8z M124.5,139.72l-0.4,0.05l-0.08,0.27
				c-0.2,0.62-0.48,1.18-0.82,1.68c1.28-0.16,2.7-0.51,4.33-1.21c4.98-2.13,7.7-0.43,8.7,0.49c7.7-0.23,9.4-5.99,9.7-7.45
				c-0.43-0.69-2.1-2.57-7.04-1.14l-2.78,0.82c-1.51,0.45-2.9,0.86-4.23,1.22C130.81,136.9,128.78,139.17,124.5,139.72z
				 M150.85,59.26c0.54,1.33,0.81,2.82,0.81,4.47c0,0.85-0.09,1.75-0.24,2.69c1.14,0.61,3.16,1.96,3.96,4.22
				c3.11-2.17,10.9-9,13.2-23.83c-2.72-5.15-5.86-9.75-9.3-13.84C158.7,39.79,156.79,54.05,150.85,59.26z M131.92,75.21
				c0.57,0.15,1.23,0.39,1.93,0.72c1.8-4.08,3.21-8.56,3.21-11.67c0-5.97,3.82-9.36,5.23-10.41c-0.01-0.74-0.15-2.26-1.08-3.88
				c0-0.01-0.01-0.01-0.01-0.02c-0.22-0.39-0.48-0.78-0.8-1.17c-1.78-2.18-4.69-3.62-8.64-4.3c2.99,9.27,3.47,19.59-0.67,30.52
				L131.92,75.21z M148.47,59.45c-0.14-0.27-0.3-0.53-0.47-0.78c-1.4-2.01-3.5-2.77-4.38-3c-1.09,0.81-4.31,3.62-4.31,8.6
				c0,3.47-1.54,8.38-3.52,12.8c1.14,0.79,2.23,1.82,3.09,3.11c1.69-3.1,2.18-5.54,2.18-7.3c0-2.59,0.8-4.53,2.38-5.76
				c1.88-1.47,4.37-1.49,5.83-1.33c0.35-2.52,0.08-4.63-0.79-6.32C148.47,59.46,148.47,59.45,148.47,59.45z M159.56,87.4
				c0.88,1.27,1.53,2.88,1.53,4.8c0,1.06-0.24,2.22-0.7,3.46c0.14,0.42,0.34,1.13,0.48,2.03c6.83-3.04,14.48-13.35,17.3-17.39
				c-0.46-4.92-1.23-9.54-2.27-13.88C173.29,72.46,167.59,83.52,159.56,87.4z M149.85,68.14c-0.47-0.1-3.29-0.62-5.03,0.74
				c-1,0.78-1.51,2.13-1.51,3.98c0,2.3-0.7,5.56-3.25,9.72c0.31,0.96,0.5,2.01,0.5,3.17c0,0,0,0.05,0,0.09
				c0,0.47-0.04,2.13-0.48,3.85c2.22-1.98,4.07-4.26,4.4-6.58c0.83-5.82,5.43-7.69,8.25-7.94c0.74-1.37,0.94-2.62,0.57-3.72
				C152.63,69.43,150.26,68.32,149.85,68.14z M146.7,83.44c-0.48,3.35-3.18,6.39-6.16,8.84c0.79,1.04,1.38,2.16,1.73,3.33
				c1.22-1.52,2.29-3.1,3.28-4.55c1.25-1.84,2.33-3.44,3.45-4.56c2.66-2.66,4.87-2.77,6.19-2.46c1.36-3.9-1.19-6.02-2.08-6.61
				C151.89,77.51,147.45,78.22,146.7,83.44z M155.69,73.14c-0.1,0.89-0.41,1.81-0.87,2.75c1.45,1.13,3.01,3.18,3.01,5.99
				c0,0.95-0.25,2.01-0.67,3.12c0.27,0.19,0.54,0.4,0.81,0.64c9.06-3.82,15.36-18.68,16.97-22.85c-1.29-4.52-2.86-8.73-4.69-12.63
				C166.96,65.52,158.08,71.72,155.69,73.14z M152.52,131.07c-1.08,1.16-2.5,2.24-4.42,3.07c-0.26,1.1-1.04,3.5-3.04,5.56
				c5.35,2.62,14.46,2.73,18.73,2.62c2.71-3.73,5.16-7.84,7.24-12.37C167.22,130.95,159.72,132.44,152.52,131.07z M136.81,143.21
				c-0.15,1.01-0.54,2.6-1.52,4.24c4.96,5.44,16.76,5.17,19.59,5.02c2.52-2.4,4.93-5.01,7.18-7.87c-5.15,0.03-13.76-0.42-18.87-3.36
				C141.6,142.29,139.53,143.05,136.81,143.21z M156.46,122.07c-0.24,0.26-0.51,0.5-0.81,0.72c0,0.06,0,0.09,0,0.16
				c0,1.25-0.23,3.69-1.62,6.1c7.76,1.14,15.88-1.07,18.18-1.77c1.42-3.43,2.63-7.09,3.61-10.99
				C171.49,118.72,163.33,122.65,156.46,122.07z M126.71,153.09c1.18,1.73,5.31,6.47,16.29,8.73c3.21-2.08,6.34-4.42,9.35-7.03
				c-4.85-0.01-13.72-0.74-18.42-5.52C132.42,150.89,130.13,152.35,126.71,153.09z M158.4,113.23c0.08,0.54,0.19,1.39,0.19,2.46
				c0,1.28-0.17,2.8-0.74,4.19c7.1,0.01,15.7-4.82,18.67-6.62c0.97-4.53,1.63-9.37,1.93-14.54c-4.37,4.43-12.15,11.39-18.8,12.48
				C159.38,111.87,158.98,112.56,158.4,113.23z M178.44,83.82c-3.78,5.14-10.85,13.77-17.44,16.27c-0.09,1.68-0.63,3.56-1.99,5.26
				c0.55,0.89,1.03,2.11,1.07,3.47c6.79-1.61,15.11-9.87,18.52-13.51C178.72,91.31,178.66,87.48,178.44,83.82z M103.22,145.3
				c0-0.04,0.01-0.08,0.01-0.12l0,0C103.22,145.22,103.23,145.26,103.22,145.3z M135.95,43.24c2.65,0.95,4.75,2.33,6.23,4.16
				c0.02,0.02,0.03,0.04,0.05,0.07c6.8-10.19,1.06-25.12-1.62-30.9c-5.37-3.5-10.83-6.28-16.03-8.47
				c4.39,5.5,12.33,17.82,12.33,35.14H135.95z M134.65,42.83c-0.18-22.2-14.32-36.16-14.46-36.3l0.12-0.13
				C105.83,0.96,90.46,0,90.46,0s31.03,16.94,40.46,42.07C132.25,42.25,133.49,42.51,134.65,42.83z M127.12,150.69
				c2.98-0.82,4.79-2.29,5.88-3.78c0.02-0.03,0.04-0.07,0.07-0.1c1.22-1.73,1.5-3.46,1.57-4.24c-0.63-0.53-0.72-1.85-6.22,0
				c-3.51,1.18-4.85,1.07-5.74,1.12c0,0-0.11,0.01-0.13,0.01c-0.02,0.22-0.31,1.67-0.31,1.67s-2.48,7.46-3.74,8.72
				C118.5,154.1,124.73,151.34,127.12,150.69z M143.51,49.54c0.77,1.63,0.97,3.12,1,4.05c1.27,0.38,3.55,1.36,5.21,3.65
				c5.69-5.53,7.15-21.76,7.47-26.63c-4.09-4.49-8.52-8.33-13.07-11.61C147.15,26.59,150.68,39.91,143.51,49.54z"/>
			<path d="M124.96,153.46c0,0,6.47,8.99,17.18,9.21c0,0-3.56,2.49-5,3.38c0,0-9.62-4.22-15.69-11.79L124.96,153.46z"/>
		</g>
	</g>
</svg>
