<?xml version="1.0" encoding="iso-8859-1"?>
<!-- Generator: Adobe Illustrator 11 Build 196, SVG Export Plug-In . SVG Version: 6.0.0 Build 78)  -->
<!DOCTYPE svg PUBLIC "-//W3C//DTD SVG 1.0//EN"    "http://www.w3.org/TR/2001/REC-SVG-20010904/DTD/svg10.dtd" [
	<!ENTITY ns_flows "http://ns.adobe.com/Flows/1.0/">
	<!ENTITY ns_svg "http://www.w3.org/2000/svg">
	<!ENTITY ns_xlink "http://www.w3.org/1999/xlink">
	
		<!ENTITY st0 "fill:none;stroke:#000000;stroke-width:0.5;stroke-linecap:round;stroke-linejoin:round;stroke-miterlimit:2;stroke-dasharray:5;">
	<!ENTITY st1 "font-family:'MyriadPro-Regular';">
	<!ENTITY st2 "fill:none;stroke:#000000;stroke-width:0.5;stroke-miterlimit:2;">
	<!ENTITY st3 "fill:none;stroke:#000000;stroke-width:0.5;stroke-linecap:round;stroke-linejoin:round;stroke-miterlimit:2;">
	<!ENTITY st4 "display:inline;">
	<!ENTITY st5 "font-size:13;">
	<!ENTITY st6 "fill:none;stroke:#000000;stroke-linecap:round;stroke-linejoin:round;stroke-miterlimit:2;">
	<!ENTITY st7 "display:none;">
	<!ENTITY st8 "font-family:'HiraKakuPro-W3-83pv-RKSJ-H';adobe-font-script:japanese;">
]>
<svg  xmlns="&ns_svg;" xmlns:xlink="&ns_xlink;" xmlns:a="http://ns.adobe.com/AdobeSVGViewerExtensions/3.0/"
	 width="342.09" height="229.34" viewBox="0 0 342.09 229.34" style="overflow:visible;enable-background:new 0 0 342.09 229.34"
	 xml:space="preserve">
	<g id="Bild">
		<path style="&st6;" d="M65.56,217.01c0-4.38-1.06-10.12-4.06-10.12c0,0-6.5,0-12.25,0c-3,0-4.5,5.75-4.5,10.25"/>
		<line style="&st6;" x1="49.25" y1="206.88" x2="55.44" y2="88.69"/>
		<polyline style="&st6;" points="57.38,78.94 57.38,75.44 56.72,75.2 57.25,63.76 "/>
		<line style="&st6;" x1="67.81" y1="78.57" x2="68.25" y2="64.26"/>
		<line style="&st6;" x1="61.5" y1="206.88" x2="67.12" y2="88.69"/>
		<path style="&st6;" d="M55.44,88.69H29.81V78.57h26.75c0.81,0,1.31,0.62,1.31,4.75C57.88,88.88,56.38,88.69,55.44,88.69z"/>
		<polyline style="&st6;" points="50.44,78.44 50.44,72.82 56.72,75.2 "/>
		<line style="&st6;" x1="122.25" y1="78.57" x2="122.25" y2="62.09"/>
		<polyline style="&st6;" points="54.06,59.61 53.88,63.57 71.69,64.38 71.93,60.5 "/>
		<line style="&st6;" x1="3.5" y1="39.63" x2="6" y2="47.88"/>
		<line style="&st6;" x1="257.62" y1="217.38" x2="0.5" y2="217.38"/>
		<path style="&st6;" d="M192.56,217.01c0-4.38,1.06-10.12,4.06-10.12c0,0,6.5,0,12.25,0c3,0,4.5,5.75,4.5,10.25"/>
		<line style="&st6;" x1="208.88" y1="206.88" x2="202.69" y2="88.69"/>
		<line style="&st6;" x1="190.31" y1="78.57" x2="189.75" y2="64.26"/>
		<line style="&st6;" x1="196.62" y1="206.88" x2="191" y2="88.69"/>
		<path style="&st6;" d="M202.69,88.69h25.62V78.57h-26.75c-0.81,0-1.31,0.62-1.31,4.75C200.25,88.88,201.75,88.69,202.69,88.69z"/>
		<path style="&st6;" d="M122.25,78.57h13.69h54.38c0.69,0,2.62-0.19,2.62,5.38c0,4.12-1.12,4.75-1.94,4.75H67.12
			c-0.81,0-1.94-0.62-1.94-4.75c0-5.56,1.69-5.38,2.62-5.38H122.25z"/>
		<polyline style="&st6;" points="207.69,78.44 207.69,72.82 201.41,75.32 "/>
		<line style="&st6;" x1="135.88" y1="78.57" x2="135.88" y2="62.09"/>
		<polyline style="&st6;" points="203.63,59.63 203.81,63.63 186.62,64.38 186.38,60.49 "/>
		<path style="&st6;" d="M129.06,41.66c68.18,0,116.49-5.13,127.56-6.53l-0.75,4l-1.25,0.5c-32.25,3.25-80.81,6.5-125.56,6.5
			S35.75,42.88,3.5,39.63l-1.25-0.5l-0.75-4C12.57,36.53,60.88,41.66,129.06,41.66z"/>
		<path style="&st6;" d="M3.5,39.63l2.25,8.25c20.25,2.5,71.06,6.25,123.31,6.25s103.06-3.75,123.31-6.25l2.25-8.25"/>
		<path style="&st6;" d="M241.62,49.13l-1.75,8c-5.28,0.62-19.24,1.59-36.24,2.5c-5.49,0.3-11.31,0.59-17.25,0.86
			c-17.33,0.8-35.75,1.44-50.57,1.6c-2.35,0.03-11.19,0.02-13.56,0c-14.75-0.16-33.07-0.8-50.31-1.59
			c-6.17-0.28-12.19-0.58-17.87-0.89c-16.81-0.91-30.57-1.86-35.81-2.48l-1.75-8"/>
		<polyline style="&st6;" points="200.75,79.07 200.75,75.57 201.41,75.32 200.88,63.88 "/>
	</g>
	<g id="Beschriftung">
		<line style="&st3;" x1="128.67" y1="70.42" x2="104.83" y2="105.05"/>
		<line style="&st3;" x1="237" y1="44.88" x2="272.5" y2="18.38"/>
		<line style="&st3;" x1="236.25" y1="53.38" x2="272" y2="57.08"/>
		<line style="&st3;" x1="205.21" y1="76.63" x2="272" y2="134.48"/>
		<line style="&st3;" x1="201.88" y1="61.51" x2="272" y2="95.78"/>
		<line style="&st3;" x1="201.5" y1="158.38" x2="272" y2="173.18"/>
		<line style="&st3;" x1="207" y1="211.88" x2="272" y2="211.88"/>
		<line style="&st2;" x1="151.48" y1="148.81" x2="151.48" y2="84.38"/>
	</g>
	<g id="Hervorhebung">
		<line style="&st0;" x1="189.94" y1="88.94" x2="189.94" y2="217.38"/>
		<line style="&st0;" x1="189.94" y1="207.13" x2="196.56" y2="207.13"/>
	</g>
	<g id="Text" style="&st7;">
		<g style="&st4;">
			<text transform="matrix(1 0 0 1 91.7729 109.5474)"><tspan x="0" y="0" style="&st1; &st5;">ga</tspan><tspan x="13.53" y="0" style="&st1; &st5;">k</tspan><tspan x="19.68" y="0" style="&st1; &st5;">uzu</tspan><tspan x="39.57" y="0" style="&st1; &st5;">k</tspan><tspan x="45.9" y="0" style="&st1; &st5;">a</tspan><tspan x="9.39" y="15.6" style="&st1; &st5;">(</tspan><tspan x="13.08" y="16.6" style="&st8; &st5;">&#x984D;&#x675F;</tspan><tspan x="39.08" y="15.6" style="&st1; &st5;">)</tspan></text>
			<text transform="matrix(1 0 0 1 164.0928 180.3809)"><tspan x="0" y="0" style="&st1; &st5;">ko</tspan><tspan x="13.23" y="0" style="&st1; &st5;">r</tspan><tspan x="17.36" y="0" style="&st1; &st5;">obi</tspan><tspan x="2.22" y="15.6" style="&st1; &st5;">(</tspan><tspan x="5.91" y="16.6" style="&st8; &st5;">&#x8EE2;</tspan><tspan x="18.38" y="16.6" style="&st8; &st5;">&#x3073;</tspan><tspan x="31.24" y="15.6" style="&st1; &st5;">)</tspan></text>
			<text transform="matrix(1 0 0 1 141.0635 153.3057)"><tspan x="0" y="0" style="&st1; &st5;">nu</tspan><tspan x="14.38" y="0" style="&st1; &st5;">k</tspan><tspan x="20.7" y="0" style="&st1; &st5;">i (</tspan><tspan x="30.19" y="1" style="&st8; &st5;">&#x8CAB;</tspan><tspan x="43.19" y="0" style="&st1; &st5;">)</tspan></text>
			<text transform="matrix(1 0 0 1 288.5234 10.8809)"><tspan x="0" y="0" style="&st1; &st5;">k</tspan><tspan x="6.33" y="0" style="&st1; &st5;">asa</tspan><tspan x="24.01" y="0" style="&st1; &st5;">g</tspan><tspan x="31.2" y="0" style="&st1; &st5;">i</tspan><tspan x="0" y="15.6" style="&st1; &st5;">(</tspan><tspan x="3.69" y="16.6" style="&st8; &st5;">&#x7B20;&#x6728;</tspan><tspan x="29.69" y="15.6" style="&st1; &st5;">)</tspan></text>
			<text transform="matrix(1 0 0 1 288.0234 49.5811)"><tspan x="0" y="0" style="&st1; &st5;">shima</tspan><tspan x="32.51" y="0" style="&st1; &st5;">g</tspan><tspan x="39.7" y="0" style="&st1; &st5;">i</tspan><tspan x="0" y="15.6" style="&st1; &st5;">(</tspan><tspan x="3.69" y="16.6" style="&st8; &st5;">&#x5CF6;&#x6728;</tspan><tspan x="29.69" y="15.6" style="&st1; &st5;">)</tspan></text>
			<text transform="matrix(1 0 0 1 288.0234 126.9805)"><tspan x="0" y="0" style="&st1; &st5;">k</tspan><tspan x="6.15" y="0" style="&st1; &st5;">usabi </tspan><tspan x="0" y="15.6" style="&st1; &st5;">(</tspan><tspan x="3.69" y="16.6" style="&st8; &st5;">&#x6954;</tspan><tspan x="16.69" y="15.6" style="&st1; &st5;">)</tspan></text>
			<text transform="matrix(1 0 0 1 288.0234 88.2808)"><tspan x="0" y="0" style="&st1; &st5;">dai</tspan><tspan x="16.64" y="0" style="&st1; &st5;">w</tspan><tspan x="26.16" y="0" style="&st1; &st5;">a</tspan><tspan x="0" y="15.6" style="&st1; &st5;">(</tspan><tspan x="3.69" y="16.6" style="&st8; &st5;">&#x53F0;&#x8F2A;</tspan><tspan x="29.69" y="15.6" style="&st1; &st5;">)</tspan></text>
			<text transform="matrix(1 0 0 1 288.0234 165.6807)"><tspan x="0" y="0" style="&st1; &st5;">hashi</tspan><tspan x="28.89" y="0" style="&st1; &st5;">r</tspan><tspan x="33.07" y="0" style="&st1; &st5;">a</tspan><tspan x="0" y="15.6" style="&st1; &st5;">(</tspan><tspan x="3.69" y="16.6" style="&st8; &st5;">&#x67F1;</tspan><tspan x="16.69" y="15.6" style="&st1; &st5;">)</tspan></text>
			<text transform="matrix(1 0 0 1 288.0234 204.3809)"><tspan x="0" y="0" style="&st1; &st5;">k</tspan><tspan x="6.33" y="0" style="&st1; &st5;">ameba</tspan><tspan x="43.61" y="0" style="&st1; &st5;">r</tspan><tspan x="47.8" y="0" style="&st1; &st5;">a</tspan><tspan x="0" y="15.6" style="&st1; &st5;">(</tspan><tspan x="3.69" y="16.6" style="&st8; &st5;">&#x4E80;&#x8179;</tspan><tspan x="29.69" y="15.6" style="&st1; &st5;">)</tspan></text>
		</g>
	</g>
	<g id="Text_Outlines">
		<g>
			<g>
				<path d="M85.08,116.12c0,1.46-0.3,2.33-0.9,2.89c-0.62,0.56-1.51,0.75-2.3,0.75c-0.75,0-1.59-0.18-2.09-0.52l0.29-0.88
					c0.42,0.27,1.07,0.51,1.85,0.51c1.17,0,2.03-0.61,2.03-2.21v-0.69h-0.03c-0.34,0.58-1.03,1.05-2,1.05
					c-1.56,0-2.68-1.33-2.68-3.08c0-2.13,1.39-3.33,2.85-3.33c1.09,0,1.68,0.56,1.96,1.09h0.03l0.04-0.95h1.01
					c-0.04,0.44-0.05,0.96-0.05,1.72V116.12z M83.94,113.23c0-0.18-0.01-0.35-0.06-0.51c-0.21-0.68-0.75-1.22-1.6-1.22
					c-1.09,0-1.87,0.92-1.87,2.39c0,1.22,0.64,2.26,1.86,2.26c0.72,0,1.35-0.44,1.59-1.18c0.06-0.18,0.09-0.4,0.09-0.61V113.23z"/>
				<path d="M91.4,115.54c0,0.55,0.03,1.08,0.09,1.51h-1.03l-0.1-0.79h-0.04c-0.34,0.49-1.03,0.94-1.92,0.94
					c-1.27,0-1.92-0.9-1.92-1.81c0-1.52,1.35-2.35,3.78-2.34v-0.13c0-0.52-0.14-1.47-1.43-1.46c-0.6,0-1.21,0.17-1.65,0.47
					l-0.26-0.77c0.52-0.32,1.29-0.55,2.08-0.55c1.94,0,2.41,1.31,2.41,2.57V115.54z M90.28,113.84c-1.25-0.03-2.67,0.19-2.67,1.42
					c0,0.75,0.49,1.09,1.07,1.09c0.83,0,1.37-0.52,1.55-1.05c0.04-0.12,0.05-0.25,0.05-0.36V113.84z"/>
				<path d="M94.38,113.64h0.03c0.16-0.22,0.36-0.49,0.55-0.72l1.86-2.17h1.37l-2.43,2.59l2.77,3.71h-1.39l-2.16-3.02l-0.58,0.65
					v2.37h-1.14v-9.23h1.14V113.64z"/>
				<path d="M104.65,115.32c0,0.66,0.01,1.23,0.05,1.73h-1.01l-0.06-1.03h-0.03c-0.29,0.51-0.96,1.17-2.08,1.17
					c-0.99,0-2.17-0.56-2.17-2.76v-3.68h1.14v3.47c0,1.2,0.38,2.01,1.4,2.01c0.77,0,1.3-0.53,1.51-1.05c0.06-0.16,0.1-0.36,0.1-0.58
					v-3.85h1.14V115.32z"/>
				<path d="M105.83,116.38l2.85-3.71c0.29-0.35,0.53-0.65,0.83-0.99v-0.03h-3.42v-0.91h4.8v0.71l-2.82,3.67
					c-0.26,0.34-0.52,0.66-0.81,0.98v0.03h3.68v0.91h-5.11V116.38z"/>
				<path d="M117.37,115.32c0,0.66,0.01,1.23,0.05,1.73h-1.01l-0.07-1.03h-0.03c-0.29,0.51-0.96,1.17-2.08,1.17
					c-0.99,0-2.17-0.56-2.17-2.76v-3.68h1.14v3.47c0,1.2,0.38,2.01,1.4,2.01c0.77,0,1.3-0.53,1.51-1.05c0.06-0.16,0.1-0.36,0.1-0.58
					v-3.85h1.14V115.32z"/>
				<path d="M120.41,113.64h0.03c0.16-0.22,0.36-0.49,0.55-0.72l1.86-2.17h1.37l-2.43,2.59l2.77,3.71h-1.39l-2.16-3.02l-0.58,0.65
					v2.37h-1.14v-9.23h1.14V113.64z"/>
				<path d="M130.03,115.54c0,0.55,0.03,1.08,0.09,1.51h-1.03l-0.1-0.79h-0.04c-0.34,0.49-1.03,0.94-1.92,0.94
					c-1.27,0-1.92-0.9-1.92-1.81c0-1.52,1.35-2.35,3.78-2.34v-0.13c0-0.52-0.14-1.47-1.43-1.46c-0.6,0-1.21,0.17-1.65,0.47
					l-0.26-0.77c0.52-0.32,1.29-0.55,2.08-0.55c1.94,0,2.4,1.31,2.4,2.57V115.54z M128.92,113.84c-1.25-0.03-2.67,0.19-2.67,1.42
					c0,0.75,0.49,1.09,1.07,1.09c0.83,0,1.36-0.52,1.55-1.05c0.04-0.12,0.05-0.25,0.05-0.36V113.84z"/>
				<path d="M91.56,123.62c-0.95,1.29-1.62,2.96-1.62,5.33c0,2.31,0.71,3.96,1.62,5.27h-0.88c-0.82-1.08-1.7-2.74-1.7-5.28
					c0.01-2.55,0.88-4.23,1.7-5.32H91.56z"/>
				<path d="M97.11,126.26l0.12-0.05l0.61,0.61c-0.25,0.4-0.69,1.05-1.38,1.82c0.79,0.52,1.56,1.09,2.17,1.59l-0.55,0.71
					c-0.7-0.64-1.12-0.97-2.25-1.77c-0.53,0.47-1.14,0.94-1.9,1.36h3.54v3.81h-0.82v-0.73h-2.21v0.78h-0.83v-3.63l-0.71,0.35
					c-0.13-0.26-0.36-0.52-0.58-0.78c0.69-0.26,1.55-0.62,2.81-1.62c-0.4-0.31-0.81-0.55-1.26-0.79c-0.21,0.2-0.49,0.47-0.84,0.7
					c-0.14-0.26-0.33-0.49-0.56-0.73c0.71-0.48,1.04-0.83,1.35-1.21c0.32-0.42,0.62-0.84,0.98-1.57l0.9,0.22
					c-0.16,0.27-0.36,0.62-0.55,0.92H97.11z M96.11,122.84V124h2.24v1.92h-0.88v-1.17h-3.77v1.17h-0.88V124h2.4v-1.16H96.11z
					 M94.72,126.95l-0.39,0.42c0.46,0.23,0.99,0.52,1.42,0.81c0.4-0.39,0.77-0.86,1-1.22H94.72z M94.45,131.29v1.57h2.21v-1.57
					H94.45z M100.75,132.93c-0.96,0.79-1.59,1.17-2.37,1.57c-0.1-0.23-0.3-0.52-0.53-0.75c0.83-0.36,1.69-0.92,2.27-1.43
					L100.75,132.93z M104.05,123.39v0.82h-2.24c-0.09,0.49-0.19,1.01-0.3,1.52h2.03V132h-4.3v-6.27h1.42
					c0.12-0.51,0.18-1.03,0.26-1.52h-2.34v-0.82H104.05z M100.13,126.52v1.01h2.52v-1.01H100.13z M100.13,128.34v0.96h2.52v-0.96
					H100.13z M100.13,130.11v1.08h2.52v-1.08H100.13z M102.44,132.31c0.58,0.56,1.21,1.04,1.91,1.47c-0.23,0.21-0.46,0.46-0.65,0.69
					c-0.69-0.47-1.12-0.79-1.9-1.51L102.44,132.31z"/>
				<path d="M111.72,122.83v1.35h5.15v0.77h-5.15v1.2h3.91v3.39h-3.3c1.04,1.43,2.85,2.67,4.81,3.35c-0.22,0.23-0.43,0.57-0.55,0.81
					c-1.83-0.78-3.56-1.95-4.88-3.58v4.34h-0.86v-4.2c-1.5,1.7-3.17,2.79-4.47,3.47c-0.12-0.22-0.35-0.55-0.62-0.77
					c1.39-0.56,2.76-1.61,3.41-2.17c0.3-0.29,0.66-0.61,1.2-1.26h-3.29v-3.39h3.78v-1.2h-5.11v-0.77h5.11v-1.35H111.72z
					 M107.93,126.9v1.88h2.94v-1.88H107.93z M111.72,126.9v1.88h3.05v-1.88H111.72z"/>
				<path d="M118.09,134.22c0.91-1.29,1.62-2.96,1.62-5.3s-0.7-3.99-1.62-5.29h0.88c0.82,1.07,1.7,2.74,1.7,5.29
					c-0.01,2.55-0.88,4.2-1.7,5.3H118.09z"/>
			</g>
			<g>
				<path d="M153.16,184.47h0.03c0.16-0.22,0.36-0.49,0.55-0.71l1.86-2.17h1.36l-2.43,2.59l2.77,3.71h-1.39l-2.16-3.02l-0.58,0.65
					v2.37h-1.14v-9.23h1.14V184.47z"/>
				<path d="M160.68,188.02c-1.69,0-3.02-1.25-3.02-3.24c0-2.11,1.39-3.34,3.12-3.34c1.81,0,3.03,1.31,3.03,3.22
					c0,2.34-1.62,3.35-3.12,3.35H160.68z M160.73,187.17c1.09,0,1.91-1.03,1.91-2.46c0-1.07-0.53-2.41-1.89-2.41
					c-1.34,0-1.92,1.25-1.92,2.44c0,1.38,0.78,2.42,1.89,2.42H160.73z"/>
				<path d="M165.25,183.55c0-0.74-0.01-1.38-0.05-1.96h1l0.05,1.24h0.04c0.29-0.85,0.99-1.38,1.75-1.38c0.12,0,0.21,0.01,0.31,0.03
					v1.08c-0.12-0.01-0.23-0.03-0.39-0.03c-0.81,0-1.38,0.61-1.53,1.46c-0.03,0.17-0.04,0.35-0.04,0.53v3.37h-1.14V183.55z"/>
				<path d="M171.93,188.02c-1.69,0-3.02-1.25-3.02-3.24c0-2.11,1.39-3.34,3.12-3.34c1.81,0,3.03,1.31,3.03,3.22
					c0,2.34-1.62,3.35-3.12,3.35H171.93z M171.99,187.17c1.09,0,1.91-1.03,1.91-2.46c0-1.07-0.53-2.41-1.88-2.41
					c-1.34,0-1.92,1.25-1.92,2.44c0,1.38,0.78,2.42,1.89,2.42H171.99z"/>
				<path d="M176.51,178.65h1.14v3.94h0.03c0.4-0.7,1.13-1.14,2.14-1.14c1.56,0,2.65,1.3,2.65,3.2c0,2.26-1.43,3.38-2.83,3.38
					c-0.91,0-1.62-0.35-2.11-1.18h-0.03l-0.07,1.04h-0.99c0.04-0.43,0.05-1.07,0.05-1.62V178.65z M177.65,185.36
					c0,0.14,0.01,0.29,0.04,0.42c0.22,0.79,0.9,1.34,1.72,1.34c1.21,0,1.91-0.98,1.91-2.42c0-1.27-0.65-2.35-1.87-2.35
					c-0.78,0-1.51,0.55-1.73,1.4c-0.04,0.14-0.07,0.3-0.07,0.48V185.36z"/>
				<path d="M184.45,180.52c-0.42,0-0.69-0.32-0.69-0.7c0-0.4,0.29-0.72,0.72-0.72c0.42,0,0.7,0.31,0.7,0.72
					c0,0.38-0.27,0.7-0.71,0.7H184.45z M183.91,187.88v-6.29h1.14v6.29H183.91z"/>
				<path d="M156.04,194.46c-0.95,1.29-1.62,2.96-1.62,5.33c0,2.31,0.71,3.96,1.62,5.26h-0.88c-0.82-1.08-1.7-2.74-1.7-5.28
					c0.01-2.55,0.88-4.22,1.7-5.32H156.04z"/>
				<path d="M159.96,193.85v1.18h1.99v0.81h-1.99v1.05h1.75v4.51h-1.75v0.95h2.08v0.81h-2.08v2.14h-0.84v-2.14h-1.96v-0.81h1.96
					v-0.95h-1.75v-4.51h1.75v-1.05h-2.05v-0.81h2.05v-1.18H159.96z M158.22,197.7v1.01h0.9v-1.01H158.22z M158.22,199.46v1.13h0.9
					v-1.13H158.22z M159.96,197.7v1.01h0.92v-1.01H159.96z M159.96,199.46v1.13h0.92v-1.13H159.96z M168.32,198.2v0.82h-3.26
					c-0.26,0.9-0.65,2.35-0.94,3.29c-0.13,0.4-0.26,0.86-0.52,1.69c1.3-0.13,2.77-0.39,3.42-0.51c-0.18-0.49-0.79-1.9-1.08-2.43
					l0.81-0.34c0.66,1.38,1,2.21,1.73,4.09l-0.83,0.34c-0.12-0.33-0.22-0.66-0.34-0.92c-2.5,0.47-4.9,0.82-5.38,0.87l-0.29-0.94
					l1.07-0.09c0.62-1.9,1.2-4.23,1.38-5.06h-1.91v-0.82H168.32z M167.93,194.54v0.82h-5.5v-0.82H167.93z"/>
				<path d="M180.93,201.95c-1.09-1.57-1.64-2.87-2.21-4.36c0,0.31,0.01,0.6,0.01,0.83c0,0.84-0.07,3.26-0.95,4.67
					c-0.82,1.3-2.24,1.78-3.54,1.78c-1.55,0-3.42-0.99-3.42-3.26c0-1.2,0.56-2.57,1.46-3.93c0.27-0.4,0.6-0.86,1.56-1.9
					c-0.7,0.22-1.07,0.31-3.26,0.74l-0.18-0.96c2.12-0.03,3.98-0.64,4.26-0.74l0.56,0.79c-0.38,0.17-0.62,0.46-0.84,0.68
					c-0.84,0.97-2.65,3.04-2.65,5.24c0,1.78,1.3,2.44,2.64,2.44c2.86,0,3.61-2.69,3.61-5.69c0-1.59-0.14-2.41-0.31-3.09l1.04-0.17
					c0.49,1.96,1.34,4.16,3.04,6.2L180.93,201.95z M179.72,194.26c0.39,0.39,0.86,0.94,1.14,1.29l-0.57,0.46
					c-0.29-0.38-0.79-0.99-1.07-1.33L179.72,194.26z M181.4,195.11c-0.26-0.34-0.73-0.91-1.05-1.26l0.51-0.47
					c0.31,0.3,0.83,0.9,1.12,1.25L181.4,195.11z"/>
				<path d="M182.57,205.05c0.91-1.29,1.62-2.96,1.62-5.3s-0.7-3.99-1.62-5.29h0.88c0.82,1.07,1.7,2.74,1.7,5.29
					c-0.01,2.55-0.88,4.2-1.7,5.3H182.57z"/>
			</g>
			<g>
				<path d="M128.99,156.22c0-0.66-0.01-1.18-0.05-1.7h1.01l0.06,1.03h0.03c0.31-0.58,1.04-1.17,2.08-1.17
					c0.87,0,2.22,0.52,2.22,2.68v3.76h-1.14v-3.63c0-1.01-0.38-1.87-1.46-1.87c-0.74,0-1.33,0.53-1.53,1.17
					c-0.05,0.14-0.08,0.35-0.08,0.53v3.8h-1.14V156.22z"/>
				<path d="M141.47,159.08c0,0.66,0.01,1.24,0.05,1.73h-1.01l-0.06-1.03h-0.03c-0.29,0.51-0.96,1.17-2.08,1.17
					c-0.99,0-2.17-0.56-2.17-2.76v-3.68h1.14v3.47c0,1.2,0.38,2.02,1.4,2.02c0.77,0,1.3-0.53,1.51-1.05c0.06-0.16,0.1-0.36,0.1-0.58
					v-3.85h1.14V159.08z"/>
				<path d="M144.51,157.4h0.03c0.16-0.22,0.36-0.49,0.55-0.71l1.86-2.17h1.37l-2.43,2.59l2.77,3.71h-1.39l-2.16-3.02l-0.58,0.65
					v2.37h-1.14v-9.23h1.14V157.4z"/>
				<path d="M150.23,153.45c-0.42,0-0.69-0.32-0.69-0.7c0-0.4,0.29-0.72,0.71-0.72c0.42,0,0.7,0.31,0.7,0.72
					c0,0.38-0.27,0.7-0.71,0.7H150.23z M149.69,160.81v-6.29h1.14v6.29H149.69z"/>
				<path d="M157.95,151.78c-0.95,1.29-1.62,2.96-1.62,5.33c0,2.31,0.71,3.97,1.62,5.27h-0.88c-0.82-1.08-1.7-2.74-1.7-5.28
					c0.01-2.55,0.88-4.22,1.7-5.32H157.95z"/>
				<path d="M168.67,151.52l-0.21,1.52h2v0.69h-2.08l-0.21,1.55h-7.28l0.2-1.55h-2.11v-0.69h2.16l0.22-1.52H168.67z M163.44,161.52
					c-1.31,0.58-2.05,0.9-3.91,1.25c-0.06-0.26-0.18-0.55-0.38-0.79c1.12-0.14,2.46-0.38,3.61-1.08L163.44,161.52z M166.73,160.86
					h-5.85v-4.99h7.79v4.99h-1.74c1.12,0.56,2.25,0.91,3.5,1.07c-0.23,0.26-0.36,0.56-0.44,0.86c-1.95-0.44-2.78-0.86-3.68-1.34
					L166.73,160.86z M161.75,156.54v0.77h6.04v-0.77H161.75z M161.75,157.96v0.75h6.04v-0.75H161.75z M161.75,159.36v0.79h6.04
					v-0.79H161.75z M161.94,153.73l-0.1,0.85h2.22l0.1-0.85H161.94z M162.13,152.22l-0.13,0.82h2.25l0.12-0.82H162.13z
					 M164.96,153.73l-0.1,0.85h2.56l0.12-0.85H164.96z M165.18,152.22l-0.12,0.82h2.55l0.09-0.82H165.18z"/>
				<path d="M171.49,162.38c0.91-1.29,1.62-2.96,1.62-5.3c0-2.34-0.7-3.99-1.62-5.29h0.88c0.82,1.07,1.7,2.74,1.7,5.29
					c-0.01,2.55-0.88,4.2-1.7,5.3H171.49z"/>
			</g>
			<g>
				<path d="M277.59,14.97h0.03c0.16-0.22,0.36-0.49,0.55-0.71l1.86-2.17h1.36l-2.43,2.59l2.77,3.71h-1.39l-2.16-3.02l-0.58,0.65
					v2.37h-1.14V9.15h1.14V14.97z"/>
				<path d="M287.21,16.87c0,0.55,0.03,1.08,0.09,1.51h-1.03l-0.1-0.79h-0.04c-0.34,0.49-1.03,0.94-1.92,0.94
					c-1.27,0-1.92-0.9-1.92-1.81c0-1.52,1.35-2.35,3.78-2.34v-0.13c0-0.52-0.14-1.47-1.43-1.46c-0.6,0-1.21,0.17-1.65,0.47
					l-0.26-0.77c0.52-0.32,1.29-0.55,2.08-0.55c1.94,0,2.41,1.31,2.41,2.57V16.87z M286.09,15.17c-1.25-0.03-2.67,0.19-2.67,1.42
					c0,0.75,0.49,1.09,1.07,1.09c0.83,0,1.36-0.52,1.55-1.05c0.04-0.12,0.05-0.25,0.05-0.36V15.17z"/>
				<path d="M288.89,17.21c0.35,0.21,0.95,0.44,1.52,0.44c0.82,0,1.21-0.4,1.21-0.94c0-0.55-0.33-0.83-1.16-1.14
					c-1.14-0.42-1.68-1.04-1.68-1.78c0-1.01,0.83-1.85,2.17-1.85c0.64,0,1.2,0.17,1.53,0.39l-0.27,0.82
					c-0.25-0.14-0.7-0.36-1.29-0.36c-0.68,0-1.04,0.39-1.04,0.86c0,0.52,0.36,0.75,1.18,1.08c1.08,0.4,1.65,0.95,1.65,1.88
					c0,1.12-0.87,1.9-2.34,1.9c-0.69,0-1.33-0.18-1.77-0.44L288.89,17.21z"/>
				<path d="M298.63,16.87c0,0.55,0.03,1.08,0.09,1.51h-1.03l-0.1-0.79h-0.04c-0.34,0.49-1.03,0.94-1.92,0.94
					c-1.27,0-1.92-0.9-1.92-1.81c0-1.52,1.35-2.35,3.78-2.34v-0.13c0-0.52-0.14-1.47-1.43-1.46c-0.6,0-1.21,0.17-1.65,0.47
					l-0.26-0.77c0.52-0.32,1.29-0.55,2.08-0.55c1.94,0,2.41,1.31,2.41,2.57V16.87z M297.51,15.17c-1.25-0.03-2.67,0.19-2.67,1.42
					c0,0.75,0.49,1.09,1.07,1.09c0.83,0,1.36-0.52,1.55-1.05c0.04-0.12,0.05-0.25,0.05-0.36V15.17z"/>
				<path d="M305.84,17.46c0,1.46-0.3,2.33-0.9,2.89c-0.62,0.56-1.51,0.75-2.3,0.75c-0.75,0-1.59-0.18-2.09-0.52l0.29-0.88
					c0.42,0.27,1.07,0.51,1.85,0.51c1.17,0,2.03-0.61,2.03-2.21V17.3h-0.03c-0.34,0.58-1.03,1.05-2,1.05
					c-1.56,0-2.68-1.33-2.68-3.08c0-2.13,1.39-3.33,2.85-3.33c1.09,0,1.68,0.56,1.96,1.09h0.03l0.04-0.95h1.01
					c-0.04,0.44-0.05,0.96-0.05,1.72V17.46z M304.7,14.56c0-0.18-0.01-0.35-0.06-0.51c-0.21-0.68-0.75-1.22-1.6-1.22
					c-1.09,0-1.87,0.92-1.87,2.39c0,1.22,0.64,2.26,1.86,2.26c0.71,0,1.35-0.44,1.59-1.18c0.07-0.18,0.09-0.4,0.09-0.61V14.56z"/>
				<path d="M308.19,11.02c-0.42,0-0.69-0.33-0.69-0.7c0-0.4,0.29-0.71,0.71-0.71c0.42,0,0.7,0.31,0.7,0.71
					c0,0.38-0.27,0.7-0.72,0.7H308.19z M307.65,18.38v-6.29h1.14v6.29H307.65z"/>
				<path d="M278.92,24.96c-0.95,1.29-1.62,2.96-1.62,5.33c0,2.31,0.71,3.96,1.62,5.26h-0.88c-0.82-1.08-1.7-2.74-1.7-5.28
					c0.01-2.55,0.88-4.23,1.7-5.32H278.92z"/>
				<path d="M285.28,25.49v0.82h-1.69c0.21,0.38,0.4,0.81,0.56,1.17l-0.82,0.27c-0.18-0.49-0.4-1-0.64-1.44h-0.88
					c-0.36,0.53-0.88,1.13-1.44,1.69c-0.17-0.29-0.36-0.49-0.65-0.7c0.83-0.79,1.43-1.47,2.26-3.09l0.85,0.39
					c-0.16,0.33-0.36,0.62-0.53,0.9H285.28z M288.86,30.46c-0.01,0.03-1.08,3.82-1.14,4.04h3.64v0.82h-11.27V34.5h3.12
					c-0.39-1.56-0.79-2.61-1.27-3.69l0.87-0.23c0.35,0.85,0.73,1.81,1.31,3.93h2.72c0.26-1.04,0.42-1.57,0.56-2.12
					c0.14-0.6,0.29-1.2,0.51-2.21L288.86,30.46z M286.13,27.75v1.47h4.43v0.82h-9.41v-0.82h4.07v-1.47H286.13z M291.23,25.49v0.82
					h-2.47c0.25,0.4,0.47,0.82,0.69,1.27l-0.87,0.31c-0.22-0.58-0.49-1.14-0.78-1.59h-1.13c-0.27,0.43-0.62,0.99-0.97,1.42
					c-0.22-0.21-0.46-0.4-0.74-0.59c0.55-0.62,1.08-1.27,1.7-2.94l0.87,0.3c-0.14,0.32-0.29,0.68-0.47,0.99H291.23z"/>
				<path d="M299.04,24.14v2.76h4.89v0.82h-4.26c0.31,1.01,1.04,2.04,1.5,2.61c0.86,1.09,1.7,1.85,3.33,3
					c-0.27,0.21-0.51,0.55-0.68,0.81c-2.56-1.98-3.63-3.29-4.77-5.64v7.38h-0.88v-7.32c-1.2,2.16-2.86,4.15-4.69,5.55
					c-0.16-0.23-0.36-0.57-0.62-0.78c2.91-2.09,4.21-4.58,4.76-5.62h-4.34V26.9h4.9v-2.76H299.04z"/>
				<path d="M305.45,35.55c0.91-1.29,1.62-2.96,1.62-5.3c0-2.34-0.7-3.99-1.62-5.29h0.88c0.82,1.07,1.7,2.74,1.7,5.29
					c-0.01,2.55-0.88,4.2-1.7,5.3H305.45z"/>
			</g>
			<g>
				<path d="M275.79,55.91c0.35,0.21,0.95,0.44,1.52,0.44c0.82,0,1.21-0.4,1.21-0.94c0-0.55-0.33-0.83-1.16-1.14
					c-1.14-0.42-1.68-1.04-1.68-1.78c0-1.01,0.83-1.85,2.17-1.85c0.64,0,1.2,0.17,1.53,0.39l-0.27,0.82
					c-0.25-0.14-0.7-0.36-1.29-0.36c-0.68,0-1.04,0.39-1.04,0.86c0,0.52,0.36,0.75,1.18,1.08c1.08,0.4,1.65,0.95,1.65,1.88
					c0,1.12-0.87,1.9-2.34,1.9c-0.69,0-1.33-0.18-1.77-0.44L275.79,55.91z"/>
				<path d="M281.1,47.85h1.14v3.93h0.03c0.18-0.32,0.47-0.62,0.82-0.81c0.34-0.21,0.74-0.33,1.17-0.33c0.84,0,2.2,0.52,2.2,2.69
					v3.74h-1.14v-3.63c0-1.01-0.38-1.86-1.46-1.86c-0.74,0-1.31,0.52-1.53,1.14c-0.07,0.16-0.08,0.32-0.08,0.55v3.8h-1.14V47.85z"/>
				<path d="M288.86,49.72c-0.42,0-0.69-0.33-0.69-0.7c0-0.4,0.29-0.71,0.71-0.71c0.42,0,0.7,0.31,0.7,0.71
					c0,0.38-0.27,0.7-0.71,0.7H288.86z M288.31,57.08v-6.29h1.14v6.29H288.31z"/>
				<path d="M291.35,52.49c0-0.66-0.03-1.18-0.05-1.7h1l0.05,1.01h0.04c0.35-0.6,0.94-1.16,1.99-1.16c0.84,0,1.5,0.52,1.77,1.26
					h0.03c0.2-0.36,0.46-0.62,0.71-0.82c0.38-0.29,0.78-0.44,1.38-0.44c0.85,0,2.08,0.55,2.08,2.73v3.71h-1.12v-3.56
					c0-1.22-0.46-1.94-1.36-1.94c-0.66,0-1.16,0.48-1.37,1.03c-0.05,0.17-0.09,0.38-0.09,0.57v3.9h-1.12V53.3
					c0-1-0.44-1.72-1.31-1.72c-0.7,0-1.23,0.57-1.42,1.14c-0.06,0.17-0.09,0.36-0.09,0.56v3.8h-1.12V52.49z"/>
				<path d="M306.63,55.57c0,0.55,0.03,1.08,0.09,1.51h-1.03l-0.1-0.79h-0.04c-0.34,0.49-1.03,0.94-1.92,0.94
					c-1.27,0-1.92-0.9-1.92-1.81c0-1.52,1.35-2.35,3.78-2.34v-0.13c0-0.52-0.14-1.47-1.43-1.46c-0.6,0-1.21,0.17-1.65,0.47
					l-0.26-0.77c0.52-0.32,1.29-0.55,2.08-0.55c1.94,0,2.41,1.31,2.41,2.57V55.57z M305.51,53.87c-1.25-0.03-2.67,0.19-2.67,1.42
					c0,0.75,0.49,1.09,1.07,1.09c0.83,0,1.36-0.52,1.55-1.05c0.04-0.12,0.05-0.25,0.05-0.36V53.87z"/>
				<path d="M313.84,56.16c0,1.46-0.3,2.33-0.9,2.89c-0.62,0.56-1.51,0.75-2.3,0.75c-0.75,0-1.59-0.18-2.09-0.52l0.29-0.88
					c0.42,0.27,1.07,0.51,1.85,0.51c1.17,0,2.03-0.61,2.03-2.21V56h-0.03c-0.34,0.58-1.03,1.05-2,1.05c-1.56,0-2.68-1.33-2.68-3.08
					c0-2.13,1.39-3.33,2.85-3.33c1.09,0,1.68,0.56,1.96,1.09h0.03l0.04-0.95h1.01c-0.04,0.44-0.05,0.96-0.05,1.72V56.16z
					 M312.7,53.26c0-0.18-0.01-0.35-0.06-0.51c-0.21-0.68-0.75-1.22-1.6-1.22c-1.09,0-1.87,0.92-1.87,2.39
					c0,1.22,0.64,2.26,1.86,2.26c0.71,0,1.35-0.44,1.59-1.18c0.07-0.18,0.09-0.4,0.09-0.61V53.26z"/>
				<path d="M316.2,49.72c-0.42,0-0.69-0.33-0.69-0.7c0-0.4,0.29-0.71,0.71-0.71c0.42,0,0.7,0.31,0.7,0.71c0,0.38-0.27,0.7-0.71,0.7
					H316.2z M315.65,57.08v-6.29h1.14v6.29H315.65z"/>
				<path d="M278.42,63.66c-0.95,1.29-1.62,2.96-1.62,5.33c0,2.31,0.71,3.96,1.62,5.26h-0.88c-0.82-1.08-1.7-2.74-1.7-5.28
					c0.01-2.55,0.88-4.23,1.7-5.32H278.42z"/>
				<path d="M288.74,63.94v3.81h-6.7v0.75h8.71v0.77h-8.71v0.91h8.1c-0.08,2.34-0.12,3.31-0.23,3.63c-0.13,0.55-1.13,0.65-1.81,0.69
					c-0.05-0.31-0.17-0.68-0.4-0.96h0.92c0.3,0,0.46,0,0.48-0.19c0.04-0.22,0.09-0.88,0.12-2.38h-5.21v1.76h2.39v-1.31h0.88v2.48
					h-0.88v-0.4h-5.63v0.75h-0.87v-2.83h0.87v1.31h2.35v-1.76h-1.98v-7.02h2.87c0.14-0.31,0.3-0.75,0.46-1.23l0.94,0.23
					c-0.18,0.35-0.35,0.74-0.51,1H288.74z M282.05,64.72v0.75h5.81v-0.75H282.05z M282.05,66.18V67h5.81v-0.82H282.05z"/>
				<path d="M298.54,62.84v2.76h4.89v0.82h-4.26c0.31,1.01,1.04,2.04,1.5,2.61c0.86,1.09,1.7,1.85,3.33,3
					c-0.27,0.21-0.51,0.55-0.68,0.81c-2.56-1.98-3.63-3.29-4.77-5.64v7.38h-0.88v-7.32c-1.2,2.16-2.86,4.15-4.69,5.55
					c-0.16-0.23-0.36-0.57-0.62-0.78c2.91-2.09,4.21-4.58,4.76-5.62h-4.34V65.6h4.9v-2.76H298.54z"/>
				<path d="M304.95,74.25c0.91-1.29,1.62-2.96,1.62-5.3c0-2.34-0.7-3.99-1.62-5.29h0.88c0.82,1.07,1.7,2.74,1.7,5.29
					c-0.01,2.55-0.88,4.2-1.7,5.3H304.95z"/>
			</g>
			<g>
				<path d="M277.09,131.07h0.03c0.16-0.22,0.36-0.49,0.55-0.71l1.86-2.17h1.36l-2.43,2.59l2.77,3.71h-1.39l-2.16-3.02l-0.58,0.65
					v2.37h-1.14v-9.23h1.14V131.07z"/>
				<path d="M287.36,132.75c0,0.66,0.01,1.23,0.05,1.73h-1.01l-0.07-1.03h-0.03c-0.29,0.51-0.96,1.17-2.08,1.17
					c-0.99,0-2.17-0.56-2.17-2.76v-3.68h1.14v3.47c0,1.2,0.38,2.02,1.4,2.02c0.77,0,1.3-0.53,1.51-1.05c0.06-0.16,0.1-0.36,0.1-0.58
					v-3.85h1.14V132.75z"/>
				<path d="M289.1,133.31c0.35,0.21,0.95,0.44,1.52,0.44c0.82,0,1.21-0.4,1.21-0.94c0-0.55-0.33-0.83-1.16-1.14
					c-1.14-0.42-1.68-1.04-1.68-1.78c0-1.01,0.83-1.85,2.17-1.85c0.64,0,1.2,0.17,1.53,0.39l-0.27,0.82
					c-0.25-0.14-0.7-0.36-1.29-0.36c-0.68,0-1.04,0.39-1.04,0.86c0,0.52,0.36,0.75,1.18,1.08c1.08,0.4,1.65,0.95,1.65,1.89
					c0,1.12-0.87,1.9-2.34,1.9c-0.69,0-1.33-0.18-1.77-0.44L289.1,133.31z"/>
				<path d="M298.84,132.97c0,0.55,0.03,1.08,0.09,1.51h-1.03l-0.1-0.79h-0.04c-0.34,0.49-1.03,0.94-1.92,0.94
					c-1.27,0-1.92-0.9-1.92-1.81c0-1.52,1.35-2.35,3.78-2.34v-0.13c0-0.52-0.14-1.47-1.43-1.46c-0.6,0-1.21,0.17-1.65,0.47
					l-0.26-0.77c0.52-0.33,1.29-0.55,2.08-0.55c1.94,0,2.41,1.31,2.41,2.57V132.97z M297.72,131.27c-1.25-0.03-2.67,0.2-2.67,1.42
					c0,0.75,0.49,1.09,1.07,1.09c0.83,0,1.37-0.52,1.55-1.05c0.04-0.12,0.05-0.25,0.05-0.36V131.27z"/>
				<path d="M300.67,125.25h1.14v3.94h0.03c0.4-0.7,1.13-1.14,2.14-1.14c1.56,0,2.65,1.3,2.65,3.2c0,2.26-1.43,3.38-2.83,3.38
					c-0.91,0-1.62-0.35-2.11-1.18h-0.03l-0.07,1.04h-0.99c0.04-0.43,0.05-1.07,0.05-1.62V125.25z M301.82,131.96
					c0,0.14,0.01,0.29,0.04,0.42c0.22,0.79,0.9,1.34,1.72,1.34c1.21,0,1.91-0.98,1.91-2.42c0-1.27-0.65-2.35-1.87-2.35
					c-0.78,0-1.51,0.55-1.73,1.4c-0.04,0.14-0.07,0.3-0.07,0.48V131.96z"/>
				<path d="M308.62,127.12c-0.42,0-0.69-0.33-0.69-0.7c0-0.4,0.29-0.71,0.71-0.71c0.42,0,0.7,0.31,0.7,0.71
					c0,0.38-0.27,0.7-0.71,0.7H308.62z M308.07,134.48v-6.29h1.14v6.29H308.07z"/>
				<path d="M278.42,141.06c-0.95,1.29-1.62,2.96-1.62,5.33c0,2.31,0.71,3.96,1.62,5.26h-0.88c-0.82-1.08-1.7-2.74-1.7-5.28
					c0.01-2.55,0.88-4.22,1.7-5.32H278.42z"/>
				<path d="M281.86,140.28v2.65h1.22v0.74h-1.22v1.31c0.32,0.39,0.82,0.79,1.26,1.09c-0.13,0.2-0.34,0.57-0.44,0.77
					c-0.32-0.26-0.56-0.48-0.82-0.77v5.97h-0.82v-6.12c-0.31,0.88-0.71,1.66-1.43,2.73c-0.12-0.33-0.31-0.66-0.47-0.87
					c0.43-0.56,0.78-1.21,1.12-1.9c0.47-1,0.61-1.66,0.73-2.21h-1.61v-0.74h1.66v-2.65H281.86z M290.82,147.54v0.78h-3.41
					c0.75,1.35,2.07,2.26,3.52,2.79c-0.23,0.23-0.43,0.55-0.55,0.78c-2.38-1.09-3.09-2.29-3.52-3.04c-0.75,1.61-2.16,2.46-3.59,3.09
					c-0.1-0.19-0.29-0.58-0.53-0.78c1.26-0.48,2.81-1.21,3.47-2.85h-3.13v-0.78h3.32c0.05-0.26,0.05-0.56,0.05-0.82h0.82
					c0,0.26-0.01,0.53-0.05,0.82H290.82z M285.48,140.37v1.25h1.22v0.65h-1.22v0.97h1.01v0.65h-1.01v0.95
					c0.4-0.08,0.78-0.16,1.26-0.26v0.65c-0.44,0.09-0.86,0.2-1.26,0.27v1.12h-0.77v-0.96c-0.43,0.09-0.9,0.18-1.38,0.29l-0.13-0.69
					c0.53-0.1,1.08-0.21,1.51-0.29v-1.08h-1.25v-0.65h1.25v-0.97h-1.5v-0.65h1.5v-1.25H285.48z M287.05,141.63v-0.73h3.41
					c0,1.21-0.03,4.24-0.13,4.84c-0.08,0.42-0.29,0.73-1.35,0.84c-0.06-0.29-0.16-0.61-0.35-0.9h0.44c0.38,0,0.42-0.03,0.44-0.23
					c0.1-0.83,0.12-2.6,0.12-3.82h-0.94c0,2-0.04,3.56-1.25,4.91c-0.16-0.21-0.43-0.45-0.64-0.6c1.12-1.1,1.13-2.48,1.13-4.32
					H287.05z"/>
				<path d="M291.95,151.65c0.91-1.29,1.62-2.96,1.62-5.3s-0.7-3.99-1.62-5.29h0.88c0.82,1.07,1.7,2.74,1.7,5.29
					c-0.01,2.55-0.88,4.2-1.7,5.3H291.95z"/>
			</g>
			<g>
				<path d="M281.38,86.55v7.6c0,0.56,0.01,1.2,0.05,1.62h-1.03l-0.05-1.09h-0.03c-0.35,0.7-1.11,1.23-2.13,1.23
					c-1.52,0-2.7-1.29-2.7-3.2c-0.01-2.11,1.3-3.38,2.82-3.38c0.97,0,1.62,0.46,1.9,0.95h0.03v-3.74H281.38z M280.24,92.05
					c0-0.16-0.01-0.34-0.05-0.49c-0.17-0.71-0.79-1.31-1.65-1.31c-1.18,0-1.88,1.04-1.88,2.42c0,1.29,0.64,2.34,1.86,2.34
					c0.77,0,1.47-0.52,1.68-1.38c0.04-0.14,0.05-0.3,0.05-0.48V92.05z"/>
				<path d="M287.71,94.27c0,0.55,0.03,1.08,0.09,1.51h-1.03l-0.1-0.79h-0.04c-0.34,0.49-1.03,0.94-1.92,0.94
					c-1.27,0-1.92-0.9-1.92-1.81c0-1.52,1.35-2.35,3.78-2.34v-0.13c0-0.52-0.14-1.47-1.43-1.46c-0.6,0-1.21,0.17-1.65,0.47
					l-0.26-0.77c0.52-0.32,1.29-0.55,2.08-0.55c1.94,0,2.41,1.31,2.41,2.57V94.27z M286.6,92.57c-1.25-0.03-2.67,0.19-2.67,1.42
					c0,0.75,0.49,1.09,1.07,1.09c0.83,0,1.37-0.52,1.55-1.05c0.04-0.12,0.05-0.25,0.05-0.36V92.57z"/>
				<path d="M290.09,88.42c-0.42,0-0.69-0.33-0.69-0.7c0-0.4,0.29-0.71,0.71-0.71c0.42,0,0.7,0.31,0.7,0.71
					c0,0.38-0.27,0.7-0.72,0.7H290.09z M289.55,95.78v-6.29h1.14v6.29H289.55z"/>
				<path d="M293.04,89.49l0.84,3.19c0.17,0.7,0.34,1.36,0.46,2.02h0.04c0.14-0.64,0.35-1.31,0.56-2l1.03-3.2h0.96l0.98,3.15
					c0.23,0.74,0.42,1.42,0.56,2.05h0.04c0.1-0.64,0.27-1.3,0.48-2.04l0.9-3.16h1.13l-2.03,6.29h-1.04l-0.96-3
					c-0.22-0.72-0.4-1.34-0.56-2.08h-0.03c-0.16,0.75-0.35,1.42-0.57,2.09l-1.01,2.99h-1.04l-1.9-6.29H293.04z"/>
				<path d="M306.54,94.27c0,0.55,0.03,1.08,0.09,1.51h-1.03l-0.1-0.79h-0.04c-0.34,0.49-1.03,0.94-1.92,0.94
					c-1.27,0-1.92-0.9-1.92-1.81c0-1.52,1.35-2.35,3.78-2.34v-0.13c0-0.52-0.14-1.47-1.43-1.46c-0.6,0-1.21,0.17-1.65,0.47
					l-0.26-0.77c0.52-0.32,1.29-0.55,2.08-0.55c1.94,0,2.41,1.31,2.41,2.57V94.27z M305.42,92.57c-1.25-0.03-2.67,0.19-2.67,1.42
					c0,0.75,0.49,1.09,1.07,1.09c0.83,0,1.37-0.52,1.55-1.05c0.04-0.12,0.05-0.25,0.05-0.36V92.57z"/>
				<path d="M278.42,102.36c-0.95,1.29-1.62,2.96-1.62,5.33c0,2.31,0.71,3.96,1.62,5.26h-0.88c-0.82-1.08-1.7-2.74-1.7-5.28
					c0.01-2.55,0.88-4.23,1.7-5.32H278.42z"/>
				<path d="M285.01,101.94c-0.05,0.1-1.68,3.07-2.14,3.87c3.54-0.17,4.08-0.21,5.77-0.36c-0.56-0.68-1.07-1.23-1.69-1.86l0.73-0.56
					c1.34,1.44,1.53,1.69,3.3,3.85l-0.78,0.61c-0.33-0.43-0.66-0.88-1.01-1.29c-1.38,0.13-2.13,0.18-2.77,0.22
					c-0.03,0-4.41,0.29-6.68,0.39l-0.18-0.9c0.66,0,1.56-0.05,2.26-0.07c1.05-1.73,1.48-2.52,2.33-4.32L285.01,101.94z
					 M289.04,107.71v5.5h-0.87v-0.7h-5.95v0.78h-0.87v-5.58H289.04z M282.21,108.51v3.21h5.95v-3.21H282.21z"/>
				<path d="M296.53,109.35h-1.51v1.04h1.91v0.78h-1.91v2.17h-0.79v-2.17h-1.87v-0.78h1.87v-1.04h-1.56v-4.39h1.56v-1.22h-1.83
					v-0.78h1.83v-1.35h0.79v1.35h1.89v0.78h-1.89v1.22h1.51V109.35z M293.45,105.7v1.08h0.78v-1.08H293.45z M293.45,107.48v1.14
					h0.78v-1.14H293.45z M295.02,105.7v1.08h0.77v-1.08H295.02z M295.02,107.48v1.14h0.77v-1.14H295.02z M300.84,101.82l-0.09,0.16
					c0.62,0.92,1.46,2.2,3.3,3.35c-0.22,0.21-0.42,0.55-0.57,0.81c-0.26-0.19-0.6-0.46-0.98-0.79v0.66h-4.35v-0.66
					c-0.26,0.26-0.61,0.57-0.88,0.81c-0.14-0.26-0.36-0.55-0.61-0.75c1.55-1.16,2.37-2.07,3.34-3.93L300.84,101.82z M303.43,107.06
					v5.24c0,0.51-0.12,0.81-1.29,0.92c-0.05-0.26-0.17-0.61-0.35-0.9h0.62c0.13,0,0.2-0.06,0.2-0.18v-1.73h-1.17v2.6h-0.74v-2.6
					h-0.92v2.6h-0.73v-2.6h-0.99v2.9h-0.81v-6.25H303.43z M298.06,107.84v1.81h0.99v-1.81H298.06z M302.37,105.23
					c-0.86-0.83-1.22-1.27-2.09-2.54c-0.6,1.01-1.18,1.75-2,2.54H302.37z M299.78,107.84v1.81h0.92v-1.81H299.78z M301.44,107.84
					v1.81h1.17v-1.81H301.44z"/>
				<path d="M304.95,112.95c0.91-1.29,1.62-2.96,1.62-5.3c0-2.34-0.7-3.99-1.62-5.29h0.88c0.82,1.07,1.7,2.74,1.7,5.29
					c-0.01,2.55-0.88,4.2-1.7,5.3H304.95z"/>
			</g>
			<g>
				<path d="M275.95,163.95h1.14v3.93h0.03c0.18-0.33,0.47-0.62,0.82-0.81c0.34-0.21,0.74-0.32,1.17-0.32c0.84,0,2.2,0.52,2.2,2.69
					v3.74h-1.14v-3.63c0-1.01-0.38-1.86-1.46-1.86c-0.74,0-1.31,0.52-1.53,1.14c-0.06,0.16-0.08,0.33-0.08,0.55v3.8h-1.14V163.95z"
					/>
				<path d="M287.6,171.67c0,0.55,0.03,1.08,0.09,1.51h-1.03l-0.1-0.79h-0.04c-0.34,0.49-1.03,0.94-1.92,0.94
					c-1.27,0-1.92-0.9-1.92-1.81c0-1.52,1.35-2.35,3.78-2.34v-0.13c0-0.52-0.14-1.47-1.43-1.46c-0.6,0-1.21,0.17-1.65,0.47
					l-0.26-0.77c0.52-0.33,1.29-0.55,2.08-0.55c1.94,0,2.41,1.31,2.41,2.57V171.67z M286.48,169.97c-1.25-0.03-2.67,0.2-2.67,1.42
					c0,0.75,0.49,1.09,1.07,1.09c0.83,0,1.37-0.52,1.55-1.05c0.04-0.12,0.05-0.25,0.05-0.36V169.97z"/>
				<path d="M289.27,172.01c0.35,0.21,0.95,0.44,1.52,0.44c0.82,0,1.21-0.4,1.21-0.94c0-0.55-0.33-0.83-1.16-1.14
					c-1.14-0.42-1.68-1.04-1.68-1.78c0-1.01,0.83-1.85,2.17-1.85c0.64,0,1.2,0.17,1.53,0.39l-0.27,0.82
					c-0.25-0.14-0.7-0.36-1.29-0.36c-0.68,0-1.04,0.39-1.04,0.86c0,0.52,0.36,0.75,1.18,1.08c1.08,0.4,1.65,0.95,1.65,1.89
					c0,1.12-0.87,1.9-2.34,1.9c-0.69,0-1.33-0.18-1.77-0.44L289.27,172.01z"/>
				<path d="M294.58,163.95h1.14v3.93h0.03c0.18-0.33,0.47-0.62,0.82-0.81c0.34-0.21,0.74-0.32,1.17-0.32c0.85,0,2.2,0.52,2.2,2.69
					v3.74h-1.14v-3.63c0-1.01-0.38-1.86-1.46-1.86c-0.74,0-1.31,0.52-1.53,1.14c-0.07,0.16-0.08,0.33-0.08,0.55v3.8h-1.14V163.95z"
					/>
				<path d="M302.34,165.82c-0.42,0-0.69-0.32-0.69-0.7c0-0.4,0.29-0.72,0.71-0.72c0.42,0,0.7,0.31,0.7,0.72
					c0,0.38-0.27,0.7-0.71,0.7H302.34z M301.79,173.18v-6.29h1.14v6.29H301.79z"/>
				<path d="M304.83,168.85c0-0.74-0.01-1.38-0.05-1.96h1l0.05,1.24h0.04c0.29-0.85,0.99-1.38,1.75-1.38c0.12,0,0.21,0.01,0.31,0.03
					v1.08c-0.12-0.01-0.23-0.03-0.39-0.03c-0.81,0-1.38,0.61-1.53,1.46c-0.03,0.17-0.04,0.35-0.04,0.53v3.37h-1.14V168.85z"/>
				<path d="M313.45,171.67c0,0.55,0.03,1.08,0.09,1.51h-1.03l-0.1-0.79h-0.04c-0.34,0.49-1.03,0.94-1.92,0.94
					c-1.27,0-1.92-0.9-1.92-1.81c0-1.52,1.35-2.35,3.78-2.34v-0.13c0-0.52-0.14-1.47-1.43-1.46c-0.6,0-1.21,0.17-1.65,0.47
					l-0.26-0.77c0.52-0.33,1.29-0.55,2.08-0.55c1.94,0,2.41,1.31,2.41,2.57V171.67z M312.34,169.97c-1.25-0.03-2.67,0.2-2.67,1.42
					c0,0.75,0.49,1.09,1.07,1.09c0.83,0,1.37-0.52,1.55-1.05c0.04-0.12,0.05-0.25,0.05-0.36V169.97z"/>
				<path d="M278.42,179.76c-0.95,1.29-1.62,2.96-1.62,5.33c0,2.31,0.71,3.96,1.62,5.26h-0.88c-0.82-1.08-1.7-2.74-1.7-5.28
					c0.01-2.55,0.88-4.22,1.7-5.32H278.42z"/>
				<path d="M281.3,178.99h0.86v2.64h1.33v0.78h-1.33v1.17c0.51,0.57,1.04,1.14,1.7,1.7c-0.2,0.21-0.36,0.43-0.52,0.66
					c-0.4-0.36-0.79-0.77-1.18-1.18v5.99h-0.86v-6.02c-0.64,1.35-1.09,2.16-1.75,3.13c-0.1-0.34-0.22-0.64-0.4-0.87
					c0.72-1.04,1.7-2.85,2.11-4.59h-1.87v-0.78h1.92V178.99z M290.68,181.63v0.79h-3v2.81h2.57v0.79h-2.57v3.38H291v0.82h-7.75
					v-0.82h3.56v-3.38h-2.48v-0.79h2.48v-2.81h-2.95v-0.79H290.68z M286.3,179.03c0.64,0.53,1.25,1.16,1.74,1.65l-0.6,0.56
					c-0.51-0.52-1.11-1.14-1.72-1.66L286.3,179.03z"/>
				<path d="M291.95,190.35c0.91-1.29,1.62-2.96,1.62-5.3s-0.7-3.99-1.62-5.29h0.88c0.82,1.07,1.7,2.74,1.7,5.29
					c-0.01,2.55-0.88,4.2-1.7,5.3H291.95z"/>
			</g>
			<g>
				<path d="M277.09,208.47h0.03c0.16-0.22,0.36-0.49,0.55-0.71l1.86-2.17h1.36l-2.43,2.59l2.77,3.71h-1.39l-2.16-3.02l-0.58,0.65
					v2.37h-1.14v-9.23h1.14V208.47z"/>
				<path d="M286.71,210.37c0,0.55,0.03,1.08,0.09,1.51h-1.03l-0.1-0.79h-0.04c-0.34,0.49-1.03,0.94-1.92,0.94
					c-1.27,0-1.92-0.9-1.92-1.81c0-1.52,1.35-2.35,3.78-2.34v-0.13c0-0.52-0.14-1.47-1.43-1.46c-0.6,0-1.21,0.17-1.65,0.47
					l-0.26-0.77c0.52-0.33,1.29-0.55,2.08-0.55c1.94,0,2.41,1.31,2.41,2.57V210.37z M285.59,208.67c-1.25-0.03-2.67,0.2-2.67,1.42
					c0,0.75,0.49,1.09,1.07,1.09c0.83,0,1.36-0.52,1.55-1.05c0.04-0.12,0.05-0.25,0.05-0.36V208.67z"/>
				<path d="M288.55,207.29c0-0.66-0.03-1.18-0.05-1.7h1l0.05,1.01h0.04c0.35-0.6,0.94-1.16,1.99-1.16c0.84,0,1.49,0.52,1.77,1.26
					h0.03c0.19-0.36,0.46-0.62,0.71-0.82c0.38-0.29,0.78-0.44,1.38-0.44c0.84,0,2.08,0.55,2.08,2.73v3.71h-1.12v-3.56
					c0-1.22-0.46-1.94-1.37-1.94c-0.66,0-1.16,0.48-1.37,1.03c-0.05,0.17-0.09,0.38-0.09,0.57v3.9h-1.12v-3.78
					c0-1-0.44-1.72-1.31-1.72c-0.7,0-1.24,0.57-1.42,1.14c-0.07,0.17-0.09,0.36-0.09,0.56v3.8h-1.12V207.29z"/>
				<path d="M300.04,208.94c0.03,1.53,1,2.17,2.14,2.17c0.82,0,1.33-0.14,1.74-0.33l0.21,0.82c-0.4,0.18-1.11,0.4-2.11,0.4
					c-1.92,0-3.09-1.29-3.09-3.17c0-1.9,1.13-3.39,2.96-3.39c2.05,0,2.59,1.81,2.59,2.96c0,0.23-0.01,0.4-0.04,0.53H300.04z
					 M303.38,208.12c0.01-0.73-0.3-1.86-1.57-1.86c-1.17,0-1.66,1.07-1.75,1.86H303.38z"/>
				<path d="M305.9,202.65h1.14v3.94h0.03c0.4-0.7,1.13-1.14,2.15-1.14c1.56,0,2.65,1.3,2.65,3.2c0,2.26-1.43,3.38-2.83,3.38
					c-0.91,0-1.62-0.35-2.11-1.18h-0.03l-0.06,1.04h-0.99c0.04-0.43,0.05-1.07,0.05-1.62V202.65z M307.04,209.36
					c0,0.14,0.01,0.29,0.04,0.42c0.22,0.79,0.9,1.34,1.72,1.34c1.21,0,1.91-0.98,1.91-2.42c0-1.27-0.65-2.35-1.87-2.35
					c-0.78,0-1.51,0.55-1.73,1.4c-0.04,0.14-0.06,0.3-0.06,0.48V209.36z"/>
				<path d="M317.73,210.37c0,0.55,0.03,1.08,0.09,1.51h-1.03l-0.1-0.79h-0.04c-0.34,0.49-1.03,0.94-1.92,0.94
					c-1.27,0-1.92-0.9-1.92-1.81c0-1.52,1.35-2.35,3.78-2.34v-0.13c0-0.52-0.14-1.47-1.43-1.46c-0.6,0-1.21,0.17-1.65,0.47
					l-0.26-0.77c0.52-0.33,1.29-0.55,2.08-0.55c1.94,0,2.41,1.31,2.41,2.57V210.37z M316.61,208.67c-1.25-0.03-2.67,0.2-2.67,1.42
					c0,0.75,0.49,1.09,1.07,1.09c0.83,0,1.37-0.52,1.55-1.05c0.04-0.12,0.05-0.25,0.05-0.36V208.67z"/>
				<path d="M319.56,207.55c0-0.74-0.01-1.38-0.05-1.96h1l0.05,1.24h0.04c0.29-0.85,0.99-1.38,1.75-1.38c0.12,0,0.21,0.01,0.31,0.03
					v1.08c-0.12-0.01-0.23-0.03-0.39-0.03c-0.81,0-1.38,0.61-1.53,1.46c-0.03,0.17-0.04,0.35-0.04,0.53v3.37h-1.14V207.55z"/>
				<path d="M328.18,210.37c0,0.55,0.03,1.08,0.09,1.51h-1.03l-0.1-0.79h-0.04c-0.34,0.49-1.03,0.94-1.92,0.94
					c-1.27,0-1.92-0.9-1.92-1.81c0-1.52,1.35-2.35,3.78-2.34v-0.13c0-0.52-0.14-1.47-1.43-1.46c-0.6,0-1.21,0.17-1.65,0.47
					l-0.26-0.77c0.52-0.33,1.29-0.55,2.08-0.55c1.94,0,2.41,1.31,2.41,2.57V210.37z M327.06,208.67c-1.25-0.03-2.67,0.2-2.67,1.42
					c0,0.75,0.49,1.09,1.07,1.09c0.83,0,1.36-0.52,1.55-1.05c0.04-0.12,0.05-0.25,0.05-0.36V208.67z"/>
				<path d="M278.42,218.46c-0.95,1.29-1.62,2.96-1.62,5.33c0,2.31,0.71,3.96,1.62,5.26h-0.88c-0.82-1.08-1.7-2.74-1.7-5.28
					c0.01-2.55,0.88-4.22,1.7-5.32H278.42z"/>
				<path d="M283.23,217.81l-0.32,0.49h3.47l0.2-0.05l0.44,0.43c-0.3,0.39-0.61,0.77-0.9,1.05h3.26v3.48h-3.95v0.79h4.45v3.41h-4.45
					v0.66c0,0.4,0.4,0.42,0.7,0.42c0.57,0,3.11-0.01,3.6-0.01c0.31,0,0.42-0.44,0.49-0.77c0.33,0.13,0.58,0.22,0.87,0.26
					c-0.34,1.07-0.52,1.21-1.68,1.21c-0.64,0-1.87,0-2.63,0.01c-0.75-0.01-1.05-0.01-1.33-0.01c-0.06-0.01-0.91-0.06-0.91-0.94
					v-0.83h-3.5v0.68h-0.86v-4.08h4.35v-0.79h-3.59v-3c-0.34,0.31-0.78,0.64-1.22,0.91c-0.17-0.23-0.39-0.44-0.6-0.66
					c0.95-0.56,1.44-0.94,2.18-1.72c0.33-0.33,0.7-0.74,1.03-1.3L283.23,217.81z M281.06,224.72v0.61h3.5v-0.61H281.06z
					 M281.06,225.95v0.73h3.5v-0.73H281.06z M285.01,219.73l0.62-0.7h-3.34c-0.25,0.22-0.47,0.47-0.77,0.7H285.01z M281.81,220.46
					v0.7h2.74v-0.7H281.81z M281.81,221.76v0.75h2.74v-0.75H281.81z M285.43,220.46v0.7h3.09v-0.7H285.43z M285.43,221.76v0.75h3.09
					v-0.75H285.43z M285.43,224.72v0.61h3.59v-0.61H285.43z M285.43,225.95v0.73h3.59v-0.73H285.43z"/>
				<path d="M296.1,228.08c0,0.74-0.25,0.86-1.69,1.05c-0.07-0.29-0.21-0.65-0.39-0.96h1.08c0.1,0,0.18-0.05,0.18-0.2v-3.11h-1.5
					c-0.04,0.88-0.1,2.37-0.91,4.26c-0.2-0.25-0.47-0.48-0.69-0.65c0.48-1.13,0.83-2.26,0.83-5.32v-4.97h3.08V228.08z M293.84,219
					v2.14h1.44V219H293.84z M293.84,221.88v2.26h1.44v-2.26H293.84z M299,217.86l-0.57,0.88h5.33v0.75h-5.75
					c-0.33,0.48-0.9,1.16-1.34,1.62c-0.16-0.31-0.33-0.6-0.52-0.82c0.77-0.71,1.42-1.57,2.03-2.83L299,217.86z M297.66,220.36h5.3
					V224h-3.04l-0.62,0.88h3.03l0.08-0.05l0.68,0.56c-0.52,0.71-1.14,1.37-1.99,1.98c1.11,0.56,1.46,0.68,2.85,1.1
					c-0.19,0.23-0.35,0.53-0.47,0.81c-1.48-0.55-2.01-0.75-3.03-1.42c-0.92,0.61-1.99,1.05-3.52,1.48
					c-0.09-0.25-0.22-0.53-0.46-0.82c1.12-0.19,2.24-0.61,3.25-1.1c-0.52-0.35-1.01-0.78-1.42-1.27c-0.39,0.42-0.82,0.82-1.2,1.09
					c-0.13-0.19-0.31-0.48-0.55-0.68c1.08-0.84,1.9-1.73,2.41-2.56h-1.3V220.36z M298.48,221.03v0.81h3.61v-0.81H298.48z
					 M298.48,222.47v0.81h3.61v-0.81H298.48z M298.82,225.61c0.36,0.47,0.95,0.95,1.56,1.33c0.62-0.44,1.22-1,1.53-1.33H298.82z"/>
				<path d="M304.95,229.05c0.91-1.29,1.62-2.96,1.62-5.3s-0.7-3.99-1.62-5.29h0.88c0.82,1.07,1.7,2.74,1.7,5.29
					c-0.01,2.55-0.88,4.2-1.7,5.3H304.95z"/>
			</g>
		</g>
	</g>
</svg>
