<?xml version="1.0" encoding="iso-8859-1"?>
<!-- Generator: Adobe Illustrator 11 Build 196, SVG Export Plug-In . SVG Version: 6.0.0 Build 78)  -->
<!DOCTYPE svg PUBLIC "-//W3C//DTD SVG 1.0//EN"    "http://www.w3.org/TR/2001/REC-SVG-20010904/DTD/svg10.dtd" [
	<!ENTITY ns_flows "http://ns.adobe.com/Flows/1.0/">
	<!ENTITY ns_svg "http://www.w3.org/2000/svg">
	<!ENTITY ns_xlink "http://www.w3.org/1999/xlink">
	<!ENTITY st0 "fill:#0A0809;stroke:#FFFFFF;stroke-width:2.5;">
	<!ENTITY st1 "fill:none;stroke:#FFFFFF;stroke-width:2.5;stroke-linecap:round;stroke-linejoin:round;">
	<!ENTITY st2 "fill:#0A0809;">
]>
<svg  xmlns="&ns_svg;" xmlns:xlink="&ns_xlink;" xmlns:a="http://ns.adobe.com/AdobeSVGViewerExtensions/3.0/"
	 width="205.16" height="199.14" viewBox="0 0 205.16 199.14" style="overflow:visible;enable-background:new 0 0 205.16 199.14"
	 xml:space="preserve">
	<g id="Pfade">
		<g>
			<g>
				<path style="&st2;" d="M102.2,101.82c-4.79-6.74-20.4-31.93-31.4-42.93c-8.78-8.78-10.64-25.9-2.84-42.93
					c0,0,0.71,4.61,4.26,2.48c2.84-6.74,6.03-8.51,7.8-12.06c1.06,6.03,1.42,13.48,9.58-4.61c1.78,8.16,3.2,7.81,4.97,7.81
					c1.77,0,5.82-6.74,8.66-9.58c2.48,4.61,3.76,10.29,7.66,9.58c0,0,3.9-3.19,4.97-8.51c2.48,7.45,3.9,13.13,8.16,12.42
					c2.49-0.35,1.42-4.97,2.13-6.39c2.84,9.23,7.09,11.35,8.16,11.35c2.13,0.35,2.13-3.19,2.84-4.26
					c8.51,17.38,4.61,32.99,0.71,39.73C133.96,60.67,107.35,87.63,102.2,101.82z"/>
				<line style="&st1;" x1="102.38" y1="8.16" x2="102.38" y2="89.05"/>
				<path style="&st1;" d="M126.86,27.32c-13.84,12.42-20.22,47.54-20.22,60.67"/>
				<path style="&st1;" d="M77.9,27.32c13.84,12.42,20.22,47.54,20.22,60.67"/>
			</g>
			<g>
				<path style="&st2;" d="M99.04,103.86c-7.89,2.47-36.67,9.54-50.53,16.6c-11.06,5.63-27.92,2.12-41.7-10.57
					c0,0,4.61,0.75,3.68-3.28c-5.53-4.78-6.23-8.36-9.06-11.15C7.49,96.31,14.69,98.28,0,84.92c8.31,0.83,8.41-0.63,8.96-2.31
					c0.55-1.69-4.61-7.61-6.44-11.19c5.15-0.94,10.95-0.4,11.48-4.33c0,0-1.83-4.7-6.56-7.36c7.85-0.06,13.69,0.34,14.33-3.92
					c0.43-2.47-4.29-2.89-5.42-4c9.65,0.15,12.99-3.24,13.32-4.25c1-1.92-2.38-3.01-3.17-4.02c19.16-2.73,32.8,5.81,38.01,11.6
					C69.72,60.94,87.14,94.58,99.04,103.86z"/>
				<line style="&st1;" x1="10.02" y1="74.75" x2="86.95" y2="99.75"/>
				<path style="&st1;" d="M35.81,57.39c7.53,17,38.96,33.92,51.45,37.98"/>
				<path style="&st1;" d="M20.68,103.95c16.09-9.32,51.46-4.54,63.95-0.49"/>
			</g>
			<g>
				<path style="&st2;" d="M100.01,107.49c-0.09,8.27-2.26,37.82,0.17,53.18c1.94,12.26-6.61,27.21-22.94,36.4
					c0,0,2.13-4.15-1.99-4.51c-6.26,3.79-9.88,3.34-13.4,5.17c2.68-5.5,6.78-11.74-10.46-1.9c3.36-7.65,2-8.2,0.57-9.24
					c-1.44-1.04-8.67,2.03-12.63,2.66c0.7-5.19,3-10.53-0.57-12.25c0,0-5.03,0.29-9.02,3.97c2.37-7.49,4.56-12.91,0.7-14.84
					c-2.22-1.17-4.07,3.19-5.48,3.92c3.13-9.13,0.93-13.36,0.07-13.98c-1.51-1.54-3.6,1.33-4.8,1.78
					c3.33-19.07,15.66-29.4,22.78-32.56C50.13,122.12,87.5,115.95,100.01,107.49z"/>
				<line style="&st1;" x1="44.81" y1="183.16" x2="92.36" y2="117.72"/>
				<path style="&st1;" d="M36.27,153.28c18.49-1.91,44.3-26.57,52.02-37.2"/>
				<path style="&st1;" d="M75.88,182.05c-3.89-18.18,11.58-50.35,19.3-60.97"/>
			</g>
			<g>
				<path style="&st2;" d="M103.76,107.7c7.84,2.64,35.28,13.84,50.63,16.27c12.26,1.94,23.84,14.7,27.53,33.06
					c0,0-3.29-3.31-4.9,0.49c1.67,7.12,0.13,10.43,0.78,14.35c-4.41-4.25-9.07-10.07-5.04,9.36c-6.23-5.56-7.17-4.44-8.61-3.4
					s-0.75,8.87-1.37,12.84c-4.72-2.27-9.09-6.11-11.83-3.24c0,0-1.28,4.88,0.99,9.81c-6.39-4.57-10.88-8.32-13.9-5.25
					c-1.8,1.75,1.77,4.85,2.03,6.42c-7.72-5.79-12.41-5.01-13.28-4.39c-1.93,0.96,0.15,3.83,0.21,5.11
					c-17.11-9.06-23.12-23.98-23.93-31.73C102.26,159.66,107.94,122.21,103.76,107.7z"/>
				<line style="&st1;" x1="158.67" y1="183.58" x2="111.13" y2="118.14"/>
				<path style="&st1;" d="M127.6,182.47c3.9-18.18-11.58-50.34-19.3-60.97"/>
				<path style="&st1;" d="M167.21,153.69c-18.49-1.91-44.3-26.57-52.02-37.2"/>
			</g>
			<g>
				<path style="&st2;" d="M105.12,104.2c4.93-6.64,24.06-29.27,31.12-43.13c5.63-11.06,21.34-18.13,39.95-15.97
					c0,0-4.17,2.1-1.04,4.82c7.29,0.61,9.96,3.1,13.88,3.69c-5.41,2.88-12.38,5.52,7.35,7.69c-7.21,4.21-6.44,5.45-5.89,7.14
					c0.55,1.69,8.21,3.45,11.79,5.27c-3.62,3.79-8.62,6.76-6.74,10.25c0,0,4.24,2.73,9.63,2.09c-6.32,4.66-11.28,7.77-9.29,11.6
					c1.1,2.25,5.16-0.18,6.73,0.05c-7.9,5.55-8.61,10.26-8.28,11.27c0.32,2.13,3.69,1.04,4.92,1.38
					c-13.9,13.47-29.95,14.58-37.57,12.95C154.07,121.68,120.21,104.7,105.12,104.2z"/>
				<line style="&st1;" x1="194.25" y1="75.42" x2="117.32" y2="100.42"/>
				<path style="&st1;" d="M183.59,104.62c-16.08-9.32-51.46-4.54-63.95-0.49"/>
				<path style="&st1;" d="M168.46,58.06c-7.54,16.99-38.96,33.92-51.45,37.98"/>
			</g>
			<circle style="&st0;" cx="102.03" cy="104.66" r="17.38"/> 
		</g>
	</g>
</svg>
