<?xml version="1.0" encoding="iso-8859-1"?>
<!-- Generator: Adobe Illustrator 11 Build 196, SVG Export Plug-In . SVG Version: 6.0.0 Build 78)  -->
<!DOCTYPE svg PUBLIC "-//W3C//DTD SVG 1.0//EN"    "http://www.w3.org/TR/2001/REC-SVG-20010904/DTD/svg10.dtd" [
	<!ENTITY ns_flows "http://ns.adobe.com/Flows/1.0/">
	<!ENTITY ns_svg "http://www.w3.org/2000/svg">
	<!ENTITY ns_xlink "http://www.w3.org/1999/xlink">
	<!ENTITY st0 "stroke:#000000;stroke-linecap:round;stroke-linejoin:round;">
]>
<svg  xmlns="&ns_svg;" xmlns:xlink="&ns_xlink;" xmlns:a="http://ns.adobe.com/AdobeSVGViewerExtensions/3.0/"
	 width="194.9" height="191" viewBox="0 0 194.9 191" style="overflow:visible;enable-background:new 0 0 194.9 191"
	 xml:space="preserve">
	<g id="Pfade">
		
			<rect x="73.22" y="15.64" transform="matrix(-0.7071 -0.7071 0.7071 -0.7071 135.5464 130.6581)" style="&st0;" width="43.23" height="43.23"/> 
		<polyline style="&st0;" points="125.4,37.26 136.64,37.26 147.87,37.26 "/>
		<polyline style="&st0;" points="94.83,90.29 94.83,79.06 94.83,67.82 "/>
		<polygon style="&st0;" points="162.66,0.5 111.62,0.5 137.14,26.02 "/>
		<polyline style="&st0;" points="137.14,48.49 137.14,37.26 137.14,26.02 "/>
		
			<rect x="115.53" y="57.45" transform="matrix(-0.7071 -0.7071 0.7071 -0.7071 178.2087 231.9392)" style="&st0;" width="43.23" height="43.23"/> 
		<polyline style="&st0;" points="167.71,79.06 178.94,79.06 190.18,79.06 "/>
		<polyline style="&st0;" points="137.14,132.1 137.14,120.86 137.14,109.63 "/>
		
			<rect x="31.92" y="57.45" transform="matrix(-0.7071 -0.7071 0.7071 -0.7071 35.4878 172.821)" style="&st0;" width="43.23" height="43.23"/> 
		<polyline style="&st0;" points="84.1,79.06 95.34,79.06 106.57,79.06 "/>
		<polyline style="&st0;" points="53.54,132.1 53.54,120.86 53.54,109.63 "/>
		
			<rect x="73.22" y="99.25" transform="matrix(-0.7071 -0.7071 0.7071 -0.7071 76.4268 273.3823)" style="&st0;" width="43.23" height="43.23"/> 
		<polyline style="&st0;" points="125.4,120.86 136.64,120.86 147.87,120.86 "/>
		<polyline style="&st0;" points="94.83,173.9 94.83,162.67 94.83,151.43 "/>
		<polygon style="&st0;" points="41.3,37.26 10.73,6.69 3.87,13.55 3.87,60.96 10.73,67.82 "/>
		<polyline style="&st0;" points="41.8,37.26 53.03,37.26 64.27,37.26 "/>
		<polyline style="&st0;" points="10.73,90.29 10.73,79.06 10.73,67.82 "/>
		<polygon style="&st0;" points="79.06,0.5 28.02,0.5 53.54,26.02 "/>
		<polyline style="&st0;" points="53.54,48.49 53.54,37.26 53.54,26.02 "/>
		<polygon style="&st0;" points="178.44,6.69 147.87,37.26 178.44,67.82 193.87,52.4 193.87,22.12 "/>
		<polyline style="&st0;" points="178.44,90.29 178.44,79.06 178.44,67.82 "/>
		<polygon style="&st0;" points="178.44,90.29 147.87,120.86 178.44,151.43 193.87,136 193.87,105.72 "/>
		<polyline style="&st0;" points="178.44,173.9 178.44,162.67 178.44,151.43 "/>
		<polygon style="&st0;" points="41.3,120.86 10.73,90.29 3.87,97.16 3.87,144.57 10.73,151.43 "/>
		<polygon style="&st0;" points="190.18,79.06 193.87,82.75 193.87,75.37 "/>
		<polyline style="&st0;" points="41.8,120.86 53.03,120.86 64.27,120.86 "/>
		<polyline style="&st0;" points="10.73,173.9 10.73,162.67 10.73,151.43 "/>
		<polygon style="&st0;" points="53.54,132.1 22.97,162.67 50.8,190.5 56.27,190.5 84.1,162.67 "/>
		<polyline style="&st0;" points="84.1,162.67 95.34,162.67 106.57,162.67 "/>
		<polygon style="&st0;" points="137.14,132.1 106.57,162.67 134.41,190.5 139.88,190.5 167.71,162.67 "/>
		<polyline style="&st0;" points="167.71,162.67 178.94,162.67 190.18,162.67 "/>
		<polygon style="&st0;" points="78.73,190.5 110.93,190.5 94.83,174.4 "/>
		<polygon style="&st0;" points="194.4,189.86 178.44,173.9 162.28,190.06 194.4,190.06 "/>
		<polygon style="&st0;" points="3.37,181.26 3.37,190.5 27.33,190.5 10.73,173.9 "/>
		<polygon style="&st0;" points="190.18,162.67 193.87,166.35 193.87,158.98 "/>
		<polyline style="&st0;" points="0.5,162.67 11.74,162.67 22.97,162.67 "/>
		<polyline style="&st0;" points="0.5,79.06 11.74,79.06 22.97,79.06 "/>
	</g>
</svg>
