<?xml version="1.0" encoding="iso-8859-1"?>
<!-- Generator: Adobe Illustrator 11 Build 196, SVG Export Plug-In . SVG Version: 6.0.0 Build 78)  -->
<!DOCTYPE svg PUBLIC "-//W3C//DTD SVG 1.0//EN"    "http://www.w3.org/TR/2001/REC-SVG-20010904/DTD/svg10.dtd" [
	<!ENTITY ns_flows "http://ns.adobe.com/Flows/1.0/">
	<!ENTITY ns_svg "http://www.w3.org/2000/svg">
	<!ENTITY ns_xlink "http://www.w3.org/1999/xlink">
	<!ENTITY st0 "fill:#0A0809;">
]>
<svg  xmlns="&ns_svg;" xmlns:xlink="&ns_xlink;" xmlns:a="http://ns.adobe.com/AdobeSVGViewerExtensions/3.0/"
	 width="179" height="178.95" viewBox="0 0 179 178.95" style="overflow:visible;enable-background:new 0 0 179 178.95"
	 xml:space="preserve">
	<g id="Pfade">
		<g>
			<path style="&st0;" d="M56.04,172.48c6.15,2.48,12.63,4.3,19.37,5.36v-9.2C68.83,169.42,62.32,170.72,56.04,172.48z"/>
			<path style="&st0;" d="M75.41,153.71c-13.94,1.49-26.51,5.04-36.61,9.5c1.9,1.31,3.85,2.55,5.85,3.71
				c9.61-3.73,20.11-6.31,30.75-7.55V153.71z"/>
			<path style="&st0;" d="M89.25,155.47c-1.5,0-2.99-0.08-4.45-0.23v23.6c1.56,0.08,3.12,0.12,4.7,0.12c1.33,0,2.64-0.04,3.96-0.09
				v-23.6C92.07,155.39,90.67,155.47,89.25,155.47z"/>
			<path style="&st0;" d="M76.89,153.65v24.42c2.12,0.3,4.26,0.53,6.43,0.67v-23.69C81.12,154.74,78.97,154.27,76.89,153.65z"/>
			<path style="&st0;" d="M13.85,95.88c0-38.29,28.69-70.01,65.71-74.78L86.72,0C38.58,1.47,0,40.96,0,89.45
				c0,29.99,14.75,56.53,37.39,72.77c3.02-1.36,6.26-2.65,9.7-3.82C26.25,144.32,13.85,121.07,13.85,95.88z"/>
			<path style="&st0;" d="M46.48,112.69c0-20.53,14.47-37.67,33.76-41.81l6.44-21.31h-7.25l0.33-1.1
				C53.19,53,32.88,76.19,32.88,104.04c0,21.12,11.63,40.27,30.37,50.03c3.3-0.66,6.71-1.2,10.21-1.62
				C57.66,146.16,46.48,130.74,46.48,112.69z"/>
			<path style="&st0;" d="M31.4,104.04c0-28.84,21.21-52.81,48.84-57.15l5.99-19.82h-8.71l1.49-4.4
				c-35.94,5-63.69,35.92-63.69,73.21c0,25.07,12.53,48.2,33.54,61.92c3.83-1.24,7.89-2.34,12.14-3.27
				C42.69,144.29,31.4,125.12,31.4,104.04z"/>
			<path style="&st0;" d="M163.18,95.88c0-37.11-27.49-67.92-63.17-73.14l1.47,4.33h-8.71l6.02,19.9
				c27.38,4.56,48.32,28.41,48.32,57.06c0,21.05-11.25,40.17-29.5,50.44c4.02,0.88,8.05,1.97,12.09,3.28
				C150.67,144.03,163.18,120.94,163.18,95.88z"/>
			<path style="&st0;" d="M145.62,104.04c0-27.67-20.04-50.74-46.36-55.48l0.31,1.01h-7.25L98.8,71
				c19.03,4.34,33.23,21.35,33.23,41.69c0,17.99-11.11,33.37-26.84,39.69c3.37,0.4,6.76,0.94,10.17,1.62
				C134.04,144.23,145.62,125.13,145.62,104.04z"/>
			<path style="&st0;" d="M75.41,160.86c-10.04,1.18-19.95,3.58-29.08,7.01c2.44,1.35,4.95,2.58,7.53,3.7
				c6.95-2.06,14.22-3.56,21.55-4.41V160.86z"/>
			<path style="&st0;" d="M102.85,166.9c7.77,0.76,15.43,2.24,22.9,4.4c2.57-1.14,5.08-2.4,7.52-3.77c-9.81-3.57-20-5.9-30.42-6.93
				V166.9z"/>
			<path style="&st0;" d="M102.85,177.96c7.23-1.08,14.17-3.03,20.72-5.73c-6.78-1.86-13.7-3.15-20.72-3.84V177.96z"/>
			<path style="&st0;" d="M94.94,155.08v23.71c2.16-0.13,4.31-0.33,6.43-0.62v-24.45C99.29,154.33,97.14,154.79,94.94,155.08z"/>
			<path style="&st0;" d="M102.85,159.11c11,1.08,21.76,3.58,32.09,7.46c1.76-1.04,3.48-2.13,5.15-3.29
				c-12.47-5.4-25.07-8.43-37.25-9.66V159.11z"/>
			<path style="&st0;" d="M179,89.45C179,40.96,140.43,1.47,92.29,0l7.19,21.17c36.76,5,65.19,36.6,65.19,74.71
				c0,25.18-12.37,48.4-33.18,62.47c3.35,1.15,6.7,2.45,10.04,3.93C164.21,146.05,179,119.48,179,89.45z"/>
			<path style="&st0;" d="M84.9,153.67l-8.38-20.21h-7.05l7.6,18.17c0.21,0.13,0.42,0.25,0.63,0.37c1.1,0.6,2.18,0.99,3.16,1.24
				C83.17,153.83,84.9,153.67,84.9,153.67z"/>
			<path style="&st0;" d="M62.06,136.24l3.89,9.64c2.6,2.6,8.53,4.75,8.53,4.75l-6.12-14.39H62.06z"/>
			<path style="&st0;" d="M94.1,153.67c0,0,1.75,0.16,4.07-0.44c0.98-0.25,2.05-0.64,3.14-1.24c0.21-0.11,0.41-0.23,0.62-0.35
				l7.6-18.17h-7.05L94.1,153.67"/>
			<path style="&st0;" d="M104.52,150.63c0,0,5.93-2.15,8.53-4.75l3.89-9.64h-6.3L104.52,150.63z"/>
		</g>
	</g>
</svg>
