<?xml version="1.0" encoding="iso-8859-1"?>
<!-- Generator: Adobe Illustrator 11 Build 196, SVG Export Plug-In . SVG Version: 6.0.0 Build 78)  -->
<!DOCTYPE svg PUBLIC "-//W3C//DTD SVG 1.0//EN"    "http://www.w3.org/TR/2001/REC-SVG-20010904/DTD/svg10.dtd" [
	<!ENTITY ns_flows "http://ns.adobe.com/Flows/1.0/">
	<!ENTITY ns_svg "http://www.w3.org/2000/svg">
	<!ENTITY ns_xlink "http://www.w3.org/1999/xlink">
	<!ENTITY st0 "fill:none;stroke:#000000;stroke-linecap:round;stroke-linejoin:round;">
	<!ENTITY st1 "stroke:#000000;stroke-linecap:round;stroke-linejoin:round;">
]>
<svg  xmlns="&ns_svg;" xmlns:xlink="&ns_xlink;" xmlns:a="http://ns.adobe.com/AdobeSVGViewerExtensions/3.0/"
	 width="161.5" height="181.92" viewBox="0 0 161.5 181.92" style="overflow:visible;enable-background:new 0 0 161.5 181.92"
	 xml:space="preserve">
	<g id="Pfade">
		<path style="&st0;" d="M18.04,92.5C7.36,96.75,1,102.1,1,107.92c0,13.81,35.82,25,80,25c12.63,0,24.57-0.92,35.19-2.55"/>
		<path style="&st0;" d="M111.75,84.67C102.5,83.5,91.6,82.92,81,82.92c-12.95,0-25.19,0.96-36.01,2.67"/>
		<path style="&st0;" d="M140.4,91.19c4.61,1.59,8.56,3.39,11.75,5.3c0.72,0.43,1.47,0.81,1.47,0.81"/>
		<path style="&st0;" d="M140.57,124.6c12.7-4.42,20.43-10.27,20.43-16.68c0-1.25-0.25-2.29-0.55-2.74"/>
		<path style="&st0;" d="M116.19,136.8c-10.75,1.68-22.86,2.62-35.69,2.62c-44.18,0-80-11.19-80-25"/>
		<path style="&st0;" d="M160.5,114.42c0,6.39-7.66,12.21-20.27,16.63"/>
		<line style="&st0;" x1="1" y1="107.92" x2="0.5" y2="114.42"/>
		<line style="&st0;" x1="104" y1="132.42" x2="104" y2="138.17"/>
		<line style="&st0;" x1="0.5" y1="115.92" x2="0.5" y2="130.42"/>
		<line style="&st0;" x1="0.5" y1="136.17" x2="0.5" y2="152.42"/>
		<line style="&st0;" x1="4" y1="121.92" x2="4" y2="137.42"/>
		<line style="&st0;" x1="21" y1="131.42" x2="21" y2="146.92"/>
		<line style="&st0;" x1="43.5" y1="136.92" x2="43.5" y2="152.42"/>
		<line style="&st0;" x1="68.5" y1="139.42" x2="68.5" y2="154.92"/>
		<line style="&st0;" x1="94" y1="139.42" x2="94" y2="154.92"/>
		<line style="&st0;" x1="155.5" y1="123.42" x2="155.5" y2="138.92"/>
		<line style="&st0;" x1="160.5" y1="115.9" x2="160.5" y2="130.42"/>
		<line style="&st0;" x1="160.5" y1="135.83" x2="160.5" y2="151.42"/>
		<line style="&st0;" x1="150" y1="120.92" x2="150" y2="126.42"/>
		<line style="&st0;" x1="160.49" y1="111.02" x2="160.5" y2="114.42"/>
		<path style="&st1;" d="M160.5,135.42c0,13.81-35.82,25-80,25s-80-11.19-80-25v-5c0,13.81,35.82,25,80,25s80-11.19,80-25V135.42z"
			/>
		<path style="&st1;" d="M160.5,156.42c0,13.81-35.82,25-80,25s-80-11.19-80-25v-5c0,13.81,35.82,25,80,25s80-11.19,80-25V156.42z"
			/>
		<line style="&st0;" x1="117" y1="173.42" x2="117" y2="157.92"/>
		<line style="&st0;" x1="140.5" y1="167.42" x2="140.5" y2="152.42"/>
		<path style="&st0;" d="M140.22,146.52l0.11-117.1c-4-1.5-9.33-2.5-12.33-2.5s-7.5,1.5-11.5,3v122.5"/>
		<path style="&st0;" d="M135.83,27.92c-4-1.5-9.33-2-12.33-2s-7.5,1.5-11.5,3v99l4.1,1.67"/>
		<path style="&st0;" d="M38.87,3c-4-1.5-7.33-2.5-10.33-2.5s-6.5,1.5-10.5,3v89l4.46,1.92v-89c4-1.5,7.5-3,10.5-3s6.33,1,10.33,2.5
			v7.5"/>
		<line style="&st0;" x1="155.5" y1="144.42" x2="155.5" y2="159.92"/>
		<line style="&st0;" x1="94" y1="160.42" x2="94" y2="175.92"/>
		<line style="&st0;" x1="68.5" y1="160.92" x2="68.5" y2="175.92"/>
		<line style="&st0;" x1="43.5" y1="157.92" x2="43.5" y2="172.92"/>
		<line style="&st0;" x1="21" y1="152.42" x2="21" y2="167.92"/>
		<line style="&st0;" x1="4" y1="142.92" x2="4" y2="158.42"/>
		<polyline style="&st0;" points="22.5,94.42 44.5,89.42 44.5,30.92 "/>
		<polyline style="&st0;" points="35.5,127.92 35.5,122.42 112,105.42 "/>
		<polyline style="&st0;" points="43,129.55 43,124.92 112,109.92 "/>
		<polyline style="&st0;" points="2.5,112.42 2.5,106.42 109,84.42 "/>
		<line style="&st0;" x1="35.5" y1="122.42" x2="43" y2="124.92"/>
		<line style="&st0;" x1="2.5" y1="106.42" x2="5.5" y2="110.92"/>
		<path style="&st0;" d="M112,48.42c-5.5-4.5-20-12-33-15s-29.5-2.5-40-2.5l-8-2.5l-0.5-15c14.5,0.5,38.5,4.5,48,7s28.5,9.5,33.5,12
			"/>
		<line style="&st0;" x1="10" y1="96.42" x2="24" y2="101.67"/>
		<line style="&st0;" x1="41.5" y1="109.05" x2="61" y2="116.67"/>
		<line style="&st0;" x1="78.5" y1="122.92" x2="104" y2="132.42"/>
		<line style="&st0;" x1="60" y1="83.92" x2="77.75" y2="90.67"/>
		<line style="&st0;" x1="92.75" y1="98.42" x2="111" y2="105.67"/>
		<line style="&st0;" x1="140.22" y1="117.27" x2="150" y2="120.92"/>
		<line style="&st0;" x1="44.25" y1="130.17" x2="111.95" y2="115.68"/>
		<polyline style="&st0;" points="5.5,115.92 5.5,110.92 112,88.92 "/>
		<line style="&st0;" x1="111.88" y1="94.3" x2="6.29" y2="116.26"/>
		<polyline style="&st0;" points="140.52,110.5 160.45,105.18 160.45,99.18 "/>
		<line style="&st0;" x1="140.5" y1="104.42" x2="160.45" y2="99.18"/>
		<line style="&st0;" x1="140.42" y1="100.69" x2="155.5" y2="96.92"/>
		<line style="&st0;" x1="155.5" y1="96.92" x2="160.45" y2="99.18"/>
		<path style="&st0;" d="M37.5,12.42c14.5,0.5,38.5,4.5,48,7c7.18,1.89,19.72,6.28,27.33,9.15"/>
		<path style="&st0;" d="M125.5,53.42v-17.5c2.25,1,5.5,2,5.5,5c0,3.5,0,5.5,0,8S128.5,53.42,125.5,53.42z"/>
		<path style="&st0;" d="M128.5,35.92c2.5,0.75,5.5,2,5.5,5c0,3.5,0,5.5,0,8s-2.5,4.5-5.5,4.5"/>
		<line style="&st0;" x1="30.5" y1="13.42" x2="37.5" y2="12.42"/>
		<line style="&st0;" x1="125.5" y1="53.42" x2="128.5" y2="53.42"/>
		<line style="&st0;" x1="125.5" y1="35.92" x2="128.5" y2="35.92"/>
		<line style="&st0;" x1="18.04" y1="3.5" x2="22.5" y2="5.42"/>
		<line style="&st0;" x1="113.33" y1="29.26" x2="116.67" y2="30.92"/>
		<line style="&st0;" x1="38.87" y1="3" x2="43.33" y2="4.92"/>
	</g>
</svg>
