<?xml version="1.0" encoding="iso-8859-1"?>
<!-- Generator: Adobe Illustrator 11 Build 196, SVG Export Plug-In . SVG Version: 6.0.0 Build 78)  -->
<!DOCTYPE svg PUBLIC "-//W3C//DTD SVG 1.0//EN"    "http://www.w3.org/TR/2001/REC-SVG-20010904/DTD/svg10.dtd" [
	<!ENTITY ns_flows "http://ns.adobe.com/Flows/1.0/">
	<!ENTITY ns_svg "http://www.w3.org/2000/svg">
	<!ENTITY ns_xlink "http://www.w3.org/1999/xlink">
	<!ENTITY st0 "stroke:#000000;stroke-width:1.1765;stroke-linecap:round;stroke-linejoin:round;stroke-miterlimit:2;">
	<!ENTITY st1 "fill:none;stroke:#000000;stroke-width:1.1765;stroke-linecap:round;stroke-linejoin:round;stroke-miterlimit:2;">
	<!ENTITY st2 "stroke:#000000;stroke-width:1.1765;stroke-linecap:round;stroke-linejoin:round;">
]>
<svg  xmlns="&ns_svg;" xmlns:xlink="&ns_xlink;" xmlns:a="http://ns.adobe.com/AdobeSVGViewerExtensions/3.0/"
	 width="169.23" height="167.06" viewBox="0 0 169.23 167.06" style="overflow:visible;enable-background:new 0 0 169.23 167.06"
	 xml:space="preserve">
	<g id="Layer_1">
		<path style="&st1;" d="M45.91,141.76c-1.18-3.53-2.35-7.06-3.53-10.59c3.29-6.47,2.71-14.47,9.41-20 M51.79,111.18
			c-1.98-2.43-3.82-4.85-3.53-8.24c-6.24,4.47-8.94,8.24-9.41,12.94c-1.77,15.29-1.62,37.13,0.15,48.9 M48.27,102.94
			c-5.5,0.96-14.56,1.25-20.44,4.78c-5.61,8.2-4.56,47.43-4.12,57.06 M54.29,100.96c-1.53,0-4.5,1.98-6.03,1.98 M62.38,77.06
			c-5.59,0.52-11.29,0.35-14.12,5.88c-1.41,5.53-2.35,14.63,2.28,19.26 M143.56,40.59c1.18,3.53,2.35,7.06,3.53,10.59
			c2.35,4.71,4.71,9.41,7.06,14.12c-2.71,5.06-1.76,11.76-8.24,15.29c0,1.99,0.93,6.72,0.93,8.7c0,2.72-0.93,2.7-0.93,5.42
			c3.28,4.39,0.15,5.56-4.09,7.01c-1.39,2.37-2.78,4.74-4.14,7.1c3.18,3.18,6.23,6.24,9.41,9.41c5.64-1.1,8.77,2.43,9.41,5.88
			c0.35,2,0.82,3.88,1.18,5.88c5.64,3.21,8.75,10.37,9.41,15.29c0.47,3.46,2.35,11.06,1.18,17.65 M157.68,130 M156.5,124.12
			c-2.3,0.54-4.71,3.53-4.71,3.53c-6.69,11.4-10.94,24.35-16.47,36.47 M111.06,164.49c1.77-5.59,3.09-10.13,4.27-14.49
			c7.1-3.72,23.32-8.03,27.06-16.47c2.06-5.22,3.18-10.24,4.71-15.29 M115.32,150c-4.35,2-8.59,3.88-12.94,5.88
			c-1.18,2.71-3.38,6.49-4.56,9.19 M102.38,155.88c-3.18,0.82-6.24,1.53-9.41,2.35c-0.35,1.53-2.74,5.01-3.09,6.54 M92.97,158.24
			c-7.67-0.99-8.09,0.37-14.93-4.93c-12.27,0.46-15.35-3.24-22.72-6.84c0.35,5.06,0.97,10.6,1.32,15.66 M55.32,146.47
			c-0.88-1.41-1.99-4.25-2.79-4.93c-3.53-1.47-4.23,0.49-6.62,0.22c0.82,7.88,1.53,15.65,2.35,23.53 M143.56,40.59
			C130.45-0.9,74.29,1.25,62.38,0.59C50.97,6.94,37.68,18.71,36.5,32.35c4.99,14.64,17.47,30.91,25.88,44.71
			c0.76,1.24,1.47,1.4,2.35,1.69 M27.82,107.72c-2.47,1.18-1.71,1.37-4.26,3.46C9.81,122.43-2.32,143.53,1.21,166.47 M132.97,40.59
			c0.71,3.76,13.53,10,14.12,10.59 M96.5,54.71c-5.76,10.59-14.47,23.53-17.65,31.77 M138.85,55.88c3.29,5.53,3.18,12.59,4.71,18.82
			c0.35,1.41,2.35,4.12,2.35,5.88 M71.79,58.23c1.03,10.96-0.22,26.54,3.9,36.84c1.51,3.77,0.59,0.82,1.76-5.88 M54.52,80.37
			c-1.47-0.29-2.65,0.59-2.94,1.47c-0.88,1.76-2.35,3.53-0.96,5.81c9.43,15.38,18.82,30.82,31.76,44.71 M55.32,105.29
			c5.88,9.41,5.06,22.59,17.65,28.24c2.55,1.14,4.26,3.6,5.88,4.71c3.61,2.46,7.88,3.88,11.77,5.88 M50.62,118.24
			c-0.12,6.94,7.09,17.6,8.38,18.9 M115.54,136.47c-0.47-0.78-6.96-4.44-10.66-3.46c-5.14-1.82-9.71-3.24-15-5.88 M92.82,132.13
			c-5-2.65-1.77-2.06-2.94-5 M117.68,135.88c3.09,0.07,6.62-2.87,8.24-4.71c2.91-3.31,7.53-2.71,10.59-5.88 M58.85,141.76
			c3.65,6.47,22.5,7.13,31.03,2.72 M104,144.49c-6.12,3.76-16.47,8.53-25.96,8.82 M78.04,153.31c-1.72,3.44-5.44,6.25-5.81,11.47
			 M58.93,80.66c-1.18-0.29-1.99,1.27-2.43,2.28c-2.9,6.62,12.21,21.54,20,27.06c4.26,0.96,5.53,0,9.41,0
			c-2.29-2.29-14.81-13.61-21.4-21.99c-4.12-3.82-2.05-7.64-2.94-8.53 M51.79,111.18c-0.67-1.05,12.38,18.38,8.24,20
			c1.41-1.18,7.41,12.94,15.29,12.94c5.06,0,10.24,0,15.29,0c7.88-2.35,15.65-4.71,23.53-7.06c1.18-0.35,2.35-0.82,3.53-1.18
			c3.18,2.71,8.09-1.46,10.44-4.04 M114.07,77.21c-2.79-1.4-5.17-2.79-7.62-3.21c-1.68-0.28-3.4-0.11-5.32,0.85
			c-2.97,2.97-6.44,3.37-8.94,5.91 M85.96,98.31c0,1.18,2.23,2.43,2.23,3.6c1.18,2.35,0.07,6.91-2.28,8.09
			c8.39,6.53,33.43,19,38.68,5.37c0.65-1.68,1.54-5.34,2.94-10c0.21-0.71,0.4-1.46,0.56-2.22 M135.25,76.03
			c-7.06-7.06-20.56-4.38-28.8-2.03 M104.81,113.68c0,1.18-1.18,1.18-2.35,1.18C103.63,114.85,104.81,114.85,104.81,113.68
			c2.35,3.53,10.27,6.33,11.54,4.63c0.88-1.18,3.75-21.1,2.57-30.51"/>
		<path style="&st1;" d="M133.63,102.57c-0.25,2.03,3.8,5.93,4.04,6.25"/>
		<path style="&st0;" d="M92.19,80.76c-2.31,1.15-2.09,0.86-3.26,1.74c-1.47,1.18-2.13,2.87-3.01,4.04
			c-0.88,1.18-1.32,2.06-1.62,3.53c-0.29,2.35-0.37,4.04-0.37,6.4c0.29,0.59,0.44,1.4,2.03,2.13c0.25-2.35-1.74-2.65,0.61-3.82
			c0,0,1.99,0.37,4.34,2.87c-0.51-4.34-4.49-8.68-1.54-8.68c0,0-0.72-0.72,1.91,1.32c3.49,2.72,1.25,2.79,4.04,3.24
			c-4.36-6.54-6.7-4.69-4.78-10.44C91.02,82.14,91.58,81.38,92.19,80.76"/>
		<path style="&st2;" d="M89.37,88.97"/>
		<path style="&st0;" d="M101.43,83.89c0.78-0.77,2.61-0.46,4.33,2.06c0.16,0.93,2.74,4.09,2.43,4.48
			c-0.37,0.45-3.71-1.94-4.78-2.13C100.92,86.52,100.65,84.67,101.43,83.89z"/>
		<path style="&st0;" d="M124.88,91.84c0.18-0.03-0.14-2.81-0.32-4.07C123.61,89.75,122.97,90.35,124.88,91.84z"/>
		<path style="&st0;" d="M135.15,76c0.78,0.29,2.38,1.69,2.97,2.28c0.49,0.39,0.39,1.18,0.59,1.76c0.2,1.18,1.37,1.67,1.96,2.65
			c0.69,1.27,1.67,2.16,2.06,3.53c0.1,0.49-0.1,1.08,0,1.57c0.2,1.08,0.39,1.96,0.59,3.04c0.2,0.98,0.2,2.06,0,3.04
			c0,0.29-0.2,0.59-0.39,0.88c-0.39,0.39-1.08,0.49-1.37,0.79c-0.39,0.39-0.59,0.88-0.98,0.98c-1.67,0.78-3.04,1.86-4.8,2.35
			c-0.88,1.08-1.86,2.25-1.96,3.73c-1.76-0.29-4.05,0.43-5.81,0.52c1.27-9.64,3.45-10.22-3.43-15.35c2.35,0,4.71-1.18,7.06-2.35
			c2.35-1.18,1.18-4.71,1.18-5.88c-2.35-3.53-5.88,0-8.24,0c3.53-1.18,5.88-3.53,9.41-1.18C133.98,78.35,136.33,77.18,135.15,76"/>
		<path style="&st1;" d="M157.79,129.96c-0.06-0.02-0.11-0.05-0.17-0.07"/>
		<path style="&st1;" d="M157.79,129.96c-1.93-0.86-3.88-2.71-5.88-2.35"/>
	</g>
</svg>
