<?xml version="1.0" encoding="iso-8859-1"?>
<!-- Generator: Adobe Illustrator 11 Build 196, SVG Export Plug-In . SVG Version: 6.0.0 Build 78)  -->
<!DOCTYPE svg PUBLIC "-//W3C//DTD SVG 1.0//EN"    "http://www.w3.org/TR/2001/REC-SVG-20010904/DTD/svg10.dtd" [
	<!ENTITY ns_flows "http://ns.adobe.com/Flows/1.0/">
	<!ENTITY ns_svg "http://www.w3.org/2000/svg">
	<!ENTITY ns_xlink "http://www.w3.org/1999/xlink">
	<!ENTITY st0 "fill:none;stroke:#000000;stroke-linecap:round;stroke-linejoin:round;">
]>
<svg  xmlns="&ns_svg;" xmlns:xlink="&ns_xlink;" xmlns:a="http://ns.adobe.com/AdobeSVGViewerExtensions/3.0/"
	 width="194.5" height="95.5" viewBox="0 0 194.5 95.5" style="overflow:visible;enable-background:new 0 0 194.5 95.5"
	 xml:space="preserve">
	<g id="Layer_1">
	</g>
	<g id="Pfade">
		<path style="&st0;" d="M23,27.5h-2.25l0,0c-1.24,0-2.25-1.01-2.25-2.25l0,0c0-1.24,1.01-2.25,2.25-2.25l0,0H25
			c1.38,0,2.5,1.12,2.5,2.5v4c0,1.38-1.12,2.5-2.5,2.5h-8.5c-1.38,0-2.5-1.12-2.5-2.5V21c0-1.38,1.12-2.5,2.5-2.5h13
			c1.38,0,2.5,1.12,2.5,2.5v13c0,1.38-1.12,2.5-2.5,2.5H12c-1.38,0-2.5-1.12-2.5-2.5V16.5c0-1.38,1.12-2.5,2.5-2.5h22
			c1.38,0,2.5,1.12,2.5,2.5v22c0,1.38-1.12,2.5-2.5,2.5H7.5C6.12,41,5,39.88,5,38.5V12c0-1.38,1.12-2.5,2.5-2.5h31
			c1.38,0,2.5,1.12,2.5,2.5v31c0,1.38-1.12,2.5-2.5,2.5H3c-1.38,0-2.5-1.12-2.5-2.5V7.5C0.5,6.12,1.62,5,3,5h40
			c1.38,0,2.5,1.12,2.5,2.5V88c0,1.38,1.12,2.5,2.5,2.5h40c1.38,0,2.5-1.12,2.5-2.5V52.5c0-1.38-1.12-2.5-2.5-2.5H52.5
			c-1.38,0-2.5,1.12-2.5,2.5v31c0,1.38,1.12,2.5,2.5,2.5h31c1.38,0,2.5-1.12,2.5-2.5V57c0-1.38-1.12-2.5-2.5-2.5H57
			c-1.38,0-2.5,1.12-2.5,2.5v22c0,1.38,1.12,2.5,2.5,2.5h22c1.38,0,2.5-1.12,2.5-2.5V61.5c0-1.38-1.12-2.5-2.5-2.5H61.5
			c-1.38,0-2.5,1.12-2.5,2.5v13c0,1.38,1.12,2.5,2.5,2.5h13c1.38,0,2.5-1.12,2.5-2.5V66c0-1.38-1.12-2.5-2.5-2.5H66
			c-1.38,0-2.5,1.12-2.5,2.5v4c0,1.38,1.12,2.5,2.5,2.5h4.25l0,0c1.24,0,2.25-1.01,2.25-2.25l0,0c0-1.24-1.01-2.25-2.25-2.25l0,0H68
			"/>
		<path style="&st0;" d="M72.5,27.5h-2.25l0,0c-1.24,0-2.25-1.01-2.25-2.25l0,0c0-1.24,1.01-2.25,2.25-2.25l0,0h4.25
			c1.38,0,2.5,1.12,2.5,2.5v4c0,1.38-1.12,2.5-2.5,2.5H66c-1.38,0-2.5-1.12-2.5-2.5V21c0-1.38,1.12-2.5,2.5-2.5h13
			c1.38,0,2.5,1.12,2.5,2.5v13c0,1.38-1.12,2.5-2.5,2.5H61.5c-1.38,0-2.5-1.12-2.5-2.5V16.5c0-1.38,1.12-2.5,2.5-2.5h22
			c1.38,0,2.5,1.12,2.5,2.5v22c0,1.38-1.12,2.5-2.5,2.5H57c-1.38,0-2.5-1.12-2.5-2.5V12c0-1.38,1.12-2.5,2.5-2.5h31
			c1.38,0,2.5,1.12,2.5,2.5v31c0,1.38-1.12,2.5-2.5,2.5H52.5c-1.38,0-2.5-1.12-2.5-2.5V7.5C50,6.12,51.12,5,52.5,5h40
			C93.88,5,95,6.12,95,7.5V88c0,1.38,1.12,2.5,2.5,2.5h40c1.38,0,2.5-1.12,2.5-2.5V52.5c0-1.38-1.12-2.5-2.5-2.5H102
			c-1.38,0-2.5,1.12-2.5,2.5v31c0,1.38,1.12,2.5,2.5,2.5h31c1.38,0,2.5-1.12,2.5-2.5V57c0-1.38-1.12-2.5-2.5-2.5h-26.5
			c-1.38,0-2.5,1.12-2.5,2.5v22c0,1.38,1.12,2.5,2.5,2.5h22c1.38,0,2.5-1.12,2.5-2.5V61.5c0-1.38-1.12-2.5-2.5-2.5H111
			c-1.38,0-2.5,1.12-2.5,2.5v13c0,1.38,1.12,2.5,2.5,2.5h13c1.38,0,2.5-1.12,2.5-2.5V66c0-1.38-1.12-2.5-2.5-2.5h-8.5
			c-1.38,0-2.5,1.12-2.5,2.5v4c0,1.38,1.12,2.5,2.5,2.5h4.25l0,0c1.24,0,2.25-1.01,2.25-2.25l0,0c0-1.24-1.01-2.25-2.25-2.25l0,0
			h-2.25"/>
		<path style="&st0;" d="M122,27.5h-2.25l0,0c-1.24,0-2.25-1.01-2.25-2.25l0,0c0-1.24,1.01-2.25,2.25-2.25l0,0H124
			c1.38,0,2.5,1.12,2.5,2.5v4c0,1.38-1.12,2.5-2.5,2.5h-8.5c-1.38,0-2.5-1.12-2.5-2.5V21c0-1.38,1.12-2.5,2.5-2.5h13
			c1.38,0,2.5,1.12,2.5,2.5v13c0,1.38-1.12,2.5-2.5,2.5H111c-1.38,0-2.5-1.12-2.5-2.5V16.5c0-1.38,1.12-2.5,2.5-2.5h22
			c1.38,0,2.5,1.12,2.5,2.5v22c0,1.38-1.12,2.5-2.5,2.5h-26.5c-1.38,0-2.5-1.12-2.5-2.5V12c0-1.38,1.12-2.5,2.5-2.5h31
			c1.38,0,2.5,1.12,2.5,2.5v31c0,1.38-1.12,2.5-2.5,2.5H102c-1.38,0-2.5-1.12-2.5-2.5V7.5c0-1.38,1.12-2.5,2.5-2.5h40
			c1.38,0,2.5,1.12,2.5,2.5V88c0,1.38,1.12,2.5,2.5,2.5h40c1.38,0,2.5-1.12,2.5-2.5V52.5c0-1.38-1.12-2.5-2.5-2.5h-35.5
			c-1.38,0-2.5,1.12-2.5,2.5v31c0,1.38,1.12,2.5,2.5,2.5h31c1.38,0,2.5-1.12,2.5-2.5V57c0-1.38-1.12-2.5-2.5-2.5H156
			c-1.38,0-2.5,1.12-2.5,2.5v22c0,1.38,1.12,2.5,2.5,2.5h22c1.38,0,2.5-1.12,2.5-2.5V61.5c0-1.38-1.12-2.5-2.5-2.5h-17.5
			c-1.38,0-2.5,1.12-2.5,2.5v13c0,1.38,1.12,2.5,2.5,2.5h13c1.38,0,2.5-1.12,2.5-2.5V66c0-1.38-1.12-2.5-2.5-2.5H165
			c-1.38,0-2.5,1.12-2.5,2.5v4c0,1.38,1.12,2.5,2.5,2.5h4.25l0,0c1.24,0,2.25-1.01,2.25-2.25l0,0c0-1.24-1.01-2.25-2.25-2.25l0,0
			H167"/>
		<path style="&st0;" d="M0.5,90.5h38c1.38,0,2.5-1.12,2.5-2.5V52.5c0-1.38-1.12-2.5-2.5-2.5H3c-1.38,0-2.5,1.12-2.5,2.5v31
			C0.5,84.88,1.62,86,3,86h31c1.38,0,2.5-1.12,2.5-2.5V57c0-1.38-1.12-2.5-2.5-2.5H7.5C6.12,54.5,5,55.62,5,57v22
			c0,1.38,1.12,2.5,2.5,2.5h22c1.38,0,2.5-1.12,2.5-2.5V61.5c0-1.38-1.12-2.5-2.5-2.5H12c-1.38,0-2.5,1.12-2.5,2.5v13
			c0,1.38,1.12,2.5,2.5,2.5h13c1.38,0,2.5-1.12,2.5-2.5V66c0-1.38-1.12-2.5-2.5-2.5h-8.5c-1.38,0-2.5,1.12-2.5,2.5v4
			c0,1.38,1.12,2.5,2.5,2.5h4.25l0,0c1.24,0,2.25-1.01,2.25-2.25l0,0c0-1.24-1.01-2.25-2.25-2.25l0,0H18.5"/>
		<path style="&st0;" d="M171.25,27.5H169l0,0c-1.24,0-2.25-1.01-2.25-2.25l0,0c0-1.24,1.01-2.25,2.25-2.25l0,0h4.25
			c1.38,0,2.5,1.12,2.5,2.5v4c0,1.38-1.12,2.5-2.5,2.5h-8.5c-1.38,0-2.5-1.12-2.5-2.5V21c0-1.38,1.12-2.5,2.5-2.5h13
			c1.38,0,2.5,1.12,2.5,2.5v13c0,1.38-1.12,2.5-2.5,2.5h-17.5c-1.38,0-2.5-1.12-2.5-2.5V16.5c0-1.38,1.12-2.5,2.5-2.5h22
			c1.38,0,2.5,1.12,2.5,2.5v22c0,1.38-1.12,2.5-2.5,2.5h-26.5c-1.38,0-2.5-1.12-2.5-2.5V12c0-1.38,1.12-2.5,2.5-2.5h31
			c1.38,0,2.5,1.12,2.5,2.5v31c0,1.38-1.12,2.5-2.5,2.5h-35.5c-1.38,0-2.5-1.12-2.5-2.5V7.5c0-1.38,1.12-2.5,2.5-2.5h40
			c1.38,0,2.5,1.12,2.5,2.5V88"/>
		<line style="&st0;" x1="0.5" y1="0.5" x2="194" y2="0.5"/>
		<line style="&st0;" x1="0.5" y1="95" x2="194" y2="95"/>
	</g>
</svg>
