<?xml version="1.0" encoding="iso-8859-1"?>
<!-- Generator: Adobe Illustrator 11 Build 196, SVG Export Plug-In . SVG Version: 6.0.0 Build 78)  -->
<!DOCTYPE svg PUBLIC "-//W3C//DTD SVG 1.0//EN"    "http://www.w3.org/TR/2001/REC-SVG-20010904/DTD/svg10.dtd" [
	<!ENTITY ns_flows "http://ns.adobe.com/Flows/1.0/">
	<!ENTITY ns_svg "http://www.w3.org/2000/svg">
	<!ENTITY ns_xlink "http://www.w3.org/1999/xlink">
	<!ENTITY st0 "fill:none;stroke:#000000;">
]>
<svg  xmlns="&ns_svg;" xmlns:xlink="&ns_xlink;" xmlns:a="http://ns.adobe.com/AdobeSVGViewerExtensions/3.0/"
	 width="315.96" height="209.34" viewBox="0 0 315.96 209.34" style="overflow:visible;enable-background:new 0 0 315.96 209.34"
	 xml:space="preserve">
	<g id="Layer_1">
		<g id="Layer_2">
			
				<image style="display:none;" width="325" height="231" id="XMLID_1_" xlink:href="82BC5495.jpg"  transform="matrix(2.25 0 0 2.25 -205.8726 -154.4619)"/>
			<path style="&st0;" d="M315.89,117.46c-5.37,0.12-10.71,1.14-16.09,1.08c-5.77-0.06-10.72-3.78-16.35-4.09
				c-5-0.28-10.43-1.23-15.35,0.27c-7.33,2.23-8.01,2.1-8.07-7.73c-0.04-5.85-2.38-14.21,0.76-19.14c3.78-5.93,7.73-5.39,12.93-5.71
				c14.04-0.85,27.9,1.89,42.18,1.89"/>
			<path style="&st0;" d="M315.89,2.85c-7.25,0-14.5,0.14-21.74,0.68c-6.65,0.5-5.78,8.81-4.21,15.25
				c1.82,7.49,7.16,14.07,11.15,19.78c4.86,6.94,8.85,1.58,14.8,1.7"/>
			<path style="&st0;" d="M253.07,4.45c-6.32,0-12.8,0.52-19.09-0.29c-1.98-0.25-13-3.25-14.75,0.15c-0.46,0.89,6.71,7.67,7.4,8.45
				c5.15,5.82,10.47,2.59,16.7,1.99c10.1-0.97,20.17,0.48,30.27-0.05c3.59-0.19,7.42-0.44,10.83-2.04c3.24-1.52,4.99-7.53,0.49-9.09
				C275.51,0.32,262.75,4.45,253.07,4.45"/>
			<path style="&st0;" d="M231.46,28.42c-0.01,3.52-4.98,17.03-0.84,18.19c5.92,1.66,13.13-0.47,19.14-0.92
				c8.74-0.64,17.41-1.86,26.17-2.23c4.85-0.2,20.32,1.79,20.84-7.69c0.29-5.23-7.18-11.29-8.3-16.61
				c-1.81-8.6-14.06-3.42-19.54-3.51c-8.19-0.13-16.39-0.52-24.58,0.02C236.25,16.22,231.5,17.09,231.46,28.42"/>
			<path style="&st0;" d="M187.49,3.84c8.22-0.46,20.51-3.7,28.16,1c5.84,3.59,17.55,13.11,14.48,23.58
				c-2.36,8.08-1.38,19.36-10.6,19.05c-11.91-0.4-23.17-4.13-35.26-2.9c-7.57,0.77-16.01,2.65-23.61,1.47
				c-10.75-1.68-3.75-14.21-2.2-21.92c1.27-6.31,0.55-18.48,6.94-19.46C172.73,3.53,180.15,4.25,187.49,3.84"/>
			<path style="&st0;" d="M152.95,4.32c11.25,2.51,2.94,31.01-2.02,38.56c-2.62,3.99-9.05,1.55-12.48,0.68
				c-6.79-1.72-8.99-7.21-13.41-13.3c-2.17-2.99-8.12-9.79-8.77-14.13c-0.93-6.21,6.73-11.67,10.75-11.8
				C135.28,4.06,144.78,2.49,152.95,4.32"/>
			<path style="&st0;" d="M315.89,41.85c-3.04-0.17-5.69,1.84-8.76,2.13c-5.43,0.52-7.19-4-13.41-1.77
				c-3.36,1.21-9.38,0.51-11.75,4.41c-3.02,4.98,0.2,10.71,1.21,15.78c1.31,6.57,1.08,15.54,7.16,18.09
				c7.76,3.26,17.58,1.13,25.54,0.74"/>
			<path style="&st0;" d="M279.63,52.07c1.79,10.56,9.82,30.13-5.02,28.76c-5.37-0.49-4.59-5.35-8.77-7.33
				c-4.04-1.92-8.49-1.99-12.45-4.19c-5.63-3.12-3.23-7.8-2.84-13.71c0.5-7.59,3.44-9.12,9.24-9.61c4.47-0.37,8.79-1.15,13.29-1.22
				C280.58,44.66,278.4,44.81,279.63,52.07"/>
			<path style="&st0;" d="M195.9,81.61c4.84-0.35,8.14,0.43,6.06-6.58c-1.54-5.2-1.63-11.58-2.26-17.05
				c-1.63-14.21-11.34-10.96-20.5-10.63c-8.32,0.3-15.64,0.51-24.33-0.52c-4.23-0.5-8.51-1.23-12.87-1.52
				c-12.41-0.83-26.29-2.68-38.14,3.19C93.43,53.69,92.6,65.19,94,77.63c0.75,6.64-0.4,15.54,4.5,20.04
				c5.16,4.75,12.75,3.77,18.74,3.94c15.24,0.42,25.52-4.02,39.51-10.25C169.79,85.55,182.14,82.6,195.9,81.61"/>
			<path style="&st0;" d="M147.48,119.66c-0.55-9.76-9.12-15.29,0.93-22.06c7.69-5.17,17.09-7.87,25.5-10.32
				c14.18-4.13,34.32-9.74,47.93-0.12c6.54,4.62,7.88,14.35,3.11,21.75c-5.14,7.98-16.87,5.8-23.96,6.12
				c-10.43,0.48-21.08,1.02-31.46,2.28C166.29,117.72,147.8,125.52,147.48,119.66"/>
			<path style="&st0;" d="M244.66,46.93c-8.92,0.82-18.2,2.22-27.13,1.31c-3-0.31-18.33-5.69-17.46,1.74
				c0.93,7.94,1.38,19.7,4.16,26.74c1.8,4.55,5.4,4.98,8.94,5.74c5.34,1.14,9.57,4.41,14.62,6.58c4.76,2.04,8.58-0.46,13.11-1.95
				c4.1-1.35,8.13-0.15,12.15,1.01c4.66,1.34,20.08-9.01,12.12-13.55c-4.63-2.64-18.31-2.23-17.07-11.99
				C248.84,56.73,252.86,46.17,244.66,46.93"/>
			<path style="&st0;" d="M254.66,129.8c-2.37,8.21,0.44,11.83-8.06,12.44c-5.13,0.37-11.17,0.54-16.2-1.12
				c-7.33-2.42-7.06-11.98-6.81-19.91c0.26-8.24,4.21-12.24,5.59-19.84c0.41-2.26-0.67-4.54-0.13-6.89
				c0.71-3.14,6.44-4.25,8.53-5.22c4.46-2.06,14.72-3.27,18.76,1.19C263.8,98.68,257.31,120.62,254.66,129.8"/>
			<path style="&st0;" d="M315.89,120.24c-6.06,0-12.12,0.26-18.18-0.2c-6.95-0.53-13.07-4.41-20.1-4.54
				c-6.97-0.14-16.25-0.51-19.73,8.85c-3.48,9.37-2.62,15.27,3.45,21.8c3.7,3.98,2.64,14.63,7.73,16.49
				c6.3,2.3,14.93-1.46,21.3-2.21c8.9-1.05,16.77,1.13,25.54,2.39"/>
			<path style="&st0;" d="M315.89,207c-16.71,0.49-33.43,0.19-50.14-0.1c-8.61-0.15-17.23-0.3-25.84-0.37
				c-0.76-0.01-7.91,1.45-6.78-2.59c1.34-4.79,4.87-9.85,7.65-13.44c9.38-12.1,20.17-24.83,33.67-26.15
				c14.02-1.37,27.46-1.11,41.43,0.86"/>
			<path style="&st0;" d="M174.3,205.08c0.65-12.87,6.08-28.31,10.06-40.17c5.47-16.32,14.03-18.38,26.97-20.24
				c10.6-1.53,19.64-1.68,30.41-1.39c10.35,0.28,19.59-2,21.79,14.09c1.44,10.5-11.87,19.43-17.54,24.92
				c-6.32,6.1-10.8,20.75-18.08,24.19c-6.45,3.05-15.68,0.55-22.37,0.57C201.81,207.07,174.05,210.01,174.3,205.08"/>
			<path style="&st0;" d="M190.07,120.91c3.78-7.89,24.92-6.58,30.45-4.23c2.91,1.24,1.57,12.52,1.85,15.33
				c0.7,6.9-2.8,9.75-7.69,10.87c-4.31,0.98-21.15,7.3-24.19,1.68C187.75,139.47,187.48,126.34,190.07,120.91"/>
			<path style="&st0;" d="M140.75,141.17c2.46-6.29,4.06-11.97,9.07-15.62c7.21-5.25,16.17-6.97,24.36-7.72
				c6.65-0.61,13.86-1.56,13.19,9.27c-0.54,8.65,3.95,19.45,0.3,26.53c-2.69,5.2-4.64,16.21-8.6,19.55
				c-4.51,3.8-13.76,3.28-19.01,3.43c-8.04,0.24-14.19-0.65-17.54-10.27C139.56,157.85,137.12,150.45,140.75,141.17"/>
			<path style="&st0;" d="M142.43,205.57c-1.63-3.19,0.49-10.93,0.86-14.28c0.55-4.95-1.43-15.2,4.29-14.61
				c3.65,0.38,7.31,1.25,10.97,1.35c5.89,0.17,12.42-2.37,18.15-1.5c5.18,0.78,0.53,9.62-0.51,12.36c-1.41,3.7-1.4,16.16-4.28,17.98
				C168.58,208.98,144.93,210.45,142.43,205.57"/>
			<path style="&st0;" d="M104.94,165.56c2.25-7.46,25.74-8.87,30.88-6.9c5.43,2.08,11.47,26.93,5.01,28.81
				c-8.38,2.44-18.34,0.81-26.86,0.57c-3.29-0.09-10.6,2.47-10.32-5.02C103.95,174.86,103.28,171.05,104.94,165.56"/>
			<path style="&st0;" d="M138.73,207.22c-17.43-0.8-34.88-0.41-52.32-0.66c-1.92-0.03-19.01,1.23-17.21-3.67
				c1.53-4.15,7.25-11.78,10.91-12.93c13.96-4.37,31.43-0.09,45.76-0.32c4.89-0.08,10.21-1.23,15.06-0.22
				C143.09,189.88,140.53,207.31,138.73,207.22"/>
			<path style="&st0;" d="M14.81,3.69C17.1-2.71,29.15,2.42,33,2.89c9.64,1.18,20.16-0.5,29.91-0.47
				c10.71,0.03,21.38,0.73,32.07,1.35c2.53,0.15,22.8-1.88,23.85,1.31c3.5,10.67-13.52,9.52-16.63,9.16
				c-12.41-1.46-25.17-0.56-37.62-0.56c-11.33,0-22.66-0.65-33.98-1.46C25.74,11.86,10.86,14.73,14.81,3.69"/>
			<path style="&st0;" d="M0.81,2.94c12.5,0,11.98,2.77,11.34,17.96c-0.29,7-0.98,14.39-0.4,21.38c0.78,9.32-5.58,8.78-10.95,9.52"
				/>
			<path style="&st0;" d="M61.88,42.18c-5.73,11.19-22.23,10.62-31.56,10.68c-5.45,0.04-11.65-1.1-13.79-8.5
				c-1.68-5.8-3.16-17.22-2.84-23.52c0.73-14.32,28.84-6.38,36.49-6.27c4.33,0.06,12.06-2.45,14.31,3.97
				C66.44,24.1,64.45,37.17,61.88,42.18"/>
			<path style="&st0;" d="M92.47,49.08c7.88-0.06,15.01-4.4,22.75-5.28c2.74-0.31,16.25,1.06,12.42-6.74
				c-2.94-5.98-7.51-13.39-11.89-17.81c-4.84-4.88-13.21-3.44-18.91-3.78C83.79,14.7,65.6,9.59,64.89,31.92
				c-0.16,5.09-1.22,12.12,2.98,15.18C74.37,51.83,85.32,49.13,92.47,49.08"/>
			<path style="&st0;" d="M30.45,62.2c0.99-8.78,10.77-7.81,15.8-9.21C57.12,49.96,67.98,50.83,79,50.9
				c8.65,0.05,14.76-0.13,13.26,12.98c-1.35,11.74,2.8,23.75,0.74,35.28c-1.3,7.27-13.63,5.88-18.28,6.63
				c-5.67,0.92-15.2,7.92-20.63,6.05c-4.56-1.57-12.03-13.51-14.46-18.3C34.66,83.79,29.06,74.51,30.45,62.2"/>
			<path style="&st0;" d="M0.81,54.98c5.95,0,22.4-5.39,26.9,1.1c1.21,1.74-0.08,5.13,0.05,7.15c0.35,5.69,0.2,11.63,2.14,16.95
				c3.32,9.06,7.51,19.78-4.15,21.92c-7.74,1.42-17.14,1.4-24.93,0.64"/>
			<path style="&st0;" d="M38.35,98.93c9.58,0.56,23.74,28.89,5.07,22.8C36.58,119.5,25.21,98.16,38.35,98.93"/>
			<path style="&st0;" d="M75.71,107.34c11.99-2.74,24.2-3.55,36.36-3.88c8.56-0.23,19.22-3.33,27.32,1.36
				c10.74,6.21,5.43,20.13,2.39,29.19c-5.31,15.84-8.2,23.13-22.39,24.49c-8.45,0.81-18.27-0.29-28.18-0.58
				c-4.77-0.14-9.56-1.49-14.23-1.84c-7.64-0.57-14.96-0.53-21.32-3.6c-9.86-4.76-13.44-15.01-6.75-26.2
				c1.12-1.6,2.51-2.63,4.19-3.09c2.97-1.79,2.95-6.5,5.55-8.99C63.53,109.53,69.89,108.67,75.71,107.34"/>
			<path style="&st0;" d="M0.81,105.12c4.5-0.01,12.32-0.49,19.03-0.34c4.95,0.11,9.28-0.23,11.21,4.31
				c2.29,5.41,5.32,9.89,9.69,12.68c7.17,4.58,4.67,7.32,2.92,14.86c-1.28,5.46-0.3,12.79-5.31,15.06
				c-3.78,1.71-8.07,1.54-12.02,1.83c-8.06,0.6-20.05,0.75-25.51,9.7"/>
			<path style="&st0;" d="M3.21,201.08c0-13.88-9.14-35.23,6.15-41.91c7.98-3.49,18.7-3.47,27.09-3.66
				c8.65-0.19,15.03,8.18,21.43,14.72c3.55,3.63,6.81,7.74,10.46,11.21c1.5,1.43,8.78,4.73,9.16,7.02
				c0.28,1.69-11.69,16.1-13.84,16.45C56.4,206.09,3.21,210.12,3.21,201.08"/>
			<path style="&st0;" d="M60.38,164.52c-5.92,5.07-21.37-13.53-16.06-15.61c3.51-1.38,10.27,4.13,13.64,5.39
				C63.29,156.29,65.98,159.72,60.38,164.52"/>
			<path style="&st0;" d="M90.85,160.14c-7.69-0.84-21.5-5.76-27.15,2.39c-6.27,9.04,5.71,17.65,12.01,21.91
				c2.67,1.8,23.76,6.21,25.36,0.36C104.8,171.15,102.89,161.46,90.85,160.14"/>
		</g>
	</g>
</svg>
