<?xml version="1.0" encoding="iso-8859-1"?>
<!-- Generator: Adobe Illustrator 11 Build 196, SVG Export Plug-In . SVG Version: 6.0.0 Build 78)  -->
<!DOCTYPE svg PUBLIC "-//W3C//DTD SVG 1.0//EN"    "http://www.w3.org/TR/2001/REC-SVG-20010904/DTD/svg10.dtd" [
	<!ENTITY ns_flows "http://ns.adobe.com/Flows/1.0/">
	<!ENTITY ns_svg "http://www.w3.org/2000/svg">
	<!ENTITY ns_xlink "http://www.w3.org/1999/xlink">
	<!ENTITY st0 "fill-rule:evenodd;clip-rule:evenodd;fill:#0A0809;">
	<!ENTITY st1 "fill-rule:evenodd;clip-rule:evenodd;fill:#FFFFFF;">
	<!ENTITY st2 "fill:#0A0809;">
]>
<svg  xmlns="&ns_svg;" xmlns:xlink="&ns_xlink;" xmlns:a="http://ns.adobe.com/AdobeSVGViewerExtensions/3.0/"
	 width="193.43" height="182.11" viewBox="0 0 193.43 182.11" style="overflow:visible;enable-background:new 0 0 193.43 182.11"
	 xml:space="preserve">
	<g id="Pfade">
		<g>
			<path style="&st2;" d="M95.29,70.24c-36.01-0.65-27.88,89.24,1.11,111.87c29.18-22.77,38.12-113.79,1.33-112
				c0,0-0.2,98.23-0.22,98.69c-0.03,0.62-2.57,0.51-2.59-0.02C94.92,168.79,95.51,70.24,95.29,70.24z"/>
			<path style="&st0;" d="M150.71,66.1c-1.86-0.13-3.73-0.27-5.59-0.4c-0.13-0.4-0.27-0.8-0.4-1.2c1.86-0.49,2.22-1.34,4.39-1.6
				C149.81,64.06,150.41,64.45,150.71,66.1z"/>
			<g>
				<path style="&st0;" d="M108.12,70.98c14.65-4.68,64.04,15.73,58.61,87.17c-0.39,5.13-37.18-18.69-43.5-26.17
					c1.06-9.32,2.12-15.53,1.13-30.22c13.53,7.32,24.74,23.3,34.12,46.74c0.28,0.84,2.45,0.13,2-1.2
					c-4.01-12.57-17.22-38.48-36.43-48.93C120.7,80.01,115.75,74.79,108.12,70.98z"/>
				<path style="&st0;" d="M119.76,68.97c45.78-11.01,72.53,29.74,73.67,37.56c-5.7,2.77-12.92,3.06-30.52,3.71
					c-1.55-5.22-6.12-14.07-11.72-19.91c10.98,1.39,21.89,5.23,28.71,10.82c0.84,0.51,1.63-1,0.81-1.46
					c-13.36-10.59-28.03-10.76-32.07-12.12C137.89,73.58,119.76,68.97,119.76,68.97z"/>
			</g>
			<path style="&st0;" d="M85.47,54.54c0.07-0.8,4.11-2.39,4.11-2.39l0.9,0.45c0,0-0.6,3.29-1.81,3.57
				C87.46,56.44,85.39,55.33,85.47,54.54z"/>
			<path style="&st0;" d="M96.39,68.07c2.17,0.18,7.16-0.01,8.58-0.21c0.83-0.65,9.57-10.19,8.38-11.18
				c-3.17-0.76-8.91,2.49-10.26,2.4c-2.08-6.41-5.42-10.42-6.71-10.38l-0.06,0.03c-1.28-0.04-4.63,3.97-6.71,10.38
				c-1.35,0.09-7.09-3.16-10.26-2.4c-1.18,0.99,7.55,10.52,8.38,11.18c1.42,0.2,6.41,0.39,8.58,0.21L96.39,68.07z"/>
			<path style="&st0;" d="M107.71,54.17c-0.07-0.8-4.11-2.39-4.11-2.39l-0.9,0.45c0,0,0.6,3.29,1.81,3.57
				C105.71,56.07,107.78,54.96,107.71,54.17z"/>
			<g>
				<path style="&st0;" d="M85.3,70.66c-14.65-4.68-64.04,15.73-58.61,87.17c0.39,5.13,37.18-18.69,43.5-26.17
					c-1.06-9.31-2.12-15.53-1.13-30.22c-13.53,7.31-24.75,23.3-34.12,46.74c-0.28,0.83-2.45,0.13-2-1.2
					c4.01-12.57,17.23-38.48,36.43-48.93C72.72,79.69,77.68,74.47,85.3,70.66z"/>
				<path style="&st0;" d="M73.67,68.64C27.89,57.63,1.14,98.38,0,106.2c5.7,2.77,12.92,3.06,30.52,3.71
					c1.55-5.22,6.12-14.07,11.72-19.91c-10.98,1.39-21.89,5.23-28.71,10.82c-0.83,0.51-1.63-1-0.81-1.46
					C26.07,88.77,40.74,88.6,44.78,87.24C55.54,73.26,73.67,68.64,73.67,68.64z"/>
			</g>
			<path style="&st0;" d="M44.92,63.31c2.18,0.25,2.53,1.1,4.39,1.6c-0.13,0.4-0.27,0.8-0.4,1.2c-1.86,0.13-3.73,0.27-5.59,0.4
				C43.63,64.86,44.23,64.46,44.92,63.31z"/>
			<path style="&st0;" d="M96.05,46.05c-11.78,5.74-12.79,6.21-22.68,7.98c-3.46-12.51,0.84-14.06,1.33-19.16
				c-4.5-4.39-7.99-2.93-14.64-15.7c4.02-4.4,13.06-6.14,21.51-4.88C82.77,9.62,91.34,3.19,96.26,0l-0.1,0.11
				c4.92,3.19,13.49,9.62,14.69,14.28c8.45-1.26,17.49,0.48,21.51,4.88c-6.65,12.77-10.14,11.32-14.64,15.7
				c0.49,5.11,4.79,6.65,1.33,19.16c-9.89-1.77-10.9-2.23-22.68-7.98L96.05,46.05z"/>
			<path style="&st1;" d="M96.23,33.53c-10.42-0.43-15.5,10.62-15.5,10.62c-0.18,0.64-0.85,1-1.48,0.82l0,0
				c-0.64-0.18-1-0.85-0.82-1.48c0,0,2.77-6.65,8.98-10.19l0.02,0.02c-3.44-9.63-15.29-10.39-15.29-10.39
				c-0.66,0.05-1.24-0.44-1.29-1.1l0,0c-0.05-0.66,0.44-1.24,1.1-1.29c0,0,13.45,0.41,17.69,11.72l0.01-0.01
				c1.61-0.63,3.26-1.04,5.25-1.11l0.14-22.08c0-0.65,0.57-1.16,1.22-1.16l0,0h-0.03l0,0c0.65,0,1.22,0.51,1.22,1.16l0.14,22.08
				c1.99,0.06,3.64,0.48,5.25,1.11l0.01,0.01c4.24-11.3,17.69-11.72,17.69-11.72c0.66,0.05,1.15,0.63,1.1,1.29l0,0
				c-0.05,0.66-0.63,1.15-1.29,1.1c0,0-11.85,0.76-15.29,10.39l0.02-0.02c6.21,3.54,8.98,10.19,8.98,10.19
				c0.18,0.64-0.18,1.3-0.82,1.48l0,0c-0.64,0.18-1.3-0.18-1.49-0.82C111.73,44.15,106.65,33.1,96.23,33.53z"/>
			<path style="&st0;" d="M149.05,61.93c-10.39,2.21-11.28,2.37-19.41,1.83c-0.27-10.52,3.42-10.89,4.81-14.82
				c-2.68-4.33-5.71-3.87-8.44-15.23c4.03-2.67,11.48-2.27,17.88,0.38c1.86-3.43,9.86-6.81,14.36-8.36l-0.1,0.06
				c3.25,3.48,8.73,10.22,8.76,14.12c6.9,0.66,13.66,3.81,15.97,8.06c-7.74,8.75-10.2,6.92-14.6,9.48
				c-0.62,4.11,2.46,6.17-2.71,15.34c-7.43-3.33-8.14-3.9-16.28-10.72L149.05,61.93z"/>
			<path style="&st1;" d="M151.65,52.11c-8.12-2.38-14.28,5.32-14.28,5.32c-0.27,0.46-0.86,0.62-1.33,0.35l0,0
				c-0.46-0.27-0.62-0.86-0.35-1.33c0,0,3.48-4.69,9.07-6.26l0.01,0.01c-0.82-8.26-10-11.18-10-11.18c-0.53-0.09-0.89-0.59-0.8-1.12
				l0,0c0.09-0.53,0.59-0.89,1.12-0.8c0,0,10.5,2.96,11.62,12.69l0.01-0.01c1.39-0.18,2.77-0.18,4.35,0.16l4.44-17.34
				c0.13-0.51,0.68-0.8,1.18-0.67l0,0l-0.02-0.01l0,0c0.51,0.13,0.86,0.64,0.73,1.15l-4.22,17.4c1.56,0.44,2.77,1.09,3.92,1.9
				l0,0.01c5.55-8.06,16.22-5.75,16.22-5.75c0.51,0.17,0.78,0.72,0.61,1.23l0,0c-0.17,0.51-0.72,0.78-1.23,0.61
				c0,0-9.48-1.73-14.08,5.18l0.02-0.01c4.2,4.01,5.07,9.78,5.07,9.78c0.02,0.54-0.4,0.99-0.93,1.01l0,0
				c-0.54,0.02-0.99-0.4-1.01-0.93C161.76,63.51,159.93,53.83,151.65,52.11z"/>
			<path style="&st0;" d="M44.52,62.16c10.39,2.21,11.28,2.38,19.41,1.83c0.27-10.52-3.42-10.9-4.81-14.82
				c2.68-4.34,5.71-3.87,8.44-15.23c-4.03-2.67-11.48-2.27-17.88,0.38c-1.86-3.43-9.86-6.81-14.36-8.36l0.1,0.06
				c-3.25,3.48-8.73,10.22-8.76,14.12c-6.9,0.66-13.67,3.81-15.97,8.06c7.74,8.75,10.2,6.91,14.6,9.48
				c0.62,4.11-2.46,6.17,2.71,15.34c7.44-3.33,8.14-3.9,16.28-10.72L44.52,62.16z"/>
			<path style="&st1;" d="M41.92,52.33c8.12-2.38,14.28,5.32,14.28,5.32c0.27,0.46,0.86,0.62,1.33,0.35l0,0
				c0.46-0.27,0.62-0.87,0.35-1.33c0,0-3.48-4.69-9.07-6.26l-0.01,0.02c0.82-8.26,10-11.18,10-11.18c0.53-0.09,0.89-0.59,0.8-1.12
				l0,0c-0.09-0.53-0.58-0.89-1.11-0.8c0,0-10.5,2.96-11.62,12.69l-0.01-0.01c-1.39-0.18-2.77-0.18-4.35,0.16l-4.44-17.34
				c-0.13-0.51-0.68-0.8-1.19-0.67l0,0l0.02-0.01l0,0c-0.51,0.13-0.86,0.64-0.73,1.15l4.22,17.4c-1.56,0.44-2.77,1.09-3.92,1.9
				l0,0.01c-5.55-8.06-16.22-5.75-16.22-5.75c-0.51,0.17-0.78,0.72-0.61,1.23l0,0c0.17,0.51,0.72,0.78,1.23,0.61
				c0,0,9.48-1.73,14.08,5.18l-0.02-0.01c-4.19,4.01-5.07,9.78-5.07,9.78c-0.02,0.54,0.4,0.99,0.93,1.01l0,0
				c0.54,0.02,0.99-0.4,1.01-0.93C31.81,63.73,33.64,54.05,41.92,52.33z"/>
		</g>
	</g>
</svg>
