<?xml version="1.0" encoding="iso-8859-1"?>
<!-- Generator: Adobe Illustrator 11 Build 196, SVG Export Plug-In . SVG Version: 6.0.0 Build 78)  -->
<!DOCTYPE svg PUBLIC "-//W3C//DTD SVG 1.0//EN"    "http://www.w3.org/TR/2001/REC-SVG-20010904/DTD/svg10.dtd" [
	<!ENTITY ns_flows "http://ns.adobe.com/Flows/1.0/">
	<!ENTITY ns_svg "http://www.w3.org/2000/svg">
	<!ENTITY ns_xlink "http://www.w3.org/1999/xlink">
	<!ENTITY st0 "fill:none;stroke:#FFFFFF;stroke-width:2.5;stroke-linecap:round;stroke-linejoin:round;">
	<!ENTITY st1 "fill:#0A0809;">
	<!ENTITY st2 "fill:#0A0809;stroke:#FFFFFF;stroke-width:2.5;stroke-linecap:round;stroke-linejoin:round;">
]>
<svg  xmlns="&ns_svg;" xmlns:xlink="&ns_xlink;" xmlns:a="http://ns.adobe.com/AdobeSVGViewerExtensions/3.0/"
	 width="189" height="184.24" viewBox="0 0 189 184.24" style="overflow:visible;enable-background:new 0 0 189 184.24"
	 xml:space="preserve">
	<g id="Pfade">
		<g>
			<path style="&st1;" d="M96.24,89.88c0,0-27.23-37.85-40.05-56.27C47.22,18.6,70.25-12.44,96.24,6.54h-0.16
				c24.43-19.98,47.05,10.65,39.41,27.07c-12.81,18.42-39.41,56.27-39.41,56.27H96.24z"/>
			<path style="&st1;" d="M95.18,90.42c0,0-44.41,14.2-65.89,20.7c-17.05,3.89-39.46-27.6-13.37-46.45l-0.05,0.15
				C4.41,35.42,40.54,23.36,53.79,35.71c13.56,17.88,41.34,54.86,41.34,54.86L95.18,90.42z"/>
			<path style="&st1;" d="M95.37,91.6c0,0-0.21,46.62-0.67,69.06c-1.57,17.42-38.44,29-48.31-1.64l0.13,0.09
				C15,160.92,14.7,122.84,30.54,114.05c21.19-7.37,64.95-22.36,64.95-22.36L95.37,91.6z"/>
			<path style="&st1;" d="M96.54,91.78c0,0,44.28,14.61,65.47,21.98c16.08,6.88,15.7,45.52-16.49,45.44l0.13-0.09
				c-8.02,30.53-44.33,19.04-47.79,1.26c-0.46-22.44-1.19-68.68-1.19-68.68L96.54,91.78z"/>
			<path style="&st1;" d="M97.08,90.72c0,0,27.58-37.59,41.14-55.47c11.51-13.17,48.14-0.86,38.12,29.72l-0.05-0.15
				c26.55,17.06,4.41,48.04-13.57,45.84c-21.48-6.5-65.69-20.09-65.69-20.09L97.08,90.72z"/>
			<g>
				<line style="&st0;" x1="96.37" y1="51.44" x2="96.37" y2="182.99"/>
				<line style="&st0;" x1="53.75" y1="79.49" x2="187.75" y2="119.49"/>
				<line style="&st0;" x1="71.24" y1="126.65" x2="156.75" y2="6.49"/>
				<line style="&st0;" x1="119.96" y1="126.18" x2="34.75" y2="5.99"/>
				<line style="&st0;" x1="134.57" y1="79.69" x2="1.25" y2="121.99"/>
			</g>
			<circle style="&st2;" cx="95.46" cy="93.34" r="16.55"/> 
		</g>
	</g>
</svg>
