<?xml version="1.0" encoding="iso-8859-1"?>
<!-- Generator: Adobe Illustrator 11 Build 196, SVG Export Plug-In . SVG Version: 6.0.0 Build 78)  -->
<!DOCTYPE svg PUBLIC "-//W3C//DTD SVG 1.0//EN"    "http://www.w3.org/TR/2001/REC-SVG-20010904/DTD/svg10.dtd" [
	<!ENTITY ns_flows "http://ns.adobe.com/Flows/1.0/">
	<!ENTITY ns_svg "http://www.w3.org/2000/svg">
	<!ENTITY ns_xlink "http://www.w3.org/1999/xlink">
	<!ENTITY st0 "fill:none;stroke:#000000;stroke-linecap:round;stroke-linejoin:round;">
]>
<svg  xmlns="&ns_svg;" xmlns:xlink="&ns_xlink;" xmlns:a="http://ns.adobe.com/AdobeSVGViewerExtensions/3.0/"
	 width="288.5" height="264.64" viewBox="0 0 288.5 264.64" style="overflow:visible;enable-background:new 0 0 288.5 264.64"
	 xml:space="preserve">
	<g id="Pfade">
		<polyline style="&st0;" points="28.5,199.51 0.5,175.31 0.5,138.48 28.5,162.1 28.5,199.51 "/>
		<polyline style="&st0;" points="0.5,138.48 74.38,99.11 81.6,104.85 72.97,109.49 77.37,112.99 106.8,97.62 115.56,96.94 
			115.87,92.73 146.78,75.53 152.5,80.08 135.25,90.21 131.25,89.77 123.25,96.73 83.26,117.67 87.51,121.05 96.09,116.37 
			102.5,121.47 28.5,162.1 "/>
		<polyline style="&st0;" points="102.5,121.47 102.5,157.71 28.5,199.51 "/>
		<polyline style="&st0;" points="152.5,80.08 152.5,98.34 135.25,108.63 131.25,109.04 123.25,115.25 102.5,125.89 "/>
		<line style="&st0;" x1="135.25" y1="90.21" x2="135.25" y2="108.63"/>
		<line style="&st0;" x1="131.25" y1="89.77" x2="131.25" y2="109.04"/>
		<line style="&st0;" x1="123.25" y1="96.73" x2="123.25" y2="115.25"/>
		<polygon style="&st0;" points="192,72.32 192,107.15 288,52.93 288,19.61 "/>
		<polyline style="&st0;" points="225.36,18.22 259.44,0.5 288,19.61 "/>
		<line style="&st0;" x1="215" y1="24.01" x2="205.5" y2="29.24"/>
		<polyline style="&st0;" points="195,35.26 163.54,51.6 170.85,56.92 162.86,61.21 167.28,64.47 194.5,49.14 194.5,44.64 
			205,44.14 237,26.66 243.12,30.88 225.5,40.14 221.5,46.14 216.5,45.14 173.5,69.04 177.5,71.97 185.51,67.6 192,72.32 "/>
		<path style="&st0;" d="M162.86,85.42"/>
		<line style="&st0;" x1="163.54" y1="51.6" x2="163.54" y2="60.85"/>
		<polyline style="&st0;" points="162.85,61.22 162.86,95.87 167.35,99.24 167.28,64.47 "/>
		<polyline style="&st0;" points="173.5,88.19 170,85.69 173.5,83.98 "/>
		<polyline style="&st0;" points="173.5,100.38 170,97.55 167.35,99.24 "/>
		<line style="&st0;" x1="170" y1="85.69" x2="170" y2="97.55"/>
		<polyline style="&st0;" points="185.51,67.6 185.55,102.34 177.5,106.86 "/>
		<polyline style="&st0;" points="173.5,69.04 173.5,103.86 177.5,106.86 177.5,71.97 "/>
		<line style="&st0;" x1="192" y1="107.15" x2="185.55" y2="102.34"/>
		<polygon style="&st0;" points="195,9.64 195,35.26 205.5,35.74 205.5,9.89 "/>
		<polyline style="&st0;" points="205.5,9.89 205.5,7.64 195.5,7.39 195,9.64 "/>
		<polyline style="&st0;" points="215,7.89 219.5,9.14 219.5,33.13 215,31.81 215,7.89 "/>
		<polyline style="&st0;" points="215,7.89 220.75,1.14 225,1.64 219.5,9.14 "/>
		<polyline style="&st0;" points="225,1.64 225,26.14 219.5,33.13 "/>
		<line style="&st0;" x1="194.5" y1="49.14" x2="194.5" y2="57.14"/>
		<line style="&st0;" x1="237" y1="26.66" x2="237" y2="33.91"/>
		<line style="&st0;" x1="205" y1="44.14" x2="205" y2="50.89"/>
		<polygon style="&st0;" points="89.21,202.93 117.5,226.64 117.5,264.14 89.67,240.27 "/>
		<polyline style="&st0;" points="89.21,202.93 161.67,161.22 168.02,166.19 158.7,171.63 164,175.82 196.92,156.07 207.21,154.26 
			207.23,149.76 237.12,132.81 243.51,138.19 230.4,145.74 225.18,145.1 219.36,152.29 170.63,181.4 175.96,185.26 185.28,179.71 
			190.13,183.5 "/>
		<polyline style="&st0;" points="117.5,226.64 190.13,183.5 190.07,219.8 117.5,264.14 "/>
		<polyline style="&st0;" points="190.13,183.5 287.5,124.85 287.5,159.56 190.07,219.8 "/>
		<polyline style="&st0;" points="161.67,161.22 258.94,104.29 287.5,124.85 190.13,183.5 "/>
		<polyline style="&st0;" points="230.4,145.74 224.89,153.61 219.36,152.29 "/>
		<polyline style="&st0;" points="196.92,156.07 197.13,151.27 207.23,149.76 "/>
	</g>
</svg>
