<?xml version="1.0" encoding="iso-8859-1"?>
<!-- Generator: Adobe Illustrator 11 Build 196, SVG Export Plug-In . SVG Version: 6.0.0 Build 78)  -->
<!DOCTYPE svg PUBLIC "-//W3C//DTD SVG 1.0//EN"    "http://www.w3.org/TR/2001/REC-SVG-20010904/DTD/svg10.dtd" [
	<!ENTITY ns_flows "http://ns.adobe.com/Flows/1.0/">
	<!ENTITY ns_svg "http://www.w3.org/2000/svg">
	<!ENTITY ns_xlink "http://www.w3.org/1999/xlink">
	<!ENTITY st0 "fill:none;stroke:#000000;">
]>
<svg  xmlns="&ns_svg;" xmlns:xlink="&ns_xlink;" xmlns:a="http://ns.adobe.com/AdobeSVGViewerExtensions/3.0/"
	 width="162.55" height="162.61" viewBox="0 0 162.55 162.61" style="overflow:visible;enable-background:new 0 0 162.55 162.61"
	 xml:space="preserve">
	<g id="Layer_1">
		<polyline style="&st0;" points="162.14,27.66 153.15,36.65 144.16,27.66 162.2,9.62 "/>
		<polyline style="&st0;" points="81.28,162.12 108.26,135.23 108.23,135.23 99.24,126.24 90.25,135.23 81.26,126.24 72.27,117.25 
			63.27,126.24 54.28,117.25 117.22,54.63 126.09,63.8 117.22,72.67 135.45,90.9 126.71,99.64 135.32,108.25 162.2,81.46 "/>
		<polyline style="&st0;" points="9.4,162.2 27.34,144.22 36.21,153.39 27.34,162.25 "/>
		<polyline style="&st0;" points="117.22,162.2 126.21,153.21 117.22,144.22 99.26,162.17 "/>
		<polyline style="&st0;" points="162.2,99.26 144.22,117.25 153.21,126.24 162.2,117.25 "/>
		<polyline style="&st0;" points="45.56,0.98 36.82,9.72 45.43,18.33 63.3,0.52 "/>
		<polyline style="&st0;" points="0.37,63.25 18.36,45.31 18.34,45.31 9.35,36.32 0.35,45.31 "/>
		<polyline style="&st0;" points="0.35,135.21 9.35,126.22 18.34,135.21 0.36,153.21 "/>
		<polyline style="&st0;" points="81.28,0.37 54.33,27.33 63.32,36.32 72.31,27.33 81.3,36.32 90.29,45.31 99.28,36.32 
			108.27,45.31 45.31,108.24 36.32,99.25 45.31,90.26 36.32,81.27 27.33,72.28 36.32,63.29 27.33,54.3 0.37,81.26 "/>
		<polyline style="&st0;" points="153.21,0.37 135.24,18.33 126.25,9.34 135.24,0.35 "/>
		<line style="&st0;" x1="0.35" y1="99.25" x2="63.02" y2="162.25"/>
		<polyline style="&st0;" points="9.37,0.41 72.31,63.29 81.3,54.3 72.31,45.31 81.3,36.32 90.29,27.33 81.3,18.33 90.29,9.34 
			152.96,72.35 144.22,81.28 135.23,72.29 117.25,90.27 108.26,81.28 99.27,90.33 162.2,153.21 "/>
		<polyline style="&st0;" points="0.35,9.34 63.29,72.28 54.3,81.27 45.31,72.28 27.33,90.26 18.34,81.27 9.35,90.26 72.27,153.21 
			81.26,144.22 72.27,135.23 81.26,126.24 90.25,117.25 81.26,108.25 90.25,99.26 153.18,162.2 "/>
		<line style="&st0;" x1="99.28" y1="0.35" x2="162.2" y2="63.3"/>
	</g>
</svg>
