<?xml version="1.0" encoding="iso-8859-1"?>
<!-- Generator: Adobe Illustrator 11 Build 196, SVG Export Plug-In . SVG Version: 6.0.0 Build 78)  -->
<!DOCTYPE svg PUBLIC "-//W3C//DTD SVG 1.0//EN"    "http://www.w3.org/TR/2001/REC-SVG-20010904/DTD/svg10.dtd" [
	<!ENTITY ns_flows "http://ns.adobe.com/Flows/1.0/">
	<!ENTITY ns_svg "http://www.w3.org/2000/svg">
	<!ENTITY ns_xlink "http://www.w3.org/1999/xlink">
	<!ENTITY st0 "stroke:#000000;stroke-width:0.9277;stroke-linecap:round;stroke-linejoin:round;">
]>
<svg  xmlns="&ns_svg;" xmlns:xlink="&ns_xlink;" xmlns:a="http://ns.adobe.com/AdobeSVGViewerExtensions/3.0/"
	 width="183.25" height="190.61" viewBox="0 0 183.25 190.61" style="overflow:visible;enable-background:new 0 0 183.25 190.61"
	 xml:space="preserve">
	<g id="Pfade">
		<g>
			<path style="&st0;" d="M174.07,118.54c-0.07,0.04-5.13,3.17-6.21,3.82c0.66,0.39,5.09,3.17,6.27,3.83
				C174.25,124.48,174.25,120.39,174.07,118.54z"/>
			<path style="&st0;" d="M99.92,164.59c-1.93,0.79-3.84,1.46-5.47,1.74c-1.38,0.24-3.12,0.58-5.14,0.75l3.68,23.07L99.92,164.59z"
				/>
			<path style="&st0;" d="M113.5,161.03l-6.02-0.32c-0.1-0.01-0.16-0.09-0.25-0.12c-1.88,1.38-3.84,2.41-5.81,3.33l4.47,21.35
				L113.5,161.03"/>
			<path style="&st0;" d="M124.57,161.5c-3.31-0.04-6.87-0.23-10.39-0.43l6.32,17.97L124.57,161.5z"/>
			<path style="&st0;" d="M133.46,160.99c-2.38,0.4-5.21,0.53-8.27,0.52l5.16,15.85L133.46,160.99"/>
			<path style="&st0;" d="M145.71,156.8c-3.47,1.88-7.18,3.29-10.89,4.05c-0.11,0.02-0.25-0.01-0.36,0.01l7.26,16.3L145.71,156.8z"
				/>
			<path style="&st0;" d="M155.77,149.25c-2.7,2.76-5.89,5.19-9.35,7.15l12.38,15.13L155.77,149.25z"/>
			<path style="&st0;" d="M165.01,123.72c0,3.02,0.01,6.93-0.84,10.87c0,0,12.61-0.84,18.61-0.93
				C177.49,130.35,165.01,123.72,165.01,123.72"/>
			<path style="&st0;" d="M161.92,111.11c1.42,2.47,2.35,4.9,2.6,7.16c0.04,0.37,0.14,1.37,0.2,2.81c0,0,9.29-5.67,13.92-8.44
				C173.2,112.15,161.92,111.11,161.92,111.11z"/>
			<path style="&st0;" d="M49.14,82.65c3.61-1.52,6.33-2.18,10.23-2.85c-1.48-2.24-6.52-9.77-8.9-13.37
				C50.06,70.64,49.44,79.54,49.14,82.65z"/>
			<path style="&st0;" d="M115.35,82.76c0,0-0.42-11.57-0.61-16.64c-2.99,3.86-10.12,14.68-10.12,14.68c2.99,0.36,6.99,1.06,10.74,2
				C115.36,82.78,115.36,82.77,115.35,82.76z"/>
			<path style="&st0;" d="M92.08,79.57c4.05,0.29,8.04,0.66,11.71,1.07c0,0-4.22-12.32-5.85-16.74
				C96.24,68.26,92.08,79.57,92.08,79.57z"/>
			<path style="&st0;" d="M77.63,78.88c4.08,0.09,8.47,0.06,12.83,0.35c0,0-4.96-13.87-6.85-18.84
				C81.95,65.46,77.63,78.88,77.63,78.88z"/>
			<path style="&st0;" d="M154.16,100.84c2.56,2.43,4.62,5.51,6.42,8.15c0,0,7.8-7.98,11.26-11.54
				C166.86,97.96,154.16,100.84,154.16,100.84z"/>
			<path style="&st0;" d="M146.28,94.55c-0.17,0.12-0.36,0.19-0.56,0.22c2.58,1.71,5.15,3.71,7.51,5.88c0-0.2,4.55-10.92,6.83-15.86
				C155.09,88.3,146.28,94.55,146.28,94.55z"/>
			<path style="&st0;" d="M144.57,76.06c-3.45,2.72-14.38,11.31-14.38,11.31c0,0-0.01,0-0.01,0.01c4,1.47,7.75,3.06,10.87,4.65
				c1.02,0.52,2.05,1.1,3.08,1.74c-0.03-0.11-0.05-0.23-0.05-0.35C144.08,93.4,144.45,80.38,144.57,76.06z"/>
			<path style="&st0;" d="M127.93,70.01c-3.05,4.1-9.38,12.61-10.02,13.46c3.32,0.9,6.75,1.96,10.06,3.12
				c-0.02-0.1-0.04-0.2-0.04-0.31C127.93,86.27,127.93,75.31,127.93,70.01z"/>
			<path style="&st0;" d="M75.59,78.85c-5.24-0.06-9.86,0.08-13.08,0.48c0.72-2.66,3.19-11.84,4.21-15.62
				C69.08,67.65,75.59,78.85,75.59,78.85z"/>
			<path style="&st0;" d="M47.9,65.82l-1.59,16.32l-7.38-10.09C41.51,69.77,44.57,67.67,47.9,65.82z"/>
			<path style="&st0;" d="M52.16,63.67c2.14,3.25,6.45,9.93,8.27,12.69c1.15-4.28,4.44-17.21,4.44-17.21
				C60.32,60.37,56.05,61.89,52.16,63.67z M58.21,68.74c-1.18,0-2.14-1.05-2.14-2.33s0.96-2.33,2.14-2.33
				c1.18,0,2.14,1.04,2.14,2.33S59.39,68.74,58.21,68.74z"/>
			<path style="&st0;" d="M62.36,44.48c-1.12,2.59-4.44,10.24-6.23,14.37c4.11-1.52,8.54-2.78,13.2-3.75l-0.01,0
				C67.63,52.56,63.9,46.8,62.36,44.48z"/>
			<path style="&st0;" d="M86.18,52.95c-1.71,0.11-3.54,0.26-5.21,0.43c-0.95,0.1-1.91,0.2-2.85,0.32c0,0,0.1-0.75,0.25-1.91
				c0.46-3.49,1.4-10.66,1.55-11.86c0.34-0.1,0.41-0.12,0.8-0.23C81.37,41.25,84.74,49.49,86.18,52.95z"/>
			<path style="&st0;" d="M74.63,57.06c-2.61,0.43-5.16,0.93-7.62,1.54c0,0,2.05,3.33,4.25,7.04c0.4-0.38,1.02-0.67,1.64-0.67
				c1.23,0,2.24,0.96,2.24,2.14c0,1.03-0.81,1.89-1.83,2.09c1.18,2,2.21,3.8,2.88,4.91c0.96-2.92,5.74-17.53,5.91-18.04
				C79.55,56.33,77.07,56.66,74.63,57.06z M72.05,62.92c-0.15,0-1.49-0.05-1.49-1.86c0-1.81,1.33-1.86,1.49-1.86
				s1.49,0.05,1.49,1.86C73.53,62.87,72.2,62.92,72.05,62.92z M77.46,61.53c-0.99,0-1.77-0.86-1.77-1.96c0-1.1,0.78-1.96,1.77-1.96
				c0.99,0,1.77,0.86,1.77,1.96C79.23,60.67,78.45,61.53,77.46,61.53z"/>
			<path style="&st0;" d="M84.83,55.79c0.18,0.47,5.6,14.66,6.58,17.22c0.85-2.2,6.11-17.55,6.11-17.55
				C93.19,55.37,88.95,55.48,84.83,55.79z M90.64,56.72c0.99,0,1.77,0.86,1.77,1.96s-0.78,1.96-1.77,1.96
				c-0.99,0-1.77-0.86-1.77-1.96S89.65,56.72,90.64,56.72z M90.92,66.26c-0.92,0-1.67-0.79-1.67-1.77s0.75-1.77,1.67-1.77
				s1.67,0.79,1.67,1.77S91.85,66.26,90.92,66.26z"/>
			<path style="&st0;" d="M172.64,100.62c-1.35,1.39-3.02,3.13-4.42,4.57c1.09,0.15,1.93,1.09,1.93,2.21c0,0.55-0.2,1.06-0.53,1.45
				c1.43,0.13,2.76,0.44,4.31,0.58l-0.6-3.41C172.94,103.5,172.49,102.35,172.64,100.62z"/>
			<path style="&st0;" d="M165.68,107.4c0,0.46,0.43,1,0.67,1.36c-0.58-0.05-1.08-0.1-1.5-0.14L165.68,107.4z"/>
			<path style="&st0;" d="M87.87,18.96c0.22,0.52,2.82,6.09,4.69,10.51c0.77-4.1,2.25-11.98,3.13-16.67
				C92.86,14.47,90.14,16.52,87.87,18.96z"/>
			<path style="&st0;" d="M85.67,20.33c-0.25,0.3-0.53,0.64-0.89,1.09c-3.18,4.01-5.14,8.27-7.02,15.31
				c4.65-1.24,9.42-2.29,13.59-3.04C91.36,33.68,86.71,22.77,85.67,20.33z"/>
			<path style="&st0;" d="M65.18,43.7c2.32,3.48,6,9.01,6.69,10.05c1.09-0.36,2.68-0.89,3.61-1.2c0.04-0.34,1.64-12.6,1.64-12.6
				C72.86,41.12,69.07,42.28,65.18,43.7z M71.4,47.86c-1.18,0-2.14-1-2.14-2.24s0.96-2.24,2.14-2.24c1.18,0,2.14,1,2.14,2.24
				S72.58,47.86,71.4,47.86z"/>
			<path style="&st0;" d="M91.4,42.07c0.72,0,1.35,0.32,1.8,0.81c0.81-2.74,1.61-5.4,2.09-6.97c-0.96,0.16-2.01,0.34-3.1,0.55
				c0.14,0.24,0.23,0.51,0.23,0.8c0,0.92-0.79,1.67-1.77,1.67c-0.98,0-1.77-0.75-1.77-1.67c0-0.04,0.01-0.09,0.01-0.13
				c-1.85,0.39-3.76,0.83-5.68,1.28c1.27,3.06,5.28,12.74,5.84,14.1c0.55-0.03,0.75-0.04,1.29-0.07c0.18-0.58,0.85-2.86,1.67-5.62
				c-0.2,0.05-0.41,0.09-0.62,0.09c-1.34,0-2.42-1.09-2.42-2.42C88.98,43.16,90.06,42.07,91.4,42.07z"/>
			<path style="&st0;" d="M104.78,32.54L104.78,32.54C104.76,32.49,104.77,32.51,104.78,32.54z"/>
			<path style="&st0;" d="M104.78,32.54L104.78,32.54C104.79,32.57,104.8,32.59,104.78,32.54z"/>
			<path style="&st0;" d="M94.56,33.16c2.56-0.38,4.75-0.6,6.37-0.62l1.74-0.02c0.75-0.01,1.42,0.04,2.12,0.03
				c0-0.01-0.01-0.02-0.01-0.03c0,0,0.01,0.02,0.01,0.03c-1.56-4.29-4.65-14.04-6.34-18.7C97.24,20.24,94.56,33.16,94.56,33.16z"/>
			<path style="&st0;" d="M136.51,36.93c0-0.01,0.01-0.01,0.01-0.02c-0.01,0-0.01-0.01-0.02-0.01
				C136.5,36.91,136.51,36.93,136.51,36.93z"/>
			<path style="&st0;" d="M109.62,35.23c0.27,0.29,0.44,0.67,0.44,1.09c0,0.92-0.79,1.67-1.77,1.67c-0.97,0-1.77-0.75-1.77-1.67
				c0-0.41,0.17-0.79,0.43-1.08c-1.33,0.01-2.74,0.03-4.25,0.05l-1.74,0.03c-0.5,0.01-0.62,0.04-1.27,0.1
				c1.21,3.71,4.34,16.02,4.82,17.52c0.91-0.03,1.27,0.03,2.02,0.01c0.58-1.05,7.23-13.14,9.71-17.59
				C114.23,35.27,112.07,35.23,109.62,35.23z M106.23,45.13c-0.97,0-1.77-0.75-1.77-1.67s0.79-1.67,1.77-1.67s1.77,0.75,1.77,1.67
				S107.2,45.13,106.23,45.13z"/>
			<path style="&st0;" d="M101.95,52.62C101.84,52.61,102.07,52.62,101.95,52.62c-2.72-0.13-6.1,0.04-8.76,0.07
				c0.89-2.92,2.88-11.7,4.06-15.56C98.51,41.01,101,49.68,101.95,52.62z"/>
			<path style="&st0;" d="M169.43,91.28c-1.38-2.27-4.84-7.45-5.55-8.15c-0.69,1.5-5.33,11.56-5.98,12.97
				c2.4-0.25,8.87-0.92,13.23-1.37L169.43,91.28z M164.25,94.43c-1.18,0-2.14-0.96-2.14-2.14c0-1.18,0.96-2.14,2.14-2.14
				s2.14,0.96,2.14,2.14C166.4,93.47,165.44,94.43,164.25,94.43z"/>
			<path style="&st0;" d="M165.26,62.07l-9.36,9.87c2.98,2.34,6.05,4.94,8.67,7.67C166.43,74.38,167.35,65.36,165.26,62.07z"/>
			<path style="&st0;" d="M147.02,88.33c-0.04,1.22-0.07,2.07-0.07,2.33c0.28-0.2,1.04-0.74,2.08-1.47
				C148.18,89.17,147.46,88.84,147.02,88.33z"/>
			<path style="&st0;" d="M161.36,80.45c-0.97-0.98-2-1.97-3.08-2.95c-0.19,1.08-1.06,1.9-2.1,1.9c-1.18,0-2.14-1.05-2.14-2.33
				c0-0.95,0.53-1.76,1.27-2.13c-2.34-1.92-4.89-3.79-7.68-5.57c0,0-0.08,2.47-0.19,5.72c0.33-0.56,0.86-0.92,1.5-0.92
				c1.08,0,1.86,0.98,1.86,2.33c0,1.35-0.78,2.33-1.86,2.33c-0.7,0-1.27-0.42-1.59-1.08c-0.09,2.69-0.18,5.58-0.26,7.96
				c0.47-0.49,1.2-0.8,2.04-0.8c1.46,0,2.61,0.94,2.61,2.14c0,0.08-0.02,0.15-0.03,0.22C155.51,84.6,160.27,81.22,161.36,80.45z"/>
			<path style="&st0;" d="M118.83,47.54c-0.33,0.63-0.97,1.07-1.71,1.07c-1.08,0-1.96-0.92-1.96-2.05c0-1.13,0.88-2.05,1.96-2.05
				c0.54,0,1.03,0.23,1.38,0.6c-0.32-2.39-0.63-4.67-0.85-6.32c-2.19,3.95-6.64,11.96-8.17,14.71c3.54,0.41,7,0.99,10.38,1.74
				C119.63,53.54,119.24,50.6,118.83,47.54z"/>
			<path style="&st0;" d="M153.04,69.79c0.22,0.16,0.45,0.32,0.67,0.48"/>
			<path style="&st0;" d="M126.2,59.69c-6.08-1.81-12.81-3.13-20.28-3.76c-2.49-0.21-4.97-0.36-7.43-0.43
				c-0.23-0.64,0.72,3.85,3.62,11.72c1.05,2.84,2.12,5.73,2.67,7.21c0.79-1.02,2.21-2.86,3.75-4.84c2.97-3.83,8.76-11.34,8.76-11.34
				s0.63,18.95,0.69,20.46c0.74-1,12.84-17.5,12.84-17.5C129.51,60.73,126.39,59.74,126.2,59.69z M101.83,57.64
				c0-0.94,0.82-1.67,1.86-1.67c1.04,0,1.86,0.74,1.86,1.67s-0.82,1.67-1.86,1.67C102.65,59.31,101.83,58.58,101.83,57.64z
				 M105.38,66.26c-1.22,0-1.86-0.79-1.86-1.58c0-0.78,0.64-1.58,1.86-1.58s1.86,0.79,1.86,1.58
				C107.25,65.46,106.61,66.26,105.38,66.26z M111.21,60.25c-1.22,0-1.86-0.79-1.86-1.58c0-0.79,0.64-1.58,1.86-1.58
				c1.22,0,1.86,0.79,1.86,1.58C113.07,59.46,112.43,60.25,111.21,60.25z M121.91,58.78c1.04,0,1.86,0.9,1.86,2.05
				c0,1.15-0.82,2.05-1.86,2.05c-1.04,0-1.86-0.9-1.86-2.05C120.05,59.68,120.87,58.78,121.91,58.78z M122.28,68.89
				c-1.03,0-1.86-0.79-1.86-1.77c0-0.97,0.83-1.77,1.86-1.77s1.86,0.79,1.86,1.77C124.14,68.1,123.31,68.89,122.28,68.89z"/>
			<path style="&st0;" d="M147.63,69.38c-1.87-1.19-4.18-2.53-6.5-3.73c0.07,0.17,0.11,0.35,0.11,0.53c0,0.88-0.75,1.77-2.42,1.77
				c-1.68,0-2.42-0.89-2.42-1.77c0-0.85,0.71-1.7,2.27-1.76c-0.32-0.15-0.63-0.3-0.94-0.43c-1.94-0.86-4.77-2.04-6.88-2.79
				l-0.19-0.15c0,13.99,0.07,18.72,0.07,22.36c0.65-0.51,6.93-5.73,11.65-9.65c-0.06,0-0.12,0.01-0.18,0.01
				c-1.3,0-2.24-0.74-2.24-1.77s0.94-1.77,2.24-1.77c1.29,0,2.24,0.74,2.24,1.77c0,0.02,0,0.03,0,0.05
				C146.32,70.48,147.63,69.38,147.63,69.38z M135.66,75.04c-1.03,0-1.86-0.88-1.86-1.96c0-1.08,0.83-1.95,1.86-1.95
				s1.86,0.88,1.86,1.95C137.52,74.16,136.69,75.04,135.66,75.04z"/>
			<path style="&st0;" d="M134.05,45.34c-0.07-0.88-0.13-1.71-0.17-2.42c-0.39,0.71-0.83,1.52-1.29,2.38
				c0.21-0.08,0.44-0.14,0.68-0.14C133.55,45.17,133.81,45.23,134.05,45.34z"/>
			<path style="&st0;" d="M134.34,48.93c-0.31,0.21-0.67,0.34-1.07,0.34c-0.96,0-1.75-0.73-1.92-1.68
				c-1.94,3.56-4.03,7.42-5.05,9.31l8.64,3.33l0.33,0.22C135.12,58.06,134.69,53.27,134.34,48.93z"/>
			<path style="&st0;" d="M150,51.45c-2.36,2.77-7.1,8.33-9.35,10.98c3.4,1.65,6.66,3.51,9.77,5.56
				C150.31,63.83,150.09,55.25,150,51.45z"/>
			<path style="&st0;" d="M152.71,49.94c0,0,0.3,18.65,0.33,19.86c0.21,0.17,0.38,0.25,0.67,0.48c1.49-1.57,9.53-10.12,9.53-10.12
				C159.78,56.39,156.12,52.85,152.71,49.94z M155.99,65.32c-1.11,0-1.96-1.04-1.96-2.42s0.84-2.42,1.96-2.42
				c1.12,0,1.96,1.04,1.96,2.42S157.11,65.32,155.99,65.32z"/>
			<path style="&st0;" d="M152.12,45.73l5.98-5.06c0.9,3.57,1.72,8.58,2.09,12.26C157.42,50.24,154.63,47.67,152.12,45.73"/>
			<path style="&st0;" d="M151.67,27.92c2.87,4.55,5.07,8.93,5.43,9.63c-1.62,1.37-3.99,3.69-5.67,5.12
				C151.47,40.07,151.58,33.44,151.67,27.92z"/>
			<path style="&st0;" d="M145.71,44.73l-1.66-0.93c-2.07-1.17-5.12-2.79-7.58-3.9c0.34,5.38,1.28,19.94,1.34,20.88
				c0.13,0.1,0.17,0.14,0.34,0.28c1.52-1.79,11.4-13.7,11.4-13.7C148.15,46.27,146.84,45.36,145.71,44.73z M139,48.74
				c-1.78,0-2.05-1.16-2.05-1.72c0-0.55,0.27-1.72,2.05-1.72s2.05,1.16,2.05,1.72C141.05,47.58,140.78,48.74,139,48.74z"/>
			<path style="&st0;" d="M130.66,6.28c-5.22,0.42-11.72,0.15-18.51-0.78c2.12-3.18,5.95-5.2,9.81-5.03
				C125.59,0.63,128.95,3.16,130.66,6.28z"/>
			<path style="&st0;" d="M139.12,38.05c2.31,1.08,4.32,2.21,6.3,3.33l1.64,0.92c0.5,0.28,1.03,0.6,1.57,0.95
				c0.08-4.63,0.24-14.59,0.32-19.28C146.41,27.61,141.5,34.65,139.12,38.05z M145.66,37.15c-1.08,0-1.96-0.92-1.96-2.05
				c0-1.13,0.88-2.05,1.96-2.05c1.08,0,1.96,0.92,1.96,2.05C147.62,36.23,146.74,37.15,145.66,37.15z"/>
			<path style="&st0;" d="M131.26,38.01c-1.17-0.36-2.42-0.7-3.78-1.02c-2.74-0.64-5.1-1.12-7.51-1.39
				c0.32,2.36,2.64,19.23,2.73,19.88c0.43,0.12,0.56,0.16,1.04,0.29c0.12-0.22,6.65-12.37,9.27-17.2L131.26,38.01z"/>
			<path style="&st0;" d="M145.57,19.84c-1.98-2.2-7.6-7.08-12.7-10.76c-6.34,0.77-14.9,0.43-23.7-0.96
				c-0.52,0.08-1.08,0.19-1.63,0.3c0.84,0.49,1.39,1.57,1.39,2.89c0,1.81-1.04,3.18-2.42,3.18c-1.38,0-2.42-1.37-2.42-3.18
				c0-0.86,0.24-1.61,0.64-2.17c-1.44,0.43-2.94,0.97-4.45,1.62c-0.16,0.07-0.33,0.13-0.49,0.2c0.71,1.96,1.88,5.19,3.1,8.55
				c0.38-0.62,1.1-1.04,1.94-1.04c1.23,0,2.24,0.92,2.24,2.05s-1,2.05-2.24,2.05c-0.32,0-0.62-0.06-0.89-0.17
				c1.21,3.34,2.35,6.48,3,8.26c0.66-1.67,6.27-16,6.27-16c0.2-0.51,0.92-2.95,1.47-2.97c0.55-0.02,0.83,1.21,1.07,1.7
				c0,0,4.94,11.11,6.3,13.84c1.97-2.06,7.6-7.96,7.6-7.96c0.35-0.36,1.1-1.44,1.59-1.31c0.49,0.13,0.64,1.2,0.77,1.69
				c0,0,1.53,5.93,2.82,10.95c0.07-1.23,0.93-2.18,2.04-2.18c1.15,0,2.05,1.02,2.05,2.33s-0.9,2.33-2.05,2.33
				c-0.68,0-1.26-0.36-1.63-0.92c0.6,2.34,1.11,4.28,1.29,4.99l0.02,0.01c1.29-1.84,7.44-10.65,10.71-15.34
				C146.68,21.12,146.13,20.46,145.57,19.84z M122.38,15.56c-1.18,0-2.14-0.92-2.14-2.05c0-1.13,0.96-2.05,2.14-2.05
				c1.18,0,2.14,0.92,2.14,2.05C124.52,14.64,123.56,15.56,122.38,15.56z M139.04,26.64c-1.11,0-1.95-1.04-1.95-2.42
				c0-1.38,0.84-2.42,1.95-2.42c1.12,0,1.96,1.04,1.96,2.42C140.99,25.6,140.15,26.64,139.04,26.64z"/>
			<path style="&st0;" d="M114.64,18.35c-0.68,1.73-4.98,12.56-5.55,14.02c1.75-0.01,3.36,0.01,4.9,0.06
				c0.64,0.02,1.27,0.04,1.88,0.08c1.79,0.1,3.09-0.01,4.78,0.01C119.6,29.76,116.23,21.54,114.64,18.35z M113.74,30.2
				c-1.08,0-1.95-0.92-1.95-2.05s0.88-2.05,1.95-2.05s1.96,0.92,1.96,2.05S114.82,30.2,113.74,30.2z"/>
			<path style="&st0;" d="M127.45,30.52c1.08,0,1.96,0.92,1.96,2.05c0,0.33-0.37,1.08-0.91,1.58c1.76,0.45,3.36,1.1,4.83,1.59
				c-1.04-3.96-2.75-10.51-3.39-12.99c-2,2.09-6.72,7.67-8.32,9.82c1.23,0.18,2.65,0.52,4.08,0.88c-0.12-0.27-0.2-0.56-0.2-0.88
				C125.49,31.44,126.37,30.52,127.45,30.52z"/>
			<path style="&st0;" d="M162.06,140.02c-0.62,1.53-1.37,2.99-2.28,4.34c-0.98,1.45-2.09,2.84-3.33,4.17l17,9.48L162.06,140.02z"/>
			<path style="&st0;" d="M24.4,136.27c-2.69,0.61-13.68,2.9-19.55,4.24c-0.6,0.14-0.93-0.46-0.54-0.91c3.2-3.73,7.6-8.61,7.6-8.61
				c0.22-0.26,0.82-0.78,1.03-1.14c0.05-0.08,0.02-0.2-0.03-0.28c-0.27-0.44-1.06-0.55-1.45-0.74c0,0-6.94-2.95-10.83-4.86
				c-0.26-0.13-0.21-0.77,0.07-0.87c4.43-1.5,13-4.25,13-4.25c0.46-0.16,1.24-0.37,1.61-0.79c0.07-0.08,0.03-0.2,0.03-0.3
				c0-0.38-0.85-0.98-1.13-1.25c0,0-7.77-7.05-11.82-10.85c-0.26-0.25-0.8-0.79-0.65-1.12c0.15-0.33,0.83-0.23,1.2-0.21
				c4.5,0.2,10.77,0.51,10.77,0.51c0.48,0.02,0.93,0.03,1.2-0.36c0.17-0.24,0.02-0.52,0.02-0.8c0-0.18-0.04-0.36-0.11-0.53
				c0,0-2.91-7.74-5.49-14.02c-0.33-0.8,0.35-1.1,0.94-0.6c3.64,3.13,7.86,6.16,10.09,7.8c0.9,0.67,1.33,0.46,1.11-0.53
				c-0.65-2.97-1.83-8.94-2.83-13.07c-0.13-0.56,0.56-0.78,1.1-0.35c4.32,3.44,11.36,8.82,13.18,10.27
				c-0.38,0.36-0.75,0.72-1.12,1.09c-4.1,4.1-10.17,18.68-10.42,26.86C21.26,125.51,22.47,131.12,24.4,136.27z"/>
			<path style="&st0;" d="M29.11,145.84c-2.97,1.16-9.77,3.81-14.32,5.58c3.48-3.91,8.87-9.89,10.84-12.09
				C26.64,141.6,27.9,143.94,29.11,145.84"/>
			<path style="&st0;" d="M37.99,155.23c-3.09,1.57-9.63,4.87-13.52,6.86c2.22-3.7,5.8-9.69,7.45-12.43
				c0.63,0.73,1.19,1.3,1.84,1.88C35.01,152.67,36.4,153.92,37.99,155.23z"/>
			<path style="&st0;" d="M47.09,161.55c-2.7,1.95-7.31,5.36-10.27,7.5c1.29-3.49,4.17-11.46,4.17-11.46
				C42.82,158.93,44.86,160.34,47.09,161.55z"/>
			<path style="&st0;" d="M58.35,165.69c-2.54,1.96-7.91,7.56-10.73,9.73c0.8-3.09,2.63-9.56,3.28-12.08
				C53.18,164.31,55.69,165.13,58.35,165.69z"/>
			<path style="&st0;" d="M69.54,167.2c-0.98,1.29-4.56,7.86-6.71,10.68c-0.19-3.02-0.27-9.49-0.4-11.46
				C64.67,166.73,67.08,167.05,69.54,167.2z"/>
			<path style="&st0;" d="M161.37,118.54c-0.87-8.03-12.28-19.14-21.97-24.07c-9.37-4.77-25.41-9.78-35.02-10.94
				c-8.86-1.06-29.61-3.55-44.11-1.14c-10.33,1.72-19.48,6.33-26.47,13.32c-3.61,3.61-9.38,17.63-9.6,24.97
				c-0.3,10.15,5.9,23.81,11.43,28.78c5.02,4.51,12.6,11.33,23.75,13.57c11.47,2.29,28.63,1.58,34.61,0.56
				c5.83-1,17.6-6.83,19.72-16.39c2.28-10.26,1.85-15.67-1.66-20.68c-3.82-5.46-6.66-7.29-11.25-7.29c-5.21,0-7.95,0.37-10.54,3.77
				c-2.63,3.46-2.66,7.45-2.09,8.73c0.52,1.17,3.99,3.73,6.96,4.06c0.71,0.08,1.24,0.67,1.24,1.38c0,3.28-2.34,7.64-5.96,11.1
				c-3.76,3.6-8.1,5.49-12.21,5.31c-8.54-0.37-22.66-1.85-29.84-5.89l-2.05-1.37c-5.67-3.69-14.25-9.26-15.12-25.42
				c-0.43-8.03,3.93-18.44,9.52-22.73c10.6-8.14,17.32-10.85,36.24-10.85c12.63,0,26.25,1.27,34.68,3.23
				c6.64,1.55,16.33,4.29,24.73,8.57c11.14,5.67,22.91,15.57,22.91,26.46c0,0.15,0,0.3-0.01,0.45c-0.31,10.4-3.81,18.68-10.82,25.46
				c3.43-2.48,6.45-5.44,8.67-8.72c3.55-5.26,4.53-13.14,4.53-19.14C161.62,121.69,161.52,119.94,161.37,118.54z"/>
			<path style="&st0;" d="M78.31,150.8c-13.8-0.6-23.7-2.78-28.37-5.38l-2.13-1.42c-5.51-3.58-13.06-8.49-13.86-23.24
				c-0.38-6.98,3.65-16.69,8.44-20.37c10.2-7.83,16.3-10.27,34.54-10.27c12.44,0,25.81,1.24,34.05,3.16
				c6.49,1.51,15.94,4.18,24.1,8.34c9.92,5.06,21.39,14.33,21.39,23.98c0,0.12,0,0.24,0,0.36c-0.39,12.99-6.14,22.44-18.1,29.75
				c-0.43,0.26-0.67,0.72-0.67,1.19c0,0.04-2.74,0.99-4.13,1.26c-4.94,0.97-12.55,0.53-19.9,0.11c0,0-1.73-0.09-3.41-0.18
				c2.95-2.82,5.28-6.28,6.16-10.28c0.92-4.13,1.5-7.75,1.5-11.05c0-4.34-1.01-8.13-3.6-11.83c-3.66-5.24-7.21-8.48-13.53-8.48
				c-5.29,0-9.31,0.35-12.75,4.87c-2.17,2.85-2.96,6.02-2.96,8.47c0,1.26,0.21,2.33,0.54,3.08c0.86,1.94,4.36,4.53,7.75,5.42
				c-0.47,2.41-2.3,5.5-4.9,7.98C86.61,148.04,82.82,150.99,78.31,150.8z"/>
			<path style="&st0;" d="M31.55,78.41c0.36,4.13,0.72,8.21,0.9,10.21c-1.32-1.05-3.66-2.91-6.15-4.88
				C27.58,82.28,30.27,79.5,31.55,78.41z"/>
			<path style="&st0;" d="M44.96,84.33c-3.4,1.67-6.58,3.75-9.49,6.12c-0.33-3.79-1.39-14.91-1.83-19.91
				C36.73,74.28,42.92,81.85,44.96,84.33z"/>
		</g>
	</g>
</svg>
