<?xml version="1.0" encoding="iso-8859-1"?>
<!-- Generator: Adobe Illustrator 11 Build 196, SVG Export Plug-In . SVG Version: 6.0.0 Build 78)  -->
<!DOCTYPE svg PUBLIC "-//W3C//DTD SVG 1.0//EN"    "http://www.w3.org/TR/2001/REC-SVG-20010904/DTD/svg10.dtd" [
	<!ENTITY ns_flows "http://ns.adobe.com/Flows/1.0/">
	<!ENTITY ns_svg "http://www.w3.org/2000/svg">
	<!ENTITY ns_xlink "http://www.w3.org/1999/xlink">
	<!ENTITY st0 "stroke:#000000;stroke-linecap:round;stroke-linejoin:round;stroke-miterlimit:2;">
	<!ENTITY st1 "fill:none;stroke:#000000;stroke-linecap:round;stroke-linejoin:round;stroke-miterlimit:2;">
]>
<svg  xmlns="&ns_svg;" xmlns:xlink="&ns_xlink;" xmlns:a="http://ns.adobe.com/AdobeSVGViewerExtensions/3.0/"
	 width="167.95" height="175.33" viewBox="0 0 167.95 175.33" style="overflow:visible;enable-background:new 0 0 167.95 175.33"
	 xml:space="preserve">
	<g id="Layer_2">
		<path style="&st1;" d="M54.76,78.84c0.98-3.52,2.93-7.63,5.41-10.11c1.63-0.06,3.15-0.26,5.67,0.17l-2.09,3.74"/>
		<path style="&st1;" d="M122.06,89.73c5.28-0.65,11.17,3.4,15.13,6.85c16.38,22.12,18.57,53.21,30.26,74.08"/>
		<path style="&st1;" d="M100.67,173.79c-2.92-5.22-3.14-13.49-4.5-19.43"/>
		<path style="&st1;" d="M78.43,130.03c4.37-0.39,3,2.74,1.44,3.85c-0.67,0.48-3.08,2.21-4.04,2.48"/>
		<path style="&st1;" d="M65.19,135.18c1.17,10.5,0.83,11.79,5.22,20.87c1.51-1.74,2.36-7.81,4.3-9.85c2.49-2.6,3.07-3.03,4.3-6.26
			c0.2-0.53,1.96-1.76,2.48-2.87c1.43-1.83,0.2-3.33-1.63-3.2"/>
		<path style="&st1;" d="M69.24,130.03c1.36-1.36,5.88-2.34,7.23-3.7"/>
		<path style="&st1;" d="M72.5,123.51c1.44-1.04,4.76,1.5,3.97,2.83c1.77-0.48,2.68,1.28,1.96,3.7c-2.16,1.44-2.48,1.3-5.35,3.26"/>
		<path style="&st1;" d="M105.63,157.29c-2.41-1.43-6-1.11-9.46-2.93c-1.95-1.03-4.04-6.91-7.5-7.43c-2.14-0.32-2.09,0.26-3.2,0
			c-0.88-0.21-2.63-0.42-3.59-0.26"/>
		<path style="&st1;" d="M71.85,174.38c0.78-5.48-1.83-12.26-1.43-18.33"/>
		<path style="&st1;" d="M92.91,150.38c0.72,7.96,2.13,15.17,1.5,23.41c0-1.36,0-2.82,0-4.17"/>
		<path style="&st1;" d="M64.15,136.23c-1.57,11.9,4.3,31.24-0.65,38.15"/>
		<path style="&st1;" d="M61.54,135.51c-6.78,7.17-0.72,21.52-3,38.61"/>
		<path style="&st1;" d="M39.76,83.79c2.87,14.09,5.86,30.65,12.91,43.04"/>
		<path style="&st1;" d="M65.19,135.18c-3.44-6.57-6.91-15.91-7.7-17.67c-0.41-0.93-0.39-5.22,2.8-1.7"/>
		<path style="&st1;" d="M64.41,135.64c-2.35-0.13-1.57-0.26-3.33-0.26c-10.71,0-21.85,3.26-29.02,11.48"/>
		<path style="&st1;" d="M61.08,135.38c-5.28-1.43-5.53-6.59-8.41-8.54c-5.22-1.57-12.52-1.57-17.74,0
			c-3.83,1.84-8.23,4.12-8.74,4.5"/>
		<path style="&st1;" d="M43.28,81.97c-9.85,6.13-21.91,4.49-26.09,16.7C9.15,122.19,1.02,147.49,0.5,173.79"/>
		<path style="&st1;" d="M65.32,127.16c2.22-1.37,3.85-1.63,7.17-3.46c-5.95-12.1-12.65-32.35-15.06-37.89
			c-2.38-5.47-0.52-1.7-2.67-6.98c-0.85-2.07-3.56-7.74-5.35-10.17c-4.35,2.09-6.39,3.2-10.3,6c1.56,2.74,2.76,4.53,4.17,7.3
			c5.35,10.5,11.39,22.61,16.04,32.15C61.87,119.34,63.17,121.75,65.32,127.16z"/>
		<path style="&st1;" d="M89.84,135.51c0.78-15.13-2.35-28.43-4.67-36.47"/>
		<path style="&st0;" d="M95.45,50.66c-1.67,0-4.95-0.56-4.74-3.06C92.18,48.12,94.31,49.31,95.45,50.66z"/>
		<path style="&st0;" d="M93.37,59.01c-0.52,0.63-1.36,1.15-1.04,2.09c-2.19-0.31-3.96-3.24-5.61-4.98
			C89.76,57.08,91.8,57.03,93.37,59.01z"/>
		<path style="&st1;" d="M100.34,62.4c1.17,2.35,3.91,8.08,0.02,9.8c-1.72,0.76-6.61-0.74-7.22-3.65"/>
		<path style="&st0;" d="M90.89,78.12c0-1.43,0.06-4,1.11-5.15c0.91,1.5,0.65,2.09,2.41,3.78c1.77-1.98,3.26-0.91,5.09-1.56
			c0,1.04-0.26,5.93-0.26,3.85c-1.24-2.09-4.41-1.76-6.91-2.28C91.58,79.06,92.13,76.75,90.89,78.12z"/>
		<path style="&st1;" d="M60.17,68.73c0.52,5.84,5.7,13.4,9.2,17.41c3.55,4.07,7.28,6.61,12.39,6.72c2.56,0.05,6.29-0.14,8.48-1.5"
			/>
		<path style="&st1;" d="M96.37,138.38c-2.67,0.2-3.59-1.26-7.17-0.07c-1.59,0.53-2.48,1.72-2.61,3.72"/>
		<path style="&st1;" d="M91.54,131.86c2.09-2.15,3.49-2.18,7.04-1.57c1.5,0.26,1.89,0.65,2.41,1.24
			c5.54-13.5,14.93-27.06,21.06-41.8c0.96-2.32,2.09-4.04,3.65-7.76c-2.42-1.21-6.72-3.33-9.33-3.85c-1.37,1.76-1.48,3.66-3.2,6.98
			c-1.67,3.23-3.72,7.08-5.48,11.28c-4.49,10.75-13.38,28.38-17.87,39.13"/>
		<path style="&st1;" d="M85.48,146.92c-2.93-3.52-0.65-4.5,2.8-4.83c2.38-0.22,5.95,0.31,6.26,0"/>
		<path style="&st1;" d="M111.4,45.99"/>
		<path style="&st0;" d="M112.34,52.95c-1.63,0.72-6.53-0.13-3.72-1.17C109.77,51.77,111.72,51.59,112.34,52.95z"/>
		<path style="&st0;" d="M108.3,60.19c-1.5,2.02-3.2-0.59-5.15,1.17c1.57,0.39,3.07,2.93,4.24,2.35L108.3,60.19z"/>
		<path style="&st0;" d="M112.59,45.65c-2.2,0.44-2.42-0.1-3.61,0.38c-8.35,0.21-14.85-3.1-20.7-9.04
			c-3.23-0.63-3.22,1.13-0.96,3.13c-3.13-0.21-1.91,3.29-5.57,1.83c3.3,3.3-5.22,6.35-4.04,17.06c-1.61-3.34,0.06-7.84-4.22-9.67
			c-1.77,1.04-2.45,3.1-3.91,4.35c-0.63,3.23-4.05,11.91,3.04,11.39c0.26,2.09-0.17,0.17-0.43,1.91c-1.22,0.96-3.39,1.65-6.35,1.91
			c-1.04-11.56,3.17-26.63,8.78-31.22c-8.65,0.52-5.56-7.66-4.93-11.41c1.25-4.17,7.3-5.93,11.15-2.74
			c1.04,1.04,2.09,2.09,3.13,3.13c3.72-9.2,10.3-22.37,17.74-26.09c3.72-0.59,6.25,2.15,8.35,5.22c2.41,3.52,0.85,7.83-1.5,12.13
			c-2.09,2.55-3.85,5.02-6.13,6.91c-6.78,4.43-7.63,4.24-19.11,6.46c18.78,0,27.78-1.04,32.67,9.13
			C115.93,41.08,114.23,44.01,112.59,45.65z"/>
		<path style="&st1;" d="M112.59,45.65c-0.75,3.06,1.11,7.97-1.68,11.27c-7.76,8.15,2.26,4.41-5.02,25.04
			c-0.39,1.11-1.83,2.09-2.67,2.8c-2.18,1.85-2.02,2.15-4.24,4.17"/>
		<path style="&st0;" d="M98.97,88.94c-0.52-0.52-1.75-1.34-1.43,0.33c-1.04,2.09-2.92-0.31-4.17-1.04
			c-0.98,1.05-2.27,1.21-3.52,1.5c-0.07,0.98,0.98,3.91,3.52,2.67c0.73-1.04,1.36-1.04,2.09,0c0.18,0.42-0.29,6.22-0.33,6.59
			c0.26-2.28,0.33-2.73,0.33-3.46c1.15-3.34,0.98-0.65,1.76,0.26C97.08,92.21,99.63,89.34,98.97,88.94z"/>
		<path style="&st1;" d="M95.66,93.58c-0.18,1.91-2.96,3.11-4.38,4.04c-1.92,1.25-4.14,1.33-6.1,1.42
			c-8.47,0.42-15.54-5.64-22.07-10.81c-4.53-3.59-3.46-3.33-8.35-9.39"/>
		<path style="&st1;" d="M89.84,89.73c-5,1.16-11.5-2.43-15.74-5.35"/>
		<path style="&st1;" d="M105.89,81.97c1.57,3.23,4.9,2.09,7.3,3.13"/>
		<path style="&st1;" d="M113.97,108.71c4.17,7.17,4.83,22.83,3.13,29.67"/>
		<path style="&st1;" d="M103.41,140.33c4.8-2.4,9,0.65,13.7-1.96c9.25-5.14,21.86,1.81,29.48,9.33"/>
		<path style="&st1;" d="M105.63,121.16c1.11-0.07,2.22-0.91,3,0.78c0.56,1.22-0.05,2.16-0.56,2.81c-2.67,3.45-4.75,9.43-4.66,15.58
			c8.04,8.87,1.96,24.79,7.7,34.5"/>
		<path style="&st1;" d="M120.5,174.83c-8.97-9.81,1.37-30.27-14.8-35.28"/>
		<path style="&st1;" d="M125.71,173.79c-7.09-10.85-1.77-29.63-16.69-34.43"/>
		<path style="&st1;" d="M74.71,146.2c1.06,1.84,2.54,6.91,3.2,8.09c1.25-0.73,2.61-1.57,4.56-3.2c-0.13-1.89-0.13-2.44-0.59-4.43
			c-0.33-1.43-1.7-4.83-2.48-6.07"/>
		<path style="&st1;" d="M85.48,146.92c-0.85,1.76-1.04,3.07-1.76,4.76c1.43,1.04,4.24,2.48,5.74,3.46
			c0.78-2.61,1.17-4.24,1.96-6.59"/>
		<path style="&st1;" d="M72.37,57.25c2.09,1.04,1.04,2.61,2.09,3.65"/>
		<path style="&st1;" d="M98.19,134.53c-2.61-0.46-6.06-0.39-7.7,0.33c-1.54,0.68-2.35,2.24-2.48,4.24"/>
		<path style="&st1;" d="M82.93,28.75c-0.59,3.91,0.93,5.95-4.5,6.78c-3.2,0.33-4.76,0.67-3.8,2.15c-7.56-1.13-5.2-8.61-4.09-11.15
			C73.02,21.45,82.51,22.91,82.93,28.75z"/>
	</g>
</svg>
