<?xml version="1.0" encoding="iso-8859-1"?>
<!-- Generator: Adobe Illustrator 11 Build 196, SVG Export Plug-In . SVG Version: 6.0.0 Build 78)  -->
<!DOCTYPE svg PUBLIC "-//W3C//DTD SVG 1.0//EN"    "http://www.w3.org/TR/2001/REC-SVG-20010904/DTD/svg10.dtd" [
	<!ENTITY ns_flows "http://ns.adobe.com/Flows/1.0/">
	<!ENTITY ns_svg "http://www.w3.org/2000/svg">
	<!ENTITY ns_xlink "http://www.w3.org/1999/xlink">
	<!ENTITY st0 "fill:none;stroke:#000000;stroke-width:0.8448;">
]>
<svg  xmlns="&ns_svg;" xmlns:xlink="&ns_xlink;" xmlns:a="http://ns.adobe.com/AdobeSVGViewerExtensions/3.0/"
	 width="22.93" height="98.49" viewBox="0 0 22.93 98.49" style="overflow:visible;enable-background:new 0 0 22.93 98.49"
	 xml:space="preserve">
	<g id="Layer_1">
		
			<rect x="6.91" y="85.84" transform="matrix(0.6486 -0.7611 0.7611 0.6486 -63.1369 42.5469)" style="&st0;" width="15.19" height="7.61"/> 
		
			<rect x="6.04" y="75.12" transform="matrix(0.6486 -0.7611 0.7611 0.6486 -55.285 38.1181)" style="&st0;" width="15.19" height="7.61"/> 
		
			<rect x="5.17" y="64.4" transform="matrix(0.6485 -0.7612 0.7612 0.6485 -47.4339 33.6919)" style="&st0;" width="15.19" height="7.61"/> 
		
			<rect x="4.3" y="53.69" transform="matrix(0.6486 -0.7611 0.7611 0.6486 -39.5783 29.2571)" style="&st0;" width="15.19" height="7.61"/> 
		
			<rect x="3.43" y="42.97" transform="matrix(0.6486 -0.7612 0.7612 0.6486 -31.729 24.8331)" style="&st0;" width="15.19" height="7.61"/> 
		
			<rect x="2.56" y="32.25" transform="matrix(0.6486 -0.7611 0.7611 0.6486 -23.8753 20.4014)" style="&st0;" width="15.19" height="7.61"/> 
		
			<rect x="1.69" y="21.53" transform="matrix(0.6485 -0.7612 0.7612 0.6485 -16.025 15.975)" style="&st0;" width="15.19" height="7.61"/> 
		
			<rect x="-0.51" y="7.93" transform="matrix(0.6486 -0.7612 0.7612 0.6486 -5.1078 12.4049)" style="&st0;" width="22.78" height="7.61"/> 
	</g>
</svg>
