<?xml version="1.0" encoding="iso-8859-1"?>
<!-- Generator: Adobe Illustrator 11 Build 196, SVG Export Plug-In . SVG Version: 6.0.0 Build 78)  -->
<!DOCTYPE svg PUBLIC "-//W3C//DTD SVG 1.0//EN"    "http://www.w3.org/TR/2001/REC-SVG-20010904/DTD/svg10.dtd" [
	<!ENTITY ns_flows "http://ns.adobe.com/Flows/1.0/">
	<!ENTITY ns_svg "http://www.w3.org/2000/svg">
	<!ENTITY ns_xlink "http://www.w3.org/1999/xlink">
	<!ENTITY st0 "fill:none;stroke:#000000;stroke-linecap:round;stroke-linejoin:round;">
]>
<svg  xmlns="&ns_svg;" xmlns:xlink="&ns_xlink;" xmlns:a="http://ns.adobe.com/AdobeSVGViewerExtensions/3.0/"
	 width="123.33" height="81" viewBox="0 0 123.33 81" style="overflow:visible;enable-background:new 0 0 123.33 81"
	 xml:space="preserve">
	<g id="Layer_1">
		<g>
			<line style="&st0;" x1="54.17" y1="66.25" x2="54.17" y2="80.5"/>
			<polyline style="&st0;" points="107.83,39 108.17,52.17 54.17,80.5 10.5,58.5 10.5,44.67 "/>
		</g>
		<g>
			<line style="&st0;" x1="119.83" y1="28.83" x2="116.94" y2="26.19"/>
			<line style="&st0;" x1="112.31" y1="25.43" x2="117.4" y2="30.06"/>
			<line style="&st0;" x1="103.06" y1="23.9" x2="112.53" y2="32.53"/>
			<line style="&st0;" x1="114.96" y1="31.29" x2="107.68" y2="24.66"/>
			<line style="&st0;" x1="93.81" y1="22.37" x2="107.65" y2="34.99"/>
			<line style="&st0;" x1="110.09" y1="33.76" x2="98.43" y2="23.13"/>
			<line style="&st0;" x1="84.56" y1="20.84" x2="102.78" y2="37.45"/>
			<line style="&st0;" x1="105.22" y1="36.22" x2="89.18" y2="21.6"/>
			<line style="&st0;" x1="65.98" y1="28.06" x2="85.73" y2="46.06"/>
			<line style="&st0;" x1="80.6" y1="20.68" x2="100.35" y2="38.68"/>
			<line style="&st0;" x1="78.16" y1="21.91" x2="97.91" y2="39.91"/>
			<line style="&st0;" x1="75.73" y1="23.14" x2="95.48" y2="41.14"/>
			<line style="&st0;" x1="73.29" y1="24.37" x2="93.04" y2="42.37"/>
			<line style="&st0;" x1="70.85" y1="25.6" x2="90.6" y2="43.6"/>
			<line style="&st0;" x1="68.42" y1="26.83" x2="88.17" y2="44.83"/>
			<line style="&st0;" x1="63.55" y1="29.29" x2="83.3" y2="47.29"/>
			<line style="&st0;" x1="61.11" y1="30.53" x2="80.86" y2="48.53"/>
			<line style="&st0;" x1="58.67" y1="31.76" x2="78.42" y2="49.76"/>
			<line style="&st0;" x1="56.24" y1="32.99" x2="75.99" y2="50.99"/>
			<line style="&st0;" x1="53.8" y1="34.22" x2="73.55" y2="52.22"/>
			<line style="&st0;" x1="51.37" y1="35.45" x2="71.12" y2="53.45"/>
			<line style="&st0;" x1="51.3" y1="42.29" x2="66.24" y2="55.91"/>
			<line style="&st0;" x1="68.68" y1="54.68" x2="50.82" y2="38.4"/>
			<line style="&st0;" x1="52.26" y1="50.06" x2="61.37" y2="58.37"/>
			<line style="&st0;" x1="63.81" y1="57.14" x2="51.78" y2="46.18"/>
			<line style="&st0;" x1="58.94" y1="59.6" x2="52.86" y2="54.06"/>
			<line style="&st0;" x1="53.29" y1="57.9" x2="56.5" y2="60.83"/>
		</g>
		<g>
			<line style="&st0;" x1="50.5" y1="35.83" x2="80.6" y2="20.68"/>
			<line style="&st0;" x1="45.74" y1="21.65" x2="75.83" y2="6.5"/>
		</g>
		<g>
			<line style="&st0;" x1="50.4" y1="35.32" x2="45.74" y2="21.65"/>
			<line style="&st0;" x1="52.72" y1="34.15" x2="48.05" y2="20.49"/>
			<line style="&st0;" x1="55.03" y1="32.99" x2="50.37" y2="19.32"/>
			<line style="&st0;" x1="57.35" y1="31.82" x2="52.68" y2="18.16"/>
			<line style="&st0;" x1="59.66" y1="30.66" x2="55" y2="16.99"/>
			<line style="&st0;" x1="61.98" y1="29.49" x2="57.31" y2="15.83"/>
			<line style="&st0;" x1="64.29" y1="28.33" x2="59.63" y2="14.66"/>
			<line style="&st0;" x1="66.61" y1="27.16" x2="61.94" y2="13.49"/>
			<line style="&st0;" x1="68.93" y1="26" x2="64.26" y2="12.33"/>
			<line style="&st0;" x1="71.24" y1="24.83" x2="66.57" y2="11.16"/>
			<line style="&st0;" x1="73.56" y1="23.66" x2="68.89" y2="10"/>
			<line style="&st0;" x1="75.87" y1="22.5" x2="71.2" y2="8.83"/>
			<line style="&st0;" x1="78.19" y1="21.33" x2="73.52" y2="7.67"/>
			<line style="&st0;" x1="80.5" y1="20.17" x2="75.83" y2="6.5"/>
		</g>
		<g>
			<line style="&st0;" x1="43.33" y1="30.83" x2="27.33" y2="49.17"/>
			<line style="&st0;" x1="39.98" y1="29.17" x2="23.98" y2="47.5"/>
			<line style="&st0;" x1="29.9" y1="29.7" x2="17.27" y2="44.17"/>
			<line style="&st0;" x1="20.62" y1="45.83" x2="35.78" y2="28.47"/>
			<line style="&st0;" x1="18.14" y1="32.15" x2="10.56" y2="40.83"/>
			<line style="&st0;" x1="13.92" y1="42.5" x2="24.02" y2="30.93"/>
			<line style="&st0;" x1="6.38" y1="34.61" x2="3.85" y2="37.5"/>
			<line style="&st0;" x1="7.21" y1="39.17" x2="12.26" y2="33.38"/>
			<line style="&st0;" x1="46.69" y1="32.5" x2="30.69" y2="50.83"/>
			<line style="&st0;" x1="37.4" y1="54.17" x2="50.86" y2="38.74"/>
			<line style="&st0;" x1="50.04" y1="34.17" x2="34.04" y2="52.5"/>
			<line style="&st0;" x1="44.1" y1="57.5" x2="52.05" y2="48.39"/>
			<line style="&st0;" x1="51.46" y1="43.57" x2="40.75" y2="55.83"/>
			<line style="&st0;" x1="50.81" y1="60.83" x2="53.24" y2="58.05"/>
			<line style="&st0;" x1="52.65" y1="53.22" x2="47.46" y2="59.17"/>
		</g>
		<g>
			<line style="&st0;" x1="73.4" y1="2.29" x2="69.22" y2="3.48"/>
			<line style="&st0;" x1="68.65" y1="6.25" x2="76.69" y2="3.95"/>
			<line style="&st0;" x1="74.22" y1="7.26" x2="68.09" y2="9.01"/>
			<line style="&st0;" x1="76.73" y1="9.14" x2="83.28" y2="7.27"/>
			<line style="&st0;" x1="79.99" y1="5.61" x2="75.93" y2="6.77"/>
			<line style="&st0;" x1="78.35" y1="13.88" x2="89.87" y2="10.58"/>
			<line style="&st0;" x1="86.58" y1="8.92" x2="77.54" y2="11.51"/>
			<line style="&st0;" x1="79.97" y1="18.61" x2="96.47" y2="13.9"/>
			<line style="&st0;" x1="93.17" y1="12.24" x2="79.16" y2="16.24"/>
			<line style="&st0;" x1="88.25" y1="21.45" x2="103.06" y2="17.22"/>
			<line style="&st0;" x1="99.76" y1="15.56" x2="82.49" y2="20.49"/>
			<line style="&st0;" x1="99.78" y1="23.35" x2="109.65" y2="20.53"/>
			<line style="&st0;" x1="106.35" y1="18.88" x2="94.01" y2="22.4"/>
			<line style="&st0;" x1="111.31" y1="25.26" x2="116.24" y2="23.85"/>
			<line style="&st0;" x1="112.95" y1="22.19" x2="105.54" y2="24.31"/>
			<line style="&st0;" x1="119.54" y1="25.51" x2="117.07" y2="26.21"/>
		</g>
		<g>
			<polyline style="&st0;" points="0.5,35.83 53.83,62.83 122.83,27.17 69.83,0.5 0.5,35.83 "/>
			<polyline style="&st0;" points="0.5,35.83 0.5,38.83 53.83,65.83 122.83,30.17 122.83,27.17 80.5,20.17 75.83,6.5 45.74,21.65 
				38.83,27.83 0.5,35.83 "/>
			<polygon style="&st0;" points="40.75,29.08 47.5,32.75 44.92,25 "/>
			<line style="&st0;" x1="69.83" y1="0.5" x2="67.83" y2="10.25"/>
			<line style="&st0;" x1="53.83" y1="62.83" x2="53.83" y2="65.83"/>
			<path style="&st0;" d="M45.74,21.65"/>
			<path style="&st0;" d="M51.37,35.45"/>
			<line style="&st0;" x1="50.5" y1="35.83" x2="53.83" y2="62.83"/>
		</g>
		<g>
			<line style="&st0;" x1="4.49" y1="35" x2="3.17" y2="34.47"/>
			<line style="&st0;" x1="69.37" y1="2.74" x2="67.17" y2="1.86"/>
			<line style="&st0;" x1="64.5" y1="3.22" x2="68.91" y2="4.98"/>
			<line style="&st0;" x1="68.46" y1="7.22" x2="61.83" y2="4.58"/>
			<line style="&st0;" x1="59.17" y1="5.94" x2="68" y2="9.46"/>
			<line style="&st0;" x1="66.12" y1="11.13" x2="56.5" y2="7.29"/>
			<line style="&st0;" x1="53.83" y1="8.65" x2="63.48" y2="12.5"/>
			<line style="&st0;" x1="60.83" y1="13.87" x2="51.17" y2="10.01"/>
			<line style="&st0;" x1="48.5" y1="11.37" x2="58.18" y2="15.23"/>
			<line style="&st0;" x1="43.17" y1="14.09" x2="52.88" y2="17.97"/>
			<line style="&st0;" x1="55.53" y1="16.6" x2="45.83" y2="12.73"/>
			<line style="&st0;" x1="50.24" y1="19.33" x2="40.5" y2="15.45"/>
			<line style="&st0;" x1="37.83" y1="16.81" x2="47.59" y2="20.7"/>
			<line style="&st0;" x1="32.5" y1="19.53" x2="43.3" y2="23.83"/>
			<line style="&st0;" x1="45.17" y1="22.16" x2="35.17" y2="18.17"/>
			<line style="&st0;" x1="41.43" y1="25.51" x2="29.83" y2="20.88"/>
			<line style="&st0;" x1="27.17" y1="22.24" x2="39.56" y2="27.19"/>
			<line style="&st0;" x1="21.83" y1="24.96" x2="32.4" y2="29.18"/>
			<line style="&st0;" x1="36.39" y1="28.34" x2="24.5" y2="23.6"/>
			<line style="&st0;" x1="28.41" y1="30.01" x2="19.17" y2="26.32"/>
			<line style="&st0;" x1="16.5" y1="27.68" x2="24.42" y2="30.84"/>
			<line style="&st0;" x1="20.44" y1="31.67" x2="13.83" y2="29.04"/>
			<line style="&st0;" x1="11.17" y1="30.4" x2="16.45" y2="32.5"/>
			<line style="&st0;" x1="5.83" y1="33.12" x2="8.47" y2="34.17"/>
			<line style="&st0;" x1="12.46" y1="33.34" x2="8.5" y2="31.76"/>
		</g>
	</g>
</svg>
