<?xml version="1.0" encoding="iso-8859-1"?>
<!-- Generator: Adobe Illustrator 11 Build 196, SVG Export Plug-In . SVG Version: 6.0.0 Build 78)  -->
<!DOCTYPE svg PUBLIC "-//W3C//DTD SVG 1.0//EN"    "http://www.w3.org/TR/2001/REC-SVG-20010904/DTD/svg10.dtd" [
	<!ENTITY ns_flows "http://ns.adobe.com/Flows/1.0/">
	<!ENTITY ns_svg "http://www.w3.org/2000/svg">
	<!ENTITY ns_xlink "http://www.w3.org/1999/xlink">
	<!ENTITY st0 "fill:none;stroke:#000000;stroke-linecap:round;stroke-linejoin:round;">
	<!ENTITY st1 "fill:none;stroke:#000000;stroke-width:0.75;stroke-linecap:round;stroke-linejoin:round;">
	<!ENTITY st2 "stroke:#000000;stroke-linecap:round;stroke-linejoin:round;">
]>
<svg  xmlns="&ns_svg;" xmlns:xlink="&ns_xlink;" xmlns:a="http://ns.adobe.com/AdobeSVGViewerExtensions/3.0/"
	 width="545.82" height="192.3" viewBox="0 0 545.82 192.3" style="overflow:visible;enable-background:new 0 0 545.82 192.3"
	 xml:space="preserve">
	<g id="Pfade">
		<circle style="&st0;" cx="191.21" cy="28.4" r="5.23"/> 
		<circle style="&st1;" cx="191.21" cy="28.4" r="3.8"/> 
		<circle style="&st0;" cx="212.11" cy="28.4" r="5.23"/> 
		<circle style="&st1;" cx="212.11" cy="28.4" r="3.8"/> 
		<circle style="&st0;" cx="168.89" cy="28.4" r="5.23"/> 
		<circle style="&st1;" cx="168.89" cy="28.4" r="3.8"/> 
		<circle style="&st0;" cx="232.06" cy="28.4" r="5.22"/> 
		<circle style="&st1;" cx="232.06" cy="28.4" r="3.8"/> 
		<circle style="&st0;" cx="254.39" cy="28.4" r="5.23"/> 
		<circle style="&st1;" cx="254.39" cy="28.4" r="3.8"/> 
		<rect x="268.52" y="0.85" style="&st0;" width="3.44" height="37.05"/> 
		<polyline style="&st0;" points="271.96,0.85 275.17,0.85 275.17,30.3 "/>
		<polyline style="&st0;" points="271.96,30.3 315.54,30.3 315.54,33.15 272.32,33.15 "/>
		<polyline style="&st0;" points="315.54,33.15 315.54,36.23 271.96,36 "/>
		<line style="&st0;" x1="174.35" y1="30.3" x2="185.99" y2="30.3"/>
		<line style="&st0;" x1="196.67" y1="30.3" x2="206.89" y2="30.3"/>
		<line style="&st0;" x1="217.58" y1="30.3" x2="226.84" y2="30.3"/>
		<line style="&st0;" x1="237.29" y1="30.3" x2="249.64" y2="30.3"/>
		<line style="&st0;" x1="259.61" y1="30.3" x2="268.4" y2="30.3"/>
		<line style="&st0;" x1="268.16" y1="33.15" x2="257.24" y2="33.15"/>
		<line style="&st0;" x1="251.54" y1="33.15" x2="234.91" y2="33.15"/>
		<line style="&st0;" x1="229.45" y1="33.15" x2="214.96" y2="33.15"/>
		<line style="&st0;" x1="209.5" y1="33.15" x2="193.82" y2="33.15"/>
		<line style="&st0;" x1="188.36" y1="33.15" x2="171.74" y2="33.15"/>
		<rect x="252.49" y="36.83" style="&st0;" width="3.09" height="2.14"/> 
		<rect x="230.64" y="36.83" style="&st0;" width="3.09" height="2.14"/> 
		<rect x="210.57" y="36.83" style="&st0;" width="3.09" height="2.14"/> 
		<rect x="189.67" y="36.83" style="&st0;" width="3.09" height="2.14"/> 
		<rect x="167.58" y="36.83" style="&st0;" width="3.09" height="2.14"/> 
		<polyline style="&st0;" points="283.12,48.11 294.05,48.11 294.05,59.04 283.12,59.04 "/>
		<line style="&st0;" x1="154.88" y1="115.08" x2="154.88" y2="146.67"/>
		<polyline style="&st0;" points="159.39,115.08 159.39,146.91 174.11,146.91 174.11,115.08 "/>
		<polyline style="&st0;" points="174.11,146.91 177.56,150 177.56,114.85 "/>
		<line style="&st0;" x1="159.39" y1="146.91" x2="157.96" y2="150"/>
		<line style="&st0;" x1="264.9" y1="114.85" x2="264.9" y2="140.5"/>
		<line style="&st0;" x1="181.59" y1="114.85" x2="181.59" y2="150"/>
		<line style="&st0;" x1="191.92" y1="114.85" x2="191.92" y2="140.73"/>
		<line style="&st0;" x1="240.38" y1="114.85" x2="240.38" y2="140.97"/>
		<line style="&st0;" x1="191.92" y1="120.79" x2="240.38" y2="120.79"/>
		<line style="&st0;" x1="191.92" y1="125.65" x2="240.38" y2="125.65"/>
		<line style="&st0;" x1="191.92" y1="131.35" x2="240.38" y2="131.35"/>
		<line style="&st0;" x1="191.92" y1="136.34" x2="240.38" y2="136.34"/>
		<line style="&st0;" x1="255.16" y1="114.85" x2="255.16" y2="140.5"/>
		<line style="&st0;" x1="403.78" y1="159.26" x2="403.78" y2="191.8"/>
		<line style="&st0;" x1="413.51" y1="159.26" x2="413.51" y2="191.8"/>
		<line style="&st0;" x1="448.42" y1="159.26" x2="448.42" y2="191.8"/>
		<line style="&st0;" x1="403.78" y1="143.35" x2="403.78" y2="147.62"/>
		<line style="&st0;" x1="413.51" y1="143.58" x2="413.51" y2="147.39"/>
		<line style="&st0;" x1="448.42" y1="143.35" x2="448.42" y2="147.62"/>
		<polyline style="&st0;" points="403.78,140.97 403.78,97.98 413.51,97.98 413.51,141.21 "/>
		<line style="&st0;" x1="448.42" y1="52.86" x2="448.42" y2="140.73"/>
		<line style="&st0;" x1="251" y1="114.85" x2="251" y2="140.5"/>
		<line style="&st0;" x1="264.9" y1="159.12" x2="264.9" y2="191.65"/>
		<line style="&st0;" x1="270.6" y1="159.12" x2="270.6" y2="191.65"/>
		<line style="&st0;" x1="275.82" y1="159.12" x2="275.82" y2="191.65"/>
		<line style="&st0;" x1="383.59" y1="159.19" x2="383.59" y2="191.72"/>
		<line style="&st0;" x1="378.84" y1="159.19" x2="378.84" y2="191.72"/>
		<line style="&st0;" x1="433.46" y1="159.19" x2="433.46" y2="191.72"/>
		<line style="&st0;" x1="428.24" y1="159.19" x2="428.24" y2="191.72"/>
		<line style="&st0;" x1="441.06" y1="78.44" x2="441.06" y2="89.6"/>
		<line style="&st0;" x1="436.79" y1="78.44" x2="436.79" y2="89.6"/>
		<line style="&st0;" x1="451.04" y1="159.19" x2="451.04" y2="191.72"/>
		<line style="&st0;" x1="411.14" y1="159.19" x2="411.14" y2="191.72"/>
		<line style="&st0;" x1="406.39" y1="159.19" x2="406.39" y2="191.72"/>
		<line style="&st0;" x1="255.16" y1="159.12" x2="255.16" y2="191.65"/>
		<line style="&st0;" x1="251" y1="159.12" x2="251" y2="191.65"/>
		<line style="&st0;" x1="246.85" y1="159.12" x2="246.85" y2="191.65"/>
		<line style="&st0;" x1="242.69" y1="159.12" x2="242.69" y2="191.65"/>
		<line style="&st0;" x1="216.45" y1="159.12" x2="216.45" y2="191.65"/>
		<line style="&st0;" x1="212.29" y1="159.12" x2="212.29" y2="191.65"/>
		<polyline style="&st0;" points="289.3,191.8 202.85,191.8 194.54,187.76 "/>
		<polyline style="&st0;" points="544.61,191.8 339.89,191.8 332.29,187.76 324.92,191.8 "/>
		<polyline style="&st0;" points="188.96,153.8 278.73,153.8 278.73,156.17 188.24,156.17 "/>
		<line style="&st0;" x1="194.54" y1="187.76" x2="194.54" y2="159.26"/>
		<circle style="&st0;" cx="215.91" cy="139.07" r="1.9"/> 
		<circle style="&st0;" cx="186.21" cy="139.31" r="1.9"/> 
		<circle style="&st0;" cx="246.79" cy="139.31" r="1.9"/> 
		<circle style="&st0;" cx="274.34" cy="139.31" r="1.9"/> 
		<line style="&st0;" x1="184.79" y1="143.35" x2="181.95" y2="143.35"/>
		<line style="&st0;" x1="214.49" y1="143.35" x2="187.64" y2="143.35"/>
		<line style="&st0;" x1="245.36" y1="143.35" x2="217.1" y2="143.35"/>
		<line style="&st0;" x1="272.91" y1="143.35" x2="248.21" y2="143.35"/>
		<line style="&st0;" x1="406.86" y1="143.35" x2="382.16" y2="143.35"/>
		<line style="&st0;" x1="429.66" y1="143.35" x2="409.95" y2="143.35"/>
		<line style="&st0;" x1="451.99" y1="143.35" x2="432.28" y2="143.35"/>
		<polyline style="&st0;" points="181.7,141.21 278.12,141.21 278.38,143.35 275.52,143.35 "/>
		<line style="&st0;" x1="275.52" y1="141.21" x2="275.52" y2="147.62"/>
		<line style="&st0;" x1="272.91" y1="141.21" x2="272.91" y2="147.62"/>
		<circle style="&st0;" cx="380.74" cy="139.31" r="1.9"/> 
		<line style="&st0;" x1="381.92" y1="141.21" x2="381.92" y2="147.62"/>
		<line style="&st0;" x1="379.31" y1="141.21" x2="379.31" y2="147.62"/>
		<circle style="&st0;" cx="408.76" cy="139.31" r="1.9"/> 
		<line style="&st0;" x1="409.95" y1="141.21" x2="409.95" y2="147.62"/>
		<line style="&st0;" x1="407.34" y1="141.21" x2="407.34" y2="147.62"/>
		<circle style="&st0;" cx="431.09" cy="139.31" r="1.9"/> 
		<line style="&st0;" x1="432.28" y1="141.21" x2="432.28" y2="147.62"/>
		<line style="&st0;" x1="429.66" y1="141.21" x2="429.66" y2="147.62"/>
		<line style="&st0;" x1="452.22" y1="141.21" x2="452.22" y2="147.62"/>
		<line style="&st0;" x1="248.21" y1="141.21" x2="248.21" y2="147.62"/>
		<line style="&st0;" x1="245.36" y1="141.21" x2="245.36" y2="147.62"/>
		<line style="&st0;" x1="217.1" y1="141.21" x2="217.1" y2="147.62"/>
		<line style="&st0;" x1="214.49" y1="141.21" x2="214.49" y2="147.62"/>
		<line style="&st0;" x1="187.4" y1="141.21" x2="187.4" y2="150.12"/>
		<line style="&st0;" x1="184.79" y1="141.21" x2="184.79" y2="150.12"/>
		<line style="&st0;" x1="264.9" y1="143.35" x2="264.9" y2="147.62"/>
		<line style="&st0;" x1="255.16" y1="143.58" x2="255.16" y2="147.62"/>
		<line style="&st0;" x1="251" y1="143.82" x2="251" y2="147.62"/>
		<line style="&st0;" x1="191.92" y1="143.47" x2="191.92" y2="147.62"/>
		<line style="&st0;" x1="240.38" y1="143.47" x2="240.38" y2="147.62"/>
		<line style="&st0;" x1="239.48" y1="159.12" x2="239.48" y2="191.65"/>
		<line style="&st0;" x1="189.31" y1="175.65" x2="194.54" y2="175.65"/>
		<line style="&st0;" x1="189.31" y1="179.21" x2="194.54" y2="179.21"/>
		<line style="&st0;" x1="189.31" y1="172.08" x2="194.54" y2="172.08"/>
		<line style="&st0;" x1="189.31" y1="169" x2="194.54" y2="169"/>
		<line style="&st0;" x1="189.31" y1="165.67" x2="194.54" y2="165.67"/>
		<line style="&st0;" x1="189.31" y1="162.11" x2="194.54" y2="162.11"/>
		<line style="&st0;" x1="275.64" y1="150" x2="275.64" y2="153.56"/>
		<line style="&st0;" x1="378.96" y1="150" x2="378.96" y2="153.56"/>
		<line style="&st0;" x1="272.08" y1="150" x2="272.08" y2="153.56"/>
		<line style="&st0;" x1="248.33" y1="150" x2="248.33" y2="153.56"/>
		<line style="&st0;" x1="244.77" y1="150.23" x2="244.77" y2="153.8"/>
		<line style="&st0;" x1="217.69" y1="150.23" x2="217.69" y2="153.8"/>
		<line style="&st0;" x1="214.13" y1="150.23" x2="214.13" y2="153.8"/>
		<rect x="248.33" y="150" style="&st2;" width="23.75" height="3.56"/> 
		<rect x="381.92" y="150" style="&st2;" width="25.41" height="3.56"/> 
		<rect x="410.07" y="150" style="&st2;" width="19.47" height="3.56"/> 
		<rect x="432.51" y="150" style="&st2;" width="19.48" height="3.56"/> 
		<rect x="218.05" y="150" style="&st2;" width="26.12" height="3.56"/> 
		<rect x="189.31" y="150" style="&st2;" width="24.46" height="3.56"/> 
		<line style="&st0;" x1="182.66" y1="159.26" x2="182.66" y2="182.77"/>
		<polyline style="&st0;" points="189.13,159.12 275.82,159.12 275.82,156.74 "/>
		<line style="&st0;" x1="189.31" y1="182.77" x2="189.13" y2="159.12"/>
		<polyline style="&st0;" points="475.97,159.12 378.84,159.12 378.84,156.74 "/>
		<circle style="&st0;" cx="124.83" cy="28.4" r="5.23"/> 
		<circle style="&st1;" cx="124.83" cy="28.4" r="3.8"/> 
		<circle style="&st0;" cx="103.93" cy="28.4" r="5.23"/> 
		<circle style="&st1;" cx="103.93" cy="28.4" r="3.8"/> 
		<circle style="&st0;" cx="147.16" cy="28.4" r="5.22"/> 
		<circle style="&st1;" cx="147.16" cy="28.4" r="3.8"/> 
		<circle style="&st0;" cx="83.98" cy="28.4" r="5.23"/> 
		<circle style="&st1;" cx="83.98" cy="28.4" r="3.8"/> 
		<circle style="&st0;" cx="61.66" cy="28.4" r="5.22"/> 
		<circle style="&st1;" cx="61.66" cy="28.4" r="3.8"/> 
		<rect x="40.99" y="0.85" style="&st0;" width="3.44" height="37.05"/> 
		<polyline style="&st0;" points="44.08,0.85 48,0.85 48,30.3 "/>
		<polyline style="&st0;" points="40.76,30.3 0.5,30.3 0.5,33.15 40.64,33.15 "/>
		<polyline style="&st0;" points="0.5,33.15 0.5,36.23 40.76,36.23 "/>
		<polyline style="&st0;" points="22.35,36.23 22.35,42.65 293.69,42.65 293.69,36 "/>
		<line style="&st0;" x1="141.69" y1="30.3" x2="130.06" y2="30.3"/>
		<line style="&st0;" x1="119.37" y1="30.3" x2="109.16" y2="30.3"/>
		<line style="&st0;" x1="98.47" y1="30.3" x2="89.21" y2="30.3"/>
		<line style="&st0;" x1="78.76" y1="30.3" x2="66.64" y2="30.3"/>
		<line style="&st0;" x1="56.43" y1="30.3" x2="44.56" y2="30.3"/>
		<line style="&st0;" x1="44.79" y1="33.15" x2="59.04" y2="33.15"/>
		<line style="&st0;" x1="64.27" y1="33.15" x2="81.37" y2="33.15"/>
		<line style="&st0;" x1="86.59" y1="33.15" x2="101.32" y2="33.15"/>
		<line style="&st0;" x1="106.54" y1="33.15" x2="122.22" y2="33.15"/>
		<line style="&st0;" x1="127.44" y1="33.15" x2="144.54" y2="33.15"/>
		<line style="&st0;" x1="149.77" y1="33.15" x2="166.27" y2="33.15"/>
		<line style="&st0;" x1="152.38" y1="30.3" x2="163.66" y2="30.3"/>
		<line style="&st0;" x1="44.56" y1="36" x2="268.64" y2="36"/>
		<line style="&st0;" x1="22.83" y1="39.8" x2="293.22" y2="39.8"/>
		<rect x="60.47" y="36.83" style="&st0;" width="3.09" height="2.14"/> 
		<rect x="82.32" y="36.83" style="&st0;" width="3.09" height="2.14"/> 
		<rect x="102.39" y="36.83" style="&st0;" width="3.09" height="2.14"/> 
		<rect x="123.29" y="36.83" style="&st0;" width="3.09" height="2.14"/> 
		<rect x="145.38" y="36.83" style="&st0;" width="3.09" height="2.14"/> 
		<polyline style="&st0;" points="33.16,42.65 32.21,108.67 35.18,114.85 280.87,114.85 283.84,108.67 282.89,42.65 "/>
		<line style="&st0;" x1="32.21" y1="108.67" x2="283.84" y2="108.67"/>
		<polyline style="&st0;" points="32.92,48.11 21.99,48.11 21.99,59.04 32.92,59.04 "/>
		<line style="&st0;" x1="161.17" y1="115.08" x2="161.17" y2="146.67"/>
		<polyline style="&st0;" points="156.66,115.08 156.66,146.91 141.93,146.91 141.93,115.08 "/>
		<polyline style="&st0;" points="141.93,146.91 138.49,150 138.49,114.85 "/>
		<line style="&st0;" x1="156.66" y1="146.91" x2="158.08" y2="150"/>
		<line style="&st0;" x1="51.15" y1="114.85" x2="51.15" y2="140.5"/>
		<line style="&st0;" x1="134.45" y1="114.85" x2="134.45" y2="150"/>
		<line style="&st0;" x1="124.12" y1="114.85" x2="124.12" y2="140.73"/>
		<line style="&st0;" x1="75.67" y1="114.85" x2="75.67" y2="140.97"/>
		<line style="&st0;" x1="124.12" y1="120.79" x2="75.67" y2="120.79"/>
		<line style="&st0;" x1="124.12" y1="125.65" x2="75.67" y2="125.65"/>
		<line style="&st0;" x1="124.12" y1="131.35" x2="75.67" y2="131.35"/>
		<line style="&st0;" x1="124.12" y1="136.34" x2="75.67" y2="136.34"/>
		<line style="&st0;" x1="60.88" y1="114.85" x2="60.88" y2="140.5"/>
		<line style="&st0;" x1="65.04" y1="114.85" x2="65.04" y2="140.5"/>
		<line style="&st0;" x1="51.15" y1="159.12" x2="51.15" y2="191.65"/>
		<line style="&st0;" x1="45.45" y1="159.12" x2="45.45" y2="191.65"/>
		<line style="&st0;" x1="40.22" y1="159.12" x2="40.22" y2="191.65"/>
		<line style="&st0;" x1="60.88" y1="159.12" x2="60.88" y2="191.65"/>
		<line style="&st0;" x1="65.04" y1="159.12" x2="65.04" y2="191.65"/>
		<line style="&st0;" x1="69.2" y1="159.12" x2="69.2" y2="191.65"/>
		<line style="&st0;" x1="73.35" y1="159.12" x2="73.35" y2="191.65"/>
		<line style="&st0;" x1="99.6" y1="159.12" x2="99.6" y2="191.65"/>
		<line style="&st0;" x1="103.75" y1="159.12" x2="103.75" y2="191.65"/>
		<polyline style="&st0;" points="26.74,191.8 113.19,191.8 121.51,187.76 "/>
		<line style="&st0;" x1="184.42" y1="147.62" x2="181.83" y2="147.62"/>
		<polyline style="&st0;" points="128.65,147.62 37.31,147.62 37.81,150 279.23,150 278.73,147.62 187.42,147.62 "/>
		<line style="&st0;" x1="134.21" y1="147.62" x2="131.65" y2="147.62"/>
		<polyline style="&st0;" points="127.09,153.8 37.31,153.8 37.31,156.17 127.8,156.17 "/>
		<line style="&st0;" x1="121.51" y1="187.76" x2="121.51" y2="159.26"/>
		<circle style="&st0;" cx="100.38" cy="139.07" r="1.9"/> 
		<circle style="&st0;" cx="130.08" cy="139.31" r="1.9"/> 
		<circle style="&st0;" cx="69.26" cy="139.31" r="1.9"/> 
		<circle style="&st0;" cx="41.94" cy="139.31" r="1.9"/> 
		<line style="&st0;" x1="131.62" y1="143.35" x2="134.09" y2="143.35"/>
		<line style="&st0;" x1="101.67" y1="143.35" x2="128.77" y2="143.35"/>
		<line style="&st0;" x1="70.82" y1="143.35" x2="98.56" y2="143.35"/>
		<line style="&st0;" x1="43.01" y1="143.35" x2="67.45" y2="143.35"/>
		<polyline style="&st0;" points="134.34,141.21 38.17,141.21 37.67,143.35 40.64,143.35 "/>
		<line style="&st0;" x1="40.52" y1="141.21" x2="40.52" y2="147.62"/>
		<line style="&st0;" x1="43.13" y1="141.21" x2="43.13" y2="147.62"/>
		<line style="&st0;" x1="67.83" y1="141.21" x2="67.83" y2="147.62"/>
		<line style="&st0;" x1="70.68" y1="141.21" x2="70.68" y2="147.62"/>
		<line style="&st0;" x1="98.94" y1="141.21" x2="98.94" y2="147.62"/>
		<line style="&st0;" x1="101.56" y1="141.21" x2="101.56" y2="147.62"/>
		<line style="&st0;" x1="128.89" y1="141.21" x2="128.89" y2="150.12"/>
		<line style="&st0;" x1="131.51" y1="141.21" x2="131.51" y2="150.12"/>
		<line style="&st0;" x1="51.15" y1="143.35" x2="51.15" y2="147.62"/>
		<line style="&st0;" x1="60.88" y1="143.58" x2="60.88" y2="147.62"/>
		<line style="&st0;" x1="65.04" y1="143.82" x2="65.04" y2="147.62"/>
		<line style="&st0;" x1="124.12" y1="143.47" x2="124.12" y2="147.62"/>
		<line style="&st0;" x1="75.67" y1="143.47" x2="75.67" y2="147.86"/>
		<line style="&st0;" x1="121.51" y1="187.76" x2="194.54" y2="187.76"/>
		<line style="&st0;" x1="133.38" y1="175.65" x2="182.66" y2="175.65"/>
		<line style="&st0;" x1="133.38" y1="179.21" x2="182.66" y2="179.21"/>
		<line style="&st0;" x1="133.38" y1="172.08" x2="182.66" y2="172.08"/>
		<line style="&st0;" x1="133.38" y1="169" x2="182.66" y2="169"/>
		<line style="&st0;" x1="133.38" y1="165.67" x2="182.66" y2="165.67"/>
		<line style="&st0;" x1="133.38" y1="162.11" x2="182.66" y2="162.11"/>
		<line style="&st0;" x1="76.56" y1="159.12" x2="76.56" y2="191.65"/>
		<line style="&st0;" x1="132.19" y1="155.7" x2="183.85" y2="155.7"/>
		<polyline style="&st0;" points="121.51,182.77 126.73,182.77 133.38,182.77 182.66,182.77 189.31,182.77 194.54,182.77 "/>
		<line style="&st0;" x1="126.73" y1="175.65" x2="121.51" y2="175.65"/>
		<line style="&st0;" x1="126.73" y1="179.21" x2="121.51" y2="179.21"/>
		<line style="&st0;" x1="126.73" y1="172.08" x2="121.51" y2="172.08"/>
		<line style="&st0;" x1="126.73" y1="169" x2="121.51" y2="169"/>
		<line style="&st0;" x1="126.73" y1="165.67" x2="121.51" y2="165.67"/>
		<line style="&st0;" x1="126.73" y1="162.11" x2="121.51" y2="162.11"/>
		<line style="&st0;" x1="40.4" y1="150" x2="40.4" y2="153.56"/>
		<line style="&st0;" x1="43.96" y1="150" x2="43.96" y2="153.56"/>
		<line style="&st0;" x1="67.71" y1="150" x2="67.71" y2="153.56"/>
		<line style="&st0;" x1="71.28" y1="150.23" x2="71.28" y2="153.8"/>
		<line style="&st0;" x1="98.35" y1="150.23" x2="98.35" y2="153.8"/>
		<line style="&st0;" x1="101.91" y1="150.23" x2="101.91" y2="153.8"/>
		<rect x="43.96" y="150" style="&st2;" width="23.75" height="3.56"/> 
		<rect x="71.87" y="150" style="&st2;" width="26.12" height="3.56"/> 
		<rect x="102.27" y="150" style="&st2;" width="24.46" height="3.56"/> 
		<line style="&st0;" x1="133.38" y1="159.26" x2="133.38" y2="182.77"/>
		<polyline style="&st0;" points="126.73,182.77 126.76,159.13 40.22,159.12 40.22,156.74 "/>
		<polyline style="&st0;" points="126.76,159.13 128.27,159.13 128.28,156.17 131.66,156.17 131.66,159.12 184.38,159.12 
			184.38,156.17 187.77,156.17 187.77,159.13 189.13,159.12 "/>
		<path style="&st0;" d="M130.29,149.05c-0.43,1.15-2.85,2.57-2.85,4.28s1.15,2.85,2.85,2.85s2.85-1.14,2.85-2.85
			S130.72,150.2,130.29,149.05z"/>
		<path style="&st0;" d="M186.11,149.05c-0.43,1.15-2.85,2.57-2.85,4.28s1.15,2.85,2.85,2.85s2.85-1.14,2.85-2.85
			S186.53,150.2,186.11,149.05z"/>
		<line style="&st0;" x1="128.27" y1="158.9" x2="131.66" y2="158.88"/>
		<line style="&st0;" x1="184.44" y1="158.71" x2="187.79" y2="158.7"/>
		<line style="&st0;" x1="182.72" y1="161.3" x2="189.08" y2="161.33"/>
		<line style="&st0;" x1="127.15" y1="161.54" x2="133.19" y2="161.51"/>
		<line style="&st0;" x1="332.17" y1="161.87" x2="332.17" y2="185.39"/>
		<polyline style="&st0;" points="337.04,161.74 338.64,161.73 338.64,185.15 "/>
		<line style="&st0;" x1="332.17" y1="161.76" x2="333.65" y2="161.73"/>
		<polyline style="&st0;" points="333.65,161.73 333.65,158.79 337.04,158.79 337.04,161.74 "/>
		<path style="&st0;" d="M335.38,151.66c-0.43,1.15-2.85,2.57-2.85,4.27s1.14,2.85,2.85,2.85s3.09-1.15,3.09-2.85
			S335.8,152.81,335.38,151.66z"/>
		<line style="&st0;" x1="333.71" y1="161.32" x2="337.05" y2="161.31"/>
		<line style="&st0;" x1="332.23" y1="163.92" x2="338.58" y2="163.95"/>
		<rect x="331.34" y="185.39" style="&st0;" width="7.36" height="2.85"/> 
		<rect x="337.39" y="182.77" style="&st0;" width="7.36" height="2.85"/> 
		<rect x="343.33" y="179.45" style="&st0;" width="7.36" height="2.85"/> 
		<rect x="349.27" y="175.89" style="&st0;" width="7.36" height="2.85"/> 
		<rect x="353.54" y="172.8" style="&st0;" width="7.36" height="2.85"/> 
		<rect x="358.77" y="169.47" style="&st0;" width="7.36" height="2.85"/> 
		<rect x="363.76" y="166.15" style="&st0;" width="7.36" height="2.85"/> 
		<rect x="367.91" y="162.7" style="&st0;" width="7.36" height="2.85"/> 
		<rect x="373.26" y="159.26" style="&st0;" width="5.46" height="2.85"/> 
		<line style="&st0;" x1="378.6" y1="168.29" x2="339.89" y2="191.8"/>
		<line style="&st0;" x1="377.17" y1="156.17" x2="338.7" y2="182.3"/>
		<line style="&st0;" x1="375.99" y1="153.8" x2="338.7" y2="179.05"/>
		<line style="&st0;" x1="376.63" y1="150" x2="338.7" y2="175.79"/>
		<line style="&st0;" x1="376.06" y1="147.86" x2="338.7" y2="173.17"/>
		<line style="&st0;" x1="375.99" y1="141.21" x2="338.7" y2="167.03"/>
		<line style="&st0;" x1="376.46" y1="143.35" x2="338.7" y2="169.47"/>
		<polyline style="&st0;" points="405.91,97.75 405.91,92.52 411.38,92.52 411.38,97.75 "/>
		<rect x="450.42" y="49.2" style="&st0;" width="5.46" height="5.23"/> 
		<line style="&st0;" x1="411.14" y1="89.91" x2="448.42" y2="89.91"/>
		<line style="&st0;" x1="433.46" y1="78.27" x2="448.42" y2="78.27"/>
		<line style="&st0;" x1="437.74" y1="74.23" x2="448.42" y2="74.23"/>
		<line style="&st0;" x1="413.51" y1="107.01" x2="448.42" y2="107.01"/>
		<line style="&st0;" x1="411.38" y1="95.61" x2="448.42" y2="95.61"/>
		<line style="&st0;" x1="413.51" y1="101.31" x2="448.42" y2="101.31"/>
		<line style="&st0;" x1="413.51" y1="112.71" x2="448.42" y2="112.71"/>
		<line style="&st0;" x1="413.51" y1="118.41" x2="448.42" y2="118.41"/>
		<line style="&st0;" x1="413.51" y1="124.11" x2="448.42" y2="124.11"/>
		<line style="&st0;" x1="413.51" y1="129.81" x2="448.42" y2="129.81"/>
		<line style="&st0;" x1="413.51" y1="135.51" x2="448.42" y2="135.51"/>
		<line style="&st0;" x1="448.19" y1="63.79" x2="421.59" y2="89.91"/>
		<line style="&st0;" x1="415.41" y1="89.44" x2="448.19" y2="57.14"/>
		<line style="&st0;" x1="408.12" y1="92.59" x2="450.32" y2="50.96"/>
		<polyline style="&st0;" points="378.6,115.56 381.92,118.89 405.88,94.85 "/>
		<polyline style="&st0;" points="374.44,114.85 376.7,117.7 452.58,41.94 "/>
		<path style="&st0;" d="M452.58,37.42l-80.87,80.28l-10.45-6.18c22.33-24.94,65.55-61.51,86.93-74.57"/>
		<polyline style="&st0;" points="439.64,41.7 438.69,40.51 446.05,35.52 "/>
		<line style="&st0;" x1="441.66" y1="38.14" x2="406.15" y2="3.94"/>
		<line style="&st0;" x1="445.34" y1="36.23" x2="409.95" y2="1.08"/>
		<path style="&st2;" d="M420.94,14.95c-0.31,0.34-0.83,0.37-1.18,0.06l-3.17-2.87c-0.34-0.31-0.37-0.83-0.06-1.17l0,0
			c0.31-0.34,0.83-0.37,1.17-0.06l3.17,2.87C421.22,14.09,421.25,14.61,420.94,14.95L420.94,14.95z"/>
		<path style="&st2;" d="M413.34,7.35c-0.31,0.34-0.83,0.37-1.17,0.06l-3.17-2.87c-0.34-0.31-0.37-0.83-0.06-1.17l0,0
			c0.31-0.34,0.83-0.37,1.17-0.06l3.17,2.87C413.62,6.49,413.65,7.01,413.34,7.35L413.34,7.35z"/>
		<path style="&st0;" d="M406.91,4.44c-0.93-0.84-1-2.27-0.16-3.2l0,0c0.84-0.93,2.27-1,3.2-0.16"/>
		<path style="&st2;" d="M429.96,23.74c-0.31,0.34-0.83,0.37-1.17,0.06l-3.17-2.87c-0.34-0.31-0.37-0.83-0.06-1.17l0,0
			c0.31-0.34,0.83-0.37,1.17-0.06l3.17,2.87C430.25,22.87,430.27,23.4,429.96,23.74L429.96,23.74z"/>
		<polyline style="&st0;" points="436.43,33.15 430.49,33.15 430.49,27.45 "/>
		<line style="&st0;" x1="442.84" y1="33.39" x2="449.02" y2="33.39"/>
		<line style="&st0;" x1="502.81" y1="159.26" x2="502.81" y2="191.8"/>
		<line style="&st0;" x1="493.07" y1="159.26" x2="493.07" y2="191.8"/>
		<line style="&st0;" x1="458.16" y1="159.26" x2="458.16" y2="191.8"/>
		<line style="&st0;" x1="502.81" y1="143.35" x2="502.81" y2="147.62"/>
		<line style="&st0;" x1="493.07" y1="143.58" x2="493.07" y2="147.39"/>
		<line style="&st0;" x1="458.16" y1="143.35" x2="458.16" y2="147.62"/>
		<polyline style="&st0;" points="502.81,140.97 502.81,97.98 493.07,97.98 493.07,141.21 "/>
		<line style="&st0;" x1="458.16" y1="52.86" x2="458.16" y2="140.73"/>
		<line style="&st0;" x1="523" y1="159.19" x2="523" y2="191.72"/>
		<line style="&st0;" x1="527.75" y1="159.19" x2="527.75" y2="191.72"/>
		<line style="&st0;" x1="473.12" y1="159.19" x2="473.12" y2="191.72"/>
		<line style="&st0;" x1="478.35" y1="159.19" x2="478.35" y2="191.72"/>
		<line style="&st0;" x1="465.53" y1="78.44" x2="465.53" y2="89.6"/>
		<line style="&st0;" x1="469.8" y1="78.44" x2="469.8" y2="89.6"/>
		<line style="&st0;" x1="455.55" y1="159.19" x2="455.55" y2="191.72"/>
		<line style="&st0;" x1="495.45" y1="159.19" x2="495.45" y2="191.72"/>
		<line style="&st0;" x1="500.2" y1="159.19" x2="500.2" y2="191.72"/>
		<rect x="375.99" y="153.8" style="&st0;" width="154.61" height="2.38"/> 
		<line style="&st0;" x1="499.72" y1="143.35" x2="524.42" y2="143.35"/>
		<line style="&st0;" x1="476.92" y1="143.35" x2="496.64" y2="143.35"/>
		<line style="&st0;" x1="454.6" y1="143.35" x2="474.31" y2="143.35"/>
		<polyline style="&st0;" points="527.75,143.35 530.6,143.35 530.6,141.21 375.99,141.21 375.99,143.35 378.84,143.35 "/>
		<circle style="&st0;" cx="525.85" cy="139.31" r="1.9"/> 
		<line style="&st0;" x1="524.66" y1="141.21" x2="524.66" y2="147.62"/>
		<line style="&st0;" x1="527.28" y1="141.21" x2="527.28" y2="147.62"/>
		<circle style="&st0;" cx="497.82" cy="139.31" r="1.9"/> 
		<line style="&st0;" x1="496.64" y1="141.21" x2="496.64" y2="147.62"/>
		<line style="&st0;" x1="499.25" y1="141.21" x2="499.25" y2="147.62"/>
		<circle style="&st0;" cx="475.5" cy="139.31" r="1.9"/> 
		<line style="&st0;" x1="474.31" y1="141.21" x2="474.31" y2="147.62"/>
		<line style="&st0;" x1="476.92" y1="141.21" x2="476.92" y2="147.62"/>
		<circle style="&st0;" cx="453.41" cy="139.31" r="1.9"/> 
		<line style="&st0;" x1="454.36" y1="141.21" x2="454.36" y2="147.62"/>
		<line style="&st0;" x1="527.63" y1="150" x2="527.63" y2="153.56"/>
		<rect x="499.25" y="150" style="&st2;" width="25.41" height="3.56"/> 
		<rect x="477.04" y="150" style="&st2;" width="19.48" height="3.56"/> 
		<rect x="454.6" y="150" style="&st2;" width="19.47" height="3.56"/> 
		<polyline style="&st0;" points="430.61,159.12 527.75,159.12 527.75,156.74 "/>
		<rect x="375.99" y="147.62" style="&st0;" width="154.61" height="2.38"/> 
		<polyline style="&st0;" points="500.67,97.75 500.67,92.52 495.21,92.52 495.21,97.75 "/>
		<line style="&st0;" x1="495.45" y1="89.91" x2="458.16" y2="89.91"/>
		<line style="&st0;" x1="472.89" y1="78.27" x2="458.16" y2="78.27"/>
		<line style="&st0;" x1="468.85" y1="74.23" x2="458.16" y2="74.23"/>
		<line style="&st0;" x1="493.07" y1="107.01" x2="458.16" y2="107.01"/>
		<line style="&st0;" x1="495.21" y1="95.61" x2="458.16" y2="95.61"/>
		<line style="&st0;" x1="493.07" y1="101.31" x2="458.16" y2="101.31"/>
		<line style="&st0;" x1="493.07" y1="112.71" x2="458.16" y2="112.71"/>
		<line style="&st0;" x1="493.07" y1="118.41" x2="458.16" y2="118.41"/>
		<line style="&st0;" x1="493.07" y1="124.11" x2="458.16" y2="124.11"/>
		<line style="&st0;" x1="493.07" y1="129.81" x2="458.16" y2="129.81"/>
		<line style="&st0;" x1="493.07" y1="135.51" x2="458.16" y2="135.51"/>
		<line style="&st0;" x1="458.4" y1="63.79" x2="485" y2="89.91"/>
		<line style="&st0;" x1="491.17" y1="89.44" x2="458.4" y2="57.14"/>
		<line style="&st0;" x1="454.68" y1="49.12" x2="450.56" y2="45.02"/>
		<line style="&st0;" x1="498.46" y1="92.59" x2="455.96" y2="50.39"/>
		<polyline style="&st0;" points="527.99,115.56 524.66,118.89 500.71,94.85 "/>
		<polyline style="&st0;" points="532.14,114.85 529.89,117.7 453.06,41.7 "/>
		<path style="&st0;" d="M452.58,37.42l82.29,80.28l10.45-6.18C523,86.58,479.78,50.01,458.4,36.95"/>
		<polyline style="&st0;" points="466.95,41.7 467.9,40.51 460.54,35.52 "/>
		<polygon style="&st0;" points="453.29,30.89 460.54,35.52 460.54,36.71 446.05,36.71 446.05,35.52 "/>
		<line style="&st0;" x1="464.93" y1="38.14" x2="500.44" y2="3.94"/>
		<line style="&st0;" x1="461.25" y1="36.23" x2="496.64" y2="1.08"/>
		<path style="&st2;" d="M484.94,15.43c0.31,0.34,0.83,0.37,1.17,0.06l3.17-2.87c0.34-0.31,0.37-0.83,0.06-1.17l0,0
			c-0.31-0.34-0.83-0.37-1.17-0.06L485,14.25C484.65,14.56,484.63,15.09,484.94,15.43L484.94,15.43z"/>
		<path style="&st2;" d="M493.25,7.35c0.31,0.34,0.83,0.37,1.17,0.06l3.17-2.87c0.34-0.31,0.37-0.83,0.06-1.17l0,0
			c-0.31-0.34-0.83-0.37-1.17-0.06l-3.17,2.87C492.97,6.49,492.94,7.01,493.25,7.35L493.25,7.35z"/>
		<path style="&st0;" d="M499.67,4.44c0.93-0.84,1-2.27,0.16-3.2l0,0c-0.84-0.93-2.27-1-3.2-0.16"/>
		<path style="&st2;" d="M476.62,23.74c0.31,0.34,0.83,0.37,1.17,0.06l3.17-2.87c0.34-0.31,0.37-0.83,0.06-1.17l0,0
			c-0.31-0.34-0.83-0.37-1.17-0.06l-3.17,2.87C476.34,22.87,476.32,23.4,476.62,23.74L476.62,23.74z"/>
		<polyline style="&st0;" points="470.63,33.15 476.09,33.15 476.09,27.45 "/>
		<line style="&st0;" x1="463.98" y1="33.39" x2="457.81" y2="33.39"/>
		<path style="&st0;" d="M476.21,21.51c-7.12-0.13-17.69-0.24-22.92-0.24c-5.22,0-15.32,0.11-22.44,0.24"/>
		<line style="&st2;" x1="458.16" y1="52.86" x2="456.22" y2="52.86"/>
	</g>
</svg>
