<?xml version="1.0" encoding="iso-8859-1"?>
<!-- Generator: Adobe Illustrator 11 Build 196, SVG Export Plug-In . SVG Version: 6.0.0 Build 78)  -->
<!DOCTYPE svg PUBLIC "-//W3C//DTD SVG 1.0//EN"    "http://www.w3.org/TR/2001/REC-SVG-20010904/DTD/svg10.dtd" [
	<!ENTITY ns_flows "http://ns.adobe.com/Flows/1.0/">
	<!ENTITY ns_svg "http://www.w3.org/2000/svg">
	<!ENTITY ns_xlink "http://www.w3.org/1999/xlink">
]>
<svg  xmlns="&ns_svg;" xmlns:xlink="&ns_xlink;" xmlns:a="http://ns.adobe.com/AdobeSVGViewerExtensions/3.0/"
	 width="314.88" height="236.5" viewBox="0 0 314.88 236.5" style="overflow:visible;enable-background:new 0 0 314.88 236.5"
	 xml:space="preserve">
	<g id="Pfade">
		<path d="M151.23,85.25c-35.17,2.91-63.21,30.87-66.24,66.01C120.16,148.34,148.2,120.38,151.23,85.25z"/>
		<circle cx="78.92" cy="78.92" r="4.12"/> 
		<path d="M78.65,57.47c-2.54,0-4.34,4.11-2.47,14.57c0.16,0.87-1.03,2.43-2.17,1.08c-4.16-4.93-7.18-8-9.66-11.8
			c-4.12-6.33,0-10.45,6.05-10.45c0-6.6,1.65-14.03,8.25-14.03c6.6,0,8.25,7.43,8.25,14.03c6.05,0,10.17,4.12,6.05,10.45
			c-2.48,3.8-5.5,6.88-9.66,11.8c-1.14,1.35-2.32-0.21-2.17-1.08C82.99,61.58,81.19,57.47,78.65,57.47z"/>
		<path d="M93.5,96.53c-2.48-3.8-5.5-6.88-9.66-11.8c-1.14-1.35-2.32,0.21-2.17,1.08c1.86,10.47,0.07,14.57-2.47,14.57
			c-2.54,0-4.34-4.11-2.47-14.57c0.15-0.87-1.03-2.43-2.17-1.08c-4.16,4.93-7.18,8-9.66,11.8c-4.12,6.32,0,10.45,6.05,10.45
			c0,6.6,1.65,14.03,8.25,14.03c6.6,0,8.25-7.42,8.25-14.03C93.5,106.97,97.62,102.85,93.5,96.53z"/>
		<path d="M57.47,79.2c0,2.54,4.11,4.33,14.57,2.47c0.87-0.16,2.43,1.03,1.08,2.17c-4.93,4.16-8,7.18-11.8,9.66
			c-6.33,4.12-10.45,0-10.45-6.05c-6.6,0-14.03-1.65-14.03-8.25c0-6.6,7.43-8.25,14.03-8.25c0-6.05,4.12-10.17,10.45-6.05
			c3.8,2.48,6.88,5.5,11.8,9.66c1.35,1.14-0.21,2.32-1.08,2.17C61.58,74.86,57.47,76.66,57.47,79.2z"/>
		<path d="M96.53,92.95c6.32,4.12,10.45,0,10.45-6.05c6.6,0,14.03-1.65,14.03-8.25c0-6.6-7.42-8.25-14.03-8.25
			c0-6.05-4.12-10.18-10.45-6.05c-3.8,2.48-6.88,5.5-11.8,9.66c-1.35,1.14,0.21,2.32,1.08,2.17c10.47-1.86,14.57-0.07,14.57,2.47
			c0,2.54-4.11,4.33-14.57,2.47c-0.87-0.16-2.43,1.03-1.08,2.17C89.65,87.45,92.72,90.47,96.53,92.95z"/>
		<path d="M72.6,151.23C69.69,116.07,41.73,88.02,6.6,84.99C9.51,120.16,37.47,148.2,72.6,151.23z"/>
		<path d="M6.62,72.6C41.78,69.69,69.83,41.73,72.86,6.6C37.69,9.51,9.65,37.47,6.62,72.6z"/>
		<path d="M85.25,6.62c2.91,35.17,30.87,63.21,66.01,66.24C148.34,37.69,120.38,9.65,85.25,6.62z"/>
		<path d="M229.61,163.9c-35.17,2.91-63.21,30.87-66.24,66.01C198.53,226.99,226.58,199.03,229.61,163.9z"/>
		<circle cx="157.3" cy="157.58" r="4.12"/> 
		<path d="M157.03,136.12c-2.54,0-4.34,4.11-2.47,14.57c0.16,0.87-1.03,2.43-2.17,1.08c-4.16-4.93-7.18-8-9.66-11.8
			c-4.12-6.32,0-10.45,6.05-10.45c0-6.6,1.65-14.03,8.25-14.03c6.6,0,8.25,7.42,8.25,14.03c6.05,0,10.17,4.12,6.05,10.45
			c-2.48,3.8-5.5,6.88-9.66,11.8c-1.14,1.35-2.32-0.21-2.17-1.08C161.36,140.23,159.56,136.12,157.03,136.12z"/>
		<path d="M171.88,175.17c-2.48-3.8-5.5-6.88-9.66-11.8c-1.14-1.35-2.32,0.21-2.17,1.08c1.86,10.47,0.07,14.57-2.47,14.57
			c-2.54,0-4.34-4.11-2.47-14.57c0.15-0.87-1.03-2.43-2.17-1.08c-4.16,4.93-7.18,8-9.66,11.8c-4.12,6.33,0,10.45,6.05,10.45
			c0,6.6,1.65,14.03,8.25,14.03c6.6,0,8.25-7.43,8.25-14.03C171.88,185.62,176,181.5,171.88,175.17z"/>
		<path d="M135.85,157.85c0,2.54,4.11,4.34,14.57,2.47c0.87-0.16,2.43,1.03,1.08,2.17c-4.93,4.16-8,7.18-11.8,9.66
			c-6.33,4.12-10.45,0-10.45-6.05c-6.6,0-14.03-1.65-14.03-8.25c0-6.6,7.43-8.25,14.03-8.25c0-6.05,4.12-10.17,10.45-6.05
			c3.8,2.48,6.88,5.5,11.8,9.66c1.35,1.14-0.21,2.32-1.08,2.17C139.96,153.51,135.85,155.31,135.85,157.85z"/>
		<path d="M174.9,171.6c6.32,4.12,10.45,0,10.45-6.05c6.6,0,14.03-1.65,14.03-8.25c0-6.6-7.42-8.25-14.03-8.25
			c0-6.05-4.12-10.17-10.45-6.05c-3.8,2.48-6.88,5.5-11.8,9.66c-1.35,1.14,0.21,2.32,1.08,2.17c10.47-1.86,14.57-0.07,14.57,2.47
			c0,2.54-4.11,4.34-14.57,2.47c-0.87-0.15-2.43,1.03-1.08,2.17C168.03,166.1,171.1,169.12,174.9,171.6z"/>
		<path d="M150.98,229.88c-2.91-35.17-30.87-63.21-66.01-66.24C87.88,198.81,115.85,226.85,150.98,229.88z"/>
		<path d="M163.62,85.27c2.91,35.17,30.87,63.21,66.01,66.24C226.72,116.34,198.75,88.3,163.62,85.27z"/>
		<path d="M229.88,6.87c-35.17,2.91-63.21,30.87-66.24,66.01C198.81,69.97,226.85,42,229.88,6.87z"/>
		<path d="M308.26,85.52c-35.17,2.91-63.21,30.87-66.24,66.01C277.18,148.62,305.23,120.65,308.26,85.52z"/>
		<circle cx="235.95" cy="79.2" r="4.12"/> 
		<path d="M4.67,0.28c0,2.28-1.85,4.12-4.12,4.12V0.28H4.67"/>
		<path d="M235.67,57.75c-2.54,0-4.33,4.11-2.47,14.57c0.16,0.87-1.03,2.43-2.17,1.08c-4.16-4.93-7.18-8-9.66-11.8
			c-4.12-6.32,0-10.45,6.05-10.45c0-6.6,1.65-14.03,8.25-14.03c6.6,0,8.25,7.42,8.25,14.03c6.05,0,10.17,4.12,6.05,10.45
			c-2.48,3.8-5.5,6.88-9.66,11.8c-1.14,1.35-2.32-0.21-2.17-1.08C240.01,61.86,238.21,57.75,235.67,57.75z"/>
		<path d="M250.53,96.8c-2.48-3.8-5.5-6.88-9.66-11.8c-1.14-1.35-2.32,0.21-2.17,1.08c1.86,10.47,0.07,14.57-2.47,14.57
			c-2.54,0-4.33-4.11-2.47-14.57c0.16-0.87-1.03-2.43-2.17-1.08c-4.16,4.93-7.18,8-9.66,11.8c-4.12,6.33,0,10.45,6.05,10.45
			c0,6.6,1.65,14.03,8.25,14.03c6.6,0,8.25-7.43,8.25-14.03C250.53,107.25,254.65,103.12,250.53,96.8z"/>
		<path d="M214.5,79.47c0,2.54,4.11,4.34,14.57,2.47c0.87-0.15,2.43,1.03,1.08,2.17c-4.93,4.16-8,7.18-11.8,9.66
			c-6.32,4.12-10.45,0-10.45-6.05c-6.6,0-14.03-1.65-14.03-8.25c0-6.6,7.42-8.25,14.03-8.25c0-6.05,4.12-10.17,10.45-6.05
			c3.8,2.48,6.88,5.5,11.8,9.66c1.35,1.14-0.21,2.32-1.08,2.17C218.61,75.14,214.5,76.94,214.5,79.47z"/>
		<path d="M253.55,93.22c6.33,4.12,10.45,0,10.45-6.05c6.6,0,14.03-1.65,14.03-8.25c0-6.6-7.43-8.25-14.03-8.25
			c0-6.05-4.12-10.17-10.45-6.05c-3.8,2.48-6.88,5.5-11.8,9.66c-1.35,1.14,0.21,2.32,1.08,2.17c10.47-1.86,14.57-0.07,14.57,2.47
			c0,2.54-4.11,4.34-14.57,2.47c-0.87-0.15-2.43,1.03-1.08,2.17C246.67,87.72,249.75,90.75,253.55,93.22z"/>
		<path d="M242.27,6.89c2.91,35.17,30.87,63.21,66.01,66.24C305.37,37.97,277.4,9.92,242.27,6.89z"/>
		<path d="M239.8,236.22c0-2.28-1.85-4.12-4.12-4.12s-4.12,1.85-4.12,4.12"/>
		<path d="M235.4,214.78c-2.54,0-4.34,4.11-2.47,14.57c0.15,0.87-1.03,2.43-2.17,1.08c-4.16-4.93-7.18-8-9.66-11.8
			c-4.12-6.33,0-10.45,6.05-10.45c0-6.6,1.65-14.02,8.25-14.02c6.6,0,8.25,7.42,8.25,14.02c6.05,0,10.17,4.12,6.05,10.45
			c-2.48,3.8-5.5,6.88-9.66,11.8c-1.14,1.35-2.32-0.21-2.17-1.08C239.74,218.88,237.94,214.78,235.4,214.78z"/>
		<path d="M193.6,236.5c0-6.6,7.43-8.25,14.03-8.25c0-6.05,4.12-10.17,10.45-6.05c3.8,2.48,6.88,5.5,11.8,9.66
			c1.35,1.14-0.21,2.32-1.08,2.17c-10.47-1.86-14.57-0.07-14.57,2.47"/>
		<path d="M277.75,235.95c0-6.6-7.42-8.25-14.03-8.25c0-6.05-4.12-10.17-10.45-6.05c-3.8,2.48-6.88,5.5-11.8,9.66
			c-1.35,1.14,0.21,2.32,1.08,2.17c10.47-1.86,14.57-0.07,14.57,2.47"/>
		<path d="M242,163.92c2.91,35.17,30.87,63.21,66.01,66.24C305.09,194.99,277.13,166.95,242,163.92z"/>
		<path d="M314.33,153.72c-2.28,0-4.12,1.85-4.12,4.12c0,2.28,1.85,4.12,4.12,4.12"/>
		<path d="M314.05,136.4c-2.54,0-4.33,4.11-2.47,14.57c0.16,0.87-1.03,2.43-2.17,1.08c-4.16-4.93-7.18-8-9.66-11.8
			c-4.12-6.33,0-10.45,6.05-10.45c0-6.6,1.65-14.02,8.25-14.02"/>
		<path d="M314.6,179.3c-2.54,0-4.33-4.11-2.47-14.57c0.16-0.87-1.03-2.43-2.17-1.08c-4.16,4.93-7.18,8-9.66,11.8
			c-4.12,6.33,0,10.45,6.05,10.45c0,6.6,1.65,14.02,8.25,14.02"/>
		<path d="M292.88,158.12c0,2.54,4.11,4.34,14.57,2.47c0.87-0.15,2.43,1.03,1.08,2.17c-4.93,4.16-8,7.18-11.8,9.66
			c-6.32,4.12-10.45,0-10.45-6.05c-6.6,0-14.03-1.65-14.03-8.25s7.42-8.25,14.03-8.25c0-6.05,4.12-10.17,10.45-6.05
			c3.8,2.48,6.88,5.5,11.8,9.66c1.35,1.14-0.21,2.32-1.08,2.17C296.98,153.79,292.88,155.59,292.88,158.12z"/>
		<path d="M314.88,22.28c-2.54,0-4.34-4.11-2.47-14.57c0.15-0.87-1.03-2.43-2.17-1.08c-4.16,4.93-7.18,8-9.66,11.8
			c-4.12,6.33,0,10.45,6.05,10.45c0,6.6,1.65,14.03,8.25,14.03"/>
		<path d="M293.15,1.1c0,2.54,4.11,4.34,14.57,2.47c0.87-0.15,2.43,1.03,1.08,2.17c-4.93,4.16-8,7.18-11.8,9.66
			c-6.33,4.12-10.45,0-10.45-6.05c-6.6,0-14.02-1.65-14.02-8.25"/>
		<path d="M153.45,0.55c0,2.28,1.85,4.12,4.12,4.12s4.12-1.85,4.12-4.12"/>
		<path d="M172.15,18.15c-2.48-3.8-5.5-6.88-9.66-11.8c-1.14-1.35-2.32,0.21-2.17,1.08c1.86,10.47,0.07,14.57-2.47,14.57
			c-2.54,0-4.33-4.11-2.47-14.57c0.16-0.87-1.03-2.43-2.17-1.08c-4.16,4.93-7.18,8-9.66,11.8c-4.12,6.32,0,10.45,6.05,10.45
			c0,6.6,1.65,14.03,8.25,14.03c6.6,0,8.25-7.42,8.25-14.03C172.15,28.6,176.28,24.47,172.15,18.15z"/>
		<path d="M136.12,0.83c0,2.54,4.11,4.33,14.57,2.47c0.87-0.16,2.43,1.03,1.08,2.17c-4.93,4.16-8,7.18-11.8,9.66
			c-6.32,4.12-10.45,0-10.45-6.05c-6.6,0-14.03-1.65-14.03-8.25"/>
		<path d="M179.03,0.28c0,2.54-4.11,4.33-14.57,2.47c-0.87-0.16-2.43,1.03-1.08,2.17c4.93,4.16,8,7.18,11.8,9.66
			c6.33,4.12,10.45,0,10.45-6.05c6.6,0,14.03-1.65,14.03-8.25"/>
		<path d="M0.83,42.35c6.6,0,8.25-7.42,8.25-14.02c6.05,0,10.17-4.12,6.05-10.45c-2.48-3.8-5.5-6.88-9.66-11.8
			C4.32,4.72,3.14,6.28,3.3,7.15c1.86,10.47,0.07,14.57-2.47,14.57"/>
		<path d="M22,0c0,2.54-4.11,4.34-14.57,2.47C6.56,2.32,5,3.5,6.35,4.64c4.93,4.16,8,7.18,11.8,9.66c6.32,4.12,10.45,0,10.45-6.05
			c6.6,0,14.03-1.65,14.03-8.25"/>
		<path d="M6.34,229.63c35.17-2.91,63.21-30.87,66.24-66.01C37.42,166.53,9.37,194.5,6.34,229.63z"/>
		<path d="M0.28,161.42c2.28,0,4.12-1.85,4.12-4.12s-1.85-4.12-4.12-4.12"/>
		<path d="M0,115.22c6.6,0,8.25,7.43,8.25,14.03c6.05,0,10.17,4.12,6.05,10.45c-2.48,3.8-5.5,6.88-9.66,11.8
			c-1.14,1.35-2.32-0.21-2.17-1.08c1.86-10.47,0.07-14.57-2.47-14.57"/>
		<path d="M0.55,199.38c6.6,0,8.25-7.42,8.25-14.03c6.05,0,10.17-4.12,6.05-10.45c-2.48-3.8-5.5-6.88-9.66-11.8
			c-1.14-1.35-2.32,0.21-2.17,1.08c1.86,10.47,0.07,14.57-2.47,14.57"/>
		<path d="M17.88,171.33c6.33,4.12,10.45,0,10.45-6.05c6.6,0,14.02-1.65,14.02-8.25c0-6.6-7.42-8.25-14.02-8.25
			c0-6.05-4.12-10.18-10.45-6.05c-3.8,2.48-6.88,5.5-11.8,9.66c-1.35,1.14,0.21,2.32,1.08,2.17c10.47-1.86,14.57-0.07,14.57,2.47
			c0,2.54-4.11,4.33-14.57,2.47c-0.87-0.16-2.43,1.03-1.08,2.17C11,165.83,14.07,168.85,17.88,171.33z"/>
		<path d="M82.78,235.95c0-2.28-1.85-4.12-4.12-4.12c-2.28,0-4.12,1.85-4.12,4.12"/>
		<path d="M78.38,214.5c-2.54,0-4.34,4.11-2.47,14.57c0.15,0.87-1.03,2.43-2.17,1.08c-4.16-4.93-7.18-8-9.66-11.8
			c-4.12-6.32,0-10.45,6.05-10.45c0-6.6,1.65-14.03,8.25-14.03s8.25,7.42,8.25,14.03c6.05,0,10.17,4.12,6.05,10.45
			c-2.48,3.8-5.5,6.88-9.66,11.8c-1.14,1.35-2.32-0.21-2.17-1.08C82.71,218.61,80.91,214.5,78.38,214.5z"/>
		<path d="M36.58,236.22c0-6.6,7.42-8.25,14.02-8.25c0-6.05,4.12-10.17,10.45-6.05c3.8,2.48,6.88,5.5,11.8,9.66
			c1.35,1.14-0.21,2.32-1.08,2.17c-10.47-1.86-14.57-0.07-14.57,2.47"/>
		<path d="M120.72,235.67c0-6.6-7.42-8.25-14.02-8.25c0-6.05-4.12-10.17-10.45-6.05c-3.8,2.48-6.88,5.5-11.8,9.66
			c-1.35,1.14,0.21,2.32,1.08,2.17c10.47-1.86,14.57-0.07,14.57,2.47"/>
		<path d="M314.6,4.95c-2.28,0-4.12-1.85-4.12-4.12h4.12V4.95"/>
	</g>
</svg>
