<?xml version="1.0" encoding="iso-8859-1"?>
<!-- Generator: Adobe Illustrator 11 Build 196, SVG Export Plug-In . SVG Version: 6.0.0 Build 78)  -->
<!DOCTYPE svg PUBLIC "-//W3C//DTD SVG 1.0//EN"    "http://www.w3.org/TR/2001/REC-SVG-20010904/DTD/svg10.dtd" [
	<!ENTITY ns_flows "http://ns.adobe.com/Flows/1.0/">
	<!ENTITY ns_svg "http://www.w3.org/2000/svg">
	<!ENTITY ns_xlink "http://www.w3.org/1999/xlink">
	<!ENTITY st0 "fill:#808080;">
	<!ENTITY st1 "fill:none;stroke:#000000;stroke-linecap:round;stroke-linejoin:round;">
	<!ENTITY st2 "fill:#BFBFBF;">
	<!ENTITY st3 "fill:#404040;">
]>
<svg  xmlns="&ns_svg;" xmlns:xlink="&ns_xlink;" xmlns:a="http://ns.adobe.com/AdobeSVGViewerExtensions/3.0/"
	 width="295" height="252" viewBox="0 0 295 252" style="overflow:visible;enable-background:new 0 0 295 252" xml:space="preserve"
	>
	<g id="F&#xFC;llungen">
		<ellipse style="&st2;" cx="4.5" cy="44" rx="4" ry="5.5"/> 
		<ellipse style="&st2;" cx="102" cy="100.5" rx="4" ry="5.5"/> 
		<ellipse style="&st2;" cx="105.5" cy="246" rx="4" ry="5.5"/> 
		<ellipse style="&st2;" cx="5.5" cy="189.5" rx="4" ry="5.5"/> 
		<path style="&st0;" d="M276,217.5l-155,31c2.59-0.33,4-2.46,4-5.5s-1.84-5.65-4-5.5l155-31c2.02-0.54,4,2.46,4,5.5
			S277.81,217.2,276,217.5z"/>
		<path style="&st3;" d="M180,13.5L21,46c2.59-0.33,4-2.46,4-5.5s-1.84-5.65-4-5.5L180,2.5c2.02-0.54,4,2.46,4,5.5
			S181.81,13.2,180,13.5z"/>
		<path style="&st3;" d="M273.5,70.5l-155.5,32c2.59-0.33,4-2.46,4-5.5s-1.84-5.65-4-5.5l155.5-32c2.02-0.54,4,2.46,4,5.5
			S275.31,70.2,273.5,70.5z"/>
		<path style="&st2;" d="M5.5,195c2.38-0.38,4-2.46,4-5.5s-1.75-5.88-4-5.5l16-3c2.17-0.43,4,2.46,4,5.5s-1.12,4.88-4,5.5L5.5,195z"
			/>
		<path style="&st2;" d="M106,251.5c2.38-0.38,4-2.46,4-5.5s-1.75-5.88-4-5.5l16-3c2.17-0.43,4,2.46,4,5.5s-1.12,4.88-4,5.5
			L106,251.5z"/>
		<path style="&st2;" d="M275,217.5c2.38-0.38,4-2.46,4-5.5s-1.75-5.88-4-5.5l16-3c2.17-0.43,4,2.46,4,5.5s-1.12,4.88-4,5.5
			L275,217.5z"/>
		<path style="&st2;" d="M273.5,70.5c2.38-0.38,3.5-2.46,3.5-5.5s-1.75-5.88-4-5.5l15-2.5c2.17-0.43,4,2.46,4,5.5s-1.12,4.88-4,5.5
			L273.5,70.5z"/>
		<path style="&st2;" d="M179.5,14c2.38-0.38,4-2.46,4-5.5s-1.75-5.88-4-5.5l12-2.5c2.17-0.43,4,2.46,4,5.5s-1.12,4.88-4,5.5
			L179.5,14z"/>
		<path style="&st2;" d="M5,49.5c2.38-0.38,4-2.46,4-5.5s-1.75-5.88-4-5.5l16-3c2.17-0.43,4,2.46,4,5.5s-1.12,4.88-4,5.5L5,49.5z"/>
		<path style="&st2;" d="M102.5,105.5c2.38-0.38,4-2.46,4-5.5s-1.75-5.88-4-5.5l15-3c2.17-0.43,4,2.46,4,5.5s-1.12,4.88-4,5.5
			L102.5,105.5z"/>
		<path style="&st3;" d="M266.5,61c-27-7-72.59-34.94-85.59-47.44L24.5,46C37.5,58.5,80,86.5,107,93.5L266.5,61z"/>
		<path style="&st0;" d="M21.5,181l86.74-76.18l13.51-2.32l-96.32,85.69c0.05-0.38,0.07-1.27,0.07-1.69
			C25.5,183.46,23.71,181,21.5,181z"/>
		<polygon style="&st0;" points="134,100 37,185.5 26,187.5 121.75,102.5 "/>
		<path style="&st0;" d="M25.43,187.69L37,185.5l11.96-10.54c0,0,41.57-7.76,41.56-7.76l4.97,10.31l-73.83,14.59
			C23.99,191.67,25.11,190.05,25.43,187.69z"/>
		<polygon style="&st0;" points="266,72.5 223.08,111.33 219.18,103.69 249.5,76.5 "/>
		<polygon style="&st0;" points="225.43,115.92 275,71.5 266,72.5 223.08,111.33 "/>
		<path style="&st0;" d="M110.16,174.06l69.88-13.88l0-0.02c2.52-0.56,4-2.46,4-5.5c0-0.63-0.11-0.94-0.25-1.5L180,156.5l-8.5,1.5
			c0-3.04-2.4-6.16-4.61-6.16l-61.78,12.13L110.16,174.06z"/>
		<path style="&st2;" d="M180.04,160.17L191,158c2.58-0.69,4-2.46,4-5.5s-1.79-5.5-4-5.5l-7.22,6.16c0.14,0.56,0.25,0.87,0.25,1.5
			C184.03,157.7,182.55,159.61,180.04,160.17z"/>
		<path style="&st0;" d="M211.79,121.5L171.5,158c0-3.04-2.4-6.16-4.61-6.16l41.03-37.97L211.79,121.5z"/>
		<polygon style="&st0;" points="214.08,125.53 180,156 171.5,157.5 211.79,121 "/>
		<path style="&st0;" d="M47,63.5l33.46,65.81l-6.19,5.48L34,54.5C37,57,44.5,62,47,63.5z"/>
		<polygon style="&st0;" points="86.45,142.05 133,234.5 140,233 91.52,137.48 "/>
		<path style="&st0;" d="M57,69.5l28.23,55.6l-4.77,4.21L47,63.5C51,66,54,68.5,57,69.5z"/>
		<polygon style="&st0;" points="86.45,142.05 133,234.5 125,236 80.51,147.33 "/>
		<polyline style="&st0;" points="209.5,84.5 271,206.5 265,208 202.5,85.5 209.5,84.5 271,206.5 "/>
		<polygon style="&st0;" points="202.5,85.5 265.5,208.5 256.5,210 194.5,87 "/>
		<ellipse style="&st2;" cx="78.5" cy="135.75" rx="2.36" ry="3.25"/> 
		<ellipse style="&st2;" cx="212.5" cy="114" rx="2.36" ry="3.25"/> 
	</g>
	<g id="Au&#xDF;enlinien">
		<ellipse style="&st1;" cx="4.5" cy="44" rx="4" ry="5.5"/> 
		<path style="&st1;" d="M4.5,49.5c2.21,0,4-2.46,4-5.5s-1.79-5.5-4-5.5"/>
		<ellipse style="&st1;" cx="78.5" cy="135.75" rx="2.36" ry="3.25"/> 
		<ellipse style="&st1;" cx="212.5" cy="114" rx="2.36" ry="3.25"/> 
		<ellipse style="&st1;" cx="102" cy="100.5" rx="4" ry="5.5"/> 
		<path style="&st1;" d="M288,68c2.21,0,4-2.46,4-5.5s-1.79-5.5-4-5.5"/>
		<path style="&st1;" d="M191,11.5c2.21,0,4-2.46,4-5.5s-1.79-5.5-4-5.5"/>
		<path style="&st1;" d="M21,45.75c2.16-0.48,4-2.21,4-5.25S23.21,35,21,35"/>
		<path style="&st1;" d="M179.5,14c2.21,0,4-2.46,4-5.5s-1.79-5.5-4-5.5"/>
		<path style="&st1;" d="M273,71.5c2.21,0,4-2.46,4-5.5s-1.79-5.5-4-5.5"/>
		<path style="&st1;" d="M117.48,102.84c2.17-0.4,4.02-2.35,4.02-5.38s-1.79-5.5-4-5.5"/>
		<path style="&st1;" d="M180.03,160.16c2.52-0.56,4-2.46,4-5.5c0-0.63-0.11-0.94-0.25-1.5"/>
		<path style="&st1;" d="M275.5,217.5c2.21,0,4.5-1.96,4.5-5s-1.79-5.5-4-5.5"/>
		<path style="&st1;" d="M121,248.5c2.21,0,4-2.46,4-5.5s-1.79-5.5-4-5.5"/>
		<path style="&st1;" d="M21.5,192c2.21,0,4-2.46,4-5.5s-1.79-5.5-4-5.5"/>
		<path style="&st1;" d="M191,158c2.58-0.69,4-2.46,4-5.5s-1.79-5.5-4-5.5"/>
		<path style="&st1;" d="M290.5,214.5c2.21,0,4-2.46,4-5.5s-1.79-5.5-4-5.5"/>
		<ellipse style="&st1;" cx="105.5" cy="246" rx="4" ry="5.5"/> 
		<ellipse style="&st1;" cx="5.5" cy="189.5" rx="4" ry="5.5"/> 
		<path style="&st1;" d="M171.5,158c0-3.04-2.4-6.16-4.61-6.16"/>
		<line style="&st1;" x1="110.16" y1="174.06" x2="191" y2="158"/>
		<line style="&st1;" x1="5.5" y1="195" x2="95.5" y2="177.5"/>
		<line style="&st1;" x1="105.5" y1="240.5" x2="290.5" y2="203.5"/>
		<line style="&st1;" x1="105.5" y1="251.5" x2="290.5" y2="214.5"/>
		<line style="&st1;" x1="101.52" y1="95" x2="288" y2="57"/>
		<line style="&st1;" x1="102.5" y1="106" x2="288" y2="68"/>
		<polyline style="&st1;" points="4.5,38.5 20.75,35.19 191,0.5 "/>
		<line style="&st1;" x1="4.5" y1="49.5" x2="191" y2="11.5"/>
		<path style="&st1;" d="M191,147"/>
		<line style="&st1;" x1="105.11" y1="163.97" x2="166.89" y2="151.84"/>
		<line style="&st1;" x1="49" y1="175" x2="90.53" y2="167.19"/>
		<line style="&st1;" x1="5.5" y1="184" x2="21.5" y2="181"/>
		<path style="&st1;" d="M24.5,46C37.5,58.5,80,86.5,107,93.5"/>
		<path style="&st1;" d="M181,14c13,12.5,58.5,40,85.5,47"/>
		<line style="&st1;" x1="21.5" y1="181" x2="108.24" y2="104.82"/>
		<polyline style="&st1;" points="134,100 37,185.5 26,187.5 121.75,102.5 "/>
		<line style="&st1;" x1="219.18" y1="103.69" x2="249.5" y2="76.5"/>
		<line style="&st1;" x1="166.89" y1="151.84" x2="207.92" y2="113.86"/>
		<line style="&st1;" x1="223.08" y1="111.33" x2="266" y2="72.5"/>
		<polyline style="&st1;" points="214.08,126.03 191,147 183.78,153.16 180,156.5 171.5,158 211.79,121.5 "/>
		<line style="&st1;" x1="275" y1="71.5" x2="225.43" y2="115.92"/>
		<line style="&st1;" x1="34" y1="54.5" x2="74.27" y2="134.79"/>
		<line style="&st1;" x1="86.45" y1="142.05" x2="133" y2="234.5"/>
		<line style="&st1;" x1="47" y1="63.5" x2="80.46" y2="129.31"/>
		<line style="&st1;" x1="80.51" y1="147.33" x2="125" y2="236"/>
		<line style="&st1;" x1="91.52" y1="137.48" x2="140" y2="233"/>
		<line style="&st1;" x1="57" y1="69.5" x2="85.23" y2="125.1"/>
		<line style="&st1;" x1="195" y1="88" x2="256" y2="209.5"/>
		<line style="&st1;" x1="202.5" y1="85.5" x2="265" y2="208"/>
		<line style="&st1;" x1="209.5" y1="84.5" x2="271" y2="206.5"/>
	</g>
</svg>
