<?xml version="1.0" encoding="iso-8859-1"?>
<!-- Generator: Adobe Illustrator 11 Build 196, SVG Export Plug-In . SVG Version: 6.0.0 Build 78)  -->
<!DOCTYPE svg PUBLIC "-//W3C//DTD SVG 1.0//EN"    "http://www.w3.org/TR/2001/REC-SVG-20010904/DTD/svg10.dtd" [
	<!ENTITY ns_flows "http://ns.adobe.com/Flows/1.0/">
	<!ENTITY ns_svg "http://www.w3.org/2000/svg">
	<!ENTITY ns_xlink "http://www.w3.org/1999/xlink">
	<!ENTITY st0 "fill:none;stroke:#000000;stroke-linecap:round;stroke-linejoin:round;">
	<!ENTITY st1 "fill:none;stroke:#FFFFFF;stroke-linecap:round;stroke-linejoin:round;">
	<!ENTITY st2 "stroke:#000000;stroke-linecap:round;stroke-linejoin:round;">
]>
<svg  xmlns="&ns_svg;" xmlns:xlink="&ns_xlink;" xmlns:a="http://ns.adobe.com/AdobeSVGViewerExtensions/3.0/"
	 width="162.61" height="184.27" viewBox="0 0 162.61 184.27" style="overflow:visible;enable-background:new 0 0 162.61 184.27"
	 xml:space="preserve">
	<g id="Pfade">
		<path style="&st0;" d="M84.41,106.52c-4-2-3.62-8.24-1.75-12.25"/>
		<path style="&st2;" d="M36.66,57.52C25.8,70.1,16.53,82.65,9.2,97.72c-7.39,15.21-13.98,36.8-2.46,51.76
			c10.14,13.18,28.56,8.69,38.74-1.88c5.34-5.54,9.26-12.31,12.71-19.13c2.04-4.04,6.65-10.16,6.23-13.96
			c0.75,0.34,1.75,0.15,2.5,0.5c-0.46-1.71-0.93-3.42-1.38-5.13c1.14,0.87,2.29,1.74,3.43,2.61c-0.41-1.67-0.8-3.34-1.13-5.02
			c0.82,0.73,1.65,1.46,2.47,2.18c-0.25-1.72-0.68-3.4-0.9-5.13c0.76,1.13,1.58,2.22,2.47,3.26c-0.13-2.42-0.46-4.83-0.47-7.26
			c0.7,1.51,1.54,2.93,2.28,4.42c-0.07-2.06-0.17-4.11-0.28-6.17c0.64,1.48,1.21,2.98,1.75,4.5c0.5-1.75,1.02-3.49,1.5-5.25
			c-0.38-1.51-1.01-2.98-0.25-4.5c1.46-2.93,5.35-0.31,6.74,1.29c3.44,3.98,6.44,8.32,9.72,12.42c-0.43-1.42-0.92-2.81-1.47-4.18
			c0.92,0.71,1.8,1.46,2.65,2.24c-0.77-2.05-1.58-4.07-2.47-6.07c1.23,1.23,2.39,2.52,3.59,3.77c-0.63-1.84-1.2-3.69-2.12-5.42
			c1.3,1.15,2.57,2.33,3.83,3.54c-0.59-1.48-1.15-2.96-1.65-4.48c0.9,0.8,1.81,1.61,2.71,2.42c-0.55-1.25-1.08-2.5-1.59-3.77
			c1.02,0.61,2.06,1.18,3.12,1.71c-0.53-1.19-1.08-2.37-1.65-3.53c1.06,0.49,2.06,1.08,3,1.77c-0.4-1.12-0.73-2.26-0.99-3.42
			c0.98,0.69,1.98,1.36,2.99,2c-0.54-1.31-0.99-2.64-1.35-4.01c0.88,0.77,1.83,1.45,2.84,2.03c-0.5-1.14-0.98-2.29-1.43-3.45
			c0.9,0.55,1.77,1.01,2.72,1.43c-0.4-1.05-0.81-2.1-1.23-3.14c0.89,0.34,1.74,0.75,2.57,1.22c-0.16-1.3-0.4-2.59-0.7-3.87
			c0.86,0.48,1.71,0.98,2.55,1.49c-0.32-1.1-0.66-2.19-1.03-3.27c0.66,0.31,1.5,0.21,2.15,0.53c-1.92-5.63,1.61,0.44,1.97-2.24
			c0.13-0.95-0.16-2.6,0.94-2.58c1.73,0.04,1.55,0.36,2.5-0.87c1.96-2.57,5.52-3.86,8.4-5.29c5.61-2.79,11.31-3.6,17.04-5.7
			c5.66-2.07,10.09-6.02,14.29-10.21c9.37-9.35,8.51-22.93,2.67-33.97c-5.04-9.52-17.17-13.04-27.1-13.94
			c-10.49-0.95-21.4,0.41-31.37,3.75c-2.64,0.89-3.11-2.69-4.97-4.63c-2.23-2.33-4.99-4.13-7.87-5.57
			c-6.94-1.6-14.2-1.22-21.08,0.47c-6.84,1.69-13.96,4.57-19.71,8.7c-5.46,3.93-7.19,9.1-9.63,15.02
			c-2.35,5.69-6.19,11.37-4.58,17.81C32.57,48.13,32.46,54.37,36.66,57.52"/>
		<path style="&st0;" d="M89.91,115.02c0.25,1.64-0.49,6.01-2.97,5.78c-2.88-0.26-3.15-4.75-4.11-6.62
			c-2.77-5.4-5.59-9.92-6.16-16.16"/>
		<path style="&st1;" d="M98.16,11.02c-25.5,10.25-48,26-62.75,46.5"/>
		<path style="&st0;" d="M119.91,86.27c6.5,1,10.5,2.5,15.5,5.25"/>
		<path style="&st0;" d="M138.66,66.77c2.52,6.3-0.4,16.6-1.45,23.01c-1.05,6.43-4.5,13.5-3.2,20c1.2,6,4.62,13.08,4.15,19.24
			c-0.3,3.92-4.74,3.41-7.47,3.86c-3.98,0.67-5.28,4.52-5.28,8.14"/>
		<path style="&st0;" d="M117.41,98.77c6.38,0.64,8.29,8.25,15.5,8.25"/>
		<path style="&st0;" d="M134.41,101.52c-6.5-2.5-12.25-1.75-17-2.75"/>
		<path style="&st2;" d="M132.16,103.52c0,3.55-5.5,3.55-5.5,0S132.16,99.97,132.16,103.52"/>
		<path style="&st0;" d="M72.41,183.77c1-5.34,3.41-10.76,5.75-15.63c2.77-5.78,7.02-6.09,13.14-5.31
			c6.56,0.83,12.32,4.37,19.13,1.79c6.98-2.65,3.65-12,10.23-15.6"/>
		<path style="&st2;" d="M114.66,141.27c3.32,0,6.63-0.4,9.94-0.31c1.21,0.03,1.86,0.82,0.9,1.97c-0.94,1.12-3.38,0.59-4.59,0.59
			c0.35,0.83,2.39,7.57-1.02,5.19C117.48,147.03,116.3,143.61,114.66,141.27"/>
	</g>
</svg>
