<?xml version="1.0" encoding="iso-8859-1"?>
<!-- Generator: Adobe Illustrator 11 Build 196, SVG Export Plug-In . SVG Version: 6.0.0 Build 78)  -->
<!DOCTYPE svg PUBLIC "-//W3C//DTD SVG 1.0//EN"    "http://www.w3.org/TR/2001/REC-SVG-20010904/DTD/svg10.dtd" [
	<!ENTITY ns_flows "http://ns.adobe.com/Flows/1.0/">
	<!ENTITY ns_svg "http://www.w3.org/2000/svg">
	<!ENTITY ns_xlink "http://www.w3.org/1999/xlink">
	<!ENTITY st0 "fill:none;stroke:#000000;stroke-linecap:round;stroke-linejoin:round;">
	<!ENTITY st1 "font-family:'HiraKakuPro-W6-83pv-RKSJ-H';adobe-font-script:japanese;">
	<!ENTITY st2 "font-family:'MyriadPro-Regular';">
	<!ENTITY st3 "fill:none;stroke:#000000;stroke-width:0.5;stroke-linecap:round;stroke-linejoin:round;">
	<!ENTITY st4 "font-size:12;">
	<!ENTITY st5 "font-size:13;">
	<!ENTITY st6 "font-family:'HiraKakuPro-W3-83pv-RKSJ-H';adobe-font-script:japanese;">
	<!ENTITY st7 "font-family:'MyriadPro-Bold';">
]>
<svg  xmlns="&ns_svg;" xmlns:xlink="&ns_xlink;" xmlns:a="http://ns.adobe.com/AdobeSVGViewerExtensions/3.0/"
	 width="253.22" height="413.11" viewBox="0 0 253.22 413.11" style="overflow:visible;enable-background:new 0 0 253.22 413.11"
	 xml:space="preserve">
	<g id="Pfade">
		<path style="&st0;" d="M118.27,0.73c0,2-3,2.5-3,4.5s1.5,3,3.5,3"/>
		<line style="&st0;" x1="110.85" y1="313.11" x2="110.48" y2="332.45"/>
		<line style="&st0;" x1="111.35" y1="287.61" x2="111.05" y2="302.98"/>
		<line style="&st0;" x1="111.86" y1="261.23" x2="111.54" y2="277.98"/>
		<line style="&st0;" x1="112.37" y1="235.23" x2="112.03" y2="252.48"/>
		<line style="&st0;" x1="112.86" y1="209.6" x2="112.54" y2="226.48"/>
		<line style="&st0;" x1="113.31" y1="186.6" x2="113.03" y2="200.98"/>
		<line style="&st0;" x1="113.79" y1="162.1" x2="113.47" y2="178.48"/>
		<line style="&st0;" x1="114.18" y1="141.6" x2="113.91" y2="155.98"/>
		<line style="&st0;" x1="114.58" y1="121.1" x2="114.32" y2="134.48"/>
		<line style="&st0;" x1="116.43" y1="25.85" x2="114.71" y2="114.48"/>
		<line style="&st0;" x1="116.77" y1="8.23" x2="116.56" y2="19.23"/>
		<polyline style="&st0;" points="96.77,368.73 96.77,367.23 100.27,367.23 "/>
		<g>
			<circle style="&st3;" cx="107.77" cy="379.9" r="4.17"/> 
			<path style="&st3;" d="M111.77,380.06c0-1.1-0.9-2-2-2s-2,0.9-2,2s-0.9,2-2,2s-2-0.9-2-2"/>
			<path style="&st3;" d="M110.6,377.23c-0.78-0.78-2.05-0.78-2.83,0s-0.78,2.05,0,2.83c0.78,0.78,0.78,2.05,0,2.83
				s-2.05,0.78-2.83,0"/>
			<path style="&st3;" d="M107.78,376.06c-1.1,0-2,0.89-2,2c0,1.11,0.89,2,2,2c1.1,0,2,0.89,2,2c0,1.11-0.9,2-2,2"/>
			<path style="&st3;" d="M104.95,377.23c-0.78,0.78-0.78,2.05,0,2.83c0.78,0.78,2.05,0.78,2.83,0c0.78-0.78,2.05-0.78,2.83,0
				s0.78,2.05,0,2.83"/>
		</g>
		<g>
			<path style="&st0;" d="M119.02,313.98c0,1.25,1,1.25,2,2.25s0.75,2.5,0.75,3.5c0,1.12,0.25,1.62,0.88,2.12h-6.25
				c0.62-0.5,0.88-1,0.88-2.12c0-1-0.25-2.5,0.75-3.5S119.02,315.23,119.02,313.98z"/>
			<path style="&st0;" d="M120.77,321.85c0,0.69-0.56,1.25-1.25,1.25s-1.25-0.56-1.25-1.25"/>
		</g>
		<g>
			<path style="&st0;" d="M96.77,313.98c0,1.25,0.5,1.25,1.5,2.25s0.75,2.5,0.75,3.5c0,1.12,0.25,1.62,0.88,2.12h-6.25
				c0.62-0.5,0.88-1,0.88-2.12c0-1-0.25-2.5,0.75-3.5S96.77,315.23,96.77,313.98z"/>
			<path style="&st0;" d="M98.02,321.85c0,0.69-0.56,1.25-1.25,1.25s-1.25-0.56-1.25-1.25"/>
		</g>
		<g>
			<path style="&st0;" d="M99.02,287.48c0,1.25,0.5,1.25,1.5,2.25s0.75,2.5,0.75,3.5c0,1.12,0.25,1.62,0.88,2.12H95.9
				c0.62-0.5,0.88-1,0.88-2.12c0-1-0.25-2.5,0.75-3.5S99.02,288.73,99.02,287.48z"/>
			<path style="&st0;" d="M100.27,295.35c0,0.69-0.56,1.25-1.25,1.25s-1.25-0.56-1.25-1.25"/>
		</g>
		<g>
			<path style="&st0;" d="M119.02,287.48c0,1.25,0.5,1.25,1.5,2.25s0.75,2.5,0.75,3.5c0,1.12,0.25,1.62,0.88,2.12h-6.25
				c0.62-0.5,0.88-1,0.88-2.12c0-1-0.25-2.5,0.75-3.5S119.02,288.73,119.02,287.48z"/>
			<path style="&st0;" d="M120.27,295.35c0,0.69-0.56,1.25-1.25,1.25s-1.25-0.56-1.25-1.25"/>
		</g>
		<g>
			<path style="&st0;" d="M98.77,261.73c0,1.25,0.5,1.25,1.5,2.25s0.75,2.5,0.75,3.5c0,1.12,0.25,1.62,0.88,2.12h-6.25
				c0.62-0.5,0.88-1,0.88-2.12c0-1-0.25-2.5,0.75-3.5S98.77,262.98,98.77,261.73z"/>
			<path style="&st0;" d="M100.02,269.6c0,0.69-0.56,1.25-1.25,1.25s-1.25-0.56-1.25-1.25"/>
		</g>
		<g>
			<path style="&st0;" d="M119.52,261.73c0,1.25,0.5,1.25,1.5,2.25s0.75,2.5,0.75,3.5c0,1.12,0.25,1.62,0.88,2.12h-6.25
				c0.62-0.5,0.88-1,0.88-2.12c0-1-0.25-2.5,0.75-3.5S119.52,262.98,119.52,261.73z"/>
			<path style="&st0;" d="M120.77,269.6c0,0.69-0.56,1.25-1.25,1.25s-1.25-0.56-1.25-1.25"/>
		</g>
		<g>
			<path style="&st0;" d="M99.77,235.6c0,1.25,0.5,1.25,1.5,2.25s0.75,2.5,0.75,3.5c0,1.12,0.25,1.62,0.88,2.12h-6.25
				c0.62-0.5,0.88-1,0.88-2.12c0-1-0.25-2.5,0.75-3.5S99.77,236.85,99.77,235.6z"/>
			<path style="&st0;" d="M101.02,243.48c0,0.69-0.56,1.25-1.25,1.25s-1.25-0.56-1.25-1.25"/>
		</g>
		<g>
			<path style="&st0;" d="M119.52,235.6c0,1.25,0.5,1.25,1.5,2.25s0.75,2.5,0.75,3.5c0,1.12,0.25,1.62,0.88,2.12h-6.25
				c0.62-0.5,0.88-1,0.88-2.12c0-1-0.25-2.5,0.75-3.5S119.52,236.85,119.52,235.6z"/>
			<path style="&st0;" d="M120.77,243.48c0,0.69-0.56,1.25-1.25,1.25s-1.25-0.56-1.25-1.25"/>
		</g>
		<g>
			<path style="&st0;" d="M101.52,210.35c0,1.25,0.5,1.25,1.5,2.25s0.75,2.5,0.75,3.5c0,1.12,0.25,1.62,0.88,2.12H98.4
				c0.62-0.5,0.88-1,0.88-2.12c0-1-0.25-2.5,0.75-3.5S101.52,211.6,101.52,210.35z"/>
			<path style="&st0;" d="M102.77,218.23c0,0.69-0.56,1.25-1.25,1.25s-1.25-0.56-1.25-1.25"/>
		</g>
		<g>
			<path style="&st0;" d="M119.52,210.35c0,1.25,0.5,1.25,1.5,2.25s0.75,2.5,0.75,3.5c0,1.12,0.25,1.62,0.88,2.12h-6.25
				c0.62-0.5,0.88-1,0.88-2.12c0-1-0.25-2.5,0.75-3.5S119.52,211.6,119.52,210.35z"/>
			<path style="&st0;" d="M120.77,218.23c0,0.69-0.56,1.25-1.25,1.25s-1.25-0.56-1.25-1.25"/>
		</g>
		<g>
			<path style="&st0;" d="M102.02,187.23c0,1.25,0.5,1.25,1.5,2.25s0.75,2.5,0.75,3.5c0,1.12,0.25,1.62,0.88,2.12H98.9
				c0.62-0.5,0.88-1,0.88-2.12c0-1-0.25-2.5,0.75-3.5S102.02,188.48,102.02,187.23z"/>
			<path style="&st0;" d="M103.27,195.1c0,0.69-0.56,1.25-1.25,1.25s-1.25-0.56-1.25-1.25"/>
		</g>
		<g>
			<path style="&st0;" d="M119.27,187.23c0,1.25,0.5,1.25,1.5,2.25s0.75,2.5,0.75,3.5c0,1.12,0.25,1.62,0.88,2.12h-6.25
				c0.62-0.5,0.88-1,0.88-2.12c0-1-0.25-2.5,0.75-3.5S119.27,188.48,119.27,187.23z"/>
			<path style="&st0;" d="M120.52,195.1c0,0.69-0.56,1.25-1.25,1.25s-1.25-0.56-1.25-1.25"/>
		</g>
		<g>
			<path style="&st0;" d="M103.77,162.6c0,1.25,0.5,1.25,1.5,2.25s0.75,2.5,0.75,3.5c0,1.12,0.25,1.62,0.88,2.12h-6.25
				c0.62-0.5,0.88-1,0.88-2.12c0-1-0.25-2.5,0.75-3.5S103.77,163.85,103.77,162.6z"/>
			<path style="&st0;" d="M105.02,170.48c0,0.69-0.56,1.25-1.25,1.25s-1.25-0.56-1.25-1.25"/>
		</g>
		<g>
			<path style="&st0;" d="M120.02,162.6c0,1.25,0.5,1.25,1.5,2.25s0.75,2.5,0.75,3.5c0,1.12,0.25,1.62,0.88,2.12h-6.25
				c0.62-0.5,0.88-1,0.88-2.12c0-1-0.25-2.5,0.75-3.5S120.02,163.85,120.02,162.6z"/>
			<path style="&st0;" d="M121.27,170.48c0,0.69-0.56,1.25-1.25,1.25s-1.25-0.56-1.25-1.25"/>
		</g>
		<g>
			<path style="&st0;" d="M104.52,142.48c0,1.25,0.5,1.25,1.5,2.25s0.75,2.5,0.75,3.5c0,1.12,0.25,1.62,0.88,2.12h-6.25
				c0.62-0.5,0.88-1,0.88-2.12c0-1-0.25-2.5,0.75-3.5S104.52,143.73,104.52,142.48z"/>
			<path style="&st0;" d="M105.77,150.35c0,0.69-0.56,1.25-1.25,1.25s-1.25-0.56-1.25-1.25"/>
		</g>
		<g>
			<path style="&st0;" d="M120.02,142.48c0,1.25,0.5,1.25,1.5,2.25s0.75,2.5,0.75,3.5c0,1.12,0.25,1.62,0.88,2.12h-6.25
				c0.62-0.5,0.88-1,0.88-2.12c0-1-0.25-2.5,0.75-3.5S120.02,143.73,120.02,142.48z"/>
			<path style="&st0;" d="M121.27,150.35c0,0.69-0.56,1.25-1.25,1.25s-1.25-0.56-1.25-1.25"/>
		</g>
		<g>
			<path style="&st0;" d="M104.77,121.48c0,1.25,0.5,1.25,1.5,2.25s0.75,2.5,0.75,3.5c0,1.12,0.25,1.62,0.88,2.12h-6.25
				c0.62-0.5,0.88-1,0.88-2.12c0-1-0.25-2.5,0.75-3.5S104.77,122.73,104.77,121.48z"/>
			<path style="&st0;" d="M106.02,129.35c0,0.69-0.56,1.25-1.25,1.25s-1.25-0.56-1.25-1.25"/>
		</g>
		<g>
			<path style="&st0;" d="M119.02,121.48c0,1.25,0.5,1.25,1.5,2.25s0.75,2.5,0.75,3.5c0,1.12,0.25,1.62,0.88,2.12h-6.25
				c0.62-0.5,0.88-1,0.88-2.12c0-1-0.25-2.5,0.75-3.5S119.02,122.73,119.02,121.48z"/>
			<path style="&st0;" d="M120.27,129.35c0,0.69-0.56,1.25-1.25,1.25s-1.25-0.56-1.25-1.25"/>
		</g>
		<path style="&st0;" d="M119.27,26.23c1.93,0,3.5-1.57,3.5-3.5s-1.57-3.5-3.5-3.5h-1c-1.93,0-3.5,1.57-3.5,3.5s1.57,3.5,3.5,3.5
			H119.27z"/>
		<path style="&st0;" d="M119.77,156.23h-11c-3.04,0-5.5,2.46-5.5,5.5h17"/>
		<g>
			<path style="&st0;" d="M99.77,91.23h13.89c0,0,0.68-20.15,0.68-22.17s0.37-3.65,1.03-4.32"/>
			<path style="&st0;" d="M103.05,67.69c0-12.09,5.54-20.8,11.64-22.53"/>
			<path style="&st0;" d="M109.5,42.28c0,2.88,3.39,5.18,3.39,8.06"/>
			<path style="&st0;" d="M104.08,46.31c0,3.46,5.19,4.03,5.42,9.21"/>
			<path style="&st0;" d="M100.58,52.5c0,3.17,7.11,3.89,7.11,8.49"/>
			<path style="&st0;" d="M99.34,58.69c0,2.88,7.68,3.46,7.68,7.77"/>
			<path style="&st0;" d="M115.37,49.48c-5.42,1.15-8.22,10.58-8.22,18.64"/>
			<path style="&st0;" d="M109.5,37.68c0,1.15-1.81,2.3-1.81,3.17c0,0.86,0.9,2.02,1.81,2.02c0.68,0,1.58-1.01,1.58-1.87
				C111.08,40.12,109.5,38.83,109.5,37.68z"/>
			<path style="&st0;" d="M115.6,35.23c0,1.15-1.81,2.3-1.81,3.17c0,0.86,0.9,2.02,1.81,2.02l-0.22,24.33h-7.23"/>
			<path style="&st0;" d="M104.08,41.27c0,1.15-1.69,2.16-1.69,3.02c0,0.86,0.79,2.02,1.69,2.02c0.68,0,1.47-1.01,1.47-1.87
				C105.55,43.58,104.08,42.43,104.08,41.27z"/>
			<path style="&st0;" d="M100.58,47.46c0,1.15-1.69,2.16-1.69,3.02s0.79,2.02,1.69,2.02c0.68,0,1.47-1.01,1.47-1.87
				S100.58,48.62,100.58,47.46z"/>
			<path style="&st0;" d="M99.34,54.66c0,1.15-1.58,2.16-1.58,3.02c0,0.86,0.68,1.87,1.58,1.87c0.68,0,1.36-0.86,1.36-1.73
				C100.69,56.97,99.34,55.81,99.34,54.66z"/>
			<path style="&st0;" d="M98.44,61c0,1.15-1.58,2.16-1.58,3.02s0.68,1.87,1.58,1.87c0.68,0,1.35-0.86,1.35-1.73
				S98.44,62.15,98.44,61z"/>
			<path style="&st0;" d="M107.69,64.45c4.52,0.29,7.68-1.44,7.68-4.32c0-2.88-2.03-3.17-3.16-3.17s-3.39,0.86-3.39,2.02
				s0.68,2.59,1.81,2.59s1.81-0.29,1.81-1.15"/>
			<path style="&st0;" d="M115.15,53.51c-1.35,0-2.26,1.44-1.81,2.59"/>
			<path style="&st0;" d="M115.37,64.74"/>
			<path style="&st0;" d="M99.79,76.26c-4.29-1.73-2.03-4.61-0.23-4.61c3.16,0,5.52,1.44,5.52,8.35
				C96.5,81.44,95.73,77.12,99.79,76.26z"/>
			<path style="&st0;" d="M101.29,85.32c-6.27,0.91-3.53,5.11-1.73,5.11c3.16,0,5.52-2.94,5.52-9.85
				C96.5,79.14,95.52,84.48,101.29,85.32z"/>
			<path style="&st0;" d="M99.79,69.63c0.68,0,1.13,0.29,1.13-0.86c0-1.15-0.45-1.73-1.81-1.73s-1.81,1.34-1.81,2.02
				c0,0.55,0.68,2.59,2.26,2.59"/>
			<path style="&st0;" d="M98.44,65.89c0.68,1.15-0.23,0.86,0.68,1.15"/>
			<path style="&st0;" d="M104.31,70.79c0.9-1.15,0.68-1.44,0.22-2.3c-0.45-0.86-2.48-0.58-3.61,0.29"/>
			<path style="&st0;" d="M110.43,76.54c4.29-1.73,2.36-4.61-0.77-4.61c-3.16,0-4.64,1.15-4.64,8.06
				C114.08,81.52,114.98,77.51,110.43,76.54z"/>
			<path style="&st0;" d="M110.43,84.61c4.29,1.73,2.03,6.11,0.23,6.11c-3.16,0-5.64-3.23-5.64-10.14
				C114.08,79.06,114.98,83.64,110.43,84.61z"/>
			<path style="&st0;" d="M109.43,69.92c-0.68,0-1.13,0.29-1.13-0.86s1.45-1.73,2.81-1.73s2.03,1.14,2.03,2.02
				c0,0.55-0.9,2.59-2.48,2.59"/>
			<path style="&st0;" d="M106.21,71.07c-0.9-1.15-0.68-1.44-0.23-2.3c0.45-0.86,1.19-0.58,2.32,0.29"/>
		</g>
		<polyline style="&st0;" points="113.66,91.23 119.27,91.23 119.27,32.73 "/>
		<line style="&st0;" x1="116.27" y1="35.23" x2="120.77" y2="35.23"/>
		<line style="&st0;" x1="118.27" y1="44.23" x2="120.27" y2="44.23"/>
		<line style="&st0;" x1="117.77" y1="56.23" x2="120.52" y2="56.23"/>
		<line style="&st0;" x1="116.27" y1="60.98" x2="122.52" y2="60.98"/>
		<line style="&st0;" x1="117.52" y1="72.23" x2="120.27" y2="72.23"/>
		<line style="&st0;" x1="115.77" y1="62.23" x2="122.27" y2="62.23"/>
		<line style="&st0;" x1="117.77" y1="87.23" x2="121.27" y2="87.23"/>
		<path style="&st0;" d="M118.77,0.73c0,2,3,2.5,3,4.5s-1.5,3-3.5,3"/>
		<line style="&st0;" x1="128.69" y1="313.11" x2="129.07" y2="334.95"/>
		<line style="&st0;" x1="128.2" y1="287.61" x2="128.5" y2="302.98"/>
		<line style="&st0;" x1="127.69" y1="261.23" x2="128.01" y2="277.98"/>
		<line style="&st0;" x1="127.18" y1="235.23" x2="127.52" y2="252.48"/>
		<line style="&st0;" x1="126.18" y1="209.6" x2="126.51" y2="226.48"/>
		<line style="&st0;" x1="125.24" y1="186.6" x2="125.52" y2="200.98"/>
		<line style="&st0;" x1="124.76" y1="162.1" x2="125.08" y2="178.48"/>
		<line style="&st0;" x1="124.36" y1="141.6" x2="124.64" y2="155.98"/>
		<line style="&st0;" x1="123.97" y1="121.1" x2="124.23" y2="134.48"/>
		<line style="&st0;" x1="121.12" y1="25.85" x2="123.34" y2="114.48"/>
		<line style="&st0;" x1="120.27" y1="8.23" x2="120.49" y2="19.23"/>
		<path style="&st0;" d="M141.27,367.23c0-7.73-5-12.5-12-12.5h-17c-7,0-12,4.77-12,12.5H141.27z"/>
		<polyline style="&st0;" points="131.27,354.73 131.27,352.23 109.27,352.23 109.27,354.73 "/>
		<polyline style="&st0;" points="129.27,351.73 129.27,347.73 111.27,347.73 111.27,351.73 "/>
		<polyline style="&st0;" points="129.27,347.73 130.77,347.73 130.77,345.73 109.77,345.73 109.77,347.73 111.27,347.73 "/>
		<path style="&st0;" d="M130.77,345.73c5,0,12.5-10,12.5-18c-3.41,2.17-4.92,4.58-6,6.5c-1.17,2.08-2.12,4-2.58,5.95
			c-0.35,1.51-1.41,2.16-2.07,1.86c-1.34-0.6-0.41-2.14,0.15-2.81c0.72-0.86,1-1.5,2-3.5s0.82-4.59,0.33-7.07
			c-2.55,1.45-4.35,2.64-5.66,5.24c-1.04,2.07-0.47,5.38-1.04,6.35c-1.05,1.81-3.33,0.97-2.83-1.03s0.69-1.98,0.69-4.48
			s-4.36-4.55-6-7c-1.64,2.45-6,4.5-6,7s0.19,2.48,0.69,4.48s-1.78,2.85-2.83,1.03c-0.56-0.97,0-4.28-1.04-6.35
			c-1.3-2.61-3.1-3.79-5.66-5.24c-0.48,2.48-0.67,5.07,0.33,7.07s1.28,2.64,2,3.5c0.56,0.67,1.49,2.21,0.15,2.81
			c-0.66,0.3-1.72-0.35-2.07-1.86c-0.46-1.95-1.42-3.87-2.58-5.95c-1.08-1.92-2.59-4.33-6-6.5c0,8,7.5,18,12.5,18"/>
		<rect x="96.77" y="371.23" style="&st0;" width="48" height="17.5"/> 
		<polyline style="&st0;" points="145.27,371.23 146.27,371.23 146.27,369.23 95.27,369.23 95.27,371.23 96.27,371.23 "/>
		<polyline style="&st0;" points="144.77,368.73 144.77,367.23 141.27,367.23 "/>
		<g>
			<circle style="&st3;" cx="133.27" cy="379.9" r="4.17"/> 
			<path style="&st3;" d="M129.27,380.06c0-1.1,0.9-2,2-2s2,0.9,2,2s0.9,2,2,2s2-0.9,2-2"/>
			<path style="&st3;" d="M130.45,377.23c0.78-0.78,2.05-0.78,2.83,0s0.78,2.05,0,2.83c-0.78,0.78-0.78,2.05,0,2.83
				s2.05,0.78,2.83,0"/>
			<path style="&st3;" d="M133.27,376.06c1.1,0,2,0.89,2,2c0,1.11-0.89,2-2,2c-1.1,0-2,0.89-2,2c0,1.11,0.9,2,2,2"/>
			<path style="&st3;" d="M136.1,377.23c0.78,0.78,0.78,2.05,0,2.83c-0.78,0.78-2.05,0.78-2.83,0c-0.78-0.78-2.05-0.78-2.83,0
				s-0.78,2.05,0,2.83"/>
		</g>
		<g>
			<path style="&st0;" d="M142.77,313.98c0,1.25-0.5,1.25-1.5,2.25s-0.75,2.5-0.75,3.5c0,1.12-0.25,1.62-0.88,2.12h6.25
				c-0.62-0.5-0.88-1-0.88-2.12c0-1,0.25-2.5-0.75-3.5S142.77,315.23,142.77,313.98z"/>
			<path style="&st0;" d="M141.52,321.85c0,0.69,0.56,1.25,1.25,1.25s1.25-0.56,1.25-1.25"/>
		</g>
		<g>
			<path style="&st0;" d="M140.52,287.48c0,1.25-0.5,1.25-1.5,2.25s-0.75,2.5-0.75,3.5c0,1.12-0.25,1.62-0.88,2.12h6.25
				c-0.62-0.5-0.88-1-0.88-2.12c0-1,0.25-2.5-0.75-3.5S140.52,288.73,140.52,287.48z"/>
			<path style="&st0;" d="M139.27,295.35c0,0.69,0.56,1.25,1.25,1.25s1.25-0.56,1.25-1.25"/>
		</g>
		<g>
			<path style="&st0;" d="M140.77,261.73c0,1.25-0.5,1.25-1.5,2.25s-0.75,2.5-0.75,3.5c0,1.12-0.25,1.62-0.88,2.12h6.25
				c-0.62-0.5-0.88-1-0.88-2.12c0-1,0.25-2.5-0.75-3.5S140.77,262.98,140.77,261.73z"/>
			<path style="&st0;" d="M139.52,269.6c0,0.69,0.56,1.25,1.25,1.25s1.25-0.56,1.25-1.25"/>
		</g>
		<g>
			<path style="&st0;" d="M139.77,235.6c0,1.25-0.5,1.25-1.5,2.25s-0.75,2.5-0.75,3.5c0,1.12-0.25,1.62-0.88,2.12h6.25
				c-0.62-0.5-0.88-1-0.88-2.12c0-1,0.25-2.5-0.75-3.5S139.77,236.85,139.77,235.6z"/>
			<path style="&st0;" d="M138.52,243.48c0,0.69,0.56,1.25,1.25,1.25s1.25-0.56,1.25-1.25"/>
		</g>
		<g>
			<path style="&st0;" d="M137.52,210.35c0,1.25-0.5,1.25-1.5,2.25s-0.75,2.5-0.75,3.5c0,1.12-0.25,1.62-0.88,2.12h6.25
				c-0.62-0.5-0.88-1-0.88-2.12c0-1,0.25-2.5-0.75-3.5S137.52,211.6,137.52,210.35z"/>
			<path style="&st0;" d="M136.27,218.23c0,0.69,0.56,1.25,1.25,1.25s1.25-0.56,1.25-1.25"/>
		</g>
		<g>
			<path style="&st0;" d="M136.52,187.23c0,1.25-0.5,1.25-1.5,2.25s-0.75,2.5-0.75,3.5c0,1.12-0.25,1.62-0.88,2.12h6.25
				c-0.62-0.5-0.88-1-0.88-2.12c0-1,0.25-2.5-0.75-3.5S136.52,188.48,136.52,187.23z"/>
			<path style="&st0;" d="M135.27,195.1c0,0.69,0.56,1.25,1.25,1.25s1.25-0.56,1.25-1.25"/>
		</g>
		<g>
			<path style="&st0;" d="M134.77,162.6c0,1.25-0.5,1.25-1.5,2.25s-0.75,2.5-0.75,3.5c0,1.12-0.25,1.62-0.88,2.12h6.25
				c-0.62-0.5-0.88-1-0.88-2.12c0-1,0.25-2.5-0.75-3.5S134.77,163.85,134.77,162.6z"/>
			<path style="&st0;" d="M133.52,170.48c0,0.69,0.56,1.25,1.25,1.25s1.25-0.56,1.25-1.25"/>
		</g>
		<g>
			<path style="&st0;" d="M134.02,142.48c0,1.25-0.5,1.25-1.5,2.25s-0.75,2.5-0.75,3.5c0,1.12-0.25,1.62-0.88,2.12h6.25
				c-0.62-0.5-0.88-1-0.88-2.12c0-1,0.25-2.5-0.75-3.5S134.02,143.73,134.02,142.48z"/>
			<path style="&st0;" d="M132.77,150.35c0,0.69,0.56,1.25,1.25,1.25s1.25-0.56,1.25-1.25"/>
		</g>
		<g>
			<path style="&st0;" d="M133.77,121.48c0,1.25-0.5,1.25-1.5,2.25s-0.75,2.5-0.75,3.5c0,1.12-0.25,1.62-0.88,2.12h6.25
				c-0.62-0.5-0.88-1-0.88-2.12c0-1,0.25-2.5-0.75-3.5S133.77,122.73,133.77,121.48z"/>
			<path style="&st0;" d="M132.52,129.35c0,0.69,0.56,1.25,1.25,1.25s1.25-0.56,1.25-1.25"/>
		</g>
		<path style="&st0;" d="M134.27,120.73c0-2.76-2.24-6-5-6h-20c-2.76,0-5,3.24-5,6H134.27z"/>
		<path style="&st0;" d="M134.77,141.23c0-3.59-2.91-6.5-6.5-6.5h-18c-3.59,0-6.5,2.91-6.5,6.5H134.77z"/>
		<path style="&st0;" d="M118.77,156.23h11c3.04,0,5.5,2.46,5.5,5.5h-17"/>
		<path style="&st0;" d="M137.27,186.23c0-4.14-3.36-7.5-7.5-7.5h-21c-4.14,0-7.5,3.36-7.5,7.5H137.27z"/>
		<path style="&st0;" d="M139.27,209.23c0-4.42-3.58-8-8-8h-23.5c-4.42,0-8,3.58-8,8H139.27z"/>
		<path style="&st0;" d="M141.27,234.73c0-4.42-3.58-8-8-8h-27c-4.42,0-8,3.58-8,8H141.27z"/>
		<path style="&st0;" d="M142.77,260.73c0-4.14-3.36-8-7.5-8h-31c-4.14,0-7.5,3.86-7.5,8H142.77z"/>
		<path style="&st0;" d="M142.27,287.23c0-4.14-3.36-9-7.5-9h-30c-4.14,0-7.5,4.86-7.5,9H142.27z"/>
		<path style="&st0;" d="M143.77,312.73c0-4.42-3.58-9.5-8-9.5h-32c-4.42,0-8,5.08-8,9.5H143.77z"/>
		<line style="&st0;" x1="124.39" y1="91.23" x2="118.77" y2="91.23"/>
		<g>
			<path style="&st0;" d="M138.27,91.23h-13.89c0,0-0.68-20.15-0.68-22.17s-0.37-3.65-1.03-4.32"/>
			<path style="&st0;" d="M134.98,67.78c0-12.09-5.53-20.89-11.62-22.61"/>
			<path style="&st0;" d="M128.55,42.28c0,2.88-3.39,5.18-3.39,8.06"/>
			<path style="&st0;" d="M133.97,46.31c0,3.46-5.19,4.03-5.42,9.21"/>
			<path style="&st0;" d="M137.47,52.5c0,3.17-7.11,3.89-7.11,8.49"/>
			<path style="&st0;" d="M138.71,58.69c0,2.88-7.68,3.46-7.68,7.77"/>
			<path style="&st0;" d="M122.68,49.48c5.42,1.15,8.29,10.84,8.29,18.91"/>
			<path style="&st0;" d="M128.55,37.68c0,1.15,1.81,2.3,1.81,3.17c0,0.86-0.9,2.02-1.81,2.02c-0.68,0-1.58-1.01-1.58-1.87
				C126.97,40.12,128.55,38.83,128.55,37.68z"/>
			<path style="&st0;" d="M122.45,35.23c0,1.15,1.81,2.3,1.81,3.17c0,0.86-0.9,2.02-1.81,2.02l0.22,24.33h7.23"/>
			<path style="&st0;" d="M133.97,41.27c0,1.15,1.69,2.16,1.69,3.02c0,0.86-0.79,2.02-1.69,2.02c-0.68,0-1.47-1.01-1.47-1.87
				C132.5,43.58,133.97,42.43,133.97,41.27z"/>
			<path style="&st0;" d="M137.47,47.46c0,1.15,1.69,2.16,1.69,3.02s-0.79,2.02-1.69,2.02c-0.68,0-1.47-1.01-1.47-1.87
				S137.47,48.62,137.47,47.46z"/>
			<path style="&st0;" d="M138.71,54.66c0,1.15,1.58,2.16,1.58,3.02c0,0.86-0.68,1.87-1.58,1.87c-0.68,0-1.36-0.86-1.36-1.73
				C137.35,56.97,138.71,55.81,138.71,54.66z"/>
			<path style="&st0;" d="M139.61,61c0,1.15,1.58,2.16,1.58,3.02s-0.68,1.87-1.58,1.87c-0.68,0-1.35-0.86-1.35-1.73
				S139.61,62.15,139.61,61z"/>
			<path style="&st0;" d="M130.35,64.45c-4.52,0.29-7.68-1.44-7.68-4.32c0-2.88,2.03-3.17,3.16-3.17s3.39,0.86,3.39,2.02
				s-0.68,2.59-1.81,2.59s-1.81-0.29-1.81-1.15"/>
			<path style="&st0;" d="M122.9,53.51c1.35,0,2.26,1.44,1.81,2.59"/>
			<path style="&st0;" d="M122.68,64.74"/>
			<path style="&st0;" d="M138.26,76.26c4.29-1.73,2.03-4.61,0.23-4.61c-3.16,0-5.52,1.44-5.52,8.35
				C141.55,81.44,142.32,77.12,138.26,76.26z"/>
			<path style="&st0;" d="M136.76,85.32c6.27,0.91,3.53,5.11,1.73,5.11c-3.16,0-5.52-2.94-5.52-9.85
				C141.55,79.14,142.52,84.48,136.76,85.32z"/>
			<path style="&st0;" d="M138.26,69.63c-0.68,0-1.13,0.29-1.13-0.86c0-1.15,0.45-1.73,1.81-1.73s1.81,1.34,1.81,2.02
				c0,0.55-0.68,2.59-2.26,2.59"/>
			<path style="&st0;" d="M139.61,65.89c-0.68,1.15,0.23,0.86-0.68,1.15"/>
			<path style="&st0;" d="M133.74,70.79c-0.9-1.15-0.68-1.44-0.22-2.3c0.45-0.86,2.48-0.58,3.61,0.29"/>
			<path style="&st0;" d="M127.62,76.54c-4.29-1.73-2.36-4.61,0.77-4.61c3.16,0,4.64,1.15,4.64,8.06
				C123.97,81.52,123.07,77.51,127.62,76.54z"/>
			<path style="&st0;" d="M127.62,84.61c-4.29,1.73-2.03,6.11-0.23,6.11c3.16,0,5.64-3.23,5.64-10.14
				C123.97,79.06,123.07,83.64,127.62,84.61z"/>
			<path style="&st0;" d="M128.62,69.92c0.68,0,1.13,0.29,1.13-0.86s-1.45-1.73-2.81-1.73s-2.03,1.14-2.03,2.02
				c0,0.55,0.9,2.59,2.48,2.59"/>
			<path style="&st0;" d="M131.84,71.07c0.9-1.15,0.68-1.44,0.23-2.3c-0.45-0.86-1.19-0.58-2.32,0.29"/>
		</g>
		<g>
			<line style="&st0;" x1="100.61" y1="75.45" x2="100.26" y2="77.11"/>
			<line style="&st0;" x1="101.39" y1="76.5" x2="100.43" y2="76.32"/>
			<line style="&st0;" x1="110.43" y1="76.54" x2="108.63" y2="77.02"/>
			<line style="&st0;" x1="109.68" y1="75.19" x2="110.38" y2="77.55"/>
			<line style="&st0;" x1="110.43" y1="84.61" x2="108.37" y2="84.09"/>
			<line style="&st0;" x1="110.47" y1="83.13" x2="109.79" y2="86.4"/>
			<line style="&st0;" x1="101.48" y1="85.31" x2="102.79" y2="85.13"/>
			<line style="&st0;" x1="101.66" y1="83.74" x2="102.18" y2="86.36"/>
		</g>
		<g>
			<line style="&st0;" x1="137.63" y1="75.46" x2="137.98" y2="77.12"/>
			<line style="&st0;" x1="136.84" y1="76.51" x2="137.8" y2="76.34"/>
			<line style="&st0;" x1="127.81" y1="76.56" x2="129.6" y2="77.03"/>
			<line style="&st0;" x1="128.56" y1="75.2" x2="127.86" y2="77.56"/>
			<line style="&st0;" x1="127.81" y1="84.62" x2="129.87" y2="84.1"/>
			<line style="&st0;" x1="127.77" y1="83.14" x2="128.45" y2="86.41"/>
			<line style="&st0;" x1="136.76" y1="85.32" x2="135.45" y2="85.15"/>
			<line style="&st0;" x1="136.58" y1="83.75" x2="136.06" y2="86.37"/>
		</g>
		<rect x="123.44" y="374.23" style="&st0;" width="19" height="11.33"/> 
		<rect x="99.11" y="374.23" style="&st0;" width="19" height="11.33"/> 
	</g>
	<g id="Beschriftung">
		<line style="&st0;" x1="148.77" y1="377.73" x2="164.77" y2="377.73"/>
		<line style="&st0;" x1="144.77" y1="360.73" x2="164.77" y2="360.73"/>
		<line style="&st0;" x1="146.77" y1="333.73" x2="164.77" y2="333.73"/>
		<polyline style="&st0;" points="143.77,116.23 164.77,116.23 164.77,312.73 146.77,312.73 "/>
		<line style="&st0;" x1="144.77" y1="67.73" x2="167.77" y2="67.73"/>
		<line style="&st0;" x1="124.77" y1="21.73" x2="164.77" y2="21.73"/>
		<line style="&st0;" x1="71.77" y1="103.73" x2="111.77" y2="103.73"/>
		<line style="&st0;" x1="123.77" y1="5.73" x2="164.77" y2="5.73"/>
	</g>
	<g id="Text">
		<text transform="matrix(1 0 0 1 169.7393 10.5601)"><tspan x="0" y="0" style="&st2; &st4;">h&#x14D;ju (</tspan><tspan x="28.73" y="0" style="&st6; &st4;">&#x5B9D;&#x73E0;</tspan><tspan x="52.73" y="0" style="&st2; &st4;">)</tspan></text>
		<text transform="matrix(1 0 0 1 170.2002 70.3442)"><tspan x="0" y="0" style="&st2; &st4;">suien (</tspan><tspan x="32.8" y="0" style="&st6; &st4;">&#x6C34;&#x7159;</tspan><tspan x="56.8" y="0" style="&st2; &st4;">)</tspan></text>
		<text transform="matrix(1 0 0 1 170.3818 211.9634)"><tspan x="0" y="0" style="&st2; &st4;">k</tspan><tspan x="5.68" y="0" style="&st2; &st4;">u</tspan><tspan x="12.29" y="0" style="&st2; &st4;">r</tspan><tspan x="16.26" y="0" style="&st2; &st4;">in (</tspan><tspan x="31.42" y="0" style="&st6; &st4;">&#x4E5D;</tspan><tspan x="43.24" y="0" style="&st6; &st4;">&#x8F2A;</tspan><tspan x="55.24" y="0" style="&st2; &st4;">)</tspan></text>
		<text transform="matrix(1 0 0 1 170.0049 336.0991)"><tspan x="0" y="0" style="&st2; &st4;">ukebana (</tspan><tspan x="49.26" y="0" style="&st6; &st4;">&#x8ACB;&#x82B1;</tspan><tspan x="73.26" y="0" style="&st2; &st4;">)</tspan></text>
		<text transform="matrix(1 0 0 1 170.0049 363.5991)"><tspan x="0" y="0" style="&st2; &st4;">fu</tspan><tspan x="10.12" y="0" style="&st2; &st4;">k</tspan><tspan x="15.79" y="0" style="&st2; &st4;">ubachi (</tspan><tspan x="55.81" y="0" style="&st6; &st4;">&#x4F0F;&#x9262;</tspan><tspan x="79.81" y="0" style="&st2; &st4;">)</tspan></text>
		<text transform="matrix(1 0 0 1 0 108.2954)"><tspan x="0" y="0" style="&st2; &st4;">sa</tspan><tspan x="10.54" y="0" style="&st2; &st4;">k</tspan><tspan x="16.37" y="0" style="&st2; &st4;">k</tspan><tspan x="22.21" y="0" style="&st2; &st4;">an (</tspan><tspan x="40.61" y="0" style="&st6; &st4;">&#x6AAB;&#x7BA1;</tspan><tspan x="64.61" y="0" style="&st2; &st4;">)</tspan></text>
		<text transform="matrix(1 0 0 1 84.2544 407.2954)"><tspan x="0" y="0" style="&st7; &st5;">S</tspan><tspan x="7.11" y="0" style="&st7; &st5;">&#x14D;rin (</tspan><tspan x="37.44" y="0" style="&st1; &st5;">&#x76F8;&#x8F2A;</tspan><tspan x="63.44" y="0" style="&st7; &st5;">)</tspan></text>
		<text transform="matrix(1 0 0 1 169.915 380.4448)"><tspan x="0" y="0" style="&st2; &st4;">r</tspan><tspan x="3.8" y="0" style="&st2; &st4;">oban (</tspan><tspan x="35.62" y="0" style="&st6; &st4;">&#x9732;&#x76E4;</tspan><tspan x="59.62" y="0" style="&st2; &st4;">)</tspan></text>
		<text transform="matrix(1 0 0 1 170.2393 24.3101)"><tspan x="0" y="0" style="&st2; &st4;">r</tspan><tspan x="4.22" y="0" style="&st2; &st4;">y&#x16B;sha(</tspan><tspan x="37.09" y="0" style="&st6; &st4;">&#x7ADC;&#x8ECA;</tspan><tspan x="61.09" y="0" style="&st2; &st4;">)</tspan></text>
	</g>
	<g id="Text_Outlines">
		<g>
			<path d="M170.62,2.04h1.06v3.62h0.02c0.17-0.3,0.43-0.58,0.76-0.74c0.31-0.19,0.68-0.3,1.08-0.3c0.78,0,2.03,0.48,2.03,2.48v3.46
				h-1.06V7.21c0-0.94-0.35-1.72-1.34-1.72c-0.68,0-1.21,0.48-1.42,1.06c-0.06,0.14-0.07,0.3-0.07,0.5v3.5h-1.06V2.04z"/>
			<path d="M179.64,10.69c-1.56,0-2.78-1.15-2.78-2.99c0-1.94,1.28-3.08,2.88-3.08c1.67,0,2.8,1.21,2.8,2.98
				c0,2.16-1.5,3.1-2.88,3.1H179.64z M179.69,9.9c1.01,0,1.76-0.95,1.76-2.27c0-0.98-0.49-2.22-1.74-2.22
				c-1.24,0-1.78,1.15-1.78,2.26c0,1.27,0.72,2.23,1.74,2.23H179.69z M181.06,2.84v0.68h-2.7V2.84H181.06z"/>
			<path d="M182.43,12.26c0.49-0.04,0.9-0.17,1.15-0.44c0.29-0.32,0.41-0.79,0.41-2.18V4.75h1.06v5.29c0,1.13-0.18,1.86-0.7,2.39
				c-0.47,0.47-1.24,0.66-1.8,0.66L182.43,12.26z M184.5,3.77c-0.38,0-0.64-0.3-0.64-0.65c0-0.37,0.26-0.66,0.66-0.66
				s0.65,0.29,0.65,0.66c0,0.35-0.24,0.65-0.66,0.65H184.5z"/>
			<path d="M191.64,8.96c0,0.61,0.01,1.14,0.05,1.6h-0.94l-0.06-0.95h-0.02c-0.26,0.47-0.89,1.08-1.92,1.08c-0.91,0-2-0.52-2-2.54
				v-3.4h1.06v3.2c0,1.1,0.35,1.86,1.29,1.86c0.71,0,1.2-0.49,1.39-0.97c0.06-0.14,0.1-0.34,0.1-0.54V4.75h1.06V8.96z"/>
			<path d="M198.21,2.23c-0.88,1.19-1.5,2.74-1.5,4.92c0,2.14,0.66,3.66,1.5,4.86h-0.82c-0.76-1-1.57-2.53-1.57-4.87
				c0.01-2.35,0.82-3.9,1.57-4.91H198.21z"/>
			<path d="M201.74,4.76c-0.5,0-0.89,0.02-1.22,0.07V4c0.32,0.05,0.66,0.07,1.22,0.07h5.4c0.58,0,0.91-0.02,1.22-0.07v0.84
				c-0.36-0.05-0.71-0.07-1.22-0.07h-2.44v2.08h2.5c0.54,0,0.78-0.01,1.08-0.06v0.79c-0.31-0.05-0.58-0.06-1.08-0.06h-2.5v2.7h3.71
				c0.44,0,0.85-0.02,1.25-0.08V11c-0.38-0.06-0.83-0.08-1.27-0.08h-7.82c-0.47,0-0.92,0.02-1.31,0.08v-0.88
				c0.41,0.06,0.82,0.08,1.28,0.08h3.37v-2.7h-2.17c-0.5,0-0.78,0.01-1.09,0.06V6.78c0.31,0.05,0.56,0.06,1.09,0.06h2.17V4.76
				H201.74z M203.96,1.32c0-0.28-0.02-0.49-0.08-0.76h0.95c-0.06,0.26-0.08,0.47-0.08,0.74v0.56h3.52c0.5,0,0.85-0.01,1.2-0.05
				c-0.04,0.23-0.05,0.46-0.05,0.8v0.65c0,0.35,0.01,0.6,0.05,0.83h-0.79V2.58h-8.4V4.1h-0.79c0.04-0.24,0.05-0.48,0.05-0.83V2.63
				c0-0.34-0.01-0.54-0.05-0.8c0.34,0.04,0.7,0.05,1.2,0.05h3.29V1.32z M207.47,9.96c-0.49-0.76-0.92-1.28-1.46-1.8l0.6-0.32
				c0.61,0.58,0.98,1.01,1.52,1.76L207.47,9.96z"/>
			<path d="M212.11,1.96c-0.5,0-0.68,0.01-0.98,0.06v-0.8c0.3,0.06,0.53,0.07,1.03,0.07h1.61c0.48,0,0.68-0.01,0.98-0.07V2
				c-0.29-0.04-0.54-0.05-0.96-0.05h-0.42v2.7h0.32c0.37,0,0.5-0.01,0.79-0.06v0.77c-0.26-0.04-0.5-0.05-0.79-0.05h-0.32v2.71
				c0.5-0.26,0.79-0.43,1.46-0.86l0.06,0.76c-1.25,0.78-1.69,1.02-3.28,1.76c-0.11,0.06-0.24,0.12-0.31,0.17l-0.29-0.82
				c0.37-0.08,0.8-0.25,1.62-0.64V5.32h-0.54c-0.32,0-0.54,0.01-0.8,0.06V4.6c0.3,0.05,0.44,0.06,0.82,0.06h0.53v-2.7H212.11z
				 M217.76,1.68c0-0.47-0.01-0.79-0.05-1.1h0.82c-0.02,0.29-0.05,0.6-0.05,1.1v0.86h1.58c0.49,0,0.84-0.02,1.16-0.07v0.82
				c-0.32-0.05-0.73-0.07-1.14-0.07h-1.61V5.2h2c0.49,0,0.84-0.02,1.18-0.07v0.8c-0.38-0.05-0.72-0.06-1.16-0.06h-1.82
				c0.53,0.85,0.77,1.2,1.25,1.75c0.71,0.82,1.45,1.49,2.3,2.05c-0.2,0.22-0.34,0.4-0.52,0.72c-0.85-0.68-1.32-1.14-1.9-1.82
				c-0.59-0.72-0.94-1.24-1.38-2.11c0.04,0.5,0.05,0.79,0.05,1.31v2.53c0,0.52,0.02,0.85,0.07,1.2h-0.86
				c0.05-0.32,0.07-0.76,0.07-1.21V7.8c0-0.42,0-0.42,0.05-1.32c-0.55,1.01-0.94,1.54-1.62,2.24c-0.62,0.65-1.15,1.08-2.03,1.66
				c-0.17-0.26-0.31-0.42-0.56-0.61c1.08-0.61,1.92-1.28,2.7-2.16c0.5-0.56,0.8-1,1.22-1.74h-1.5c-0.43,0-0.84,0.02-1.19,0.07V5.12
				c0.32,0.05,0.68,0.07,1.15,0.07h1.78V3.22h-1.69c-0.26,0.59-0.43,0.88-0.85,1.48c-0.2-0.19-0.38-0.31-0.64-0.43
				c0.62-0.76,1.03-1.56,1.32-2.6c0.07-0.29,0.11-0.49,0.13-0.68l0.79,0.24c-0.06,0.16-0.06,0.16-0.14,0.4
				c-0.04,0.12-0.23,0.66-0.34,0.94h1.42V1.68z"/>
			<path d="M222.71,12.01c0.84-1.19,1.5-2.74,1.5-4.9c0-2.16-0.65-3.68-1.5-4.88h0.82c0.76,0.98,1.57,2.53,1.57,4.88
				c-0.01,2.35-0.82,3.88-1.57,4.9H222.71z"/>
		</g>
		<g>
			<path d="M170.93,69.26c0.32,0.19,0.88,0.41,1.4,0.41c0.76,0,1.12-0.37,1.12-0.86c0-0.5-0.3-0.77-1.07-1.06
				c-1.06-0.38-1.55-0.96-1.55-1.64c0-0.94,0.77-1.7,2-1.7c0.59,0,1.1,0.16,1.42,0.36L174,65.52c-0.23-0.13-0.65-0.34-1.19-0.34
				c-0.62,0-0.96,0.36-0.96,0.79c0,0.48,0.34,0.7,1.09,1c1,0.37,1.52,0.88,1.52,1.74c0,1.03-0.8,1.75-2.16,1.75
				c-0.63,0-1.22-0.17-1.63-0.41L170.93,69.26z"/>
			<path d="M180.69,68.75c0,0.61,0.01,1.14,0.05,1.6h-0.94l-0.06-0.95h-0.02c-0.26,0.47-0.89,1.08-1.92,1.08c-0.91,0-2-0.52-2-2.54
				v-3.4h1.06v3.2c0,1.1,0.35,1.86,1.29,1.86c0.71,0,1.2-0.49,1.39-0.97c0.06-0.14,0.1-0.34,0.1-0.54v-3.55h1.06V68.75z"/>
			<path d="M182.94,63.55c-0.38,0-0.64-0.3-0.64-0.65c0-0.37,0.26-0.66,0.66-0.66c0.38,0,0.65,0.29,0.65,0.66
				c0,0.35-0.25,0.65-0.66,0.65H182.94z M182.44,70.34v-5.81h1.06v5.81H182.44z"/>
			<path d="M185.85,67.63c0.02,1.42,0.92,2,1.98,2c0.76,0,1.22-0.13,1.61-0.3l0.19,0.76c-0.37,0.17-1.02,0.37-1.94,0.37
				c-1.78,0-2.86-1.19-2.86-2.93c0-1.75,1.04-3.13,2.74-3.13c1.9,0,2.39,1.67,2.39,2.74c0,0.22-0.01,0.37-0.04,0.49H185.85z
				 M188.93,66.88c0.01-0.67-0.28-1.72-1.45-1.72c-1.08,0-1.54,0.98-1.62,1.72H188.93z"/>
			<path d="M191.26,66.11c0-0.61-0.01-1.09-0.05-1.57h0.94l0.06,0.95h0.02c0.29-0.54,0.96-1.08,1.92-1.08c0.8,0,2.05,0.48,2.05,2.47
				v3.47h-1.06V67c0-0.94-0.35-1.73-1.34-1.73c-0.68,0-1.22,0.49-1.42,1.08c-0.05,0.13-0.07,0.32-0.07,0.49v3.5h-1.06V66.11z"/>
			<path d="M202.74,62.02c-0.88,1.19-1.5,2.74-1.5,4.92c0,2.14,0.66,3.66,1.5,4.86h-0.82c-0.76-1-1.57-2.53-1.57-4.87
				c0.01-2.35,0.82-3.9,1.57-4.91H202.74z"/>
			<path d="M208,63.79c-0.1,0.24-0.11,0.29-0.25,0.74c-0.65,2.17-1.87,3.98-3.58,5.29c-0.23-0.28-0.36-0.38-0.67-0.6
				c0.78-0.52,1.37-1.07,1.99-1.87c0.77-1.01,1.22-1.92,1.58-3.22h-1.98c-0.5,0-0.85,0.02-1.14,0.07v-0.88
				c0.3,0.05,0.6,0.06,1.16,0.06h1.28c0.64,0,0.91-0.01,1.14-0.05L208,63.79z M213.68,62.92c-0.16,0.16-0.16,0.16-0.34,0.37
				c-0.29,0.34-1.1,1.16-1.55,1.57c-0.34,0.3-0.34,0.3-1.02,0.84c0.42,0.62,0.9,1.21,1.42,1.72c0.72,0.71,1.36,1.18,2.34,1.68
				c-0.3,0.26-0.43,0.42-0.64,0.76c-0.98-0.59-1.82-1.31-2.58-2.2c-0.53-0.61-0.96-1.25-1.36-1.99c-0.29-0.54-0.41-0.83-0.64-1.52
				c0.07,1.04,0.1,1.7,0.1,2.34v3.55c0,0.76-0.24,0.96-1.09,0.96c-0.46,0-0.95-0.02-1.52-0.08c-0.02-0.35-0.07-0.52-0.19-0.83
				c0.67,0.12,1.14,0.17,1.61,0.17c0.34,0,0.41-0.06,0.41-0.35v-8.2c0-0.43-0.02-0.82-0.08-1.21h0.95c-0.07,0.38-0.1,0.77-0.1,1.2
				v0.83c0.16,0.85,0.43,1.57,1.01,2.57c1.36-1.14,2.15-2,2.53-2.76L213.68,62.92z"/>
			<path d="M217.91,60.46c-0.06,0.31-0.06,0.31-0.06,2.16c0,0.05,0,0.1-0.02,0.95c0.4-0.43,0.68-0.88,0.9-1.37l0.59,0.44
				c-0.41,0.61-0.96,1.26-1.5,1.76c-0.02,1.28-0.05,1.67-0.12,2.36c0.49,0.94,0.97,1.57,1.61,2.15c-0.23,0.23-0.35,0.38-0.48,0.65
				c-0.6-0.7-0.88-1.12-1.27-1.9c-0.3,1.45-0.82,2.53-1.64,3.49c-0.17-0.3-0.29-0.46-0.5-0.65c0.73-0.76,1.21-1.74,1.48-3.04
				c0.22-1.01,0.26-2.21,0.26-6.01c0-0.47-0.01-0.73-0.07-1.01H217.91z M215.42,65.7c0.35-0.89,0.46-1.6,0.47-3.02l0.65,0.12
				c-0.05,1.58-0.16,2.3-0.5,3.23L215.42,65.7z M222.09,67.79c0-0.59-0.01-0.83-0.06-1.1h0.85c-0.05,0.26-0.06,0.47-0.06,1.1h1.96
				c0.55,0,0.83-0.01,1.12-0.07v0.83c-0.34-0.05-0.67-0.07-1.12-0.07h-1.96v1.67h2.39c0.5,0,0.84-0.02,1.19-0.07v0.84
				c-0.37-0.06-0.74-0.08-1.19-0.08h-5.53c-0.49,0-0.85,0.02-1.18,0.07v-0.82c0.25,0.05,0.56,0.06,1.18,0.06h2.41v-1.67h-1.7
				c-0.56,0-0.84,0.01-1.13,0.06v-0.8c0.29,0.05,0.58,0.06,1.13,0.06H222.09z M220.13,61.57c-0.59,0-0.94,0.01-1.2,0.06v-0.78
				c0.34,0.05,0.64,0.06,1.24,0.06h4.92c0.49,0,0.94-0.02,1.25-0.07v0.8c-0.31-0.05-0.7-0.07-1.19-0.07h-1.34v1.44h1
				c0.5,0,0.77-0.01,1.1-0.05c-0.04,0.29-0.05,0.54-0.05,0.94v1.56c0,0.43,0.01,0.7,0.05,0.98c-0.32-0.04-0.6-0.05-1.12-0.05h-4.51
				c-0.53,0-0.86,0.01-1.13,0.05c0.04-0.31,0.05-0.55,0.05-0.94V63.9c0-0.48-0.01-0.67-0.04-0.92c0.34,0.04,0.42,0.04,1.08,0.04
				h0.92v-1.44H220.13z M219.86,63.65v2.12h1.31v-2.12H219.86z M221.84,63.01h1.3v-1.44h-1.3V63.01z M221.84,65.77h1.3v-2.12h-1.3
				V65.77z M223.8,65.77h1.37v-2.12h-1.37V65.77z"/>
			<path d="M227.24,71.8c0.84-1.19,1.5-2.74,1.5-4.9c0-2.16-0.65-3.68-1.5-4.88h0.82c0.76,0.98,1.57,2.53,1.57,4.88
				c-0.01,2.35-0.82,3.88-1.57,4.9H227.24z"/>
		</g>
		<g>
			<path d="M172.31,208.82h0.02c0.14-0.2,0.34-0.46,0.5-0.66l1.72-2h1.26l-2.24,2.39l2.56,3.42h-1.28l-1.99-2.78l-0.54,0.6v2.18
				h-1.06v-8.52h1.06V208.82z"/>
			<path d="M181.79,210.37c0,0.61,0.01,1.14,0.05,1.6h-0.94l-0.06-0.95h-0.02c-0.26,0.47-0.89,1.08-1.92,1.08c-0.91,0-2-0.52-2-2.54
				v-3.4h1.06v3.21c0,1.1,0.35,1.86,1.29,1.86c0.71,0,1.2-0.49,1.39-0.97c0.06-0.14,0.1-0.34,0.1-0.54v-3.55h1.06V210.37z"/>
			<path d="M183.55,207.97c0-0.68-0.01-1.27-0.05-1.81h0.92l0.05,1.14h0.04c0.26-0.78,0.91-1.27,1.62-1.27
				c0.11,0,0.19,0.01,0.29,0.02v1c-0.11-0.01-0.22-0.02-0.36-0.02c-0.74,0-1.27,0.56-1.42,1.34c-0.02,0.16-0.04,0.32-0.04,0.49v3.11
				h-1.06V207.97z"/>
			<path d="M188.02,205.17c-0.38,0-0.64-0.3-0.64-0.65c0-0.37,0.26-0.66,0.66-0.66c0.38,0,0.65,0.29,0.65,0.66
				c0,0.35-0.25,0.65-0.66,0.65H188.02z M187.52,211.96v-5.81h1.06v5.81H187.52z"/>
			<path d="M190.33,207.73c0-0.61-0.01-1.09-0.05-1.57h0.94l0.06,0.95h0.02c0.29-0.54,0.96-1.08,1.92-1.08
				c0.8,0,2.05,0.48,2.05,2.47v3.47h-1.06v-3.35c0-0.94-0.35-1.73-1.34-1.73c-0.68,0-1.22,0.49-1.42,1.08
				c-0.05,0.13-0.07,0.32-0.07,0.49v3.5h-1.06V207.73z"/>
			<path d="M201.81,203.64c-0.88,1.19-1.5,2.74-1.5,4.92c0,2.14,0.66,3.66,1.5,4.86h-0.82c-0.76-1-1.57-2.53-1.57-4.87
				c0.01-2.35,0.82-3.9,1.57-4.91H201.81z"/>
			<path d="M207.02,205.49c-0.18,1.92-0.46,3.03-1.06,4.18c-0.64,1.22-1.63,2.22-3.07,3.06c-0.18-0.32-0.3-0.46-0.56-0.68
				c0.74-0.42,1.1-0.67,1.54-1.04c1.45-1.27,2.1-2.8,2.35-5.51h-1.88c-0.7,0-1.07,0.03-1.4,0.07v-0.9c0.34,0.05,0.72,0.07,1.4,0.07
				h1.94c0.05-0.73,0.06-1.19,0.06-1.64c0-0.42-0.01-0.72-0.05-1.06h0.95c-0.04,0.29-0.05,0.46-0.06,1c-0.01,0.47-0.06,1.22-0.1,1.7
				h2.2c0.58,0,0.92-0.01,1.33-0.06c-0.05,0.46-0.06,0.78-0.06,1.34l-0.01,5.41c0,0.36,0.05,0.38,0.82,0.38
				c0.77,0,0.95-0.07,1.07-0.43c0.12-0.35,0.2-1.1,0.24-2.15c0.28,0.17,0.48,0.25,0.78,0.31c-0.13,1.48-0.26,2.15-0.49,2.54
				c-0.2,0.35-0.65,0.47-1.75,0.47c-1.2,0-1.46-0.16-1.46-0.85l0.01-6.22H207.02z"/>
			<path d="M216.17,202.87c0-0.29-0.02-0.59-0.07-0.9h0.77c-0.05,0.31-0.07,0.59-0.07,0.9v0.4h0.78c0.48,0,0.67-0.01,0.97-0.06v0.73
				c-0.29-0.04-0.52-0.05-0.96-0.05h-0.79v1.02h0.44c0.62,0,0.82,0,1.13-0.04v0.02c1.3-0.68,2.33-1.69,2.88-2.8h0.72
				c0.66,1.12,1.92,2.16,3.34,2.76c-0.24,0.23-0.32,0.35-0.48,0.65c-1.34-0.73-2.42-1.64-3.19-2.71c-0.48,0.71-0.71,0.97-1.21,1.46
				c-0.53,0.5-0.91,0.8-1.62,1.25c-0.17-0.26-0.28-0.41-0.44-0.55c-0.01,0.11-0.01,0.18-0.01,0.24v0.24l-0.01,0.54v2.04l0.01,0.56
				v0.23c0,0.1,0,0.19,0.02,0.36c-0.29-0.02-0.61-0.04-1.18-0.04h-0.4v1.1h0.74c0.44,0,0.66-0.01,0.95-0.06v0.74
				c-0.3-0.05-0.53-0.06-0.95-0.06h-0.74v0.91c0,0.46,0.02,0.77,0.07,1.12h-0.77c0.06-0.32,0.07-0.6,0.07-1.14v-0.89h-0.95
				c-0.46,0-0.67,0.01-1,0.06v-0.74c0.31,0.05,0.53,0.06,1,0.06h0.95v-1.1h-0.37c-0.47,0-0.8,0.01-1.2,0.05
				c0.04-0.31,0.05-0.66,0.05-1.2v-1.96c0-0.53-0.01-0.9-0.05-1.16c0.34,0.04,0.71,0.05,1.2,0.05h0.37v-1.02h-0.89
				c-0.43,0-0.68,0.01-0.97,0.06v-0.74c0.29,0.05,0.52,0.06,0.97,0.06h0.89V202.87z M215.24,205.49v1.21h0.94v-1.21H215.24z
				 M215.24,207.26v1.28h0.94v-1.28H215.24z M217.75,206.71v-1.21h-0.95v1.21H217.75z M217.75,208.54v-1.28h-0.95v1.28H217.75z
				 M219.63,209.64v1.93c0,0.64,0.02,0.98,0.07,1.3h-0.8c0.05-0.31,0.07-0.68,0.07-1.3v-3.71c0-0.66-0.01-0.95-0.05-1.27
				c0.34,0.05,0.62,0.06,1.22,0.06h3.37c0.65,0,0.98-0.01,1.24-0.06c-0.05,0.37-0.06,0.7-0.06,1.21v4.08c0,0.68-0.18,0.86-0.88,0.86
				c-0.17,0-0.35,0-0.52-0.01c0-0.29-0.04-0.47-0.12-0.72c0.24,0.05,0.41,0.06,0.6,0.06c0.22,0,0.26-0.05,0.26-0.28v-2.16h-1.12
				v1.81c0,0.56,0.01,0.82,0.06,1.12h-0.74c0.05-0.31,0.06-0.56,0.06-1.1v-1.82h-1.03v1.84c0,0.55,0.01,0.78,0.06,1.12h-0.74
				c0.05-0.32,0.06-0.58,0.06-1.12v-1.84H219.63z M220.65,207.26h-1.02v1.78h1.02V207.26z M219.81,204.9c0.26,0.04,0.53,0.05,1,0.05
				h1.81c0.47,0,0.72-0.01,0.98-0.05v0.73c-0.31-0.04-0.54-0.05-0.98-0.05h-1.81c-0.44,0-0.67,0.01-1,0.05V204.9z M222.31,209.04
				v-1.78h-1.03v1.78H222.31z M224.04,209.04v-1.78h-1.12v1.78H224.04z"/>
			<path d="M225.86,213.42c0.84-1.19,1.5-2.74,1.5-4.9c0-2.16-0.65-3.68-1.5-4.88h0.82c0.76,0.98,1.57,2.53,1.57,4.88
				c-0.01,2.35-0.82,3.88-1.57,4.9H225.86z"/>
		</g>
		<g>
			<path d="M175.74,334.5c0,0.61,0.01,1.14,0.05,1.6h-0.94l-0.06-0.95h-0.02c-0.26,0.47-0.89,1.08-1.92,1.08c-0.91,0-2-0.52-2-2.54
				v-3.4h1.06v3.2c0,1.1,0.35,1.86,1.29,1.86c0.71,0,1.2-0.49,1.39-0.97c0.06-0.14,0.1-0.34,0.1-0.54v-3.55h1.06V334.5z"/>
			<path d="M178.55,332.96h0.02c0.14-0.21,0.34-0.46,0.5-0.66l1.72-2h1.26l-2.24,2.39l2.56,3.42h-1.28l-1.99-2.78l-0.54,0.6v2.18
				h-1.06v-8.52h1.06V332.96z"/>
			<path d="M183.72,333.39c0.02,1.42,0.92,2,1.98,2c0.76,0,1.22-0.13,1.61-0.3l0.19,0.76c-0.37,0.17-1.02,0.37-1.94,0.37
				c-1.78,0-2.86-1.19-2.86-2.93c0-1.75,1.04-3.13,2.74-3.13c1.9,0,2.39,1.67,2.39,2.74c0,0.22-0.01,0.37-0.04,0.49H183.72z
				 M186.8,332.63c0.01-0.67-0.28-1.72-1.45-1.72c-1.08,0-1.54,0.98-1.62,1.72H186.8z"/>
			<path d="M189.13,327.58h1.06v3.64h0.02c0.37-0.65,1.04-1.06,1.98-1.06c1.44,0,2.45,1.2,2.45,2.95c0,2.09-1.32,3.12-2.62,3.12
				c-0.84,0-1.5-0.32-1.94-1.09h-0.02L190,336.1h-0.91c0.04-0.4,0.05-0.98,0.05-1.5V327.58z M190.19,333.77
				c0,0.13,0.01,0.26,0.04,0.38c0.2,0.73,0.83,1.24,1.58,1.24c1.12,0,1.76-0.9,1.76-2.23c0-1.18-0.6-2.17-1.73-2.17
				c-0.72,0-1.39,0.5-1.6,1.3c-0.04,0.13-0.06,0.28-0.06,0.44V333.77z"/>
			<path d="M200.05,334.71c0,0.5,0.02,1,0.08,1.39h-0.95l-0.1-0.73h-0.04c-0.31,0.46-0.95,0.86-1.78,0.86
				c-1.18,0-1.78-0.83-1.78-1.67c0-1.4,1.25-2.17,3.49-2.16v-0.12c0-0.48-0.13-1.36-1.32-1.34c-0.55,0-1.12,0.16-1.52,0.43
				l-0.24-0.71c0.48-0.3,1.19-0.5,1.92-0.5c1.79,0,2.22,1.21,2.22,2.38V334.71z M199.02,333.14c-1.15-0.02-2.46,0.18-2.46,1.31
				c0,0.7,0.46,1.01,0.98,1.01c0.77,0,1.26-0.48,1.43-0.97c0.04-0.11,0.05-0.23,0.05-0.34V333.14z"/>
			<path d="M201.74,331.86c0-0.61-0.01-1.09-0.05-1.57h0.94l0.06,0.95h0.02c0.29-0.54,0.96-1.08,1.92-1.08
				c0.8,0,2.05,0.48,2.05,2.47v3.47h-1.06v-3.35c0-0.94-0.35-1.73-1.34-1.73c-0.68,0-1.22,0.49-1.42,1.08
				c-0.05,0.13-0.07,0.32-0.07,0.49v3.5h-1.06V331.86z"/>
			<path d="M212.5,334.71c0,0.5,0.02,1,0.08,1.39h-0.95l-0.1-0.73h-0.04c-0.31,0.46-0.95,0.86-1.78,0.86
				c-1.18,0-1.78-0.83-1.78-1.67c0-1.4,1.25-2.17,3.49-2.16v-0.12c0-0.48-0.13-1.36-1.32-1.34c-0.55,0-1.12,0.16-1.52,0.43
				l-0.24-0.71c0.48-0.3,1.19-0.5,1.92-0.5c1.79,0,2.22,1.21,2.22,2.38V334.71z M211.46,333.14c-1.15-0.02-2.46,0.18-2.46,1.31
				c0,0.7,0.46,1.01,0.98,1.01c0.77,0,1.26-0.48,1.43-0.97c0.04-0.11,0.05-0.23,0.05-0.34V333.14z"/>
			<path d="M219.01,327.77c-0.88,1.19-1.5,2.74-1.5,4.92c0,2.14,0.66,3.66,1.5,4.86h-0.82c-0.76-1-1.57-2.53-1.57-4.87
				c0.01-2.35,0.82-3.9,1.57-4.91H219.01z"/>
			<path d="M219.86,328.12c0.28,0.05,0.5,0.06,0.96,0.06h2.06c0.5,0,0.7-0.01,0.96-0.06v0.76c-0.28-0.02-0.47-0.04-0.88-0.04h-2.15
				c-0.43,0-0.67,0.01-0.96,0.05V328.12z M220.3,326.45c0.28,0.05,0.46,0.06,0.86,0.06h1.58c0.4,0,0.59-0.01,0.86-0.06v0.76
				c-0.29-0.04-0.52-0.05-0.86-0.05h-1.58c-0.35,0-0.61,0.01-0.86,0.05V326.45z M220.33,329.82c0.23,0.04,0.42,0.05,0.82,0.05h1.62
				c0.38,0,0.56-0.01,0.79-0.05v0.73c-0.26-0.04-0.43-0.05-0.79-0.05h-1.62c-0.4,0-0.56,0.01-0.82,0.05V329.82z M220.33,331.48
				c0.24,0.04,0.42,0.05,0.82,0.05h1.61c0.41,0,0.55-0.01,0.8-0.05v0.73c-0.26-0.04-0.42-0.05-0.8-0.05h-1.62
				c-0.37,0-0.55,0.01-0.8,0.05V331.48z M220.36,336.87c0.04-0.36,0.06-0.74,0.06-1.16v-1.6c0-0.43-0.01-0.68-0.05-0.98
				c0.3,0.04,0.53,0.05,0.98,0.05h1.37c0.44,0,0.67-0.01,0.88-0.04c-0.02,0.24-0.04,0.48-0.04,0.95v1.64c0,0.41,0.01,0.7,0.06,0.97
				h-0.74v-0.47h-1.76v0.64H220.36z M221.11,335.61h1.76v-1.81h-1.76V335.61z M225.38,327.59c-0.53,0-0.79,0.01-1.12,0.06v-0.72
				c0.35,0.06,0.56,0.07,1.12,0.07h1.49c0-0.5-0.01-0.67-0.07-1h0.8c-0.06,0.31-0.07,0.48-0.07,1h1.8c0.58,0,0.79-0.01,1.14-0.07
				v0.72c-0.31-0.05-0.6-0.06-1.14-0.06h-1.8v0.85h1.37c0.54,0,0.82-0.01,1.12-0.06v0.71c-0.34-0.05-0.62-0.06-1.12-0.06h-1.37v0.88
				h2.02c0.54,0,0.86-0.02,1.19-0.07v0.76c-0.34-0.05-0.66-0.07-1.19-0.07h-4.32c-0.56,0-0.88,0.01-1.22,0.07v-0.76
				c0.3,0.05,0.64,0.07,1.22,0.07h1.64v-0.88h-1.2c-0.47,0-0.74,0.01-1.09,0.06v-0.71c0.3,0.05,0.59,0.06,1.1,0.06h1.19v-0.85
				H225.38z M225.32,335.64c0,0.62,0.02,0.98,0.07,1.28h-0.83c0.05-0.31,0.06-0.65,0.06-1.28v-3.4c0-0.55-0.01-0.72-0.04-1.04
				c0.34,0.04,0.62,0.05,1.12,0.05h3.06c0.58,0,0.86-0.01,1.1-0.06c-0.04,0.31-0.05,0.67-0.05,1.28v3.42c0,0.74-0.23,0.92-1.15,0.92
				c-0.29,0-0.61-0.01-1.09-0.05c-0.05-0.3-0.1-0.49-0.2-0.74c0.48,0.08,0.97,0.13,1.33,0.13c0.34,0,0.42-0.06,0.42-0.34v-0.95h-3.8
				V335.64z M229.13,332.76v-0.9h-3.8v0.9H229.13z M229.13,334.27v-0.91h-3.8v0.91H229.13z"/>
			<path d="M234,333.35c0-0.44,0.01-0.9,0.04-1.38c-0.44,0.61-1.01,1.14-1.9,1.75c-0.1-0.24-0.25-0.46-0.46-0.66
				c1.06-0.62,1.99-1.51,2.72-2.62c0.3-0.45,0.48-0.8,0.6-1.19l0.76,0.36c-0.17,0.26-0.17,0.26-0.3,0.5
				c-0.2,0.35-0.42,0.67-0.68,1.06v4.39c0,0.47,0.02,0.85,0.07,1.33h-0.92c0.05-0.41,0.07-0.74,0.07-1.33V333.35z M234.98,327.07
				c0-0.3-0.02-0.56-0.07-0.85h0.88c-0.05,0.28-0.06,0.54-0.06,0.85v0.38h2.87v-0.38c0-0.29-0.02-0.58-0.07-0.85h0.88
				c-0.05,0.26-0.06,0.55-0.06,0.85v0.38h1.86c0.62,0,1.02-0.02,1.36-0.07v0.83c-0.34-0.05-0.73-0.06-1.36-0.06h-1.86v0.28
				c0,0.34,0.01,0.55,0.04,0.79h-0.83c0.04-0.28,0.05-0.48,0.05-0.78v-0.29h-2.87v0.2c0,0.34,0.01,0.56,0.04,0.79h-0.83
				c0.02-0.24,0.05-0.49,0.05-0.78v-0.22h-1.67c-0.61,0-1.01,0.01-1.33,0.06v-0.83c0.32,0.05,0.72,0.07,1.33,0.07h1.67V327.07z
				 M238.19,335.57c0,0.36,0.18,0.41,1.54,0.41c1.15,0,1.49-0.05,1.68-0.23c0.18-0.17,0.28-0.71,0.35-1.92
				c0.29,0.21,0.44,0.28,0.77,0.38c-0.19,1.48-0.29,1.84-0.58,2.1c-0.31,0.3-0.79,0.37-2.39,0.37c-1.86,0-2.14-0.13-2.14-1.01v-4.98
				c0-0.55-0.02-0.85-0.07-1.22h0.9c-0.05,0.35-0.06,0.7-0.06,1.2v1.7c1.36-0.64,2.7-1.56,3.22-2.21l0.64,0.6
				c-0.16,0.11-0.18,0.12-0.46,0.34c-1.07,0.82-2.08,1.42-3.4,2.05V335.57z"/>
			<path d="M243.5,337.55c0.84-1.19,1.5-2.74,1.5-4.9s-0.65-3.68-1.5-4.88h0.82c0.76,0.98,1.57,2.53,1.57,4.88
				c-0.01,2.35-0.82,3.88-1.57,4.9H243.5z"/>
		</g>
		<g>
			<path d="M170.98,363.6v-5h-0.8v-0.8h0.8v-0.28c0-0.82,0.19-1.56,0.68-2.03c0.4-0.38,0.92-0.54,1.4-0.54c0.38,0,0.7,0.08,0.9,0.17
				l-0.13,0.82c-0.17-0.07-0.37-0.13-0.68-0.13c-0.89,0-1.13,0.79-1.13,1.68v0.31h1.4v0.8h-1.39v5H170.98z"/>
			<path d="M179.25,362c0,0.61,0.01,1.14,0.05,1.6h-0.94l-0.06-0.95h-0.02c-0.26,0.47-0.89,1.08-1.92,1.08c-0.91,0-2-0.52-2-2.54
				v-3.4h1.06v3.2c0,1.1,0.35,1.86,1.29,1.86c0.71,0,1.2-0.49,1.39-0.97c0.06-0.14,0.1-0.34,0.1-0.54v-3.55h1.06V362z"/>
			<path d="M182.05,360.46h0.02c0.14-0.21,0.34-0.46,0.5-0.66l1.72-2h1.26l-2.24,2.39l2.56,3.42h-1.28l-1.99-2.78l-0.54,0.6v2.18
				H181v-8.52h1.06V360.46z"/>
			<path d="M191.53,362c0,0.61,0.01,1.14,0.05,1.6h-0.94l-0.06-0.95h-0.02c-0.26,0.47-0.89,1.08-1.92,1.08c-0.91,0-2-0.52-2-2.54
				v-3.4h1.06v3.2c0,1.1,0.35,1.86,1.3,1.86c0.71,0,1.2-0.49,1.39-0.97c0.06-0.14,0.1-0.34,0.1-0.54v-3.55h1.05V362z"/>
			<path d="M193.29,355.08h1.06v3.64h0.02c0.37-0.65,1.04-1.06,1.98-1.06c1.44,0,2.45,1.2,2.45,2.95c0,2.09-1.32,3.12-2.62,3.12
				c-0.84,0-1.5-0.32-1.94-1.09h-0.02l-0.06,0.96h-0.91c0.04-0.4,0.05-0.98,0.05-1.5V355.08z M194.34,361.27
				c0,0.13,0.01,0.26,0.04,0.38c0.2,0.73,0.83,1.24,1.58,1.24c1.12,0,1.76-0.9,1.76-2.23c0-1.18-0.6-2.17-1.73-2.17
				c-0.72,0-1.39,0.5-1.6,1.3c-0.04,0.13-0.06,0.28-0.06,0.44V361.27z"/>
			<path d="M204.2,362.21c0,0.5,0.02,1,0.08,1.39h-0.95l-0.1-0.73h-0.04c-0.31,0.46-0.95,0.86-1.78,0.86
				c-1.18,0-1.78-0.83-1.78-1.67c0-1.4,1.25-2.17,3.49-2.16v-0.12c0-0.48-0.13-1.36-1.32-1.34c-0.55,0-1.12,0.16-1.52,0.43
				l-0.24-0.71c0.48-0.3,1.19-0.5,1.92-0.5c1.79,0,2.22,1.21,2.22,2.38V362.21z M203.17,360.64c-1.15-0.02-2.46,0.18-2.46,1.31
				c0,0.7,0.46,1.01,0.98,1.01c0.77,0,1.26-0.48,1.43-0.97c0.04-0.11,0.05-0.23,0.05-0.34V360.64z"/>
			<path d="M210.04,363.38c-0.28,0.13-0.89,0.34-1.67,0.34c-1.75,0-2.89-1.19-2.89-2.96c0-1.79,1.22-3.1,3.12-3.1
				c0.62,0,1.18,0.16,1.46,0.31l-0.24,0.8c-0.25-0.13-0.65-0.28-1.22-0.28c-1.33,0-2.05,1-2.05,2.2c0,1.34,0.86,2.17,2.02,2.17
				c0.6,0,1-0.14,1.3-0.28L210.04,363.38z"/>
			<path d="M211.27,355.08h1.06v3.62h0.02c0.17-0.3,0.43-0.58,0.76-0.74c0.31-0.19,0.68-0.3,1.08-0.3c0.78,0,2.03,0.48,2.03,2.48
				v3.46h-1.06v-3.35c0-0.94-0.35-1.71-1.34-1.71c-0.68,0-1.21,0.48-1.42,1.06c-0.06,0.14-0.07,0.3-0.07,0.5v3.5h-1.06V355.08z"/>
			<path d="M218.44,356.81c-0.38,0-0.64-0.3-0.64-0.65c0-0.37,0.26-0.66,0.66-0.66c0.38,0,0.65,0.29,0.65,0.66
				c0,0.35-0.25,0.65-0.66,0.65H218.44z M217.93,363.6v-5.81h1.06v5.81H217.93z"/>
			<path d="M225.56,355.27c-0.88,1.19-1.5,2.74-1.5,4.92c0,2.14,0.66,3.66,1.5,4.86h-0.82c-0.76-1-1.57-2.53-1.57-4.87
				c0.01-2.35,0.82-3.9,1.57-4.91H225.56z"/>
			<path d="M228.62,363.02c0,0.58,0.02,0.98,0.08,1.39h-0.92c0.06-0.43,0.08-0.79,0.08-1.44v-3.83c0-0.61,0.01-0.94,0.05-1.49
				c-0.41,0.73-0.66,1.08-1.25,1.78c-0.19-0.36-0.28-0.49-0.49-0.68c0.86-0.89,1.55-1.91,2.11-3.14c0.34-0.73,0.61-1.52,0.68-1.99
				l0.83,0.3c-0.54,1.4-0.73,1.82-1.18,2.66V363.02z M236,356.99c0.5,0,0.94-0.02,1.25-0.07v0.85c-0.37-0.05-0.83-0.07-1.24-0.07
				h-2.48c0.32,1.5,0.74,2.52,1.44,3.6c0.7,1.06,1.4,1.75,2.54,2.47c-0.23,0.23-0.4,0.46-0.55,0.74c-1.02-0.73-1.69-1.42-2.38-2.42
				c-0.79-1.16-1.21-2.16-1.49-3.5c-0.17,1.21-0.58,2.47-1.14,3.43c-0.58,0.98-1.26,1.7-2.38,2.47c-0.17-0.28-0.31-0.46-0.56-0.67
				c2.05-1.24,3.1-3.07,3.44-6.12h-1.81c-0.49,0-0.94,0.02-1.25,0.07v-0.85c0.3,0.05,0.74,0.07,1.24,0.07h1.9
				c0.04-0.66,0.05-1.06,0.05-2.04c0-0.45-0.02-0.72-0.08-1.08h0.95c-0.05,0.37-0.07,0.67-0.07,1.15c0,0.85,0,0.92-0.07,1.97H236z
				 M236.04,356.46c-0.65-0.8-1.06-1.19-1.86-1.79l0.56-0.46c0.84,0.65,1.22,1.01,1.87,1.73L236.04,356.46z"/>
			<path d="M240.25,357.27c-0.29,0-0.55,0.01-0.78,0.05v-0.67c-0.29,0.28-0.38,0.37-0.7,0.61c-0.16-0.3-0.18-0.34-0.44-0.6
				c1.06-0.76,1.79-1.66,2.23-2.78h0.84c0.49,0.97,0.89,1.48,1.69,2.12c-0.22,0.21-0.35,0.36-0.47,0.59
				c-0.74-0.71-1.13-1.21-1.62-2.12c-0.41,0.86-0.85,1.49-1.52,2.16c0.24,0.04,0.44,0.05,0.78,0.05h1.48c0.36,0,0.55-0.01,0.8-0.05
				v0.7c-0.28-0.04-0.47-0.05-0.8-0.05h-0.5v1.27h0.71c0.48,0,0.79-0.01,1.09-0.06v0.76c-0.3-0.05-0.59-0.06-1.09-0.06h-0.71v3.56
				c0.61-0.14,0.89-0.21,1.68-0.47l0.01,0.67c-1.22,0.38-2.16,0.62-3.41,0.86c-0.46,0.1-0.56,0.12-0.84,0.19l-0.16-0.82
				c0.47,0,1-0.08,2.02-0.29v-3.72h-0.88c-0.48,0-0.78,0.01-1.12,0.06v-0.76c0.3,0.04,0.64,0.06,1.13,0.06h0.86v-1.27H240.25z
				 M239.33,362.44c-0.12-0.97-0.25-1.56-0.54-2.48l0.59-0.19c0.28,0.86,0.41,1.44,0.58,2.46L239.33,362.44z M241.61,361.81
				c0.3-0.72,0.46-1.25,0.6-2.04l0.58,0.25c-0.22,0.8-0.37,1.28-0.67,2L241.61,361.81z M244.33,356.71c-0.44,0-0.78,0.02-1.14,0.07
				v-0.82c0.35,0.05,0.66,0.07,1.15,0.07h1.21v-1.31c0-0.48-0.02-0.77-0.07-1.1h0.84c-0.05,0.3-0.06,0.61-0.06,1.1v1.31h1.76
				c0.46,0,0.79-0.02,1.13-0.07v0.8c-0.36-0.04-0.72-0.06-1.12-0.06h-1.61c0.34,1,0.59,1.56,1.08,2.38
				c0.64,1.06,1.22,1.78,2.05,2.51c-0.24,0.2-0.34,0.31-0.56,0.64c-0.65-0.68-1.1-1.26-1.64-2.15c-0.56-0.91-0.91-1.69-1.18-2.58
				c0.05,0.48,0.07,1.1,0.07,1.44v2.47h0.83c0.35,0,0.6-0.01,0.84-0.05v0.74c-0.26-0.04-0.49-0.05-0.82-0.05h-0.85v1.24
				c0,0.47,0.02,0.88,0.07,1.21h-0.84c0.05-0.32,0.08-0.77,0.08-1.21v-1.24h-0.77c-0.29,0-0.53,0.01-0.78,0.05v-0.74
				c0.23,0.04,0.49,0.05,0.82,0.05h0.73v-2.46c0-0.14,0.01-0.62,0.06-1.44c-0.44,1.62-1.28,3.14-2.5,4.48
				c-0.19-0.24-0.36-0.4-0.58-0.53c0.71-0.67,1.19-1.31,1.78-2.28c0.47-0.8,0.72-1.4,1.04-2.47H244.33z"/>
			<path d="M250.06,365.05c0.84-1.19,1.5-2.74,1.5-4.9s-0.65-3.68-1.5-4.88h0.82c0.76,0.98,1.57,2.53,1.57,4.88
				c-0.01,2.35-0.82,3.88-1.57,4.9H250.06z"/>
		</g>
		<g>
			<path d="M0.73,107.22c0.32,0.19,0.88,0.41,1.4,0.41c0.76,0,1.12-0.37,1.12-0.86c0-0.5-0.3-0.77-1.07-1.06
				c-1.06-0.38-1.55-0.96-1.55-1.64c0-0.94,0.77-1.7,2-1.7c0.59,0,1.1,0.16,1.42,0.36l-0.25,0.76c-0.23-0.13-0.65-0.34-1.19-0.34
				c-0.62,0-0.96,0.36-0.96,0.79c0,0.48,0.34,0.7,1.09,1c1,0.37,1.52,0.88,1.52,1.74c0,1.03-0.8,1.75-2.16,1.75
				c-0.64,0-1.22-0.17-1.63-0.41L0.73,107.22z"/>
			<path d="M9.72,106.9c0,0.5,0.02,1,0.08,1.39H8.86l-0.1-0.73H8.72c-0.31,0.46-0.95,0.86-1.78,0.86c-1.18,0-1.78-0.83-1.78-1.67
				c0-1.4,1.25-2.17,3.49-2.16v-0.12c0-0.48-0.13-1.36-1.32-1.34c-0.55,0-1.12,0.16-1.52,0.43l-0.24-0.71
				c0.48-0.3,1.19-0.5,1.92-0.5c1.79,0,2.22,1.21,2.22,2.38V106.9z M8.69,105.33c-1.15-0.02-2.46,0.18-2.46,1.31
				c0,0.7,0.46,1.01,0.98,1.01c0.77,0,1.26-0.48,1.43-0.97c0.04-0.11,0.05-0.23,0.05-0.34V105.33z"/>
			<path d="M12.47,105.15h0.02c0.14-0.2,0.34-0.46,0.5-0.66l1.72-2h1.26l-2.24,2.39l2.56,3.42H15l-1.99-2.78l-0.54,0.6v2.18h-1.06
				v-8.52h1.06V105.15z"/>
			<path d="M18.3,105.15h0.02c0.14-0.2,0.34-0.46,0.5-0.66l1.72-2h1.26l-2.24,2.39l2.56,3.42h-1.28l-1.99-2.78l-0.54,0.6v2.18h-1.06
				v-8.52h1.06V105.15z"/>
			<path d="M27.18,106.9c0,0.5,0.02,1,0.08,1.39h-0.95l-0.1-0.73h-0.04c-0.31,0.46-0.95,0.86-1.78,0.86c-1.18,0-1.78-0.83-1.78-1.67
				c0-1.4,1.25-2.17,3.49-2.16v-0.12c0-0.48-0.13-1.36-1.32-1.34c-0.55,0-1.12,0.16-1.52,0.43l-0.24-0.71
				c0.48-0.3,1.19-0.5,1.92-0.5c1.79,0,2.22,1.21,2.22,2.38V106.9z M26.15,105.33c-1.15-0.02-2.46,0.18-2.46,1.31
				c0,0.7,0.46,1.01,0.98,1.01c0.77,0,1.26-0.48,1.43-0.97c0.04-0.11,0.05-0.23,0.05-0.34V105.33z"/>
			<path d="M28.87,104.06c0-0.61-0.01-1.09-0.05-1.57h0.94l0.06,0.95h0.02c0.29-0.54,0.96-1.08,1.92-1.08c0.8,0,2.05,0.48,2.05,2.47
				v3.47h-1.06v-3.35c0-0.94-0.35-1.73-1.34-1.73c-0.68,0-1.22,0.49-1.42,1.08c-0.05,0.13-0.07,0.32-0.07,0.49v3.5h-1.06V104.06z"/>
			<path d="M40.36,99.97c-0.88,1.19-1.5,2.74-1.5,4.92c0,2.14,0.66,3.66,1.5,4.86h-0.82c-0.76-1-1.57-2.53-1.57-4.87
				c0.01-2.35,0.82-3.9,1.57-4.91H40.36z"/>
			<path d="M42.66,99.51c0-0.68-0.01-0.96-0.06-1.24h0.83c-0.05,0.32-0.06,0.64-0.06,1.22v1.14h0.37c0.35,0,0.53-0.01,0.77-0.05
				v0.74c-0.22-0.02-0.48-0.04-0.76-0.04H43.4c0.34,0.92,0.71,1.6,1.26,2.23c-0.26,0.28-0.35,0.41-0.46,0.59
				c-0.4-0.61-0.59-1.01-0.89-1.85c0.02,0.49,0.05,1.55,0.05,2.02v3.56c0,0.62,0.02,1.06,0.07,1.39h-0.85
				c0.05-0.35,0.07-0.77,0.07-1.39v-3.31c0-0.35,0.02-1.01,0.06-1.98c-0.42,1.62-0.77,2.46-1.38,3.38
				c-0.22-0.32-0.22-0.34-0.49-0.61c0.55-0.73,0.95-1.51,1.3-2.53c0.18-0.52,0.35-1.1,0.42-1.5h-0.58c-0.35,0-0.66,0.02-0.86,0.05
				v-0.76c0.22,0.04,0.48,0.05,0.86,0.05h0.67V99.51z M46.85,106.92c-0.78,1.02-1.21,1.43-2.18,2.06c-0.19-0.26-0.34-0.42-0.54-0.56
				c1.04-0.6,1.52-1.02,2.11-1.85L46.85,106.92z M47.45,100.9c0.56,0,0.76-0.01,0.98-0.04c0.05,0.52,0.5,1.28,1.19,2.05
				c0.44-0.47,0.73-0.85,1.03-1.42h-0.89c-0.32,0-0.55,0.01-0.79,0.04v-0.67c0.17,0.04,0.44,0.05,0.83,0.05h0.46
				c0.32,0,0.49-0.01,0.7-0.05l0.18,0.19v-1.12H45.5v1.16H44.8c0.02-0.22,0.04-0.42,0.04-0.72v-0.32c0-0.35-0.01-0.56-0.04-0.78
				c0.34,0.02,0.6,0.04,1.14,0.04h1.86v-0.2c0-0.3-0.02-0.56-0.07-0.83h0.88c-0.06,0.25-0.07,0.46-0.07,0.83v0.2h1.97
				c0.54,0,0.94-0.01,1.38-0.06c-0.02,0.25-0.04,0.47-0.04,0.8v0.29c0,0.32,0.01,0.55,0.04,0.72h-0.73l0.34,0.36
				c-0.07,0.12-0.12,0.19-0.22,0.35c-0.47,0.74-0.67,1.01-1.2,1.57c0.56,0.54,1.31,1.03,2.09,1.37c-0.19,0.22-0.24,0.3-0.4,0.64
				c-1.57-0.86-2.6-1.88-3.54-3.44c-0.38,0.79-0.78,1.34-1.45,2.06c-0.65,0.68-1.14,1.08-2.1,1.68c-0.11-0.22-0.26-0.41-0.43-0.58
				c0.68-0.37,1.15-0.7,1.67-1.14c-0.26-0.29-0.4-0.41-0.8-0.74l0.46-0.35c0.31,0.26,0.44,0.4,0.76,0.72
				c0.16-0.16,0.28-0.29,0.52-0.56c-0.28-0.29-0.5-0.49-0.82-0.72l0.43-0.37c0.38,0.34,0.42,0.36,0.72,0.67
				c0.26-0.35,0.41-0.6,0.65-1.09h-1.48c-0.5,0.71-0.95,1.15-1.61,1.61c-0.13-0.22-0.26-0.37-0.42-0.49
				c0.71-0.43,1.21-0.92,1.64-1.6c0.24-0.4,0.35-0.61,0.43-0.89l0.64,0.24c-0.04,0.05-0.1,0.17-0.18,0.31
				c-0.01,0.01-0.01,0.01-0.13,0.23H47.45z M46.27,106.12c-0.41,0-0.77,0.02-1.03,0.06v-0.74c0.26,0.04,0.61,0.06,1.07,0.06h3.92
				c0.44,0,0.8-0.02,1.06-0.06v0.73c-0.25-0.04-0.6-0.05-1.07-0.05h-1.56v2.23c0,0.65-0.23,0.82-1.12,0.82
				c-0.18,0-0.52-0.01-0.85-0.04c-0.01-0.29-0.02-0.32-0.14-0.72c0.4,0.06,0.76,0.1,0.98,0.1c0.3,0,0.4-0.06,0.4-0.25v-2.14H46.27z
				 M46.84,103.99c0.18,0.04,0.4,0.05,0.77,0.05h1.3c0.37,0,0.56-0.01,0.76-0.05v0.72c-0.18-0.04-0.4-0.05-0.76-0.05h-1.32
				c-0.32,0-0.53,0.01-0.74,0.05V103.99z M50.11,106.57c0.72,0.88,1.1,1.21,2.03,1.75c-0.2,0.17-0.32,0.31-0.5,0.62
				c-0.85-0.56-1.27-0.96-2.1-2L50.11,106.57z"/>
			<path d="M55.01,99.86c-0.38,0.48-0.68,0.79-1.13,1.18c-0.22-0.24-0.25-0.26-0.6-0.48c0.91-0.66,1.51-1.4,1.92-2.39l0.76,0.24
				c-0.2,0.37-0.29,0.5-0.49,0.83h2.02c0.49,0,0.74-0.01,1.02-0.06v0.72c-0.32-0.04-0.41-0.04-0.92-0.04h-0.94
				c0.24,0.41,0.36,0.64,0.53,1.02l-0.66,0.29c-0.18-0.54-0.32-0.88-0.58-1.31H55.01z M58.88,100.53c-0.24-0.17-0.3-0.2-0.47-0.29
				c0.72-0.65,1.03-1.13,1.33-2.05l0.73,0.18c-0.14,0.34-0.23,0.52-0.42,0.86h2.87c0.52,0,0.73-0.01,1.04-0.06v0.74
				c-0.3-0.05-0.55-0.06-1.02-0.06h-1.58c0.24,0.36,0.4,0.64,0.56,1l-0.67,0.29c-0.23-0.58-0.34-0.79-0.64-1.28h-0.95
				c-0.19,0.26-0.24,0.32-0.67,0.78c-0.04-0.04-0.05-0.05-0.1-0.08c-0.04,0.25-0.04,0.31-0.04,0.65v0.2h3.59
				c0.55,0,0.83-0.01,1.21-0.05c-0.02,0.23-0.04,0.41-0.04,0.76v0.62c0,0.36,0.01,0.56,0.05,0.79h-0.77v-1.5h-8.44v1.5h-0.77
				c0.04-0.24,0.05-0.44,0.05-0.78v-0.62c0-0.32-0.01-0.54-0.05-0.77c0.35,0.04,0.62,0.05,1.18,0.05h3.25v-0.2
				c0-0.29-0.01-0.41-0.05-0.67H58.88z M55.22,109.18c0.05-0.41,0.07-0.73,0.07-1.21v-4.33c0-0.41-0.01-0.58-0.05-0.88
				c0.37,0.05,0.71,0.06,1.2,0.06h4.26c0.5,0,0.83-0.01,1.2-0.06c-0.02,0.23-0.04,0.48-0.04,0.88v0.7c0,0.42,0.01,0.66,0.05,0.91
				c-0.36-0.04-0.68-0.05-1.2-0.05h-4.7v0.88h5.23c0.52,0,0.79-0.01,1.1-0.05c-0.05,0.3-0.06,0.62-0.06,1.08v0.95
				c0,0.43,0.01,0.76,0.07,1.13h-0.79v-0.6h-5.56v0.6H55.22z M56.02,104.59h5.15v-1.14h-5.15V104.59z M56.02,107.96h5.56v-1.25
				h-5.56V107.96z"/>
			<path d="M64.85,109.75c0.84-1.19,1.5-2.74,1.5-4.9c0-2.16-0.65-3.68-1.5-4.88h0.82c0.76,0.98,1.57,2.53,1.57,4.88
				c-0.01,2.35-0.82,3.88-1.57,4.9H64.85z"/>
		</g>
		<g>
			<path d="M85.18,405.25c0.52,0.27,1.35,0.55,2.2,0.55c0.91,0,1.39-0.38,1.39-0.95c0-0.55-0.42-0.86-1.47-1.22
				c-1.46-0.52-2.42-1.33-2.42-2.6c0-1.5,1.26-2.63,3.31-2.63c1,0,1.72,0.2,2.24,0.44l-0.44,1.59c-0.34-0.17-0.98-0.42-1.82-0.42
				c-0.86,0-1.27,0.4-1.27,0.84c0,0.56,0.48,0.81,1.62,1.24c1.55,0.57,2.26,1.38,2.26,2.61c0,1.47-1.12,2.72-3.52,2.72
				c-1,0-1.99-0.27-2.48-0.55L85.18,405.25z"/>
			<path d="M95.08,407.44c-1.86,0-3.29-1.22-3.29-3.28c0-2.05,1.35-3.37,3.41-3.37c1.94,0,3.24,1.34,3.24,3.26
				c0,2.31-1.65,3.38-3.34,3.38H95.08z M96.76,398.64v1.09h-3.25v-1.09H96.76z M95.14,406.02c0.78,0,1.26-0.77,1.26-1.91
				c0-0.94-0.36-1.9-1.26-1.9c-0.94,0-1.3,0.96-1.3,1.91c0,1.08,0.45,1.9,1.29,1.9H95.14z"/>
			<path d="M99.66,403.03c0-0.94-0.01-1.55-0.05-2.09h1.69l0.08,1.18h0.05c0.33-0.94,1.09-1.33,1.72-1.33
				c0.18,0,0.27,0.01,0.42,0.04v1.86c-0.16-0.03-0.31-0.05-0.53-0.05c-0.73,0-1.22,0.38-1.35,1c-0.03,0.13-0.04,0.27-0.04,0.44v3.21
				h-1.98V403.03z"/>
			<path d="M105.57,400.16c-0.62,0-1.03-0.44-1.03-0.99c0-0.56,0.42-0.99,1.05-0.99c0.64,0,1.03,0.43,1.04,0.99
				c0,0.55-0.4,0.99-1.05,0.99H105.57z M104.6,407.3v-6.36h1.98v6.36H104.6z"/>
			<path d="M108.16,402.97c0-0.79-0.03-1.46-0.05-2.03h1.72l0.09,0.88h0.04c0.26-0.42,0.9-1.03,1.96-1.03c1.3,0,2.28,0.87,2.28,2.74
				v3.76h-1.98v-3.52c0-0.82-0.29-1.38-1-1.38c-0.55,0-0.87,0.38-1.01,0.74c-0.05,0.13-0.06,0.31-0.06,0.49v3.67h-1.98V402.97z"/>
			<path d="M121.25,398.31c-0.73,1.2-1.31,2.94-1.31,5.26c0,2.29,0.58,4.02,1.31,5.24h-1.38c-0.69-1.01-1.48-2.73-1.48-5.24
				c0.01-2.54,0.79-4.25,1.48-5.26H121.25z"/>
			<path d="M125.67,400c0.4,0.97,0.87,1.66,1.74,2.51c-0.07,0.1-0.12,0.2-0.16,0.25c-0.27,0.43-0.31,0.52-0.52,1.11
				c-0.57-0.77-0.84-1.24-1.23-2.18c0.04,0.75,0.05,1.07,0.05,1.78v3.34c0,0.65,0.03,1.21,0.08,1.6h-1.53
				c0.05-0.42,0.08-0.94,0.08-1.6v-2.68c0-0.57,0.04-1.5,0.09-1.95c-0.29,0.91-0.44,1.31-0.78,1.98c-0.3,0.62-0.53,1.01-0.77,1.33
				c-0.22-0.62-0.4-0.99-0.71-1.42c0.85-1.01,1.56-2.46,1.99-4.06h-0.64c-0.42,0-0.68,0.01-0.95,0.05v-1.39
				c0.23,0.05,0.52,0.07,0.96,0.07h0.81v-1.05c0-0.69-0.03-0.99-0.08-1.35h1.53c-0.05,0.34-0.08,0.74-0.08,1.34v1.07h0.74
				c0.34,0,0.6-0.01,0.83-0.07v1.38c-0.3-0.03-0.52-0.04-0.82-0.04H125.67z M127.45,408.35c0.04-0.48,0.07-1.03,0.07-1.66v-8.51
				c0-0.44-0.01-0.75-0.05-1.38c0.35,0.03,0.6,0.04,1.16,0.04h3.9c0.56,0,0.85-0.01,1.12-0.05c-0.03,0.38-0.04,0.73-0.04,1.33v8.57
				c0,0.69,0.03,1.25,0.06,1.65h-1.48v-0.74h-3.26v0.77H127.45z M128.92,400h3.26v-1.85h-3.26V400z M128.92,403.07h3.26v-1.83h-3.26
				V403.07z M128.92,406.28h3.26v-1.98h-3.26V406.28z"/>
			<path d="M137.15,397.3c0-0.33-0.03-0.62-0.08-0.95h1.37c-0.05,0.31-0.08,0.61-0.08,0.95v0.3h0.58c0.59,0,0.79-0.01,1.14-0.07
				v1.27c-0.34-0.04-0.53-0.05-1.14-0.05h-0.58v0.79h0.44c0.57,0,0.75,0,0.96-0.01c-0.07-0.08-0.1-0.1-0.19-0.19
				c1.59-0.78,2.6-1.7,3.16-2.85h1.42c0.74,1.2,1.79,2.03,3.34,2.66c-0.35,0.42-0.52,0.72-0.77,1.24c-0.55-0.31-0.69-0.39-0.96-0.59
				v0.82c-0.32-0.04-0.47-0.04-1-0.04h-2.39c-0.52,0-0.69,0-1.01,0.04v-0.79c-0.34,0.26-0.48,0.36-0.92,0.62
				c-0.16-0.22-0.16-0.23-0.49-0.7c0,0.07,0,0.07,0,0.21c0,0.06,0,0.33-0.01,0.79v2.34c0.01,0.77,0.03,1.22,0.04,1.38
				c-0.18-0.01-0.75-0.03-1.21-0.03h-0.39v0.86h0.68c0.46,0,0.71-0.01,1.01-0.07v1.3c-0.3-0.05-0.58-0.06-1.03-0.06h-0.66v0.74
				c0,0.48,0.03,0.82,0.08,1.18h-1.37c0.05-0.36,0.08-0.7,0.08-1.24v-0.69h-0.75c-0.55,0-0.79,0.01-1.16,0.06v-1.3
				c0.35,0.05,0.59,0.07,1.16,0.07h0.75v-0.86h-0.22c-0.58,0-0.86,0.01-1.36,0.04c0.04-0.42,0.05-0.84,0.05-1.47v-2.16
				c0-0.62-0.01-0.97-0.05-1.35c0.4,0.03,0.69,0.04,1.36,0.04h0.22v-0.79h-0.69c-0.53,0-0.78,0.01-1.14,0.06v-1.29
				c0.34,0.05,0.57,0.07,1.14,0.07h0.69V397.3z M136.6,400.61v0.87h0.62v-0.87H136.6z M136.6,402.43v0.94h0.62v-0.94H136.6z
				 M138.93,401.48v-0.87h-0.66v0.87H138.93z M138.93,403.37v-0.94h-0.66v0.94H138.93z M141.62,405.16v1.9
				c0,0.64,0.01,0.98,0.07,1.31h-1.3c0.05-0.3,0.08-0.65,0.08-1.31v-4.41c0-0.7-0.01-0.98-0.05-1.3c0.3,0.04,0.66,0.05,1.22,0.05
				h3.98c0.66,0,1-0.01,1.3-0.07c-0.05,0.42-0.06,0.69-0.06,1.29v4.5c0,0.9-0.26,1.16-1.17,1.16c-0.08,0-0.14,0-0.32-0.01
				c0-0.53-0.05-0.83-0.2-1.27c0.13,0.04,0.25,0.05,0.32,0.05c0.14,0,0.18-0.05,0.18-0.22v-1.66h-0.69v1.68
				c0,0.71,0.01,0.9,0.05,1.22h-1.14c0.04-0.34,0.05-0.53,0.05-1.22v-1.68h-0.64v1.69c0,0.7,0.01,0.9,0.05,1.22h-1.14
				c0.04-0.31,0.05-0.54,0.05-1.21v-1.7H141.62z M142.26,402.54h-0.64v1.49h0.64V402.54z M144.75,399.43c0.18,0,0.23,0,0.47,0
				c-0.69-0.53-1.27-1.11-1.77-1.75c-0.62,0.86-0.92,1.2-1.59,1.75c0.27,0,0.32,0,0.49,0H144.75z M143.94,404.03v-1.49h-0.64v1.49
				H143.94z M145.67,404.03v-1.49h-0.69v1.49H145.67z"/>
			<path d="M148.15,408.82c0.73-1.21,1.31-2.96,1.31-5.27s-0.59-4.03-1.31-5.24h1.38c0.69,1,1.48,2.72,1.48,5.25
				c-0.01,2.52-0.79,4.22-1.48,5.25H148.15z"/>
		</g>
		<g>
			<path d="M170.79,376.45c0-0.68-0.01-1.27-0.05-1.81h0.92l0.05,1.14h0.04c0.26-0.78,0.91-1.27,1.62-1.27
				c0.11,0,0.19,0.01,0.29,0.02v1c-0.11-0.01-0.22-0.02-0.36-0.02c-0.74,0-1.27,0.56-1.42,1.34c-0.02,0.16-0.04,0.32-0.04,0.49v3.11
				h-1.06V376.45z"/>
			<path d="M176.96,380.58c-1.56,0-2.79-1.15-2.79-2.99c0-1.94,1.29-3.08,2.88-3.08c1.67,0,2.79,1.21,2.79,2.98
				c0,2.16-1.5,3.1-2.88,3.1H176.96z M177.01,379.78c1.01,0,1.76-0.95,1.76-2.27c0-0.98-0.49-2.22-1.74-2.22
				c-1.24,0-1.78,1.15-1.78,2.26c0,1.27,0.72,2.23,1.74,2.23H177.01z"/>
			<path d="M181.18,371.92h1.06v3.64h0.02c0.37-0.65,1.04-1.06,1.98-1.06c1.44,0,2.45,1.2,2.45,2.95c0,2.09-1.32,3.12-2.62,3.12
				c-0.84,0-1.5-0.32-1.94-1.09h-0.03l-0.06,0.96h-0.91c0.04-0.4,0.05-0.98,0.05-1.5V371.92z M182.24,378.12
				c0,0.13,0.01,0.26,0.04,0.38c0.21,0.73,0.83,1.24,1.58,1.24c1.12,0,1.76-0.9,1.76-2.23c0-1.18-0.6-2.17-1.73-2.17
				c-0.72,0-1.39,0.5-1.6,1.3c-0.04,0.13-0.06,0.28-0.06,0.44V378.12z"/>
			<path d="M192.1,379.05c0,0.5,0.02,1,0.08,1.39h-0.95l-0.1-0.73h-0.04c-0.31,0.46-0.95,0.86-1.78,0.86
				c-1.18,0-1.78-0.83-1.78-1.67c0-1.4,1.25-2.17,3.49-2.16v-0.12c0-0.48-0.13-1.36-1.32-1.34c-0.55,0-1.12,0.16-1.52,0.43
				l-0.24-0.71c0.48-0.3,1.19-0.5,1.92-0.5c1.79,0,2.22,1.21,2.22,2.38V379.05z M191.07,377.48c-1.15-0.02-2.46,0.18-2.46,1.31
				c0,0.7,0.46,1.01,0.98,1.01c0.77,0,1.26-0.48,1.43-0.97c0.04-0.11,0.05-0.23,0.05-0.34V377.48z"/>
			<path d="M193.79,376.21c0-0.61-0.01-1.09-0.05-1.57h0.94l0.06,0.95h0.02c0.29-0.54,0.96-1.08,1.92-1.08
				c0.8,0,2.05,0.48,2.05,2.47v3.47h-1.06v-3.35c0-0.94-0.35-1.73-1.34-1.73c-0.68,0-1.22,0.49-1.42,1.08
				c-0.05,0.13-0.07,0.32-0.07,0.49v3.5h-1.06V376.21z"/>
			<path d="M205.28,372.12c-0.88,1.19-1.5,2.74-1.5,4.92c0,2.14,0.66,3.66,1.5,4.86h-0.82c-0.76-1-1.57-2.53-1.57-4.87
				c0.01-2.35,0.82-3.9,1.57-4.91H205.28z"/>
			<path d="M208.64,377.43h-0.91c-0.24,0-0.61,0.01-0.88,0.04c0.04-0.23,0.05-0.41,0.05-0.7v-0.96c0-0.29-0.01-0.48-0.05-0.71
				c0.28,0.02,0.54,0.04,0.89,0.04h2.16c0.37,0,0.61-0.01,0.88-0.04c-0.02,0.22-0.04,0.4-0.04,0.71v0.96c0,0.42,0,0.55,0.01,0.68
				l-0.19-0.01c-0.08-0.01-0.34-0.01-0.6-0.01h-0.64v0.83h0.62c0.46,0,0.66-0.01,0.85-0.06v0.66c-0.26-0.04-0.5-0.05-0.86-0.05
				h-0.61v1.27c0.62-0.14,0.86-0.2,1.68-0.41v0.64c-1.24,0.31-2.44,0.59-3.34,0.77c-0.53,0.1-0.9,0.17-1.13,0.22
				c-0.1,0.02-0.13,0.04-0.23,0.06l-0.17-0.78c0.26,0,0.44-0.01,0.84-0.07v-1.7c0-0.31-0.02-0.6-0.07-0.88h0.79
				c-0.04,0.26-0.05,0.5-0.05,0.88v1.6c0.36-0.06,0.53-0.08,0.98-0.18V377.43z M208.35,371.28c-0.49,0-0.76,0.01-1.09,0.06v-0.72
				c0.31,0.05,0.62,0.06,1.14,0.06h6.32c0.52,0,0.82-0.01,1.13-0.06v0.72c-0.34-0.05-0.6-0.06-1.08-0.06h-2.99v0.62h3.83
				c0.46,0,0.74-0.01,1.04-0.06c-0.04,0.29-0.05,0.47-0.05,0.88v0.47c0,0.41,0.02,0.67,0.07,0.98h-0.79v-1.73h-4.1v1.37
				c0,0.44,0.02,0.72,0.07,1.01h-0.86c0.05-0.29,0.07-0.61,0.07-1.01v-1.37h-3.85v1.73h-0.79c0.05-0.34,0.07-0.61,0.07-0.97v-0.48
				c0-0.38-0.01-0.54-0.05-0.88c0.31,0.05,0.61,0.06,1.07,0.06h3.55v-0.62H208.35z M207.58,376.89h2.47v-1.2h-2.47V376.89z
				 M207.94,372.96c0.22,0.04,0.42,0.05,0.78,0.05h0.86c0.37,0,0.55-0.01,0.77-0.05v0.58c-0.23-0.04-0.43-0.05-0.77-0.05h-0.86
				c-0.34,0-0.5,0.01-0.78,0.05V372.96z M207.94,374.02c0.22,0.04,0.42,0.05,0.78,0.05h0.86c0.36,0,0.56-0.01,0.77-0.05v0.58
				c-0.22-0.04-0.42-0.05-0.77-0.05h-0.86c-0.34,0-0.58,0.01-0.78,0.05V374.02z M211.91,378.85c-0.29,0.11-0.35,0.13-0.68,0.24
				c-0.12-0.29-0.19-0.4-0.36-0.6c1.13-0.3,1.82-0.6,2.68-1.13c-0.42-0.31-0.7-0.58-1.07-1c-0.4,0.41-0.64,0.6-1.16,0.96
				c-0.14-0.22-0.26-0.34-0.46-0.48c1.01-0.56,1.7-1.26,2.11-2.12l0.65,0.22c-0.14,0.2-0.18,0.26-0.29,0.41h1.63
				c0.44,0,0.67-0.01,0.9-0.05l0.44,0.42c-0.07,0.08-0.1,0.11-0.18,0.2c-0.56,0.64-0.95,1-1.55,1.45c0.8,0.44,1.6,0.74,2.66,1.01
				c-0.12,0.18-0.19,0.34-0.31,0.63c-0.5-0.18-0.5-0.18-0.74-0.26c0,0.12,0,0.17,0,0.31v1.56c0,0.37,0.01,0.56,0.06,0.79h-0.77
				v-0.49h-2.87v0.49h-0.76c0.05-0.18,0.06-0.36,0.06-0.74v-1.61V378.85z M215.59,378.66c0.2,0,0.2,0,0.34,0
				c-0.76-0.29-1.26-0.54-1.85-0.92c-0.58,0.4-0.97,0.61-1.69,0.92H215.59z M215.19,373.53c-0.24-0.04-0.43-0.05-0.76-0.05h-1.13
				c-0.34,0-0.48,0.01-0.78,0.05v-0.58c0.24,0.04,0.42,0.05,0.78,0.05h1.13c0.36,0,0.52-0.01,0.76-0.05V373.53z M215.19,374.6
				c-0.23-0.04-0.42-0.05-0.76-0.05h-1.13c-0.34,0-0.55,0.01-0.78,0.05v-0.58c0.23,0.04,0.43,0.05,0.78,0.05h1.13
				c0.36,0,0.54-0.01,0.76-0.05V374.6z M212.61,380.36h2.87v-1.16h-2.87V380.36z M212.84,375.97c0.4,0.43,0.74,0.74,1.2,1.07
				c0.5-0.37,0.8-0.64,1.27-1.15h-2.4L212.84,375.97z"/>
			<path d="M218.14,373.95c0.18,0.02,0.35,0.04,0.52,0.04c0.14,0,0.42-0.01,0.6-0.02c0.04-0.53,0.05-0.85,0.05-1.37
				c0-0.7-0.01-1.02-0.06-1.36c0.28,0.05,0.61,0.06,1.13,0.06h0.28c0.18-0.35,0.28-0.62,0.36-1.01l0.71,0.18
				c-0.1,0.23-0.29,0.61-0.4,0.83h0.67c0.46,0,0.85-0.02,1.06-0.06c-0.04,0.24-0.05,0.56-0.05,0.95v1.38l0.54-0.1v0.58l-0.54,0.08
				v2.24c0,0.67-0.19,0.82-1.08,0.82c-0.06,0-0.06,0-0.36-0.01c-0.25-0.01-0.26-0.01-0.42-0.01c-0.01-0.23-0.06-0.43-0.16-0.66
				c0.34,0.06,0.71,0.08,1.01,0.08c0.28,0,0.34-0.05,0.34-0.31v-2.04c-0.37,0.06-0.48,0.07-0.96,0.13v1.03
				c0,0.36,0.01,0.56,0.05,0.76h-0.68c0.04-0.19,0.05-0.42,0.05-0.76v-0.96c-0.36,0.05-0.4,0.05-0.91,0.1
				c-0.16,1.38-0.43,2.12-1.12,2.92c-0.2-0.25-0.3-0.32-0.59-0.52c0.62-0.64,0.9-1.25,1.03-2.34c-0.6,0.06-0.8,0.08-0.96,0.11
				L218.14,373.95z M219.56,378.61c0-0.42-0.01-0.7-0.06-1.04c0.48,0.04,0.79,0.05,1.22,0.05h5.65c0.46,0,0.71-0.01,1.18-0.05
				c-0.05,0.3-0.06,0.55-0.06,0.94v1.79h0.53c0.48,0,0.68-0.01,0.96-0.06v0.76c-0.36-0.04-0.73-0.06-1.2-0.06h-8.35
				c-0.5,0-0.89,0.02-1.28,0.06v-0.76c0.3,0.05,0.52,0.06,0.92,0.06h0.49V378.61z M219.98,371.86c0,1.04-0.01,1.43-0.05,2.06
				c0.83-0.07,1.55-0.14,2.4-0.26v-1.8H219.98z M220.28,380.29h1.7v-2.04h-1.7V380.29z M221.35,373.56c-0.36-0.54-0.52-0.72-1-1.19
				l0.44-0.32c0.44,0.43,0.66,0.67,1.01,1.14L221.35,373.56z M222.64,380.29h1.7v-2.04h-1.7V380.29z M228.26,374.16
				c-0.24,0.34-0.29,0.4-0.31,0.42c-0.38,0.52-0.78,0.89-1.38,1.34c0.76,0.43,1.26,0.61,2.4,0.88c-0.17,0.2-0.25,0.36-0.37,0.66
				c-0.18-0.06-0.32-0.11-0.42-0.14c-0.94-0.3-1.51-0.56-2.18-1.01c-0.73,0.44-1.31,0.67-2.3,0.94c-0.12-0.23-0.22-0.35-0.44-0.56
				c0.84-0.17,1.55-0.41,2.22-0.77c-0.59-0.48-0.76-0.68-1.26-1.52c-0.19,0.01-0.25,0.01-0.41,0.02v-0.67
				c0.26,0.04,0.54,0.05,0.94,0.05h2.26c0.44,0,0.67-0.01,0.83-0.05L228.26,374.16z M225.11,371.43c-0.04,0.83-0.16,1.22-0.46,1.6
				c-0.18,0.23-0.41,0.41-0.7,0.55c-0.14-0.23-0.25-0.34-0.47-0.49c0.32-0.13,0.59-0.36,0.74-0.6c0.17-0.28,0.24-0.65,0.24-1.22
				c0-0.19-0.01-0.34-0.02-0.47c0.23,0.02,0.43,0.04,0.76,0.04h1.19c0.36,0,0.59-0.01,0.78-0.04c-0.04,0.17-0.05,0.35-0.05,0.63
				v1.09c0,0.14,0.04,0.17,0.24,0.17c0.07,0,0.17,0,0.29,0.01c0.01,0,0.04,0,0.04,0c0.18,0,0.41-0.05,0.48-0.1
				c0.11-0.07,0.14-0.34,0.14-1.01c0.23,0.13,0.35,0.17,0.64,0.23c-0.04,0.74-0.1,1.03-0.28,1.2c-0.17,0.17-0.5,0.25-1,0.25
				c-0.77,0-0.92-0.02-1.08-0.14c-0.1-0.07-0.12-0.16-0.12-0.36v-1.34H225.11z M224.87,374.37c0.35,0.53,0.62,0.82,1.14,1.2
				c0.53-0.37,0.88-0.71,1.27-1.2H224.87z M225.01,380.29h1.76v-2.04h-1.76V380.29z"/>
			<path d="M229.77,381.9c0.84-1.19,1.5-2.74,1.5-4.9s-0.65-3.68-1.5-4.88h0.82c0.76,0.98,1.57,2.53,1.57,4.88
				c-0.01,2.35-0.82,3.88-1.57,4.9H229.77z"/>
		</g>
		<g>
			<path d="M171.12,20.31c0-0.68-0.01-1.27-0.05-1.81h0.92l0.05,1.14h0.04c0.26-0.78,0.91-1.27,1.62-1.27
				c0.11,0,0.19,0.01,0.29,0.02v1c-0.11-0.01-0.22-0.02-0.36-0.02c-0.74,0-1.27,0.56-1.42,1.34c-0.02,0.16-0.04,0.32-0.04,0.49v3.11
				h-1.06V20.31z"/>
			<path d="M175.72,18.5l1.26,3.43c0.14,0.38,0.29,0.84,0.38,1.19h0.03c0.11-0.35,0.23-0.79,0.37-1.21l1.15-3.41h1.12l-1.58,4.14
				c-0.76,1.99-1.27,3-1.99,3.64c-0.53,0.44-1.03,0.62-1.3,0.67l-0.26-0.88c0.26-0.08,0.61-0.25,0.92-0.52
				c0.29-0.23,0.64-0.64,0.89-1.18c0.05-0.11,0.08-0.19,0.08-0.25s-0.02-0.14-0.08-0.28l-2.14-5.35H175.72z"/>
			<path d="M185.85,22.71c0,0.61,0.01,1.14,0.05,1.6h-0.94l-0.06-0.95h-0.02c-0.26,0.47-0.89,1.08-1.92,1.08c-0.91,0-2-0.52-2-2.54
				v-3.4h1.06v3.2c0,1.1,0.35,1.86,1.3,1.86c0.71,0,1.2-0.49,1.39-0.97c0.06-0.14,0.1-0.34,0.1-0.54V18.5h1.05V22.71z M184.78,16.59
				v0.68h-2.7v-0.68H184.78z"/>
			<path d="M187.46,23.23c0.32,0.19,0.88,0.41,1.4,0.41c0.76,0,1.12-0.37,1.12-0.86c0-0.5-0.3-0.77-1.07-1.06
				c-1.06-0.38-1.55-0.96-1.55-1.64c0-0.94,0.77-1.7,2-1.7c0.59,0,1.1,0.16,1.42,0.36l-0.25,0.76c-0.23-0.13-0.65-0.34-1.19-0.34
				c-0.62,0-0.96,0.36-0.96,0.79c0,0.48,0.34,0.7,1.09,1c1,0.37,1.52,0.88,1.52,1.74c0,1.03-0.8,1.75-2.16,1.75
				c-0.64,0-1.22-0.17-1.63-0.41L187.46,23.23z"/>
			<path d="M192.35,15.79h1.06v3.62h0.02c0.17-0.3,0.43-0.58,0.76-0.74c0.31-0.19,0.68-0.3,1.08-0.3c0.78,0,2.03,0.48,2.03,2.48
				v3.46h-1.06v-3.35c0-0.94-0.35-1.72-1.34-1.72c-0.68,0-1.21,0.48-1.42,1.06c-0.06,0.14-0.07,0.3-0.07,0.5v3.5h-1.06V15.79z"/>
			<path d="M203.11,22.92c0,0.5,0.02,1,0.08,1.39h-0.95l-0.1-0.73h-0.04c-0.31,0.46-0.95,0.86-1.78,0.86
				c-1.18,0-1.78-0.83-1.78-1.67c0-1.4,1.25-2.17,3.49-2.16v-0.12c0-0.48-0.13-1.36-1.32-1.34c-0.55,0-1.12,0.16-1.52,0.43
				l-0.24-0.71c0.48-0.3,1.19-0.5,1.92-0.5c1.79,0,2.22,1.21,2.22,2.38V22.92z M202.07,21.35c-1.15-0.02-2.46,0.18-2.46,1.31
				c0,0.7,0.46,1.01,0.98,1.01c0.77,0,1.26-0.48,1.43-0.97c0.04-0.11,0.05-0.23,0.05-0.34V21.35z"/>
			<path d="M207.08,15.98c-0.88,1.19-1.5,2.74-1.5,4.92c0,2.14,0.66,3.66,1.5,4.86h-0.82c-0.76-1-1.57-2.53-1.57-4.87
				c0.01-2.35,0.82-3.9,1.57-4.91H207.08z"/>
			<path d="M212.77,15.11c0-0.26-0.02-0.53-0.07-0.82h0.92c-0.05,0.28-0.07,0.53-0.07,0.82v0.29h2.95c0.6,0,0.97-0.02,1.27-0.07
				v0.77c-0.38-0.04-0.71-0.05-1.24-0.05h-0.64c-0.23,0.49-0.49,1.03-0.67,1.36h1.97c0.74,0,1.1-0.01,1.42-0.07v0.78
				c-0.36-0.05-0.68-0.06-1.42-0.06h-7.79c-0.71,0-1.04,0.01-1.4,0.06v-0.78c0.32,0.05,0.71,0.07,1.43,0.07h1.78
				c-0.19-0.55-0.28-0.76-0.58-1.36h-0.61c-0.52,0-0.82,0.01-1.18,0.05v-0.77c0.28,0.05,0.64,0.07,1.22,0.07h2.7V15.11z
				 M210.01,22.94v0.66h-0.82c0.05-0.32,0.07-0.64,0.07-1.01v-2.75c0-0.38-0.01-0.73-0.05-1.02c0.28,0.04,0.53,0.05,1,0.05h5.98
				c0.49,0,0.77-0.01,1.04-0.05c-0.04,0.32-0.05,0.6-0.05,1.02v2.26c0,0.41,0.01,0.64,0.04,0.86c-0.31-0.02-0.44-0.02-0.91-0.02
				h-2.87v0.97c0,0.29,0.28,0.34,1.91,0.34c1.69,0,2.27-0.06,2.44-0.28c0.12-0.13,0.17-0.53,0.17-1.43
				c0.28,0.16,0.42,0.23,0.76,0.35c-0.06,1.09-0.14,1.44-0.41,1.67c-0.32,0.29-1.02,0.37-2.95,0.37c-2.23,0-2.63-0.12-2.63-0.83
				v-1.16H210.01z M210,19.5v1.06h2.72V19.5H210z M210,21.17v1.14h2.72v-1.14H210z M214.42,17.4c0.28-0.47,0.42-0.78,0.66-1.36
				h-3.66c0.28,0.56,0.41,0.85,0.59,1.36H214.42z M213.44,20.55h3V19.5h-3V20.55z M213.44,22.31h3v-1.14h-3V22.31z"/>
			<path d="M224.89,15.45c0-0.49-0.02-0.8-0.08-1.15h0.9c-0.06,0.36-0.08,0.67-0.08,1.15v0.16h3.6c0.61,0,0.94-0.02,1.25-0.08v0.83
				c-0.38-0.05-0.76-0.07-1.24-0.07h-3.61v1.03h2.45c0.72,0,1.04-0.01,1.36-0.07c-0.04,0.38-0.05,0.59-0.05,1.26v1.88
				c0,0.68,0.01,0.89,0.05,1.27c-0.3-0.05-0.66-0.07-1.37-0.07h-2.44v1.07h3.73c0.61,0,0.95-0.02,1.25-0.08v0.84
				c-0.37-0.05-0.74-0.07-1.25-0.07h-3.73v0.58c0,0.66,0.01,0.94,0.08,1.32h-0.9c0.07-0.42,0.08-0.7,0.08-1.32v-0.58h-3.55
				c-0.5,0-0.9,0.02-1.22,0.07v-0.84c0.31,0.06,0.65,0.08,1.22,0.08h3.55v-1.07h-2.23c-0.72,0-1.09,0.02-1.39,0.07
				c0.04-0.37,0.05-0.59,0.05-1.27v-1.85c0-0.7-0.01-0.91-0.05-1.3c0.3,0.06,0.64,0.07,1.33,0.07h2.29v-1.03h-3.47
				c-0.48,0-0.86,0.02-1.21,0.07v-0.83c0.34,0.06,0.68,0.08,1.22,0.08h3.46V15.45z M222.05,17.96v1.15h2.83v-1.15H222.05z
				 M222.05,19.76v1.18h2.83v-1.18H222.05z M228.63,19.11v-1.15h-3.01v1.15H228.63z M228.63,20.94v-1.18h-3.01v1.18H228.63z"/>
			<path d="M231.57,25.76c0.84-1.19,1.5-2.74,1.5-4.9c0-2.16-0.65-3.68-1.5-4.88h0.82c0.76,0.98,1.57,2.53,1.57,4.88
				c-0.01,2.35-0.82,3.88-1.57,4.9H231.57z"/>
		</g>
	</g>
</svg>
