<?xml version="1.0" encoding="iso-8859-1"?>
<!-- Generator: Adobe Illustrator 11 Build 196, SVG Export Plug-In . SVG Version: 6.0.0 Build 78)  -->
<!DOCTYPE svg PUBLIC "-//W3C//DTD SVG 1.0//EN"    "http://www.w3.org/TR/2001/REC-SVG-20010904/DTD/svg10.dtd" [
	<!ENTITY ns_flows "http://ns.adobe.com/Flows/1.0/">
	<!ENTITY ns_svg "http://www.w3.org/2000/svg">
	<!ENTITY ns_xlink "http://www.w3.org/1999/xlink">
	<!ENTITY st0 "fill:none;stroke:#000000;stroke-width:0.5;">
	<!ENTITY st1 "fill:none;stroke:#000000;">
	<!ENTITY st2 "fill:none;stroke:#000000;stroke-width:0.75;">
]>
<svg  xmlns="&ns_svg;" xmlns:xlink="&ns_xlink;" xmlns:a="http://ns.adobe.com/AdobeSVGViewerExtensions/3.0/"
	 width="269.6" height="146.57" viewBox="0 0 269.6 146.57" style="overflow:visible;enable-background:new 0 0 269.6 146.57"
	 xml:space="preserve">
	<g id="Pfade">
		<g>
			<g>
				<path style="&st1;" d="M134.8,0.52L67.73,18.91C27.54,30.68,0.5,52.71,0.5,77.95c0,37.62,60.13,68.13,134.3,68.13
					c74.17,0,134.3-30.5,134.3-68.13c0-25.23-27.04-47.27-67.23-59.04L134.8,0.52z"/>
				<path style="&st1;" d="M206.1,21.43c35.55,11.52,59.04,31.4,59.04,54c0,35.62-58.35,64.49-130.34,64.49"/>
				<path style="&st1;" d="M199.67,19.5c36.36,10.88,60.66,30.63,60.66,53.19c0,34.31-56.2,62.12-125.53,62.12"/>
				<path style="&st1;" d="M194.64,18.05c36.38,10.29,60.89,29.68,60.89,51.9c0,32.99-54.05,59.74-120.73,59.74"/>
				<path style="&st1;" d="M201.14,20.17c29.98,10.37,49.58,27.57,49.58,47.05c0,31.68-51.9,57.36-115.92,57.36"/>
				<path style="&st1;" d="M196.36,18.69c29.88,9.86,49.56,26.68,49.56,45.78c0,30.37-49.75,54.98-111.12,54.98"/>
				<path style="&st1;" d="M192.85,17.66c29.06,9.39,48.26,25.63,48.26,44.08c0,29.05-47.6,52.61-106.32,52.61"/>
				<path style="&st1;" d="M187.6,16.09c29.21,8.82,48.71,24.74,48.71,42.91c0,27.74-45.45,50.23-101.51,50.23"/>
				<path style="&st1;" d="M183.4,14.88c28.77,8.29,48.11,23.72,48.11,41.38c0,26.43-43.3,47.85-96.71,47.85"/>
				<path style="&st1;" d="M187.56,16.28c23.67,8.23,39.15,21.84,39.15,37.24c0,25.12-41.15,45.48-91.91,45.48"/>
				<path style="&st1;" d="M184.72,15.47c22.48,7.79,37.18,20.71,37.18,35.32c0,23.8-39,43.1-87.1,43.1"/>
				<path style="&st1;" d="M182.75,14.95c20.8,7.39,34.35,19.46,34.35,33.1c0,22.49-36.84,40.72-82.3,40.72"/>
				<path style="&st1;" d="M177.71,13.38c20.85,6.87,34.59,18.61,34.59,31.94c0,21.18-34.69,38.35-77.49,38.35"/>
				<path style="&st1;" d="M171.58,11.54c21.49,6.25,35.91,17.81,35.91,31.03c0,19.86-32.54,35.97-72.69,35.97"/>
				<path style="&st1;" d="M172.23,11.81c18.35,6.01,30.46,16.32,30.46,28.03c0,18.55-30.39,33.59-67.88,33.59"/>
				<path style="&st1;" d="M169.92,11.17c16.86,5.6,27.96,15.13,27.96,25.93c0,17.24-28.24,31.21-63.08,31.21"/>
				<path style="&st1;" d="M166.46,10.15c16.02,5.14,26.62,14.06,26.62,24.21c0,15.93-26.09,28.84-58.28,28.84"/>
				<path style="&st1;" d="M166.77,10.41c13.05,4.82,21.51,12.53,21.51,21.21c0,14.61-23.94,26.46-53.47,26.46"/>
				<path style="&st1;" d="M164.53,9.82c11.52,4.4,18.95,11.31,18.95,19.07c0,13.3-21.79,24.08-48.67,24.08"/>
				<path style="&st1;" d="M162.65,9.38c9.78,3.98,16.01,10.02,16.01,16.77c0,11.99-19.64,21.71-43.86,21.71"/>
				<path style="&st1;" d="M134.8,42.74c21.57,0,39.06-8.65,39.06-19.33c0-5.95-5.42-11.26-13.96-14.81l-25.1-7.59"/>
				<path style="&st1;" d="M134.8,37.62c18.92,0,34.26-7.59,34.26-16.95c0-4.4-3.39-8.41-8.95-11.43l-25.3-8.24"/>
				<path style="&st1;" d="M134.8,32.51c16.27,0,29.45-6.52,29.45-14.57c0-4.06-3.36-7.74-8.78-10.38L134.8,1.01"/>
				<path style="&st1;" d="M150.84,5.94c5.27,2.24,8.61,5.56,8.61,9.26c0,6.74-11.04,12.2-24.65,12.2"/>
				<path style="&st1;" d="M147.94,5.1c4.12,1.8,6.71,4.43,6.71,7.36c0,5.42-8.88,9.82-19.84,9.82"/>
				<path style="&st1;" d="M143.21,3.55c4,1.34,6.63,3.6,6.63,6.17c0,4.11-6.73,7.44-15.04,7.44"/>
				<path style="&st1;" d="M139.66,2.52c3.21,0.86,5.38,2.53,5.38,4.46c0,2.8-4.58,5.06-10.24,5.06"/>
				<path style="&st1;" d="M134.8,1.56c3,0,5.43,1.2,5.43,2.69s-2.43,2.69-5.43,2.69"/>
			</g>
			<g>
				<path style="&st1;" d="M63.5,21.43c-35.55,11.52-59.04,31.4-59.04,54c0,35.62,58.35,64.49,130.34,64.49"/>
				<path style="&st1;" d="M69.93,19.5C33.57,30.38,9.27,50.13,9.27,72.69c0,34.31,56.2,62.12,125.53,62.12"/>
				<path style="&st1;" d="M74.97,18.05c-36.38,10.29-60.89,29.68-60.89,51.9c0,32.99,54.05,59.74,120.73,59.74"/>
				<path style="&st1;" d="M68.46,20.17C38.48,30.54,18.88,47.74,18.88,67.21c0,31.68,51.9,57.36,115.92,57.36"/>
				<path style="&st1;" d="M73.25,18.69c-29.88,9.86-49.56,26.68-49.56,45.78c0,30.37,49.75,54.98,111.12,54.98"/>
				<path style="&st1;" d="M76.75,17.66c-29.06,9.39-48.27,25.63-48.27,44.08c0,29.05,47.6,52.61,106.32,52.61"/>
				<path style="&st1;" d="M82,16.09C52.79,24.91,33.29,40.83,33.29,59c0,27.74,45.45,50.23,101.51,50.23"/>
				<path style="&st1;" d="M86.21,14.88C57.43,23.17,38.09,38.6,38.09,56.26c0,26.43,43.3,47.85,96.71,47.85"/>
				<path style="&st1;" d="M82.04,16.28C58.37,24.51,42.9,38.12,42.9,53.53C42.9,78.64,84.04,99,134.8,99"/>
				<path style="&st1;" d="M84.88,15.47C62.4,23.26,47.7,36.17,47.7,50.79c0,23.8,39,43.1,87.1,43.1"/>
				<path style="&st1;" d="M86.85,14.95c-20.8,7.39-34.35,19.46-34.35,33.1c0,22.49,36.84,40.72,82.3,40.72"/>
				<path style="&st1;" d="M91.9,13.38c-20.85,6.87-34.59,18.61-34.59,31.94c0,21.18,34.69,38.35,77.49,38.35"/>
				<path style="&st1;" d="M98.03,11.54c-21.49,6.25-35.91,17.81-35.91,31.03c0,19.86,32.54,35.97,72.69,35.97"/>
				<path style="&st1;" d="M97.38,11.81c-18.35,6.01-30.46,16.32-30.46,28.03c0,18.55,30.39,33.59,67.88,33.59"/>
				<path style="&st1;" d="M99.68,11.17c-16.86,5.6-27.96,15.13-27.96,25.93c0,17.24,28.24,31.21,63.08,31.21"/>
				<path style="&st1;" d="M103.14,10.15c-16.02,5.14-26.62,14.06-26.62,24.21c0,15.93,26.09,28.84,58.28,28.84"/>
				<path style="&st1;" d="M102.83,10.41c-13.05,4.82-21.51,12.53-21.51,21.21c0,14.61,23.94,26.46,53.47,26.46"/>
				<path style="&st1;" d="M105.08,9.82c-11.52,4.4-18.94,11.31-18.94,19.07c0,13.3,21.79,24.08,48.67,24.08"/>
				<path style="&st1;" d="M106.95,9.38c-9.78,3.98-16.01,10.02-16.01,16.77c0,11.99,19.64,21.71,43.86,21.71"/>
				<path style="&st1;" d="M134.8,42.74c-21.57,0-39.06-8.65-39.06-19.33c0-5.95,5.43-11.26,13.96-14.81l25.1-7.59"/>
				<path style="&st1;" d="M134.8,37.62c-18.92,0-34.26-7.59-34.26-16.95c0-4.4,3.39-8.41,8.95-11.43l25.3-8.24"/>
				<path style="&st1;" d="M134.8,32.51c-16.27,0-29.45-6.52-29.45-14.57c0-4.06,3.36-7.74,8.78-10.38l20.67-6.55"/>
				<path style="&st1;" d="M118.76,5.94c-5.27,2.24-8.61,5.56-8.61,9.26c0,6.74,11.03,12.2,24.65,12.2"/>
				<path style="&st1;" d="M121.67,5.1c-4.12,1.8-6.71,4.43-6.71,7.36c0,5.42,8.88,9.82,19.84,9.82"/>
				<path style="&st1;" d="M126.39,3.55c-4,1.34-6.63,3.6-6.63,6.17c0,4.11,6.73,7.44,15.04,7.44"/>
				<path style="&st1;" d="M129.95,2.52c-3.2,0.86-5.38,2.53-5.38,4.46c0,2.8,4.58,5.06,10.24,5.06"/>
				<path style="&st1;" d="M134.8,1.56c-3,0-5.43,1.2-5.43,2.69s2.43,2.69,5.43,2.69"/>
			</g>
		</g>
		<g>
			<line style="&st2;" x1="134.8" y1="3.77" x2="134.8" y2="139.92"/>
			<line style="&st2;" x1="134.8" y1="3.77" x2="217.84" y2="125.14"/>
			<line style="&st2;" x1="134.8" y1="3.77" x2="199.57" y2="131.41"/>
			<line style="&st2;" x1="134.8" y1="3.77" x2="194.98" y2="132.65"/>
			<line style="&st2;" x1="134.8" y1="3.77" x2="189.46" y2="133.99"/>
			<line style="&st2;" x1="134.8" y1="3.77" x2="184.69" y2="135.03"/>
			<line style="&st2;" x1="134.8" y1="3.77" x2="166.29" y2="138.02"/>
			<line style="&st2;" x1="134.8" y1="3.77" x2="159.2" y2="138.79"/>
			<line style="&st2;" x1="134.8" y1="3.77" x2="138.71" y2="139.89"/>
			<line style="&st2;" x1="134.8" y1="3.77" x2="144.26" y2="139.64"/>
			<line style="&st2;" x1="134.8" y1="3.77" x2="180.3" y2="135.88"/>
			<line style="&st2;" x1="135.41" y1="3.74" x2="264.87" y2="71.27"/>
			<line style="&st2;" x1="135.41" y1="3.74" x2="265.03" y2="78.14"/>
			<line style="&st2;" x1="135.41" y1="3.74" x2="264.44" y2="82.14"/>
			<line style="&st2;" x1="135.41" y1="3.74" x2="258.48" y2="95.84"/>
			<line style="&st2;" x1="135.41" y1="3.74" x2="255.91" y2="99.3"/>
			<line style="&st2;" x1="135.41" y1="3.74" x2="251.13" y2="104.55"/>
			<line style="&st2;" x1="135.41" y1="3.74" x2="242.91" y2="111.46"/>
			<line style="&st2;" x1="135.41" y1="3.74" x2="238.53" y2="114.48"/>
			<line style="&st2;" x1="135.41" y1="3.74" x2="234.96" y2="116.7"/>
			<line style="&st2;" x1="135.41" y1="3.74" x2="223.42" y2="122.72"/>
			<line style="&st2;" x1="135.41" y1="3.74" x2="257.12" y2="53.1"/>
			<line style="&st2;" x1="135.41" y1="3.74" x2="260.95" y2="59.15"/>
			<line style="&st2;" x1="135.41" y1="3.74" x2="263.54" y2="65.31"/>
			<line style="&st2;" x1="134.8" y1="3.77" x2="134.8" y2="1.56"/>
			<line style="&st2;" x1="134.8" y1="3.77" x2="227.77" y2="30.23"/>
			<line style="&st2;" x1="134.8" y1="3.77" x2="231.37" y2="32.11"/>
			<line style="&st2;" x1="134.8" y1="3.77" x2="243.54" y2="39.86"/>
			<line style="&st2;" x1="134.8" y1="3.77" x2="145.92" y2="4.29"/>
			<line style="&st2;" x1="134.8" y1="3.77" x2="141.22" y2="2.91"/>
			<line style="&st2;" x1="134.8" y1="3.77" x2="138.17" y2="2.63"/>
			<line style="&st2;" x1="134.8" y1="3.77" x2="137.07" y2="1.8"/>
			<line style="&st2;" x1="135.41" y1="3.74" x2="173.88" y2="12.04"/>
			<line style="&st2;" x1="135.41" y1="3.74" x2="154.51" y2="6.51"/>
			<line style="&st2;" x1="134.8" y1="3.77" x2="51.76" y2="125.14"/>
			<line style="&st2;" x1="134.8" y1="3.77" x2="70.03" y2="131.41"/>
			<line style="&st2;" x1="134.8" y1="3.77" x2="74.63" y2="132.65"/>
			<line style="&st2;" x1="134.8" y1="3.77" x2="80.14" y2="133.99"/>
			<line style="&st2;" x1="134.8" y1="3.77" x2="84.91" y2="135.03"/>
			<line style="&st2;" x1="134.8" y1="3.77" x2="103.32" y2="138.02"/>
			<line style="&st2;" x1="134.8" y1="3.77" x2="110.41" y2="138.79"/>
			<line style="&st2;" x1="134.8" y1="3.77" x2="130.89" y2="139.89"/>
			<line style="&st2;" x1="134.8" y1="3.77" x2="125.34" y2="139.64"/>
			<line style="&st2;" x1="134.8" y1="3.77" x2="89.3" y2="135.88"/>
			<line style="&st2;" x1="134.2" y1="3.74" x2="4.73" y2="71.27"/>
			<line style="&st2;" x1="134.2" y1="3.74" x2="4.58" y2="78.14"/>
			<line style="&st2;" x1="134.2" y1="3.74" x2="5.16" y2="82.14"/>
			<line style="&st2;" x1="134.2" y1="3.74" x2="11.13" y2="95.84"/>
			<line style="&st2;" x1="134.2" y1="3.74" x2="13.69" y2="99.3"/>
			<line style="&st2;" x1="134.2" y1="3.74" x2="18.48" y2="104.55"/>
			<line style="&st2;" x1="134.2" y1="3.74" x2="26.69" y2="111.46"/>
			<line style="&st2;" x1="134.2" y1="3.74" x2="31.07" y2="114.48"/>
			<line style="&st2;" x1="134.2" y1="3.74" x2="34.64" y2="116.7"/>
			<line style="&st2;" x1="134.2" y1="3.74" x2="46.19" y2="122.72"/>
			<line style="&st2;" x1="134.2" y1="3.74" x2="12.48" y2="53.1"/>
			<line style="&st2;" x1="134.2" y1="3.74" x2="8.65" y2="59.15"/>
			<line style="&st2;" x1="134.2" y1="3.74" x2="6.06" y2="65.31"/>
			<line style="&st2;" x1="134.8" y1="3.77" x2="134.8" y2="1.56"/>
			<line style="&st2;" x1="134.8" y1="3.77" x2="41.83" y2="30.23"/>
			<line style="&st2;" x1="134.8" y1="3.77" x2="38.23" y2="32.11"/>
			<line style="&st2;" x1="134.8" y1="3.77" x2="26.06" y2="39.86"/>
			<line style="&st2;" x1="134.8" y1="3.77" x2="123.68" y2="4.29"/>
			<line style="&st2;" x1="134.8" y1="3.77" x2="128.38" y2="2.91"/>
			<line style="&st2;" x1="134.8" y1="3.77" x2="131.43" y2="2.63"/>
			<line style="&st2;" x1="134.8" y1="3.77" x2="132.54" y2="1.8"/>
			<line style="&st2;" x1="134.2" y1="3.74" x2="95.72" y2="12.04"/>
			<line style="&st2;" x1="134.2" y1="3.74" x2="115.1" y2="6.51"/>
		</g>
		<path style="&st0;" d="M68.61,18.58C28.95,30.15,2,51.8,2,76.59c0,36.96,59.59,67.43,132.8,67.43s132.8-30.47,132.8-67.43
			c0-24.79-26.94-46.44-66.6-58"/>
	</g>
</svg>
