<?xml version="1.0" encoding="iso-8859-1"?>
<!-- Generator: Adobe Illustrator 11 Build 196, SVG Export Plug-In . SVG Version: 6.0.0 Build 78)  -->
<!DOCTYPE svg PUBLIC "-//W3C//DTD SVG 1.0//EN"    "http://www.w3.org/TR/2001/REC-SVG-20010904/DTD/svg10.dtd" [
	<!ENTITY ns_flows "http://ns.adobe.com/Flows/1.0/">
	<!ENTITY ns_svg "http://www.w3.org/2000/svg">
	<!ENTITY ns_xlink "http://www.w3.org/1999/xlink">
	<!ENTITY st0 "fill:#111111;">
]>
<svg  xmlns="&ns_svg;" xmlns:xlink="&ns_xlink;" xmlns:a="http://ns.adobe.com/AdobeSVGViewerExtensions/3.0/"
	 width="190.25" height="188.32" viewBox="0 0 190.25 188.32" style="overflow:visible;enable-background:new 0 0 190.25 188.32"
	 xml:space="preserve">
	<g id="&#xC9;&#xE5;&#xC9;C&#xC9;&#xD1;&#xC5;_x5B__x5F_2">
		<g>
			<path style="&st0;" d="M42.2,59.02l6.26-8.94C53.82,19.24,69.91,6.72,81.53,0.02c-13.41-0.45-25.48,7.6-33.53,12.07
				C38.17,32.65,42.2,59.02,42.2,59.02z"/>
			<path style="&st0;" d="M45.68,12.89c-8.94,6.26-15.56,13.5-15.56,13.5c-1.79,15.65,3.13,41.12,7.15,41.57
				c0.45,0,3.58-2.24,3.58-2.24C35.49,42.04,45.68,12.89,45.68,12.89z"/>
			<path style="&st0;" d="M27,28.18c-4.92,4.47-12.07,15.2-12.07,16.99c2.68,12.96,12.52,33.53,21.01,36.66
				c-0.45-3.58,0.89-8.94,0.89-8.94C27.45,60.36,27,28.18,27,28.18z"/>
			<path style="&st0;" d="M12.25,46.95c-4.47,6.71-6.71,15.2-5.81,16.54c5.81,12.52,21.9,29.95,25.93,30.4
				c-0.45-3.58,0.89-8.49,0.89-8.49C21.19,73.33,12.25,46.95,12.25,46.95z"/>
			<path style="&st0;" d="M3.31,63.94C0.18,74.67,1.52,83.61,1.52,83.61c10.28,12.51,26.83,23.25,29.5,23.69
				c0.45-4.02,2.23-7.6,2.23-7.6C22.98,92.55,6.44,71.09,3.31,63.94z"/>
			<path style="&st0;" d="M0,86.38c0.45,8.94,2.86,20.47,2.86,20.47c12.96,10.28,28.61,13.86,31.74,13.86
				c0-2.23,2.23-6.35,2.23-6.35C18.95,105.27,0,86.38,0,86.38z"/>
			<path style="&st0;" d="M0.48,108.79c0,0,4.77,16.09,8.05,19.37c7.45,3.28,30.99,8.05,33.67,6.26c0.3-3.28-0.3-5.96-0.3-5.96
				l-5.07-4.47C28.19,124.58,1.97,110.28,0.48,108.79z"/>
			<path style="&st0;" d="M7.63,130.25c2.68,8.05,11.92,18.18,17.28,16.69c5.36,0.3,27.12,0.6,28.61-0.89
				c0.6-0.3,0.6-1.49-1.79-1.79c0-1.19,0.3-4.47,0.3-4.47c-3.87,0.89-7.45-2.38-7.45-2.38C30.87,138.29,9.72,131.14,7.63,130.25z"/>
			<path style="&st0;" d="M20.74,149.91c4.47,4.47,13.11,11.92,15.2,11.92c6.26,0,26.52-4.47,32.48-8.34
				c-4.47,0.3-8.34-5.66-8.34-5.66C49.65,150.81,24.02,151.1,20.74,149.91z"/>
			<path style="&st0;" d="M33.85,165.11c6.86,5.36,14.3,6.56,15.2,6.86c0.89,0.3,6.26,0.89,8.05-0.3
				c1.79-1.19,17.58-7.75,19.37-10.73c1.79-2.98,2.68-7.45,2.68-7.45h-6.56C65.74,159.75,38.02,165.41,33.85,165.11z"/>
			<path style="&st0;" d="M74.38,166.01c-0.08-2.08-9.53,5.06-11.92,5.66c-2.39,0.6-11.03,3.87-11.03,3.87
				C59.78,180.31,74.98,182.7,74.38,166.01z"/>
			<path style="&st0;" d="M68.12,13.13c6.85-2.68,18.18-7.75,20.86-7.75c0.3-1.79-4.47-5.36-7.75-3.28
				c-3.28,2.09-13.11,10.43-13.11,10.43"/>
			<path style="&st0;" d="M47.56,56.34c-2.46,2.46-5.36,11.62-3.35,15.65s6.93,8.49,8.05,8.49c1.12,0,1.12-4.47,0.45-6.04
				C49.8,70.64,47.56,56.34,47.56,56.34z"/>
			<path style="&st0;" d="M41.08,69.3c-2.01,3.58-3.58,12.96-0.45,15.87c3.13,2.91,11.4,9.83,13.86,9.61
				c0.45-1.79,0.45-4.92-1.79-6.48c-0.89-1.56-0.67-3.58-0.67-3.58C45.33,81.6,40.19,70.64,41.08,69.3z"/>
			<path style="&st0;" d="M37.95,84.95c0-1.79-5.14,10.06-0.45,13.63c4.69,3.58,13.86,8.49,15.42,8.27
				c-0.22-3.13,0.89-6.93,2.46-6.93c0.89-1.56-0.22-2.68-1.79-2.46C47.79,96.57,37.95,86.07,37.95,84.95z"/>
			<path style="&st0;" d="M36.16,100.37c-2.46,2.01-2.23,8.49-0.89,9.16c1.34,0.67,13.41,8.27,16.32,7.15
				c-0.67-2.46-0.22-6.71,0.45-7.38C46.22,109.31,36.61,101.04,36.16,100.37z"/>
			<path style="&st0;" d="M37.5,120.04c0.45,3.58,4.47,5.59,6.26,6.48c1.79,0.89,13.19,2.46,13.86,2.46
				c-2.91-3.35-1.34-6.48-1.34-8.05c-8.94,0-14.3-5.36-15.87-5.59C37.5,114.9,37.5,120.04,37.5,120.04z"/>
			<path style="&st0;" d="M47.08,129.86c-2.11,0.1-3.01,1.18-3.31,2.03c-0.76,2.1,4.02,5.81,6.93,6.26
				c2.91,0.45,10.95,0.67,11.85-0.22c0.89-0.89-0.45-5.59-3.13-6.26C57.65,131.22,52.03,131.66,47.08,129.86z"/>
			<path style="&st0;" d="M54.27,141.05c0,2.46,1.79,3.8,3.13,4.25s7.82,1.12,8.94-0.22c1.12-1.34-2.68-3.35-2.68-4.69
				C60.75,141.27,54.27,141.05,54.27,141.05z"/>
			<path style="&st0;" d="M69.06,150.44c0.88-0.14-0.04-3.58-1.38-3.58s-4.69-0.22-4.69,0.67
				C62.98,148.42,66.16,150.88,69.06,150.44z"/>
			<path style="&st0;" d="M60.12,86.53c-4.52-7.62-4.74-6.5-4.74-6.5c-1.79,0-1.34,8.27,0.22,9.61s5.81,2.68,8.27,2.01
				C66.78,91.21,62.72,89.5,60.12,86.53z"/>
			<path style="&st0;" d="M62.76,94.11c-1.12,0.45-5.1-1.12-6.21-1.12c-0.45,3.8,4.2,10.06,9.34,8.94c1.79-0.67,0-4.02-0.89-4.25
				C64.1,97.47,62.76,94.11,62.76,94.11z"/>
			<path style="&st0;" d="M55.83,101.49c0.22,5.59,4.25,9.61,8.05,8.49c-3.8-4.02-5.36-8.27-5.36-8.27L55.83,101.49z"/>
			<path style="&st0;" d="M54.94,109.31c-0.89,3.35-0.45,7.82,2.68,7.82c1.12-0.22,0.45-5.36,0.45-5.36L54.94,109.31z"/>
			<path style="&st0;" d="M58.74,121.38c-0.45,4.92,3.35,11.62,8.05,11.4c0.45-2.46-0.89-5.36-1.12-6.26
				C62.54,126.74,58.74,121.38,58.74,121.38z"/>
			<path style="&st0;" d="M63.65,135.46c1.34,4.69,7.15,7.82,11.18,6.93c1.34-0.45,0.22-1.79,0.22-1.79s-4.47-3.13-4.92-5.59
				C68.35,134.79,63.65,135.46,63.65,135.46z"/>
			<path style="&st0;" d="M69.46,145.74c0,0,2.91,5.14,5.36,5.59c2.46,0.45,6.48,0.67,6.48-0.45s-4.02-5.14-5.14-5.36
				C75.05,145.29,69.46,145.74,69.46,145.74z"/>
			<path style="&st0;" d="M63.21,122.94c2.46,2.24,6.71,2.91,7.82,2.24c1.12-0.67-8.49-9.39-9.83-9.16
				C58.74,116.24,63.21,122.94,63.21,122.94z"/>
			<path style="&st0;" d="M67.9,112.22c0,0-5.59,0.04-5.59,1.16c0,1.79,6.48,3.98,8.49,2.86C71.25,114.9,67.9,112.22,67.9,112.22z"
				/>
			<path style="&st0;" d="M62.09,104.39c0,1.12,3.58,3.35,4.47,3.8c1.56,1.12,4.02,0.89,4.25-0.22c0.22-1.12-2.01-4.69-2.01-4.69
				S62.09,103.28,62.09,104.39z"/>
			<path style="&st0;" d="M67.45,97.24c-0.45,2.46,5.59,4.02,8.49,4.02c2.91,0,6.26-2.23,6.03-3.58c-0.22-1.34-4.02-3.35-4.92-3.35
				C75.5,96.57,71.48,97.47,67.45,97.24z"/>
			<path style="&st0;" d="M71.48,103.72c0,3.13,10.28,7.15,10.5,4.47c-1.34-2.68-1.34-5.14-2.46-5.14
				C78.41,103.05,71.48,103.72,71.48,103.72z"/>
			<path style="&st0;" d="M73.78,110.24c-1.71,0.28-2.76,1.3-2.76,1.3c1.34,2.46,7.15,5.36,10.28,4.02
				c-0.22-1.56-1.34-3.8-1.34-4.92C78.97,110.28,75.95,109.88,73.78,110.24z"/>
			<path style="&st0;" d="M69.06,119.46c0.5,1.01,1.78,2.71,3.67,3.4c2.3,0.83,5.32,0.48,6.8-0.13c1.12-1.34,0-4.25-1.56-4.69
				S69.06,119.46,69.06,119.46z"/>
			<path style="&st0;" d="M67.9,127.64c1.56,5.14,3.13,4.69,4.25,5.81c1.12,1.12,8.05,2.01,8.05,0s-6.04-4.47-6.93-6.71
				C71.92,126.3,67.9,127.64,67.9,127.64z"/>
			<path style="&st0;" d="M81.19,125.66c-2.23,0.48-5.1,0.13-5.24,0.86c3.58,4.69,9.39,4.92,12.29,3.13
				c0.89-0.67-2.68-5.81-4.47-5.59C83.14,124.14,82.39,125.4,81.19,125.66z"/>
			<path style="&st0;" d="M75.28,137.47c2.68,4.92,10.73,4.25,12.74,1.12c0.45-0.89-3.58-0.67-5.14-3.35
				C80.19,137.7,75.28,137.47,75.28,137.47z"/>
			<path style="&st0;" d="M78.18,143.06c2.91,4.69,9.61,8.27,12.52,4.02c0-1.56-4.47-4.25-5.14-4.25S78.18,143.06,78.18,143.06z"/>
			<path style="&st0;" d="M84.89,150.61c0,2.01,4.92,5.19,7.6,5.19s4.69-1.12,4.69-2.68s-2.23-4.69-3.8-5.14
				C92.93,151.11,84.89,150.61,84.89,150.61z"/>
			<path style="&st0;" d="M83.77,97.24c0,0-0.45,2.46-0.22,3.35c3.58,2.23,12.29,0.89,12.52-5.36c-1.12-0.22-4.25,2.01-6.48,2.24
				C87.35,97.69,83.77,97.24,83.77,97.24z"/>
			<path style="&st0;" d="M81.76,102.16c0.67,4.02,3.8,6.48,6.03,6.93c2.24,0.45,7.38,0,8.05-1.12c0.67-1.12,0-4.25-1.56-4.47
				c-1.56-0.22-7.15,0.22-8.72-0.67C83.99,101.93,81.76,102.16,81.76,102.16z"/>
			<path style="&st0;" d="M81.98,110.21c-0.22,1.34,2.46,4.47,3.58,4.69s7.6,1.56,7.6,0.22s0-4.02-1.56-4.02s-6.03-1.34-7.15-1.56
				C83.32,109.31,81.98,110.21,81.98,110.21z"/>
			<path style="&st0;" d="M102.1,118.25c0,0-5.36-3.13-6.71-2.68c-1.34,0.45-3.35,1.34-3.35,2.68s3.58,3.13,5.59,3.13
				c2.01,0,3.58-0.22,4.25-1.34C102.54,118.92,102.1,118.25,102.1,118.25z"/>
			<path style="&st0;" d="M67.01,93.44c0.45,0.67,2.68,2.91,3.58,2.01c0.89-0.89,0.22-1.79,0.22-1.79L67.01,93.44z"/>
			<path style="&st0;" d="M80.64,118.47c2.46,2.91,7.15,4.69,8.94,4.25c1.79-0.45-2.23-6.48-4.92-6.48S80.64,118.47,80.64,118.47z"
				/>
			<path style="&st0;" d="M83.77,132.56c-0.45,1.12,1.79,3.35,3.35,3.58c1.56,0.22,6.53,1.92,8.31,0.58
				c0.89-0.67-1.44-2.43-1.81-3.63c-0.36-1.2,0.53-2.21-0.7-2.1C91.59,130.99,83.77,132.56,83.77,132.56z"/>
			<path style="&st0;" d="M88.69,141.94c2.68,3.13,9.61,4.47,12.96,1.56c-2.91-2.01-2.23-5.36-3.58-5.59
				c-1.34-0.22-5.36,0.22-6.71,1.12S88.69,141.94,88.69,141.94z"/>
			<path style="&st0;" d="M89.36,125.18c2.01,3.35,9.61,7.38,12.07,2.91c0.67-2.01-2.24-4.69-3.35-4.92s-4.02-1.12-4.92,0.22
				C92.26,124.73,89.36,125.18,89.36,125.18z"/>
			<path style="&st0;" d="M94.72,111.99c0.41,2.07,9.16,4.92,12.07,2.91c2.91-2.01,1.79-3.8-0.45-4.47
				c-2.23-0.67-5.14-1.34-7.38-1.34C96.73,109.09,94.5,110.88,94.72,111.99z"/>
			<path style="&st0;" d="M97.4,104.62c0,1.56,6.03,4.02,8.49,3.35c2.46-0.67,3.13-2.01,2.24-3.35c-0.89-1.34-2.01-2.24-3.8-1.79
				C102.32,104.62,97.4,104.62,97.4,104.62z"/>
			<path style="&st0;" d="M96.06,100.15c1.34-1.12,1.56-4.25,2.01-5.36s6.26,2.46,8.27,1.12c1.56,1.79-1.34,5.14-2.91,5.36
				S96.06,103.05,96.06,100.15z"/>
			<path style="&st0;" d="M148.05,59.02l-6.26-8.94c-5.36-30.84-21.46-43.36-33.08-50.06c13.41-0.45,25.48,7.6,33.53,12.07
				C152.07,32.65,148.05,59.02,148.05,59.02z"/>
			<path style="&st0;" d="M144.56,12.89c8.94,6.26,15.56,13.5,15.56,13.5c1.79,15.65-3.13,41.12-7.15,41.57
				c-0.45,0-3.58-2.24-3.58-2.24C154.76,42.04,144.56,12.89,144.56,12.89z"/>
			<path style="&st0;" d="M163.25,28.18c4.92,4.47,12.07,15.2,12.07,16.99c-2.68,12.96-12.52,33.53-21.01,36.66
				c0.45-3.58-0.89-8.94-0.89-8.94C162.8,60.36,163.25,28.18,163.25,28.18z"/>
			<path style="&st0;" d="M178,46.95c4.47,6.71,6.71,15.2,5.81,16.54c-5.81,12.52-21.9,29.95-25.93,30.4
				c0.45-3.58-0.89-8.49-0.89-8.49C169.06,73.33,178,46.95,178,46.95z"/>
			<path style="&st0;" d="M186.94,63.94c3.13,10.73,1.79,19.67,1.79,19.67c-10.28,12.51-26.83,23.25-29.5,23.69
				c-0.45-4.02-2.23-7.6-2.23-7.6C167.27,92.55,183.81,71.09,186.94,63.94z"/>
			<path style="&st0;" d="M190.25,86.38c-0.45,8.94-2.86,20.47-2.86,20.47c-12.96,10.28-28.61,13.86-31.74,13.86
				c0-2.23-2.24-6.35-2.24-6.35C171.3,105.27,190.25,86.38,190.25,86.38z"/>
			<path style="&st0;" d="M189.77,108.79c0,0-4.77,16.09-8.04,19.37c-7.45,3.28-30.99,8.05-33.67,6.26c-0.3-3.28,0.3-5.96,0.3-5.96
				l5.07-4.47C162.06,124.58,188.28,110.28,189.77,108.79z"/>
			<path style="&st0;" d="M182.62,130.25c-2.68,8.05-11.92,18.18-17.28,16.69c-5.36,0.3-27.12,0.6-28.61-0.89
				c-0.6-0.3-0.6-1.49,1.79-1.79c0-1.19-0.3-4.47-0.3-4.47c3.87,0.89,7.45-2.38,7.45-2.38
				C159.37,138.29,180.53,131.14,182.62,130.25z"/>
			<path style="&st0;" d="M169.51,149.91c-4.47,4.47-13.11,11.92-15.2,11.92c-6.26,0-26.52-4.47-32.48-8.34
				c4.47,0.3,8.34-5.66,8.34-5.66C140.6,150.81,166.23,151.1,169.51,149.91z"/>
			<path style="&st0;" d="M156.4,165.11c-6.86,5.36-14.3,6.56-15.2,6.86s-6.26,0.89-8.05-0.3c-1.79-1.19-17.58-7.75-19.37-10.73
				c-1.79-2.98-2.68-7.45-2.68-7.45h6.56C124.51,159.75,152.22,165.41,156.4,165.11z"/>
			<path style="&st0;" d="M115.87,166.01c0.08-2.08,9.53,5.06,11.92,5.66c2.38,0.6,11.03,3.87,11.03,3.87
				C130.47,180.31,115.27,182.7,115.87,166.01z"/>
			<path style="&st0;" d="M122.12,13.13c-6.86-2.68-18.18-7.75-20.86-7.75c-0.3-1.79,4.47-5.36,7.75-3.28
				c3.28,2.09,13.11,10.43,13.11,10.43"/>
			<path style="&st0;" d="M142.69,56.34c2.46,2.46,5.36,11.62,3.35,15.65c-2.01,4.02-6.93,8.49-8.05,8.49s-1.12-4.47-0.45-6.04
				C140.45,70.64,142.69,56.34,142.69,56.34z"/>
			<path style="&st0;" d="M149.17,69.3c2.01,3.58,3.58,12.96,0.45,15.87c-3.13,2.91-11.4,9.83-13.86,9.61
				c-0.45-1.79-0.45-4.92,1.79-6.48c0.89-1.56,0.67-3.58,0.67-3.58C144.92,81.6,150.06,70.64,149.17,69.3z"/>
			<path style="&st0;" d="M152.3,84.95c0-1.79,5.14,10.06,0.45,13.63c-4.69,3.58-13.86,8.49-15.42,8.27
				c0.22-3.13-0.89-6.93-2.46-6.93c-0.89-1.56,0.22-2.68,1.79-2.46C142.46,96.57,152.3,86.07,152.3,84.95z"/>
			<path style="&st0;" d="M154.08,100.37c2.46,2.01,2.24,8.49,0.89,9.16c-1.34,0.67-13.41,8.27-16.32,7.15
				c0.67-2.46,0.22-6.71-0.45-7.38C144.03,109.31,153.64,101.04,154.08,100.37z"/>
			<path style="&st0;" d="M152.75,120.04c-0.45,3.58-4.47,5.59-6.26,6.48c-1.79,0.89-13.19,2.46-13.86,2.46
				c2.9-3.35,1.34-6.48,1.34-8.05c8.94,0,14.3-5.36,15.87-5.59C152.75,114.9,152.75,120.04,152.75,120.04z"/>
			<path style="&st0;" d="M143.17,129.86c2.11,0.1,3.01,1.18,3.31,2.03c0.76,2.1-4.02,5.81-6.93,6.26
				c-2.91,0.45-10.95,0.67-11.85-0.22c-0.89-0.89,0.45-5.59,3.13-6.26C132.6,131.22,138.22,131.66,143.17,129.86z"/>
			<path style="&st0;" d="M135.98,141.05c0,2.46-1.79,3.8-3.13,4.25c-1.34,0.45-7.82,1.12-8.94-0.22c-1.12-1.34,2.68-3.35,2.68-4.69
				C129.5,141.27,135.98,141.05,135.98,141.05z"/>
			<path style="&st0;" d="M121.19,150.44c-0.88-0.14,0.04-3.58,1.38-3.58s4.69-0.22,4.69,0.67
				C127.26,148.42,124.09,150.88,121.19,150.44z"/>
			<path style="&st0;" d="M130.13,86.53c4.51-7.62,4.74-6.5,4.74-6.5c1.79,0,1.34,8.27-0.22,9.61s-5.81,2.68-8.27,2.01
				C123.47,91.21,127.53,89.5,130.13,86.53z"/>
			<path style="&st0;" d="M127.49,94.11c1.12,0.45,5.1-1.12,6.21-1.12c0.45,3.8-4.2,10.06-9.34,8.94c-1.79-0.67,0-4.02,0.89-4.25
				C126.15,97.47,127.49,94.11,127.49,94.11z"/>
			<path style="&st0;" d="M134.42,101.49c-0.22,5.59-4.25,9.61-8.04,8.49c3.8-4.02,5.36-8.27,5.36-8.27L134.42,101.49z"/>
			<path style="&st0;" d="M135.31,109.31c0.89,3.35,0.45,7.82-2.68,7.82c-1.12-0.22-0.45-5.36-0.45-5.36L135.31,109.31z"/>
			<path style="&st0;" d="M131.51,121.38c0.45,4.92-3.35,11.62-8.05,11.4c-0.45-2.46,0.89-5.36,1.12-6.26
				C127.71,126.74,131.51,121.38,131.51,121.38z"/>
			<path style="&st0;" d="M126.59,135.46c-1.34,4.69-7.15,7.82-11.18,6.93c-1.34-0.45-0.22-1.79-0.22-1.79s4.47-3.13,4.92-5.59
				C121.9,134.79,126.59,135.46,126.59,135.46z"/>
			<path style="&st0;" d="M120.78,145.74c0,0-2.91,5.14-5.36,5.59c-2.46,0.45-6.48,0.67-6.48-0.45s4.02-5.14,5.14-5.36
				C115.2,145.29,120.78,145.74,120.78,145.74z"/>
			<path style="&st0;" d="M127.04,122.94c-2.46,2.24-6.71,2.91-7.82,2.24s8.49-9.39,9.83-9.16
				C131.51,116.24,127.04,122.94,127.04,122.94z"/>
			<path style="&st0;" d="M122.35,112.22c0,0,5.59,0.04,5.59,1.16c0,1.79-6.48,3.98-8.49,2.86
				C119,114.9,122.35,112.22,122.35,112.22z"/>
			<path style="&st0;" d="M128.16,104.39c0,1.12-3.58,3.35-4.47,3.8c-1.56,1.12-4.02,0.89-4.25-0.22c-0.22-1.12,2.01-4.69,2.01-4.69
				S128.16,103.28,128.16,104.39z"/>
			<path style="&st0;" d="M122.79,97.24c0.45,2.46-5.59,4.02-8.49,4.02c-2.91,0-6.26-2.23-6.03-3.58c0.22-1.34,4.02-3.35,4.92-3.35
				C114.75,96.57,118.77,97.47,122.79,97.24z"/>
			<path style="&st0;" d="M118.77,103.72c0,3.13-10.28,7.15-10.5,4.47c1.34-2.68,1.34-5.14,2.46-5.14S118.77,103.72,118.77,103.72z"
				/>
			<path style="&st0;" d="M116.46,110.24c1.71,0.28,2.75,1.3,2.75,1.3c-1.34,2.46-7.15,5.36-10.28,4.02
				c0.22-1.56,1.34-3.8,1.34-4.92C111.28,110.28,114.3,109.88,116.46,110.24z"/>
			<path style="&st0;" d="M121.19,119.46c-0.5,1.01-1.78,2.71-3.67,3.4c-2.3,0.83-5.32,0.48-6.8-0.13c-1.12-1.34,0-4.25,1.56-4.69
				S121.19,119.46,121.19,119.46z"/>
			<path style="&st0;" d="M122.35,127.64c-1.56,5.14-3.13,4.69-4.25,5.81c-1.12,1.12-8.04,2.01-8.04,0s6.03-4.47,6.93-6.71
				C118.33,126.3,122.35,127.64,122.35,127.64z"/>
			<path style="&st0;" d="M109.06,125.66c2.23,0.48,5.1,0.13,5.24,0.86c-3.58,4.69-9.39,4.92-12.29,3.13
				c-0.89-0.67,2.68-5.81,4.47-5.59C107.1,124.14,107.86,125.4,109.06,125.66z"/>
			<path style="&st0;" d="M114.97,137.47c-2.68,4.92-10.73,4.25-12.74,1.12c-0.45-0.89,3.58-0.67,5.14-3.35
				C110.06,137.7,114.97,137.47,114.97,137.47z"/>
			<path style="&st0;" d="M112.07,143.06c-2.13,3.44-8.09,7.33-11.31,6.93c-1.17-0.15-2.8-0.66-3.58-1.79c0-0.7,2.79-1.12,4.35-2.17
				c1.95-1.31,2.79-3.19,3.16-3.19C105.36,142.84,112.07,143.06,112.07,143.06z"/>
			<path style="&st0;" d="M123.24,93.44c-0.45,0.67-2.68,2.91-3.58,2.01c-0.89-0.89-0.22-1.79-0.22-1.79L123.24,93.44z"/>
			<path style="&st0;" d="M109.61,118.47c-2.46,2.91-4.65,6.12-6.43,5.68c-1.79-0.45-0.27-7.91,2.41-7.91
				C108.27,116.24,109.61,118.47,109.61,118.47z"/>
			<path style="&st0;" d="M108.62,132.56c0.45,1.12-1.79,3.35-3.35,3.58c-1.56,0.22-6.53,1.92-8.31,0.58
				c-0.89-0.67,1.44-2.43,1.81-3.63c0.36-1.2-0.53-2.21,0.7-2.1C100.8,130.99,108.62,132.56,108.62,132.56z"/>
			<path style="&st0;" d="M99.28,152.27c-0.22,1.56,4.29,3.98,6.75,4.2c2.46,0.22,2.68,0.22,3.8-1.79
				c-1.12-2.01-0.89-0.89-2.01-2.01C106.7,151.55,99.28,152.27,99.28,152.27z"/>
			<path style="&st0;" d="M74.61,54.33c-2.24,1.12-5.59,3.35-5.59,3.35s5.59,0.45,7.38-0.89C78.18,55.45,74.61,54.33,74.61,54.33z"
				/>
			<path style="&st0;" d="M71.92,60.36c1.56,1.56,5.36,1.56,6.26,1.12c0.89-0.45,0.89-2.68-0.67-2.46
				C75.95,59.25,71.92,60.36,71.92,60.36z"/>
			<g>
				<path style="&st0;" d="M124.67,87.18c-0.89-1.34-8.72-9.61-10.06-16.09c-1.34-6.48,2.01-9.61,1.56-18.1
					c-0.45-8.49-6.26-18.1-18.33-18.1c-12.07,0-21.23,12.52-21.9,16.99c0,2.46,3.35,4.02,4.02,4.02c0.67,0,1.79,2.46,1.34,3.8
					c-0.45,1.34-2.24,2.91,1.56,7.15c0,3.35,1.34,8.72,2.68,9.83c0.45,3.58,0,11.17-1.12,11.17c-1.12,0,0-8.05-1.79-8.49
					s-11.4,8.94-11.17,12.07c0.22,1.79,1.34,2.68,2.68,2.68c1.34-1.79,1.12-2.01,2.46-2.01c1.34,0,4.02,3.13,9.83,3.13
					c5.81,0,8.49-3.58,9.61-3.58c1.12,0,4.47,2.46,9.16,2.46s6.71-3.58,8.05-4.47c1.34-0.89,7.38,2.91,10.28,1.12
					C126.46,88.97,125.56,88.53,124.67,87.18z M86.23,49.86c-1.79,0-2.68,2.01-3.58,0.67c0,0,0.45-3.58,4.69-4.02
					c7.38-0.22,11.18-2.68,11.62-3.35s0.89-1.12,3.35-1.12c2.46,0,3.58,2.46-0.22,2.46c0,0,0,5.36-5.59,7.15
					C90.92,53.44,88.02,49.86,86.23,49.86z M107.68,54.33c-3.8,2.23-10.06,12.96-11.18,15.87s-2.01,4.25-3.8,3.35
					c-1.79-0.89,0.67-8.27,1.34-9.16c0.67-0.89,3.58-5.36,1.56-4.69c-2.91,0.89-7.82,2.24-8.05-0.45c0,0,0.67-2.01,2.91-2.46
					c4.47,0.89,12.52-3.58,14.98-4.92C107.91,50.53,109.25,53.44,107.68,54.33z"/>
			</g>
			<path style="&st0;" d="M83.1,153.12c-4.92,4.69-10.95,29.5-6.71,31.74c1.34,1.79,0.89,1.79,2.01,1.79c1.12,0,2.46-0.45,2.91-1.56
				c-1.12-11.18,2.46-27.27,4.69-28.39C86.9,156.02,83.1,153.12,83.1,153.12z"/>
			<path style="&st0;" d="M87.57,156.69c-3.35,6.71-6.03,29.28-2.01,30.17c2.23,0.89,2.23,0.67,3.58-1.12
				c1.34-1.79-0.22-5.14-0.22-8.05s0.67-11.85,1.56-13.86c0.89-2.01,1.34-4.47,0.45-5.81C90.03,156.69,87.57,156.69,87.57,156.69z"
				/>
			<path style="&st0;" d="M93.16,158.26c-1.34,1.79-2.46,27.27,0,28.39c2.46,1.12,0.89,2.46,2.46,1.12
				c1.56-1.34,2.46-3.13,1.12-6.71s0-20.79,0.22-22.35C97.18,157.14,93.16,158.26,93.16,158.26z"/>
			<path style="&st0;" d="M98.74,157.14c-0.45,3.8-0.45,22.8-0.45,22.8s0.89,6.71,3.58,7.15c2.68,0.45,3.8-2.91,3.8-5.81
				c0-2.91-0.45-19.67-1.79-21.68C102.54,157.59,99.19,154.46,98.74,157.14z"/>
			<path style="&st0;" d="M106.57,160.49c-0.22,2.24,1.34,8.94,1.34,13.41s-1.79,10.95-1.56,12.29c0.22,1.34,2.24,2.68,4.02,0.67
				c1.79-2.01,2.23-4.69,2.23-6.93c0-2.23,0.22-15.2-1.34-18.1C109.25,156.25,106.57,160.49,106.57,160.49z"/>
			<path style="&st0;" d="M72.37,178.15c0,0,1.34,4.02,0.45,3.8c-0.89-0.22-3.8,0.89-5.36-0.89
				C68.35,179.49,72.37,178.15,72.37,178.15z"/>
			<path style="&st0;" d="M114.61,177.93c-0.45,2.91-0.22,6.03-0.45,7.38c-0.22,1.34,3.13,2.46,4.47-0.67
				c1.34-3.13,1.34-5.14,0.22-6.04c-1.12-0.89-2.68-2.68-3.58-2.91C114.39,175.47,114.61,177.93,114.61,177.93z"/>
		</g>
	</g>
</svg>
