<?xml version="1.0" encoding="iso-8859-1"?>
<!-- Generator: Adobe Illustrator 11 Build 196, SVG Export Plug-In . SVG Version: 6.0.0 Build 78)  -->
<!DOCTYPE svg PUBLIC "-//W3C//DTD SVG 1.0//EN"    "http://www.w3.org/TR/2001/REC-SVG-20010904/DTD/svg10.dtd" [
	<!ENTITY ns_flows "http://ns.adobe.com/Flows/1.0/">
	<!ENTITY ns_svg "http://www.w3.org/2000/svg">
	<!ENTITY ns_xlink "http://www.w3.org/1999/xlink">
	<!ENTITY st0 "fill:none;stroke:#000000;stroke-linecap:round;stroke-linejoin:round;">
]>
<svg  xmlns="&ns_svg;" xmlns:xlink="&ns_xlink;" xmlns:a="http://ns.adobe.com/AdobeSVGViewerExtensions/3.0/"
	 width="208" height="217" viewBox="0 0 208 217" style="overflow:visible;enable-background:new 0 0 208 217" xml:space="preserve"
	>
	<g id="Layer_1">
		<path style="&st0;" d="M9.5,0.5c0,18-9,18-9,36s9,18,9,36s-9,18-9,36s9,18,9,36s-9,18-9,36s9,18,9,36"/>
		<path style="&st0;" d="M18.5,0.5c0,18,9,18,9,36s-9,18-9,36s9,18,9,36s-9,18-9,36s9,18,9,36s-9,18-9,36"/>
		<path style="&st0;" d="M45.5,0.5c0,18-9,18-9,36s9,18,9,36s-9,18-9,36c0,18,9,18,9,36s-9,18-9,36s9,18,9,36"/>
		<path style="&st0;" d="M54.5,0.5c0,18,9,18,9,36s-9,18-9,36s9,18,9,36c0,18-9,18-9,36s9,18,9,36s-9,18-9,36"/>
		<path style="&st0;" d="M81.5,0.5c0,18-9,18-9,36s9,18,9,36s-9,18-9,36c0,18,9,18,9,36s-9,18-9,36s9,18,9,36"/>
		<path style="&st0;" d="M90.5,0.5c0,18,9,18,9,36s-9,18-9,36s9,18,9,36c0,18-9,18-9,36s9,18,9,36s-9,18-9,36"/>
		<path style="&st0;" d="M117.5,0.5c0,18-9,18-9,36s9,18,9,36s-9,18-9,36c0,18,9,18,9,36s-9,18-9,36s9,18,9,36"/>
		<path style="&st0;" d="M126.5,0.5c0,18,9,18,9,36s-9,18-9,36s9,18,9,36c0,18-9,18-9,36s9,18,9,36s-9,18-9,36"/>
		<path style="&st0;" d="M153.5,0.5c0,18-9,18-9,36s9,18,9,36s-9,18-9,36c0,18,9,18,9,36s-9,18-9,36s9,18,9,36"/>
		<path style="&st0;" d="M162.5,0.5c0,18,9,18,9,36s-9,18-9,36s9,18,9,36c0,18-9,18-9,36s9,18,9,36s-9,18-9,36"/>
		<path style="&st0;" d="M189.5,0.5c0,18-9,18-9,36s9,18,9,36s-9,18-9,36c0,18,9,18,9,36s-9,18-9,36s9,18,9,36"/>
		<path style="&st0;" d="M198.5,0.5c0,18,9,18,9,36s-9,18-9,36s9,18,9,36c0,18-9,18-9,36s9,18,9,36s-9,18-9,36"/>
	</g>
</svg>
