<?xml version="1.0" encoding="iso-8859-1"?>
<!-- Generator: Adobe Illustrator 11 Build 196, SVG Export Plug-In . SVG Version: 6.0.0 Build 78)  -->
<!DOCTYPE svg PUBLIC "-//W3C//DTD SVG 1.0//EN"    "http://www.w3.org/TR/2001/REC-SVG-20010904/DTD/svg10.dtd" [
	<!ENTITY ns_flows "http://ns.adobe.com/Flows/1.0/">
	<!ENTITY ns_svg "http://www.w3.org/2000/svg">
	<!ENTITY ns_xlink "http://www.w3.org/1999/xlink">
	<!ENTITY st0 "fill:#0A0809;">
	<!ENTITY st1 "fill:none;stroke:#FFFFFF;stroke-width:2;stroke-linecap:round;stroke-linejoin:round;">
]>
<svg  xmlns="&ns_svg;" xmlns:xlink="&ns_xlink;" xmlns:a="http://ns.adobe.com/AdobeSVGViewerExtensions/3.0/"
	 width="175.27" height="197.88" viewBox="0 0 175.27 197.88" style="overflow:visible;enable-background:new 0 0 175.27 197.88"
	 xml:space="preserve">
	<g id="Layer_1">
		<g>
			<path style="&st0;" d="M88.24,197.88h5.17v-13.69c0,0,7.3-0.3,10.95-0.91c3.65-0.61,8.52-1.83,12.48-11.56
				c10.96,0,42.6-0.91,58.42-32.25c-9.74-15.21-30.43-18.56-46.56-12.17c-16.13,6.39-23.13,16.74-22.82,38.65
				c0,0-1.52,4.26-3.65,6.09c-2.13,1.83-9.43-0.61-9.43-0.61v-34.08c24.95,0.3,43.82-29.52,49.6-41.69
				c9.13-5.48,26.17-25.86,25.56-46.25c-4.56-7.91-28.3-14.3-51.42-8.22c0.3-5.48-10.96-33.17-28.91-38.64
				C69.68,8,58.42,35.69,58.73,41.17c-23.13-6.09-46.86,0.3-51.42,8.22C6.69,69.77,23.73,90.16,32.86,95.63
				c5.78,12.17,24.65,41.99,49.6,41.69v34.08c0,0-7.3,2.43-9.43,0.61c-2.13-1.83-3.65-6.09-3.65-6.09
				c0.3-21.91-6.69-32.25-22.82-38.65C30.43,120.89,9.74,124.24,0,139.45c15.82,31.34,47.47,32.25,58.42,32.25
				c3.96,9.74,8.82,10.95,12.48,11.56c3.65,0.61,10.95,0.91,10.95,0.91v13.69H88.24"/>
			<path style="&st1;" d="M169.49,139.45c-19.47-2.74-40.85,8.29-58.2,27.77 M32.25,96.55C28,85.59,26.78,49.69,56.29,42.08
				C71.2,39.34,79.92,42,87.03,48.47c7.11,6.47,25.46,32.77,10.35,58.12 M143.02,96.55c4.26-10.96,5.48-46.86-24.04-54.47
				c-14.91-2.74-23.62-0.08-30.73,6.39c-7.11,6.47-25.46,32.77-10.35,58.12 M117.15,173.12l0.3-5.06
				c-5.48,0.3-11.56-2.74-11.56-2.74 M5.78,139.45c19.48-2.74,40.73,8.17,58.07,27.64 M97.89,63.51c9-8.41,18.93,1.09,21.97,8.08
				c0,0,6.69,14.3-3.96,31.65 M77.05,63.51c-9-8.41-18.93,1.09-21.97,8.08c0,0-6.69,14.3,3.96,31.65 M58.12,173.12l-0.3-5.06
				c5.48,0.3,11.56-2.74,11.56-2.74 M168.88,48.17l-27.39,13.69 M5.78,48.17l27.39,13.69 M87.75,1v39.19 M82.16,43.51
				c1.05-2.01,3.15-3.38,5.58-3.38c2.44,0,4.56,1.39,5.6,3.42 M81.55,137.93c1.67-2.74,10.35-2.74,11.87,0 M85.77,134.43l-6.8-5.8
				 M89.66,134.48l6.68-5.68 M87.74,126.56v8.03"/>
		</g>
	</g>
</svg>
