<?xml version="1.0" encoding="iso-8859-1"?>
<!-- Generator: Adobe Illustrator 11 Build 196, SVG Export Plug-In . SVG Version: 6.0.0 Build 78)  -->
<!DOCTYPE svg PUBLIC "-//W3C//DTD SVG 1.0//EN"    "http://www.w3.org/TR/2001/REC-SVG-20010904/DTD/svg10.dtd" [
	<!ENTITY ns_flows "http://ns.adobe.com/Flows/1.0/">
	<!ENTITY ns_svg "http://www.w3.org/2000/svg">
	<!ENTITY ns_xlink "http://www.w3.org/1999/xlink">
	<!ENTITY st0 "fill:#FFFFFF;stroke:#000000;stroke-linecap:round;stroke-linejoin:round;stroke-miterlimit:2;">
	<!ENTITY st1 "fill:none;stroke:#000000;stroke-linecap:round;stroke-linejoin:round;">
	<!ENTITY st2 "fill:none;stroke:#000000;stroke-linecap:round;stroke-linejoin:round;stroke-miterlimit:2;">
]>
<svg  xmlns="&ns_svg;" xmlns:xlink="&ns_xlink;" xmlns:a="http://ns.adobe.com/AdobeSVGViewerExtensions/3.0/"
	 width="231.18" height="338.12" viewBox="0 0 231.18 338.12" style="overflow:visible;enable-background:new 0 0 231.18 338.12"
	 xml:space="preserve">
	<g id="Bild">
		<line style="&st2;" x1="119.3" y1="34.25" x2="119.3" y2="37.25"/>
		<line style="&st2;" x1="119.3" y1="39.75" x2="119.3" y2="43.19"/>
		<line style="&st2;" x1="119.3" y1="45.84" x2="119.3" y2="48.84"/>
		<line style="&st2;" x1="119.3" y1="51.84" x2="119.3" y2="55.22"/>
		<line style="&st2;" x1="119.3" y1="58.25" x2="119.3" y2="62.38"/>
		<line style="&st2;" x1="119.3" y1="65.41" x2="119.3" y2="69.16"/>
		<line style="&st2;" x1="119.3" y1="79.41" x2="119.3" y2="83.5"/>
		<line style="&st2;" x1="119.3" y1="72.38" x2="119.3" y2="76.16"/>
		<line style="&st2;" x1="119.3" y1="86.81" x2="119.3" y2="89.88"/>
		<path style="&st2;" d="M121.43,95.53c0.03-0.72,1.5-3.41,3.62-5.34c-2.5-0.12-3.62-0.38-5.19,1"/>
		<path style="&st2;" d="M119.87,91.19c-0.06-1-0.06-0.56-0.56-1.31c-0.44,0.12-2.81,0.44-2.81,1.25"/>
		<line style="&st2;" x1="118.05" y1="13.88" x2="118.05" y2="17.44"/>
		<line style="&st2;" x1="118.05" y1="7.62" x2="118.05" y2="12.44"/>
		<line style="&st2;" x1="118.05" y1="27.88" x2="118.05" y2="31.81"/>
		<path style="&st2;" d="M124.21,31.56c0.34,0.72,0.38,0.8,0.54,1.12"/>
		<path style="&st2;" d="M125.87,35c4.22,8.97,6.85,14.47,13.51,27.79"/>
		<path style="&st2;" d="M141.49,66.95c-0.58-1.07-0.28-0.52-0.92-1.69"/>
		<path style="&st2;" d="M143.07,70.04c2.31,4.19,11.24,21.88,14.33,27.1"/>
		<path style="&st2;" d="M158.82,99.73c0.41,0.69,0.34,0.57,0.52,0.88"/>
		<path style="&st2;" d="M160.78,103.3c5.46,9.04,9,16.46,12.22,21.5"/>
		<path style="&st2;" d="M175.75,129.43c0.28,0.44,0.7,1.14,0.9,1.46"/>
		<path style="&st2;" d="M178.18,133.46c2.86,4.32,4.72,7.63,7.93,12.65"/>
		<path style="&st2;" d="M185.37,148.5c0-1.44,1-2.38,2.75-2.38s3.34,3.16,3.34,4.5"/>
		<line style="&st2;" x1="140.64" y1="325.9" x2="169.68" y2="325.9"/>
		<path style="&st2;" d="M173.51,325.9c0,0,3.67,0,10.83,0c3.77,0,9.67,3.67,9.67,8.5v3.17"/>
		<path style="&st2;" d="M205.18,334.56c-0.07,0,3.75,0,3.75,0c0.88,0,1.34,0.72,1.34,1.41v1.66"/>
		<line style="&st2;" x1="205.18" y1="334.56" x2="205.18" y2="320.44"/>
		<line style="&st2;" x1="208.93" y1="334.56" x2="208.93" y2="320.44"/>
		<path style="&st2;" d="M205.12,334.53c-0.88,0-1.34,0.72-1.34,1.41v1.66"/>
		<path style="&st2;" d="M174.8,337.56v-1.72c0-0.69-0.5-1.03-1.38-1.03h-3.75c-0.88,0-1.34,0.72-1.34,1.41v1.34"/>
		<line style="&st2;" x1="97.55" y1="325.9" x2="135.8" y2="325.9"/>
		<line style="&st2;" x1="169.68" y1="320.44" x2="169.68" y2="334.81"/>
		<line style="&st2;" x1="178.18" y1="320.44" x2="178.18" y2="325.9"/>
		<line style="&st2;" x1="173.8" y1="320.44" x2="173.8" y2="325.9"/>
		<line style="&st2;" x1="173.43" y1="320.44" x2="173.43" y2="334.81"/>
		<polyline style="&st2;" points="140.39,320.44 212.77,320.44 212.77,317.19 136.8,317.19 "/>
		<polyline style="&st2;" points="205.18,317.19 205.18,304.31 208.93,304.31 208.93,317.19 "/>
		<path style="&st2;" d="M206.99,299.69c0,0.81,1.94,1.09,1.94,2.41c0,0.56-0.25,1.06-0.62,1.06v1.16"/>
		<path style="&st2;" d="M206.99,299.69c0,0.81-1.94,1.09-1.94,2.41c0,0.56,0.25,1.06,0.62,1.06v1.16"/>
		<polyline style="&st2;" points="169.55,317.19 169.55,304.31 173.3,304.31 173.3,317.19 "/>
		<path style="&st2;" d="M171.37,299.69c0,0.81,1.94,1.09,1.94,2.41c0,0.56-0.25,1.06-0.62,1.06v1.16"/>
		<path style="&st2;" d="M171.37,299.69c0,0.81-1.94,1.09-1.94,2.41c0,0.56,0.25,1.06,0.62,1.06v1.16"/>
		<polyline style="&st2;" points="136.18,317.06 136.18,304.19 139.93,304.19 139.93,317.06 "/>
		<path style="&st2;" d="M137.99,299.56c0,0.81,1.94,1.09,1.94,2.41c0,0.56-0.25,1.06-0.62,1.06v1.16"/>
		<path style="&st2;" d="M137.99,299.56c0,0.81-1.94,1.09-1.94,2.41c0,0.56,0.25,1.06,0.62,1.06v1.16"/>
		<polyline style="&st2;" points="136.18,337.44 136.18,324.56 139.93,324.56 139.93,337.44 "/>
		<path style="&st2;" d="M137.99,319.94c0,0.81,1.94,1.09,1.94,2.41c0,0.56-0.25,1.06-0.62,1.06v1.16"/>
		<path style="&st2;" d="M137.99,319.94c0,0.81-1.94,1.09-1.94,2.41c0,0.56,0.25,1.06,0.62,1.06v1.16"/>
		<polyline style="&st2;" points="134.8,276.06 134.8,311.06 135.8,311.06 "/>
		<line style="&st2;" x1="173.8" y1="317.19" x2="173.8" y2="276.19"/>
		<line style="&st2;" x1="178.18" y1="293.94" x2="134.8" y2="293.94"/>
		<line style="&st2;" x1="169.3" y1="302.44" x2="140.3" y2="302.44"/>
		<line style="&st2;" x1="173.8" y1="302.44" x2="173.3" y2="302.44"/>
		<line style="&st2;" x1="135.8" y1="337.56" x2="135.8" y2="308.31"/>
		<line style="&st2;" x1="169.55" y1="311.56" x2="140.3" y2="311.56"/>
		<line style="&st2;" x1="169.55" y1="310.06" x2="140.3" y2="310.06"/>
		<line style="&st2;" x1="169.55" y1="308.31" x2="140.3" y2="308.31"/>
		<line style="&st2;" x1="169.55" y1="307.06" x2="140.3" y2="307.06"/>
		<line style="&st2;" x1="140.3" y1="314.31" x2="169.55" y2="314.31"/>
		<line style="&st2;" x1="140.3" y1="313.06" x2="169.55" y2="313.06"/>
		<line style="&st2;" x1="132.68" y1="312.5" x2="132.68" y2="280.56"/>
		<line style="&st2;" x1="132.68" y1="310" x2="117.99" y2="310"/>
		<line style="&st2;" x1="118.05" y1="276.06" x2="118.05" y2="312.5"/>
		<line style="&st2;" x1="118.05" y1="280.56" x2="134.8" y2="280.56"/>
		<line style="&st2;" x1="118.05" y1="278.06" x2="134.8" y2="278.06"/>
		<line style="&st2;" x1="134.8" y1="291.19" x2="178.18" y2="291.19"/>
		<line style="&st2;" x1="140.3" y1="276.06" x2="140.3" y2="317.06"/>
		<line style="&st2;" x1="141.93" y1="276.06" x2="141.93" y2="291.19"/>
		<line style="&st2;" x1="143.43" y1="276.06" x2="143.43" y2="291.19"/>
		<line style="&st2;" x1="144.93" y1="276.06" x2="144.93" y2="291.19"/>
		<line style="&st2;" x1="146.43" y1="276.06" x2="146.43" y2="291.19"/>
		<line style="&st2;" x1="147.93" y1="276.06" x2="147.93" y2="291.19"/>
		<line style="&st2;" x1="149.43" y1="276.06" x2="149.43" y2="291.19"/>
		<line style="&st2;" x1="150.93" y1="276.06" x2="150.93" y2="291.19"/>
		<line style="&st2;" x1="152.43" y1="276.06" x2="152.43" y2="291.19"/>
		<line style="&st2;" x1="153.93" y1="276.06" x2="153.93" y2="291.19"/>
		<line style="&st2;" x1="155.43" y1="276.06" x2="155.43" y2="291.19"/>
		<line style="&st2;" x1="156.93" y1="276.06" x2="156.93" y2="291.19"/>
		<line style="&st2;" x1="158.43" y1="276.06" x2="158.43" y2="291.19"/>
		<line style="&st2;" x1="159.93" y1="276.06" x2="159.93" y2="291.19"/>
		<line style="&st2;" x1="161.43" y1="276.06" x2="161.43" y2="291.19"/>
		<line style="&st2;" x1="162.93" y1="276.06" x2="162.93" y2="291.19"/>
		<line style="&st2;" x1="164.43" y1="276.06" x2="164.43" y2="291.19"/>
		<line style="&st2;" x1="165.93" y1="276.06" x2="165.93" y2="291.19"/>
		<line style="&st2;" x1="167.43" y1="276.06" x2="167.43" y2="291.19"/>
		<line style="&st2;" x1="168.93" y1="276.06" x2="168.93" y2="291.19"/>
		<line style="&st2;" x1="170.43" y1="276.06" x2="170.43" y2="291.19"/>
		<line style="&st2;" x1="171.93" y1="276.06" x2="171.93" y2="291.19"/>
		<line style="&st2;" x1="173.43" y1="276.06" x2="173.43" y2="291.19"/>
		<line style="&st2;" x1="118.05" y1="270.19" x2="118.05" y2="264.69"/>
		<path style="&st2;" d="M116.59,264.44c23.56,0,61.34-1.83,69.21-2.12v-3.56"/>
		<polygon style="&st2;" points="219.43,257.72 222.05,256.75 222.05,252.94 219.43,253.31 "/>
		<path style="&st1;" d="M222.05,252.94c-28.38,4.38-81.9,5.62-105.46,5.62"/>
		<line style="&st1;" x1="116.59" y1="258.56" x2="116.59" y2="260.69"/>
		<path style="&st1;" d="M116.59,260.69c23.56,0,77.32-1.32,94.84-4.38l8,1.41"/>
		<path style="&st1;" d="M116.59,233.19c12.31,0,32.17-3.38,42.34-10.38"/>
		<path style="&st1;" d="M116.59,230.44c14.19,0,29.71-3.25,40.71-8.62c20.38,12.5,44.5,20,71.88,22.38"/>
		<line style="&st1;" x1="185.68" y1="256.47" x2="185.68" y2="258.69"/>
		<line style="&st1;" x1="199.55" y1="255.44" x2="199.55" y2="257.69"/>
		<polyline style="&st1;" points="218.05,250.69 218.05,253.31 211.68,254.34 211.68,256.31 "/>
		<line style="&st1;" x1="176.93" y1="257" x2="176.93" y2="259.19"/>
		<line style="&st1;" x1="168.68" y1="257.38" x2="168.68" y2="259.47"/>
		<line style="&st1;" x1="164.43" y1="257.53" x2="164.43" y2="259.72"/>
		<line style="&st1;" x1="159.05" y1="257.78" x2="159.05" y2="259.81"/>
		<line style="&st1;" x1="152.05" y1="257.94" x2="152.05" y2="259.69"/>
		<line style="&st1;" x1="143.93" y1="258.22" x2="143.93" y2="260.28"/>
		<line style="&st1;" x1="140.18" y1="258.31" x2="140.18" y2="260.41"/>
		<line style="&st1;" x1="136.58" y1="258.38" x2="136.58" y2="260.44"/>
		<line style="&st1;" x1="142.05" y1="258.31" x2="142.05" y2="260.31"/>
		<line style="&st1;" x1="138.68" y1="258.31" x2="138.68" y2="260.38"/>
		<line style="&st1;" x1="134.8" y1="258.41" x2="134.8" y2="260.5"/>
		<line style="&st1;" x1="132.3" y1="258.44" x2="132.3" y2="260.53"/>
		<line style="&st1;" x1="130.3" y1="258.47" x2="130.3" y2="260.56"/>
		<line style="&st1;" x1="127.3" y1="258.56" x2="127.3" y2="260.59"/>
		<line style="&st1;" x1="124.18" y1="258.53" x2="124.18" y2="260.59"/>
		<line style="&st1;" x1="121.43" y1="258.56" x2="121.43" y2="260.59"/>
		<line style="&st1;" x1="118.05" y1="258.56" x2="118.05" y2="260.69"/>
		<polyline style="&st2;" points="123.58,101.78 124.68,103.49 124.68,107.57 "/>
		<path style="&st2;" d="M116.59,170c23.56,0,56.26-0.77,69.42-3.27l1.83-3.17"/>
		<polyline style="&st2;" points="196.34,161.73 196.34,166.73 192.68,166.73 187.01,164.73 "/>
		<path style="&st2;" d="M157.34,169.56l7.5,5.83c2.21,1.66,3.67-0.33,1.83-2.23l-6.17-4.1"/>
		<line style="&st2;" x1="166.68" y1="173.17" x2="160.51" y2="169.06"/>
		<path style="&st2;" d="M164.84,175.4c-0.87-0.65,0.96-3.13,1.83-2.23"/>
		<path style="&st2;" d="M163.84,169.06l7.33,3.17c2.46,1.11,3.67-1.5,1.62-2.89c0,0-2.46-0.94-2.46-0.77"/>
		<path style="&st2;" d="M171.18,172.23c-1.49-0.67,0.12-3.93,1.62-2.89"/>
		<path style="&st2;" d="M178.18,167.83l6.01,2.36c2.46,1.1,3.67-1.5,1.62-2.9"/>
		<path style="&st2;" d="M184.19,170.2c-1.49-0.67,0.12-3.93,1.62-2.9"/>
		<path style="&st2;" d="M140.3,176.67l19.54,1.56c0,0,2.33,0.83,2.33-2.83"/>
		<path style="&st2;" d="M159.84,178.23c-1.33-1.5-0.5-1-0.83-2.67"/>
		<polyline style="&st2;" points="145.01,180.06 145.01,182.06 152.51,182.4 153.34,179.9 152.84,179.56 "/>
		<polyline style="&st2;" points="135.05,180.31 135.8,182 142.51,182 142.65,180.16 "/>
		<polyline style="&st2;" points="118.24,180.31 119.85,182.56 126.35,182.56 127.49,180.34 "/>
		<line style="&st2;" x1="148.68" y1="182.23" x2="147.87" y2="185.19"/>
		<polyline style="&st2;" points="137.01,185.23 138.18,187.4 142.34,187.4 143.34,185.06 "/>
		<polyline style="&st2;" points="119.24,185.16 120.9,187.06 125.35,187.06 126.21,185.16 "/>
		<line style="&st2;" x1="124.01" y1="199.4" x2="124.01" y2="195.73"/>
		<line style="&st2;" x1="126.35" y1="199.56" x2="126.35" y2="195.4"/>
		<line style="&st2;" x1="150.18" y1="199.4" x2="150.18" y2="195.4"/>
		<line style="&st2;" x1="147.01" y1="199.73" x2="146.99" y2="195.38"/>
		<polyline style="&st2;" points="122.74,210.38 119.74,210.38 118.93,209.56 118.93,208.06 129.3,208.06 129.33,209.34 
			128.3,210.38 125.43,210.38 "/>
		<line style="&st2;" x1="125.43" y1="208.06" x2="125.43" y2="213.19"/>
		<line style="&st2;" x1="122.8" y1="208.06" x2="122.8" y2="213.19"/>
		<polyline style="&st2;" points="140.8,210.38 137.8,210.38 136.99,209.56 136.99,208.06 147.37,208.06 147.4,209.34 
			146.37,210.38 143.49,210.38 "/>
		<polygon style="&st2;" points="150.05,210.38 149.24,209.56 149.24,208.06 156.12,208.06 156.15,209.34 155.12,210.38 "/>
		<line style="&st2;" x1="143.49" y1="208.06" x2="143.49" y2="213.19"/>
		<line style="&st2;" x1="140.87" y1="208.06" x2="140.87" y2="213.19"/>
		<line style="&st2;" x1="152.68" y1="199.75" x2="152.68" y2="203.25"/>
		<line style="&st2;" x1="150.18" y1="203.12" x2="150.18" y2="199.56"/>
		<line style="&st2;" x1="136.37" y1="199.69" x2="136.37" y2="203.12"/>
		<line style="&st2;" x1="133.12" y1="199.62" x2="133.12" y2="202.94"/>
		<line style="&st2;" x1="113.88" y1="34.25" x2="113.88" y2="37.25"/>
		<line style="&st2;" x1="113.88" y1="39.75" x2="113.88" y2="43.19"/>
		<line style="&st2;" x1="113.88" y1="45.84" x2="113.88" y2="48.84"/>
		<line style="&st2;" x1="113.88" y1="51.84" x2="113.88" y2="55.22"/>
		<line style="&st2;" x1="113.88" y1="58.25" x2="113.88" y2="62.38"/>
		<line style="&st2;" x1="113.88" y1="65.41" x2="113.88" y2="69.16"/>
		<line style="&st2;" x1="113.88" y1="79.41" x2="113.88" y2="83.5"/>
		<line style="&st2;" x1="113.88" y1="72.38" x2="113.88" y2="76.16"/>
		<line style="&st2;" x1="113.88" y1="86.81" x2="113.88" y2="89.88"/>
		<path style="&st2;" d="M116.59,0.5c-0.06,2.44-2.71,3.47-2.71,4.94s1.25,2.65,2.71,2.65l0,0c1.46,0,2.71-1.19,2.71-2.65
			S116.65,2.94,116.59,0.5"/>
		<path style="&st2;" d="M111.75,95.53c-0.03-0.72-1.5-3.41-3.62-5.34c2.5-0.12,3.62-0.38,5.19,1"/>
		<path style="&st2;" d="M113.31,91.19c0.06-1,0.06-0.56,0.56-1.31c0.44,0.12,2.62,0.38,2.62,1.19"/>
		<path style="&st2;" d="M112.81,45.78c-0.44,0-0.97-0.25-0.97-0.75v-0.88c0-0.53,0.47-0.97,0.97-0.97h7.55
			c0.5,0,0.97,0.44,0.97,0.97v0.88c0,0.5-0.53,0.75-0.97,0.75H112.81z"/>
		<path style="&st2;" d="M112.03,51.81c-0.44,0-0.97-0.25-0.97-0.75v-1.28c0-0.53,0.47-0.97,0.97-0.97h9.12
			c0.5,0,0.97,0.44,0.97,0.97v1.28c0,0.5-0.53,0.75-0.97,0.75H112.03z"/>
		<path style="&st2;" d="M112,58.22c-0.44,0-0.97-0.25-0.97-0.75v-1.28c0-0.53,0.47-0.97,0.97-0.97h9.18c0.5,0,0.97,0.44,0.97,0.97
			v1.28c0,0.5-0.53,0.75-0.97,0.75H112z"/>
		<path style="&st2;" d="M112,65.41c-0.44,0-0.97-0.25-0.97-0.75v-1.28c0-0.53,0.47-0.97,0.97-0.97h9.18c0.5,0,0.97,0.44,0.97,0.97
			v1.28c0,0.5-0.53,0.75-0.97,0.75H112z"/>
		<path style="&st2;" d="M112,72.38c-0.44,0-0.97-0.25-0.97-0.75v-1.5c0-0.53,0.47-0.97,0.97-0.97h9.18c0.5,0,0.97,0.44,0.97,0.97
			v1.5c0,0.5-0.53,0.75-0.97,0.75H112z"/>
		<path style="&st2;" d="M112,86.75c-0.44,0-0.97-0.25-0.97-0.75v-1.5c0-0.53,0.47-0.97,0.97-0.97h9.18c0.5,0,0.97,0.44,0.97,0.97
			V86c0,0.5-0.53,0.75-0.97,0.75H112z"/>
		<path style="&st2;" d="M112,79.38c-0.44,0-0.97-0.25-0.97-0.75v-1.5c0-0.53,0.47-0.97,0.97-0.97h9.18c0.5,0,0.97,0.44,0.97,0.97
			v1.5c0,0.5-0.53,0.75-0.97,0.75H112z"/>
		<path style="&st2;" d="M113.25,39.75c-0.44,0-0.97-0.25-0.97-0.75v-0.78c0-0.53,0.47-0.97,0.97-0.97h6.68
			c0.5,0,0.97,0.44,0.97,0.97V39c0,0.5-0.53,0.75-0.97,0.75H113.25z"/>
		<path style="&st2;" d="M113.88,34.25c-0.44,0-0.97-0.25-0.97-0.75l-0.03-0.69c0-0.53,0.47-0.97,0.97-0.97h5.49
			c0.5,0,0.97,0.44,0.97,0.97l-0.03,0.69c0,0.5-0.53,0.75-0.97,0.75H113.88z"/>
		<path style="&st2;" d="M109.59,101.78v-4.03c0-1.12,0.69-2.22,2.16-2.22h9.68c1.47,0,2.16,1.09,2.16,2.22v4.03H109.59z"/>
		<line style="&st2;" x1="115.12" y1="13.88" x2="115.12" y2="17.44"/>
		<line style="&st2;" x1="115.12" y1="7.62" x2="115.12" y2="12.44"/>
		<path style="&st2;" d="M113.88,13.81c-1.25,0-1.25-1.38,0-1.38h5.43c1.25,0,1.25,1.38,0,1.38H113.88z"/>
		<path style="&st2;" d="M112.91,20.94c-1.25,0-1.25-1.38,0-1.38h7.37c1.25,0,1.25,1.38,0,1.38H112.91z"/>
		<path style="&st2;" d="M113.87,19.56c0-1.42,1.3-2.56,2.71-2.56l0,0c1.42,0,2.72,1.15,2.72,2.56"/>
		<path style="&st2;" d="M110.75,27.8c1.06-2.28,1.64-3.57,3.12-6.86l0,4.84c0,1.42,1.3,2.56,2.71,2.56l0,0
			c1.42,0,2.72-1.15,2.72-2.56l0-4.84c1.48,3.29,2.06,4.58,3.12,6.86"/>
		<line style="&st2;" x1="115.12" y1="27.88" x2="115.12" y2="31.81"/>
		<path style="&st2;" d="M108.97,31.56c-0.34,0.72-0.38,0.8-0.54,1.12"/>
		<path style="&st2;" d="M107.31,35c-4.22,8.97-6.85,14.47-13.51,27.79"/>
		<path style="&st2;" d="M91.69,66.95c0.58-1.07,0.28-0.52,0.92-1.69"/>
		<path style="&st2;" d="M90.1,70.04c-2.31,4.19-11.24,21.88-14.33,27.1"/>
		<path style="&st2;" d="M74.36,99.73c-0.41,0.69-0.34,0.57-0.52,0.88"/>
		<path style="&st2;" d="M72.4,103.3c-5.46,9.04-9,16.46-12.23,21.5"/>
		<path style="&st2;" d="M57.43,129.43c-0.28,0.44-0.7,1.14-0.9,1.46"/>
		<path style="&st2;" d="M55,133.46c-2.86,4.32-4.72,7.63-7.93,12.65"/>
		<path style="&st2;" d="M47.81,148.5c0-1.44-1-2.38-2.75-2.38s-3.34,3.16-3.34,4.5"/>
		<line style="&st2;" x1="0.5" y1="337.56" x2="230.68" y2="337.56"/>
		<line style="&st2;" x1="93" y1="325.9" x2="63.5" y2="325.9"/>
		<path style="&st2;" d="M59.67,325.9c0,0-3.67,0-10.83,0c-3.77,0-9.67,3.67-9.67,8.5v3.17"/>
		<path style="&st2;" d="M28,334.5c0.07,0-3.75,0-3.75,0c-0.88,0-1.34,0.72-1.34,1.41v1.66"/>
		<line style="&st2;" x1="28" y1="334.5" x2="28" y2="320.44"/>
		<line style="&st2;" x1="24.25" y1="334.5" x2="24.25" y2="320.44"/>
		<path style="&st2;" d="M28.06,334.47c0.88,0,1.34,0.72,1.34,1.41v1.66"/>
		<path style="&st2;" d="M58.38,337.56v-1.72c0-0.69,0.5-1.03,1.38-1.03h3.75c0.88,0,1.34,0.72,1.34,1.41v1.34"/>
		<line style="&st2;" x1="135.8" y1="334.19" x2="97.38" y2="334.19"/>
		<line style="&st2;" x1="97.38" y1="323.38" x2="135.8" y2="323.38"/>
		<line style="&st2;" x1="97.38" y1="331.44" x2="135.8" y2="331.44"/>
		<line style="&st2;" x1="97.38" y1="328.88" x2="135.8" y2="328.88"/>
		<path style="&st2;" d="M97.38,325.9"/>
		<line style="&st2;" x1="97.38" y1="320.44" x2="135.8" y2="320.44"/>
		<path style="&st2;" d="M91.44,337.56v-1.72c0-0.69,0.5-1.03,1.38-1.03v-17.62h47.55v17.62c0.88,0,1.38,0.34,1.38,1.03v1.72"/>
		<line style="&st2;" x1="63.5" y1="320.44" x2="63.5" y2="334.81"/>
		<line style="&st2;" x1="55" y1="320.44" x2="55" y2="325.9"/>
		<line style="&st2;" x1="59.38" y1="320.44" x2="59.38" y2="325.9"/>
		<line style="&st2;" x1="59.75" y1="320.44" x2="59.75" y2="334.81"/>
		<polyline style="&st2;" points="92.77,320.44 20.41,320.44 20.41,317.19 96.38,317.19 "/>
		<polyline style="&st2;" points="28,317.19 28,304.31 24.25,304.31 24.25,317.19 "/>
		<path style="&st2;" d="M26.19,299.69c0,0.81-1.94,1.09-1.94,2.41c0,0.56,0.25,1.06,0.62,1.06v1.16"/>
		<path style="&st2;" d="M26.19,299.69c0,0.81,1.94,1.09,1.94,2.41c0,0.56-0.25,1.06-0.62,1.06v1.16"/>
		<polyline style="&st2;" points="63.62,317.19 63.62,304.31 59.88,304.31 59.88,317.19 "/>
		<path style="&st2;" d="M61.81,299.69c0,0.81-1.94,1.09-1.94,2.41c0,0.56,0.25,1.06,0.62,1.06v1.16"/>
		<path style="&st2;" d="M61.81,299.69c0,0.81,1.94,1.09,1.94,2.41c0,0.56-0.25,1.06-0.62,1.06v1.16"/>
		<polyline style="&st2;" points="97,317.06 97,304.19 93.25,304.19 93.25,317.06 "/>
		<path style="&st2;" d="M95.19,299.56c0,0.81-1.94,1.09-1.94,2.41c0,0.56,0.25,1.06,0.62,1.06v1.16"/>
		<path style="&st2;" d="M95.19,299.56c0,0.81,1.94,1.09,1.94,2.41c0,0.56-0.25,1.06-0.62,1.06v1.16"/>
		<polyline style="&st2;" points="97,337.44 97,324.56 93.25,324.56 93.25,337.44 "/>
		<path style="&st2;" d="M95.19,319.94c0,0.81-1.94,1.09-1.94,2.41c0,0.56,0.25,1.06,0.62,1.06v1.16"/>
		<path style="&st2;" d="M95.19,319.94c0,0.81,1.94,1.09,1.94,2.41c0,0.56-0.25,1.06-0.62,1.06v1.16"/>
		<polyline style="&st2;" points="98.38,276.06 98.38,311.06 97.38,311.06 "/>
		<line style="&st2;" x1="59.38" y1="317.19" x2="59.38" y2="276.19"/>
		<line style="&st2;" x1="55" y1="293.94" x2="98.38" y2="293.94"/>
		<line style="&st2;" x1="63.74" y1="302.44" x2="92.87" y2="302.44"/>
		<line style="&st2;" x1="59.37" y1="302.44" x2="59.79" y2="302.44"/>
		<line style="&st2;" x1="97.38" y1="337.56" x2="97.38" y2="308.31"/>
		<polyline style="&st2;" points="97.38,314.31 100.5,314.31 100.5,312.5 132.68,312.5 132.68,314.31 135.8,314.31 "/>
		<rect x="63.62" y="310.06" style="&st0;" width="29.25" height="1.5"/> 
		<rect x="63.62" y="307.06" style="&st0;" width="29.25" height="1.25"/> 
		<line style="&st2;" x1="92.88" y1="314.31" x2="63.62" y2="314.31"/>
		<line style="&st2;" x1="92.88" y1="313.06" x2="63.62" y2="313.06"/>
		<line style="&st2;" x1="100.5" y1="312.5" x2="100.5" y2="280.56"/>
		<line style="&st2;" x1="100.5" y1="310" x2="115.19" y2="310"/>
		<line style="&st2;" x1="55" y1="276.06" x2="178.18" y2="276.06"/>
		<line style="&st2;" x1="115.12" y1="276.06" x2="115.12" y2="312.5"/>
		<line style="&st2;" x1="115.12" y1="280.56" x2="98.38" y2="280.56"/>
		<line style="&st2;" x1="115.12" y1="278.06" x2="98.38" y2="278.06"/>
		<line style="&st2;" x1="98.38" y1="291.19" x2="55" y2="291.19"/>
		<line style="&st2;" x1="92.88" y1="276.06" x2="92.88" y2="317.06"/>
		<line style="&st2;" x1="91.25" y1="276.06" x2="91.25" y2="291.19"/>
		<line style="&st2;" x1="89.75" y1="276.06" x2="89.75" y2="291.19"/>
		<line style="&st2;" x1="88.25" y1="276.06" x2="88.25" y2="291.19"/>
		<line style="&st2;" x1="86.75" y1="276.06" x2="86.75" y2="291.19"/>
		<line style="&st2;" x1="85.25" y1="276.06" x2="85.25" y2="291.19"/>
		<line style="&st2;" x1="83.75" y1="276.06" x2="83.75" y2="291.19"/>
		<line style="&st2;" x1="82.25" y1="276.06" x2="82.25" y2="291.19"/>
		<line style="&st2;" x1="80.75" y1="276.06" x2="80.75" y2="291.19"/>
		<line style="&st2;" x1="79.25" y1="276.06" x2="79.25" y2="291.19"/>
		<line style="&st2;" x1="77.75" y1="276.06" x2="77.75" y2="291.19"/>
		<line style="&st2;" x1="76.25" y1="276.06" x2="76.25" y2="291.19"/>
		<line style="&st2;" x1="74.75" y1="276.06" x2="74.75" y2="291.19"/>
		<line style="&st2;" x1="73.25" y1="276.06" x2="73.25" y2="291.19"/>
		<line style="&st2;" x1="71.75" y1="276.06" x2="71.75" y2="291.19"/>
		<line style="&st2;" x1="70.25" y1="276.06" x2="70.25" y2="291.19"/>
		<line style="&st2;" x1="68.75" y1="276.06" x2="68.75" y2="291.19"/>
		<line style="&st2;" x1="67.25" y1="276.06" x2="67.25" y2="291.19"/>
		<line style="&st2;" x1="65.75" y1="276.06" x2="65.75" y2="291.19"/>
		<line style="&st2;" x1="64.25" y1="276.06" x2="64.25" y2="291.19"/>
		<line style="&st2;" x1="62.75" y1="276.06" x2="62.75" y2="291.19"/>
		<line style="&st2;" x1="61.25" y1="276.06" x2="61.25" y2="291.19"/>
		<line style="&st2;" x1="59.75" y1="276.06" x2="59.75" y2="291.19"/>
		<polyline style="&st2;" points="55,317.19 55,270.44 178.18,270.44 178.18,317.19 "/>
		<line style="&st2;" x1="55.12" y1="272.31" x2="178.05" y2="272.31"/>
		<line style="&st2;" x1="115.12" y1="270.19" x2="115.12" y2="264.69"/>
		<path style="&st2;" d="M116.59,264.44c-23.56,0-61.34-1.83-69.21-2.12v-3.56"/>
		<polygon style="&st2;" points="13.75,257.72 11.12,256.75 11.12,252.94 13.75,253.31 "/>
		<path style="&st1;" d="M11.12,252.94c28.38,4.38,81.9,5.62,105.46,5.62"/>
		<path style="&st1;" d="M116.44,260.69"/>
		<path style="&st1;" d="M116.44,258.56"/>
		<path style="&st1;" d="M116.59,260.69c-23.56,0-77.32-1.32-94.84-4.38l-8,1.41"/>
		<path style="&st1;" d="M116.59,255.69c-24.19,0-84.34-2-111.09-6.25l-1.12-4.38c25.88,5.75,88.65,6.5,112.21,6.5l0,0
			c23.56,0,86.34-0.75,112.21-6.5l-1.12,4.38C200.93,253.69,140.78,255.69,116.59,255.69"/>
		<path style="&st1;" d="M116.59,233.19c-12.31,0-32.17-3.38-42.34-10.38"/>
		<path style="&st1;" d="M116.59,230.44c-14.19,0-29.71-3.25-40.71-8.62c-20.38,12.5-44.5,20-71.88,22.38"/>
		<path style="&st1;" d="M59.38,230.31v-3.62c0.12-5.88,8.12-13.5,14.12-13.5h86.18c6,0,14,7.62,14.12,13.5v3.62"/>
		<line style="&st1;" x1="47.5" y1="256.47" x2="47.5" y2="258.69"/>
		<line style="&st1;" x1="33.62" y1="255.44" x2="33.62" y2="257.69"/>
		<polyline style="&st1;" points="15.12,250.69 15.12,253.31 21.5,254.34 21.5,256.31 "/>
		<line style="&st1;" x1="56.25" y1="257" x2="56.25" y2="259.19"/>
		<line style="&st1;" x1="64.5" y1="257.38" x2="64.5" y2="259.47"/>
		<line style="&st1;" x1="68.75" y1="257.53" x2="68.75" y2="259.72"/>
		<line style="&st1;" x1="74.12" y1="257.78" x2="74.12" y2="259.81"/>
		<line style="&st1;" x1="81.12" y1="257.94" x2="81.12" y2="259.69"/>
		<line style="&st1;" x1="89.25" y1="258.22" x2="89.25" y2="260.28"/>
		<line style="&st1;" x1="93" y1="258.31" x2="93" y2="260.41"/>
		<line style="&st1;" x1="96.59" y1="258.38" x2="96.59" y2="260.44"/>
		<line style="&st1;" x1="91.12" y1="258.31" x2="91.12" y2="260.31"/>
		<line style="&st1;" x1="94.5" y1="258.31" x2="94.5" y2="260.38"/>
		<line style="&st1;" x1="98.38" y1="258.41" x2="98.38" y2="260.5"/>
		<line style="&st1;" x1="100.88" y1="258.44" x2="100.88" y2="260.53"/>
		<line style="&st1;" x1="102.88" y1="258.47" x2="102.88" y2="260.56"/>
		<line style="&st1;" x1="105.88" y1="258.56" x2="105.88" y2="260.59"/>
		<line style="&st1;" x1="109" y1="258.53" x2="109" y2="260.59"/>
		<line style="&st1;" x1="111.75" y1="258.56" x2="111.75" y2="260.59"/>
		<line style="&st1;" x1="114.12" y1="258.56" x2="114.12" y2="260.69"/>
		<rect x="77.12" y="203.31" style="&st1;" width="78.93" height="3.75"/> 
		<polyline style="&st2;" points="109.59,101.78 108.5,103.49 108.5,107.57 "/>
		<polygon style="&st2;" points="104.83,107.49 104.83,109.31 106.41,113.4 128.84,113.4 130.42,109.31 130.42,107.49 "/>
		<path style="&st2;" d="M106.41,113.4c-26.91,22.42-61.16,39.29-76.66,39.42c21.38,6.62,63.28,9.38,86.84,9.38l0,0
			c23.56,0,65.46-2.75,86.84-9.38c-15.5-0.12-49.75-17-76.66-39.42"/>
		<path style="&st2;" d="M29.75,152.81l4.25,5.92c24.33,6.5,59.03,6.77,82.59,6.77l0,0c23.56,0,58.26-0.27,82.59-6.77l4.25-5.92"/>
		<path style="&st2;" d="M35.33,159.06l-0.17,2.33c20.83,5.17,57.86,6.1,81.42,6.1l0,0c23.56,0,60.59-0.94,81.42-6.1l-0.17-2.33"/>
		<path style="&st2;" d="M116.59,170c-23.56,0-56.26-0.77-69.42-3.27l-1.83-3.17"/>
		<polyline style="&st2;" points="36.83,161.73 36.83,166.73 40.5,166.73 46.17,164.73 "/>
		<path style="&st2;" d="M73.17,172.06c7.67,0.17,19.86,1.1,43.42,1.1l0,0c23.56,0,35.76-0.94,43.42-1.1"/>
		<path style="&st2;" d="M75.83,169.56l-7.5,5.83c-2.21,1.66-3.67-0.33-1.83-2.23l6.17-4.1"/>
		<line style="&st2;" x1="66.5" y1="173.17" x2="72.67" y2="169.06"/>
		<path style="&st2;" d="M68.33,175.4c0.87-0.65-0.96-3.13-1.83-2.23"/>
		<path style="&st2;" d="M69.5,175.23c10.17,1.17,35.98,1.77,47.09,1.77l0,0c11.1,0,36.92-0.6,47.09-1.77"/>
		<path style="&st2;" d="M69.33,169.06L62,172.23c-2.46,1.11-3.67-1.5-1.62-2.89c0,0,2.46-0.94,2.46-0.77"/>
		<path style="&st2;" d="M62,172.23c1.49-0.67-0.12-3.93-1.62-2.89"/>
		<path style="&st2;" d="M55,167.83l-6.01,2.36c-2.46,1.1-3.67-1.5-1.62-2.9"/>
		<path style="&st2;" d="M48.99,170.2c1.49-0.67-0.12-3.93-1.62-2.9"/>
		<path style="&st2;" d="M79.71,177.69l0.62,1.88c9.83,0.83,18.19,0.77,36.26,0.77l0,0c18.06,0,26.42,0.06,36.26-0.77l0.67-2.17"/>
		<path style="&st2;" d="M92.88,176.67l-19.54,1.56c0,0-2.33,0.83-2.33-2.83"/>
		<path style="&st2;" d="M73.33,178.23c1.33-1.5,0.5-1,0.83-2.67"/>
		<polyline style="&st2;" points="88.17,180.06 88.17,182.06 80.67,182.4 79.83,179.9 80.4,179.5 "/>
		<polyline style="&st2;" points="98.18,180.28 97.38,182 90.67,182 90.46,180.19 "/>
		<polyline style="&st2;" points="114.83,180.34 113.33,182.56 106.83,182.56 105.87,180.38 "/>
		<line style="&st2;" x1="84.5" y1="182.23" x2="85.4" y2="185.16"/>
		<polygon style="&st2;" points="84,185.17 86.45,187.61 87.67,189.5 145.51,189.5 146.73,187.61 149.18,185.17 "/>
		<polyline style="&st2;" points="96.17,185.23 95,187.4 90.83,187.4 89.9,185.19 "/>
		<polyline style="&st2;" points="113.96,185.16 112.37,187.06 107.83,187.06 107.08,185.16 "/>
		<line style="&st2;" x1="109.17" y1="199.4" x2="109.17" y2="195.73"/>
		<line style="&st2;" x1="106.83" y1="199.56" x2="106.83" y2="195.4"/>
		<line style="&st2;" x1="83" y1="199.4" x2="83" y2="195.4"/>
		<line style="&st2;" x1="86.18" y1="199.69" x2="86.19" y2="195.38"/>
		<rect x="79.5" y="195.4" style="&st2;" width="74.18" height="4.27"/> 
		<line style="&st2;" x1="88.62" y1="191.44" x2="144.55" y2="191.44"/>
		<line style="&st2;" x1="88.62" y1="190.44" x2="144.55" y2="190.44"/>
		<line style="&st2;" x1="88.62" y1="193.19" x2="144.55" y2="193.19"/>
		<polyline style="&st2;" points="110.44,210.38 113.44,210.38 114.25,209.56 114.25,208.06 103.88,208.06 103.84,209.34 
			104.88,210.38 107.75,210.38 "/>
		<line style="&st2;" x1="107.75" y1="208.06" x2="107.75" y2="213.19"/>
		<line style="&st2;" x1="110.38" y1="208.06" x2="110.38" y2="213.19"/>
		<polyline style="&st2;" points="92.38,210.38 95.38,210.38 96.19,209.56 96.19,208.06 85.81,208.06 85.78,209.34 86.81,210.38 
			89.69,210.38 "/>
		<polygon style="&st2;" points="83.12,210.38 83.94,209.56 83.94,208.06 77.06,208.06 77.05,209.62 78.06,210.38 "/>
		<line style="&st2;" x1="89.69" y1="208.06" x2="89.69" y2="213.19"/>
		<line style="&st2;" x1="92.31" y1="208.06" x2="92.31" y2="213.19"/>
		<line style="&st2;" x1="80.5" y1="199.75" x2="80.5" y2="203.25"/>
		<line style="&st2;" x1="83" y1="203.12" x2="83" y2="199.56"/>
		<line style="&st2;" x1="96.81" y1="199.69" x2="96.81" y2="203.12"/>
		<line style="&st2;" x1="100.06" y1="199.62" x2="100.06" y2="202.94"/>
		<line style="&st2;" x1="143.18" y1="189.56" x2="143.18" y2="195.06"/>
		<line style="&st2;" x1="89.43" y1="189.56" x2="89.43" y2="195.31"/>
		<rect x="28" y="310.06" style="&st0;" width="31.87" height="1.5"/> 
		<rect x="27.99" y="307.06" style="&st0;" width="31.88" height="1.25"/> 
		<rect x="28" y="313.06" style="&st0;" width="31.83" height="1.25"/> 
		<rect x="173.3" y="307.06" style="&st0;" width="31.88" height="1.25"/> 
		<rect x="173.3" y="310.06" style="&st0;" width="31.88" height="1.5"/> 
		<rect x="173.3" y="313.06" style="&st0;" width="31.88" height="1.5"/> 
		<line style="&st2;" x1="78.43" y1="213.12" x2="78.43" y2="210.31"/>
		<line style="&st2;" x1="82.99" y1="210.38" x2="82.99" y2="213.12"/>
		<line style="&st2;" x1="154.9" y1="210.34" x2="154.9" y2="213.12"/>
		<line style="&st2;" x1="150.05" y1="210.38" x2="150.05" y2="213.19"/>
		<line style="&st2;" x1="63.24" y1="263" x2="63.18" y2="263.98"/>
		<polyline style="&st2;" points="56.93,262.75 58.79,266.31 62.51,266.31 63.18,263.98 57.43,263.98 "/>
		<polyline style="&st2;" points="49.18,267.06 48.85,264.06 45.68,264.06 45.51,266.81 49.18,267.06 54.99,262.62 55,270.44 "/>
		<line style="&st2;" x1="72.68" y1="263.56" x2="72.68" y2="270.44"/>
		<line style="&st2;" x1="48.85" y1="264.06" x2="51.43" y2="262.44"/>
		<line style="&st2;" x1="45.68" y1="264.06" x2="47.38" y2="262.31"/>
		<line style="&st2;" x1="169.94" y1="263" x2="170" y2="263.98"/>
		<polyline style="&st2;" points="176.25,262.75 174.39,266.31 170.67,266.31 170,263.98 175.75,263.98 "/>
		<polyline style="&st2;" points="184,267.06 184.33,264.06 187.5,264.06 187.67,266.81 184,267.06 178.19,262.62 178.18,270.44 "/>
		<line style="&st2;" x1="184.33" y1="264.06" x2="181.75" y2="262.44"/>
		<line style="&st2;" x1="187.5" y1="264.06" x2="185.8" y2="262.31"/>
		<line style="&st2;" x1="160.37" y1="263.38" x2="160.37" y2="270.38"/>
		<line style="&st2;" x1="157.3" y1="263.56" x2="157.3" y2="270.44"/>
		<line style="&st2;" x1="75.12" y1="263.5" x2="75.12" y2="270.38"/>
		<polyline style="&st2;" points="109.15,283.25 106.38,283.25 106.38,307.62 109.15,307.62 "/>
		<polyline style="&st2;" points="126.56,283.25 123.79,283.25 123.79,307.62 126.56,307.62 "/>
	</g>
</svg>
