<?xml version="1.0" encoding="iso-8859-1"?>
<!-- Generator: Adobe Illustrator 11 Build 196, SVG Export Plug-In . SVG Version: 6.0.0 Build 78)  -->
<!DOCTYPE svg PUBLIC "-//W3C//DTD SVG 1.0//EN"    "http://www.w3.org/TR/2001/REC-SVG-20010904/DTD/svg10.dtd" [
	<!ENTITY ns_flows "http://ns.adobe.com/Flows/1.0/">
	<!ENTITY ns_svg "http://www.w3.org/2000/svg">
	<!ENTITY ns_xlink "http://www.w3.org/1999/xlink">
]>
<svg  xmlns="&ns_svg;" xmlns:xlink="&ns_xlink;" xmlns:a="http://ns.adobe.com/AdobeSVGViewerExtensions/3.0/"
	 width="233.52" height="178.32" viewBox="0 0 233.52 178.32" style="overflow:visible;enable-background:new 0 0 233.52 178.32"
	 xml:space="preserve">
	<g id="&#xC9;&#xE5;&#xC9;C&#xC9;&#xD1;&#xC5;_x5B__x5F_4">
		<path d="M107.28,0.41c0,0-0.02,7.64-0.02,8.95c0.11,0,0.11,0,0.22,0.01c0-1.38,0.02-8.96,0.02-8.96s-0.04-0.23-0.08-0.4
			C107.36,0.08,107.28,0.17,107.28,0.41z M43.06,10.89l-0.16,0.34c0,0.34,0.32,0.55,0.87,0.55c0.02,0,15.46,0.43,21.2,0.59
			c-0.6-0.56-1.04-0.96-1.2-1.11c-0.58-0.02-19.79-0.63-19.79-0.63C43.59,10.64,43.24,10.73,43.06,10.89z M70.96,13.44
			c9.44,8.38,23.71,21.05,28.14,46.17c-0.06-0.2,0.08,0.67,0.08,0.67c-0.01-0.22,0.4,2.46,0.4,2.46c-0.06-0.2,0.06,0.65,0.06,0.65
			c0-0.21,0.38,3.2,0.38,3.2c-0.01-0.04-0.01-0.04-0.01,0c0,0.12,0.05,0.61,0.05,0.61c0.25,2.77,0.38,5.66,0.38,8.67
			c0,4.35-0.29,8.93-0.82,13.64c2.09-0.27,4.25-0.03,6.45,0.77c0.61-0.95,1.29-1.85,2.1-2.65c1.06-6.71,1.55-12.92,1.55-18.64
			c0-30.81-13.98-47.89-26.96-57.12c-0.43-0.01-10.83-0.35-13.99-0.45C69.84,12.4,70.96,13.43,70.96,13.44z M113,68.99
			c0,4.98-0.4,10.36-1.17,16.05c1.36-0.69,2.8-1.22,4.34-1.45c0,0,1.69-0.05,2.7-0.08c1.62-7.81,2.29-15,2.29-21.42
			c0-10.36-1.65-18.75-3.45-24.85c-0.41-0.32-11.56-8.91-11.56-8.91c-0.42-0.32-0.64-0.81-0.64-1.3c0-0.35,0.11-0.7,0.34-1
			c0.55-0.72,1.59-0.85,2.3-0.3c0,0,26.58,20.48,26.58,20.48l-0.28-0.14l1.03,0.8l-0.21-0.25c0,0,14.26,10.98,14.76,11.37
			c0.21-0.03,0.48-0.07,0.92-0.13c-2.79-2.15-43.5-33.51-43.5-33.51c-0.42-0.32-0.64-0.81-0.64-1.3c0-0.35,0.11-0.7,0.34-1
			c0.55-0.72,1.59-0.85,2.3-0.3c0,0,1.35,1.04,2.73,2.1c-2.64-4.79-5.64-8.69-8.86-11.33c-0.5-0.02-11.6-0.37-15.01-0.48
			C100.46,21.98,113,39.33,113,68.99z M131.95,28.29l-0.18-0.11l0.7,0.58l-0.16-0.17c0,0,30.61,24.71,31.43,25.38
			c0.22-0.13,0.31-0.18,0.61-0.36c-1.73-1.39-50.36-40.42-50.76-40.75c-0.11,0-0.45-0.01-0.79-0.02
			C115.87,15.3,131.95,28.29,131.95,28.29z M125.88,18.5c-1-2.6-1.81-4.38-2.28-5.33c-0.55-0.02-2.56-0.08-4.55-0.15
			C120.98,14.57,123.65,16.72,125.88,18.5z M130.73,22.4c0.3,0.24,6.79,5.45,9.17,7.36c-1.24-6.63-3.05-12.22-5.34-16.24
			c-0.72-0.02-5.51-0.18-7.28-0.23C128.13,15.2,129.4,18.27,130.73,22.4z M143.79,32.88c0.39,0.31,6.32,5.08,8.28,6.64
			c-0.13-9.85-1.36-18.84-3.55-25.56c-0.94-0.03-8.27-0.27-10.22-0.33C140.76,18.61,142.67,25.18,143.79,32.88z M155.41,41.23
			c0,0.33,0,0.65-0.01,0.98c0.47,0.38,4.52,3.63,6.06,4.86c0.66-4.54,1.03-8.94,1.03-13.09c0-7.53-1.1-14.24-3.22-19.67
			c-0.85-0.03-5.77-0.19-7.31-0.23C154.18,21.42,155.41,30.93,155.41,41.23z M163.06,15.09c0.95,0.03,8.48,0.24,8.56,0.24
			c-0.03-0.01-0.05-0.04-0.05-0.09c0-0.07,0.02-0.15,0.02-0.15c0,0.01-0.09-0.42-0.09-0.42c-0.01,0.02-6.09-0.16-8.68-0.24
			C162.94,14.75,162.97,14.84,163.06,15.09z M118.03,28.35c0.26,0.21,10.64,8.2,13.17,10.15c-0.45-2.76-0.95-5.38-1.56-7.85
			c-0.37-0.3-14.66-11.83-19.32-15.6C113.23,18.69,115.86,23.19,118.03,28.35z M26.11,34.23c0,0-0.7,0.83-0.7,0.83l-1.03-0.33
			c-4.64-1.45-12.64-0.1-15.09,5.4c0,0-0.39,0.88-0.39,0.88L7.93,41.1C2.79,41.55,0.01,45.64,0,49.25c0,1.38,0.46,5.91,6.61,6.48
			c6.22,0.59,10.16-0.05,15.05-2.42l1.48-0.63l0.28-0.11c-0.14,0.07,0.35-0.14,0.35-0.14c-0.09,0.03,2.66-0.88,2.66-0.88
			c5.81-1.56,12.13-1.52,18.45,0.03c0.39-0.29,0.87-0.48,1.3-0.73c-4.27-0.74-8.06-1.16-11.27-1.11c-0.15,0-2.95,0.18-2.95,0.18
			c-3.86,0.4-6.75,1.37-9.54,2.31c0,0-2.19,0.73-2.19,0.73c-2.72,0.87-5.31,1.43-7.72,1.68c0.16-0.03-0.6,0.03-0.6,0.03
			c-4.98,0.47-8.86-0.72-11.33-3.52c-0.6-0.68-0.53-1.72,0.15-2.32c0.51-0.45,1.17-0.39,1.75-0.11c-0.21-0.29-0.44-0.6-0.44-0.6
			l0.21-1.24l1.02-0.73l1.24,0.21c0,0,7.5,4.67,8,4.98c1-0.12,2.13-0.4,3.25-0.65c-2.01-1.36-6.23-4.23-6.23-4.23
			C9.05,46.14,8.8,45.62,8.8,45.1c0-0.32,0.09-0.64,0.28-0.92c0.51-0.75,1.54-0.94,2.28-0.44c0,0,8.01,5.44,8.62,5.85
			c0.47-0.15,1.64-0.54,1.74-0.57c-1.95-1.35-8.23-5.72-8.23-5.72l-0.68-1.06l0.27-1.23l1.06-0.68l1.23,0.27
			c0,0,9.81,6.81,10.35,7.19c0.32-0.07,0.92-0.21,1.83-0.41c-2.32-1.63-11.73-8.23-11.73-8.23c0,0-0.68-1.06-0.68-1.06l0.27-1.23
			c0.52-0.74,1.55-0.92,2.29-0.4c0,0,13.29,9.32,14.51,10.18c0.25-0.02,0.52-0.03,0.98-0.07c0-0.48,0-0.76,0-1.09
			C32.51,45.04,23.46,39,23.46,39c0,0-0.7-1.04-0.7-1.04l0.24-1.23l1.04-0.7l1.23,0.24c0,0,6.04,4.03,7.89,5.26
			c0-0.62,0-0.95,0-1.23c-0.58-0.42-5.29-3.82-5.29-3.82l-0.66-1.07l0.29-1.23c0,0,1.07-0.66,1.07-0.66l1.22,0.29
			c0,0,2,1.44,3.36,2.43c0-1.7,0-4.42,0-4.42c0-0.8,0.61-1.39,1.37-1.53C31.72,30.14,28.77,31.12,26.11,34.23z M36.46,31.83
			c0,0,0,2.97,0,4.78c1.5-0.86,4.59-2.65,5.5-3.17c-0.1-0.08-0.22-0.18-0.22-0.18c-1.73-1.43-3.86-2.34-6.08-2.73
			C36.1,30.83,36.46,31.25,36.46,31.83z M44.5,33.39c0.17,0.13,0.37,0.28,0.37,0.28c0.15,0.26,0.22,0.54,0.22,0.82
			c0,0.57-0.3,1.12-0.82,1.43c0,0-6.18,3.56-7.8,4.5c0,0.31,0,0.62,0,1.23c1.84-1.15,8.1-5.06,8.1-5.06l1.24-0.21l1.02,0.73
			c0,0.01,0.21,1.24,0.21,1.24l-0.73,1.02c0,0-9.15,5.72-9.84,6.15c0,0.32,0,0.54,0,1c0.75,0.02,1.6,0.05,1.89,0.05
			c0.38-0.21,15.89-9.03,15.89-9.03c0,0,1.25-0.16,1.25-0.16l0.99,0.77c0,0,0.16,1.25,0.16,1.25l-0.77,0.99c0,0-8.04,4.57-11.9,6.77
			c0.79,0.11,1.41,0.19,1.61,0.22c0.44-0.25,12.51-6.87,12.51-6.87c0,0,1.25-0.14,1.25-0.14l0.98,0.79c0,0.02,0.14,1.25,0.14,1.25
			l-0.79,0.98c0,0-6.43,3.53-9.01,4.95c0.9,0.19,1.7,0.36,1.8,0.38c1.05-0.11,2.03-0.1,2.97,0c2.67-3.13,6.45-5.12,10.47-5.43
			c1.68-0.13,3.35,0.08,4.99,0.5c-1.78-2.6-5.06-4.11-9.31-4.01l-1.01,0.03l-0.48-0.89C57.48,34.12,50.94,31.94,44.5,33.39z
			 M135.01,41.43c0.39,0.3,4.78,3.68,6.62,5.1c-0.12-2.09-0.34-6.03-0.38-6.51c-0.42-0.34-5.33-4.31-7.57-6.11
			C134.24,36.55,134.69,39.05,135.01,41.43z M124.43,62.11c0,6.52-0.67,13.84-2.3,21.79c1.3,0.28,2.55,0.72,3.78,1.28
			c-0.29-1.15-0.49-2.3-0.49-3.43c0-2.21,0.51-4.38,1.49-6.28c1.07-2.08,2.67-3.74,4.68-5.01c0.72-4.87,1.1-9.83,1.1-14.82
			c0-2.35-0.09-4.7-0.25-7.06c-0.48-0.37-7.95-6.12-10.49-8.08C123.29,46.15,124.43,53.38,124.43,62.11z M145.03,49.15
			c0.46,0.35,4.79,3.69,6.39,4.92c0.15-1.73,0.43-4.86,0.48-5.45c-0.51-0.41-5.28-4.27-7.16-5.78
			C144.83,44.94,145,48.59,145.03,49.15z M66.13,46.56L66.13,46.56c-3.47,0.27-6.67,2.03-8.77,4.83l-0.61,0.82l-1-0.19
			c-3.75-0.69-11.08,1.11-12.35,7.18l-0.27,1.31h-1.33c-3.07,0-5.64,0.98-7.21,2.76c-0.74,0.84-1.15,1.87-1.39,2.97
			c0.03-0.01,0.14-0.06,0.14-0.06l1.16,0.48c1.92,1.92,4.44,3.07,7.15,3.4c-1.78-1.13-3.72-2.35-3.72-2.35l-0.73-1.02l0.21-1.24
			l1.02-0.73l1.24,0.21c0,0,5.96,3.76,7.43,4.69c0.43-0.16,1.55-0.56,1.7-0.61c-1.77-1.1-6.06-3.78-6.06-3.78
			c0,0-0.73-1.02-0.73-1.02l0.2-1.25c0,0,1.02-0.73,1.02-0.73l1.25,0.21c0,0,6.55,4.08,8.05,5.02c0.36-0.13,1.07-0.39,2.03-0.74
			c-1.78-1.19-6.22-4.18-6.22-4.18c-0.47-0.32-0.72-0.84-0.72-1.37c0-0.31,0.09-0.63,0.28-0.91c0.51-0.75,1.53-0.95,2.28-0.45
			c0,0,7.01,4.7,8.37,5.61c0.4-0.09,1.56-0.36,2.87-0.66c-2-1.45-7.47-5.42-7.47-5.42l-0.66-1.07l0.29-1.22l1.07-0.66l1.22,0.29
			c0,0,5.74,4.16,7.7,5.58c-0.03-0.62-0.05-1-0.07-1.24c-0.52-0.41-6.45-5.03-6.45-5.03l-0.62-1.1l0.33-1.21
			c0.56-0.71,1.59-0.84,2.31-0.29c0,0,2.54,1.98,4.19,3.27c-0.12-2.22-0.38-6.86-0.38-6.86l0.42-1.19l1.13-0.55
			c0.91-0.05,1.68,0.65,1.73,1.55c0,0,0.24,4.41,0.37,6.74c1.69-1.14,6.69-4.52,6.69-4.52c0,0,1.23-0.25,1.23-0.25l1.05,0.69
			c0,0,0.25,1.23,0.25,1.23l-0.69,1.05c0,0-7.64,5.17-8.32,5.63c0.02,0.29,0.03,0.56,0.06,1.12c1.81-1.12,9.46-5.86,9.46-5.86
			c0,0,1.24-0.2,1.24-0.2l1.02,0.73c0,0,0.2,1.24,0.2,1.24l-0.74,1.02c0,0-5.88,3.65-8.91,5.52c1.33-0.06,2.43-0.11,2.65-0.12
			c0.34-0.22,12.48-7.86,12.48-7.86l1.24-0.21l1.03,0.73l0.21,1.24l-0.73,1.02c0,0-6.14,3.87-8.69,5.47
			c1.05,0.13,1.85,0.23,2.11,0.26c0.45-0.28,13.14-8.02,13.14-8.02l1.24-0.19l1.02,0.74c0,0,0.19,1.24,0.19,1.24l-0.74,1.01
			c0,0-6.64,4.06-9.93,6.07c0.94,0.16,1.83,0.31,2.19,0.37c0.47-0.31,8.42-5.63,9.22-6.16c-0.17-0.76-0.92-4.14-1.11-4.96
			c-0.88-0.06-4.18-0.28-4.18-0.28l-0.39-0.94c-0.29-0.7-1.49-1.81-3.45-2.58c-2.79-1.1-5.87-1.05-8.45,0.13l-1.03,0.47l-0.81-0.79
			C73.44,47.64,69.83,46.27,66.13,46.56z M154.51,56.45c0.46,0.35,1.54,1.18,1.73,1.33c0.36,0.09,2.18,0.51,2.99,0.7
			c0.02-0.03,0.02-0.04,0.04-0.06c0,0,0.58-2.51,0.75-3.24c-0.56-0.45-3.58-2.89-5.04-4.07C154.82,52.84,154.56,55.85,154.51,56.45z
			 M135.94,55.64c0,4.45-0.32,8.87-0.87,13.23c1.29-0.41,2.65-0.7,4.1-0.81c0.53-1.52,1.22-2.95,2.11-4.21
			c0.01-0.25,0.39-7.38,0.42-8.13c-0.49-0.38-4.18-3.22-5.89-4.54C135.87,52.67,135.94,54.15,135.94,55.64z M170.88,55.03
			L170.88,55.03c-2.43,0.09-6.88,1-9.48,6.07c0,0-0.67,1.32-0.67,1.32l-1.38-0.53c-3.9-1.51-8.02-1.43-11.31,0.21
			c-1.46,0.73-2.72,1.76-3.76,3.06c0.1-0.16-0.31,0.39-0.31,0.39c-0.86,1.18-1.61,2.73-2.1,4.47l-0.33,1.17l-1.22,0.03
			c-2.4,0.05-4.52,0.56-6.31,1.52c-1.9,1.05-3.27,2.45-4.19,4.24c-0.76,1.48-1.13,3.12-1.13,4.78c0,2.22,0.67,4.47,1.98,6.38
			c0.05,0.06,0.18,0.17,0.3,0.28c0.8-0.61,1.71-1.09,2.66-1.52c-1.02-0.97-3.43-3.28-3.43-3.28c0,0-0.51-1.15-0.51-1.15l0.46-1.17
			l1.15-0.51l1.17,0.45c0,0,4.19,4.01,4.66,4.46c0.97-0.17,1.94-0.29,2.9-0.28c-2.62-1.76-6.13-4.11-6.13-4.11l-0.7-1.05l0.25-1.23
			c0,0,1.04-0.7,1.04-0.7l1.23,0.25c0,0,9.07,6.08,9.8,6.57c0.19-0.1,1.35-0.71,2.25-1.18c-1.8-1.14-8.37-5.3-8.37-5.3
			c-0.49-0.31-0.76-0.84-0.76-1.39c0-0.3,0.08-0.6,0.25-0.88c0.48-0.77,1.5-0.99,2.27-0.51c0,0,8.32,5.26,10.03,6.35
			c0.3-0.14,0.67-0.31,1.31-0.61c-1.92-1.22-9.12-5.79-9.12-5.79c-0.49-0.31-0.76-0.85-0.76-1.39c0-0.3,0.08-0.61,0.25-0.88
			c0.49-0.76,1.5-0.99,2.26-0.5c0,0,9.51,6.04,11.06,7.02c0.42-0.14,1.51-0.49,2.75-0.89c-2.17-1.41-10.28-6.68-10.28-6.68
			c0,0-0.71-1.03-0.71-1.03l0.23-1.24c0.49-0.76,1.51-0.98,2.27-0.48c0,0,11.53,7.5,12.8,8.32c0.3-0.04,1.17-0.16,2.33-0.31
			c-2.91-1.76-12.74-7.72-12.74-7.72c-0.51-0.31-0.79-0.85-0.79-1.41c0-0.29,0.08-0.58,0.24-0.85c0.47-0.77,1.48-1.02,2.25-0.55
			c0,0,11.83,7.17,15.58,9.44c0-1.18,0-2.3,0-2.79c-0.73-0.43-11.3-6.65-11.3-6.65l-0.76-1l0.17-1.25c0,0,1-0.76,1-0.76l1.25,0.17
			c0,0,7.73,4.56,9.63,5.67c0-0.7,0-1.09,0-1.42c-0.66-0.42-6.88-4.44-6.88-4.44c-0.49-0.32-0.75-0.84-0.75-1.38
			c0-0.3,0.08-0.61,0.26-0.89c0.49-0.76,1.51-0.98,2.27-0.49c0,0,3.26,2.11,5.09,3.29c0-1.62,0-4.23,0-4.23
			c0-0.91,0.74-1.64,1.64-1.64c0.9,0,1.64,0.74,1.64,1.64c0,0,0,2.86,0,4.46c1.61-0.89,5.52-3.08,5.52-3.08
			c0.79-0.44,1.79-0.15,2.23,0.63c0,0,0.15,1.25,0.15,1.25l-0.78,0.99c0,0-6.39,3.56-7.12,3.96c0,0.35,0,0.72,0,1.41
			c1.85-1.05,8.99-5.08,8.99-5.08c0,0,1.25-0.15,1.25-0.15l0.99,0.78c0.14,0.25,0.21,0.53,0.21,0.8c0,0.57-0.3,1.13-0.84,1.43
			c0,0-8.73,4.94-10.61,6c0,0.49,0,1.5,0,2.62c2.06-1.21,14.94-8.81,14.94-8.81c0.78-0.46,1.79-0.2,2.25,0.58
			c0,0,0.18,1.24,0.18,1.24l-0.76,1c0,0-9.4,5.54-12.38,7.3c0.68,0.08,1.21,0.15,1.39,0.17c0.44-0.25,15.15-8.5,15.15-8.5
			c0.79-0.44,1.79-0.16,2.24,0.63c0.14,0.26,0.21,0.53,0.21,0.8c0,0.58-0.3,1.13-0.84,1.44c0,0-8.08,4.53-11.77,6.6
			c0.93,0.2,1.81,0.39,2.17,0.47c0.48-0.24,12.71-6.33,12.71-6.33l1.26-0.08l0.95,0.83c0.12,0.24,0.17,0.48,0.17,0.73
			c0,0.6-0.33,1.18-0.91,1.47c0,0-5.86,2.92-9.05,4.5c0.67,0.15,1.22,0.27,1.51,0.33c0.48-0.24,9.29-4.67,9.29-4.67l1.26-0.09
			l0.95,0.82c0.12,0.23,0.17,0.48,0.17,0.73c0,0.6-0.33,1.18-0.9,1.47c0,0-3.28,1.65-5.55,2.79c5.26,0.98,7.17,0.84,8.78-0.62
			c0.67-0.61,1.71-0.55,2.32,0.12c0.61,0.67,0.56,1.71-0.12,2.32c-3.61,3.27-7.13,2.49-20.21-0.39l-7.1-1.55
			c-16.2-3.47-25.26,1.19-33.94,5.8c0.56,0.34,0.84,0.51,1.14,0.69c0.65-0.31,3.68-1.76,3.68-1.76c12.35-5.5,21.62-5.95,39.76-1.97
			c9.41,2.07,15.31,3.15,17.77-0.35c1.47-2.08,2.81-5.2,0.89-8.2c-1.88-2.94-6.18-4.62-8.76-4.15l-1.53,0.28l-0.37-1.5
			c-0.96-3.96-3.08-6.95-6.11-8.63c-2.94-1.63-6.56-1.86-10.18-0.65l-1.24,0.41l-0.68-1.11C179.98,57.14,175.44,54.86,170.88,55.03z
			 M25.66,55.23c-0.36,3.11-2.07,5.46-4.86,6.45c-3.33,1.17-7.26,0.11-9.81-2.47c-0.19-0.01-0.76-0.03-1.52-0.05
			c3.94,3.89,8.44,4.24,12.43,3.88l0.71-0.07l0.53,0.48c2.36,2.11,4.11,3.03,6.62,3.55c0.16-2.21,0.9-4.26,2.35-5.9
			c0.6-0.68,1.32-1.25,2.1-1.75c-3.01-0.17-5.91-1.76-7.9-4.32C26.12,55.09,25.94,55.14,25.66,55.23z M40.41,57.36
			c0.07,0,0.13-0.02,0.19-0.02c0.03-0.07,0.06-0.14,0.09-0.21C40.59,57.21,40.5,57.29,40.41,57.36z M144.74,60.43
			c0.54-0.39,1.05-0.82,1.62-1.13c-0.6-0.46-0.84-0.65-1.5-1.15C144.81,59.07,144.79,59.48,144.74,60.43z M92.42,65.51
			c2.25-0.48,3.25-1.55,3.84-2.57C95.32,63.57,94.15,64.35,92.42,65.51z M58.59,68.78c-2.69,0.8-5.39,1.84-8.28,3.16
			c0.74-0.24,10.51-3.35,10.51-3.35c2.99-0.83,5.27-1.28,7.04-1.41c2.21-0.17,4.63-0.13,7.39,0.11c0.05,0,5.48,0.68,6.97,0.87
			c-0.1-0.02-0.32-0.05-0.32-0.05C73.45,66.28,66.26,66.49,58.59,68.78z M90.21,69.01c1.88,0.03,3.48-0.21,4.73-0.88
			C93.62,68.67,92.05,68.96,90.21,69.01z M35.21,71.98c2.57,1.76,6.74,2.39,10.15,1.54c0,0,0.62-0.2,1.44-0.46
			c-4.68,1.1-9.51-0.01-13.22-2.93C34.04,70.92,34.62,71.58,35.21,71.98z M69.06,77.74L69.06,77.74c-3.24,0.34-7.05-1.34-8.76-5.59
			c-0.06,0.02-0.06,0.02-0.11,0.03c0.02,0.26,0.06,0.52,0.06,0.77c0,3.66-2.25,5.97-4.55,6.96c-3.29,1.42-8.1,0.8-11.18-2.94
			c-0.14,0.01-0.26,0.02-0.49,0.04c1.18,1.66,2.94,3.09,5.14,3.7c2.15,0.6,6.38,1,10.55-2.99l0.88-0.84l1.06,0.6
			c3.05,1.71,6.84,0.92,6.88,0.91l0.13-0.03l0.28-0.02l0.15,0.02c0.46,0.06,4.49,0.65,6.68,2.83c0,0,0.62,0.63,0.62,0.63
			c1.22,1.25,1.35,1.38,2.99,1.81c-0.02-0.01,1.12,0.27,1.12,0.27c1.89,0.43,4.05,0.92,5.09,3.59c0.59,1.53,3.06,4.78,6.86,5.51
			c0.03-0.02,0.04-0.04,0.07-0.07c-2.76-1.06-4.7-2.86-5.33-5.16c-0.37-1.37-1.8-3.4-3.51-3.66c-2.91-0.44-4.92-2.36-5.14-2.57
			c0,0-2.64-2.64-2.64-2.64l3.72-0.17c3.57-0.16,6.25-1.01,8.16-2.43c-1.4,0.89-2.96,1.29-4.37,1.16c-2.77-0.24-5.76-2.46-6.64-6.74
			c-0.09-0.01-0.14-0.02-0.27-0.03C75.67,75.05,72.29,77.41,69.06,77.74z M15.13,118.64c0.18,0.08,0.2,0.08,0.37,0.16
			c0.56-0.69,26.13-32.23,29.49-36.38c-0.19-0.11-0.21-0.12-0.38-0.23C43.78,83.23,16.23,117.29,15.13,118.64z M57.29,83.17
			c-0.12,0.15-24.49,31.26-25.87,33.03c0.2,0.05,0.24,0.07,0.4,0.11c0.59-0.76,22.45-28.66,26.44-33.75
			C57.92,82.74,57.63,83.02,57.29,83.17z M171.01,85.38c0.81,0.81,1.73,1.38,2.82,1.39c1.04,0.01,1.96-0.52,2.77-1.27
			C174.65,85.37,172.78,85.31,171.01,85.38z M165.78,85.89c-0.29,2.82-1.9,5.26-4.32,6.29c-0.48,0.21-1,0.22-1.5,0.3
			c1.01,0.18,1.96,0.47,2.86,0.84c1.73-1.71,4.42-2.63,7.17-2.24c3.2,0.46,5.65,2.5,6.9,5.54c0.43-0.02,0.75-0.04,1.32-0.06
			c0-0.09-0.02-0.19-0.02-0.28c0-3.13,1.74-5,3.5-5.73c2.3-0.95,5-0.25,6.93,1.55c0.09-0.07,0.1-0.08,0.2-0.15
			c-0.78-0.98-4.07-5.13-4.4-5.54c-0.46-0.07-3.18-0.46-3.89-0.56c-1.51,2.65-3.97,4.24-6.74,4.21c-2.78-0.03-5.21-1.68-6.68-4.37
			C166.68,85.76,166.26,85.83,165.78,85.89z M58.96,86.99c3.6,0.5,7.54,1.5,8.68,6.35c0.48,2.07,1.87,2.58,4.62,2.88
			c2.6,0.29,5.94,2.04,7.85,7.73c0.19-0.16,0.23-0.19,0.38-0.32c-2.12-6.17-6.01-7.54-8.19-7.79c-2.67-0.3-3.85-0.73-4.29-2.59
			c-1.05-4.5-4.29-5.91-8.8-6.58C59.12,86.78,59.08,86.84,58.96,86.99z M156.44,88.58c1.3,0.79,2.59,1.06,3.74,0.57
			c0.99-0.42,1.62-1.37,2.01-2.47C160.33,87.17,158.42,87.8,156.44,88.58z M116.65,86.84L116.65,86.84
			c-3.73,0.55-6.75,2.72-8.48,6.11c0,0-0.46,0.89-0.54,1.06c0.35,0.07,0.73,0.14,0.73,0.14s5.51,3.6,7.33,4.79
			c-0.01-0.67-0.01-1.05-0.01-1.36c-0.61-0.4-4.31-2.83-4.31-2.83c-0.48-0.32-0.74-0.84-0.74-1.38c0-0.31,0.09-0.62,0.27-0.9
			c0,0,1.04-0.7,1.04-0.7l1.24,0.23c0,0,1.39,0.91,2.47,1.63c-0.02-1.72-0.04-4.72-0.04-4.72l0.47-1.17l1.16-0.49l1.16,0.47
			l0.49,1.16c0,0,0.03,3.51,0.04,5.15c1.6-0.81,5.87-2.96,5.87-2.96c0,0,1.26-0.09,1.26-0.09l0.95,0.82
			c0.12,0.24,0.17,0.49,0.17,0.74c0,0.6-0.33,1.18-0.9,1.47c0,0-6.53,3.29-7.31,3.68c0,0.41,0.01,0.89,0.02,1.67
			c1.88-0.93,11.47-5.64,11.47-5.64l1.25-0.08l0.94,0.83c0.12,0.23,0.17,0.48,0.17,0.72c0,0.61-0.34,1.19-0.92,1.48
			c0,0-10.77,5.3-12.89,6.34c0,0.44,0.01,1.02,0.02,1.86c1.98-0.91,18.27-8.35,18.27-8.35c0.82-0.37,1.79-0.01,2.17,0.81
			c0,0,0.05,1.26,0.05,1.26l-0.86,0.92c0,0-7.84,3.58-13.09,5.99c0.9-0.09,1.76-0.28,2.68-0.33c0.23-0.11,16.3-7.97,16.3-7.97
			c0.01,0,1.25-0.08,1.25-0.08l0.95,0.83c0,0.01,0.08,1.25,0.08,1.25l-0.83,0.94c0,0-6.42,3.13-10.29,5.03
			c0.95,0.04,1.75,0.08,2.03,0.1c0.38-0.2,13.23-7.05,13.23-7.05c0.8-0.42,1.8-0.12,2.22,0.68c0.13,0.24,0.19,0.51,0.19,0.77
			c0,0.59-0.32,1.16-0.87,1.45c0,0-5.65,3.01-8.88,4.73c1.68,0.21,3.18,0.39,3.5,0.43c0.46-0.29,12.02-7.5,12.02-7.5
			c0,0,1.24-0.21,1.24-0.21l1.02,0.73c0,0.01,0.21,1.24,0.21,1.24l-0.73,1.02c0,0-5.98,3.73-8.97,5.6c1.37,0.29,2.53,0.54,2.97,0.64
			c2.24-2.33,5.53-3.77,9.59-4.18c0.51-0.72,1.13-1.43,1.85-2.15c-2.28-6.12-8.72-6.8-13.67-5.44l-1.29,0.36l-0.61-1.19
			c-1.46-2.82-3.97-4.92-7.09-5.9c-0.01,0-1.77-0.44-1.77-0.44c-3.74-0.62-7.45,0.42-9.93,2.8l-1.18,1.13l-1.14-1.17
			c-2.57-2.66-6.06-4.41-9.58-4.81C118.81,86.67,117.7,86.68,116.65,86.84z M151.48,90.76c0.54,0.62,1.07,1.26,1.49,1.93
			c1.31-0.28,2.62-0.46,3.88-0.47c-1.33-0.39-2.63-1.07-3.85-2.19C152.63,90.21,152.14,90.44,151.48,90.76z M96.94,93.68
			c-2.99,1.61-5.25,4.89-5.78,8.34l-0.19,1.26l-1.27,0.13c-4.47,0.46-7.99,2.47-9.41,5.38c-0.23,0.47-0.23,0.96-0.34,1.45
			c0.09-0.36,0.17-0.73,0.49-0.97c0.73-0.54,1.76-0.38,2.3,0.35c2.88,3.91,6.02,5.2,10.74,4.64c-2.58-1.41-7.38-4.05-7.38-4.05
			l-0.79-0.98l0.14-1.25c0,0,0.98-0.78,0.98-0.78l1.25,0.14c0,0,9.39,5.15,10.81,5.93c0.1-0.03,1-0.29,1-0.29s0.4-0.15,0.86-0.32
			c-2.17-1.3-9.66-5.79-9.66-5.79c0,0-0.75-1.01-0.75-1.01l0.18-1.25l1.01-0.75l1.25,0.18c0,0,10.31,6.18,11.93,7.15
			c0.45-0.17,1.36-0.5,1.36-0.5c-0.01,0,1.15-0.44,2.21-0.84c-2.32-1.29-11.01-6.12-11.01-6.12c-0.54-0.3-0.84-0.86-0.84-1.44
			c0-0.27,0.07-0.54,0.21-0.8l0.98-0.78l1.25,0.14c0,0,12,6.67,13.51,7.51c0.34-0.11,1.27-0.39,2.43-0.74
			c-2.6-1.42-12.88-7.04-12.88-7.04c-0.55-0.3-0.85-0.86-0.85-1.45c0-0.26,0.06-0.54,0.2-0.79c0.43-0.79,1.43-1.08,2.23-0.65
			c0,0,9.36,5.12,12.63,6.9c-0.01-0.83-0.01-1.38-0.01-1.75c-0.66-0.43-9.16-5.98-9.16-5.98c-0.48-0.32-0.74-0.85-0.74-1.38
			c0-0.31,0.09-0.62,0.27-0.89c0,0,0.5-0.34,0.79-0.54c-0.03-0.01-0.85-0.39-0.85-0.39C102.81,92.21,99.67,92.21,96.94,93.68z
			 M194.69,92.93L194.69,92.93c-3.31,0.37-6.14,2.87-7.78,6.85l-0.57,1.38l-1.42-0.42c-7.9-2.36-14.7-0.39-18.2,5.26l-0.45,0.72
			l-0.84,0.05c-4.34,0.29-7.62,1.9-9.23,4.54c-1.1,1.81-1.28,3.92-0.48,5.77c1.71,3.93,5.15,6.15,10.24,6.58
			c4.81,0.4,10.83-0.86,17.47-3.63l4.81-1.79c8.17-2.71,15.01-3.18,21.04-1.47c0.14,0.04,2.78,0.95,2.78,0.95
			c0.01,0,1.17,0.5,1.17,0.5c0.95,0.41,1.99,0.83,3.04,1.23c-0.23-0.11-0.46-0.22-0.46-0.22c-4.91-2.36-9.54-4.59-18.9-4.15
			c-5.05,0.24-9.62,2.35-14.04,4.4c-2.53,1.17-4.81,2.2-7.12,2.94c-0.08,0.03-0.68,0.23-0.68,0.23c-8.47,2.48-14.4,0.55-18.13-5.9
			c-0.45-0.78-0.18-1.79,0.6-2.24c0.79-0.45,1.79-0.19,2.25,0.6c2.38,4.12,5.97,5.63,10.98,4.96c-2.42-1.46-7.28-4.4-7.28-4.4
			c-0.51-0.31-0.79-0.85-0.79-1.41c0-0.29,0.07-0.58,0.23-0.84c0.47-0.78,1.48-1.02,2.25-0.56c0,0,8.62,5.21,10.25,6.18
			c0.37-0.15,1.59-0.64,2.8-1.13c-2.17-1.29-10.75-6.38-10.75-6.38l-0.75-1l0.18-1.25c0,0,1-0.75,1-0.75l1.25,0.18
			c0,0,12.11,7.19,12.79,7.58c0.36-0.16,1.02-0.46,1.91-0.86c-2.08-1.29-11.92-7.4-11.92-7.4c-0.5-0.31-0.77-0.85-0.77-1.4
			c0-0.3,0.08-0.59,0.24-0.86c0.48-0.77,1.49-1.01,2.26-0.53c0,0,12.33,7.65,13.93,8.64c0.35-0.11,1.04-0.34,2.03-0.66
			c-2.25-1.34-9.54-5.67-9.54-5.67l-0.75-1l0.18-1.25l1-0.75l1.25,0.18c0,0,9.38,5.58,11.94,7.1c0-0.8,0-1.5,0-1.95
			c-0.71-0.43-9.32-5.66-9.32-5.66c-0.51-0.31-0.79-0.85-0.79-1.41c0-0.29,0.08-0.59,0.24-0.85c0.47-0.77,1.48-1.02,2.25-0.55
			c0,0,5.82,3.53,7.62,4.62c0-0.71,0-1.1,0-1.45c-0.69-0.4-5.48-3.17-5.48-3.17c-0.53-0.3-0.82-0.86-0.82-1.42
			c0-0.28,0.07-0.56,0.22-0.82c0.45-0.78,1.46-1.05,2.24-0.6c0,0,2.35,1.36,3.84,2.22c0-1.58,0-4.28,0-4.28l0,0
			c0-0.9,0.74-1.64,1.64-1.64s1.64,0.74,1.64,1.64c0,0,0,2.4,0,4.04c1.46-0.99,4.08-2.75,4.08-2.75c0.75-0.51,1.77-0.31,2.28,0.44
			c0.19,0.28,0.28,0.6,0.28,0.92c0,0.53-0.25,1.05-0.72,1.36c0,0-4.62,3.12-5.92,3.99c0,0.35,0,0.85,0,1.62
			c1.81-1.02,8.17-4.59,8.17-4.59c0,0,1.25-0.15,1.25-0.15l0.99,0.78l0.15,1.25l-0.78,0.99c0,0-9.03,5.08-9.78,5.5
			c0,0.45,0,1.06,0,1.8c0.56-0.34,10.11-6.15,10.11-6.15c0,0,1.24-0.19,1.24-0.19l1.01,0.74c0,0.01,0.19,1.24,0.19,1.24l-0.75,1.01
			c0,0-3.64,2.21-5.91,3.6c1.05,0.09,1.86,0.16,2.11,0.19c0.42-0.25,10.75-6.27,10.75-6.27c0.78-0.46,1.79-0.19,2.24,0.59
			c0.15,0.26,0.22,0.54,0.22,0.83c0,0.57-0.29,1.12-0.81,1.42c0,0-5.08,2.96-7.73,4.51c0.9,0.27,1.5,0.46,1.82,0.56
			c0.57-0.33,11.21-6.58,11.21-6.58c0,0,1.25-0.17,1.25-0.17l1,0.76l0.17,1.25l-0.76,1c0,0-6.31,3.7-9.07,5.32
			c0.73,0.34,1.18,0.55,1.49,0.69c0.66-0.39,7.9-4.69,7.9-4.69c0,0,1.24-0.18,1.24-0.18l1.01,0.75c0,0.01,0.18,1.24,0.18,1.24
			l-0.75,1.01c0,0-3.32,1.97-5.46,3.24c4.04,0.48,6.51-2.5,6.63-2.66c0,0,1.08-0.64,1.08-0.64l1.22,0.31
			c0.43,0.32,0.66,0.81,0.66,1.31c0,0.34-0.1,0.68-0.32,0.98c-0.04,0.06-3.13,3.96-8.16,4.11c2.99,0.26,6-0.41,8.62-3.23
			c2.71-2.91,3.59-6.27,2.35-8.98c-1.25-2.75-4.51-4.31-8.73-4.18c0,0-0.86,0.03-0.86,0.03l-0.51-0.68
			c-1.53-2.04-9.72-7.6-16.7-5.08L205,99.14l-0.72-1.03C201.74,94.48,198.15,92.54,194.69,92.93z M182.96,93.59
			c-0.97,0.4-1.49,1.37-1.49,2.71c0,0.15,0.03,0.32,0.04,0.48c0.79,0.14,2.34,0.42,3.06,0.54c0.52-1.03,1.14-1.98,1.83-2.85
			C185.32,93.45,183.92,93.19,182.96,93.59z M165.75,95.15c1.34,1.1,2.42,2.47,3.2,4.14c1.34-0.87,2.87-1.53,4.54-1.99
			c-0.87-1.58-2.18-2.7-3.96-2.96C168.14,94.14,166.77,94.51,165.75,95.15z M12.24,109.66c0.64,0.25,3.7,1.45,4.5,1.76
			c0.34-0.42,0.76-0.94,1.3-1.6c-1.34-0.49-4.55-1.67-6.14-2.26C12.05,108.51,12.17,109.24,12.24,109.66z M106.86,113.77
			c-0.03,0.01-1.9,0.7-1.9,0.7l0.21-0.11l-0.82,0.31c0.19-0.05-3.83,1.43-3.83,1.43c-0.03,0.01-1.74,0.53-1.74,0.53
			c-7.41,2.14-13.42,2.09-18.69-5.05c-0.18-0.24-0.23-0.52-0.26-0.8c-0.04,0.27-0.19,0.53-0.19,0.81c0,1.22,0.37,2.46,1.1,3.62
			c2.98,4.77,13.85,4.08,22.64,0.67c-0.01,0.01,4.2-1.7,4.2-1.7c5.94-2.46,11.55-4.79,20.63-5.3c3.63-0.2,7.52-0.11,11.89,0.26
			c6.03,0.52,10.24,1.53,12.55,2.19c0.12-0.27,0.14-0.32,0.27-0.63c-3.24-0.75-10.22-2.11-19.63-2.35
			C121.55,108.03,113.75,111.08,106.86,113.77z M131.92,112.06c2.02,1.59,4.81,2.61,7.64,2.64c1.33,0.02,3.57-0.25,5.44-1.6
			c-1.93-0.26-5.19-0.69-5.19-0.69C136.99,112.16,134.39,112.05,131.92,112.06z M23.72,113.86c0.16,0.05,0.35,0.11,0.35,0.11
			c0.01,0,2.86,0.88,3.96,1.22c0.33-0.43,0.83-1.06,1.41-1.81c-1.33-0.39-3.64-1.06-4.31-1.26
			C24.8,112.54,24.31,113.15,23.72,113.86z M122.47,112.84c-1.62,3.38-4.16,5.82-7.42,7.03c-3.51,1.29-7.87,1.04-11.48-0.58
			c-0.17,0.06-0.52,0.18-1.03,0.34c4.07,2.63,9.15,3.48,13.79,1.9c-0.13,0.06,0.28-0.1,0.28-0.1c1.75-0.63,3.37-1.59,4.75-2.83
			c0.25-0.32,2.04-2.37,4.15-2.03c0.85,0.14,2.01,0.69,2.72,2.57c0.77,2.03,2.66,4.98,5.65,7.17c0.01,0.01,2.92,1.68,2.92,1.68
			c0,0,0.82,0.35,0.82,0.35l0.15,0.87c0.51,2.94,2.11,4.63,6.6,6.95c0,0,0.4,0.21,0.4,0.21s2.92,4.74,3.34,5.43
			c0.49-0.02,1.58-0.07,2.77-0.12c-1.16-1.62-2.35-3.06-3.42-4.24c-1.67-1.86-2.68-2.98-2.68-4.3c0-0.03,0.03-0.78,0.03-0.78
			c0.02-0.28,0.03-0.53,0.03-0.76c0-0.87-0.22-1.4-1.41-1.93c-3.24-1.44-4.37-3.84-5.93-7.15l-1.8-3.81l2.96,0.37
			c7.15,0.88,12.01-2.66,13.34-3.77c-0.02-0.23-0.05-0.62-0.05-0.62s0.01-0.09,0.01-0.14c-0.77-0.19-2.45-0.62-3.02-0.77
			c-2.1,2.69-5.47,4.24-9.41,4.19c-4.8-0.06-9.47-2.37-11.92-5.76C127.02,112.29,123.06,112.77,122.47,112.84z M13.38,115.58
			c0.55-0.68,0.77-0.95,1.2-1.48c-0.62-0.24-0.9-0.35-1.63-0.64C13.12,114.31,13.2,114.67,13.38,115.58z M108.83,117.2
			c0,0-0.05,0.02-0.06,0.02c1.8,0.19,3.58,0.14,5.14-0.43c1.47-0.55,2.67-1.55,3.74-2.76C114.55,114.93,111.7,116.01,108.83,117.2z
			 M35.26,117.24c0.65,0.17,1.31,0.35,1.31,0.35c0.05,0.01,7.9,1.87,7.9,1.87c0.07,0.01,7.04,1.41,7.04,1.41
			c0.06,0.01,6.73,1.13,6.73,1.13c0.08,0.01,8.12,1.08,8.12,1.08c0.06,0.01,10.82,0.9,12.65,1.05c0.3-0.34,1.23-1.4,2.14-2.45
			c-14.41-0.47-29.34-2.57-44.41-6.33C36.42,115.76,35.87,116.45,35.26,117.24z M20.96,117.28c0.34,0.72,2.01,4.2,2.23,4.67
			c0.26,0.1,0.99,0.38,1.96,0.75c-0.97-2.04-2.57-5.39-2.78-5.83c-0.26-0.09-0.49-0.16-0.85-0.28
			C21.29,116.87,21.17,117.01,20.96,117.28z M29.56,124.33c0.3,0.1,1.27,0.44,2.48,0.87c-1.28-2.2-3.55-6.1-3.78-6.5
			c-0.25-0.07-0.81-0.25-1.62-0.49C27.59,120.19,29.35,123.9,29.56,124.33z M151.27,119.71c0.96,1.17,7.3,8.89,7.95,9.68
			c1.59-0.6,2.91-1.84,3.8-2.93c-4.73-1.04-8.23-3.67-10.13-7.77C152.26,119.08,151.88,119.33,151.27,119.71z M192.91,120.38
			c3.98,2.11,8.02,1.73,11.92-0.99C201.23,118.95,197.29,119.26,192.91,120.38z M123.72,120.86l-0.04,0.04l-0.04,0.04
			c-1.63,1.46-3.53,2.6-5.63,3.4c-0.17,0.2-5.4,6.18-6.94,7.93c1.74,0.17,4.54,0.45,5.1,0.5c0.49-0.57,9.03-10.33,9.66-11.05
			c-0.26-0.56-0.68-1.43-0.68-1.43l-0.3-0.54C124.83,119.84,124.22,120.26,123.72,120.86z M36.78,126.82
			c0.32,0.1,1.86,0.59,3.48,1.1c-1.62-2.35-4.77-6.93-5.02-7.29c-0.29-0.08-1.26-0.34-2.44-0.66
			C34.02,122.08,36.55,126.42,36.78,126.82z M18.65,120.12c0.01,0,0.02,0,0.03,0.01c-0.01-0.01-0.01-0.02-0.02-0.03
			C18.66,120.11,18.66,120.11,18.65,120.12z M188.65,121.57c-0.38,0.14-1.47,0.55-2.45,0.92c1.58,1.76,2.67,2.36,2.68,2.37
			l2.18,0.96l-1.69,1.69c-0.03,0.03-2.57,2.6-3.42,5.16l-0.25,0.52c0-0.08-0.34,0.61-0.34,0.61c-0.75,1.1-2.02,1.73-3.14,2.28
			c-1.39,0.69-3.06,1.57-4.82,3.41c1.51-0.19,3.05-0.38,3.21-0.4c3.18-1.62,7.02-3.84,8.32-5.03c0.03-0.03,0.32-0.33,0.32-0.33
			c1.81-3.51,4.87-6.94,5.22-7.31c0,0,0.67-0.73,0.67-0.73l0.96,0.25c0,0,1.97,0.29,1.97,0.29c1.52,0.11,3.65,0.07,6.01-0.65
			c2.77-0.87,5.05-2.51,7.01-4.71c-0.1-0.04-0.28-0.12-0.28-0.12l0,0c0,0-1.01-0.34-1.58-0.54
			C202.77,126.27,195.34,126.74,188.65,121.57z M96.84,121.17c-0.3,0.34-6.25,7.14-7.82,8.93c1.95,0.19,5.99,0.59,6.59,0.65
			c0.46-0.52,5.59-6.39,6.55-7.49c-1.31-0.69-2.57-1.48-3.67-2.45C98.06,120.91,97.19,121.1,96.84,121.17z M144.4,122.04
			c1.34,1.61,10.8,12.97,12.37,14.85c0.31-1.19,0.48-2.33,0.48-3.21c0-0.8-0.07-1.35-0.12-1.66c-0.27-0.33-8.39-10.21-8.97-10.91
			C146.95,121.57,145.68,121.83,144.4,122.04z M87.82,121.81l-0.05,0.02c0,0-2.07-0.02-2.37-0.03c-0.39,0.45-4.92,5.63-6.4,7.31
			c0.02,0,4.64,0.46,6,0.59c0.43-0.49,5.2-5.94,6.95-7.95C90.52,121.85,89.1,121.91,87.82,121.81z M45.31,129.47
			c0.32,0.09,2.29,0.65,4.17,1.17c-1.88-2.45-5.94-7.75-6.21-8.1c-0.32-0.07-1.75-0.4-3.24-0.75
			C41.56,124.02,45.06,129.1,45.31,129.47z M15.11,122.92c35.49,15.07,109.39,36.44,208.31,12.14c-0.04-0.32-0.05-0.42-0.08-0.66
			c-1.33,0.32-6.08,1.46-6.08,1.46c-0.14,0.04-5.98,1.3-5.98,1.3l-0.25,0.05c0.16-0.05-0.51,0.09-0.51,0.09
			c0.16-0.02-0.6,0.14-0.6,0.14l-5.07,1.04c-0.19,0.04-5.52,1.02-5.52,1.02c0.16-0.05-0.51,0.08-0.51,0.08
			c0.17-0.01-5.81,1.01-5.81,1.01c0.18-0.05-0.67,0.07-0.67,0.07l0.23,0l-11.12,1.62l0.25-0.08l-1,0.14l0.24,0l-6.87,0.82l0.24-0.06
			l-1.03,0.1l0.27,0.02c-6.39,0.7-12.85,1.22-19.21,1.57l0.32-0.09l-1.3,0.08l0.32,0.05l-6.05,0.27l0.32-0.07l-1.29,0.04l0.32,0.05
			l-3.84,0.12l0.31-0.07l-1.25,0.04l0.31,0.05c0,0-7.33,0.07-7.33,0.07c-0.36,0.08-0.73,0.08-1.06-0.07l0.34,0.07
			c0,0-8.55-0.12-8.59-0.12c-0.36,0.08-0.72,0.07-1.06-0.09l0.33,0.08c0,0-7.79-0.32-7.87-0.33c-0.38,0.08-0.78,0.05-1.13-0.15
			l0.35,0.1c0,0-8.69-0.6-8.81-0.61c-0.42,0.09-0.86,0.04-1.24-0.2l0.37,0.13c0,0-10.64-1.07-10.8-1.08
			c-0.43,0.08-0.88,0.02-1.24-0.24l0.36,0.14c0,0-8.38-1.13-8.57-1.15c-0.45,0.08-0.91-0.01-1.29-0.3l0.37,0.16
			c0,0-8.23-1.35-8.45-1.39c-0.47,0.08-0.94-0.02-1.31-0.34l0.37,0.18c0,0-7.48-1.44-7.71-1.48c-0.44,0.05-0.89-0.05-1.24-0.35
			l0.34,0.17c0,0-6-1.33-6.24-1.38c-0.44,0.04-0.89-0.08-1.24-0.39l0.34,0.18c0,0-6.25-1.54-6.51-1.61
			c-0.44,0.04-0.89-0.1-1.23-0.41l0.33,0.18l-8.84-2.44l0.34,0.03l-1.28-0.38l0.3,0.16l-8.1-2.53l0.29,0.04l-1.12-0.37l0.26,0.14
			l-6.85-2.38l0.24,0.05l-0.92-0.33l0.21,0.12l-6.09-2.29c0.12,0.04-0.36-0.16-0.36-0.16c0.11,0.06-5.71-2.32-5.71-2.32
			c-0.02-0.01-0.27-0.12-0.56-0.24C15,122.51,15.06,122.73,15.11,122.92z M212.08,124.58c0.62,0.88,4.94,7.09,5.46,7.84
			c0.68-0.16,2.96-0.71,4.34-1.04c-1.22-1.56-6.75-8.65-6.98-8.95c-0.16-0.06-0.31-0.12-0.58-0.23
			C213.61,123.08,212.86,123.87,212.08,124.58z M54.7,132.05c0.24,0.06,1.15,0.29,2.28,0.57c-1.86-2.43-6.33-8.26-6.62-8.64
			c-0.27-0.05-1.09-0.21-2.17-0.42C49.95,125.85,54.42,131.7,54.7,132.05z M180.42,124.65c0.75,1.07,2.51,3.58,3.42,4.88
			c0.66-1.2,1.4-2.22,1.96-2.9c-0.94-0.75-1.89-1.71-2.84-2.9C182.38,123.94,181.36,124.3,180.42,124.65z M120.19,133.18
			c1.75,0.17,4.6,0.45,5.16,0.51c0.45-0.52,4.49-5.14,5.24-6c-1.06-0.94-2.02-2-2.87-3.12
			C126.83,125.58,121.68,131.47,120.19,133.18z M99.63,131.15c2.04,0.2,6.81,0.67,7.43,0.73c0.4-0.46,3.93-4.5,5.6-6.4
			c-2.49,0.19-4.98-0.05-7.37-0.8C104.79,125.24,101.04,129.54,99.63,131.15z M62.07,133.86c0.24,0.05,1.06,0.24,2.12,0.47
			c-1.85-2.41-6.73-8.78-7.04-9.18c-0.27-0.04-1.01-0.17-2.01-0.33C56.87,127.09,61.78,133.49,62.07,133.86z M173.9,126.35
			c0.94,1.32,4.76,6.67,5.4,7.57c0.62-0.33,1.44-0.78,1.44-0.78s0.64-0.38,1.14-0.68c-0.76-1.08-4.29-6.12-4.79-6.83
			C176.45,125.79,175.04,126.1,173.9,126.35z M69.16,135.42c0.34,0.07,2.07,0.41,3.75,0.74c-1.84-2.4-7.26-9.47-7.59-9.9
			c-0.39-0.05-1.97-0.25-3.53-0.46C63.49,128.02,68.85,135.02,69.16,135.42z M207.06,127.81c0.77,1.11,3.71,5.33,4.18,6.01
			c0.48-0.1,2.01-0.42,2.85-0.6c-0.97-1.4-4.03-5.8-4.63-6.66C208.69,127.05,207.88,127.45,207.06,127.81z M77.72,137.05
			c0.38,0.06,2.71,0.45,4.6,0.77c-1.44-1.87-3.94-5.1-4.24-5.49c-0.53-0.05-2.58-0.26-2.58-0.26c-0.16-0.04-0.48-0.13-0.48-0.13
			l-0.11-0.03l-0.1-0.08l-0.25-0.16c-0.07-0.09-0.28-0.35-0.28-0.35l-0.1-0.12l-0.13-0.45c-0.02-0.2-0.03-0.44-0.03-0.44
			c0.04-0.17,0.14-0.5,0.14-0.5l0.03-0.11l0.08-0.11l0.15-0.22c0,0,1.03-1.17,1.87-2.13c-1.76-0.14-4.57-0.37-6.51-0.53
			C71.44,128.86,77.4,136.63,77.72,137.05z M166.71,126.97c-0.97,1.48-3.13,4.18-6.24,5.41c0.04,0.57,0.09,1.37,0.09,1.37
			c0,1.76-0.31,4.42-1.78,7.11c-0.01,0.01-0.11,0.18-0.25,0.39c1.81-0.14,4.76-0.36,5.61-0.42c0.13-1.01,0.66-5.28,0.66-5.28
			l0.79-0.39c2.06-1.03,3.7-4.25,4.37-8.29C168.83,126.91,167.29,126.96,166.71,126.97z M26.54,136.01c0.4,0.14,11.5,4.02,11.5,4.02
			l-0.23,0.75l-0.95,2.91c0,0-3.07-1.05-5.19-1.77c7.57,8.32,14.06,13.88,15.19,14.84c6.7,0.85,11.98,3.35,15.74,7.4
			c8.91-0.84,16.85,0.56,26.26,9.67c9.36-2.68,19.96-1.06,27.3,4.17c8.61-3.3,19.59-1.7,27.52,0.33
			c11.01-10.15,21.31-7.42,28.16-5.58c0,0,1.05,0.27,1.61,0.42c9.34-7.96,21.73-7.38,26.16-6.85c3.67-11.18,10.09-20.74,13.72-25.57
			c-89.59,19.35-157.93,1.43-192.27-11.9C22.8,131.23,24.57,133.64,26.54,136.01z M41.92,145.29l1.13-3.68l11.41,3.31l-1.02,3.71
			L41.92,145.29z M60.91,150.57l0.92-3.74l9.78,2.28l-0.83,3.76L60.91,150.57z M78.55,154.47l0.72-3.78l11.32,1.98l-0.61,3.8
			L78.55,154.47z M95.07,157.23l0.52-3.81l10.82,1.33l-0.41,3.83L95.07,157.23z M112.45,159.17l0.31-3.84l11.67,0.77l-0.2,3.84
			L112.45,159.17z M132.48,160.24l0.08-3.85l11,0.06l0.03,3.85L132.48,160.24z M152.02,156.27l10.34-0.5l0.23,3.84l-10.43,0.5
			L152.02,156.27z M169.87,155.24l11.67-1.06l0.39,3.83l-11.76,1.07L169.87,155.24z M189.89,153.26l12.12-1.55l0.52,3.81
			l-12.18,1.56L189.89,153.26z M201.04,129.31c1.03,1.45,3.68,5.15,4.13,5.79c0.69-0.14,2.55-0.53,2.59-0.54
			c-0.95-1.36-3.51-5.04-3.93-5.64C202.91,129.13,201.97,129.23,201.04,129.31z M195.46,130.34c0.57,0.8,3.66,5.13,4.14,5.8
			c0.46-0.09,1.13-0.21,2.01-0.37c-1.05-1.47-4.23-5.93-4.55-6.38c-0.27-0.04-0.42-0.06-0.73-0.1
			C196.07,129.59,195.78,129.95,195.46,130.34z M133.02,129.9c0.21,0.24,1.58,1.83,2.65,3.06c-0.38-0.7-0.65-1.49-0.86-2.34
			c-0.34-0.2-1.01-0.58-1.61-0.92C133.11,129.8,133.11,129.8,133.02,129.9z M171.1,133.76c0.4,0.56,2.42,3.39,3.16,4.43
			c0.74-0.88,1.52-1.68,2.36-2.38c-0.54-0.75-2.88-4.03-4.06-5.69C172.18,131.47,171.7,132.7,171.1,133.76z M148.09,132.47
			c0,0.08-0.03,0.72-0.03,0.72c0.12,0.16,1.23,1.39,1.83,2.06c1.15,1.28,2.98,3.41,4.63,5.97c0.27-0.35,0.49-0.63,0.76-0.99
			c-0.37-0.44-3.58-4.3-7.15-8.58C148.12,131.66,148.09,132.47,148.09,132.47z M128.66,134.89c0.84,0.89,6.36,6.73,6.78,7.17
			c0.41,0,2.18-0.01,3.74-0.02c-1.66-1.92-7.4-8.56-8.33-9.64C130.18,133.15,129.2,134.27,128.66,134.89z M87.05,138.57
			c0.41,0.06,2.91,0.4,4.81,0.66c-1.46-1.9-4.32-5.6-4.63-6c-0.44-0.04-2.83-0.28-4.66-0.46C83.97,134.58,86.76,138.19,87.05,138.57
			z M192.14,135.26l0.02-0.03c0,0-0.08,0.11-0.13,0.18c0.36,0.52,0.94,1.35,1.27,1.82c0.16-0.03,1.57-0.26,2.72-0.46
			c-0.77-1.08-1.84-2.58-2.58-3.61C192.88,134.07,192.14,135.26,192.14,135.26z M96.47,139.81c0.45,0.05,4.07,0.42,6.44,0.67
			c-1.92-1.98-5.83-6-6.14-6.31c-0.39-0.04-3.12-0.31-5.04-0.5C93.15,135.52,96.15,139.41,96.47,139.81z M107.94,140.95
			c0.38,0.03,2.85,0.2,4.81,0.34c-1.78-1.88-5.48-5.79-5.79-6.13c-0.38-0.04-3.04-0.3-5.13-0.5
			C103.74,136.63,107.62,140.62,107.94,140.95z M117.58,141.61c0.38,0.01,2.21,0.09,3.9,0.16c-1.69-1.78-5.09-5.38-5.4-5.71
			c-0.36-0.04-2.32-0.23-4.13-0.41C113.75,137.57,117.24,141.26,117.58,141.61z M143.45,141.97c0.31-0.01,0.56-0.02,0.87-0.03
			c-0.46-0.75-1.74-2.83-1.91-3.1c-1.48-0.79-2.76-1.64-3.88-2.57C140.98,139.11,143.24,141.72,143.45,141.97z M167.87,137.45
			c-0.05,0.38-0.25,2.02-0.39,3.11c1.07-0.11,2.77-0.28,4.14-0.42c-0.85-1.19-2.03-2.85-2.62-3.67
			C168.63,136.82,168.27,137.18,167.87,137.45z M126.16,141.95c0.42,0.01,2.86,0.05,4.73,0.08c-1.54-1.63-4.29-4.55-4.74-5.01
			c-0.01,0-0.27,0.02-0.27,0.02c-0.01,0-2.78-0.27-4.82-0.47C122.79,138.38,125.83,141.6,126.16,141.95z M189.17,137.89
			c0.15-0.02,0.49-0.07,0.53-0.08c-0.06-0.09-0.07-0.1-0.12-0.18C189.46,137.7,189.32,137.79,189.17,137.89z"/>
	</g>
</svg>
