<?xml version="1.0" encoding="iso-8859-1"?>
<!-- Generator: Adobe Illustrator 11 Build 196, SVG Export Plug-In . SVG Version: 6.0.0 Build 78)  -->
<!DOCTYPE svg PUBLIC "-//W3C//DTD SVG 1.0//EN"    "http://www.w3.org/TR/2001/REC-SVG-20010904/DTD/svg10.dtd" [
	<!ENTITY ns_flows "http://ns.adobe.com/Flows/1.0/">
	<!ENTITY ns_svg "http://www.w3.org/2000/svg">
	<!ENTITY ns_xlink "http://www.w3.org/1999/xlink">
	<!ENTITY st0 "fill:#0A0809;">
]>
<svg  xmlns="&ns_svg;" xmlns:xlink="&ns_xlink;" xmlns:a="http://ns.adobe.com/AdobeSVGViewerExtensions/3.0/"
	 width="229.05" height="138.36" viewBox="0 0 229.05 138.36" style="overflow:visible;enable-background:new 0 0 229.05 138.36"
	 xml:space="preserve">
	<g id="Pfade">
		<path style="&st0;" d="M34.4,79.13c-5.41,4.19-10.8,5.15-15.51,2.82c-4.63-2.29-8-7.55-8-12.52c0-4.98,3.59-10.51,8.54-13.16
			c2.84-1.52,7.23-2.65,12.03,0.49c0.07,0.06,8.45,6.66,13.62,10.74l8.88-6.88c-6.2-4.89-16.01-12.62-16.01-12.62
			c-0.11-0.09-0.23-0.17-0.35-0.26c-7.18-4.78-15.68-5.18-23.32-1.09C5.75,51.24,0,60.4,0,69.44c0,9.04,5.79,18.2,14.07,22.29
			c8.43,4.16,18.27,2.72,26.98-3.96C41.85,87.15,73.3,62.81,84,54.52l-8.71-7.04C66,54.67,39.48,75.2,34.4,79.13z"/>
		<path style="&st0;" d="M168.08,21.08c0.04-0.46,0.06-0.92,0.06-1.38c0-4.13-1.49-8.02-4.36-11.33c-0.03-0.03-0.05-0.06-0.08-0.09
			c-12.62-13.95-30.79-6.92-42.51,3.33c-0.56,0.49-25.79,20.26-32.59,25.53l8.68,7.06c6.89-5.36,30.6-23.96,31.08-24.39
			c1.01-0.88,6.36-5.39,12.62-7.43c8.06-2.63,12.17,0.52,14.57,3.15c1.15,1.34,1.68,2.63,1.68,4.14c0,0.18-0.01,0.36-0.02,0.54
			c-0.2,2.45-1.97,7.67-11.21,15.93l8.71,6.8C163.14,35.09,167.54,27.91,168.08,21.08z"/>
		<path style="&st0;" d="M113.47,60.77L105,67.94c-7.01-5.67-27.39-22.26-27.39-22.26c-6.32-5.38-12.58-14.87-12.66-24.43
			c0-0.07,0-0.13,0-0.2c0-6.26,2.63-11.8,7.62-16.03c6.4-5.43,13.94-6.46,22.41-3.06c6.43,2.58,12.48,7.36,17.83,11.57
			c0,0,0.33,0.26,0.78,0.61l-8.73,7.01c-10.87-8.51-18.6-13.45-25.24-7.82c-2.54,2.15-3.77,4.68-3.77,7.72c0,0.03,0,0.07,0,0.1
			c0.05,5.97,4.64,12.82,9.15,16.5C85.39,37.98,106.8,55.37,113.47,60.77z"/>
		<path style="&st0;" d="M67.16,71.04l-8.85,6.91c6.85,5.4,41.52,32.75,46.61,36.77l8.66-7.05
			C108.86,103.93,74.37,76.73,67.16,71.04z"/>
		<path style="&st0;" d="M142.17,53.96l-8.71-6.87c-4.63,4.04-34.88,29.8-44.46,37.69l8.85,6.91
			C103.21,87.35,137.08,58.4,142.17,53.96z"/>
		<path style="&st0;" d="M100.4,121.71c-5.88,4.55-12.47,6.59-17.62,5.46c-2.59-0.57-4.44-1.88-5.48-3.88
			c-0.63-1.21-0.92-2.65-0.92-4.23c0-5.22,3.24-11.93,8.24-16.85l-8.63-6.81c-6.16,6.48-10.56,15.29-10.56,23.57
			c0,3.25,0.68,6.42,2.19,9.34c2.53,4.87,7.08,8.24,12.81,9.5c8.28,1.82,18.23-0.98,26.64-7.49c0.02-0.02,0.04-0.03,0.06-0.04
			c3.04-2.42,30.48-24.32,35.78-28.56l-8.83-6.89C128.77,99.08,102.7,119.88,100.4,121.71z"/>
		<path style="&st0;" d="M126.86,24.54l-8.85,6.91c4.72,3.72,39.55,31.27,45.61,36.07l8.63-7.07
			C166.2,55.65,131.66,28.33,126.86,24.54z"/>
		<path style="&st0;" d="M156.06,91.15c6.7-5.39,11.71-9.42,15.68-12.62c1.02-0.82,11.85-9.09,11.58-9.3
			c2.85-2.26,5.52-4.33,9.07-7.02c6.64-5.04,13.34-6.31,18.89-3.56c4.12,2.04,6.88,6.11,6.88,10.12c0,3.9-2.91,7.99-7.24,10.19
			c-5.65,2.86-12.41,1.93-18.56-2.56c-0.66-0.52-3.14-2.49-6.84-5.42l-8.71,7c5.32,4.22,8.74,6.93,8.89,7.05
			c0.05,0.04,0.11,0.08,0.16,0.13c9.59,7.03,20.52,8.32,29.98,3.52c8.03-4.07,13.21-11.88,13.21-19.91
			c0-8.18-5.08-15.99-12.94-19.89c-9.31-4.62-20.36-2.92-30.32,4.65c-4.43,3.37-20.57,16.26-20.9,16.52
			c-4.35,3.52-9.95,8.04-17.68,14.25L156.06,91.15z"/>
		<path style="&st0;" d="M153.79,92.99c0,0-20.02-15.87-27.38-21.79l-8.47,7.18c6.96,5.6,26.92,21.78,27.18,21.56
			c6.77,5.52,10.22,10.87,10.22,15.96c0,1.69-0.37,3.35-1.12,4.97c-1.17,2.53-3.14,4.2-5.85,4.95c-4.84,1.34-11.34-0.42-17.87-4.82
			c-0.02-0.01-1.97-1.55-3.64-2.87l-8.81,6.93c2.45,1.93,5.9,4.65,5.9,4.65c0.1,0.08,0.21,0.16,0.31,0.23
			c9.36,6.36,18.96,8.63,27.04,6.39c5.78-1.61,10.34-5.47,12.83-10.89c1.11-2.41,2.13-5.67,2.13-9.54
			C166.25,109.52,163.46,101.51,153.79,92.99z"/>
	</g>
</svg>
