<?xml version="1.0" encoding="iso-8859-1"?>
<!-- Generator: Adobe Illustrator 11 Build 196, SVG Export Plug-In . SVG Version: 6.0.0 Build 78)  -->
<!DOCTYPE svg PUBLIC "-//W3C//DTD SVG 1.0//EN"    "http://www.w3.org/TR/2001/REC-SVG-20010904/DTD/svg10.dtd" [
	<!ENTITY ns_flows "http://ns.adobe.com/Flows/1.0/">
	<!ENTITY ns_svg "http://www.w3.org/2000/svg">
	<!ENTITY ns_xlink "http://www.w3.org/1999/xlink">
	<!ENTITY st0 "fill:none;stroke:#000000;stroke-width:0.8373;stroke-linecap:round;stroke-linejoin:round;stroke-miterlimit:2;">
	<!ENTITY st1 "stroke:#000000;stroke-width:0.8373;stroke-linecap:round;stroke-linejoin:round;stroke-miterlimit:2;">
]>
<svg  xmlns="&ns_svg;" xmlns:xlink="&ns_xlink;" xmlns:a="http://ns.adobe.com/AdobeSVGViewerExtensions/3.0/"
	 width="157.69" height="202.84" viewBox="0 0 157.69 202.84" style="overflow:visible;enable-background:new 0 0 157.69 202.84"
	 xml:space="preserve">
	<g id="Bild">
		<path style="&st1;" d="M87.07,80.91c-1.63-0.32-3.05-0.32-5.34-0.62c1.19-5.03,3.76-10.25,4.75-14.82
			c4.73-2.31,4.21-10.39,2.03-12.72c1.91-0.75,2.25-0.82,2.77-1.42C92.94,57.04,91.01,72.68,87.07,80.91z"/>
		<path style="&st1;" d="M91.5,124.57c1.44,0.56,1.78,2.41,3.17,2.98c-3.66,8.87-7.85,20.15-12.94,28.71
			c-1.86-1.76-4.21-2.82-5.72-3.96C81.25,146.53,90.24,130.12,91.5,124.57z"/>
		<path style="&st1;" d="M74.51,116.72c4.48,2.67,7.78,5.67,11.78,9.56l3.28-3.4c-2.2-2.8-4.34-5.37-7.14-7.13
			c7.23-8.53,12.1-17.16,13.84-24.74c-1.28-0.64-1.83-0.84-3.01-1.78C91.03,97.12,80.85,110.08,74.51,116.72z"/>
		<path style="&st0;" d="M0.42,0.67C3.94,6.61,5.2,14.05,11.07,18.49c4.93,3.73,11.39,5.11,17.13,7.7"/>
		<path style="&st0;" d="M31.68,34.13c-0.88-1.79-2.5-6.09-3.48-7.94c-0.74-3.61-0.8-7.43-2.2-10.75
			C23.38,9.22,22.18,5.41,14.48,1.3C11.36-0.36,3.97,0.88,0.42,0.67"/>
		<path style="&st0;" d="M7.27,4.61c6.41,4.69,12.5,9.62,17.11,15.43"/>
		<path style="&st0;" d="M37.85,32.97c9.09-4.64,14.54-18.78,16.47-28.68"/>
		<path style="&st0;" d="M37.34,28.68c1.19-8.79,8.09-13.19,12.15-21.37"/>
		<path style="&st0;" d="M75.4,32.18c-9.94-0.11-11.2-10.89-14.9-17.72"/>
		<path style="&st0;" d="M62.59,13.92c5.81,0.74,13.4,4.42,15.52,10.61c0.52,1.52,0.28,3.02,0.05,4.43"/>
		<path style="&st0;" d="M35.32,31.03c-0.85-4.15-4.56-9.7-1.43-16.91c3.42-7.86,13.29-8.7,19.04-11.2"/>
		<path style="&st0;" d="M87.31,50.22c-1.7-3.07,0.35-4.56-3.44-8.48"/>
		<path style="&st0;" d="M85.41,41.95c-1.91-1.4-4.38-7.33-6.67-10.17"/>
		<path style="&st0;" d="M84.49,38.51c-1.04-9.29-3.66-19.87,6.05-25.81c10.51-6.43,17.44,0.35,20.56,3.47
			c-5.15,13.27-17.58,15.97-25.56,23.75"/>
		<path style="&st0;" d="M85.24,34.83c2.74-8.57,13.1-16.91,18.42-18.08"/>
		<path style="&st0;" d="M66.34,17.54c3.71,2.66,5.91,6.31,8.86,9.47"/>
		<path style="&st0;" d="M33.57,40.79c-1.3,3.58-4.06,5.23-9.5,5.79c-4.19,0.43-13.54-1.93-18.14-7.73
			c2.94-1.11,6.98-5.59,14.63-6.3c2.64-0.24,11.95-0.09,13.29,7.01"/>
		<path style="&st0;" d="M17.94,39.56c4.45,0.03,8.92-0.28,13.16,0.82"/>
		<path style="&st0;" d="M67.41,36.98c-6.11,1.46-13.75,6.37-21.27,9.9c-1.34-1.95,0.87-5.39,3.17-8.02
			c7.62-8.71,20.26-5.96,24.93-2.42"/>
		<path style="&st0;" d="M74.24,36.44c-1.31,1.98-3.22,2.04-6.44,7.19c-3.89,6.24-16.6,10.76-20.82,4.79"/>
		<path style="&st0;" d="M123.68,39.67c-5.82-3.06-8.11-7.51-8.04-13.93"/>
		<path style="&st0;" d="M128.06,40.5c11.6-11.22-1.26-17.69-12.42-14.77"/>
		<path style="&st0;" d="M121.88,30.46c2.83,1.3,2.91,8.38,4.34,8.69"/>
		<path style="&st0;" d="M104.28,39.09c1.34,5.5,6.24,13.87,14.49,14"/>
		<path style="&st0;" d="M119.66,52.17c-1.83-5.29-12.42-10.34-14.03-13.18"/>
		<path style="&st0;" d="M121.33,52.02c-0.57-7.47-9.56-13.32-14.57-13.26"/>
		<path style="&st0;" d="M128.06,40.5c2.33,1.98-4.7,6.37-5.62,10.66"/>
		<path style="&st0;" d="M88.51,52.75c-6.19-4.5-19.73,0.53-24.22,4.52"/>
		<path style="&st0;" d="M43.98,69.22c-7.15,8.94-23.88,2.57-31.31-1.61c14.39-10.1,23.59-8.99,29.52-2.66"/>
		<path style="&st0;" d="M42.05,68.48c-5.23-1.75-10.78-2.16-16.2-2.76"/>
		<path style="&st0;" d="M87.43,61.77c-4.89-4.74-15.24-4.19-20.32-3.23"/>
		<path style="&st0;" d="M67.31,64.06c-4.59,3-5.25,7.41-5.01,12.06"/>
		<path style="&st0;" d="M52.5,71.22c0.62-0.3,2.15-3.39,3.98-6.15"/>
		<path style="&st0;" d="M132.96,63.75c-3.91-2.73-3.7-5.87-9.16-6.76c-6.27-1.03-12.55,0.08-20.99,7.71"/>
		<path style="&st0;" d="M86.48,65.47c-1.62,1.13-4.18,1.88-6.48,2.18c-5.46,0.71-16.48-7.16-17.19-7.87"/>
		<path style="&st0;" d="M80,67.65c-1.47,4.23-5.1,10.17-11.48,12.76"/>
		<path style="&st0;" d="M70.89,69.51c-1.33,1-5.27,6.86-6.71,8.86"/>
		<path style="&st0;" d="M133.21,59.43c2.64-0.65,4.96-2.81,6.03-3.03"/>
		<path style="&st0;" d="M129.28,63.22c-2.79-0.68-17.79-1.34-25.84,6.88"/>
		<path style="&st0;" d="M49.77,80.75c-7.46,3.87-12.24,8.7-16.36,15.73"/>
		<path style="&st0;" d="M133.3,66.67c-3.8,1.03-11.06,5.47-14.28,6.44c-4.43,1.33-11.28,2.84-15.33,0.04"/>
		<path style="&st0;" d="M49.77,80.75c0.66,0.81,2.78,7.2-1.27,11.16c-4.37,4.27-14.46,6.79-17.69,11.73"/>
		<path style="&st0;" d="M84.97,101.1c-8.26,0.34-21.21-8.57-23.51-16.9"/>
		<path style="&st0;" d="M88.58,95.76c-3.43-5.62-16.64-14.99-24.73-13.48"/>
		<path style="&st0;" d="M67,85.85c4.49,2.33,13.47,5.81,17.15,10.44"/>
		<path style="&st0;" d="M113.42,84.41c3.88-0.9,3.4-3.15,6.41-4.19c2.99-1.04,12.17-3.17,19.82,2.36
			c5.76,4.16,3.8,14.39,4.19,19.98"/>
		<path style="&st0;" d="M30.82,103.64c-0.99-10.05,0.75-17.25,4.91-21.41c4.16-4.16,9.84-5,14.04-1.48"/>
		<path style="&st0;" d="M140.4,95.99c-5.52-4.85-13.11-13.13-21.35-11.19"/>
		<path style="&st0;" d="M63.78,111.22c-3.22-3.19-14.61-8.77-18.51-9.04c-6.96-0.48-13.01,2.83-21.61,7.19"/>
		<path style="&st0;" d="M116.2,87.94c1.26,8.35,22.03,11.7,24.74,12.96"/>
		<path style="&st0;" d="M63.78,111.22c-10.62,13.92-30.56,6.46-40.12-1.84"/>
		<path style="&st0;" d="M42.05,109.46c2.91-0.38,10.68,2.09,17.62,3.02"/>
		<path style="&st0;" d="M130.27,137.58c1.53,3.32,3.86,4.45,6.85,5.91c7.03,3.44,16.05,0.52,20.16,1.82"/>
		<path style="&st0;" d="M134.77,136.2c6.02-2.34,14.77,2.02,16.12,2.77"/>
		<path style="&st0;" d="M157.28,145.31c-2.28-15.35-13.53-19.58-20.24-14.79c-2.41,0.75-3.86,2.84-6.14,3.82"/>
		<path style="&st0;" d="M128.43,134.84c-1.03,3.33-5.52,4.52-10.96,9.12"/>
		<path style="&st0;" d="M144.11,168.73c-7.81-6.86-26.77-10.94-28.74-22.67"/>
		<path style="&st0;" d="M144.11,168.73c1.22-11.79-1.37-23.44-22.48-24.25"/>
		<path style="&st0;" d="M142.01,163.26c-5.72-5.84-11.98-13.02-19.74-15.88"/>
		<path style="&st0;" d="M114,187.19c-4.92,1.01-10.35-10.15-11.19-16.01"/>
		<path style="&st0;" d="M114,187.19c0.11-4.43,4.31-17.67-4.91-28.57"/>
		<path style="&st0;" d="M108.37,168.43c1.84,3.13,2.41,9.68,3.57,13.29"/>
		<path style="&st0;" d="M31.7,109.01c3.86,0.07,3.78-0.34,7.06,0.05"/>
		<path style="&st0;" d="M81.74,156.26l-1.38,3.7c6.39,4.08,11.54,9.86,17.95,14.02c0.89-0.27,2-1.69,2.29-2.78
			c9.79-18.15,15.77-35.53,17.93-55.11c-2.74-3.37-8.79-4.54-12.12-8.31"/>
		<path style="&st0;" d="M96.21,91.13c1.3-2.05,2.26-5.55,3.26-11.64c1.51-9.2,2.76-21.67,2.68-23.11C98.1,53,96.49,53,91.28,51.33
			c0.47-1.52,0.59-6.53-0.09-7.75"/>
		<path style="&st0;" d="M105.9,83.98c3.46,1.47,5.32-4.42,6.79-4.81c-5.55,5.06,2.11,10.94-3.87,16.22"/>
		<path style="&st0;" d="M96.21,91.13c-0.63-0.58-1.7-1.26-2.94-1.91c-2.94-1.54-6.87-2.96-8.28-2.85c1.51-3.09,1.81-4.73,2.4-6.05"
			/>
		<path style="&st0;" d="M96.21,91.13"/>
		<path style="&st0;" d="M83.25,115.57c4.25,4.05,8.24,9.16,11.74,11.65c7.03-8.49,9.35-12.81,11.41-19.43
			c1.29-4.12,2.11-13.92,4.13-17.84c0.57-1.4-9.1-9.59-11.08-10.47"/>
		<path style="&st0;" d="M130.23,55.33c5.36-4.09,12.77-0.79,14.88-0.37c-3,2.19-4.51,6.8-8.75,9.48"/>
		<path style="&st1;" d="M69.92,117.76c0.47,1.33,3.03,9.1,3.74,10.99c1.3-1.49,4.83-5.1,5.45-6.24c1.2,0.87,0.94,0.6,0.94,0.6
			c-1.67,2.33-5.47,6.47-5.75,7.22c-1.16,3.18-6.6,18.29-8.29,23.33c2.25-0.56,7.06-1.42,8.15-1.52c-0.22,0.77,0.38,1.87,0.88,2.22
			c-3.46,0.57-10.06,1.69-10.46,2.63c-2.38,5.62-7.86,18.27-14.37,30.07c-1.43,2.59-5.65,8.95-10.86,15.36
			c-0.56-1.43-0.16-2.1-1.12-3.4c2.43-2.87,8.74-11.6,10.25-14.17c2.81-4.79,6.98-12.11,9.58-18.2c2.6-6.09,8.22-19.09,10.33-25.51
			c1.14-3.46,3.69-7.81,3.8-9.38c0.15-2.16-0.54-3.87-1.15-5.91c-1.56-5.18-2.59-8.76-4.4-12.88c-0.69-1.58-1.03-1.66-2.22-1.47
			l-0.07-0.62c0.23,0.09,1,0.13,1.46,0.08c0.18-0.95-4.73-12.51-6.75-20.2c-0.97-3.7-2.43-6.02-5.52-11.58
			c-1.86-3.36-6.09-7.84-9.12-10.1c-1.47-4.08-1.37-5.38-2.26-9.47c-0.89-4.11,0.25-6.92-0.84-9.34c-0.97-2.15-3.81-6.11-5.14-8.4
			c-1.32-2.29-1.92-1.62-1.33-3.63c0.54-1.82,0.77-2.51,0.65-5.21l0.86,0.04c0.22,1.88-0.01,3.37-0.86,6.26
			c0.67,1.98,2.58,3.75,4.03,6.12c1.57,2.58,2.13,3.62,2.87,4.65c1.15-0.66,2.12-1.93,2.65-2.26l0.55,0.64
			c-0.82,0.43-1.55,1.55-3.01,2.54c0.86,3.4,0.06,5.01,0.63,8.31c0.67,3.89,1.28,5.99,2.32,9.25c4.87,3.17,7.35,7.41,9.26,10.29
			c1.93,2.92,4.64,8.46,5.28,10.67c0.72,2.47,1.1,4.1,2.5,8.04c1.4,3.97,1.88,5.66,3.2,8.85C67.69,111.01,69.16,115.62,69.92,117.76
			z"/>
	</g>
</svg>
