<?xml version="1.0" encoding="iso-8859-1"?>
<!-- Generator: Adobe Illustrator 11 Build 196, SVG Export Plug-In . SVG Version: 6.0.0 Build 78)  -->
<!DOCTYPE svg PUBLIC "-//W3C//DTD SVG 1.0//EN"    "http://www.w3.org/TR/2001/REC-SVG-20010904/DTD/svg10.dtd" [
	<!ENTITY ns_flows "http://ns.adobe.com/Flows/1.0/">
	<!ENTITY ns_svg "http://www.w3.org/2000/svg">
	<!ENTITY ns_xlink "http://www.w3.org/1999/xlink">
	<!ENTITY st0 "fill:none;stroke:#000000;stroke-linecap:round;stroke-linejoin:round;">
	<!ENTITY st1 "fill:none;stroke:#000000;">
]>
<svg  xmlns="&ns_svg;" xmlns:xlink="&ns_xlink;" xmlns:a="http://ns.adobe.com/AdobeSVGViewerExtensions/3.0/"
	 width="368.85" height="169.59" viewBox="0 0 368.85 169.59" style="overflow:visible;enable-background:new 0 0 368.85 169.59"
	 xml:space="preserve">
	<g id="Pfade">
		<line style="&st0;" x1="167.67" y1="25.51" x2="182.52" y2="0.5"/>
		<line style="&st0;" x1="139.57" y1="72.85" x2="165.15" y2="29.75"/>
		<line style="&st0;" x1="107.8" y1="126.37" x2="136.7" y2="77.69"/>
		<polyline style="&st0;" points="182.52,0.5 153.27,0.88 50.93,163.64 85.68,163.64 104.02,132.74 "/>
		<polyline style="&st0;" points="50.93,163.64 50.93,169.09 86.28,169.09 86.28,163.34 "/>
		<line style="&st0;" x1="108.76" y1="131.23" x2="86.28" y2="169.09"/>
		<line style="&st0;" x1="140.53" y1="77.7" x2="112.52" y2="124.88"/>
		<line style="&st0;" x1="168.17" y1="31.13" x2="143.46" y2="72.76"/>
		<polyline style="&st0;" points="182.52,0.5 183.12,5.95 170.69,26.88 "/>
		<path style="&st0;" d="M144.87,14.31L89,7.7c-1.33-0.15-2.52,0.77-2.68,2.05c-0.15,1.28,0.8,2.44,2.12,2.59l53.61,6.1"/>
		<path style="&st0;" d="M135.3,29.33l-57.66-3.96c-1.33-0.09-2.49,0.88-2.58,2.16c-0.09,1.28,0.91,2.4,2.24,2.49l55.2,3.83"/>
		<path style="&st0;" d="M123.04,48.7L63.7,45.49c-1.33-0.07-2.47,0.91-2.55,2.2c-0.08,1.29,0.94,2.39,2.28,2.46l56.81,3.08"/>
		<path style="&st0;" d="M111.97,66.24L51.59,65.6c-1.33-0.01-2.43,1.02-2.44,2.31c-0.02,1.29,1.05,2.34,2.39,2.36l57.5,0.69"/>
		<path style="&st0;" d="M100.69,84.54L38.93,84.5c-1.33,0-2.42,1.04-2.42,2.33c0,1.29,1.08,2.33,2.42,2.33l58.64,0.09"/>
		<path style="&st0;" d="M88.84,103.34l-61.33,1.28c-1.33,0.03-2.39,1.09-2.36,2.38c0.03,1.29,1.14,2.31,2.47,2.28l58.03-1.16"/>
		<path style="&st0;" d="M76.85,122.33l-61.46,1.19c-1.33,0.03-2.39,1.09-2.36,2.38c0.03,1.29,1.13,2.31,2.47,2.28l58.42-1.22"/>
		<path style="&st0;" d="M64.4,142.08l-61.61,3.39c-1.33,0.07-2.35,1.17-2.28,2.45c0.07,1.29,1.21,2.27,2.54,2.2l58.12-3.05"/>
		<path style="&st0;" d="M266.86,76.08L89.98,132.17c-1.27,0.4-1.96,1.72-1.54,2.94c0.42,1.22,1.78,1.89,3.05,1.49l176.89-56.08
			c1.27-0.4,1.96-1.72,1.54-2.94C269.5,76.35,268.13,75.68,266.86,76.08z"/>
		<path style="&st0;" d="M126.11,72.92c-1.33,0-2.42,1.04-2.42,2.33c0,1.29,1.08,2.33,2.42,2.33h133.93c1.33,0,2.42-1.04,2.42-2.33
			c0-1.29-1.08-2.33-2.42-2.33H126.11z"/>
		<path style="&st0;" d="M153.61,21.83c-0.57,1.17-0.05,2.55,1.16,3.1l104.87,47.55c1.21,0.55,2.65,0.05,3.22-1.12
			c0.57-1.17,0.05-2.55-1.16-3.1L156.83,20.71C155.62,20.17,154.18,20.67,153.61,21.83z"/>
		<g>
			<line style="&st1;" x1="368.84" y1="74.64" x2="262.7" y2="71.38"/>
			<line style="&st1;" x1="269.67" y1="79.99" x2="368.56" y2="83.03"/>
		</g>
	</g>
</svg>
