<?xml version="1.0" encoding="iso-8859-1"?>
<!-- Generator: Adobe Illustrator 11 Build 196, SVG Export Plug-In . SVG Version: 6.0.0 Build 78)  -->
<!DOCTYPE svg PUBLIC "-//W3C//DTD SVG 1.0//EN"    "http://www.w3.org/TR/2001/REC-SVG-20010904/DTD/svg10.dtd" [
	<!ENTITY ns_flows "http://ns.adobe.com/Flows/1.0/">
	<!ENTITY ns_svg "http://www.w3.org/2000/svg">
	<!ENTITY ns_xlink "http://www.w3.org/1999/xlink">
	<!ENTITY st0 "fill:none;stroke:#000000;stroke-width:1.1385;stroke-linecap:round;stroke-linejoin:round;">
	<!ENTITY st1 "fill:none;stroke:#000000;stroke-width:1.1385;stroke-linecap:round;stroke-linejoin:round;stroke-miterlimit:2;">
]>
<svg  xmlns="&ns_svg;" xmlns:xlink="&ns_xlink;" xmlns:a="http://ns.adobe.com/AdobeSVGViewerExtensions/3.0/"
	 width="118.68" height="180.1" viewBox="0 0 118.68 180.1" style="overflow:visible;enable-background:new 0 0 118.68 180.1"
	 xml:space="preserve">
	<g id="Bild">
		<path style="&st1;" d="M59.34,179.53c-32.46,0-58.77-29.92-58.77-66.82V67.39c0-36.9,26.31-66.82,58.77-66.82
			s58.77,29.92,58.77,66.82v45.33C118.11,149.62,91.8,179.53,59.34,179.53z"/>
		<path style="&st1;" d="M59.34,169.86c-28.01,0-50.72-25.95-50.72-57.96v-44.5c0-32.01,22.71-57.96,50.72-57.96
			s50.72,25.95,50.72,57.96v44.5C110.06,143.9,87.35,169.86,59.34,169.86z"/>
		<path style="&st0;" d="M42.22,14.61c1.02,0.2,2.49,0.3,4.39,0.3c0.75,0,1.65-0.04,2.71-0.11c5.21-0.4,11.17-0.85,17.87-1.32
			c1.97-0.12,3.27-0.26,3.88-0.42c0.41-0.02,0.76-0.04,1.07-0.04c0.31,0,1,0.16,2.09,0.49c0.89,0.48,1.33,0.85,1.33,1.1
			c0,0.5-0.6,0.76-1.79,0.76c-4.02,0-9.09,0.24-15.22,0.72c0.95,0.48,1.43,0.88,1.43,1.21c0,0.23-0.05,0.47-0.15,0.72
			c0,0.3-0.09,0.95-0.26,1.93c-0.1,1.01-0.26,1.99-0.46,2.95c2.25-0.2,4.63-0.39,7.15-0.57c1.63-0.13,2.71-0.26,3.22-0.42
			c0.31-0.02,0.6-0.04,0.87-0.04c0.31,0,0.99,0.18,2.04,0.53c0.92,0.48,1.38,0.85,1.38,1.1c0,0.48-0.6,0.72-1.79,0.72
			c-3.3,0-7.44,0.22-12.41,0.64c0.54,0.43,1.29,1.01,2.25,1.74c4.94,3.96,8.49,6.66,10.67,8.09c2.25,1.39,4.65,2.61,7.2,3.67
			c0.44,0.2,0.66,0.32,0.66,0.34c0,0.33-0.27,0.58-0.82,0.76c-1.77,0.48-3.56,0.72-5.36,0.72c-0.41,0-0.8-0.14-1.17-0.42
			c-2.89-2.47-6.67-6.14-11.34-11.01c-1.26-1.31-2.37-2.37-3.32-3.18c-0.61,1.94-1.47,3.73-2.55,5.37c-1.91,2.8-4.89,5.23-8.94,7.3
			c-3.71,1.59-6.39,2.38-8.02,2.38c-0.27,0-0.41-0.05-0.41-0.15s0.26-0.24,0.77-0.42c3.51-1.13,6.49-2.67,8.94-4.61
			c3.03-2.4,5.16-5.19,6.38-8.4c0.24-0.58,0.46-1.17,0.67-1.78c-2.08,0.2-3.46,0.38-4.14,0.53C50.51,25.94,50.1,26,49.83,26
			c-0.65,0-1.35-0.15-2.09-0.46c-0.85-0.2-1.58-0.57-2.2-1.1c-0.34-0.68-0.51-1.04-0.51-1.1c1.02,0.2,2.48,0.3,4.39,0.3
			c0.61,0,1.34-0.04,2.2-0.11c1.33-0.12,2.71-0.25,4.14-0.38c0.31-1.49,0.46-3,0.46-4.54c0-0.93-0.27-1.7-0.82-2.31
			c-3.54,0.3-5.84,0.56-6.9,0.76c-0.65,0.15-1.14,0.23-1.48,0.23c-0.65,0-1.35-0.16-2.09-0.49c-0.85-0.2-1.57-0.57-2.15-1.1
			C42.4,15.05,42.22,14.69,42.22,14.61z"/>
		<path style="&st0;" d="M56.86,42.71c0.07-0.03,0.14-0.04,0.2-0.04c1.4-0.25,3.63-0.52,6.69-0.79c1.94-0.18,3.42-0.26,4.44-0.26
			c0.68,0,1.02,0.19,1.02,0.57c0,0.1-0.02,0.23-0.05,0.38l-0.92,4.16c-0.07,0.03-0.14,0.05-0.21,0.08
			c-0.71,0.13-1.46,0.24-2.25,0.34l-8.02,0.68C57.64,46.91,57.33,45.21,56.86,42.71z M45.88,40.41c0,0.15,0.15,0.37,0.46,0.64
			c0.34,0.48,0.51,0.96,0.51,1.44c0,0.68-0.61,2.16-1.84,4.43c-1.84,3.38-4.22,6.58-7.15,9.61c0,0.2,0.14,0.3,0.41,0.3
			c0.54,0,1.94-1.05,4.19-3.14c0.75-0.71,1.5-1.48,2.25-2.31c0.38,0.61,0.56,1.29,0.56,2.04v5.18c0,1.56-0.15,3-0.46,4.31
			c-0.24,0.76-0.36,1.44-0.36,2.04c0,0.91,0.32,1.75,0.97,2.53c0.58,0.68,0.99,1.02,1.23,1.02c0.82,0,1.23-0.49,1.23-1.47V54.17
			c0-1.08,0.03-1.84,0.1-2.27c0.07-0.4,0.1-0.78,0.1-1.13c0-0.45-0.5-1.01-1.48-1.66c0.95-1.26,1.89-2.63,2.81-4.12
			c0.27-0.53,0.65-0.98,1.13-1.36c0.2-0.25,0.3-0.48,0.3-0.68c0-0.45-0.53-1.03-1.58-1.74c-1.12-0.73-1.99-1.1-2.6-1.1
			C46.13,40.1,45.88,40.21,45.88,40.41z M52.82,40.71c0,0.1,0.14,0.21,0.41,0.34c0.41,0.4,0.66,0.79,0.77,1.17
			c0.34,0.83,0.85,3.06,1.53,6.69c0.17,0.83,0.48,1.25,0.92,1.25c0.65,0,1.07-0.28,1.28-0.83l12.31-0.64c1.05,0,1.58-0.24,1.58-0.72
			c0-0.23-0.27-0.5-0.82-0.83c0.44-1.19,0.71-1.85,0.82-2c0.51-1.19,1.07-1.99,1.69-2.42c0.41-0.28,0.64-0.56,0.71-0.83
			c0-0.2-0.38-0.57-1.12-1.1c-1.36-0.93-2.32-1.4-2.86-1.4c-0.1,0-0.27,0.05-0.51,0.15c-0.21,0.08-0.49,0.13-0.87,0.15
			c-4.22,0.4-8.25,0.88-12.1,1.44c-0.14-0.25-0.39-0.39-0.77-0.42c-0.95-0.2-1.6-0.3-1.94-0.3C53.43,40.48,53.09,40.58,52.82,40.71z
			 M51.03,54.78c0.41,0.23,0.97,0.5,1.69,0.83c1.06,0.5,1.77,0.76,2.14,0.76c0.17,0,0.46-0.02,0.87-0.08
			c1.29-0.28,2.52-0.48,3.68-0.6c0.27-0.02,0.54-0.05,0.82-0.08c-1.36,2.09-2.84,3.93-4.44,5.52c-1.67,1.66-4.05,3.33-7.15,4.99
			c0,0.2,0.13,0.3,0.41,0.3c1.12,0,2.62-0.54,4.49-1.63c2.11-1.18,4-2.55,5.67-4.08c1.06-0.91,2.13-1.97,3.22-3.18v4.12
			c0,1.24-0.12,2.21-0.36,2.91c-0.17,0.53-0.26,0.84-0.26,0.94c0,0.88,0.17,1.58,0.51,2.08c0.34,0.71,0.76,1.06,1.27,1.06
			c0.95,0,1.43-0.94,1.43-2.84v-9.3c0.41,0.43,0.92,0.95,1.53,1.55c3.07,3.08,5.6,5.31,7.61,6.7c0.48,0.33,2.28,0.49,5.41,0.49
			c1.46,0,2.2-0.1,2.2-0.3c0-0.02-0.19-0.1-0.56-0.23c-1.5-0.45-3.76-1.49-6.79-3.1c-2.86-1.64-5.8-3.82-8.83-6.54
			c2.79-0.23,5.12-0.34,7-0.34c0.78,0,1.69,0.03,2.71,0.07c0.71,0.05,1.28,0.08,1.68,0.08c0.68,0,1.02-0.19,1.02-0.57
			c0-0.25-0.46-0.63-1.38-1.13c-0.92-0.33-1.53-0.49-1.84-0.49c-0.14,0-0.29,0.01-0.46,0.04c-0.58,0.08-1.21,0.14-1.89,0.19
			c-2.62,0.2-5.09,0.39-7.4,0.57c0-0.48,0.02-0.97,0.05-1.48c0.1-0.38,0.15-0.66,0.15-0.83c0-0.45-0.56-0.83-1.68-1.13
			c-1.09-0.4-1.79-0.61-2.1-0.61c-0.61,0.1-1.09,0.29-1.43,0.57c0,0.08,0.17,0.24,0.51,0.49c1.26,0.78,1.89,1.84,1.89,3.18
			c-2.11,0.18-4.07,0.35-5.87,0.53c-0.48,0.08-1.04,0.11-1.69,0.11c-1.12,0-2.47-0.1-4.04-0.3C50.83,54.05,50.9,54.3,51.03,54.78z"
			/>
		<path style="&st0;" d="M57.51,122.99c1.9-0.19,3.78-0.35,5.65-0.49v2.92c-1.87,0.14-3.75,0.28-5.65,0.42V122.99z M54.32,111.09
			c0,0.21,0.47,0.56,1.4,1.04c1.13,0.56,1.98,0.83,2.56,0.83c0.16,0,0.37-0.06,0.63-0.17c0.55-0.18,1.19-0.35,1.93-0.48
			c3.09-0.55,4.81-0.83,5.17-0.83c0.51,0,0.77,0.14,0.77,0.42c0,0.09-0.18,0.32-0.53,0.69c-0.74,0.74-1.43,1.38-2.08,1.91
			c-0.61-0.14-1.35-0.29-2.22-0.45c-1.32-0.25-2.24-0.38-2.75-0.38c-0.26,0-0.39,0.09-0.39,0.28c2.06,0.86,3.62,1.7,4.68,2.53
			c0.1,0.07,0.19,0.13,0.29,0.17l-6.95,0.59c-0.19-0.07-0.44-0.14-0.73-0.21c-0.84-0.25-1.37-0.38-1.59-0.38
			c-0.55,0.09-1,0.22-1.35,0.38c0,0.12,0.21,0.27,0.63,0.45c0.71,0.53,1.06,1.11,1.06,1.73v7.98c0,0.69-0.1,1.36-0.29,1.98
			c-0.16,0.46-0.24,0.8-0.24,1.01c0,0.65,0.18,1.19,0.53,1.63c0.42,0.46,0.8,0.69,1.16,0.69c1,0,1.5-0.68,1.5-2.05v-3.26
			c1.9-0.14,3.78-0.28,5.65-0.42v1.25c0,0.6-0.06,1.19-0.19,1.77c-0.1,0.44-0.15,0.75-0.15,0.94c0,0.56,0.14,1.03,0.43,1.42
			c0.39,0.42,0.74,0.62,1.06,0.62c0.87,0,1.3-0.59,1.3-1.77v-4.37c2.03-0.12,4.04-0.22,6.04-0.31v2.78c0,0.56-0.37,0.83-1.11,0.83
			c-0.64,0-1.53-0.09-2.66-0.28c-0.13,0-0.19,0.05-0.19,0.14c0,0.07,0.24,0.25,0.73,0.55c1.54,1.11,2.58,2.01,3.09,2.71
			c0.32,0.53,0.76,0.8,1.3,0.8c0.42,0,0.82-0.46,1.21-1.39c0.45-1.13,0.68-2.02,0.68-2.67c0-0.16-0.03-0.59-0.1-1.29
			c-0.06-0.88-0.1-1.69-0.1-2.43v-5.1c0-1.23,0.16-2.1,0.48-2.64c0.29-0.32,0.43-0.62,0.43-0.9c0-0.28-0.45-0.59-1.35-0.94
			c-1.06-0.46-1.87-0.69-2.42-0.69c-0.19,0-0.53,0.05-1.01,0.14c-0.52,0.09-1.18,0.18-1.98,0.28l-2.61,0.21
			c0.1-0.18,0.15-0.44,0.15-0.76c0-0.25-0.21-0.48-0.63-0.69c1.93-1.02,3.67-1.96,5.21-2.81c0.32-0.18,0.76-0.38,1.3-0.59
			c0.35-0.09,0.53-0.22,0.53-0.38c0-0.19-0.39-0.47-1.16-0.87c-1.06-0.58-1.88-0.87-2.46-0.87c-0.07,0-0.19,0.04-0.39,0.1
			c-0.23,0.07-0.5,0.13-0.82,0.17l-8.64,1.18c-0.48,0.02-0.9,0.03-1.26,0.03c-1.12,0-2.2-0.14-3.23-0.42
			C54.44,110.53,54.32,110.72,54.32,111.09z M71.66,121.98v2.98c-1.96,0.07-3.98,0.17-6.04,0.31v-2.95
			C67.65,122.19,69.66,122.08,71.66,121.98z M57.51,119.35c0-0.21,0.02-0.49,0.05-0.83c1.51-0.14,2.88-0.25,4.1-0.35
			c0.06,0.09,0.24,0.2,0.53,0.31c0.64,0.48,0.97,0.99,0.97,1.53v1.15c-1.87,0.14-3.75,0.3-5.65,0.48V119.35z M70.35,117.58
			c0.87,0,1.3,0.31,1.3,0.94v2.12c-1.96,0.09-3.98,0.21-6.04,0.35v-0.69c0-0.19,0.02-0.43,0.05-0.73c0.1-0.28,0.14-0.53,0.14-0.76
			c0-0.21-0.53-0.44-1.59-0.69c-0.13-0.02-0.26-0.06-0.39-0.1C67.25,117.71,69.42,117.58,70.35,117.58z M41.29,112.16
			c1.93,0.95,3.56,2.04,4.88,3.26c0.55,0.53,1.06,0.8,1.55,0.8c0.87,0,1.3-0.31,1.3-0.94c0-0.42-0.32-0.88-0.97-1.39
			c-0.74-0.58-1.92-1.1-3.52-1.56c-1.32-0.3-2.33-0.45-3.04-0.45C41.35,111.88,41.29,111.98,41.29,112.16z M39.98,122.61
			c0,0.25,0.48,0.54,1.45,0.87c1.13,0.51,1.83,0.76,2.12,0.76c0.16,0,0.53-0.2,1.11-0.59c1.32-0.69,2.08-1.04,2.27-1.04
			c0.13,0,0.19,0.08,0.19,0.24c0,0.3-0.23,0.74-0.68,1.32c-1.06,1.32-1.59,2.11-1.59,2.36c0,0.12,0.37,0.25,1.11,0.42
			c1.29,0.53,1.93,0.94,1.93,1.21c0,0.39-0.32,0.91-0.96,1.56c-0.9,1.02-2.01,1.9-3.33,2.64c-0.07,0-0.15,0-0.24,0
			c-1.61,0-2.59,0.06-2.95,0.17c-0.29,0.09-0.43,0.26-0.43,0.49c0,0.25,0.21,0.65,0.63,1.18c0.19,0.3,0.42,0.45,0.68,0.45
			c0.29,0,0.72-0.12,1.3-0.35c1.32-0.39,2.9-0.59,4.73-0.59c2.54,0,5.05,0.3,7.53,0.9l10.72,2.53c3.25,0.79,5.54,1.18,6.86,1.18
			c0.84,0,1.93-0.28,3.28-0.83l4.39-1.91c0.67-0.28,1.01-0.5,1.01-0.66c0-0.18-0.32-0.28-0.96-0.28l-6.42,0.55
			c-2.54,0-6.58-0.39-12.12-1.18c-5.44-0.76-9.27-1.24-11.49-1.42c-1.35-0.12-2.85-0.18-4.49-0.21c1.06-0.53,2.45-1.25,4.15-2.15
			c1-0.51,1.5-1.03,1.5-1.56c0-0.18-0.53-0.51-1.59-0.97l-2.32-0.8c-0.55-0.14-0.82-0.27-0.82-0.38c0-0.39,0.45-1,1.35-1.8
			c0.84-0.69,1.66-1.17,2.46-1.42c0.61-0.21,0.92-0.53,0.92-0.97c0-0.25-0.37-0.65-1.11-1.18c-0.97-0.58-1.66-0.87-2.08-0.87
			c-0.19,0-0.39,0.1-0.58,0.31c-0.29,0.28-0.87,0.6-1.74,0.97c-1.06,0.42-1.8,0.62-2.22,0.62c-1.74,0-2.87-0.04-3.38-0.14
			C40.05,122.05,39.98,122.24,39.98,122.61z"/>
		<path style="&st0;" d="M53.02,157.94c5.18-0.32,10.28-0.56,15.31-0.7v0.94c0,0.35-0.02,0.62-0.05,0.83
			c-4.99,0.14-10.08,0.37-15.26,0.7V157.94z M57.17,136.87c0,0.02,0.16,0.08,0.48,0.17c0.8,0.26,1.21,0.7,1.21,1.32v1.22
			c-4.96,0.23-9.43,0.48-13.42,0.76c-0.1-0.28-0.22-0.55-0.39-0.83c-0.26-0.42-0.48-0.62-0.68-0.62c-0.13,0-0.19,0.05-0.19,0.14
			c0.13,0.28,0.19,0.56,0.19,0.83c0,0.32-0.16,0.73-0.48,1.22c-0.42,0.65-0.9,1.12-1.45,1.42c-0.48,0.37-0.73,0.75-0.73,1.15
			c0,0.39,0.1,0.74,0.29,1.04c0.13,0.3,0.34,0.45,0.63,0.45c0.55,0,1.17-0.33,1.88-1.01c0.74-0.81,1.13-1.62,1.16-2.43
			c6.08-0.42,11.3-0.73,15.64-0.94c0.13,0.16,0.19,0.35,0.19,0.56c0,0.23-0.13,0.51-0.39,0.83c-0.97,1.27-1.9,2.27-2.8,2.98
			c0,0.19,0.07,0.28,0.19,0.28c0.1,0,0.37-0.1,0.82-0.31c0.77-0.32,1.53-0.74,2.27-1.25c0.06-0.02,0.13-0.06,0.19-0.1l3.43-0.17
			c0,0.02,0.01,0.03,0.05,0.03c0.39,0.3,0.58,0.81,0.58,1.53v2.4c0,0.12-0.19,0.17-0.58,0.17c-0.39,0-1.26-0.16-2.61-0.48
			c0.29-0.19,0.61-0.41,0.97-0.66c0.16-0.09,0.29-0.17,0.38-0.24c0.1-0.02,0.15-0.06,0.15-0.1c0-0.23-0.36-0.53-1.06-0.9
			c-0.77-0.48-1.3-0.73-1.59-0.73c-0.26,0-0.39,0.09-0.39,0.28c0.26,0.33,0.39,0.56,0.39,0.69c0,0.09-0.16,0.34-0.48,0.73
			c-0.55,0.65-1.08,1.2-1.59,1.67c-0.61,0.53-1.24,1-1.88,1.39c0,0.09,0.06,0.14,0.19,0.14c0.13,0,0.5-0.1,1.11-0.31
			c0.74-0.28,1.47-0.59,2.17-0.94c0.35-0.19,0.76-0.42,1.21-0.69c1.8,1.04,2.86,1.74,3.19,2.08c0.29,0.28,0.69,0.42,1.21,0.42
			c0.26,0,0.56-0.18,0.92-0.55c0.39-0.37,0.58-0.87,0.58-1.49c0-0.02-0.03-0.25-0.1-0.7c-0.07-0.42-0.1-0.99-0.1-1.73
			c0-0.49,0.06-0.88,0.19-1.18c0.13-0.21,0.19-0.41,0.19-0.59c0-0.12-0.11-0.23-0.34-0.35l4.3-0.21c0.74,0,1.11-0.14,1.11-0.42
			c0-0.16-0.23-0.37-0.68-0.62c-0.39-0.21-0.79-0.31-1.21-0.31c-0.1,0-0.31,0.03-0.63,0.1c-0.58,0.12-1.19,0.21-1.83,0.28
			l-5.84,0.42c0.1-0.09,0.21-0.19,0.34-0.28c0.16-0.16,0.31-0.27,0.43-0.31c0.13-0.05,0.2-0.12,0.2-0.21c0-0.16-0.34-0.46-1.02-0.9
			c-0.16-0.09-0.31-0.18-0.43-0.28c0.32,0,0.64-0.01,0.97-0.03c4.06-0.19,7.55-0.28,10.48-0.28c0.61,0,0.92,0.19,0.92,0.55
			c0,0.14-0.37,0.73-1.11,1.77c0,0.07,0.06,0.1,0.19,0.1c2.58-0.51,4.42-0.8,5.55-0.87c0.58,0,0.87-0.07,0.87-0.21
			c0-0.44-0.56-1.09-1.69-1.94c-1.35-0.95-2.24-1.42-2.66-1.42c-0.26,0-0.58,0.07-0.96,0.21c-0.84,0.25-1.84,0.41-2.99,0.45
			c-3.8,0.14-7.39,0.29-10.77,0.45v-0.31c0-0.76,0.08-1.24,0.24-1.42c0.09-0.19,0.14-0.35,0.14-0.49c0-0.19-0.52-0.38-1.54-0.59
			c-1.09-0.23-1.77-0.35-2.03-0.35C57.88,136.46,57.5,136.64,57.17,136.87z M45.87,143.08c0,0.12,0.32,0.34,0.97,0.66
			c0.81,0.37,1.37,0.55,1.69,0.55c0.19,0,0.55-0.05,1.06-0.14c0.39-0.07,0.77-0.12,1.16-0.17v1.35c-1,0.14-1.62,0.21-1.88,0.21
			c-1.39,0-2.45-0.14-3.19-0.42c-0.13,0-0.19,0.19-0.19,0.56c0,0.09,0.34,0.31,1.01,0.66c0.77,0.37,1.32,0.56,1.64,0.56
			c0.19,0,0.53-0.06,1.01-0.17c0.48-0.07,1.01-0.15,1.59-0.24v1.7c-0.9,0.14-1.83,0.27-2.8,0.38c-1.09,0.14-1.85,0.21-2.27,0.21
			c-0.23,0-0.58-0.13-1.06-0.38c-0.39-0.18-0.6-0.28-0.63-0.28c-0.13,0-0.26,0.09-0.39,0.28c0,0.39,0.14,0.74,0.43,1.04l1.55,1.28
			c0.29,0.16,0.63,0.24,1.01,0.24c0.16-0.07,0.31-0.13,0.43-0.17c0.32-0.16,0.92-0.36,1.79-0.59c3.99-1.11,6.98-2.04,8.98-2.78
			c0.48-0.21,0.72-0.34,0.72-0.38h-0.19c-0.03,0-0.27,0.02-0.72,0.07c-1.38,0.25-2.85,0.5-4.39,0.73v-1.67
			c0.77-0.07,1.59-0.15,2.46-0.24c1,0,1.5-0.13,1.5-0.38c0-0.18-0.23-0.39-0.68-0.62c-0.39-0.23-0.79-0.35-1.21-0.35
			c-0.1,0-0.19,0.05-0.29,0.14c-0.13,0.07-0.32,0.13-0.58,0.17c-0.42,0.05-0.82,0.09-1.21,0.14v-1.35c1.06-0.12,2.2-0.22,3.43-0.31
			c1,0,1.5-0.14,1.5-0.42c0-0.19-0.23-0.38-0.68-0.59c-0.42-0.23-0.82-0.35-1.21-0.35c-0.13,0-0.24,0.04-0.34,0.1
			c-0.13,0.09-0.34,0.16-0.63,0.21c-3.48,0.42-5.49,0.63-6.04,0.63c-1.42,0-2.48-0.13-3.19-0.38
			C45.94,142.57,45.87,142.74,45.87,143.08z M69.05,145.27c1.8,1.13,3.15,2.23,4.05,3.3c0.51,0.51,0.93,0.76,1.26,0.76
			c0.48,0,0.72-0.27,0.72-0.8c0-0.48-0.21-0.94-0.63-1.35c-0.61-0.49-1.59-0.96-2.94-1.42c-1.06-0.42-1.82-0.63-2.27-0.63
			C69.12,145.13,69.05,145.18,69.05,145.27z M49.06,150.55c0,0.09,0.18,0.22,0.53,0.38c0.68,0.46,1.02,0.97,1.02,1.53v4.62
			c0,0.6-0.05,1.19-0.14,1.77c-0.03,0.44-0.05,0.75-0.05,0.94c0,0.56,0.14,1.02,0.43,1.39c0.39,0.42,0.74,0.62,1.06,0.62
			c0.42,0,0.72-0.2,0.92-0.59c0.26,0.3,0.39,0.5,0.39,0.59c0,0.12-0.16,0.29-0.48,0.52c-0.87,0.58-1.87,1.12-2.99,1.63
			c-1.51,0.74-3.25,1.36-5.21,1.87l-1.88,0.45c0,0.09,0.19,0.14,0.58,0.14c0.26,0,0.9-0.06,1.93-0.17c1.45-0.18,3.06-0.49,4.83-0.9
			c1.71-0.42,3.4-0.98,5.07-1.7c0.68-0.3,1.22-0.51,1.64-0.62c0.19-0.09,0.29-0.17,0.29-0.24c0-0.25-0.58-0.71-1.74-1.35
			c-0.32-0.18-0.59-0.32-0.82-0.42c4.67-0.28,9.28-0.48,13.86-0.62c0.03,0.09,0.06,0.19,0.1,0.28c0.32,0.51,0.74,0.76,1.25,0.76
			c0.35,0,0.64-0.23,0.87-0.69c0.32-0.67,0.48-1.43,0.48-2.29v-5.31c0-0.58,0.13-0.98,0.39-1.21c0.35-0.16,0.53-0.33,0.53-0.52
			c0-0.16-0.48-0.47-1.45-0.94c-0.65-0.28-1.16-0.42-1.55-0.42c-0.42,0-0.96,0.04-1.64,0.1c-0.77,0.19-2,0.29-3.67,0.31l-10.81,0.45
			c-0.23-0.11-0.61-0.23-1.16-0.35c-0.84-0.28-1.37-0.42-1.59-0.42C49.64,150.25,49.32,150.38,49.06,150.55z M53.02,154.95
			c5.21-0.32,10.32-0.55,15.31-0.69v1.77c-4.99,0.14-10.09,0.37-15.31,0.69V154.95z M53.02,152.73c0-0.16,0.02-0.37,0.05-0.62
			c8.92-0.39,13.68-0.59,14.29-0.59c0.64,0,0.96,0.36,0.96,1.08v0.45c-4.99,0.14-10.09,0.37-15.31,0.69V152.73z M63.02,161.55
			c1.71,0.56,3.25,1.18,4.64,1.87c1.64,0.81,3.01,1.6,4.1,2.36c0.45,0.32,0.93,0.49,1.45,0.49c0.9,0,1.35-0.5,1.35-1.49
			c0-0.32-0.53-0.7-1.59-1.11c-1.32-0.51-3.4-1.06-6.23-1.67c-1.87-0.39-2.98-0.59-3.33-0.59
			C63.14,161.41,63.02,161.46,63.02,161.55z"/>
		<path style="&st1;" d="M74.19,73.65c0.63,0,1.14,0.51,1.14,1.14v29.7c0,0.63-0.51,1.14-1.14,1.14h-29.7
			c-0.63,0-1.14-0.51-1.14-1.14v-29.7c0-0.63,0.51-1.14,1.14-1.14H74.19z"/>
		<path style="&st1;" d="M77.56,70.29c0.63,0,1.14,0.51,1.14,1.14v36.43c0,0.63-0.51,1.14-1.14,1.14H41.12
			c-0.63,0-1.14-0.51-1.14-1.14V71.42c0-0.63,0.51-1.14,1.14-1.14H77.56z"/>
	</g>
</svg>
