<?xml version="1.0" encoding="iso-8859-1"?>
<!-- Generator: Adobe Illustrator 11 Build 196, SVG Export Plug-In . SVG Version: 6.0.0 Build 78)  -->
<!DOCTYPE svg PUBLIC "-//W3C//DTD SVG 1.0//EN"    "http://www.w3.org/TR/2001/REC-SVG-20010904/DTD/svg10.dtd" [
	<!ENTITY ns_flows "http://ns.adobe.com/Flows/1.0/">
	<!ENTITY ns_svg "http://www.w3.org/2000/svg">
	<!ENTITY ns_xlink "http://www.w3.org/1999/xlink">
	<!ENTITY st0 "fill:#0A0809;">
]>
<svg  xmlns="&ns_svg;" xmlns:xlink="&ns_xlink;" xmlns:a="http://ns.adobe.com/AdobeSVGViewerExtensions/3.0/"
	 width="168.14" height="186.48" viewBox="0 0 168.14 186.48" style="overflow:visible;enable-background:new 0 0 168.14 186.48"
	 xml:space="preserve">
	<g id="Pfade">
		<path style="&st0;" d="M68.8,39.01c-1.87,18.44,2.65,32.7,7.25,41.97c2.31-1.51,5.06-2.4,8.02-2.4c1.37,0,2.7,0.2,3.96,0.56
			c2.21-19.72,10.71-29.41,16.65-35.34c8-8,14.16-8.65,14.16-20.6c0-13.06-18.39-11.96-18.39-11.96S98.42,0,84.07,0
			C72.67,0,67.52,11.96,67.52,11.96c-11.96-2.58-18.95,3.31-18.95,13.25C48.57,39.01,68.8,39.01,68.8,39.01z M90.7,80.17
			c3.71,1.89,6.51,5.32,7.57,9.44c18.2-7.97,30.86-5.44,38.96-3.27c10.93,2.93,14.57,7.94,24.93,1.96
			c11.31-6.53,1.16-21.91,1.16-21.91s8.71-7.37,1.54-19.79c-5.7-9.88-18.64-8.35-18.64-8.35c-3.75-11.64-12.34-14.75-20.95-9.79
			c-11.95,6.9-1.83,24.42-1.83,24.42C106.51,60.49,96.42,71.55,90.7,80.17z M7.37,89.99c11.95,6.9,22.07-10.63,22.07-10.63
			c15.05,10.86,29.68,14.06,40.01,14.71c-0.02-0.28-0.04-0.55-0.04-0.83c0-4.09,1.69-7.8,4.4-10.46
			C57.83,71.01,53.69,58.79,51.52,50.69c-2.93-10.93-0.41-16.59-10.76-22.57c-11.31-6.53-19.55,9.95-19.55,9.95
			s-10.74-3.86-17.91,8.57c-5.7,9.88,2.08,20.32,2.08,20.32C-2.83,76.02-1.23,85.02,7.37,89.99z M160.77,96.49
			c-11.95-6.9-22.07,10.62-22.07,10.62c-15.05-10.86-29.68-14.06-40.01-14.71c0.02,0.28,0.04,0.55,0.04,0.83
			c0,4.09-1.69,7.8-4.4,10.46c15.98,11.77,20.12,23.99,22.29,32.09c2.93,10.93,0.4,16.59,10.76,22.57
			c11.31,6.53,19.55-9.95,19.55-9.95s10.74,3.86,17.91-8.56c5.7-9.88-2.08-20.32-2.08-20.32
			C170.97,110.46,169.37,101.46,160.77,96.49z M77.45,106.31c-3.72-1.89-6.51-5.32-7.57-9.44c-18.2,7.97-30.86,5.44-38.96,3.27
			c-10.93-2.93-14.57-7.94-24.93-1.97c-11.31,6.53-1.16,21.91-1.16,21.91s-8.71,7.37-1.54,19.79c5.7,9.88,18.64,8.35,18.64,8.35
			c3.75,11.64,12.34,14.75,20.94,9.79c11.95-6.9,1.83-24.42,1.83-24.42C61.63,125.99,71.72,114.93,77.45,106.31z M99.34,147.47
			c1.87-18.44-2.65-32.7-7.25-41.97c-2.3,1.51-5.06,2.4-8.02,2.4c-1.37,0-2.7-0.2-3.96-0.56c-2.21,19.72-10.71,29.41-16.65,35.34
			c-8,8-14.17,8.65-14.17,20.6c0,13.06,18.4,11.96,18.4,11.96s2.02,11.23,16.37,11.23c11.41,0,16.56-11.96,16.56-11.96
			c11.96,2.58,18.95-3.31,18.95-13.24C119.57,147.47,99.34,147.47,99.34,147.47z"/>
		<circle style="&st0;" cx="84.07" cy="93.24" r="12.41"/> 
	</g>
</svg>
