<?xml version="1.0" encoding="iso-8859-1"?>
<!-- Generator: Adobe Illustrator 11 Build 196, SVG Export Plug-In . SVG Version: 6.0.0 Build 78)  -->
<!DOCTYPE svg PUBLIC "-//W3C//DTD SVG 1.0//EN"    "http://www.w3.org/TR/2001/REC-SVG-20010904/DTD/svg10.dtd" [
	<!ENTITY ns_flows "http://ns.adobe.com/Flows/1.0/">
	<!ENTITY ns_svg "http://www.w3.org/2000/svg">
	<!ENTITY ns_xlink "http://www.w3.org/1999/xlink">
	<!ENTITY st0 "fill:none;stroke:#000000;stroke-linecap:round;stroke-linejoin:round;stroke-miterlimit:2;">
]>
<svg  xmlns="&ns_svg;" xmlns:xlink="&ns_xlink;" xmlns:a="http://ns.adobe.com/AdobeSVGViewerExtensions/3.0/"
	 width="121.06" height="145.71" viewBox="0 0 121.06 145.71" style="overflow:visible;enable-background:new 0 0 121.06 145.71"
	 xml:space="preserve">
	<g id="Bild">
		<path style="&st0;" d="M60.53,123.03c7.04,0,12.75-1.99,12.75-4.45c0-0.37-0.13-0.72-0.37-1.07"/>
		<path style="&st0;" d="M109.92,50.85c0.78-0.62,1.78-1,2.86-1c2.54,0,4.6,2.06,4.6,4.6s-2.06,4.6-4.6,4.6
			c-1.7,0-3.18-0.92-3.98-2.29"/>
		<path style="&st0;" d="M110.06,47.16c0.85-0.32,1.76-0.49,2.72-0.49c4.3,0,7.78,3.48,7.78,7.78s-3.48,7.78-7.78,7.78
			c-1.99,0-3.8-0.75-5.18-1.97"/>
		<ellipse style="&st0;" cx="60.53" cy="3.33" rx="25.99" ry="2.83"/> 
		<ellipse style="&st0;" cx="60.53" cy="3.33" rx="22.27" ry="1.59"/> 
		<path style="&st0;" d="M71.4,15.82c0-8.26,3.25-7.24,15.11-11.49v-1"/>
		<path style="&st0;" d="M60.53,84.95c-32,0-49.5-16.69-49.5-37c0-23.52,17.64-30.58,38.62-32.13c0,2.01,7.2,2.13,10.88,2.13
			s10.88-0.12,10.88-2.13c20.99,1.55,38.62,8.61,38.62,32.13C110.03,68.26,92.53,84.95,60.53,84.95z"/>
		<path style="&st0;" d="M14.03,61.95c2.95,4.92,26.38,9.12,46.5,8.95s43.55-4.02,46.5-8.95"/>
		<path style="&st0;" d="M12.28,56.95c2.25,6,26.25,10,48.25,10s46-4,48.25-10"/>
		<path style="&st0;" d="M11.4,53.2c1,5.25,27.62,9.75,49.12,9.75s48.12-4.5,49.12-9.75"/>
		<path style="&st0;" d="M11.15,48.45c0.5,6.25,28.38,10.38,49.38,10.38s48.88-4.12,49.38-10.38"/>
		<path style="&st0;" d="M11.15,45.2c0.25,5.5,27.12,10.62,49.38,10.62s49.12-5.12,49.38-10.62"/>
		<path style="&st0;" d="M13.09,35.64c4.44,6.06,27.69,8.31,47.44,8.31s44.55-3.33,47.5-8.25"/>
		<path style="&st0;" d="M14.03,33.52c3.19,4.81,28.38,8.57,46.5,8.44s43.38-3.66,46.33-8.58"/>
		<path style="&st0;" d="M48.59,117.14c0.12,2,4.91,3.94,11.94,3.94s11.81-1.94,11.94-3.94"/>
		<path style="&st0;" d="M46.9,86.58c1.35,1.48,2.38,2.5,13.62,2.5s12.27-1.02,13.62-2.5"/>
		<path style="&st0;" d="M45.4,84.83c1.5,1.75,4.5,2.25,15.12,2.25s13.62-0.5,15.12-2.25"/>
		<path style="&st0;" d="M48.64,117.77c-9.58,1.94-16.22,6.16-16.22,11.06c0,6.74,12.58,12.2,28.11,12.2
			c15.52,0,28.11-5.46,28.11-12.2c0-4.89-6.64-9.11-16.22-11.06"/>
		<path style="&st0;" d="M48.52,117.91c-6.45,1.72-10.74,4.79-10.74,8.29c0,5.39,10.19,9.76,22.75,9.76s22.75-4.37,22.75-9.76
			c0-3.5-4.29-6.57-10.74-8.29"/>
		<path style="&st0;" d="M60.53,123.03c-7.04,0-12.75-1.99-12.75-4.45c0-0.37,0.13-0.72,0.37-1.07"/>
		<path style="&st0;" d="M32.53,128.83l-0.11,4.19c0,6.74,12.58,12.2,28.11,12.2c15.52,0,28.11-5.46,28.11-12.2l-0.11-4.19"/>
		<path style="&st0;" d="M42.15,82.83c7.12,3.62,10.38,14.12,10.38,21.5c0,5.33-2.43,11.19-4.27,13.09
			c-0.93,0.96-1.73,1.61-1.73,2.53c0,2.91,6.27,5.26,14,5.26c7.73,0,14-2.36,14-5.26c0-0.92-0.8-1.58-1.73-2.53
			c-1.84-1.9-4.27-7.76-4.27-13.09c0-7.38,3.25-17.88,10.38-21.5"/>
		<path style="&st0;" d="M11.13,50.85c-0.78-0.62-1.78-1-2.86-1c-2.54,0-4.6,2.06-4.6,4.6s2.06,4.6,4.6,4.6
			c1.7,0,3.18-0.92,3.98-2.29"/>
		<path style="&st0;" d="M11,47.16c-0.85-0.32-1.76-0.49-2.72-0.49c-4.3,0-7.78,3.48-7.78,7.78s3.48,7.78,7.78,7.78
			c1.99,0,3.8-0.75,5.18-1.97"/>
		<path style="&st0;" d="M49.65,15.82c0-8.26-3.25-7.24-15.11-11.49v-1"/>
	</g>
</svg>
