<?xml version="1.0" encoding="iso-8859-1"?>
<!-- Generator: Adobe Illustrator 11 Build 196, SVG Export Plug-In . SVG Version: 6.0.0 Build 78)  -->
<!DOCTYPE svg PUBLIC "-//W3C//DTD SVG 1.0//EN"    "http://www.w3.org/TR/2001/REC-SVG-20010904/DTD/svg10.dtd" [
	<!ENTITY ns_flows "http://ns.adobe.com/Flows/1.0/">
	<!ENTITY ns_svg "http://www.w3.org/2000/svg">
	<!ENTITY ns_xlink "http://www.w3.org/1999/xlink">
	<!ENTITY st0 "stroke:#000000;stroke-width:1.2054;stroke-linecap:round;stroke-linejoin:round;">
]>
<svg  xmlns="&ns_svg;" xmlns:xlink="&ns_xlink;" xmlns:a="http://ns.adobe.com/AdobeSVGViewerExtensions/3.0/"
	 width="416.14" height="80.9" viewBox="0 0 416.14 80.9" style="overflow:visible;enable-background:new 0 0 416.14 80.9"
	 xml:space="preserve">
	<g id="Bild">
		<path style="&st0;" d="M79.87,40.45c0-21.89-17.74-39.63-39.63-39.63h-1.21c0.2,0,0.4,0.01,0.6,0.02
			C18.02,1.15,0.6,18.76,0.6,40.45c0,21.89,17.74,39.63,39.63,39.63h1.21c-0.2,0-0.4-0.01-0.6-0.01
			C62.45,79.74,79.87,62.14,79.87,40.45z M54.86,51.35c-3.17-4.69-8.54-7.77-14.62-7.77c-9.75,0-17.65,7.9-17.65,17.65
			s7.9,17.65,17.65,17.65c0.21,0,0.02,1.17,0.02,1.17c-14.77-0.62-26.56-12.79-26.56-27.72c0-9.44,4.72-17.77,11.92-22.78
			c3.17,4.69,8.54,7.77,14.62,7.77c9.75,0,17.65-7.9,17.65-17.65c0-9.75-7.9-17.65-17.65-17.65c-0.21,0-0.02-1.18-0.02-1.18
			c14.77,0.62,26.56,12.79,26.56,27.72C66.78,38.01,62.06,46.34,54.86,51.35z"/>
		<path style="&st0;" d="M152.66,0.83c0.2,0,0.4-0.02,0.6-0.02h-1.21c-21.89,0-39.63,17.74-39.63,39.63
			c0,21.69,17.42,39.29,39.03,39.62c-0.2,0-0.4,0.01-0.6,0.01h1.21c21.89,0,39.63-17.75,39.63-39.63
			C191.69,18.76,174.27,1.15,152.66,0.83z M178.6,52.33c0,14.93-11.79,27.09-26.56,27.72c0,0-0.19-1.17,0.02-1.17
			c9.75,0,17.65-7.9,17.65-17.65s-7.9-17.65-17.65-17.65c-6.09,0-11.45,3.08-14.62,7.77c-7.2-5.01-11.92-13.34-11.92-22.78
			c0-14.93,11.79-27.09,26.56-27.72c0,0,0.19,1.18-0.01,1.18c-9.75,0-17.65,7.9-17.65,17.65c0,9.75,7.9,17.65,17.65,17.65
			c6.09,0,11.45-3.08,14.62-7.77C173.88,34.56,178.6,42.89,178.6,52.33z"/>
		<g>
			<path style="&st0;" d="M225.88,46.48c0-13.14,9.45-24.05,21.92-26.37c0.93,8.06,7.77,14.31,16.08,14.31
				c8.94,0,16.19-7.25,16.19-16.19c0-8.94-7.25-16.19-16.19-16.19c-0.38,0-0.76,0.03-1.14,0.06l1.14-1.49
				c-22.01,0-39.85,17.84-39.85,39.85c0,6.38,1.5,12.42,4.17,17.76l0.19-0.39C226.77,54.38,225.88,50.53,225.88,46.48z"/>
			<path style="&st0;" d="M265.27,0.64c14.18,0.71,25.45,12.19,25.45,26.55c0,3.28-0.59,6.43-1.67,9.34
				c-1.83-0.72-3.81-1.12-5.89-1.12c-8.94,0-16.19,7.25-16.19,16.19s7.25,16.19,16.19,16.19c7.14,0,13.18-4.62,15.33-11.03
				c0.14-0.41,1.31,0.38,1.31,0.38c-4.05,9.68-13.62,16.49-24.78,16.49c-8.22,0-15.58-3.7-20.5-9.52c3.89-2.96,6.41-7.62,6.41-12.88
				c0-8.94-7.25-16.19-16.19-16.19s-16.19,7.25-16.19,16.19c0,2.67,0.66,5.17,1.8,7.39l-2.14-0.4
				c6.53,13.09,20.05,22.08,35.68,22.08c22.01,0,39.85-17.84,39.85-39.85C303.72,18.91,286.63,1.38,265.27,0.64z"/>
			<path style="&st0;" d="M263.87,0.6c0.47,0,0.93,0.02,1.4,0.04C264.81,0.62,264.34,0.6,263.87,0.6z"/>
		</g>
		<g>
			<path style="&st0;" d="M413.69,46.48c0-13.14-9.45-24.05-21.92-26.37c-0.93,8.06-7.77,14.31-16.08,14.31
				c-8.94,0-16.19-7.25-16.19-16.19c0-8.94,7.25-16.19,16.19-16.19c0.38,0,0.76,0.03,1.14,0.06l-1.14-1.49
				c22.01,0,39.85,17.84,39.85,39.85c0,6.38-1.5,12.42-4.17,17.76l-0.19-0.39C412.79,54.38,413.69,50.53,413.69,46.48z"/>
			<path style="&st0;" d="M374.3,0.64c-14.18,0.71-25.45,12.19-25.45,26.55c0,3.28,0.59,6.43,1.67,9.34
				c1.83-0.72,3.81-1.12,5.89-1.12c8.94,0,16.19,7.25,16.19,16.19s-7.25,16.19-16.19,16.19c-7.14,0-13.18-4.62-15.33-11.03
				c-0.14-0.41-1.31,0.38-1.31,0.38c4.05,9.68,13.62,16.49,24.78,16.49c8.22,0,15.58-3.7,20.5-9.52c-3.89-2.96-6.41-7.62-6.41-12.88
				c0-8.94,7.25-16.19,16.19-16.19c8.94,0,16.19,7.25,16.19,16.19c0,2.67-0.66,5.17-1.8,7.39l2.14-0.4
				c-6.53,13.09-20.05,22.08-35.68,22.08c-22.01,0-39.85-17.84-39.85-39.85C335.85,18.91,352.94,1.38,374.3,0.64z"/>
			<path style="&st0;" d="M375.69,0.6c-0.47,0-0.93,0.02-1.4,0.04C374.76,0.62,375.22,0.6,375.69,0.6z"/>
		</g>
	</g>
</svg>
