<?xml version="1.0" encoding="iso-8859-1"?>
<!-- Generator: Adobe Illustrator 11 Build 196, SVG Export Plug-In . SVG Version: 6.0.0 Build 78)  -->
<!DOCTYPE svg PUBLIC "-//W3C//DTD SVG 1.0//EN"    "http://www.w3.org/TR/2001/REC-SVG-20010904/DTD/svg10.dtd" [
	<!ENTITY ns_flows "http://ns.adobe.com/Flows/1.0/">
	<!ENTITY ns_svg "http://www.w3.org/2000/svg">
	<!ENTITY ns_xlink "http://www.w3.org/1999/xlink">
	<!ENTITY st0 "fill:none;stroke:#000000;stroke-linecap:round;stroke-linejoin:round;">
	<!ENTITY st1 "fill:none;stroke:#000000;">
	<!ENTITY st2 "fill:none;stroke:#000000;stroke-linecap:round;stroke-linejoin:round;enable-background:new    ;">
]>
<svg  xmlns="&ns_svg;" xmlns:xlink="&ns_xlink;" xmlns:a="http://ns.adobe.com/AdobeSVGViewerExtensions/3.0/"
	 width="174" height="281.5" viewBox="0 0 174 281.5" style="overflow:visible;enable-background:new 0 0 174 281.5"
	 xml:space="preserve">
	<g id="Pfade">
		<path style="&st0;" d="M73.5,18.5l0.25-15.75c0-1.24-1.51-2.25-4-2.25s-4,1.01-4,2.25L66,18.5H73.5z"/>
		<path style="&st0;" d="M66,18.5C62.75,22,54,28,48.9,29.89c-1.17,0.43-1.93,1.53-1.63,2.73c0.3,1.2,1.58,2.1,2.73,1.63
			c6.75-2.75,16.12-9.38,19.88-13.12"/>
		<path style="&st0;" d="M69.88,21.12C73.62,24.88,83,31.75,89.75,34.5c1.15,0.47,2.43-0.43,2.73-1.63c0.3-1.21-0.46-2.3-1.63-2.73
			c-5.1-1.89-13.85-7.89-17.1-11.39l9.64,3.4"/>
		<path style="&st0;" d="M50,34.25c-4.19,2.29-23.01,9.79-28.41,10.47c-1.23,0.16-2.23,1.05-2.21,2.29c0.02,1.24,1.07,2.4,2.29,2.21
			c7.2-1.15,25.26-8.22,29.92-10.76c1.09-0.6,1.75-1.74,1.31-2.9C52.46,34.4,51.09,33.65,50,34.25z"/>
		<path style="&st0;" d="M89.75,34.5c4.19,2.29,23.01,9.79,28.41,10.47c1.23,0.16,2.23,1.05,2.21,2.29
			c-0.03,1.24-1.07,2.4-2.29,2.21c-7.2-1.15-25.26-8.22-29.92-10.76c-1.09-0.6-1.75-1.74-1.31-2.9
			C87.29,34.65,88.66,33.9,89.75,34.5z"/>
		<path style="&st0;" d="M112.97,31.13l-0.13-11.59c0-1.65-1.69-4.45-3.8-2.98c-3.32,2.32-5.22,1.66-15.66-0.66
			C79.33,12.78,77.02,5.3,72.75,1"/>
		<path style="&st0;" d="M80.25,11.5v7c11.25,11,29.5,22.25,44,26V39C105,32.75,93.5,23.5,80.25,11.5z"/>
		<path style="&st0;" d="M124.29,43.69c2.53,1.11,3.22,0.97,6.46,1.81V40c-19.25-6.25-19.25-10.5-32.5-22.5v7.25
			c1.19,1.17,3.82,3.53,4.91,4.59"/>
		<g>
			<line style="&st0;" x1="97" y1="43" x2="47" y2="43"/>
			<line style="&st0;" x1="46.5" y1="48" x2="111.25" y2="48"/>
		</g>
		<g>
			<path style="&st0;" d="M100,48.38c0,0-2.18,47.65-2.38,52.07c-4.02-0.08-31.02-1.09-34.8-1.16c-0.31-4.16-3.83-50.98-3.83-50.98"
				/>
			<polyline style="&st0;" points="54.01,47.94 58.18,102.96 102.38,104.55 105,48.62 "/>
		</g>
		<g>
			
				<rect x="54.47" y="107.25" transform="matrix(-0.9988 -0.0485 0.0485 -0.9988 155.0842 223.262)" style="&st0;" width="51.56" height="5"/> 
		</g>
		<g>
			<path style="&st0;" d="M55.72,111.3c0,34.81-29,107.23-50.97,135.7"/>
			<path style="&st0;" d="M9.61,247.51c22.55-29.22,49.64-99.78,49.64-136.26"/>
		</g>
		<g>
			<path style="&st0;" d="M69.93,252.02C81.74,208.39,83.5,146.19,83.5,113"/>
			<path style="&st0;" d="M79.5,113c0,32.99-2.16,96.05-13.84,139.24"/>
		</g>
		<g>
			<path style="&st0;" d="M104,114.06c1.56,51.92,18.68,117.2,37.5,144.94"/>
		</g>
		<g>
			<polyline style="&st2;" points="4.75,247 141.5,259 170.1,228.73 "/>
		</g>
		<polyline style="&st0;" points="2.5,265.75 2.5,269.75 25.5,271.5 30.42,267.61 "/>
		<polyline style="&st0;" points="113.75,275.25 117,278.75 141.5,281 141.5,277.5 "/>
		<g>
			<line style="&st0;" x1="98" y1="70" x2="61.25" y2="70"/>
			<line style="&st0;" x1="61.75" y1="75" x2="98" y2="75"/>
		</g>
		<g>
			<line style="&st0;" x1="82" y1="99.25" x2="82" y2="49"/>
			<line style="&st0;" x1="78" y1="49" x2="78" y2="99.25"/>
		</g>
		<line style="&st0;" x1="4" y1="253.5" x2="4.5" y2="253.5"/>
		<line style="&st0;" x1="4" y1="257.75" x2="4.5" y2="257.75"/>
		<line style="&st0;" x1="4" y1="262.5" x2="4.5" y2="262.5"/>
		<line style="&st0;" x1="138.83" y1="265" x2="139.33" y2="265"/>
		<line style="&st0;" x1="138.83" y1="269.25" x2="139.33" y2="269.25"/>
		<line style="&st0;" x1="138.83" y1="273.5" x2="139.33" y2="273.5"/>
		<line style="&st0;" x1="58" y1="102.75" x2="54.62" y2="106"/>
		<line style="&st0;" x1="102.38" y1="104.55" x2="105.5" y2="108"/>
		<line style="&st0;" x1="51.59" y1="38.46" x2="64" y2="42.06"/>
		<line style="&st0;" x1="21.68" y1="49.22" x2="53.5" y2="52"/>
		<line style="&st0;" x1="46.5" y1="43" x2="46.5" y2="47.75"/>
		<polyline style="&st0;" points="143,277 173.5,244.75 173.5,228.75 143,261 143,277 0.5,265 0.58,248.99 143,261 "/>
		<polyline style="&st0;" points="152.21,267.38 151,272.5 141.5,281 "/>
		<polyline style="&st0;" points="172.5,246.33 172.5,249.25 167,255 164.74,254.37 "/>
		<g>
			<path style="&st0;" d="M111.51,112.43c4.31,34.93,23.11,99.59,43.21,131.86"/>
			<path style="&st0;" d="M157.17,242.78c-19.32-31.02-39.01-96.69-43.28-131.25"/>
		</g>
		<g>
			<path style="&st0;" d="M120.51,109.41c7.87,38.48,23.16,91.02,49.1,119.07"/>
			<path style="&st0;" d="M117.92,110.12c7.95,38.85,23.57,91.84,49.98,120.4"/>
		</g>
		<g>
			<line style="&st0;" x1="106.7" y1="112.9" x2="122.2" y2="108.4"/>
			<line style="&st0;" x1="122.2" y1="102.9" x2="105.3" y2="108.1"/>
		</g>
		<path style="&st0;" d="M173.5,228.75"/>
		<line style="&st0;" x1="169.6" y1="228.48" x2="173.5" y2="228.75"/>
		<g>
			<path style="&st0;" d="M119.06,49.75l16,1.25c1.23,0.2,2.27-0.96,2.29-2.21c0.02-1.24-1.02-1.93-2.21-2.29"/>
			<polyline style="&st0;" points="118.16,44.97 136.15,46.5 131,44.75 "/>
		</g>
		<polyline style="&st0;" points="102.38,104.55 118.25,100.5 122.2,102.9 "/>
		<g>
			<line style="&st0;" x1="112.95" y1="48.87" x2="110" y2="98.16"/>
			<line style="&st0;" x1="112.5" y1="97.09" x2="115.25" y2="49.84"/>
		</g>
		<g>
			<line style="&st0;" x1="106.38" y1="75" x2="118.38" y2="74.5"/>
			<line style="&st0;" x1="118.62" y1="70.75" x2="106.62" y2="70"/>
		</g>
		<g>
			<polyline style="&st2;" points="107.51,48.63 105,100.25 116.25,97 120.75,50 "/>
			<line style="&st0;" x1="118.25" y1="100.5" x2="123.49" y2="50.22"/>
		</g>
		<g>
			<path style="&st1;" d="M143.9,257.04c-18.82-27.73-35.87-92.69-37.4-143.58"/>
			<path style="&st1;" d="M100.5,113.67c1.56,52.01,17.65,116.39,37.1,145.05"/>
		</g>
		<line style="&st0;" x1="122.2" y1="102.9" x2="122.2" y2="108.4"/>
		<line style="&st0;" x1="11.98" y1="236.4" x2="0.58" y2="248.99"/>
		<polyline style="&st0;" points="52.65,33.73 64,38 64,42.06 "/>
		<line style="&st0;" x1="90.72" y1="40.59" x2="90.72" y2="42.48"/>
	</g>
</svg>
