<?xml version="1.0" encoding="iso-8859-1"?>
<!-- Generator: Adobe Illustrator 11 Build 196, SVG Export Plug-In . SVG Version: 6.0.0 Build 78)  -->
<!DOCTYPE svg PUBLIC "-//W3C//DTD SVG 1.0//EN"    "http://www.w3.org/TR/2001/REC-SVG-20010904/DTD/svg10.dtd" [
	<!ENTITY ns_flows "http://ns.adobe.com/Flows/1.0/">
	<!ENTITY ns_svg "http://www.w3.org/2000/svg">
	<!ENTITY ns_xlink "http://www.w3.org/1999/xlink">
]>
<svg  xmlns="&ns_svg;" xmlns:xlink="&ns_xlink;" xmlns:a="http://ns.adobe.com/AdobeSVGViewerExtensions/3.0/"
	 width="193.21" height="173.19" viewBox="0 0 193.21 173.19" style="overflow:visible;enable-background:new 0 0 193.21 173.19"
	 xml:space="preserve">
	<g id="Pfade">
		<g>
			<path d="M81.85,1.6c2.23-0.32,4.48-0.55,6.77-0.55c25.74,0,46.69,20.94,46.69,46.69c0,25.74-20.95,46.69-46.69,46.69
				S41.93,73.49,41.93,47.74c0-7.59,1.83-14.85,5.2-21.37c-5.94,9.21-9.26,19.98-9.26,31.12c0,31.7,25.79,57.49,57.49,57.49
				c31.7,0,57.49-25.79,57.49-57.49C152.86,25.79,127.07,0,95.37,0C90.75,0,86.24,0.54,81.85,1.6z"/>
			<path d="M21.55,67.01c-5.61,1.63-9.37,5.85-10.04,11.3l-0.05,0.4l-0.4,0.01C4.35,78.94,0.44,84.95,0.03,90.77
				C0.01,91.1,0,91.43,0,91.76c0,5.71,3.37,12.51,13.07,14.18l0.49,0.08l-0.11,0.48c-0.31,1.32-0.46,2.56-0.46,3.71
				c0,4.61,2.47,7.8,7.04,9.05c4.65-8.78,15.13-11.5,21.45-10.65c1.91-5.46,6.79-8.23,9.95-9.49c-3.29-3.47-6.14-7.33-8.53-11.48
				c-1.86,7.21-6.8,9.22-10.74,9.57c-4.23,0.37-7.72-0.98-9.83-3.81c-1.99-2.66-2.53-6.46-1.35-9.46l0.83-0.86l1.2-0.02
				c0,0,0.86,0.83,0.86,0.83l0.02,1.2c-0.64,1.63-0.62,4.34,0.94,6.44c1.45,1.95,3.89,2.83,7.04,2.56
				c5.24-0.46,8.11-4.17,8.57-11.01c-1.83-3.91-3.23-8-4.18-12.16C32.93,66.92,27.17,65.38,21.55,67.01z"/>
			<path d="M44.03,110.64L44.03,110.64l-0.36,1.54l-1.53-0.37c-4.81-1.16-15.97,0.67-19.99,10.16c0,0-0.24,0.28-0.42,0.48
				c-0.44,1.66-0.87,3.94-0.87,6.55c0,6.99,3.1,16.21,17.53,21.24l0.29,0.1l0.02,0.31c0.41,6.69,3.94,12.7,9.21,15.69
				c3.56,2.02,9.48,3.53,17.53-0.5c-0.57-1.41-0.78-2.6-0.81-3.46c-1.24-0.49-3.38-1.53-5.5-3.43c-4.25-0.23-7.5-1.64-9.66-4.23
				c-2.39-2.87-2.78-6.42-2.78-8.41c0-0.89,0.08-1.47,0.09-1.54c0.12-0.85,0.91-1.45,1.77-1.33c0.78,0.11,1.35,0.78,1.35,1.55
				c0,0.07,0,0.14-0.01,0.21c0,0.01-0.06,0.44-0.06,1.1c0,1.51,0.28,4.29,2.06,6.42c0.99,1.18,2.44,1.95,4.15,2.46
				c-1.6-2.6-2.53-5.59-2.67-8.97l-0.02-1.16c0-3.02,0.58-5.45,1.36-7.56c-0.08,0.03-0.13,0.11-0.22,0.12
				c-3.82,0.49-8.94-0.49-11.77-3.76c-1.01-1.17-2.03-2.98-2.03-5.53c0-0.92,0.13-1.93,0.44-3.04c1.16-4.17,4.2-6.78,8.13-6.97
				c3.57-0.17,6.88,1.84,8.05,4.89c0.31,0.8-0.1,1.71-0.9,2.02c-0.81,0.31-1.72-0.09-2.03-0.9c-0.69-1.8-2.74-2.99-4.98-2.88
				c-1.2,0.06-4.13,0.63-5.26,4.68c-0.64,2.31-0.33,4.22,0.94,5.68c2.07,2.39,6.01,3.08,9,2.7c0.66-0.08,1.19,0.31,1.49,0.86
				c1.01-1.96,2.19-3.53,3.31-4.64c2.4-2.37,5-3.6,6.85-4.25c0.35-1.23,0.52-2.34,0.52-3.32c0-5.43-4.62-7.16-4.86-7.24
				c-0.64-0.23-1.04-0.83-1.04-1.48c0-0.17,0.03-0.35,0.09-0.52c0.29-0.81,1.18-1.24,1.99-0.96c0.08,0.03,6.93,2.61,6.93,10.17
				c0,0.79-0.14,1.67-0.3,2.57c0.34-0.04,0.52-0.06,0.74-0.08c1.9-4.85,4.57-8.23,7.88-10.19c-8.85-2.71-17.08-7.46-23.85-13.84
				C51.64,102.27,45.42,104.72,44.03,110.64z M29.5,134.46L29.5,134.46c-1.77-5.41,0.6-12.82,4.79-14.96c0,0,1.2-0.1,1.2-0.1
				l0.91,0.78c0,0,0.09,1.2,0.09,1.2l-0.78,0.91c-2.58,1.31-4.61,6.98-3.23,11.19c1.3,3.96,5.27,5.6,11.2,4.64l1.17,0.27l0.63,1.02
				c0,0-0.27,1.17-0.27,1.17l-1.02,0.63C33.5,142.96,30.35,137.07,29.5,134.46z"/>
			<path d="M72.32,127.64l-0.39,1.11l-1.17-0.07c-2.03-0.12-6.28,0.93-9.68,4.28c-3.27,3.22-4.81,7.64-4.58,13.12
				c0.46,10.98,9.71,13.59,10.1,13.7c0,0,1.36,0.38,1.36,0.38l-0.22,1.38c-0.02,0.12-0.44,3.07,2.69,6.3
				c5.7,4.89,16.67,7.3,22.07,3.19c-1.37-2.15-2.16-4.66-2.16-7.35c0,0,0.09-1.31,0.1-1.44c-3.92-2.3-6.48-5.16-7.64-8.51
				c-3.33,0.2-6.52-0.77-8.79-2.7c-2.1-1.78-3.23-4.17-3.3-6.92c-0.07-3.12,1.13-5.58,3.37-6.93c2.29-1.38,5.59-1.39,8.02-0.04
				l0.74,0.94l-0.14,1.19c0,0-0.94,0.74-0.94,0.74l-1.19-0.14c-1.26-0.71-3.34-0.94-4.88-0.01c-1.26,0.76-1.9,2.2-1.85,4.18
				c0.04,1.83,0.8,3.42,2.19,4.6c1.55,1.32,3.76,2.03,6.1,2c-0.03-0.46-0.06-1.06-0.06-1.06l0.08-1.51
				c0.85-7.91,8.33-15.14,14.92-17.49c-0.04-0.5-0.14-1.86-0.14-1.86l0.19-2.62c0.43-3,1.64-5.93,3.32-8.26
				c-1.37,0.08-5.07,0.28-5.07,0.28c-4.27,0-8.55-0.46-12.73-1.35C80.21,117.07,75.44,118.89,72.32,127.64z"/>
			<path d="M85.26,148.4L85.26,148.4c-0.51,4.7,2.1,8.72,7.55,11.63l0.98,0.52l-0.16,1.09c-0.73,4.89,1.31,7.85,2.59,9.18
				c5.51,3.56,17.33,3,21.86-0.99c-1.51-1.46-2.61-3.16-3.25-5.1c-8.62-0.3-12.42-4.01-14.07-7.09c-1.09-2.04-1.64-4.39-1.64-6.99
				c0-2.16,0.45-4.44,1.2-6.67c-1.16,0.23-2.49,0.9-3.33,2.13c-0.46,0.68-0.69,1.45-0.69,2.26c0,1.33,0.61,2.8,1.8,4.31
				c0.23,0.29,0.34,0.63,0.34,0.97c0,0.46-0.2,0.92-0.59,1.23c-0.68,0.54-1.67,0.42-2.2-0.26c-2.81-3.56-3.26-7.3-1.24-10.28
				c1.58-2.33,4.58-3.79,7.23-3.57c0.08-0.16,0.12-0.22,0.2-0.38c-1.92-1.97-3.28-4.24-4.07-6.74
				C92.21,135.77,85.97,141.87,85.26,148.4z"/>
			<path d="M105.36,117.25c-2.1,1.37-4.5,4.75-5.14,9.29c-0.08,0.6-0.15,1.31-0.15,2.11c0,2.92,0.86,6.94,4.7,10.37
				c0,0,1.01,0.91,1.01,0.91l-0.75,1.13c-1.45,2.18-2.78,5.88-2.78,9.57c0,1.93,0.36,3.85,1.27,5.53c1.95,3.65,6.12,5.5,12.38,5.5
				h1.27l0.26,1.24c0.68,3.19,2.77,5.04,4.4,6.03c4.38,2.05,11.87,1.09,17.39-2.26c3.69-2.24,5.79-5.17,5.91-8.25l0.01-0.34
				l0.33-0.09c8.95-2.39,14.91-7.29,16.5-13.48c-0.7-0.13-2.14-0.4-2.51-0.47c-3,3.12-8.54,6.1-18.22,3.08
				c-7.81-2.43-12.11-7.97-12.11-15.6c0-1.62,0.24-3.41,0.71-5.43c-5.29-2.48-8.02-6.94-8.02-13.33c0,0,0.01-0.42,0.03-0.83
				C116.66,114.47,111.12,116.29,105.36,117.25z M111.48,131.9L111.48,131.9c-0.78-0.37-1.13-1.3-0.76-2.08
				c2.88-6.2,9.23-7.67,9.5-7.73c0.84-0.19,1.68,0.34,1.87,1.19c0.19,0.84-0.34,1.68-1.18,1.87c-0.05,0.01-5.14,1.25-7.34,5.99
				C113.19,131.92,112.26,132.26,111.48,131.9z M116.43,145.04c-0.91-4.33,0.78-7.11,2.37-8.68c2.39-2.38,6.23-3.56,9.34-2.88
				l0.99,0.69l0.21,1.18c-0.18,0.84-1.02,1.38-1.86,1.2c-1.8-0.39-4.59,0.18-6.46,2.04c-1.48,1.47-2.01,3.48-1.51,5.81
				c0.68,3.24,3.49,3.9,4.66,4.04c2.12,0.24,4.24-0.54,4.81-1.79c0.37-0.78,1.3-1.12,2.08-0.76c0.78,0.37,1.12,1.3,0.76,2.08
				c-1.17,2.51-4.47,3.98-8.02,3.57l0,0C119.95,151.1,117.2,148.67,116.43,145.04z"/>
			<path d="M174.42,90.87L174.42,90.87c-4.73,4.28-7.96,9.38-8.89,10.93c1.65,1.31,3.62,3.55,4.33,7.22c0,0,0.29,2.99,0.29,2.99
				c0,2.98-0.87,5.66-2.5,7.75c-1.98,2.52-4.94,3.95-8.56,4.13c-4.08,0.2-7.53-0.96-9.98-3.35c-2.38-2.33-3.62-5.71-3.51-9.52
				l0.49-1.09l1.12-0.43l1.09,0.49l0.43,1.12c-0.08,2.93,0.83,5.48,2.58,7.19c1.8,1.77,4.44,2.62,7.62,2.46
				c2.73-0.14,4.84-1.12,6.26-2.93c1.6-2.04,2.2-5.11,1.6-8.21c-0.98-5.06-5.02-6.52-5.19-6.58c0,0-1.78-0.65-1.78-0.65l0.94-1.63
				c0.13-0.21,2.96-5.3-3.94-11.73c-1.25-1.2-5.06-2.11-10,0.46c-5.37,8.6-12.87,15.78-21.71,20.78c-0.09,0.87-0.16,1.77-0.16,2.68
				c0,4.21,1.32,8.59,7.23,10.82l1.33,0.5l-0.38,1.38c-0.57,2.08-0.85,4.02-0.85,5.81c0,6.23,3.39,10.64,9.9,12.67
				c6.87,2.14,12.27,1.16,15.62-2.81l0.68-0.81l1.01,0.34c2.19,0.73,4.3,0.9,6.85,0.56c8.07-1.97,14.22-10.15,14.91-19.88
				c0.74-10.6,3.8-28.4,6.63-35.48c2.11-5.28,4.45-12.01,5.33-18.84C188.36,77.12,182.92,83.17,174.42,90.87z"/>
			<path d="M179.21,73.81L179.21,73.81c-3.44,1.82-10.19,3.57-13.74,4.13c-3.44,0.54-7.31,2.58-10.72,5.56
				c7.91,5.32,9.7,10.58,9.74,14.13c1.66-2.43,4.31-5.91,7.82-9.09c8.32-7.53,13.56-13.36,18.2-22.95
				C186.66,68.61,181.3,72.71,179.21,73.81z"/>
		</g>
	</g>
</svg>
