<?xml version="1.0" encoding="iso-8859-1"?>
<!-- Generator: Adobe Illustrator 11 Build 196, SVG Export Plug-In . SVG Version: 6.0.0 Build 78)  -->
<!DOCTYPE svg PUBLIC "-//W3C//DTD SVG 1.0//EN"    "http://www.w3.org/TR/2001/REC-SVG-20010904/DTD/svg10.dtd" [
	<!ENTITY ns_flows "http://ns.adobe.com/Flows/1.0/">
	<!ENTITY ns_svg "http://www.w3.org/2000/svg">
	<!ENTITY ns_xlink "http://www.w3.org/1999/xlink">
	<!ENTITY st0 "fill:none;stroke:#000000;stroke-linecap:round;stroke-linejoin:round;stroke-miterlimit:2;">
]>
<svg  xmlns="&ns_svg;" xmlns:xlink="&ns_xlink;" xmlns:a="http://ns.adobe.com/AdobeSVGViewerExtensions/3.0/"
	 width="147.65" height="161.54" viewBox="0 0 147.65 161.54" style="overflow:visible;enable-background:new 0 0 147.65 161.54"
	 xml:space="preserve">
	<g id="Bild">
		<path style="&st0;" d="M78.12,86.16c-8.5,10.38-18.75,5.38-32,23.62L9.5,161.04"/>
		<path style="&st0;" d="M117,150.91"/>
		<path style="&st0;" d="M117,150.91c0.44,0.9-3,2.62-5,2.62C93.98,118.49,76.48,82.11,59,46.91c-0.62-1,4.12-3.5,4.62-2.5
			C70.5,58.04,106.38,129.41,117,150.91z"/>
		<path style="&st0;" d="M57,98.91"/>
		<path style="&st0;" d="M0.5,152.54l0.12,5.75l8.88,2.75l-0.25-5.5l35.38-48.38C58.68,88.44,64.88,96.29,77,83.91
			c-14.12-4.62-21.12-8.12-31.5-16.25c0,0-2.5,2.25-3.5,4.25c-1,10-0.92,20.25-6.29,30.12L0.5,152.54l8.75,3"/>
		<path d="M56.38,24.04c-1.58,1.58-4,2-4,3c1,3,6,3,8,6c-2-2-6-6-9-3v2c-1,1-3,1-4,2c-2,4,3,5,4,8c-3-2-7-9-10-3c-1,1-2,0-2-1
			c0,1-1,1-2,1c2-2,3-4,3-6c2-4,11-4,7-10c6-1,8-8,13-11c4-2,9,0,14,0c1,0,2-2,4-2c-2,4-5,5-9,7c1,0,1,1,1,2c-1-2-3,2-4-1
			c-1,0-1,1-1,2c-1,0-2-2-4-1s1,3,0,3C59.38,22.04,57.38,23.04,56.38,24.04z"/>
		<path d="M128.38,59.04c-0.89,0.45-1,1-1,2c1,1,1,1,1,2c-1-1-3-1-3,0c2,7-6,7-10,10c-2,1,0-3-2-3c-4,1-9,0-13,2c-2,1-3,3-5,5
			c2-1,2-3,3-4c5-3,11-4,15-8c2-1,5-2,6-4c0-1,0-2,0-3c3-3,7-5,6-10c0-1,1-1,2-2c0-1,0-2-1-2c-3,1-3,5-4,8c0-2,1-5-1-6c0,0-1,1-2,2
			c3-4,4-8,6-13c1-1,4-1,3-4c1,1,0,4,3,3c0,3-1,6,0,9c0,1,1,1,2,1c-3,1,0,3-1,5c-1,1-1,3-3,4c1,2,4,0,4,2
			C132.38,57.04,130.38,58.04,128.38,59.04z"/>
		<path style="&st0;" d="M81.86,80.85c2.51,0.38,5.07,0.64,7.67,0.77c29.58,1.47,53.31-14.59,52.98-35.88
			c-0.32-21.29-24.57-39.73-54.15-41.21C58.77,3.07,35.05,19.13,35.38,40.41c0.27,17.63,16.94,33.31,39.46,39.01"/>
		<path style="&st0;" d="M84.37,85.63c1.98,0.21,3.98,0.36,6.01,0.4c34.85,0.76,57.61-17.02,56.75-41.25
			c-0.79-22.41-27.04-43.25-60.5-44.25c-33.46-1-58.29,18.34-57.5,40.75c0.35,9.8,6.53,19.84,15.25,27.62"/>
	</g>
</svg>
