<?xml version="1.0" encoding="iso-8859-1"?>
<!-- Generator: Adobe Illustrator 11 Build 196, SVG Export Plug-In . SVG Version: 6.0.0 Build 78)  -->
<!DOCTYPE svg PUBLIC "-//W3C//DTD SVG 1.0//EN"    "http://www.w3.org/TR/2001/REC-SVG-20010904/DTD/svg10.dtd" [
	<!ENTITY ns_flows "http://ns.adobe.com/Flows/1.0/">
	<!ENTITY ns_svg "http://www.w3.org/2000/svg">
	<!ENTITY ns_xlink "http://www.w3.org/1999/xlink">
]>
<svg  xmlns="&ns_svg;" xmlns:xlink="&ns_xlink;" xmlns:a="http://ns.adobe.com/AdobeSVGViewerExtensions/3.0/"
	 width="190.2" height="195.69" viewBox="0 0 190.2 195.69" style="overflow:visible;enable-background:new 0 0 190.2 195.69"
	 xml:space="preserve">
	<g id="Pfade">
		<path d="M95.1,195.69c12.47,0,35.8-5.14,43.78-19.07c45.05-3.48,48.24-40.64,41.07-57.28c9.3-7.87,20.2-40.73-6.78-58.79
			c-12.39-8.29-30.5-8.86-41.87-2.36c-13.03,7.45-17.24,24.69-10.1,32.64c10.9,12.13,21.9,3.77,24.44-1.3
			c-2.48-1.02-4.24-3.41-4.24-6.19c0-3.7,3.09-6.71,6.91-6.71c1.58,0,3.08,0.46,4.2,1.38c6.17,5.07,7.5,13.59-0.74,22.36
			c-5.71,6.08-26.58,10.32-36.95-3.35c-11-14.51-8.24-43.77,25.52-50.74c20.6-4.25,35.09,6.36,35.09,6.36s-4.79-36.38-43.06-31.48
			c0,0-2.91-14.41-23.92-16.35C102.86,4.29,97.76,2.58,95.1,0c-2.66,2.58-7.76,4.29-13.34,4.81C60.75,6.75,57.83,21.16,57.83,21.16
			c-38.27-4.9-43.06,31.48-43.06,31.48s14.48-10.61,35.08-6.36c33.76,6.97,36.51,36.23,25.52,50.74
			c-10.37,13.68-31.23,9.44-36.94,3.35c-8.24-8.77-6.91-17.29-0.74-22.36c1.12-0.92,2.62-1.38,4.2-1.38c3.82,0,6.91,3,6.91,6.71
			c0,2.78-1.76,5.17-4.24,6.19C47.1,95.6,58.1,102.96,69,90.83c7.14-7.95,2.93-25.19-10.1-32.64c-11.36-6.5-29.47-5.93-41.86,2.36
			c-26.98,18.06-16.08,50.93-6.78,58.79c-7.18,16.64-3.99,53.8,41.07,57.28C59.3,190.56,82.63,195.69,95.1,195.69z M121.94,138.91
			c0,14.82-12.02,26.84-26.84,26.84c-14.82,0-26.84-12.01-26.84-26.84c0-14.82,12.01-26.84,26.84-26.84
			C109.92,112.07,121.94,124.09,121.94,138.91z M77.98,41.43c-3.35-5.56,3.28-13.21,10.58-15.2c5.07-1.38,6.54-5.59,6.54-5.59
			s1.47,4.21,6.54,5.59c7.31,1.99,13.93,9.64,10.58,15.2c-3.5,5.81-13.17,3.41-17.12-0.5C91.15,44.84,81.48,47.24,77.98,41.43z"/>
	</g>
</svg>
