<?xml version="1.0" encoding="iso-8859-1"?>
<!-- Generator: Adobe Illustrator 11 Build 196, SVG Export Plug-In . SVG Version: 6.0.0 Build 78)  -->
<!DOCTYPE svg PUBLIC "-//W3C//DTD SVG 1.0//EN"    "http://www.w3.org/TR/2001/REC-SVG-20010904/DTD/svg10.dtd" [
	<!ENTITY ns_flows "http://ns.adobe.com/Flows/1.0/">
	<!ENTITY ns_svg "http://www.w3.org/2000/svg">
	<!ENTITY ns_xlink "http://www.w3.org/1999/xlink">
	<!ENTITY st0 "fill:none;stroke:#000000;stroke-width:2;stroke-linecap:round;stroke-linejoin:round;">
	<!ENTITY st1 "fill:#FFFFFF;stroke:#000000;stroke-width:2;stroke-linecap:round;stroke-linejoin:round;">
	<!ENTITY st2 "stroke:#000000;stroke-width:2;stroke-linecap:round;stroke-linejoin:round;">
]>
<svg  xmlns="&ns_svg;" xmlns:xlink="&ns_xlink;" xmlns:a="http://ns.adobe.com/AdobeSVGViewerExtensions/3.0/"
	 width="227.76" height="266.2" viewBox="0 0 227.76 266.2" style="overflow:visible;enable-background:new 0 0 227.76 266.2"
	 xml:space="preserve">
	<g id="Pfade">
		<path style="&st0;" d="M3.52,134.83c8.81-0.45,14.91,2.94,21.02,10.4c-7.23,1.81-14.69-0.45-21.69-2.26"/>
		<path style="&st2;" d="M1.94,115.4c3.18,2.65,6.95,4.52,11.04,5.26c2.66,0.48,9.93,1.52,10.81-2.47c0.68-3.11-8.94-1.41-10.25-1.6
			c-4.55-0.65-8.44-3.51-12.04-6.17C1.1,112.14,1.39,113.77,1.94,115.4"/>
		<path style="&st0;" d="M138.43,195.85c-2.33,13.17-6.04,26.79-15.09,37.04c-9.23,10.46-21.23,18.04-33.71,24.03
			c-12.95,6.22-27.93,10.74-42.24,6.82c-12.09-3.31-19.54-14.28-25.48-24.54c-7.52-13-14.37-26.67-17.62-41.43
			c-3.4-15.46-3.34-31.45-2.28-47.16c1.1-16.35-1.7-32.6-0.83-48.93C1.95,87.03,6.32,72.49,14.3,60.14
			c9.73-15.05,24.96-25.4,40.97-32.87"/>
		<path style="&st2;" d="M152.48,181.88c7.41,9.89,21.31,10.35,32.52,9.17c7.95-0.84,15.62-3.08,23.03-6.04
			c6.18-2.48,12.85-5.42,16.46-11.36c7.31-12.06-4.75-30.19-11.21-39.99c-8.65-13.14-17.5-26.78-23.77-41.24
			c-3.01-6.96-5.53-14.12-7.88-21.33c-2.34-7.21-6.11-15.27-3.89-22.86c0.96-3.27,1.04-4.92,3.66-7.31c2.05-1.88,4.7-4.19,5.19-7.07
			c0.8-4.67-2.99-7.8-7.08-9c-4.11-1.21-7.54,0.49-11.41,0.08c-2.16-0.23-4.32-0.55-6.44-1c-3.19-0.69-5.55-2.98-8.28-4.69
			c-11.95-7.47-25.5-11.81-39.36-14.02C94.8,2.15,74.59,4.28,55.44,1c3.8,1.57,5.93,2.51,8.3,3.67c-3.82,0.31-4.79,0.41-9.38,0.68
			c2.44,0.76,5.46,1.67,9.32,2.94c-2.38,0.31-6.97,0.92-9.32,1.36c3.43,0.56,5.36,1.14,8.93,1.98c-2.7,0.81-4.53,1.29-9.32,2.71
			c2.14,0.17,6.89,0.89,8.98,1.3c-4,1.43-5.26,1.82-8.59,3.05c2.47,0,6.13,0.03,9.21-0.06c-2.79,1.53-6.23,3.05-8.3,4.12
			c3.1-0.17,6.19-0.66,8.81-0.73c-2.42,1.33-3.97,2.49-8.81,5.25c29.76-12.77,68.82-13.26,95.43,7.53
			c5.85,4.57,10.33,11.01,13.05,17.89c1.19,3.02,2.06,6.2,2.38,9.44c0.25,2.51-4.28,4.78-6.25,6.11
			c-12.8,8.62-28.47,12.65-43.59,14.85c3.91,0.53,8.31,0.63,12.2,1.36c-3.89,1.15-7.81,2.18-11.75,3.16
			c4.52,0.55,9.05,0.92,13.56,1.58c-4.18,1.28-8.42,2.33-12.66,3.39c4.48,0.22,8.97-0.45,13.45-0.09
			c-4.02,1.76-8.44,2.86-12.54,4.39c4.6,0.11,8.72-0.21,13.84,0.12c-4.91,1.86-8.86,3.06-13.16,4.4c5.2-0.03,8.59,0.08,13.85,0.26
			c-4.19,1.8-8.41,3.44-12.72,4.94c4.54-0.31,9.08-0.65,13.64-0.43c-4,1.98-8.06,3.69-12.26,5.19c4.62-0.56,9.35-1.42,14.02-1.15
			c-4.1,2.1-8.48,3.56-12.68,5.42c4.69-0.01,9.32-1.34,14.01-1.13c-4.14,2.2-8.44,4.03-12.75,5.86c4.46-0.58,9.13-1.24,13.64-0.99
			c-3.86,2.23-7.99,3.88-12.03,5.73c4.55-0.77,9.15-1.22,13.71-1.83c-3.72,2.35-7.62,4.3-11.61,6.15c4.2-0.67,8.28-1.93,12.48-2.64
			c-3.52,2.41-6.9,5.02-10.44,7.38c3.92-1.44,7.86-2.84,11.67-4.56c-2.69,3.24-5.6,6.28-8.27,9.53c6.12-5.44,23.49-20.27,29.41-7.19
			c3.86,8.53,4.36,19.42,3.73,28.61c-0.28,4.05-1.9,8.29-4.97,10.97C158.13,174.56,155.67,178.55,152.48,181.88"/>
		<path style="&st0;" d="M152.48,181.88c-3.02,3.15-7.86,8.5-12.8,6.42c-6.11-2.57-3.29-9.41,1.24-11.88"/>
		<path style="&st0;" d="M174.13,247.6c-7.23-18.98-8.14-32.77-10.4-58.53"/>
		<path style="&st0;" d="M160.35,140.94c-0.23-3.39-2.03-8.36-7.46-7.46c-7.23,2.71-11.98,12.2-14.69,18.53"/>
		<path style="&st0;" d="M138.43,164.66c4.52-3.62,6.1-9.94-0.23-12.65c-0.83-0.36-1.81-1.81-0.9-3.62"/>
		<path style="&st0;" d="M154.69,144.1c0,3.64,2.95,6.07,4,9.34c1.42,4.43-3.24,6.93-4,10.92"/>
		<path style="&st2;" d="M48.94,116.98c8.66-0.54,16.46-4.82,24.89-6.46c4.15-0.81,8.43-0.83,12.45,0.63
			c1.41,0.51,8.03,4.89,3.61,5.82c-3.17,0.67-6.56-1.3-9.86-1.12c-4.73,0.25-9.31,1.79-13.77,3.25c-3.99,1.31-8.99,3.71-13.25,2.46
			C51.42,121.08,46.31,119.29,48.94,116.98"/>
		<path style="&st0;" d="M27.47,138.9c3.74,9.08,0.74,19.32-3.93,27.44c-3.9,6.77-11.65,15.33-6.36,23.42
			c4.9,7.49,14.21,1.91,20.53-0.08c4.52-1.43,9.4,1.97,13.75-0.49c3.43-1.94,3.58-6.38,3.58-9.85"/>
		<path style="&st0;" d="M66.11,220.25c-1.39,0-1.14-1.72-1.91-2.43c-1.36-1.26-3.31-0.88-4.97-1.12c-5-0.72-9.3-3.96-14.4-4.23
			c-3.89-0.21-7.28,2.85-11.21,2.03c-1.7-0.36-3.33-1.36-5.12-1.01c-2.22,0.43-3.81,2.17-5.77,3.15"/>
		<path style="&st0;" d="M88.71,134.38c-10.64,10.64-21.69,14.46-35.25,12.65c8.14-13.56,23.5-10.85,37.06-14.46
			C89.84,133.71,89.61,133.48,88.71,134.38z"/>
		<circle style="&st2;" cx="69.05" cy="140.94" r="4.29"/> 
		<circle style="&st2;" cx="11.43" cy="140.26" r="4.29"/> 
		<path style="&st1;" d="M161.92,47.36c-1.15-2.03-2.66-4.65-3.54-5.53c2.19-5.62,3.56-13.28,3.83-17.95
			c1.52-0.65,3.86-0.13,4.53,0.88C166.95,32.95,164.36,42.02,161.92,47.36z"/>
		<path style="&st1;" d="M163.57,48.76c0-0.88-0.17-3.06-0.13-3.79c5.48,0.27,10.28,0.67,15.12,0.41c1.09,0.86,0.83,2.59-0.55,3.46
			C174.02,49.35,168.66,49.27,163.57,48.76z"/>
	</g>
</svg>
