<?xml version="1.0" encoding="iso-8859-1"?>
<!-- Generator: Adobe Illustrator 11 Build 196, SVG Export Plug-In . SVG Version: 6.0.0 Build 78)  -->
<!DOCTYPE svg PUBLIC "-//W3C//DTD SVG 1.0//EN"    "http://www.w3.org/TR/2001/REC-SVG-20010904/DTD/svg10.dtd" [
	<!ENTITY ns_flows "http://ns.adobe.com/Flows/1.0/">
	<!ENTITY ns_svg "http://www.w3.org/2000/svg">
	<!ENTITY ns_xlink "http://www.w3.org/1999/xlink">
	<!ENTITY st0 "fill:#FFFFFF;stroke:#FFFFFF;stroke-width:1.9422;stroke-linecap:round;stroke-linejoin:round;">
	<!ENTITY st1 "stroke:#FFFFFF;stroke-width:1.9422;stroke-linecap:round;stroke-linejoin:round;">
	<!ENTITY st2 "fill:none;stroke:#FFFFFF;stroke-width:2.9133;stroke-linecap:round;stroke-linejoin:round;">
	<!ENTITY st3 "fill:none;stroke:#FFFFFF;stroke-width:1.9422;stroke-linecap:round;stroke-linejoin:round;">
	<!ENTITY st4 "stroke:#000000;stroke-width:15.5376;">
]>
<svg  xmlns="&ns_svg;" xmlns:xlink="&ns_xlink;" xmlns:a="http://ns.adobe.com/AdobeSVGViewerExtensions/3.0/"
	 width="193.25" height="193.25" viewBox="0 0 193.25 193.25" style="overflow:visible;enable-background:new 0 0 193.25 193.25"
	 xml:space="preserve">
	<g id="Pfade">
		<circle style="&st4;" cx="96.62" cy="96.62" r="88.86"/> 
		<circle style="&st2;" cx="96.62" cy="96.62" r="79.63"/> 
		<path style="&st0;" d="M89.1,29.83c0.59-4.32-1.52-6.78-4.27-6.78s-6.29,2.06-8.24,7.96c-3.62,10.92-23.62,48.71-59.59,65.61
			c0-43.98,35.65-79.63,79.63-79.63c43.98,0,79.63,35.65,79.63,79.63c-36.56-16.71-55.65-50.28-59.59-65.37
			c-1.62-6.2-5.25-8.2-8-8.2s-5.1,2.45-4.51,6.78"/>
		<path style="&st1;" d="M64.58,79.18c10.22-11.99,22.8-33.81,25.16-52.49c1.25-9.88,13.18-9.4,13.96,0.45
			c1.38,17.44,12.97,38.67,24.77,51.64"/>
		<path style="&st3;" d="M16.99,96.62h115.26c3.47,0,6.29,2.82,6.29,6.29l0,0c0,3.47-2.82,6.29-6.29,6.29H61.26
			c-2.01,0-3.64,1.63-3.64,3.64l0,0c0,2.01,1.63,3.64,3.64,3.64H173.1"/>
		<g>
			<path style="&st3;" d="M21.14,102.96c1.39-0.35,2.52-1.47,3.84-1.5c1.71-0.05,3.02,2.95,5.55,2.05c2.68-0.94,4.79-3.82,7.71,0.24
				"/>
			<path style="&st3;" d="M60.06,101.98c2.89-1.17,6.22,0.18,9.24,0.2"/>
			<path style="&st3;" d="M73.43,103.75c1.35-1.39,1.88-3.06,4.13-2.71c3.4,0.52,4.49,4.83,8.08,3.35c2.4-0.99,2.42-2.37,5.04-2.65
				c1.4-0.15,4.05,1.55,6.18,1.39s3.47-0.92,5.23-0.75c1.83,0.18,2.38,2.21,4.17,2.16"/>
			<path style="&st3;" d="M110.19,101.19c3.15,0.13,5.91,1.24,8.26,3.34"/>
			<path style="&st3;" d="M133.58,102.37c-0.73-1.1-3.14-0.96-4.32-1.57"/>
			<path style="&st3;" d="M22.51,107.29c2.87-1.36,4.24,0.19,6.89,0.04c1.26-0.07,1.69-0.21,2.92,0.07
				c1.13,0.26,2.76,1.18,3.95,1.07"/>
			<path style="&st3;" d="M40.6,107.88c2.61-1.31,5.85,0.25,8.66,0.4c1.45,0.07,5.13-0.72,5.3,0.98"/>
			<path style="&st3;" d="M59.67,105.32c0.63-0.6,2.73-0.64,3.69-0.39c1.13,0.29,1.17,0.67,2.21,1.18"/>
			<path style="&st3;" d="M25.31,113.97c1.68,0.02,2.39-1.55,3.65-1.69c1.69-0.19,3.4,0.86,4.96,1.1c1,0.16,1.8,0.7,2.75,0.79"/>
			<path style="&st3;" d="M49.84,111.02c0.97,0,2.26-0.16,3.16,0.19c0.75,0.29,1.11,1.13,1.96,1.39"/>
			<path style="&st3;" d="M40.26,113.52c1.7-0.22,2.77-1.77,4.11-1.74s3.57,2.36,4.68,3.07c1.02,0.65,1.79,0.45,2.76,0.88
				c1.04,0.47,1.85,0.24,2.45,0.81"/>
			<path style="&st3;" d="M25.07,118.49c-1.93,0.62,9.63,0.07,9.24,0.79"/>
			<path style="&st3;" d="M26.84,123.6c4.6-1.83,5.5,1.67,9.44,0.98"/>
			<path style="&st3;" d="M28.8,128.32c0.49-2.4,6.46,0.39,8.06,0"/>
			<path style="&st3;" d="M31.16,132.84c0.56-1.1,2.81-1.97,3.34-0.2"/>
			<path style="&st3;" d="M55.93,122.23c3.43-0.74,5.98,0.59,9.24,0.59"/>
			<path style="&st3;" d="M76.77,121.44c3.1-0.54,5.69,2.65,7.86,2.16"/>
			<path style="&st3;" d="M91.12,122.23c0.8-3.15,6.84,1.71,8.65,0.98"/>
			<path style="&st3;" d="M105.67,122.62c0.97-3.01,7.03,0.16,8.85,0.59"/>
			<path style="&st3;" d="M120.8,122.42c3.8-1.09,5.73-0.16,9.04,1.97"/>
			<path style="&st3;" d="M133.97,122.36c1.84-0.34,3.5-2.05,5.48-1.94c1.22,0.07,3.98,1.04,4.93,0.04"/>
			<path style="&st3;" d="M149.31,123.6c2.22,0.27,3.64-1.84,5.74-1.61c1.49,0.76,3.05,1.3,4.68,1.61"/>
			<path style="&st3;" d="M162.67,121.83c1.7-0.4,3.43-1.62,5.11-0.59"/>
			<path style="&st3;" d="M53.97,126.55c2.29,0.03,4.54-0.12,6.85,0.03c0.04,1.23,1.26,1.64,2.19,1.94"/>
			<path style="&st3;" d="M68.32,127.34c2.74-0.49,3.9-2.87,6.84-1.69c2.02,0.82,3.74,2.08,6.33,2.47"/>
			<path style="&st3;" d="M85.81,128.12c2.44,0.1,3.97-1.18,6.09-1.57c1.07-0.2,2.37,0.05,3.36,0.38c0.75,0.25,0.8,1.34,1.95,0.61"
				/>
			<path style="&st3;" d="M103.9,127.53c1.5-0.33,0.99-1.83,2.9-1.77c1.24,0.04,1.98,0.84,3.35,0.98c1.86,0.19,2.58,0.1,3.97,0.98"
				/>
			<path style="&st3;" d="M118.44,128.71c0.72-1.88,4.07-2.76,5.95-2.02c0.97,0.38,1.32,1.36,2.31,1.88
				c1.07,0.56,2.34,0.24,3.35,0.92"/>
			<path style="&st3;" d="M153.24,127.73c4.72-0.2,5.5-2.36,10.03,0.98"/>
			<path style="&st3;" d="M151.67,131.66c3.32-0.97,6.09,1.72,8.85,3.15"/>
			<path style="&st3;" d="M148.52,136.58c1.76,0.26,3.43-0.77,4.97-0.4c1.47,0.35,2.5,2.5,4.27,2.37"/>
			<path style="&st3;" d="M147.93,140.9c0.77-1.01,5.49-0.07,6.09,0.98"/>
			<path style="&st3;" d="M112.55,134.81c1.96-1.51,6.11,0.14,8.65-0.79"/>
			<path style="&st3;" d="M98.2,131.66c1.24-0.27,3.62-0.57,4.88-0.2c1.04,0.31,2.03,1.73,2.98,1.38"/>
			<path style="&st3;" d="M70.09,133.63c1.65-2.45,4.25-1.74,7.13-1.93c2.59-0.17,3.49,1.56,5.44,1.74c2.2,0.19,2.65-1.88,4.69-1.96
				c2.05-0.09,3.02,1.77,4.76,1.96"/>
			<path style="&st3;" d="M54.95,134.22c1.99-0.57,3.16-1.7,5.71-1.38c1.42,0.18,3.77,0.84,4.52,2.36"/>
			<path style="&st3;" d="M37.26,142.47c0.55-0.8,3.44-1.61,4.52-1.77c2.46-0.37,5.5,2.95,8.45,2.56"/>
			<path style="&st3;" d="M103.5,138.54c2.59,0.35,7.05-1.67,9.04,0.79"/>
			<path style="&st3;" d="M124.15,137.36c1.46-0.16,2.77-0.68,3.92-1.58c1.57-0.27,2.43,0.77,3.55,1.58"/>
			<path style="&st3;" d="M43.15,149.75c0.47-0.66,2.17-2.44,2.9-2.76c2.7-1.17,5.39,1.05,7.54,1.95c4.04,1.67,7.19-0.43,10.17-1.77
				s7.15,1.84,8.49,2.98"/>
			<path style="&st3;" d="M74.18,145.09c3.57,0.53,5.61-2.36,9.93-2.35c2.41,0,6.39-0.89,8.9,0.97c1.3,0.96,2.1,2.23,4.1,2.11"/>
			<path style="&st3;" d="M96.43,142.08c5.04-0.56,4.97,0.87,8.45,0.98"/>
			<path style="&st3;" d="M115.3,142.47c-1.23-5.29,8.37,0.35,10.02,0.39"/>
			<path style="&st3;" d="M127.49,146.4c2.5-2.3,6.01-0.66,8.7-0.18c1.76,0.31,4.33-0.28,5.85,0.38"/>
			<path style="&st3;" d="M109.01,146.4c1.21-2.28,6.51,1.56,8.84,0.79"/>
			<path style="&st3;" d="M120.02,148.96c3.86-1.26,6.87-0.61,9.04,1.97"/>
			<path style="&st3;" d="M133.19,151.57c4.91-3.4,8.06,1.32,11.79-0.79"/>
			<path style="&st3;" d="M130.44,157.02c2.36-0.2,4.24-1.79,5.24-1.98c1.21-0.23,4.62,0.4,5.57,1.19"/>
			<path style="&st3;" d="M131.81,161.15c1.25-0.77,3.81-1.79,5.31-1.97"/>
			<path style="&st3;" d="M115.69,153.29c1.77-1.57,3.21-1.16,4.93-0.34c1.96,0.93,3.25,1.3,5.29,1.71"/>
			<path style="&st3;" d="M99.57,150.14c2.06,0.17,4.29-0.99,6.22-0.95c1.67,0.03,3.21,2.72,4.98,3.71"/>
			<path style="&st3;" d="M106.85,158.79c2.61-3.94,8.24,1.14,11.21-0.98"/>
			<path style="&st3;" d="M117.27,161.54c2.18-0.42,3.53-1.24,5.65-0.98c2.42,0.3,3.52,1.94,5.75,2.16"/>
			<path style="&st3;" d="M111.17,168.62c-0.73-3.24,7.54-1.38,9.43-1.38"/>
			<path style="&st3;" d="M94.86,167.64c1.27-0.47,2.99-1.18,4.33-1.19c1.95-0.03,3.49,2.06,5.5,1.78"/>
			<path style="&st3;" d="M95.84,161.15c2.95-2.01,6.46,1.51,9.44,0.98"/>
			<path style="&st3;" d="M95.44,154.86c2.31,0,7.62-1.12,9.24,0.59"/>
			<path style="&st3;" d="M85.41,169.99c3.32-1.55,5.98-0.12,8.66,1.77"/>
			<path style="&st3;" d="M65.56,155.64c-0.51-3.96,11.11,0.99,11.99,1.38"/>
			<path style="&st3;" d="M59.67,160.17c2.52-0.9,3.62-0.97,6.08-0.62c1.55,0.22,3.08,0.02,4.39,0.58c0.72,0.31,1.32,0.99,2.11,1.23
				"/>
			<path style="&st3;" d="M48.86,154.66c2.4,0.3,3.66-1.82,5.98-1.03c2.71,0.91,3.93,2.39,7,2.41"/>
			<path style="&st3;" d="M65.37,165.28c4.92-0.39,6.29,1.77,8.26,1.86c3.74,0.17,4.91,0.11,6.29,1.88"/>
			<path style="&st3;" d="M147.94,148.14c0.57-1.1,2.81-1.97,3.34-0.2"/>
			<path style="&st3;" d="M121,101.6c3.16,0.13,5.91,1.24,8.26,3.34"/>
			<path style="&st3;" d="M44.73,102.37c2.89-1.17,6.22,0.18,9.24,0.2"/>
			<path style="&st3;" d="M51.75,140.36c1.72-0.39,2.29-2.57,4.76-2.36c2.23,0.2,2.98,2.52,7.44,2.8c3.15,0.2,4.1-1.36,5.36-1.86
				c1.96-0.79,4.32-0.39,5.23,0.53c0.56,0.57,2.23,1.23,3.51,1.05c1.47-0.2,3.56-2.44,5.01-2.76c1.77-0.39,3.99,0.01,5.39,1.16
				s3.37,0.04,3.88-0.4c1.34-1.15,2.82-1.48,3.83-0.92c1.01,0.56,2.06,1.18,2.32,1.48"/>
		</g>
		<g>
			<path style="&st3;" d="M44.14,115.94c0.35,0.76,0.35,2.04,0.59,2.95"/>
			<path style="&st3;" d="M38.44,119.28c3.98,0,8.53-0.58,12.38,0.2"/>
			<path style="&st3;" d="M40.95,133.88c0.64-3.01,0.68-12.55,0.05-14.01"/>
			<path style="&st3;" d="M45.74,133.94c1.19-2.02,3.63-11.62,2.92-13.29"/>
			<path style="&st3;" d="M36.86,134.81c2.56-0.2,10.22-0.39,11.99,0"/>
		</g>
		<g>
			<path style="&st3;" d="M87.52,145.74c0.35,0.76,0.35,2.04,0.59,2.95"/>
			<path style="&st3;" d="M81.82,149.08c3.98,0,8.53-0.58,12.38,0.2"/>
			<path style="&st3;" d="M84.33,163.69c0.64-3.01,0.68-12.55,0.05-14.01"/>
			<path style="&st3;" d="M89.13,163.74c1.19-2.02,3.63-11.62,2.92-13.29"/>
			<path style="&st3;" d="M80.25,164.61c2.56-0.2,10.22-0.39,11.99,0"/>
		</g>
		<g>
			<path style="&st3;" d="M140.4,123.53c0.35,0.76,0.34,2.04,0.59,2.95"/>
			<path style="&st3;" d="M134.7,126.87c3.98,0,8.53-0.58,12.38,0.2"/>
			<path style="&st3;" d="M137.21,141.47c0.64-3.01,0.68-12.55,0.05-14.01"/>
			<path style="&st3;" d="M142.01,141.53c1.19-2.02,3.63-11.62,2.92-13.29"/>
			<path style="&st3;" d="M133.13,142.4c2.56-0.2,10.22-0.39,11.99,0"/>
		</g>
	</g>
</svg>
