<?xml version="1.0" encoding="iso-8859-1"?>
<!-- Generator: Adobe Illustrator 11 Build 196, SVG Export Plug-In . SVG Version: 6.0.0 Build 78)  -->
<!DOCTYPE svg PUBLIC "-//W3C//DTD SVG 1.0//EN"    "http://www.w3.org/TR/2001/REC-SVG-20010904/DTD/svg10.dtd" [
	<!ENTITY ns_flows "http://ns.adobe.com/Flows/1.0/">
	<!ENTITY ns_svg "http://www.w3.org/2000/svg">
	<!ENTITY ns_xlink "http://www.w3.org/1999/xlink">
	<!ENTITY st0 "stroke:#000000;">
	<!ENTITY st1 "stroke:#000000;stroke-linecap:round;stroke-linejoin:round;stroke-miterlimit:2;">
	<!ENTITY st2 "fill:none;stroke:#000000;stroke-width:2;stroke-linejoin:round;stroke-miterlimit:2;">
	<!ENTITY st3 "fill:none;stroke:#000000;stroke-width:1.5;stroke-linecap:round;stroke-linejoin:round;stroke-miterlimit:2;">
	<!ENTITY st4 "fill:none;stroke:#000000;stroke-width:2;stroke-linecap:round;stroke-linejoin:round;stroke-miterlimit:2;">
	<!ENTITY st5 "fill:none;stroke:#000000;stroke-width:1.5;stroke-linejoin:round;stroke-miterlimit:2;">
	<!ENTITY st6 "fill:none;stroke:#000000;stroke-linecap:round;stroke-linejoin:round;stroke-miterlimit:2;">
]>
<svg  xmlns="&ns_svg;" xmlns:xlink="&ns_xlink;" xmlns:a="http://ns.adobe.com/AdobeSVGViewerExtensions/3.0/"
	 width="266.09" height="147.51" viewBox="0 0 266.09 147.51" style="overflow:visible;enable-background:new 0 0 266.09 147.51"
	 xml:space="preserve">
	<g id="Bild">
		<path style="&st0;" d="M127.8,39.47c2.39-0.06,93.9,0.63,93.9,0.63s-20.88-26.73-31.38-38.08c0,0,4.5-0.14,5.48,1.11l4.77,5.95
			c9.4,11.08,18.63,22.85,27.63,33.27v1.33l-102.4-0.89l-12.67-14.18l-10.53,0v-3.77l7.34-0.25c0,0-8.5-9.97-15-16.62
			c-0.6-2.66-3.62-5.19-5.94-5.95l0,0c0.11-2.17,5.19-1.39,5.19-1.39S117.2,27.73,127.8,39.47z"/>
		<path style="&st0;" d="M84.4,8.23l-1,2.22c-7.71,4.87-14,9.08-21,13.96c2.48,0.12,15.29,0.47,19.29,0.53l-1.09,3.9l-28.8-0.44
			v-0.89L79.27,8.23H84.4z"/>
		<line style="&st6;" x1="94.2" y1="0.64" x2="190.32" y2="2.02"/>
		<path style="&st6;" d="M89,2.03L1.95,1.81c-1.94,0-1.88,5.13-0.14,5.1C28,8.9,69.72,8.14,94.95,7.98"/>
		<path style="&st6;" d="M195.8,3.14c27.9,0.04,67.56,0.78,67.56,0.78c2.83,0,3.1,5.89,0.02,5.82l0,0l-62.6-0.37"/>
		<path style="&st1;" d="M87.07,24.59c1.2-4.87,3.53-10.6,5.13-15.7"/>
		<line style="&st6;" x1="87.2" y1="8.67" x2="81.7" y2="24.94"/>
		<line style="&st6;" x1="86" y1="10" x2="84.8" y2="8.23"/>
		<line style="&st6;" x1="84.57" y1="14.62" x2="80.4" y2="17.09"/>
		<path style="&st6;" d="M79.45,17.67c0.04-1.22,2.91-4.93,3.96-6.78"/>
		<line style="&st6;" x1="104.2" y1="8.23" x2="110" y2="12.22"/>
		<line style="&st6;" x1="112" y1="8.9" x2="111.8" y2="13.77"/>
		<line style="&st6;" x1="121.8" y1="12.44" x2="116.6" y2="9.12"/>
		<line style="&st6;" x1="145.2" y1="9.56" x2="145.2" y2="11.3"/>
		<line style="&st6;" x1="97" y1="11.33" x2="97.4" y2="24.85"/>
		<path style="&st6;" d="M96.4,17.09c-1-0.89-0.87-1.45-2.21-3.12l-3.39,1.79"/>
		<path style="&st6;" d="M96.07,13.52c-0.79-1.29-0.88-2.35-1.67-3.29l-2,1.11"/>
		<line style="&st6;" x1="149" y1="10.45" x2="150.6" y2="11.33"/>
		<line style="&st6;" x1="126.2" y1="10.89" x2="126.4" y2="13.55"/>
		<polyline style="&st6;" points="115.6,11.55 116,19.09 109.4,13.99 "/>
		<line style="&st6;" x1="131.4" y1="11.78" x2="135.2" y2="13.99"/>
		<line style="&st6;" x1="141" y1="11.78" x2="142.86" y2="12.69"/>
		<line style="&st6;" x1="129.4" y1="12.44" x2="129.4" y2="17.31"/>
		<line style="&st6;" x1="157.2" y1="12.44" x2="157.2" y2="16.21"/>
		<line style="&st6;" x1="147.8" y1="12.88" x2="147.6" y2="18.2"/>
		<line style="&st6;" x1="160" y1="12.88" x2="161.2" y2="13.55"/>
		<line style="&st6;" x1="150" y1="13.55" x2="153.4" y2="15.54"/>
		<line style="&st6;" x1="77.6" y1="14.44" x2="74.6" y2="20.42"/>
		<line style="&st6;" x1="139.2" y1="14.88" x2="139.2" y2="17.98"/>
		<line style="&st6;" x1="121.8" y1="14.88" x2="127" y2="18.2"/>
		<path style="&st6;" d="M119.45,15.04c0.4,1.55-0.38,6.09,0.96,8.92c-1.71-1.03-3.4-1.99-5-3.1"/>
		<line style="&st6;" x1="142.4" y1="15.1" x2="146.2" y2="17.31"/>
		<line style="&st6;" x1="161.6" y1="16.21" x2="164.8" y2="18.2"/>
		<line style="&st6;" x1="133.8" y1="16.43" x2="136" y2="17.98"/>
		<line style="&st6;" x1="169.2" y1="16.65" x2="169" y2="19.53"/>
		<path style="&st6;" d="M103.07,17.95c0.19,3.57,0.33,4.24,1.53,6.46"/>
		<line style="&st6;" x1="102.6" y1="24.63" x2="102.36" y2="16.01"/>
		<line style="&st6;" x1="132.4" y1="16.87" x2="132.4" y2="24.4"/>
		<line style="&st6;" x1="159.4" y1="16.87" x2="159.2" y2="21.97"/>
		<line style="&st6;" x1="175" y1="18.2" x2="173.2" y2="17.09"/>
		<path style="&st6;" d="M96,21.3c-0.97-1.33-1.14-2.16-2.6-3.32l-3.6,1.77"/>
		<line style="&st6;" x1="68.8" y1="24.4" x2="72.6" y2="18.2"/>
		<line style="&st6;" x1="151" y1="18.2" x2="150.8" y2="24.4"/>
		<line style="&st6;" x1="152.6" y1="18.2" x2="156.8" y2="20.86"/>
		<line style="&st6;" x1="103.6" y1="18.42" x2="105.4" y2="21.3"/>
		<path style="&st6;" d="M81.4,18.64c-1.2,1.99-3.4,1.77-5,3.1"/>
		<line style="&st6;" x1="136.2" y1="17.98" x2="138.4" y2="19.53"/>
		<line style="&st6;" x1="122.6" y1="19.09" x2="122.6" y2="23.52"/>
		<line style="&st6;" x1="141.4" y1="24.85" x2="142.2" y2="19.09"/>
		<line style="&st6;" x1="172.2" y1="19.31" x2="171.6" y2="23.96"/>
		<line style="&st6;" x1="180.6" y1="19.97" x2="180.4" y2="23.52"/>
		<line style="&st6;" x1="145.2" y1="20.42" x2="148.8" y2="22.63"/>
		<path style="&st6;" d="M167.2,23.08c-1.2,0.22-2.6-1.99-4-2.66"/>
		<line style="&st6;" x1="126.2" y1="20.64" x2="130" y2="23.08"/>
		<line style="&st6;" x1="162.2" y1="21.3" x2="162" y2="26.4"/>
		<path style="&st6;" d="M94.8,24.85h-1c0.6-1.11-0.8-2.44-1.4-2.66c-1.4,0.44-2.8,2.44-3.8,1.55"/>
		<line style="&st6;" x1="137.4" y1="21.97" x2="142.2" y2="25.07"/>
		<line style="&st6;" x1="177.2" y1="22.19" x2="177.8" y2="22.41"/>
		<line style="&st6;" x1="135.4" y1="22.41" x2="135.4" y2="28.84"/>
		<path style="&st6;" d="M160.8,26.4c0,0-3.8-1.99-5.2-3.32"/>
		<line style="&st6;" x1="175.2" y1="23.3" x2="174" y2="29.28"/>
		<line style="&st6;" x1="153.6" y1="23.74" x2="153.6" y2="28.61"/>
		<line style="&st6;" x1="184" y1="23.74" x2="183.8" y2="28.39"/>
		<line style="&st6;" x1="189" y1="24.4" x2="188.6" y2="23.96"/>
		<line style="&st6;" x1="121.57" y1="24.18" x2="122.6" y2="26.18"/>
		<line style="&st6;" x1="144.8" y1="24.4" x2="145" y2="29.28"/>
		<line style="&st6;" x1="147.2" y1="24.85" x2="151.8" y2="27.95"/>
		<path style="&st6;" d="M82.95,38.72c1.25-3.88,2.12-6.09,3.26-10.1"/>
		<line style="&st6;" x1="118.4" y1="25.29" x2="123.8" y2="28.84"/>
		<line style="&st6;" x1="126.6" y1="25.29" x2="126.4" y2="31.72"/>
		<line style="&st6;" x1="181.6" y1="27.73" x2="178.2" y2="25.29"/>
		<line style="&st6;" x1="194.6" y1="25.73" x2="194.6" y2="27.95"/>
		<line style="&st6;" x1="166.6" y1="25.96" x2="169.8" y2="27.73"/>
		<line style="&st6;" x1="164.6" y1="26.4" x2="164.4" y2="31.49"/>
		<line style="&st6;" x1="134" y1="28.84" x2="129.4" y2="25.73"/>
		<line style="&st6;" x1="138.8" y1="27.51" x2="138.4" y2="34.82"/>
		<line style="&st6;" x1="190" y1="27.51" x2="190.6" y2="27.73"/>
		<line style="&st6;" x1="178.4" y1="27.73" x2="177.2" y2="33.93"/>
		<line style="&st6;" x1="131.07" y1="94.94" x2="129.08" y2="93.06"/>
		<line style="&st6;" x1="134.82" y1="92.03" x2="132.83" y2="90.15"/>
		<path style="&st6;" d="M116.8,95.08c-0.9-0.75-1.63-1.01-2.25-0.95c-2.67,0.28-4.12,6.6-7.05,7.32h-1.5"/>
		<path style="&st6;" d="M76.41,97.04c-0.9-0.75-1.63-1.02-2.25-0.95c-2.67,0.28-4.23,6.36-7.15,7.08"/>
		<path style="&st6;" d="M72.51,97.09c-0.9-0.75-1.63-1.01-2.25-0.95c-2.67,0.28-3.89,6.59-6.82,7.31"/>
		<path style="&st6;" d="M59.13,99.3c-0.38-0.83,1.77-1.7,0.47-1.56c-1.68,0.18-0.52,6.21-4.41,7.17"/>
		<path style="&st6;" d="M56.45,98.26c-2.31,0.9-0.12,3.71-2.17,6.03"/>
		<path style="&st6;" d="M80.95,96.83c-0.9-0.75-1.63-1.01-2.25-0.95c-2.67,0.28-4.21,6.43-7.13,7.15"/>
		<path style="&st6;" d="M85.82,96.62c-0.9-0.75-1.63-1.01-2.25-0.95c-2.67,0.28-3.83,6.36-6.76,7.08"/>
		<path style="&st6;" d="M89.3,96.6c-0.9-0.75-1.63-1.02-2.25-0.95c-2.67,0.28-3.94,6.32-6.86,7.04"/>
		<path style="&st6;" d="M93.07,96.46c-0.9-0.75-1.63-1.01-2.25-0.95c-2.67,0.28-3.96,6.25-6.88,6.97"/>
		<path style="&st6;" d="M96.99,96.26c-0.9-0.75-1.63-1.01-2.25-0.95c-2.67,0.28-3.94,6.39-6.86,7.11"/>
		<path style="&st6;" d="M99.8,96.23c-0.9-0.75-1.63-1.02-2.24-0.95c-2.67,0.28-3.5,6.2-6.42,6.92"/>
		<path style="&st6;" d="M100.7,95.31c-2.67,0.28-3.41,6.11-6.33,6.83"/>
		<path style="&st6;" d="M103.41,96.16"/>
		<path style="&st6;" d="M106.01,103.45c-0.75-17.58-1.44-47.56-1.44-47.56l-1.97-27.27"/>
		<polyline style="&st6;" points="104.57,55.89 103.4,56.31 98.6,56.53 "/>
		<path style="&st6;" d="M97.4,24.85c0.04,0.99,0.29,3.01-0.08,4.31"/>
		<line style="&st6;" x1="98.2" y1="45.27" x2="82.6" y2="40.8"/>
		<line style="&st6;" x1="82.6" y1="40.8" x2="78.51" y2="53.74"/>
		<path style="&st6;" d="M98.6,56.53l2.2,46.53c2.64,1.64,3.58,0.46,5.21,0.4"/>
		<line style="&st6;" x1="101.2" y1="107.93" x2="101" y2="108.37"/>
		<path style="&st6;" d="M70.4,80.01c-1.12,4.4-1.87,6.8-2.54,9.94"/>
		<path style="&st6;" d="M83.8,96.41"/>
		<path style="&st6;" d="M70,96.85"/>
		<path style="&st6;" d="M65.53,96.6"/>
		<path style="&st6;" d="M62.86,88.2L57,108.81c1.38,1.28,2.61,1.72,4.2,1.77l4.33-13.99l2.33-6.65"/>
		<path style="&st6;" d="M75,43.01c-0.22,1.52,0.78,2.53,0.45,3.43c-4.49,13.52-9.34,32.33-13.26,41.19c0.61,1.06,4,2.31,5.67,2.31"
			/>
		<path style="&st6;" d="M81.07,45.78C78.7,43.7,76.4,44.34,75,43.01c1.19-0.97,4.2-9.31,5.6-14.18"/>
		<path style="&st6;" d="M82.6,40.8c-1.66-0.42-0.91-2.73,0.34-2.08l14.94,4.36"/>
		<line style="&st6;" x1="157" y1="28.61" x2="156.4" y2="33.49"/>
		<polyline style="&st6;" points="183.2,31.94 186.2,33.27 186.8,28.61 "/>
		<line style="&st6;" x1="158.8" y1="28.84" x2="164.2" y2="32.16"/>
		<line style="&st6;" x1="197.4" y1="29.06" x2="197.2" y2="31.72"/>
		<path style="&st6;" d="M144,30.61c0,0-1.2-0.89-1.8-1.33"/>
		<line style="&st6;" x1="167.4" y1="29.5" x2="172.8" y2="33.04"/>
		<line style="&st6;" x1="147.2" y1="36.15" x2="142.8" y2="33.93"/>
		<line style="&st6;" x1="147" y1="35.7" x2="147.4" y2="30.17"/>
		<line style="&st6;" x1="131.8" y1="30.39" x2="137.4" y2="34.15"/>
		<line style="&st6;" x1="150.2" y1="30.39" x2="153.8" y2="32.82"/>
		<path style="&st6;" d="M127.8,34.82c-1.8-0.22-4-2.44-6-3.99"/>
		<polyline style="&st6;" points="129.2,36.59 129.4,30.83 129.6,29.28 "/>
		<line style="&st6;" x1="189.8" y1="30.83" x2="189.4" y2="34.6"/>
		<line style="&st6;" x1="167.2" y1="31.49" x2="167" y2="34.82"/>
		<line style="&st6;" x1="191.8" y1="31.49" x2="194.2" y2="32.82"/>
		<line style="&st6;" x1="181.4" y1="32.82" x2="180.2" y2="37.92"/>
		<line style="&st6;" x1="160" y1="34.15" x2="159.6" y2="39.25"/>
		<path style="&st6;" d="M161.8,34.37c2.2,0.66,3.6,2.66,5.6,3.54"/>
		<line style="&st6;" x1="141.4" y1="38.81" x2="141.4" y2="34.37"/>
		<line style="&st6;" x1="150.2" y1="34.37" x2="150" y2="39.25"/>
		<line style="&st6;" x1="200" y1="34.6" x2="199.8" y2="37.03"/>
		<line style="&st6;" x1="132.4" y1="35.26" x2="132" y2="39.25"/>
		<path style="&st6;" d="M176.4,38.58c0,0-3.8-1.99-5.8-3.1l-0.8,3.99"/>
		<line style="&st6;" x1="152.4" y1="35.48" x2="158" y2="38.58"/>
		<line style="&st6;" x1="194.2" y1="35.7" x2="197.8" y2="37.48"/>
		<line style="&st6;" x1="192.4" y1="35.93" x2="192.4" y2="38.58"/>
		<path style="&st6;" d="M129.82,39.27c0,0-3.42-2.24-4.22-2.68"/>
		<line style="&st6;" x1="184.4" y1="36.81" x2="184" y2="39.47"/>
		<path style="&st6;" d="M190.4,38.81c0,0-2.8-1.55-4.2-1.99"/>
		<line style="&st6;" x1="139.57" y1="39.55" x2="135" y2="36.15"/>
		<line style="&st6;" x1="145" y1="37.92" x2="146.6" y2="38.58"/>
		<line style="&st6;" x1="85.7" y1="26.12" x2="86.2" y2="24.59"/>
		<path style="&st6;" d="M160.07,77.77c0.07,0.16,2.12,0.92,4.13,0.7"/>
		<polyline style="&st6;" points="171.61,43.15 167.7,60.6 190.2,67.93 "/>
		<path style="&st6;" d="M167.2,63.62c-1.5-0.62-0.5-3.58,0.5-3.02"/>
		<path style="&st6;" d="M164.2,78.46c0.82-4.08,1.98-9.94,3-14.84c7.62,2.38,15.67,4.92,23.25,7.36"/>
		<path style="&st6;" d="M164.2,78.46c-1.14,5.68-2.75,14.53-2.75,14.53"/>
		<path style="&st6;" d="M159.6,77.58c2.92-11.93,5.53-23.67,7.18-34.43"/>
		<path style="&st6;" d="M199.32,118.06c-0.28-0.35-1.65-2.33-5.25-5.12"/>
		<path style="&st6;" d="M185.2,120.97"/>
		<path style="&st6;" d="M189.53,114.97c-1.2-1.11-3.71-1.06-6.71-2.17"/>
		<line style="&st6;" x1="182.8" y1="114.35" x2="188.2" y2="107.93"/>
		<path style="&st6;" d="M192.36,108.78c-0.8,1.77-3.8,5.36-5,7.2"/>
		<path style="&st6;" d="M198.07,102.27c-0.6-7.98-1.04-16.11-2.07-24.7c-0.64-9.69-1.64-23.17-2.14-34.24"/>
		<path style="&st6;" d="M98.6,56.53l-0.78-0.23c0.5-4.15,0.56-6.92,0.38-11.03L97.4,29.5c-2.83-0.96-8.21-2.21-11.71-3.38"/>
		<path style="&st6;" d="M189.28,43.33c0.37,9.72,0.44,13.13,0.92,24.6l0.25,3.05c0,2.77,0.25,4.38,0,7.06l0,0l0.58-0.05l4.98-0.42"
			/>
		<line style="&st6;" x1="156.95" y1="90.97" x2="160.07" y2="77.77"/>
		<line style="&st6;" x1="118.6" y1="96.85" x2="118.2" y2="97.52"/>
		<line style="&st6;" x1="108.23" y1="105.02" x2="110.32" y2="102"/>
		<line style="&st6;" x1="72.8" y1="102.83" x2="72.8" y2="102.83"/>
		<line style="&st6;" x1="120.4" y1="104.6" x2="120.4" y2="104.6"/>
		<path style="&st6;" d="M62.26,107.88c2.25-0.97,13.28-1.3,14.74-1.28c2.38,0.04,8.45-1.4,12-1.33c2.5,0.05,6.44-1.15,8.94-1.47
			c0.94,0.97,2.12,1.59,3.25,2.7"/>
		<line style="&st6;" x1="116.6" y1="106.38" x2="116.6" y2="106.38"/>
		<path style="&st6;" d="M68.4,107.04"/>
		<line style="&st6;" x1="113" y1="107.71" x2="113" y2="107.71"/>
		<line style="&st6;" x1="135.6" y1="110.59" x2="135.8" y2="110.59"/>
		<line style="&st6;" x1="134.07" y1="114.74" x2="137.8" y2="117.68"/>
		<line style="&st6;" x1="123.2" y1="107.26" x2="127.26" y2="110.65"/>
		<line style="&st6;" x1="115.95" y1="100.82" x2="118.26" y2="102.76"/>
		<line style="&st6;" x1="111.01" y1="103.04" x2="112.88" y2="104.56"/>
		<path style="&st6;" d="M65.4,119.23"/>
		<path style="&st6;" d="M90,122.77"/>
		<path style="&st6;" d="M101.73,124.65"/>
		<path style="&st6;" d="M99.7,122.77"/>
		<path style="&st6;" d="M101.16,131.79"/>
		<path style="&st6;" d="M105.42,126.71c-2.98,0.07-3.77-0.21-3.64-1.3c0.3-2.61-0.39-20.15-0.58-22.16"/>
		<path style="&st6;" d="M105.42,126.71c3.66,0,2.16-2,1.79-6.6l-1.19-16.66"/>
		<path style="&st6;" d="M109.89,125.14c3.9-0.35,6.22-2.08,7.31-2.23"/>
		<path style="&st6;" d="M114.45,122.07c0.83,1.66,2.85,2.74,4.25,4.29"/>
		<path style="&st6;" d="M151.2,122.11"/>
		<path style="&st6;" d="M153.7,124.43c-1.5-0.83-3.3-2.27-4.5-2.49"/>
		<line style="&st6;" x1="151.45" y1="121.66" x2="143.95" y2="125.26"/>
		<path style="&st6;" d="M108.68,127.86"/>
		<path style="&st6;" d="M103.88,129.17"/>
		<path style="&st6;" d="M1.66,1.8c1.94,0,1.88,5.13,0.14,5.1"/>
		<path style="&st6;" d="M97.49,27.19c-2.54-0.72-8.23-1.69-11.29-2.59"/>
		<polygon style="&st1;" points="97.49,27.19 86.88,24.8 97.21,25.06 "/>
		<polygon style="&st1;" points="86.2,28.61 94.57,28.54 86.57,26.46 "/>
		<path style="&st6;" d="M141.95,96.87c1.38,0.77,4.78,2.4,5.5,2.63"/>
		<path style="&st6;" d="M138.14,100.54c1.38,0.77,4.78,2.4,5.5,2.63"/>
		<path style="&st6;" d="M151.32,105.74c1.38,0.77,5.4,1.99,6.12,2.22"/>
		<path style="&st6;" d="M128.32,117.78c1.44,0.8,4.14,3.39,5.25,3.74"/>
		<path style="&st6;" d="M79.95,106.43c1.44,0.8,2.94,3.36,4.06,3.72"/>
		<path style="&st6;" d="M91.01,115.01c1.86,1.03,3.19,2.77,5.25,3.74"/>
		<path style="&st6;" d="M86.7,106.08c1.86,1.03,1.56,1.87,3.62,2.84"/>
		<path style="&st6;" d="M95.82,111.76c1.86,1.03,2.88,2.84,4.94,3.81"/>
		<path style="&st6;" d="M118.01,109.54c1.44,0.8,4.14,3.39,5.25,3.74"/>
		<path style="&st6;" d="M169.95,106.01c3.14,1.74,3.75,0,6.5,2.22"/>
		<path style="&st6;" d="M185.36,108.04c3.14,1.74,5.42,0.14,8.17,2.35"/>
		<path style="&st6;" d="M166.95,110.65c3.14,1.74,2.62,0.14,5.38,2.35"/>
		<path style="&st6;" d="M154.45,101.58c1.38,0.77,5.9,2.68,6.62,2.91"/>
		<path style="&st6;" d="M137.57,101.03c2.12-0.97,4.5-4.15,6.12-4.57"/>
		<path style="&st6;" d="M151.32,107.12c2.12-0.97,4.25-5.12,5.88-5.54"/>
		<path style="&st6;" d="M128.2,119.03c2.12-0.97,5.88-4.02,7.5-4.43"/>
		<path style="&st6;" d="M90.7,116.67c2.12-0.97,5.88-4.01,7.5-4.43"/>
		<path style="&st6;" d="M81.45,110.03c2.12-0.97,7.38-1.38,9.5-2.63"/>
		<path style="&st6;" d="M94.38,119.03c2.12-0.97,4.75-3.05,6.38-3.46"/>
		<path style="&st6;" d="M117.51,110.51c2.12-0.97,5.94-3.05,7.56-3.46"/>
		<path style="&st6;" d="M111.07,104.21c3.06-0.83,4.44-1.11,7.25-2.98"/>
		<path style="&st6;" d="M120.57,113.35c2.12-0.97,5.31-3.05,6.94-3.46"/>
		<path style="&st6;" d="M166.95,111.55c2.12-0.97,3.12-4.99,4.75-5.4"/>
		<path style="&st6;" d="M170.7,112.94c2.12-0.97,3.62-6.23,5.25-6.65"/>
		<path style="&st6;" d="M154.45,108.51c2.12-0.97,5.12-4.99,6.75-5.4"/>
		<path style="&st6;" d="M131.01,121.45c2.12-0.97,5.81-3.95,7.44-4.36"/>
		<path style="&st6;" d="M141.45,103.38c2.12-0.97,5.12-4.57,6.75-4.98"/>
		<path style="&st6;" d="M128.7,96.04c2.12-0.97,5.13-4.57,6.75-4.99"/>
		<line style="&st6;" x1="191.03" y1="77.99" x2="192.2" y2="100.89"/>
		<path style="&st6;" d="M106.32,94.52c10.27-0.86,13.88-0.99,21.08-1.43"/>
		<path style="&st6;" d="M181.36,122.63c2.33-1.01,3.92-1.85,4.64-2.51l8.07-7.18c2.96-2.49,9.64-8.69,6.96-9.6l-2.96-1.06
			c-1.54-0.6-2.96-1.43-5.88-1.38c-1.13,0.02-5.92-0.32-7.62-0.55c-4.78-0.52-7.81-1.54-12.54-3.09c-4.62-1.83-9.47-3.63-10.58-4.25
			l-4.5-2.03l-8.75-4.62c-8-3.99-15.63,4.02-20.8,6.74l-5.58,3.51c-3.12,1.04-7.94,3.81-14.31,4.85c-0.38,0.07-0.65,0.21-0.65,1.98
			l0.21,4.38"/>
		<path style="&st2;" d="M121.82,96.6c2.34,1.96,3.25,3.46,5.38,4.98c2.7,1.94,7.5,5.95,10.75,8.03c3.43,2.19,11.09,5.79,13.88,6.79
			c3.88,1.38,8.25,1.8,15.75,3.6c6.7,1.61,8,1.8,10.75,2.77"/>
		<path style="&st2;" d="M106.61,110.44c8.12-2.63,15.33-5.68,20.58-8.86s12.88-7.89,21-15.23"/>
		<path style="&st2;" d="M70.57,116.26c4.99-0.43,6.99-0.69,11.12-1.25c4.12-0.55,8.62-2.08,19.38-6.23"/>
		<path style="&st2;" d="M107.57,120.55c3.24-0.25,6.57-1.25,10.12-2.35c8.98-2.8,12-3.46,20.63-8.45
			c8.62-4.99,16.5-10.39,21.75-17.17"/>
		<path style="&st2;" d="M107.07,107.81c0.69,0.49,5.25,6.37,10.62,10.39c6.06,4.53,10.62,7.96,10.69,8.52"/>
		<path style="&st4;" d="M69.51,107.12c0.19,0.62,4.4,2.99,8.19,8.59c1.5,2.21,3.06,2.91,3.06,3.81"/>
		<path style="&st4;" d="M133.32,125.95c4.88-2.08,12.13-5.54,18.13-9.55s18-14.82,20-18.69"/>
		<path style="&st4;" d="M162.2,124.15c1.88-1.25,2.25-1.8,5.38-4.15c3.12-2.35,14.62-11.49,18.12-18.97"/>
		<path style="&st6;" d="M63.45,103.45c5.59-0.39,29.92-1.41,36.92-1.55"/>
		<path style="&st6;" d="M65.53,96.6c5.59-0.39,27.29-1.39,34.29-1.52"/>
		<path style="&st6;" d="M100.2,89.53c-7-2.42-18.79-6.12-29.79-9.52c-0.84-0.26-0.74-2.91,0.92-2.32c8.74,3.1,19.5,6.44,28.69,9.62
			"/>
		<line style="&st6;" x1="71.32" y1="77.7" x2="78" y2="55.2"/>
		<path style="&st6;" d="M98.82,61.29l-20.31-7.55c-1.25-0.35-1.62,1.04-0.51,1.46c5.01,2.07,17.69,6.57,20.69,7.61"/>
		<path style="&st6;" d="M119.45,93.55c-2.67,0.28-4.76,6.27-7.69,6.99"/>
		<path style="&st6;" d="M121.69,94.5c-0.9-0.75-1.63-1.02-2.25-0.95"/>
		<path style="&st6;" d="M112.25,95.31c-0.9-0.75-1.63-1.02-2.25-0.95c-1.33,0.14-2.99,2.82-4.06,4.52"/>
		<path style="&st2;" d="M101.82,122.14"/>
		<path style="&st6;" d="M100.2,101.58c0,0-1.83,0.37-2.83,0.37s-1.17-0.74-1.17-0.74"/>
		<path style="&st6;" d="M51.56,102.28c3.86,4.02,1.2,5.46,5.44,6.53"/>
		<path style="&st6;" d="M58.01,103.94c-2.19,0-4.56,0.97-5.19,1.87"/>
		<path style="&st6;" d="M54.2,106.2c0.49,0.08-1.38,8.27,0,8.61"/>
		<path style="&st6;" d="M55.07,108.51c-0.88,0,0,2.7,0.5,2.84"/>
		<path style="&st6;" d="M53.45,105c-1.42,0.08-1.94,10.54,0.08,12.28"/>
		<path style="&st6;" d="M50.95,109.89c3.48,3.84,2.06,4.71,3.43,5.12"/>
		<path style="&st3;" d="M59.51,123.94c7.38,2.29,13.19,3.74,15.94,4.57c2.75,0.83,9.19,2.15,12.06,2.98
			c2.88,0.83,10.93,4.39,13.85,5.35"/>
		<path style="&st3;" d="M108.75,138.02c8.75,0.28,24.1-0.02,26.95-0.16c11.75-0.55,17-1.11,33.25-2.77
			c13.5-2.21,20.25-3.05,29.75-4.98"/>
		<path style="&st5;" d="M61.26,118.47c0.75,1.73,5.12,10.25,5,10.87"/>
		<path style="&st5;" d="M63.57,128.86c0.19-0.69,6.81-4.29,9.12-5.47c2.75,5.12,5.69,8.31,5.5,9.62"/>
		<path style="&st5;" d="M75.95,132.25c0.19-0.62,6.69-4.81,8-5.54c2.06,3.46,7.06,9.9,6.88,10.46"/>
		<path style="&st5;" d="M108.68,144.73c0.26-0.62,10.46-9.75,11.77-10.47c2.06,3.46,9,7.48,9.12,8.31"/>
		<path style="&st5;" d="M122.2,143.33c-0.12-0.76,3.61-6.77,9.25-9.9c2.06,3.46,9.19,7.2,9,7.75"/>
		<path style="&st5;" d="M134.95,141.39c0-2.28,4.69-6.96,6-7.68c2.06,3.46,7.62,4.57,7.88,5.82"/>
		<path style="&st5;" d="M146.45,139.73c0-0.62,3.69-6.41,5-7.13c3.25,3.05,7.75,5.4,7.75,6.09"/>
		<path style="&st5;" d="M158.2,138.97c-0.12-0.97,2.62-4.85,4.75-7.2c2.06,3.46,7.69,5.26,7.5,5.82"/>
		<path style="&st5;" d="M168.95,138.07c0.19-0.62,3.69-7.51,5-8.24c2.06,3.46,6.94,7.13,6.75,7.69"/>
		<path style="&st5;" d="M180.7,137.51c0.19-0.62,3.44-8.34,4.75-9.07c2.06,3.46,6.22,8,6.25,8.58"/>
		<path style="&st5;" d="M189.2,137.24c0.19-0.62,4.44-10.56,5.75-11.28c2.06,3.46,4.44,3.6,4.75,4.15"/>
		<path style="&st5;" d="M88.7,136.41c0.19-0.48,6.4-4.82,8.19-5.88c1.62,3.39,4.73,11.33,4.41,11.94"/>
		<path style="&st3;" d="M98.51,140.49c0.62-0.42,1.21-2.55,2.43-3.3"/>
		<path style="&st6;" d="M58.63,126.92c0.44,0.42,0.75,0.55,0.38,1.73c-0.39,1.22-6.94-0.55-6.56-2.15
			c0.21-0.89,0.44-1.45,0.94-1.25"/>
		<path style="&st6;" d="M58.88,124.64c0.44,0.42,0.75,0.55,0.38,1.73c-0.39,1.22-6.94-0.55-6.56-2.15
			c0.21-0.89,0.44-1.45,0.94-1.25"/>
		<path style="&st6;" d="M59.13,122.21c0.44,0.42,0.75,0.55,0.38,1.73c-0.39,1.22-6.94-0.55-6.56-2.15
			c0.21-0.89,0.44-1.45,0.94-1.25"/>
		<path style="&st6;" d="M59.45,120c0.44,0.42,0.75,0.55,0.38,1.73c-0.39,1.22-6.94-0.55-6.56-2.15c0.21-0.89,0.44-1.45,0.94-1.25"
			/>
		<path style="&st6;" d="M59.95,117.57c0.44,0.42,0.75,0.55,0.38,1.73c-0.39,1.22-6.94-0.55-6.56-2.15
			c0.21-0.89,0.44-1.45,0.94-1.25"/>
		<path style="&st6;" d="M60.38,115.22c0.44,0.42,0.75,0.55,0.38,1.73c-0.39,1.22-6.94-0.55-6.56-2.15
			c0.21-0.89,0.44-1.45,0.94-1.25"/>
		<path style="&st6;" d="M61.01,112.94c0.44,0.42,0.75,0.55,0.38,1.73c-0.39,1.22-6.94-0.55-6.56-2.15
			c0.21-0.89,0.44-1.45,0.94-1.25"/>
		<path style="&st6;" d="M61.57,110.79c0.44,0.42,0.75,0.55,0.38,1.73c-0.39,1.22-6.94-0.55-6.56-2.15
			c0.21-0.89,0.94-1.66,1.44-1.45"/>
		<path style="&st6;" d="M53.38,125.26c-1.25-0.35-0.77-0.09-1.27-0.51l-0.05-8.61c-0.46-2.68-0.23-4.77-1.11-6.25
			c-0.93-1.74-0.05-6.56,0.61-7.61c1.73-2.64,2.68-4.3,8.04-4.55"/>
		<path style="&st6;" d="M59.01,128.65c2.5,0,4.12,0.14,5.88,0.55c1.75,0.42,10.12,2.84,12.25,3.6s11.38,3.88,12.5,4.36
			c1.12,0.48,8.56,3.46,10.31,4.29c1.75,0.83,0.19,0.66,2.15,1.76"/>
		<path style="&st6;" d="M74.32,123.04c-1.12,0.21-3.38-0.35-4.19-1.25c-1.16-1.29-2.5-6.99-4.56-8.45c-0.5-0.35-1-0.55-2.44-0.18"
			/>
		<path style="&st6;" d="M59.45,111.92"/>
		<path style="&st6;" d="M69.95,121.59c-1.81-0.07-2.94-0.48-3.75-1.32c-1.21-1.23-1.94-6.99-4.25-7.75"/>
		<path style="&st6;" d="M79.51,124.98c-1.12,0.28-3.88-0.69-4.69-1.66c-1.12-1.33-2.75-6.71-4.81-8.17
			c-0.5-0.35-1.44-0.65-2.88-0.28"/>
		<path style="&st6;" d="M87.82,127.2c-1.44,0.07-2-0.07-3.44-0.69c-1.53-0.66-3.25-6.23-5.31-7.69c-0.5-0.35-1.44-0.65-2.88-0.28"
			/>
		<path style="&st6;" d="M84.38,126.51c-1.56,0.14-3.22,0.11-4.88-1.52c-1.23-1.21-2.81-6.44-4.88-7.89
			c-0.5-0.35-1.44-0.65-2.88-0.28"/>
		<path style="&st6;" d="M92.7,128.72c-1.56,0.14-3.22,0.11-4.88-1.52c-1.23-1.21-1.81-5.33-3.88-6.79
			c-0.5-0.35-1.44-0.65-2.88-0.28"/>
		<path style="&st6;" d="M122.95,133.29c-0.86,1.08-3.85,1.23-4.75,0.14c-1.11-1.34-2.84-4.54-4.75-6.23
			c-1.25-1.11-2.3-0.85-3.8-0.48"/>
		<path style="&st6;" d="M133.82,133.15c-0.86,1.08-3.72,1.37-4.63,0.28c-1.11-1.34-4.06-5.16-6.25-6.37c-1.56-0.86-4-1.04-5.5,0.14
			"/>
		<path style="&st6;" d="M142.32,132.94c-0.86,1.08-3.35,1.09-4.25,0c-1.11-1.34-3.44-4.81-5.63-6.02
			c-1.56-0.86-3.25-1.38-4.75-0.21"/>
		<path style="&st6;" d="M147.45,132.46c-0.86,1.08-4.22,1.58-5.12,0.48c-1.11-1.34-3.44-4.95-5.62-6.16
			c-1.56-0.86-2.75-1.04-4.25,0.14"/>
		<path style="&st6;" d="M151.95,131.77c-2.01,2.51-4.78,0.35-4.5,0.69c-1.11-1.34-4.19-4.74-6.38-5.95
			c-1.56-0.86-2.88-0.9-4.38,0.28"/>
		<path style="&st6;" d="M158.7,131.35c-4.06,3.25-7.42-0.39-6.75,0.42c-1.11-1.34-3.31-4.6-5.5-5.82
			c-1.56-0.86-3.88-0.62-5.38,0.55"/>
		<path style="&st6;" d="M164.82,130.52c-0.86,1.08-4.75,1.66-6.12,0.83c-1.44-0.87-4.56-4.6-6.75-5.82c-1.56-0.86-4-0.76-5.5,0.42"
			/>
		<path style="&st6;" d="M170.95,129.83c-0.86,1.08-4.62,1.39-6.12,0.69c-1.51-0.7-5.19-4.33-7.38-5.54c-1.56-0.86-4-0.62-5.5,0.55"
			/>
		<path style="&st6;" d="M175.57,129.14c-0.86,1.08-3.12,1.25-4.62,0.69c-1.56-0.58-5.81-3.91-8-5.12c-1.56-0.86-4-0.9-5.5,0.28"/>
		<path style="&st6;" d="M179.7,128.44c-0.86,1.08-2.62,1.11-4.12,0.69c-1.59-0.44-4.44-3.63-6.62-4.85c-1.56-0.86-4.5-0.76-6,0.42"
			/>
		<path style="&st6;" d="M183.82,127.27c-0.86,1.08-2.62,1.73-4.12,1.18c-1.56-0.57-4.06-3.5-6.25-4.71
			c-3.28-1.82-3.28-0.41-4.5,0.55"/>
		<path style="&st6;" d="M190.2,126.23c-0.86,1.08-4.25,2.35-6,1.38c-1.47-0.81-2.94-3.5-5.12-4.71c-1.56-0.86-4.12-0.35-5.62,0.83"
			/>
		<path style="&st6;" d="M194.95,125.26c-0.86,1.08-3.48,1.44-4.75,0.97c-1.5-0.55-3.81-2.94-6-4.15c-1.56-0.86-3.62-0.35-5.12,0.83
			"/>
		<path style="&st6;" d="M200.32,123.87c-0.86,1.08-4,2.08-5.38,1.39c-1.49-0.75-3.56-3.08-5.75-4.29c-1.56-0.86-3.5-0.07-5,1.11"/>
		<path style="&st6;" d="M206.32,122.07c-1,1.66-2.12,1.8-6,1.8c-1.88-0.97-3.69-2.67-5.88-3.88c-1.56-0.86-3.75-0.21-5.25,0.97"/>
		<path style="&st6;" d="M206.95,118.61c0.5,1.25,0.71,3.58-0.62,3.46c-1.62-0.14-5.69-2.11-7.88-3.32c-1.56-0.86-2.5,0.07-4,1.25"
			/>
		<path style="&st6;" d="M129.2,133.43c-0.86,1.08-5.35,0.96-6.25-0.14c-1.11-1.34-3.59-4.4-5.5-6.09c-1.25-1.11-2.56-0.37-4,0"/>
		<path style="&st6;" d="M97.38,129.62c-1.56,0.14-3.22,0.11-4.88-1.52c-1.23-1.21-1.81-5.33-3.88-6.78
			c-0.5-0.35-2.12-0.69-3.5,0.07"/>
		<path style="&st6;" d="M138.07,132.94c-0.38,0.34-2.77,1.66-4.25,0.21c-1.23-1.21-3.81-4.78-5.88-6.23c-1.3-0.92-2.98-0.98-5,0.14
			"/>
		<path style="&st6;" d="M118.2,133.43c-1.4,0.78-3.72,0.8-5.38-0.83c-1.23-1.21-1.91-5.81-4.38-5.82"/>
		<path style="&st6;" d="M102.02,131.02c-1.59,0.14-2.67,0.16-4.32-1.47c-1.23-1.21-1.81-5.33-3.88-6.79
			c-0.5-0.35-2.12-0.69-3.5,0.07"/>
		<path style="&st6;" d="M101.71,130.41c-1.1-1.2-1.33-5.29-3.39-6.74c-0.5-0.35-2.12-0.69-3.5,0.07"/>
		<path style="&st6;" d="M106.47,131.92"/>
		<path style="&st6;" d="M65.19,119.51c-1.81-0.07-2.94-0.49-3.75-1.32"/>
		<line style="&st3;" x1="59.95" y1="122.35" x2="62.2" y2="119.03"/>
		<line style="&st3;" x1="63.2" y1="106.29" x2="64.95" y2="104.07"/>
		<line style="&st3;" x1="66.7" y1="106.77" x2="63.76" y2="104.07"/>
		<line style="&st3;" x1="89.38" y1="104.97" x2="87.2" y2="103.04"/>
		<line style="&st3;" x1="73.88" y1="106.15" x2="75.7" y2="103.52"/>
		<line style="&st3;" x1="97.76" y1="103.66" x2="100.01" y2="102.14"/>
		<line style="&st3;" x1="85.7" y1="105.25" x2="87.51" y2="102.62"/>
		<line style="&st3;" x1="98.38" y1="123.25" x2="101.07" y2="122.07"/>
		<line style="&st3;" x1="73.57" y1="103.24" x2="77.45" y2="106.29"/>
		<path style="&st6;" d="M101.63,124.29c-0.5-0.35-1.06-0.52-2.44,0.24"/>
		<path style="&st6;" d="M103.26,144.59c-1.52,0-1.25,0.47-1.32,1.03c-0.08,0.68,0.43,1.23,1.5,1.3c0.71,0.05,2.83,0.14,3.78,0.07
			c0.96-0.07,1.48-0.2,1.56-0.96c0.09-0.83-0.72-1.44-1.74-1.37"/>
		<path style="&st6;" d="M103.27,142.33c-1.52,0-1.44,0.4-1.5,0.96c-0.08,0.69,0.43,1.23,1.49,1.3c0.71,0.05,2.83,0.14,3.78,0.07
			s1.48-0.2,1.56-0.96c0.09-0.83-0.54-1.37-1.56-1.3"/>
		<path style="&st6;" d="M103.21,140.07c-1.52,0-1.37,0.41-1.44,0.96c-0.08,0.69,0.43,1.23,1.5,1.3c0.71,0.05,2.83,0.14,3.78,0.07
			c0.96-0.07,1.48-0.2,1.56-0.96c0.09-0.83-0.6-1.37-1.62-1.3"/>
		<path style="&st6;" d="M103.01,137.87c-1.52,0-1.24,0.34-1.3,0.89c-0.08,0.68,0.43,1.23,1.49,1.3c0.71,0.05,2.83,0.14,3.78,0.07
			c0.96-0.07,1.48-0.2,1.56-0.96c0.09-0.83-0.74-1.3-1.76-1.24"/>
		<path style="&st6;" d="M102.9,135.55c-1.52,0-1.32,0.47-1.38,1.03c-0.08,0.69,0.43,1.23,1.49,1.3c0.71,0.05,2.83,0.14,3.78,0.07
			s1.48-0.2,1.56-0.96c0.09-0.83-0.66-1.44-1.68-1.37"/>
		<path style="&st6;" d="M103.3,133.15c-1.52,0-1.83,0.54-1.89,1.09c-0.08,0.68,0.43,1.23,1.5,1.3c0.71,0.05,2.83,0.14,3.78,0.07
			c0.96-0.07,1.48-0.2,1.56-0.96c0.09-0.83-0.13-1.64-1.15-1.58"/>
		<path style="&st6;" d="M103,130.75c-1.52,0-1.71,2.26-0.14,2.33c0.72,0.03,2.83,0.16,3.78,0.07c1.53-0.14,1.84-2.33,0.14-2.33"/>
		<path style="&st6;" d="M103.3,128.63c-1.52,0-1.83,0.54-1.89,1.09c-0.08,0.69,0.52,0.96,1.59,1.03c0.71,0.05,2.83,0.14,3.78,0.07
			c0.96-0.07,1.38,0.07,1.47-0.68c0.09-0.83-0.13-1.64-1.15-1.58"/>
		<path style="&st6;" d="M102.98,126.5c-1.52,0-1.55,0.27-1.61,0.82c-0.08,0.68,0.43,1.23,1.49,1.3c0.71,0.05,2.83,0.14,3.78,0.07
			s1.48-0.2,1.56-0.96c0.09-0.83-0.24-1.23-1.26-1.17"/>
		<path style="&st6;" d="M113.12,133.19c-0.38,0.34-3.4,1.51-4.73,0.07"/>
		<path style="&st6;" d="M197.7,115.98c1.75-1.52,5.19-0.76,8.12-1.94c1.22-0.49,2.08,4.7,0.75,4.85c-1.25,0.14-1.69-0.17-3.88-1.38
			c-1.56-0.86-2.75,0.07-4.25,1.25"/>
		<path style="&st6;" d="M202.7,117.51l3.12-3.46c0,0-2.88-2.22-4.82-2.79c-2,1.33-4.24,0.58-6.93,1.68"/>
		<path style="&st6;" d="M108.79,146.03c5.69-1.16,8.41-1.53,13.16-2.08s11.75-1.94,15.5-2.22c3.75-0.28,10-1.94,16-2.21
			c6-0.28,12.5-1.38,17.75-1.11c5.25,0.28,7-0.55,12-0.83s7.25,1.11,11.75-1.11c4.5-2.22,2.25-2.77,4.75-6.37
			c2.5-3.6,2-3.05,3.75-5.82"/>
		<path style="&st6;" d="M198.07,109.41c0,0,3,0.41,3.06,1.73"/>
		<path style="&st5;" d="M109.72,134.09c2.05,4.13,10.77,11.14,10.57,9.79"/>
	</g>
</svg>
