<?xml version="1.0" encoding="iso-8859-1"?>
<!-- Generator: Adobe Illustrator 11 Build 196, SVG Export Plug-In . SVG Version: 6.0.0 Build 78)  -->
<!DOCTYPE svg PUBLIC "-//W3C//DTD SVG 1.0//EN"    "http://www.w3.org/TR/2001/REC-SVG-20010904/DTD/svg10.dtd" [
	<!ENTITY ns_flows "http://ns.adobe.com/Flows/1.0/">
	<!ENTITY ns_svg "http://www.w3.org/2000/svg">
	<!ENTITY ns_xlink "http://www.w3.org/1999/xlink">
	<!ENTITY st0 "fill:none;stroke:#000000;stroke-width:2;stroke-linecap:round;stroke-linejoin:round;">
]>
<svg  xmlns="&ns_svg;" xmlns:xlink="&ns_xlink;" xmlns:a="http://ns.adobe.com/AdobeSVGViewerExtensions/3.0/"
	 width="195.02" height="290.75" viewBox="0 0 195.02 290.75" style="overflow:visible;enable-background:new 0 0 195.02 290.75"
	 xml:space="preserve">
	<g id="Paths">
		<path style="&st0;" d="M43.77,123.25c-0.41-6.07-3.06-13.96,1.5-16c19-8.5,35.25-4.5,55-5c-3,13,5.5,57,6.5,64
			c-19,8-38,21.5-57,29.5C50.77,173.75,45.52,149,43.77,123.25z"/>
		<path style="&st0;" d="M106.77,166.25c3.25,2.5,7.25,6.75,10.5,11.25c-8.5,9.5-17.5,15.75-26.5,23.75
			c-6.43,5.71-12.75,12-18.75,18c-6-8.25-14-16.5-21-23.5"/>
		<path style="&st0;" d="M100.27,102.25c2-1.75,5.75-4,9.5-4.75c5.25,14.5,15.75,36.75,21.5,50.5"/>
		<path style="&st0;" d="M76.52,93.5c0.5,2-0.25,5.75,0,7.75"/>
		<path style="&st0;" d="M140.52,148.5c-7,0.5-31.5,1.5-36,1.75"/>
		<path style="&st0;" d="M140.77,152.25c-7,0.5-31.5,1.5-36,1.75"/>
		<path style="&st0;" d="M47.02,105.5c-1.75-1.75-5-5.5-6.25-7.25c-10.75,8-20.5,20.75-22.5,43.25c4,4.25,7,7,9,8.5
			c1.5-3,2-4.25,3.5-6.5"/>
		<path style="&st0;" d="M43.27,93.5c-1,1-2,2.5-2.5,4.75"/>
		<path style="&st0;" d="M107.02,163.75c3-1,15.75-7.75,19-10.75"/>
		<path style="&st0;" d="M44.02,131c-6.75,2.5-16.25,13.5-15,21.25"/>
		<path style="&st0;" d="M46.77,153.5c-5.75,0.25-15.25-0.25-17.5-0.25c0,1.25,0.5,2.75,0,4c3.5,0.5,12.25,0.75,17.25,0.5"/>
		<path style="&st0;" d="M31.52,157.5c0.75,16.25,11.07,30.79,18,37.5"/>
		<path style="&st0;" d="M115.27,110.5c5,0.25,15.5,0.25,18.75,0"/>
		<path style="&st0;" d="M110.52,169.5c17.25,0,28.5-0.25,33.25-2.25"/>
		<path style="&st0;" d="M132.52,97.25c0,3.25,0.25,10.5,1.5,13.25s4,5.5,4.75,8.25s1.75,26.25,1.75,29.75s0.25,2.25,0.25,3.75
			s2.43,11.33,3,15c2.5,16.25,3.65,37.52,4.5,42.25c1.75,9.75,3.5,46,2.75,80.25"/>
		<path style="&st0;" d="M83.52,208c0.5,5,0,17.25,0,20.75"/>
		<path style="&st0;" d="M31.52,157.5c-1.25,21.75,0.25,40.25-1.25,57.25c-1.09,12.33-4,32.75-2.75,73.75"/>
		<path style="&st0;" d="M26.77,262c-4,0-9.5-16-11.5-24.5s-4-14-4-21.75S15.52,197,16.52,187s5-25.5,7.75-33.75"/>
		<path style="&st0;" d="M17.77,176.25c-3-13.5-17.32-40.21-16.75-49c0.75-11.5,3.5-17.75,4.5-22.25s6.35-14.74,7.25-20.5
			c1.25-8,2.5-16.25,8.25-28s22.25-30.75,33-32"/>
		<path style="&st0;" d="M79.27,35.25c-0.5-3.5,0.75-6.75,1.5-8.5"/>
		<path style="&st0;" d="M54.02,24.5c5.25-8.25,8-14,11.5-22c6.25,1,27.07,0.1,30.5-0.5c4.25-0.75,9.75-1,13.5-1
			c4.25,3,16,18.75,16.25,23.5c-8.25,1.25-30.5,1.5-37.5,1.5S64.52,27.5,54.02,24.5z"/>
		<path style="&st0;" d="M125.77,24.5c8,6.5,31.25,14.25,37.75,25c2.95,4.88,2,13,3.5,15.75s7.32,15.33,10,28.75
			c1,5,3.04,26.77,3.75,41.25c0.75,15.25,1.74,34.79,2.5,41.25c1.5,12.75,8.5,25.25,10.75,43.5c-4,3.25-8.75,4.69-13.75,4.5
			c-6.5-0.25-11.25-1.5-16-4.5"/>
		<path style="&st0;" d="M161.02,182c2.5,16,2.25,30.25,3.25,38s1.75,13,3.5,20.25c-6.5,5-10.75,13.75-8.5,22.5
			c-6.5-15.25-9-33.75-11-53.25"/>
	</g>
</svg>
