<?xml version="1.0" encoding="iso-8859-1"?>
<!-- Generator: Adobe Illustrator 11 Build 196, SVG Export Plug-In . SVG Version: 6.0.0 Build 78)  -->
<!DOCTYPE svg PUBLIC "-//W3C//DTD SVG 1.0//EN"    "http://www.w3.org/TR/2001/REC-SVG-20010904/DTD/svg10.dtd" [
	<!ENTITY ns_flows "http://ns.adobe.com/Flows/1.0/">
	<!ENTITY ns_svg "http://www.w3.org/2000/svg">
	<!ENTITY ns_xlink "http://www.w3.org/1999/xlink">
	<!ENTITY st0 "fill:#FFFFFF;stroke:#000000;stroke-linecap:round;stroke-linejoin:round;">
]>
<svg  xmlns="&ns_svg;" xmlns:xlink="&ns_xlink;" xmlns:a="http://ns.adobe.com/AdobeSVGViewerExtensions/3.0/"
	 width="129.73" height="126.06" viewBox="0 0 129.73 126.06" style="overflow:visible;enable-background:new 0 0 129.73 126.06"
	 xml:space="preserve">
	<g id="Bild">
		<path style="&st0;" d="M100,75.56c6.5,0.5,9,7,11,13s4,14,4.5,19.5s-1,13,2,13s2.5-2.5,2.5-8s-3.5-38-5.5-47.5s-5-32.5-5.5-44.5
			s2-16.86,8-17c5.38-0.12,7.25,2.5,9,9c2.05,7.63,2,12.5,2,20s-1.5,10.5-1,17.5s4.25,22.25,0.75,22.25s-5.5-9.75-5.75-19
			c-0.18-6.52,0.25-14.12,1-22.75c0.74-8.53,1.63-24.5-6-24.5c-7,0-3,12.5-2,19s5,25.5,6,39s5,26.5,4.5,35.5s3.72,16.2-1.5,22
			c-2.25,2.5-4.14,3.81-8.25,1.75c-2-1-4.75-5.75-6.25-11.25s-2.73-13.68-4-21c-1-5.75-2.75-8-6-8"/>
		<path style="&st0;" d="M42.12,46.81C41.88,34.44,39.5,13.56,38,8.06s-0.5-5-4.5-5c-1.5,0-3,0.75-3,3.5c0-4.5-1.88-6-4.5-6
			c-2,0-2.5,1.25-3,7.5c-0.5-5.5,0-5.5-3.5-5.5s-3,1-3.5,10.5c-0.5-5.5,0-8-3-7.5s-2,1.5-3.5,5.5s-2.5,16-4,26.5s-1.62,32.5-1.62,45
			c0,12-2.38,29-3.38,41c9,0.69,21,2,25,2c0.67-0.5,1.2-1.2,1.62-2.06c2.11-4.31,1.63-12.78,2.88-21.94
			c0.55-4.05,0.9-5.86,1.15-6.09c0.42-0.39,0.54,3.9,0.85,9.59c0.44,7.93,1.03,13.87,2.74,18.63c0.23,0.64,0.48,1.27,0.76,1.87
			c5.06-0.38,3.5-0.75,7.5-1c-2.25-13.5-2.12-39.12-2.12-46.12l1.62-20.88"/>
		<path style="&st0;" d="M31,56.06c-0.5-11.5-0.75-15-1-23c-0.17-5.42,1.72-5,4-5c3,0,6.62,13.25,8.12,18.75"/>
		<path style="&st0;" d="M42.12,76.19c-6,0-8.88,0.88-15.62-0.62c-0.66,2.41-1.12,3-1.5,5.38c3,2.5,12.5,1.25,17,1.25
			C42.5,79.19,42.12,76.19,42.12,76.19z"/>
		<path style="&st0;" d="M20,82.56c3,1.5,6,5,9.5,6c2.38-0.88,3.38-2.38,3.25-3.88c-4-2-8.75-3.75-10.88-5.12
			C19.75,80.5,20,82.56,20,82.56z"/>
		<path style="&st0;" d="M3.25,79.31C2.12,81.06,2,83.19,2.88,85.44c7-0.5,8.88-1.5,12.12-2.38c0.12-1.25-0.12-2-1-3
			C9.62,79.69,3.25,79.31,3.25,79.31z"/>
		<path style="&st0;" d="M19.75,73.69c-1,3.75,1.75,4.62,2.12,5.88c-1.25,0.75-1.04-0.05-1.88,3c-1.75,0.5-3,0.62-5,0.5
			C15,78.06,19.75,73.69,19.75,73.69z"/>
		<path style="&st0;" d="M14.25,78.81c-6.5-3-6.88-3.75-9.25-5.88c0.24-0.69,0.75-2.88,1.62-3.88c2.38,1.5,7.62,6.38,8.75,7.88
			C14.81,77.5,14.25,78.81,14.25,78.81z"/>
		<path style="&st0;" d="M23.5,73.69c1.25,0.75,1.88,1.12,3,1.88c5-2.12,8.5-6.12,10.5-9c3.72-5.35,4-4.5,5.5-9
			c0.34-1.02,1.22-1.81,1.25-2.88c0.11-3.52-0.44-6.72-0.44-9.81c-1.44,0.94-5.06,12.31-8.94,17.44c-2.74,3.63-2.19,5.94-9.5,9.88
			C24.88,72.19,24.31,73,23.5,73.69c-2.25-0.25-3.75,0-3.75,0c-0.5-8.5,1.75-15.12,4.25-19.62s6.5-8.5,6.5-8.5l0.25,4.31
			c-2.12,2.25-3.83,5.78-5.25,11.19c-1.38,5.25-0.12,3.12-0.62,11.12"/>
		<path style="&st0;" d="M19.75,73.69c-3.25,1.19-5.19,4.38-5.75,6.38c0,0,0.5,0.56,0.94,0.94C15.12,79.25,19.75,73.69,19.75,73.69"
			/>
		<path style="&st0;" d="M98,54.56c0-9.5-4-36.5-5-43s-2.69-8.12-4.5-8.12c-2.88,0-3.73,2.32-3.5,4.62c0.7,7.02,2.45,17.39,3,24
			c-0.5-6-2.5-19-3-24s-1.37-7.63-4.62-7.56c-3.19,0.06-3.61,2.55-2.94,12.56c0.58,8.75,1.06,11.34,1.06,18
			c0-5.12-0.57-10.62-1.06-18c-0.5-7.5-1.44-11-3.94-11s-3.62,1.49-3.5,9.5c0.12,8.38,0.88,13.12,1,22c0-4.5-1.5-18-1-22
			s0.5-4.12-1.5-4.5c-2.51-0.47-3.56,5.31-4.44,7.56c-0.91,2.33-1.56,7.44-3.06,16.94s0,18,0,26.5s1.3,28.1-0.25,40.5
			c-1.5,12-0.75,9-1.25,26.5c0,0,32.25-0.75,39-2c0.5-15.5,2.5-73.5,1.5-83s-2-14.5-5-15.5"/>
		<path style="&st0;" d="M31.15,95.48c-0.25,0.23-0.59,2.04-1.15,6.09c-1.25,9.16-0.76,17.63-2.88,21.94l7.62,0.19
			c-1.71-4.76-2.3-10.7-2.74-18.63C31.68,99.38,31.57,95.09,31.15,95.48z"/>
		<path style="&st0;" d="M16,33.06c0,0,0.5-14.5,0-20"/>
		<path style="&st0;" d="M23,8.06c0.5,5.5,1,16.5,1,23.5"/>
		<path style="&st0;" d="M32,27.06c0-5.5-1.5-16-1.5-20.5"/>
		<path style="&st0;" d="M43.31,44.88c-0.56-0.75-0.62-0.5-1.12-0.94"/>
		<path style="&st0;" d="M19.75,73.69c1.31-0.25,3-0.25,3.75,0s2.69,1.56,3,1.88s-1.44,4.56-1.5,5.38s-2.5-1-3.12-1.38
			s-1.62-2-2-2.38S19.75,73.69,19.75,73.69z"/>
	</g>
</svg>
