<?xml version="1.0" encoding="iso-8859-1"?>
<!-- Generator: Adobe Illustrator 11 Build 196, SVG Export Plug-In . SVG Version: 6.0.0 Build 78)  -->
<!DOCTYPE svg PUBLIC "-//W3C//DTD SVG 1.0//EN"    "http://www.w3.org/TR/2001/REC-SVG-20010904/DTD/svg10.dtd" [
	<!ENTITY ns_flows "http://ns.adobe.com/Flows/1.0/">
	<!ENTITY ns_svg "http://www.w3.org/2000/svg">
	<!ENTITY ns_xlink "http://www.w3.org/1999/xlink">
	<!ENTITY st0 "fill:none;stroke:#000000;stroke-width:2;stroke-linecap:round;stroke-linejoin:round;stroke-miterlimit:2;">
]>
<svg  xmlns="&ns_svg;" xmlns:xlink="&ns_xlink;" xmlns:a="http://ns.adobe.com/AdobeSVGViewerExtensions/3.0/"
	 width="180.46" height="175.06" viewBox="0 0 180.46 175.06" style="overflow:visible;enable-background:new 0 0 180.46 175.06"
	 xml:space="preserve">
	<g id="Layer_2">
		<path style="&st0;" d="M45.49,21.06c-6.18-4.12-20,3.62-20.33,13.67c-5.92-1.79-14.79,12.33-12.67,19.33
			c-12.75,6.5-5.67,17.67-5.67,17.67s6.42-3.17,14.92-4.54c11.44-1.85,17.49-0.36,22.38,0.25c17,3,29.88,18.62,33.88,35.62"/>
		<path style="&st0;" d="M6.83,71.72c-5.71,6.96-5.33,13.33-2.33,21.33c-8.31,9.12,0.31,18.62,4.25,19c0,6.13,1,13.25,13.12,13.25
			c7.19,0,13.62-6.5,18.62-12.5c4.1-4.92,6.25-8.75,11.25-12.75c7-4,13.17-2.29,20.17,1.71"/>
		<path style="&st0;" d="M85.49,117.81c0.75,12.5-11.88,30.25-15.25,45c-2.06,8.99-18.75,7.25-25.75,2.25
			c-2.29-1.91-7.62-8.25-4.25-14.25"/>
		<path style="&st0;" d="M77.49,117.31c-5,11-19.5,10.75-31.25,23.5c-3.39,3.68-3.38,6-6,10c-3.35,5.1-7.75,5.5-14.75,2.25
			c-7.08-3.29-8.78-13.39-5-20c3-5.25,11-5.25,17-7c9.46-2.76,20.62-7.25,32.25-9.88"/>
		<path style="&st0;" d="M93.14,103.81c0-32,16-67,41.38-82.75c1.25-8.88-20.12-17.5-28-13c-7.56-6.55-19.3-11.89-33.02,0
			c-7.88-4.5-29.25,4.12-28,13c25.38,15.75,41.38,50.75,41.38,82.75"/>
		<path style="&st0;" d="M134.51,21.06c6.18-4.12,22.48,3.5,20.33,13.67c5.92-1.79,17.14,11.83,12.67,19.33
			c12.75,6.5,5.67,17.67,5.67,17.67s-6.42-3.17-14.92-4.54c-11.44-1.85-17.49-0.36-22.38,0.25c-17,3-29.88,18.62-33.88,35.62"/>
		<path style="&st0;" d="M173.18,71.72c5.71,6.96,7.31,14.33,2.33,21.33c9.81,10.7-1.4,18.12-4.25,19c0,6.13-0.83,12.56-13.12,13.25
			c-7.17,0.4-13.62-6.5-18.62-12.5c-4.1-4.92-6.25-8.75-11.25-12.75c-7-4-13.17-2.29-20.17,1.71"/>
		<path style="&st0;" d="M94.51,117.81c-0.75,12.5,10.71,30.57,15.25,45c3.23,10.25,18.75,7.25,25.75,2.25
			c2.29-1.91,6.62-9.25,3.25-15.25"/>
		<path style="&st0;" d="M109.76,162.81c0,13.7-38.77,16.25-39.52,0"/>
		<path style="&st0;" d="M102.51,117.31c5,11,30.48,24.75,36.25,32.5c3.65,4.89,8.75,6.5,15.75,3.25c7.08-3.29,8.78-13.39,5-20
			c-3-5.25-12-6.25-18-8c-8.79-2.56-18.87-6.08-31.25-8.88"/>
		<path style="&st0;" d="M110.1,111.06l1.52,2c1.17,3.25-5.69,3.86-9.85,4.25c-3.33,0.31-20.19,0.31-23.52,0
			c-4.16-0.39-11.02-1-9.85-4.25l1.52-2"/>
		<path style="&st0;" d="M109.83,106.59l1.38,1.62c2.02,3.04-4.91,3.83-9.38,4.46c-2.59,0.37-21.06,0.37-23.65,0
			c-4.47-0.63-11.4-1.43-9.38-4.46l1.38-1.62"/>
		<path style="&st0;" d="M102.95,107.78c4.1-0.44,11-2,9.25-4.88l-1.12-1.35c-1.98-0.42-2-0.17-2.98,0.21
			c-7.36,2.81-27.49,3.32-36.18,0c-0.99-0.38-1-0.62-2.98-0.21l-1.12,1.35c-1.75,2.88,5.15,4.43,9.25,4.88
			C80.98,108.21,99.02,108.21,102.95,107.78z"/>
	</g>
</svg>
