<?xml version="1.0" encoding="iso-8859-1"?>
<!-- Generator: Adobe Illustrator 11 Build 196, SVG Export Plug-In . SVG Version: 6.0.0 Build 78)  -->
<!DOCTYPE svg PUBLIC "-//W3C//DTD SVG 1.0//EN"    "http://www.w3.org/TR/2001/REC-SVG-20010904/DTD/svg10.dtd" [
	<!ENTITY ns_flows "http://ns.adobe.com/Flows/1.0/">
	<!ENTITY ns_svg "http://www.w3.org/2000/svg">
	<!ENTITY ns_xlink "http://www.w3.org/1999/xlink">
	<!ENTITY st0 "fill:none;stroke:#000000;stroke-linecap:round;stroke-linejoin:round;">
	<!ENTITY st1 "font-family:'MyriadPro-Regular';">
	<!ENTITY st2 "letter-spacing:-1;">
	<!ENTITY st3 "fill:none;stroke:#000000;stroke-width:0.5;stroke-linecap:round;stroke-linejoin:round;stroke-miterlimit:2;">
	<!ENTITY st4 "font-size:13;">
	<!ENTITY st5 "font-family:'HiraKakuPro-W3-83pv-RKSJ-H';adobe-font-script:japanese;">
]>
<svg  xmlns="&ns_svg;" xmlns:xlink="&ns_xlink;" xmlns:a="http://ns.adobe.com/AdobeSVGViewerExtensions/3.0/"
	 width="239.71" height="187.49" viewBox="0 0 239.71 187.49" style="overflow:visible;enable-background:new 0 0 239.71 187.49"
	 xml:space="preserve">
	<g id="Pfade">
		<path style="&st0;" d="M131.95,2.52c0.25,13.32-4.05,19.78-8.59,26.63c-4.38,6.59-8.91,13.41-8.91,26.34v83.5
			c0,12.49,5.27,20.48,9.91,27.53c4.07,6.18,7.59,11.51,7.59,18.97l0,0c0,0.83,0.67,1.5,1.5,1.5s1.5-0.67,1.5-1.5l0,0
			c0-8.36-3.93-14.31-8.08-20.62c-4.63-7.03-9.42-14.29-9.42-25.88v-83.5c0-12.03,4.08-18.17,8.41-24.68
			c4.6-6.93,9.36-14.09,9.09-28.34l0,0c-0.01-0.83-0.7-1.49-1.53-1.47C132.59,1,131.93,1.69,131.95,2.52L131.95,2.52z"/>
		<line style="&st0;" x1="133.7" y1="13.74" x2="133.7" y2="177.24"/>
	</g>
	<g id="Beschriftung">
		<line style="&st3;" x1="133.7" y1="93.61" x2="146.95" y2="93.61"/>
		<line style="&st3;" x1="133.7" y1="8.74" x2="146.95" y2="8.74"/>
		<line style="&st3;" x1="133.7" y1="178.49" x2="146.95" y2="178.49"/>
		<line style="&st3;" x1="127.2" y1="170.49" x2="93.45" y2="170.49"/>
		<line style="&st3;" x1="115.2" y1="102.13" x2="93.45" y2="87.13"/>
		<line style="&st3;" x1="115.2" y1="112.37" x2="93.45" y2="132.37"/>
		<line style="&st3;" x1="130.2" y1="13.49" x2="93.45" y2="13.49"/>
		<line style="&st3;" x1="116.2" y1="39.74" x2="93.45" y2="52.74"/>
	</g>
	<g id="Text">
		<g>
			<text transform="matrix(1 0 0 1 4.0688 15.9478)"><tspan x="0" y="0" style="&st1; &st4;">k</tspan><tspan x="6.33" y="0" style="&st1; &st4;">abu</tspan><tspan x="27.16" y="0" style="&st1; &st4;">r</tspan><tspan x="31.34" y="0" style="&st1; &st4;">ad&#x14D; (</tspan><tspan x="58.53" y="0" style="&st5; &st4;">&#x93D1;&#x7C50;</tspan><tspan x="84.53" y="0" style="&st1; &st4;">)</tspan></text>
			<text transform="matrix(1 0 0 1 148.0176 11.4399)"><tspan x="0" y="0" style="&st1; &st4;">u</tspan><tspan x="7.16" y="0" style="&st1; &st4;">r</tspan><tspan x="11.35" y="0" style="&st1; &st4;">ahazu (</tspan><tspan x="50.27" y="0" style="&st5; &st4;">&#x672B;&#x7B48;</tspan><tspan x="76.27" y="0" style="&st1; &st4;">)</tspan></text>
			<text transform="matrix(1 0 0 1 148.0176 181.353)"><tspan x="0" y="0" style="&st1; &st4;">mo</tspan><tspan x="17.98" y="0" style="&st1; &st4;">t</tspan><tspan x="22.2" y="0" style="&st1; &st4;">ohazu (</tspan><tspan x="62" y="0" style="&st5; &st4;">&#x672C;&#x7B48;</tspan><tspan x="88" y="0" style="&st1; &st4;">)</tspan></text>
			<text transform="matrix(1 0 0 1 149.5 96.1909)"><tspan x="0" y="0" style="&st1; &st4;">tsuru(</tspan><tspan x="31.72" y="0" style="&st5; &st4;">&#x5F26;</tspan><tspan x="44.72" y="0" style="&st1; &st4;">)</tspan></text>
			<text transform="matrix(1 0 0 1 4.0688 172.4478)"><tspan x="0" y="0" style="&st1; &st4;">k</tspan><tspan x="6.33" y="0" style="&st1; &st4;">abu</tspan><tspan x="27.16" y="0" style="&st1; &st4;">r</tspan><tspan x="31.34" y="0" style="&st1; &st4;">ad&#x14D; (</tspan><tspan x="58.53" y="0" style="&st5; &st4;">&#x93D1;&#x7C50;</tspan><tspan x="84.53" y="0" style="&st1; &st4;">)</tspan></text>
			<text transform="matrix(1 0 0 1 0 55.6118)"><tspan x="0" y="0" style="&st1; &st4;">t</tspan><tspan x="4.23" y="0" style="&st1; &st4;">o</tspan><tspan x="11.36" y="0" style="&st1; &st4;">r</tspan><tspan x="15.67" y="0" style="&st1; &st4;">i&#xB7;uchi (</tspan><tspan x="51.09" y="0" style="&st5; &st4;">&#x9CE5;</tspan><tspan x="64.09" y="0" style="&st5; &st4;">&#x6253;</tspan><tspan x="76.39" y="0" style="&st5; &st4;">&#x3061;</tspan><tspan x="88.59" y="0" style="&st1; &st4;">)</tspan></text>
			<text transform="matrix(1 0 0 1 12.8828 89.8618)"><tspan x="0" y="0" style="&st1; &st4;">y</tspan><tspan x="6.07" y="0" style="&st1; &st4;">azu</tspan><tspan x="25.06" y="0" style="&st1; &st4;">r</tspan><tspan x="29.37" y="0" style="&st1; &st4;">i (</tspan><tspan x="38.86" y="0" style="&st5; &st4;">&#x77E2;</tspan><tspan x="51.86" y="0" style="&st5; &st4; &st2;">&#x647A;</tspan><tspan x="63.82" y="0" style="&st5; &st4; &st2;">&#x308A;</tspan><tspan x="75.71" y="0" style="&st1; &st4;">)</tspan></text>
			<text transform="matrix(1 0 0 1 30.459 135.3618)"><tspan x="0" y="0" style="&st1; &st4;">ni</tspan><tspan x="10.26" y="0" style="&st1; &st4;">g</tspan><tspan x="17.45" y="0" style="&st1; &st4;">i</tspan><tspan x="20.49" y="0" style="&st1; &st4;">r</tspan><tspan x="24.79" y="0" style="&st1; &st4;">i (</tspan><tspan x="34.28" y="0" style="&st5; &st4; &st2;">&#x63E1;</tspan><tspan x="46.24" y="0" style="&st5; &st4; &st2;">&#x308A;</tspan><tspan x="58.14" y="0" style="&st1; &st4;">)</tspan></text>
		</g>
	</g>
	<g id="Text_Outlines">
		<g>
			<g>
				<path d="M6.16,12.54h0.03c0.16-0.22,0.36-0.49,0.55-0.71l1.86-2.17h1.37l-2.43,2.59l2.77,3.71H8.9l-2.16-3.02l-0.59,0.65v2.37
					H5.02V6.72h1.14V12.54z"/>
				<path d="M15.78,14.44c0,0.55,0.03,1.08,0.09,1.51h-1.03l-0.1-0.79H14.7c-0.34,0.49-1.03,0.94-1.92,0.94
					c-1.27,0-1.92-0.9-1.92-1.81c0-1.52,1.35-2.35,3.78-2.34v-0.13c0-0.52-0.14-1.47-1.43-1.46c-0.6,0-1.21,0.17-1.65,0.47
					l-0.26-0.77c0.52-0.32,1.29-0.55,2.08-0.55c1.94,0,2.4,1.31,2.4,2.57V14.44z M14.66,12.74C13.42,12.71,12,12.93,12,14.15
					c0,0.75,0.49,1.09,1.07,1.09c0.83,0,1.36-0.52,1.55-1.05c0.04-0.12,0.05-0.25,0.05-0.36V12.74z"/>
				<path d="M17.61,6.72h1.14v3.94h0.03c0.4-0.7,1.13-1.14,2.15-1.14c1.56,0,2.65,1.3,2.65,3.2c0,2.26-1.43,3.38-2.83,3.38
					c-0.91,0-1.62-0.35-2.11-1.18h-0.03l-0.07,1.04h-0.99c0.04-0.43,0.05-1.07,0.05-1.62V6.72z M18.76,13.43
					c0,0.14,0.01,0.29,0.04,0.42c0.22,0.79,0.9,1.34,1.72,1.34c1.21,0,1.91-0.98,1.91-2.42c0-1.27-0.65-2.35-1.87-2.35
					c-0.78,0-1.51,0.55-1.73,1.4c-0.04,0.14-0.07,0.3-0.07,0.48V13.43z"/>
				<path d="M30.28,14.22c0,0.66,0.01,1.23,0.05,1.73h-1.01l-0.06-1.03h-0.03c-0.29,0.51-0.96,1.17-2.08,1.17
					c-0.99,0-2.17-0.56-2.17-2.76V9.66h1.14v3.47c0,1.2,0.38,2.01,1.4,2.01c0.77,0,1.3-0.53,1.51-1.05c0.06-0.16,0.1-0.36,0.1-0.58
					V9.66h1.14V14.22z"/>
				<path d="M32.17,11.62c0-0.74-0.01-1.38-0.05-1.96h1l0.05,1.23h0.04c0.29-0.84,0.99-1.38,1.76-1.38c0.12,0,0.21,0.01,0.31,0.03
					v1.08c-0.12-0.01-0.23-0.03-0.39-0.03c-0.81,0-1.38,0.61-1.53,1.46c-0.03,0.17-0.04,0.35-0.04,0.53v3.37h-1.14V11.62z"/>
				<path d="M40.79,14.44c0,0.55,0.03,1.08,0.09,1.51h-1.03l-0.1-0.79h-0.04c-0.34,0.49-1.03,0.94-1.92,0.94
					c-1.27,0-1.92-0.9-1.92-1.81c0-1.52,1.35-2.35,3.78-2.34v-0.13c0-0.52-0.14-1.47-1.43-1.46c-0.6,0-1.21,0.17-1.65,0.47
					l-0.26-0.77c0.52-0.32,1.29-0.55,2.08-0.55c1.94,0,2.4,1.31,2.4,2.57V14.44z M39.68,12.74c-1.25-0.03-2.67,0.19-2.67,1.42
					c0,0.75,0.49,1.09,1.07,1.09c0.83,0,1.36-0.52,1.55-1.05c0.04-0.12,0.05-0.25,0.05-0.36V12.74z"/>
				<path d="M48.06,6.72v7.6c0,0.56,0.01,1.2,0.05,1.62h-1.03l-0.05-1.09h-0.03c-0.35,0.7-1.1,1.23-2.13,1.23
					c-1.52,0-2.7-1.29-2.7-3.2c-0.01-2.11,1.3-3.38,2.82-3.38c0.98,0,1.62,0.46,1.9,0.95h0.03V6.72H48.06z M46.92,12.22
					c0-0.16-0.01-0.34-0.05-0.49c-0.17-0.71-0.79-1.31-1.65-1.31c-1.18,0-1.89,1.04-1.89,2.42c0,1.29,0.64,2.34,1.86,2.34
					c0.77,0,1.47-0.52,1.68-1.38c0.04-0.14,0.05-0.3,0.05-0.48V12.22z"/>
				<path d="M52.52,16.09c-1.69,0-3.02-1.25-3.02-3.24c0-2.11,1.39-3.34,3.12-3.34c1.81,0,3.03,1.31,3.03,3.22
					c0,2.34-1.62,3.35-3.12,3.35H52.52z M52.57,15.23c1.09,0,1.91-1.03,1.91-2.46c0-1.07-0.53-2.41-1.89-2.41
					c-1.34,0-1.92,1.25-1.92,2.44c0,1.38,0.78,2.42,1.88,2.42H52.57z M54.05,7.59v0.74h-2.92V7.59H54.05z"/>
				<path d="M62.32,6.93c-0.95,1.29-1.62,2.96-1.62,5.33c0,2.31,0.71,3.96,1.62,5.27h-0.88c-0.82-1.08-1.7-2.74-1.7-5.28
					c0.01-2.55,0.88-4.23,1.7-5.32H62.32z"/>
				<path d="M66.27,5.31c0.45,0.94,0.87,1.46,1.66,2.11c-0.19,0.17-0.4,0.42-0.53,0.62c-0.73-0.73-1.08-1.21-1.55-2.09
					c-0.58,1.25-1.26,2.13-2.39,3.11c-0.18-0.34-0.22-0.39-0.48-0.65c1.14-0.87,1.91-1.87,2.35-3.09H66.27z M64.49,11.18
					c-0.51,0-0.79,0.03-1.1,0.08v-0.85c0.31,0.06,0.58,0.08,1.1,0.08h0.83V9.11h-0.35c-0.29,0-0.49,0.01-0.71,0.05V8.38
					c0.22,0.04,0.36,0.05,0.73,0.05h1.55c0.36,0,0.55-0.01,0.73-0.05v0.78c-0.22-0.04-0.42-0.05-0.73-0.05h-0.47v1.38h0.62
					c0.49,0,0.77-0.03,1.01-0.08v0.82c-0.3-0.04-0.57-0.05-1.01-0.05h-0.62v3.91c0.6-0.14,0.84-0.21,1.62-0.43v0.74
					c-1.13,0.3-1.59,0.42-2.39,0.6c-0.42,0.09-0.48,0.1-1.05,0.22c-0.22,0.05-0.22,0.05-0.44,0.09c-0.19,0.05-0.23,0.05-0.43,0.12
					l-0.18-0.86c0.04,0,0.06,0,0.08,0c0.29,0,1.07-0.12,2.05-0.33v-4.07H64.49z M64.13,14.78c-0.16-1.1-0.33-1.83-0.62-2.68
					l0.65-0.19c0.27,0.77,0.43,1.43,0.65,2.67L64.13,14.78z M66.49,14.13c0.29-0.92,0.4-1.42,0.51-2.28l0.65,0.21
					c-0.16,0.86-0.33,1.48-0.58,2.26L66.49,14.13z M73.8,6.31c0.48,0,0.9-0.03,1.25-0.07v0.78c-0.36-0.04-0.75-0.06-1.2-0.06h-0.42
					c-0.3,0.88-0.35,1.03-0.57,1.52h0.74c0.49,0,0.75-0.01,1.1-0.05c-0.04,0.43-0.05,0.81-0.05,1.43v5.88c0,0.82-0.23,1.03-1.2,1.03
					c-0.31,0-0.61-0.01-1.14-0.04c-0.03-0.3-0.08-0.51-0.17-0.78c0.49,0.06,0.96,0.1,1.38,0.1c0.32,0,0.4-0.06,0.4-0.3v-6.6h-5.07
					v6.17c0,0.79,0.01,1.14,0.06,1.52h-0.87c0.05-0.39,0.06-0.78,0.06-1.52v-5.5c0-0.75,0-0.99-0.04-1.38
					c0.33,0.04,0.51,0.04,1.12,0.04h0.61c-0.14-0.61-0.27-0.95-0.55-1.52h-0.1c-0.44,0-0.84,0.03-1.21,0.06V6.25
					c0.36,0.04,0.79,0.07,1.26,0.07h1.69V6.17c0-0.52-0.01-0.73-0.06-1.05h0.92c-0.05,0.3-0.08,0.53-0.08,1.05v0.14H73.8z
					 M71.95,12.26c0.44,0,0.65-0.01,1.04-0.05c-0.04,0.27-0.05,0.52-0.05,0.95v1.09c0,0.56,0,0.68,0.03,0.88
					c-0.05,0-0.09,0-0.12-0.01c-0.18,0-0.53-0.01-0.87-0.01h-1.55v0.75h-0.71c0.04-0.33,0.05-0.56,0.05-0.95v-1.79
					c0-0.43-0.01-0.6-0.04-0.91c0.36,0.04,0.52,0.05,1,0.05h0.23V11.1h-0.65c-0.46,0-0.75,0.01-1.07,0.05V10.4
					c0.31,0.04,0.66,0.06,1.08,0.06h0.64c0-0.58,0-0.72-0.05-1.03h0.79c-0.04,0.29-0.05,0.42-0.05,1.03h0.83
					c0.42,0,0.71-0.01,1.05-0.06v0.75c-0.26-0.04-0.6-0.05-1.05-0.05h-0.83v1.16H71.95z M72.1,8.49c0.22-0.46,0.42-0.98,0.55-1.52
					h-2.61c0.25,0.53,0.4,0.99,0.53,1.52H72.1z M70.43,14.45h1.86v-1.57h-1.86V14.45z"/>
				<path d="M77.66,13.59c-0.17,1.56-0.4,2.44-0.91,3.35c-0.29-0.34-0.35-0.39-0.66-0.6c0.38-0.62,0.57-1.17,0.73-2.16
					c0.19-1.13,0.27-2.47,0.27-4.54c0-0.75-0.01-1.16-0.06-1.59c0.3,0.05,0.6,0.06,1.12,0.06h0.92c0.48,0,0.84-0.03,1.07-0.06
					c-0.04,0.34-0.05,0.68-0.05,1.33v6.36c0,0.82-0.25,1.03-1.14,1.03c-0.21,0-0.27,0-0.82-0.05c-0.01-0.3-0.04-0.44-0.16-0.83
					c0.45,0.09,0.71,0.13,0.97,0.13c0.34,0,0.43-0.08,0.43-0.39v-2.04H77.66z M78.09,6.67c-0.46,0.62-0.7,0.9-1.29,1.44
					c-0.19-0.23-0.34-0.36-0.64-0.52c0.79-0.64,1.26-1.18,1.65-1.94c0.1-0.21,0.1-0.21,0.29-0.69l0.86,0.22
					c-0.13,0.25-0.29,0.53-0.44,0.81h2.28c0.56,0,0.82-0.01,1.1-0.06V6.7c-0.3-0.04-0.46-0.04-1-0.04h-0.98
					c0.22,0.38,0.35,0.62,0.48,0.94l-0.71,0.26c-0.18-0.52-0.3-0.78-0.53-1.2H78.09z M77.79,11.19c-0.03,0.75-0.05,1.22-0.08,1.74
					h1.65v-1.74H77.79z M79.36,8.82h-1.55v1.07c0,0.2,0,0.3-0.01,0.62h1.56V8.82z M83.02,11.37c-0.64,1-1.2,1.6-2.21,2.33
					c-0.17-0.25-0.25-0.34-0.51-0.55c0.82-0.51,1.36-1,1.92-1.78h-0.46c-0.62,0-0.92,0.01-1.25,0.05v-0.75
					c0.32,0.04,0.62,0.05,1.25,0.05h0.86c0.25-0.46,0.36-0.71,0.53-1.14h-0.19c-0.56,0-0.73,0.01-0.96,0.04V8.95
					c-0.35,0.43-0.53,0.62-1.09,1.08c-0.17-0.21-0.3-0.33-0.56-0.48c0.79-0.52,1.14-0.91,1.55-1.66l0.64,0.29
					c-0.25,0.39-0.35,0.53-0.51,0.75c0.14,0.03,0.34,0.03,0.94,0.03h0.39c0.12-0.46,0.19-0.87,0.19-1.09V7.78c0-0.04,0-0.06,0-0.09
					l0.82,0.08c-0.03,0.1-0.03,0.1-0.13,0.53c-0.04,0.12-0.04,0.12-0.08,0.31c-0.03,0.06-0.05,0.18-0.09,0.34h1.18
					c0.57,0,0.81,0,0.94-0.03c-0.23-0.29-0.34-0.42-0.64-0.83l0.61-0.26c0.57,0.79,1.01,1.2,1.86,1.7c-0.22,0.16-0.3,0.25-0.53,0.52
					c-0.6-0.43-0.87-0.65-1.25-1.08v0.64c-0.21-0.03-0.4-0.04-0.98-0.04h-0.22c0.16,0.4,0.29,0.66,0.58,1.14h0.96
					c0.64,0,0.9-0.01,1.23-0.05v0.75c-0.31-0.04-0.62-0.05-1.23-0.05h-0.51c0.57,0.72,1.14,1.2,1.98,1.65
					c-0.23,0.3-0.32,0.43-0.47,0.69c-1.04-0.77-1.62-1.37-2.31-2.34H83.02z M83.38,14.86c-0.73,0.45-1.23,0.74-1.94,1.09
					c-0.29,0.14-0.35,0.18-0.55,0.29l-0.42-0.72c0.7-0.16,1.61-0.58,2.67-1.27L83.38,14.86z M83.07,6.68
					c-0.29,0.48-0.43,0.68-0.86,1.2c-0.23-0.21-0.4-0.31-0.69-0.43c0.62-0.61,0.97-1.12,1.25-1.82c0.08-0.19,0.09-0.22,0.21-0.66
					l0.82,0.21C83.67,5.5,83.54,5.78,83.43,6h3.13c0.57,0,0.82-0.01,1.14-0.06v0.81c-0.33-0.05-0.59-0.06-1.12-0.06h-1.64
					c0.25,0.39,0.33,0.51,0.47,0.81l-0.69,0.29c-0.14-0.35-0.29-0.64-0.56-1.09H83.07z M82.34,12.84c0.36,0.32,0.52,0.51,0.95,1.05
					l-0.51,0.44c-0.26-0.42-0.52-0.72-0.96-1.08L82.34,12.84z M84.43,15.77c0,0.81-0.22,1.01-1.07,1.01c-0.29,0-0.58-0.01-0.96-0.04
					c-0.01-0.3-0.04-0.48-0.16-0.81c0.46,0.09,0.78,0.13,1.09,0.13c0.3,0,0.36-0.07,0.36-0.39v-2.7c0-0.31-0.03-0.56-0.06-0.87h0.85
					c-0.04,0.29-0.05,0.53-0.05,0.87V15.77z M84.88,10.72c-0.27-0.48-0.38-0.7-0.53-1.14h-0.46c-0.17,0.47-0.26,0.66-0.49,1.14
					H84.88z M85.19,14.32c0.82,0.68,1.46,1.04,2.42,1.35c-0.2,0.21-0.34,0.4-0.47,0.66c-0.95-0.44-1.55-0.82-2.44-1.53L85.19,14.32z
					 M86.38,13.19c-0.3,0.38-0.64,0.74-1.07,1.12l-0.49-0.4c0.47-0.4,0.7-0.66,1.01-1.14L86.38,13.19z"/>
				<path d="M88.85,17.52c0.91-1.29,1.62-2.96,1.62-5.3s-0.7-3.99-1.62-5.29h0.88c0.82,1.07,1.7,2.74,1.7,5.29
					c-0.01,2.55-0.88,4.2-1.7,5.3H88.85z"/>
			</g>
			<g>
				<path d="M154.23,9.71c0,0.66,0.01,1.23,0.05,1.73h-1.01l-0.06-1.03h-0.03c-0.29,0.51-0.96,1.17-2.08,1.17
					c-0.99,0-2.17-0.56-2.17-2.76V5.15h1.14v3.47c0,1.2,0.38,2.01,1.4,2.01c0.77,0,1.3-0.53,1.51-1.05c0.07-0.16,0.1-0.36,0.1-0.58
					V5.15h1.14V9.71z"/>
				<path d="M156.13,7.11c0-0.74-0.01-1.38-0.05-1.96h1l0.05,1.23h0.04c0.29-0.84,0.99-1.38,1.75-1.38c0.12,0,0.21,0.01,0.31,0.03
					v1.08c-0.12-0.01-0.23-0.03-0.39-0.03c-0.81,0-1.38,0.61-1.53,1.46c-0.03,0.17-0.04,0.35-0.04,0.53v3.37h-1.14V7.11z"/>
				<path d="M164.75,9.93c0,0.55,0.03,1.08,0.09,1.51h-1.03l-0.1-0.79h-0.04c-0.34,0.49-1.03,0.94-1.92,0.94
					c-1.27,0-1.92-0.9-1.92-1.81c0-1.52,1.35-2.35,3.78-2.34V7.31c0-0.52-0.14-1.47-1.43-1.46c-0.6,0-1.21,0.17-1.65,0.47
					l-0.26-0.77c0.52-0.32,1.29-0.55,2.08-0.55c1.94,0,2.4,1.31,2.4,2.57V9.93z M163.63,8.23c-1.25-0.03-2.67,0.19-2.67,1.42
					c0,0.75,0.49,1.09,1.07,1.09c0.83,0,1.37-0.52,1.55-1.05c0.04-0.12,0.05-0.25,0.05-0.36V8.23z"/>
				<path d="M166.58,2.21h1.14v3.93h0.03c0.18-0.32,0.47-0.62,0.82-0.81c0.34-0.21,0.74-0.33,1.17-0.33c0.85,0,2.2,0.52,2.2,2.69
					v3.74h-1.14V7.81c0-1.01-0.38-1.86-1.46-1.86c-0.74,0-1.31,0.52-1.54,1.14c-0.06,0.16-0.08,0.32-0.08,0.55v3.8h-1.14V2.21z"/>
				<path d="M178.23,9.93c0,0.55,0.03,1.08,0.09,1.51h-1.03l-0.1-0.79h-0.04c-0.34,0.49-1.03,0.94-1.92,0.94
					c-1.27,0-1.92-0.9-1.92-1.81c0-1.52,1.35-2.35,3.78-2.34V7.31c0-0.52-0.14-1.47-1.43-1.46c-0.6,0-1.21,0.17-1.65,0.47
					l-0.26-0.77c0.52-0.32,1.29-0.55,2.08-0.55c1.94,0,2.41,1.31,2.41,2.57V9.93z M177.11,8.23c-1.25-0.03-2.67,0.19-2.67,1.42
					c0,0.75,0.49,1.09,1.07,1.09c0.83,0,1.37-0.52,1.55-1.05c0.04-0.12,0.05-0.25,0.05-0.36V8.23z"/>
				<path d="M179.35,10.78l2.85-3.71c0.29-0.35,0.53-0.65,0.83-0.99V6.06h-3.42V5.15h4.8v0.71l-2.82,3.67
					c-0.26,0.34-0.52,0.66-0.81,0.98v0.03h3.68v0.91h-5.11V10.78z"/>
				<path d="M190.89,9.71c0,0.66,0.01,1.23,0.05,1.73h-1.01l-0.07-1.03h-0.03c-0.29,0.51-0.96,1.17-2.08,1.17
					c-0.99,0-2.17-0.56-2.17-2.76V5.15h1.14v3.47c0,1.2,0.38,2.01,1.4,2.01c0.77,0,1.3-0.53,1.51-1.05c0.07-0.16,0.1-0.36,0.1-0.58
					V5.15h1.14V9.71z"/>
				<path d="M198.01,2.42c-0.95,1.29-1.62,2.96-1.62,5.33c0,2.31,0.71,3.96,1.62,5.27h-0.88c-0.82-1.08-1.7-2.74-1.7-5.28
					c0.01-2.55,0.88-4.23,1.7-5.32H198.01z"/>
				<path d="M208.97,2.68c0.78,0,1.16-0.03,1.46-0.09v0.94c-0.38-0.05-0.79-0.08-1.46-0.08h-3.9v2.25h3.13
					c0.77,0,1.16-0.03,1.46-0.09v0.91c-0.4-0.05-0.83-0.08-1.46-0.08h-2.73c0.68,1.01,1.2,1.62,1.99,2.33
					c1.01,0.91,2.02,1.57,3.25,2.16c-0.26,0.29-0.38,0.46-0.57,0.81c-1.18-0.64-2.11-1.3-3.04-2.18c-0.9-0.85-1.39-1.47-2.11-2.68
					c0.05,0.55,0.08,1.01,0.08,1.47v2.83c0,0.53,0.03,0.91,0.09,1.29h-1.01c0.06-0.38,0.09-0.73,0.09-1.29V8.35
					c0-0.47,0.01-0.79,0.06-1.47c-0.53,0.96-1.04,1.64-1.83,2.43c-0.88,0.87-1.91,1.65-3.07,2.34c-0.16-0.29-0.31-0.49-0.58-0.75
					c2.13-1.1,3.74-2.55,5-4.46h-2.48c-0.53,0-0.94,0.03-1.42,0.08V5.6c0.46,0.06,0.83,0.09,1.42,0.09h2.9V3.44h-3.6
					c-0.56,0-0.96,0.03-1.43,0.08V2.59c0.46,0.06,0.82,0.09,1.43,0.09h3.6V1.66c0-0.43-0.03-0.74-0.08-1.05h0.99
					c-0.07,0.31-0.08,0.53-0.08,1.05v1.01H208.97z"/>
				<path d="M213.95,2.46c-0.42,0.61-0.81,1.09-1.3,1.59c-0.22-0.22-0.38-0.34-0.65-0.49c1.03-0.87,1.74-1.92,2.09-3.05l0.85,0.26
					c-0.25,0.47-0.34,0.65-0.55,1h2.08c0.61,0,0.96-0.03,1.29-0.08v0.83c-0.36-0.04-0.73-0.05-1.23-0.05h-0.81
					c0.21,0.36,0.44,0.83,0.65,1.33l-0.71,0.26c-0.25-0.71-0.36-1.01-0.66-1.59H213.95z M220.65,8.31c0.58,0,0.88-0.01,1.25-0.05
					c-0.05,0.33-0.07,0.64-0.07,1.22v1.64c0,0.55,0.01,0.86,0.08,1.25h-0.9V11.7h-6.32v0.66h-0.9c0.05-0.42,0.08-0.81,0.08-1.25
					V9.48c0-0.56-0.01-0.86-0.06-1.22c0.34,0.04,0.68,0.05,1.25,0.05h2.24V6.99h-3.73c-0.57,0-0.96,0.03-1.34,0.08V6.2
					c0.36,0.05,0.75,0.08,1.34,0.08h3.73V5.04c-1.29,0.09-1.29,0.09-3.78,0.17c-0.08-0.31-0.14-0.47-0.31-0.73c0.21,0,0.35,0,0.48,0
					c3.38,0,6.53-0.34,7.77-0.84L222,4.37c-2.44,0.48-2.44,0.48-3.9,0.61v1.3h3.98c0.61,0,0.96-0.03,1.33-0.08v0.87
					c-0.39-0.06-0.71-0.08-1.33-0.08h-3.98v1.31H220.65z M214.69,11h6.32V9.01h-6.32V11z M218.95,2.47
					c-0.29,0.47-0.57,0.83-0.96,1.3c-0.22-0.2-0.36-0.29-0.65-0.42c0.87-0.92,1.31-1.68,1.65-2.76l0.81,0.19
					c-0.2,0.43-0.27,0.6-0.46,0.98h2.86c0.62,0,0.99-0.03,1.38-0.08v0.85c-0.23-0.05-0.62-0.07-1.38-0.07h-1.33
					c0.29,0.39,0.42,0.61,0.58,0.91l-0.68,0.26c-0.2-0.44-0.4-0.81-0.65-1.17H218.95z"/>
				<path d="M224.55,13.01c0.91-1.29,1.62-2.96,1.62-5.3s-0.7-3.99-1.62-5.29h0.88c0.82,1.07,1.7,2.74,1.7,5.29
					c-0.01,2.55-0.88,4.2-1.7,5.3H224.55z"/>
			</g>
			<g>
				<path d="M148.97,176.76c0-0.66-0.03-1.18-0.05-1.7h1l0.05,1.01h0.04c0.35-0.6,0.94-1.16,1.99-1.16c0.84,0,1.49,0.52,1.77,1.26
					h0.03c0.2-0.36,0.46-0.62,0.71-0.82c0.38-0.29,0.78-0.44,1.38-0.44c0.84,0,2.08,0.54,2.08,2.73v3.71h-1.12v-3.56
					c0-1.22-0.46-1.94-1.37-1.94c-0.66,0-1.16,0.48-1.36,1.03c-0.05,0.17-0.09,0.38-0.09,0.57v3.9h-1.12v-3.78
					c0-1-0.44-1.72-1.31-1.72c-0.7,0-1.24,0.57-1.42,1.14c-0.07,0.17-0.09,0.36-0.09,0.56v3.8h-1.12V176.76z"/>
				<path d="M162.37,181.5c-1.69,0-3.02-1.25-3.02-3.24c0-2.11,1.39-3.34,3.12-3.34c1.81,0,3.03,1.31,3.03,3.22
					c0,2.34-1.62,3.35-3.12,3.35H162.37z M162.42,180.64c1.09,0,1.91-1.03,1.91-2.46c0-1.07-0.53-2.41-1.88-2.41
					c-1.34,0-1.92,1.25-1.92,2.44c0,1.38,0.78,2.42,1.88,2.42H162.42z"/>
				<path d="M168.32,173.55v1.51h1.64v0.87h-1.64v3.38c0,0.78,0.22,1.22,0.86,1.22c0.31,0,0.49-0.03,0.66-0.08l0.05,0.87
					c-0.22,0.08-0.57,0.16-1.01,0.16c-0.53,0-0.96-0.18-1.24-0.48c-0.31-0.35-0.44-0.91-0.44-1.65v-3.42h-0.97v-0.87h0.97v-1.16
					L168.32,173.55z"/>
				<path d="M173.73,181.5c-1.69,0-3.02-1.25-3.02-3.24c0-2.11,1.39-3.34,3.12-3.34c1.81,0,3.03,1.31,3.03,3.22
					c0,2.34-1.62,3.35-3.12,3.35H173.73z M173.78,180.64c1.09,0,1.91-1.03,1.91-2.46c0-1.07-0.53-2.41-1.88-2.41
					c-1.34,0-1.92,1.25-1.92,2.44c0,1.38,0.78,2.42,1.88,2.42H173.78z"/>
				<path d="M178.31,172.12h1.14v3.93h0.03c0.18-0.33,0.47-0.62,0.82-0.81c0.34-0.21,0.74-0.32,1.17-0.32c0.84,0,2.2,0.52,2.2,2.69
					v3.74h-1.14v-3.63c0-1.01-0.38-1.86-1.46-1.86c-0.74,0-1.31,0.52-1.53,1.14c-0.06,0.16-0.08,0.33-0.08,0.55v3.8h-1.14V172.12z"
					/>
				<path d="M189.96,179.85c0,0.55,0.03,1.08,0.09,1.51h-1.03l-0.1-0.79h-0.04c-0.34,0.49-1.03,0.94-1.92,0.94
					c-1.27,0-1.92-0.9-1.92-1.81c0-1.52,1.35-2.35,3.78-2.34v-0.13c0-0.52-0.14-1.47-1.43-1.46c-0.6,0-1.21,0.17-1.65,0.47
					l-0.26-0.77c0.52-0.32,1.29-0.54,2.08-0.54c1.94,0,2.41,1.31,2.41,2.57V179.85z M188.84,178.14c-1.25-0.03-2.67,0.19-2.67,1.42
					c0,0.75,0.49,1.09,1.07,1.09c0.83,0,1.37-0.52,1.55-1.05c0.04-0.12,0.05-0.25,0.05-0.36V178.14z"/>
				<path d="M191.07,180.69l2.85-3.71c0.29-0.35,0.53-0.65,0.83-0.99v-0.03h-3.42v-0.91h4.8v0.71l-2.82,3.67
					c-0.26,0.34-0.52,0.66-0.81,0.97v0.03h3.68v0.91h-5.11V180.69z"/>
				<path d="M202.62,179.62c0,0.66,0.01,1.24,0.05,1.73h-1.01l-0.07-1.03h-0.03c-0.29,0.51-0.96,1.17-2.08,1.17
					c-0.99,0-2.17-0.56-2.17-2.76v-3.68h1.14v3.47c0,1.2,0.38,2.02,1.4,2.02c0.77,0,1.3-0.53,1.51-1.05c0.07-0.16,0.1-0.37,0.1-0.59
					v-3.85h1.14V179.62z"/>
				<path d="M209.74,172.33c-0.95,1.29-1.62,2.96-1.62,5.33c0,2.31,0.71,3.96,1.62,5.27h-0.88c-0.82-1.08-1.7-2.74-1.7-5.28
					c0.01-2.55,0.88-4.23,1.7-5.32H209.74z"/>
				<path d="M212.34,173.63c-0.51,0-0.95,0.03-1.43,0.08v-0.95c0.48,0.06,0.86,0.09,1.43,0.09h3.64v-1.1c0-0.43-0.03-0.74-0.09-1.18
					h1.03c-0.07,0.39-0.09,0.77-0.09,1.17v1.12h3.84c0.65,0,1.08-0.03,1.46-0.09v0.95c-0.55-0.05-0.94-0.08-1.46-0.08h-3.51
					c1.46,2.62,3.2,4.45,5.36,5.62c-0.27,0.3-0.42,0.49-0.6,0.85c-1.05-0.7-1.86-1.38-2.7-2.28c-1.08-1.14-1.81-2.25-2.43-3.65
					c0.04,0.78,0.05,1.26,0.05,1.69v2.95h1.42c0.64,0,0.92-0.01,1.26-0.06v0.91c-0.39-0.07-0.7-0.08-1.29-0.08h-1.39v1.24
					c0,0.61,0.03,1.08,0.09,1.5h-1.03c0.07-0.46,0.09-0.91,0.09-1.51v-1.22h-1.25c-0.61,0-0.92,0.01-1.31,0.08v-0.91
					c0.34,0.05,0.62,0.06,1.29,0.06h1.27v-2.95c0-0.48,0.01-0.97,0.05-1.68c-0.6,1.42-1.29,2.48-2.46,3.76
					c-0.82,0.9-1.52,1.52-2.47,2.18c-0.19-0.35-0.3-0.48-0.61-0.77c1.12-0.68,2.05-1.47,3.04-2.64c0.97-1.12,1.53-1.95,2.12-3.08
					H212.34z"/>
				<path d="M225.68,172.37c-0.42,0.61-0.81,1.09-1.3,1.59c-0.22-0.22-0.38-0.34-0.65-0.49c1.03-0.87,1.74-1.92,2.09-3.05l0.85,0.26
					c-0.25,0.47-0.34,0.65-0.55,1h2.08c0.61,0,0.96-0.03,1.29-0.08v0.83c-0.36-0.04-0.73-0.05-1.23-0.05h-0.81
					c0.21,0.36,0.44,0.83,0.65,1.33l-0.71,0.26c-0.25-0.71-0.36-1.01-0.66-1.59H225.68z M232.37,178.22c0.58,0,0.88-0.01,1.25-0.05
					c-0.05,0.32-0.07,0.64-0.07,1.22v1.64c0,0.55,0.01,0.86,0.08,1.25h-0.9v-0.66h-6.32v0.66h-0.9c0.05-0.42,0.08-0.81,0.08-1.25
					v-1.64c0-0.56-0.01-0.86-0.06-1.22c0.34,0.04,0.68,0.05,1.25,0.05h2.24v-1.31h-3.73c-0.57,0-0.96,0.03-1.34,0.08v-0.87
					c0.36,0.05,0.75,0.08,1.34,0.08h3.73v-1.23c-1.29,0.09-1.29,0.09-3.78,0.17c-0.08-0.31-0.14-0.47-0.31-0.73
					c0.21,0,0.35,0,0.48,0c3.38,0,6.53-0.34,7.77-0.84l0.55,0.73c-2.44,0.48-2.44,0.48-3.9,0.61v1.3h3.98
					c0.61,0,0.96-0.03,1.33-0.08v0.87c-0.39-0.06-0.71-0.08-1.33-0.08h-3.98v1.31H232.37z M226.42,180.91h6.32v-1.99h-6.32V180.91z
					 M230.67,172.38c-0.29,0.47-0.57,0.83-0.96,1.3c-0.22-0.2-0.36-0.29-0.65-0.42c0.87-0.92,1.31-1.68,1.65-2.76l0.81,0.19
					c-0.2,0.43-0.27,0.6-0.46,0.98h2.86c0.62,0,0.99-0.03,1.38-0.08v0.84c-0.23-0.05-0.62-0.06-1.38-0.06h-1.33
					c0.29,0.39,0.42,0.61,0.58,0.91l-0.68,0.26c-0.2-0.44-0.4-0.81-0.65-1.17H230.67z"/>
				<path d="M236.27,182.93c0.91-1.29,1.62-2.96,1.62-5.3s-0.7-3.99-1.62-5.29h0.88c0.82,1.07,1.7,2.74,1.7,5.29
					c-0.01,2.55-0.88,4.2-1.7,5.3H236.27z"/>
			</g>
			<g>
				<path d="M151.83,88.39v1.51h1.64v0.87h-1.64v3.38c0,0.78,0.22,1.22,0.86,1.22c0.31,0,0.49-0.03,0.66-0.08l0.05,0.87
					c-0.22,0.08-0.57,0.16-1.01,0.16c-0.53,0-0.96-0.18-1.24-0.48c-0.31-0.35-0.44-0.91-0.44-1.65v-3.42h-0.97V89.9h0.97v-1.16
					L151.83,88.39z"/>
				<path d="M154.6,95.02c0.35,0.21,0.95,0.44,1.52,0.44c0.82,0,1.21-0.4,1.21-0.94c0-0.55-0.33-0.83-1.16-1.14
					c-1.14-0.42-1.68-1.04-1.68-1.78c0-1.01,0.83-1.85,2.17-1.85c0.64,0,1.2,0.17,1.54,0.39l-0.27,0.82
					c-0.25-0.14-0.7-0.36-1.29-0.36c-0.68,0-1.04,0.39-1.04,0.86c0,0.52,0.36,0.75,1.18,1.08c1.08,0.4,1.65,0.95,1.65,1.88
					c0,1.12-0.87,1.9-2.34,1.9c-0.69,0-1.33-0.18-1.77-0.44L154.6,95.02z"/>
				<path d="M165.16,94.46c0,0.66,0.01,1.23,0.05,1.73h-1.01l-0.07-1.03h-0.03c-0.29,0.51-0.96,1.17-2.08,1.17
					c-0.99,0-2.17-0.56-2.17-2.76V89.9H161v3.47c0,1.2,0.38,2.01,1.4,2.01c0.77,0,1.3-0.53,1.51-1.05c0.07-0.16,0.1-0.36,0.1-0.58
					V89.9h1.14V94.46z"/>
				<path d="M167.06,91.86c0-0.74-0.01-1.38-0.05-1.96h1l0.05,1.23h0.04c0.29-0.84,0.99-1.38,1.75-1.38c0.12,0,0.21,0.01,0.31,0.03
					v1.08c-0.12-0.01-0.23-0.03-0.39-0.03c-0.81,0-1.38,0.61-1.53,1.46c-0.03,0.17-0.04,0.35-0.04,0.53v3.37h-1.14V91.86z"/>
				<path d="M176.58,94.46c0,0.66,0.01,1.23,0.05,1.73h-1.01l-0.07-1.03h-0.03c-0.29,0.51-0.96,1.17-2.08,1.17
					c-0.99,0-2.17-0.56-2.17-2.76V89.9h1.14v3.47c0,1.2,0.38,2.01,1.4,2.01c0.77,0,1.3-0.53,1.51-1.05c0.06-0.16,0.1-0.36,0.1-0.58
					V89.9h1.14V94.46z"/>
				<path d="M180.95,87.17c-0.95,1.29-1.62,2.96-1.62,5.33c0,2.31,0.71,3.96,1.62,5.27h-0.88c-0.82-1.08-1.7-2.74-1.7-5.28
					c0.01-2.55,0.88-4.23,1.7-5.32H180.95z"/>
				<path d="M184.72,91.76c0.48,0,0.78-0.01,0.99-0.04c-0.03,0.25-0.03,0.25-0.05,0.94c-0.04,1.51-0.23,3.04-0.47,3.55
					c-0.23,0.53-0.57,0.7-1.42,0.7c-0.34,0-0.77-0.03-1.27-0.06c-0.03-0.38-0.07-0.56-0.17-0.87c0.61,0.1,1.1,0.14,1.55,0.14
					c0.52,0,0.68-0.22,0.82-1.16c0.09-0.65,0.16-1.53,0.16-2.48h-1.77c-0.33,0-0.65,0.01-0.91,0.03c0.26-1.21,0.4-2.47,0.42-3.63
					c0.29,0.04,0.52,0.05,1.25,0.05h1.05v-2.09h-1.57c-0.52,0-0.9,0.01-1.22,0.05v-0.86c0.23,0.05,0.61,0.08,1.22,0.08h1.56
					c0.32,0,0.53-0.01,0.84-0.04c-0.03,0.27-0.04,0.55-0.04,0.91v1.69c0,0.39,0.01,0.62,0.04,1c-0.2-0.01-0.27-0.01-0.31-0.01h-0.19
					l-0.42-0.01h-1.44c-0.06,0.87-0.14,1.44-0.26,2.12H184.72z M185.86,95.8c0.31,0.01,0.4,0.01,0.53,0.01s0.38,0,0.51-0.01
					c0.68-0.75,1.33-1.59,2.09-2.65c-0.96-1.05-1.64-1.68-2.86-2.63l0.53-0.62c0.49,0.42,0.65,0.56,0.83,0.71
					c0.6-0.83,1.01-1.59,1.43-2.57h-1.26c-0.62,0-1.07,0.03-1.44,0.08v-0.9c0.34,0.05,0.83,0.08,1.44,0.08h1.74v-0.75
					c0-0.47-0.03-0.79-0.09-1.07h0.98c-0.05,0.29-0.08,0.6-0.08,1.07v0.75h1.99c0.58,0,1.17-0.03,1.46-0.08v0.9
					c-0.38-0.05-0.78-0.08-1.43-0.08h-2.4c-0.52,1.18-1.03,2.07-1.76,3.09c0.62,0.57,0.88,0.83,1.38,1.34
					c1.1-1.65,1.72-2.7,1.96-3.37l0.83,0.47c-0.16,0.21-0.18,0.25-0.83,1.34c-0.94,1.53-2.26,3.37-3.5,4.82
					c1.82-0.13,2.37-0.19,4.17-0.47c-0.38-0.74-0.62-1.13-1.25-2.04l0.69-0.36c0.99,1.48,1.42,2.26,2.13,3.86l-0.77,0.36
					c-0.25-0.58-0.31-0.77-0.48-1.14c-2.08,0.35-2.64,0.42-5.37,0.66c-0.4,0.04-0.73,0.08-1.01,0.14L185.86,95.8z"/>
				<path d="M194.48,97.76c0.91-1.29,1.62-2.96,1.62-5.3s-0.7-3.99-1.62-5.29h0.88c0.82,1.07,1.7,2.74,1.7,5.29
					c-0.01,2.55-0.88,4.2-1.7,5.3H194.48z"/>
			</g>
			<g>
				<path d="M6.16,169.04h0.03c0.16-0.22,0.36-0.49,0.55-0.71l1.86-2.17h1.37l-2.43,2.59l2.77,3.71H8.9l-2.16-3.02l-0.59,0.65v2.37
					H5.02v-9.23h1.14V169.04z"/>
				<path d="M15.78,170.94c0,0.55,0.03,1.08,0.09,1.51h-1.03l-0.1-0.79H14.7c-0.34,0.49-1.03,0.94-1.92,0.94
					c-1.27,0-1.92-0.9-1.92-1.81c0-1.52,1.35-2.35,3.78-2.34v-0.13c0-0.52-0.14-1.47-1.43-1.46c-0.6,0-1.21,0.17-1.65,0.47
					l-0.26-0.77c0.52-0.33,1.29-0.55,2.08-0.55c1.94,0,2.4,1.31,2.4,2.57V170.94z M14.66,169.24c-1.25-0.03-2.67,0.2-2.67,1.42
					c0,0.75,0.49,1.09,1.07,1.09c0.83,0,1.36-0.52,1.55-1.05c0.04-0.12,0.05-0.25,0.05-0.36V169.24z"/>
				<path d="M17.61,163.22h1.14v3.94h0.03c0.4-0.7,1.13-1.14,2.15-1.14c1.56,0,2.65,1.3,2.65,3.2c0,2.26-1.43,3.38-2.83,3.38
					c-0.91,0-1.62-0.35-2.11-1.18h-0.03l-0.07,1.04h-0.99c0.04-0.43,0.05-1.07,0.05-1.62V163.22z M18.76,169.93
					c0,0.14,0.01,0.29,0.04,0.42c0.22,0.79,0.9,1.34,1.72,1.34c1.21,0,1.91-0.97,1.91-2.42c0-1.27-0.65-2.35-1.87-2.35
					c-0.78,0-1.51,0.55-1.73,1.4c-0.04,0.14-0.07,0.3-0.07,0.48V169.93z"/>
				<path d="M30.28,170.72c0,0.66,0.01,1.23,0.05,1.73h-1.01l-0.06-1.03h-0.03c-0.29,0.51-0.96,1.17-2.08,1.17
					c-0.99,0-2.17-0.56-2.17-2.76v-3.68h1.14v3.47c0,1.2,0.38,2.01,1.4,2.01c0.77,0,1.3-0.53,1.51-1.05c0.06-0.16,0.1-0.36,0.1-0.58
					v-3.85h1.14V170.72z"/>
				<path d="M32.17,168.12c0-0.74-0.01-1.38-0.05-1.96h1l0.05,1.24h0.04c0.29-0.85,0.99-1.38,1.76-1.38c0.12,0,0.21,0.01,0.31,0.03
					v1.08c-0.12-0.01-0.23-0.03-0.39-0.03c-0.81,0-1.38,0.61-1.53,1.46c-0.03,0.17-0.04,0.35-0.04,0.53v3.37h-1.14V168.12z"/>
				<path d="M40.79,170.94c0,0.55,0.03,1.08,0.09,1.51h-1.03l-0.1-0.79h-0.04c-0.34,0.49-1.03,0.94-1.92,0.94
					c-1.27,0-1.92-0.9-1.92-1.81c0-1.52,1.35-2.35,3.78-2.34v-0.13c0-0.52-0.14-1.47-1.43-1.46c-0.6,0-1.21,0.17-1.65,0.47
					l-0.26-0.77c0.52-0.33,1.29-0.55,2.08-0.55c1.94,0,2.4,1.31,2.4,2.57V170.94z M39.68,169.24c-1.25-0.03-2.67,0.2-2.67,1.42
					c0,0.75,0.49,1.09,1.07,1.09c0.83,0,1.36-0.52,1.55-1.05c0.04-0.12,0.05-0.25,0.05-0.36V169.24z"/>
				<path d="M48.06,163.22v7.61c0,0.56,0.01,1.2,0.05,1.62h-1.03l-0.05-1.09h-0.03c-0.35,0.7-1.1,1.23-2.13,1.23
					c-1.52,0-2.7-1.29-2.7-3.2c-0.01-2.11,1.3-3.38,2.82-3.38c0.98,0,1.62,0.46,1.9,0.95h0.03v-3.74H48.06z M46.92,168.72
					c0-0.16-0.01-0.34-0.05-0.49c-0.17-0.71-0.79-1.31-1.65-1.31c-1.18,0-1.89,1.04-1.89,2.42c0,1.29,0.64,2.34,1.86,2.34
					c0.77,0,1.47-0.52,1.68-1.38c0.04-0.14,0.05-0.3,0.05-0.48V168.72z"/>
				<path d="M52.52,172.59c-1.69,0-3.02-1.25-3.02-3.24c0-2.11,1.39-3.34,3.12-3.34c1.81,0,3.03,1.31,3.03,3.22
					c0,2.34-1.62,3.35-3.12,3.35H52.52z M52.57,171.73c1.09,0,1.91-1.03,1.91-2.46c0-1.07-0.53-2.41-1.89-2.41
					c-1.34,0-1.92,1.25-1.92,2.44c0,1.38,0.78,2.42,1.88,2.42H52.57z M54.05,164.09v0.74h-2.92v-0.74H54.05z"/>
				<path d="M62.32,163.43c-0.95,1.29-1.62,2.96-1.62,5.33c0,2.31,0.71,3.96,1.62,5.26h-0.88c-0.82-1.08-1.7-2.74-1.7-5.28
					c0.01-2.55,0.88-4.22,1.7-5.32H62.32z"/>
				<path d="M66.27,161.81c0.45,0.94,0.87,1.46,1.66,2.11c-0.19,0.17-0.4,0.42-0.53,0.62c-0.73-0.73-1.08-1.21-1.55-2.09
					c-0.58,1.25-1.26,2.13-2.39,3.11c-0.18-0.34-0.22-0.39-0.48-0.65c1.14-0.87,1.91-1.87,2.35-3.09H66.27z M64.49,167.68
					c-0.51,0-0.79,0.03-1.1,0.08v-0.84c0.31,0.07,0.58,0.08,1.1,0.08h0.83v-1.38h-0.35c-0.29,0-0.49,0.01-0.71,0.05v-0.78
					c0.22,0.04,0.36,0.05,0.73,0.05h1.55c0.36,0,0.55-0.01,0.73-0.05v0.78c-0.22-0.04-0.42-0.05-0.73-0.05h-0.47v1.38h0.62
					c0.49,0,0.77-0.03,1.01-0.08v0.82c-0.3-0.04-0.57-0.05-1.01-0.05h-0.62v3.91c0.6-0.14,0.84-0.21,1.62-0.43v0.74
					c-1.13,0.3-1.59,0.42-2.39,0.6c-0.42,0.09-0.48,0.1-1.05,0.22c-0.22,0.05-0.22,0.05-0.44,0.09c-0.19,0.05-0.23,0.05-0.43,0.12
					l-0.18-0.86c0.04,0,0.06,0,0.08,0c0.29,0,1.07-0.12,2.05-0.33v-4.07H64.49z M64.13,171.28c-0.16-1.11-0.33-1.83-0.62-2.68
					l0.65-0.2c0.27,0.77,0.43,1.43,0.65,2.67L64.13,171.28z M66.49,170.63c0.29-0.92,0.4-1.42,0.51-2.28l0.65,0.21
					c-0.16,0.86-0.33,1.48-0.58,2.26L66.49,170.63z M73.8,162.81c0.48,0,0.9-0.03,1.25-0.07v0.78c-0.36-0.04-0.75-0.06-1.2-0.06
					h-0.42c-0.3,0.88-0.35,1.03-0.57,1.52h0.74c0.49,0,0.75-0.01,1.1-0.05c-0.04,0.43-0.05,0.81-0.05,1.43v5.88
					c0,0.82-0.23,1.03-1.2,1.03c-0.31,0-0.61-0.01-1.14-0.04c-0.03-0.3-0.08-0.51-0.17-0.78c0.49,0.06,0.96,0.1,1.38,0.1
					c0.32,0,0.4-0.06,0.4-0.3v-6.6h-5.07v6.17c0,0.79,0.01,1.14,0.06,1.52h-0.87c0.05-0.39,0.06-0.78,0.06-1.52v-5.5
					c0-0.75,0-0.99-0.04-1.38c0.33,0.04,0.51,0.04,1.12,0.04h0.61c-0.14-0.61-0.27-0.95-0.55-1.52h-0.1c-0.44,0-0.84,0.03-1.21,0.06
					v-0.78c0.36,0.04,0.79,0.07,1.26,0.07h1.69v-0.14c0-0.52-0.01-0.73-0.06-1.05h0.92c-0.05,0.3-0.08,0.53-0.08,1.05v0.14H73.8z
					 M71.95,168.76c0.44,0,0.65-0.01,1.04-0.05c-0.04,0.27-0.05,0.52-0.05,0.95v1.09c0,0.56,0,0.68,0.03,0.88
					c-0.05,0-0.09,0-0.12-0.01c-0.18,0-0.53-0.01-0.87-0.01h-1.55v0.75h-0.71c0.04-0.33,0.05-0.56,0.05-0.95v-1.79
					c0-0.43-0.01-0.6-0.04-0.91c0.36,0.04,0.52,0.05,1,0.05h0.23v-1.16h-0.65c-0.46,0-0.75,0.01-1.07,0.05v-0.75
					c0.31,0.04,0.66,0.06,1.08,0.06h0.64c0-0.58,0-0.71-0.05-1.03h0.79c-0.04,0.29-0.05,0.42-0.05,1.03h0.83
					c0.42,0,0.71-0.01,1.05-0.06v0.75c-0.26-0.04-0.6-0.05-1.05-0.05h-0.83v1.16H71.95z M72.1,164.99c0.22-0.46,0.42-0.98,0.55-1.52
					h-2.61c0.25,0.53,0.4,0.99,0.53,1.52H72.1z M70.43,170.95h1.86v-1.57h-1.86V170.95z"/>
				<path d="M77.66,170.09c-0.17,1.56-0.4,2.44-0.91,3.35c-0.29-0.34-0.35-0.39-0.66-0.6c0.38-0.62,0.57-1.17,0.73-2.16
					c0.19-1.13,0.27-2.47,0.27-4.54c0-0.75-0.01-1.16-0.06-1.59c0.3,0.05,0.6,0.07,1.12,0.07h0.92c0.48,0,0.84-0.03,1.07-0.07
					c-0.04,0.34-0.05,0.68-0.05,1.33v6.36c0,0.82-0.25,1.03-1.14,1.03c-0.21,0-0.27,0-0.82-0.05c-0.01-0.3-0.04-0.44-0.16-0.83
					c0.45,0.09,0.71,0.13,0.97,0.13c0.34,0,0.43-0.08,0.43-0.39v-2.04H77.66z M78.09,163.17c-0.46,0.62-0.7,0.9-1.29,1.44
					c-0.19-0.23-0.34-0.36-0.64-0.52c0.79-0.64,1.26-1.18,1.65-1.94c0.1-0.21,0.1-0.21,0.29-0.69l0.86,0.22
					c-0.13,0.25-0.29,0.53-0.44,0.81h2.28c0.56,0,0.82-0.01,1.1-0.07v0.78c-0.3-0.04-0.46-0.04-1-0.04h-0.98
					c0.22,0.38,0.35,0.62,0.48,0.94l-0.71,0.26c-0.18-0.52-0.3-0.78-0.53-1.2H78.09z M77.79,167.69c-0.03,0.75-0.05,1.22-0.08,1.74
					h1.65v-1.74H77.79z M79.36,165.32h-1.55v1.07c0,0.2,0,0.3-0.01,0.62h1.56V165.32z M83.02,167.87c-0.64,1-1.2,1.6-2.21,2.33
					c-0.17-0.25-0.25-0.34-0.51-0.55c0.82-0.51,1.36-1,1.92-1.78h-0.46c-0.62,0-0.92,0.01-1.25,0.05v-0.75
					c0.32,0.04,0.62,0.05,1.25,0.05h0.86c0.25-0.46,0.36-0.71,0.53-1.14h-0.19c-0.56,0-0.73,0.01-0.96,0.04v-0.66
					c-0.35,0.43-0.53,0.62-1.09,1.08c-0.17-0.21-0.3-0.33-0.56-0.48c0.79-0.52,1.14-0.91,1.55-1.66l0.64,0.29
					c-0.25,0.39-0.35,0.53-0.51,0.75c0.14,0.03,0.34,0.03,0.94,0.03h0.39c0.12-0.46,0.19-0.87,0.19-1.09v-0.08c0-0.04,0-0.06,0-0.09
					l0.82,0.08c-0.03,0.1-0.03,0.1-0.13,0.53c-0.04,0.12-0.04,0.12-0.08,0.31c-0.03,0.06-0.05,0.18-0.09,0.34h1.18
					c0.57,0,0.81,0,0.94-0.03c-0.23-0.29-0.34-0.42-0.64-0.83l0.61-0.26c0.57,0.79,1.01,1.2,1.86,1.7c-0.22,0.16-0.3,0.25-0.53,0.52
					c-0.6-0.43-0.87-0.65-1.25-1.08v0.64c-0.21-0.03-0.4-0.04-0.98-0.04h-0.22c0.16,0.4,0.29,0.66,0.58,1.14h0.96
					c0.64,0,0.9-0.01,1.23-0.05v0.75c-0.31-0.04-0.62-0.05-1.23-0.05h-0.51c0.57,0.71,1.14,1.2,1.98,1.65
					c-0.23,0.3-0.32,0.43-0.47,0.69c-1.04-0.77-1.62-1.37-2.31-2.34H83.02z M83.38,171.36c-0.73,0.46-1.23,0.74-1.94,1.09
					c-0.29,0.14-0.35,0.18-0.55,0.29l-0.42-0.72c0.7-0.16,1.61-0.58,2.67-1.27L83.38,171.36z M83.07,163.18
					c-0.29,0.48-0.43,0.68-0.86,1.2c-0.23-0.21-0.4-0.31-0.69-0.43c0.62-0.61,0.97-1.12,1.25-1.82c0.08-0.2,0.09-0.22,0.21-0.66
					l0.82,0.21c-0.13,0.33-0.26,0.61-0.36,0.83h3.13c0.57,0,0.82-0.01,1.14-0.06v0.81c-0.33-0.05-0.59-0.07-1.12-0.07h-1.64
					c0.25,0.39,0.33,0.51,0.47,0.81l-0.69,0.29c-0.14-0.35-0.29-0.64-0.56-1.09H83.07z M82.34,169.34c0.36,0.33,0.52,0.51,0.95,1.05
					l-0.51,0.44c-0.26-0.42-0.52-0.72-0.96-1.08L82.34,169.34z M84.43,172.27c0,0.81-0.22,1.01-1.07,1.01
					c-0.29,0-0.58-0.01-0.96-0.04c-0.01-0.3-0.04-0.48-0.16-0.81c0.46,0.09,0.78,0.13,1.09,0.13c0.3,0,0.36-0.07,0.36-0.39v-2.7
					c0-0.31-0.03-0.56-0.06-0.87h0.85c-0.04,0.29-0.05,0.53-0.05,0.87V172.27z M84.88,167.22c-0.27-0.48-0.38-0.7-0.53-1.14h-0.46
					c-0.17,0.47-0.26,0.66-0.49,1.14H84.88z M85.19,170.82c0.82,0.68,1.46,1.04,2.42,1.35c-0.2,0.21-0.34,0.4-0.47,0.66
					c-0.95-0.44-1.55-0.82-2.44-1.54L85.19,170.82z M86.38,169.69c-0.3,0.38-0.64,0.74-1.07,1.12l-0.49-0.4
					c0.47-0.4,0.7-0.66,1.01-1.14L86.38,169.69z"/>
				<path d="M88.85,174.02c0.91-1.29,1.62-2.96,1.62-5.3s-0.7-3.99-1.62-5.29h0.88c0.82,1.07,1.7,2.74,1.7,5.29
					c-0.01,2.55-0.88,4.2-1.7,5.3H88.85z"/>
			</g>
			<g>
				<path d="M2.33,47.81v1.51h1.64v0.87H2.33v3.38c0,0.78,0.22,1.22,0.86,1.22c0.31,0,0.49-0.03,0.66-0.08l0.05,0.87
					c-0.22,0.08-0.57,0.16-1.01,0.16c-0.53,0-0.96-0.18-1.24-0.48c-0.31-0.35-0.44-0.91-0.44-1.65v-3.42H0.23v-0.87h0.98v-1.16
					L2.33,47.81z"/>
				<path d="M7.73,55.75c-1.69,0-3.02-1.25-3.02-3.24c0-2.11,1.39-3.34,3.12-3.34c1.81,0,3.03,1.31,3.03,3.22
					c0,2.34-1.62,3.35-3.12,3.35H7.73z M7.79,54.9c1.09,0,1.91-1.03,1.91-2.46c0-1.07-0.53-2.41-1.89-2.41
					c-1.34,0-1.92,1.25-1.92,2.44c0,1.38,0.78,2.42,1.88,2.42H7.79z"/>
				<path d="M12.31,51.28c0-0.74-0.01-1.38-0.05-1.96h1l0.05,1.23h0.04c0.29-0.84,0.99-1.38,1.76-1.38c0.12,0,0.21,0.01,0.31,0.03
					v1.08c-0.12-0.01-0.23-0.03-0.39-0.03c-0.81,0-1.38,0.61-1.53,1.46c-0.03,0.17-0.04,0.35-0.04,0.53v3.37h-1.14V51.28z"/>
				<path d="M17.16,48.25c-0.42,0-0.69-0.33-0.69-0.7c0-0.4,0.29-0.71,0.71-0.71c0.42,0,0.7,0.31,0.7,0.71c0,0.38-0.27,0.7-0.72,0.7
					H17.16z M16.61,55.61v-6.29h1.14v6.29H16.61z"/>
				<path d="M20.03,53.01c-0.44,0-0.75-0.35-0.75-0.81c0-0.48,0.33-0.82,0.78-0.82s0.77,0.34,0.77,0.82c0,0.46-0.31,0.81-0.78,0.81
					H20.03z"/>
				<path d="M27.61,53.88c0,0.66,0.01,1.23,0.05,1.73h-1.01l-0.06-1.03h-0.03c-0.29,0.51-0.96,1.17-2.08,1.17
					c-0.99,0-2.17-0.56-2.17-2.76v-3.68h1.14v3.47c0,1.2,0.38,2.01,1.4,2.01c0.77,0,1.3-0.53,1.51-1.05c0.06-0.16,0.1-0.36,0.1-0.58
					v-3.85h1.14V53.88z"/>
				<path d="M33.99,55.38c-0.3,0.14-0.96,0.36-1.81,0.36c-1.9,0-3.13-1.29-3.13-3.21c0-1.94,1.33-3.35,3.38-3.35
					c0.68,0,1.27,0.17,1.59,0.34l-0.26,0.87c-0.27-0.14-0.7-0.3-1.33-0.3c-1.44,0-2.22,1.08-2.22,2.38c0,1.46,0.94,2.35,2.18,2.35
					c0.65,0,1.08-0.16,1.4-0.3L33.99,55.38z"/>
				<path d="M35.33,46.38h1.14v3.93h0.03c0.18-0.32,0.47-0.62,0.82-0.81c0.34-0.21,0.74-0.33,1.17-0.33c0.85,0,2.2,0.52,2.2,2.69
					v3.74h-1.14v-3.63c0-1.01-0.38-1.86-1.46-1.86c-0.74,0-1.31,0.52-1.53,1.14c-0.06,0.16-0.08,0.32-0.08,0.55v3.8h-1.14V46.38z"/>
				<path d="M43.09,48.25c-0.42,0-0.69-0.33-0.69-0.7c0-0.4,0.29-0.71,0.71-0.71c0.42,0,0.7,0.31,0.7,0.71c0,0.38-0.27,0.7-0.72,0.7
					H43.09z M42.55,55.61v-6.29h1.14v6.29H42.55z"/>
				<path d="M50.82,46.59c-0.95,1.29-1.62,2.96-1.62,5.33c0,2.31,0.71,3.96,1.62,5.27h-0.88c-0.82-1.08-1.7-2.74-1.7-5.28
					c0.01-2.55,0.88-4.23,1.7-5.32H50.82z"/>
				<path d="M53.77,53.69c-0.35,1.26-0.65,1.9-1.3,2.78L51.76,56c0.69-0.87,0.95-1.39,1.29-2.61L53.77,53.69z M56.17,45.98
					c0.26-0.42,0.47-0.86,0.61-1.3l0.87,0.17c-0.16,0.3-0.47,0.87-0.64,1.13h3.24c0.51,0,0.77-0.01,1.07-0.05
					c-0.03,0.23-0.04,0.4-0.04,0.83v2.25c0,0.34,0.01,0.61,0.04,0.9c-0.34-0.03-0.65-0.04-1.01-0.04h-5.81v0.83h7.46
					c0.55,0,0.9-0.03,1.26-0.08v0.85c-0.35-0.05-0.77-0.08-1.27-0.08h-7.45v0.99h7.55c0.51,0,0.75-0.01,0.99-0.05
					c-0.04,0.17-0.08,0.42-0.1,0.64c-0.38,3.03-0.62,3.44-2.08,3.44c-0.35,0-0.82-0.03-1.18-0.05c-0.03-0.31-0.06-0.49-0.18-0.82
					c0.66,0.09,0.96,0.12,1.34,0.12c0.65,0,0.83-0.14,0.99-0.77c0.13-0.49,0.25-1.26,0.3-1.83h-7.4c-0.51,0-0.78,0.01-1.08,0.03
					c0.04-0.34,0.05-0.68,0.05-1.18v-4.95c0-0.36-0.01-0.7-0.05-1.01c0.33,0.04,0.57,0.05,1.04,0.05H56.17z M60.48,47.59v-0.94
					h-5.98v0.94H60.48z M54.49,49.2h5.98v-0.96h-5.98V49.2z M55.59,53.52c0.23,0.86,0.35,1.38,0.51,2.48l-0.83,0.14
					c-0.08-0.88-0.21-1.72-0.42-2.52L55.59,53.52z M57.68,53.44c0.34,0.64,0.53,1.13,0.83,2.08l-0.73,0.22
					c-0.25-0.95-0.42-1.39-0.77-2.13L57.68,53.44z M59.8,53.26c0.38,0.52,0.58,0.87,0.88,1.51l-0.66,0.31
					c-0.21-0.55-0.39-0.91-0.82-1.56L59.8,53.26z"/>
				<path d="M66.87,46.1c0-0.49-0.04-0.92-0.09-1.31h1.03c-0.05,0.39-0.08,0.82-0.08,1.3v1.31h0.98c0.38,0,0.65-0.01,0.97-0.07v0.87
					c-0.32-0.04-0.7-0.06-1.09-0.06h-0.86v2.61c0.6-0.16,0.94-0.27,1.95-0.64l0.03,0.78c-0.91,0.33-1.27,0.44-1.98,0.66v3.94
					c0,0.42-0.14,0.69-0.42,0.78c-0.21,0.08-0.62,0.13-1.09,0.13c-0.27,0-0.65-0.01-0.94-0.03c-0.04-0.43-0.06-0.53-0.19-0.87
					c0.46,0.08,0.91,0.12,1.21,0.12c0.47,0,0.57-0.06,0.57-0.35V51.8c-0.56,0.16-0.83,0.22-1.29,0.34c-0.3,0.08-0.55,0.14-0.72,0.21
					l-0.19-0.94c0.57-0.03,1.13-0.13,2.2-0.43v-2.85h-0.94c-0.4,0-0.7,0.01-1.09,0.06v-0.88c0.31,0.05,0.62,0.08,1.05,0.08h0.98
					V46.1z M70.78,46.6c-0.52,0-1,0.03-1.35,0.08v-0.92c0.31,0.05,0.79,0.08,1.37,0.08h4.35c0.56,0,1.04-0.03,1.37-0.08v0.92
					c-0.38-0.05-0.85-0.08-1.38-0.08h-0.87v8.67c0,0.84-0.31,1.04-1.62,1.04c-0.55,0-1.12-0.03-1.79-0.09
					c-0.04-0.38-0.09-0.6-0.19-0.92c0.79,0.14,1.53,0.22,2.07,0.22c0.56,0,0.68-0.05,0.68-0.35V46.6H70.78z"/>
				<path d="M77.96,47.17c0.61,0.16,1.44,0.22,2.81,0.22c0.27-1.01,0.4-1.74,0.42-2.33l1.04,0.1c-0.06,0.19-0.06,0.19-0.21,0.83
					c-0.18,0.75-0.22,0.91-0.35,1.38c2.55-0.09,4.28-0.27,5.12-0.56l0.06,0.94c-0.22,0.03-0.3,0.03-0.57,0.06
					c-1.82,0.23-2.86,0.31-4.82,0.38c-0.36,1.26-0.94,2.74-1.3,3.34l0.01,0.03c0.91-0.68,2.37-1.09,3.78-1.09
					c2.05,0,3.37,0.94,3.37,2.39c0,1.77-1.73,2.93-4.35,2.93c-1.16,0-2.17-0.16-3.21-0.51c0.01-0.09,0.01-0.17,0.01-0.21
					c0-0.05,0-0.06,0-0.08c0-0.06-0.03-0.3-0.06-0.72c1.01,0.44,2.07,0.65,3.25,0.65c2.05,0,3.41-0.82,3.41-2.07
					c0-0.99-0.94-1.59-2.5-1.59c-1,0-2.13,0.26-3.02,0.7c-0.53,0.26-0.83,0.49-1.09,0.83l-0.94-0.38c0.56-0.88,1.3-2.7,1.74-4.24
					c-0.83-0.01-1.4-0.04-2.16-0.09c-0.17-0.01-0.29-0.01-0.36-0.01c-0.03,0-0.06,0-0.1,0L77.96,47.17z"/>
				<path d="M88.85,57.18c0.91-1.29,1.62-2.96,1.62-5.3s-0.7-3.99-1.62-5.29h0.88c0.82,1.07,1.7,2.74,1.7,5.29
					c-0.01,2.55-0.88,4.2-1.7,5.3H88.85z"/>
			</g>
			<g>
				<path d="M14.25,83.57l1.36,3.72c0.16,0.42,0.31,0.91,0.42,1.29h0.03c0.12-0.38,0.25-0.86,0.4-1.31l1.25-3.69h1.21l-1.72,4.48
					c-0.82,2.16-1.38,3.25-2.16,3.94c-0.57,0.48-1.12,0.68-1.4,0.73l-0.29-0.95c0.29-0.09,0.66-0.27,1-0.56
					c0.31-0.25,0.69-0.69,0.96-1.27c0.05-0.12,0.09-0.21,0.09-0.27s-0.03-0.16-0.09-0.3L13,83.57H14.25z"/>
				<path d="M24.34,88.35c0,0.55,0.03,1.08,0.09,1.51H23.4l-0.1-0.79h-0.04C22.92,89.56,22.23,90,21.33,90
					c-1.27,0-1.92-0.9-1.92-1.81c0-1.52,1.35-2.35,3.78-2.34v-0.13c0-0.52-0.14-1.47-1.43-1.46c-0.6,0-1.21,0.17-1.65,0.47
					l-0.26-0.77c0.52-0.32,1.29-0.55,2.08-0.55c1.94,0,2.4,1.31,2.4,2.57V88.35z M23.22,86.65c-1.25-0.03-2.67,0.19-2.67,1.42
					c0,0.75,0.49,1.09,1.07,1.09c0.83,0,1.36-0.52,1.55-1.05c0.04-0.12,0.05-0.25,0.05-0.36V86.65z"/>
				<path d="M25.45,89.2l2.85-3.71c0.29-0.35,0.53-0.65,0.83-0.99v-0.03h-3.42v-0.91h4.8v0.71l-2.82,3.67
					c-0.26,0.34-0.52,0.66-0.81,0.98v0.03h3.68v0.91h-5.11V89.2z"/>
				<path d="M37,88.13c0,0.66,0.01,1.23,0.05,1.73h-1.01l-0.06-1.03h-0.03C35.66,89.34,34.98,90,33.86,90
					c-0.99,0-2.17-0.56-2.17-2.76v-3.68h1.14v3.47c0,1.2,0.38,2.01,1.4,2.01c0.77,0,1.3-0.53,1.51-1.05c0.06-0.16,0.1-0.36,0.1-0.58
					v-3.85H37V88.13z"/>
				<path d="M38.9,85.53c0-0.74-0.01-1.38-0.05-1.96h1l0.05,1.23h0.04c0.29-0.84,0.99-1.38,1.76-1.38c0.12,0,0.21,0.01,0.31,0.03
					v1.08c-0.12-0.01-0.23-0.03-0.39-0.03c-0.81,0-1.38,0.61-1.53,1.46c-0.03,0.17-0.04,0.35-0.04,0.53v3.37H38.9V85.53z"/>
				<path d="M43.74,82.5c-0.42,0-0.69-0.33-0.69-0.7c0-0.4,0.29-0.71,0.71-0.71c0.42,0,0.7,0.31,0.7,0.71c0,0.38-0.27,0.7-0.72,0.7
					H43.74z M43.2,89.86v-6.29h1.14v6.29H43.2z"/>
				<path d="M51.47,80.84c-0.95,1.29-1.62,2.96-1.62,5.33c0,2.31,0.71,3.96,1.62,5.27h-0.88c-0.82-1.08-1.7-2.74-1.7-5.28
					c0.01-2.55,0.88-4.23,1.7-5.32H51.47z"/>
				<path d="M55.3,81.72c-0.55,0.88-0.96,1.37-1.82,2.12c-0.2-0.27-0.31-0.36-0.65-0.58c0.88-0.71,1.31-1.18,1.81-1.96
					c0.53-0.87,0.92-1.78,1.03-2.46l0.92,0.21c-0.12,0.21-0.14,0.27-0.29,0.62c-0.21,0.55-0.34,0.84-0.56,1.27h6.06
					c0.55,0,0.82-0.01,1.16-0.06v0.91c-0.35-0.05-0.62-0.06-1.16-0.06h-3.21c-0.04,1.42-0.08,1.91-0.19,2.68h4.33
					c0.56,0,0.92-0.03,1.31-0.08v0.94c-0.38-0.05-0.78-0.08-1.31-0.08h-4.02c0.91,2.21,2.72,3.73,5.34,4.52
					c-0.22,0.27-0.38,0.55-0.53,0.9c-1.44-0.6-2.39-1.18-3.37-2.04c-0.87-0.78-1.52-1.7-2.03-2.9c-0.36,1.31-0.95,2.3-1.85,3.15
					c-0.85,0.79-1.56,1.24-3.16,1.94c-0.14-0.31-0.31-0.55-0.56-0.82c2.72-0.88,4.24-2.37,4.85-4.75h-3.5
					c-0.53,0-0.94,0.03-1.31,0.08v-0.94c0.39,0.05,0.75,0.08,1.31,0.08h3.67c0.12-0.75,0.16-1.39,0.18-2.68H55.3z"/>
				<path d="M66.4,82.4c-0.26,0-0.52,0.03-0.96,0.08v-0.88c0.34,0.05,0.6,0.08,0.97,0.08H67v-1.2c0-0.61-0.03-0.96-0.08-1.33h0.96
					c-0.06,0.36-0.08,0.7-0.08,1.3v1.22h0.22c0.44,0,0.64-0.01,0.9-0.06v0.84c-0.29-0.04-0.48-0.05-0.88-0.05h-0.23v2.56
					c0.43-0.2,0.64-0.29,1.22-0.57l0.01,0.75c-0.52,0.26-0.72,0.35-1.24,0.57v4.12c0,0.74-0.27,0.92-1.33,0.92
					c-0.26,0-0.61-0.01-0.99-0.03c-0.03-0.31-0.06-0.51-0.18-0.82C65.75,89.98,66.1,90,66.48,90C66.9,90,67,89.93,67,89.64v-3.6
					c-0.29,0.12-0.29,0.12-0.38,0.16c-0.31,0.13-0.32,0.13-0.58,0.22c-0.1,0.04-0.34,0.14-0.48,0.21l-0.23-0.87
					c0.47-0.08,0.81-0.17,1.68-0.48V82.4H66.4z M72.67,83.83c0,0.74-0.25,0.96-1.07,0.96c-0.25,0-0.69-0.01-1.13-0.04
					c-0.03-0.27-0.06-0.44-0.16-0.7c0.48,0.06,0.86,0.1,1.18,0.1c0.36,0,0.46-0.08,0.46-0.35v-3.47h-2.29
					c-0.35,0-0.66,0.01-0.95,0.06v-0.81c0.34,0.04,0.68,0.06,1.07,0.06h1.81c0.49,0,0.78-0.01,1.12-0.05
					c-0.03,0.35-0.04,0.69-0.04,1.18V83.83z M68.77,83.53c0.9-0.22,1.57-0.51,2.85-1.23l0.13,0.65c-0.64,0.36-0.97,0.55-1.35,0.71
					c-1.1,0.51-1.1,0.51-1.29,0.61L68.77,83.53z M69.73,80.53c0.66,0.49,0.88,0.7,1.42,1.3l-0.51,0.6c-0.52-0.69-0.78-0.94-1.4-1.39
					L69.73,80.53z M74.93,85.64c0.66,0,0.88-0.01,1.23-0.05c-0.04,0.32-0.05,0.6-0.05,1.17v2.78c0,0.55,0.03,0.95,0.08,1.34h-0.86
					V90.2h-4.97v0.65h-0.84c0.04-0.34,0.06-0.73,0.06-1.3v-2.82c0-0.51-0.01-0.81-0.05-1.14c0.34,0.04,0.62,0.05,1.2,0.05h1.39
					c0.22-0.35,0.38-0.69,0.49-1.12l0.85,0.19c-0.27,0.49-0.33,0.57-0.53,0.92H74.93z M70.37,87.56h4.97v-1.25h-4.97V87.56z
					 M70.37,89.52h4.97v-1.29h-4.97V89.52z M76.84,83.87c0,0.74-0.25,0.96-1.09,0.96c-0.26,0-0.74-0.01-1.13-0.04
					c-0.03-0.3-0.05-0.43-0.14-0.7c0.49,0.08,0.85,0.1,1.22,0.1c0.34,0,0.43-0.08,0.43-0.36v-3.5H74c-0.36,0-0.66,0.01-0.95,0.06
					v-0.81c0.32,0.04,0.66,0.06,1.04,0.06h1.69c0.48,0,0.78-0.01,1.12-0.05c-0.04,0.34-0.05,0.62-0.05,1.18V83.87z M73.1,83.4
					c0.9-0.29,1.62-0.62,2.61-1.21l0.14,0.62c-0.48,0.31-0.77,0.48-1.05,0.62C73.67,84,73.67,84,73.46,84.12L73.1,83.4z
					 M73.71,80.53c0.66,0.48,0.96,0.77,1.42,1.31l-0.51,0.57c-0.49-0.66-0.78-0.96-1.39-1.42L73.71,80.53z"/>
				<path d="M81.17,79.44c-0.1,0.27-0.18,0.64-0.3,1.34c-0.21,1.31-0.39,2.73-0.43,3.39l0.05,0.01c0.03-0.1,0.03-0.1,0.09-0.38
					c0.16-0.71,0.42-1.35,0.79-1.94c0.73-1.12,1.59-1.68,2.6-1.68c0.85,0,1.57,0.4,2.08,1.16c0.55,0.81,0.78,1.77,0.78,3.16
					c0,2.35-1.05,4.13-3,5.11c-0.62,0.31-1.4,0.57-2.31,0.77c-0.16-0.39-0.23-0.53-0.52-0.88c1.21-0.18,1.88-0.39,2.64-0.82
					c1.52-0.87,2.24-2.24,2.24-4.32c0-2.09-0.73-3.3-1.98-3.3c-0.99,0-1.82,0.74-2.56,2.26c-0.46,0.95-0.7,1.95-0.7,2.9
					c0,0.05,0,0.12,0.01,0.31l-0.94,0.04c0-0.06,0-0.12,0-0.14L79.7,86.2l-0.03-1.35c0-0.12,0-0.23,0-0.3c0-1.27,0.12-2.5,0.44-4.8
					c0.03-0.19,0.04-0.26,0.04-0.42L81.17,79.44z"/>
				<path d="M88.85,91.43c0.91-1.29,1.62-2.96,1.62-5.3s-0.7-3.99-1.62-5.29h0.88c0.82,1.07,1.7,2.74,1.7,5.29
					c-0.01,2.55-0.88,4.2-1.7,5.3H88.85z"/>
			</g>
			<g>
				<path d="M31.41,130.77c0-0.66-0.01-1.18-0.05-1.7h1.01l0.06,1.03h0.03c0.31-0.58,1.04-1.17,2.08-1.17
					c0.87,0,2.22,0.52,2.22,2.68v3.76h-1.14v-3.63c0-1.01-0.38-1.87-1.46-1.87c-0.74,0-1.33,0.53-1.53,1.17
					c-0.05,0.14-0.08,0.35-0.08,0.53v3.8h-1.14V130.77z"/>
				<path d="M39.17,128c-0.42,0-0.69-0.33-0.69-0.7c0-0.4,0.29-0.71,0.71-0.71c0.42,0,0.7,0.31,0.7,0.71c0,0.38-0.27,0.7-0.72,0.7
					H39.17z M38.62,135.36v-6.29h1.14v6.29H38.62z"/>
				<path d="M47.05,134.44c0,1.46-0.3,2.33-0.9,2.89c-0.62,0.56-1.51,0.75-2.3,0.75c-0.75,0-1.59-0.18-2.09-0.52l0.29-0.88
					c0.42,0.27,1.07,0.51,1.85,0.51c1.17,0,2.03-0.61,2.03-2.21v-0.69h-0.03c-0.34,0.59-1.03,1.05-2,1.05
					c-1.56,0-2.68-1.33-2.68-3.08c0-2.13,1.39-3.33,2.85-3.33c1.09,0,1.68,0.56,1.96,1.09h0.03l0.04-0.95h1.01
					c-0.04,0.44-0.05,0.96-0.05,1.72V134.44z M45.9,131.54c0-0.18-0.01-0.35-0.06-0.51c-0.21-0.68-0.75-1.22-1.6-1.22
					c-1.09,0-1.87,0.92-1.87,2.39c0,1.22,0.64,2.26,1.86,2.26c0.72,0,1.35-0.44,1.59-1.18c0.06-0.18,0.09-0.4,0.09-0.61V131.54z"/>
				<path d="M49.4,128c-0.42,0-0.69-0.33-0.69-0.7c0-0.4,0.29-0.71,0.71-0.71c0.42,0,0.7,0.31,0.7,0.71c0,0.38-0.27,0.7-0.72,0.7
					H49.4z M48.85,135.36v-6.29H50v6.29H48.85z"/>
				<path d="M51.9,131.03c0-0.74-0.01-1.38-0.05-1.96h1l0.05,1.24h0.04c0.29-0.84,0.99-1.38,1.76-1.38c0.12,0,0.21,0.01,0.31,0.03
					v1.08c-0.12-0.01-0.23-0.03-0.39-0.03c-0.81,0-1.38,0.61-1.53,1.46c-0.03,0.17-0.04,0.35-0.04,0.53v3.37H51.9V131.03z"/>
				<path d="M56.74,128c-0.42,0-0.69-0.33-0.69-0.7c0-0.4,0.29-0.71,0.71-0.71c0.42,0,0.7,0.31,0.7,0.71c0,0.38-0.27,0.7-0.72,0.7
					H56.74z M56.2,135.36v-6.29h1.14v6.29H56.2z"/>
				<path d="M64.47,126.34c-0.95,1.29-1.62,2.96-1.62,5.33c0,2.31,0.71,3.96,1.62,5.26h-0.88c-0.82-1.08-1.7-2.74-1.7-5.28
					c0.01-2.55,0.88-4.23,1.7-5.32H64.47z"/>
				<path d="M66.35,127.93c-0.29,0-0.53,0.01-0.92,0.07v-0.86c0.3,0.05,0.52,0.07,0.94,0.07h0.55v-1.22c0-0.61-0.01-0.94-0.08-1.33
					h0.96c-0.05,0.35-0.08,0.7-0.08,1.31v1.24h0.34c0.36,0,0.52-0.01,0.77-0.05v0.83c-0.25-0.04-0.43-0.05-0.77-0.05h-0.34v2.69
					c0.47-0.19,0.66-0.29,1.27-0.58L69,130.8c-0.55,0.27-0.7,0.34-1.29,0.58v3.91c0,0.71-0.26,0.92-1.14,0.92
					c-0.26,0-0.57-0.01-0.94-0.04c-0.01-0.3-0.05-0.49-0.17-0.79c0.43,0.06,0.78,0.09,1.1,0.09c0.26,0,0.34-0.07,0.34-0.29v-3.48
					c-0.14,0.05-0.14,0.05-0.82,0.29c-0.23,0.09-0.43,0.17-0.62,0.26l-0.18-0.87c0.4-0.04,0.73-0.14,1.62-0.46v-3H66.35z
					 M72.96,129.55c-0.34,0.77-0.49,1.04-0.83,1.59c1.09-0.04,2.29-0.13,3.02-0.22c-0.27-0.29-0.43-0.43-0.84-0.82l0.58-0.32
					c0.86,0.79,1.25,1.21,2.01,2.17l-0.66,0.4c-0.27-0.43-0.38-0.57-0.6-0.86c-0.87,0.12-1.12,0.14-2.02,0.22v1.33h1.66
					c0.56,0,0.82-0.01,1.14-0.06v0.82c-0.38-0.05-0.69-0.06-1.14-0.06h-1.66v1.47h2.24c0.55,0,0.9-0.03,1.22-0.08v0.86
					c-0.44-0.05-0.79-0.08-1.25-0.08h-5.13c-0.48,0-0.85,0.03-1.21,0.06v-0.83c0.3,0.05,0.55,0.06,1.05,0.06h2.31v-1.47h-1.42
					c-0.39,0-0.71,0.01-1.07,0.06v-0.82c0.31,0.05,0.57,0.06,1.07,0.06h1.42v-1.27c-0.38,0.03-0.61,0.04-1.35,0.08
					c-0.62,0.04-0.74,0.04-1.16,0.09l-0.08-0.79c0.34,0.04,0.46,0.04,0.94,0.04c0.01,0,0.06,0,0.13,0c0.34-0.51,0.64-1.08,0.83-1.62
					h-2.08c-0.08,3.18-0.47,4.89-1.47,6.51c-0.26-0.27-0.38-0.35-0.69-0.52c0.53-0.82,0.78-1.4,1.01-2.37
					c0.31-1.3,0.4-2.82,0.4-6.41c0-0.94-0.01-1.35-0.04-1.68c0.43,0.04,0.73,0.05,1.34,0.05h4.81c0.55,0,0.87-0.01,1.23-0.05
					c-0.03,0.3-0.04,0.53-0.04,0.92v0.95c0,0.36,0.01,0.66,0.04,0.92c-0.31-0.03-0.68-0.04-1.09-0.04h-5.49l-0.01,1.01h5.76
					c0.56,0,0.83-0.01,1.13-0.07v0.82c-0.34-0.05-0.66-0.07-1.09-0.07H72.96z M75.88,127.18v-1.35h-5.75v0.53
					c0,0.35,0,0.6-0.01,0.82H75.88z"/>
				<path d="M81.17,124.94c-0.1,0.27-0.18,0.64-0.3,1.34c-0.21,1.31-0.39,2.73-0.43,3.39l0.05,0.01c0.03-0.1,0.03-0.1,0.09-0.38
					c0.16-0.71,0.42-1.35,0.79-1.94c0.73-1.12,1.59-1.68,2.6-1.68c0.85,0,1.57,0.4,2.08,1.16c0.55,0.81,0.78,1.77,0.78,3.16
					c0,2.35-1.05,4.13-3,5.11c-0.62,0.31-1.4,0.57-2.31,0.77c-0.16-0.39-0.23-0.53-0.52-0.88c1.21-0.18,1.88-0.39,2.64-0.82
					c1.52-0.87,2.24-2.24,2.24-4.32c0-2.09-0.73-3.3-1.98-3.3c-0.99,0-1.82,0.74-2.56,2.26c-0.46,0.95-0.7,1.95-0.7,2.9
					c0,0.05,0,0.12,0.01,0.31l-0.94,0.04c0-0.07,0-0.12,0-0.14l-0.01-0.23l-0.03-1.35c0-0.12,0-0.23,0-0.3c0-1.27,0.12-2.5,0.44-4.8
					c0.03-0.19,0.04-0.26,0.04-0.42L81.17,124.94z"/>
				<path d="M88.85,136.93c0.91-1.29,1.62-2.96,1.62-5.3s-0.7-3.99-1.62-5.29h0.88c0.82,1.07,1.7,2.74,1.7,5.29
					c-0.01,2.55-0.88,4.2-1.7,5.3H88.85z"/>
			</g>
		</g>
	</g>
</svg>
