<?xml version="1.0" encoding="iso-8859-1"?>
<!-- Generator: Adobe Illustrator 11 Build 196, SVG Export Plug-In . SVG Version: 6.0.0 Build 78)  -->
<!DOCTYPE svg PUBLIC "-//W3C//DTD SVG 1.0//EN"    "http://www.w3.org/TR/2001/REC-SVG-20010904/DTD/svg10.dtd" [
	<!ENTITY ns_flows "http://ns.adobe.com/Flows/1.0/">
	<!ENTITY ns_svg "http://www.w3.org/2000/svg">
	<!ENTITY ns_xlink "http://www.w3.org/1999/xlink">
	<!ENTITY st0 "fill:none;stroke:#000000;stroke-linecap:round;stroke-linejoin:round;">
]>
<svg  xmlns="&ns_svg;" xmlns:xlink="&ns_xlink;" xmlns:a="http://ns.adobe.com/AdobeSVGViewerExtensions/3.0/"
	 width="71.75" height="172.84" viewBox="0 0 71.75 172.84" style="overflow:visible;enable-background:new 0 0 71.75 172.84"
	 xml:space="preserve">
	<g id="Bild">
		<path style="&st0;" d="M11,38.88c0,0-3.75-0.5-6.75-0.25S0.5,41.5,0.5,43.88v72.75c0,1.88,4,0.88,4-0.75v-57.5"/>
		<polyline style="&st0;" points="34.94,20.62 22.25,20.62 22.25,33.62 67.5,33.62 67.5,20.62 38.06,20.62 "/>
		<path style="&st0;" d="M4.5,57.25v-13c0-1.5,0.75-3.62,2-3.62c1.75,0,3,1.62,3,3c0,2.12-2,1.88-2,3.75v115.38
			c0,2,4.25,2,4.25-0.12V147"/>
		<path style="&st0;" d="M18.5,39.88c21.75,0.38,30.88,1,52.62-0.12"/>
		<path style="&st0;" d="M23.93,152.08l-0.01,9.58c-0.17,1.08,0.68,1.74,0.99,1.94c10.07,6.52,32.38,6.33,39.68,1.06
			c0.77-0.56,1.17-1.25,1.17-1.92v-9.17"/>
		<path style="&st0;" d="M54,168.12v3.38c0,1.25,7,1,7,0v-4.94"/>
		<path style="&st0;" d="M18.5,45.95c12,0.55,43.5,0.55,52.62-0.5"/>
		<path style="&st0;" d="M18.5,52.12C30.25,53,61,52.75,71.12,51.62"/>
		<path style="&st0;" d="M18.5,58.29c7.75,1.21,45.75,1.21,52.62-0.5"/>
		<path style="&st0;" d="M18.5,64.46c11.75,1.04,42.75,1.04,52.62-0.5"/>
		<path style="&st0;" d="M18.5,70.64c10.5,2.61,43.5,1.61,52.62-0.5"/>
		<path style="&st0;" d="M18.5,76.81c10.13,2.93,44.91,2.48,52.62-0.5"/>
		<path style="&st0;" d="M18.5,82.98c10.76,3.11,44.95,2.47,52.62-0.5"/>
		<path style="&st0;" d="M18.5,89.15c12.23,3.54,43.47,3.04,52.62-0.5"/>
		<path style="&st0;" d="M18.5,95.32c11.49,3.33,44.21,2.76,52.62-0.5"/>
		<path style="&st0;" d="M18.5,101.5c11.36,3.29,43.68,2.96,52.62-0.5"/>
		<path style="&st0;" d="M18.5,107.67c12.97,3.75,42.74,3.33,52.62-0.5"/>
		<path style="&st0;" d="M18.5,113.84c12.63,3.66,42.91,3.26,52.62-0.5"/>
		<path style="&st0;" d="M18.5,120.01c13.17,3.81,39.87,4.44,52.62-0.5"/>
		<path style="&st0;" d="M18.5,126.19c17.41,5.04,38.3,5.04,52.62-0.5"/>
		<path style="&st0;" d="M18.5,132.36c19.5,4.64,36,4.14,52.62-0.5"/>
		<path style="&st0;" d="M19,138.53c15,4.97,40.5,4.72,52.12-0.5"/>
		<path style="&st0;" d="M20.25,145.25c13.75,5.5,38,5,49.75-0.75"/>
		<path style="&st0;" d="M23.75,151.75c11,4.75,34.5,4.25,43.25-0.25"/>
		<path style="&st0;" d="M67.5,33.62c2.5,0,3.75,4.12,3.75,6.25v95.88c-0.06,6-2.25,15.88-6.75,18.62s-13,3.12-20,3.12
			c-7,0-13-0.62-19-4.38s-7-14.06-7-17.38V39.88c0-2.12,1.25-6.25,3.75-6.25"/>
		<polyline style="&st0;" points="7.5,59.5 1,57.5 4.5,57.25 7.5,57.5 "/>
		<path style="&st0;" d="M29.38,20.56c0,0,0.88-8.31,2.12-8.31s2.12,8.31,2.12,8.31"/>
		<line style="&st0;" x1="30.81" y1="3.5" x2="38.88" y2="3.5"/>
		<line style="&st0;" x1="31" y1="4.06" x2="38.31" y2="4.06"/>
		<rect x="30.75" y="0.75" style="&st0;" width="0.62" height="19.81"/> 
		<polyline style="&st0;" points="30.75,13.25 32.5,13.25 32.5,10.75 "/>
		<path style="&st0;" d="M52.81,20.44C52.57,7.71,49.62,0.5,44.25,0.5c-1.71,0-3.22,0.67-4.49,1.99c-5.85,6.05-4.7,23.31-4.7,23.31
			h2.89L38,24.2c-0.05-1.61,0.21-15.79,3.91-19.63c0.7-0.72,1.46-1.07,2.34-1.07c3.3,0,5.36,6.66,5.56,17"/>
		<path style="&st0;" d="M23.93,158.66c-4.43-1.92-7.42-6.04-7.94-9.87c-0.52-3.8-0.93-17.72-1.2-26.93
			c-0.12-4.03-0.21-7.21-0.29-8.7c-0.24-4.87-0.24-56.48,0-61.35c0.07-1.49,0.17-4.67,0.29-8.7c0.27-9.21,0.68-23.12,1.2-26.93
			c0.69-5.1,5.79-10.73,12.81-10.95l2.12-0.05l-0.09-3L28.7,2.25C20.12,2.52,12.87,9.49,12.01,15.8
			c-0.54,3.96-0.94,17.42-1.23,27.24c-0.12,4.01-0.21,7.18-0.28,8.63c-0.26,5.19-0.26,56.46,0,61.65c0.07,1.46,0.17,4.62,0.28,8.64
			c0.29,9.83,0.69,23.28,1.23,27.24c0.69,5.08,5.69,10.59,11.94,12.68"/>
		<line style="&st0;" x1="45.12" y1="3.44" x2="45.12" y2="0.5"/>
		<polyline style="&st0;" points="42.62,4.06 51.88,4.06 51.88,3.5 44.25,3.5 "/>
	</g>
</svg>
